<?xml version="1.0" encoding="UTF-8" standalone="no"?>
<svg
   xmlns:dc="http://purl.org/dc/elements/1.1/"
   xmlns:cc="http://creativecommons.org/ns#"
   xmlns:rdf="http://www.w3.org/1999/02/22-rdf-syntax-ns#"
   xmlns:svg="http://www.w3.org/2000/svg"
   xmlns="http://www.w3.org/2000/svg"
   xmlns:xlink="http://www.w3.org/1999/xlink"
   xmlns:sodipodi="http://sodipodi.sourceforge.net/DTD/sodipodi-0.dtd"
   xmlns:inkscape="http://www.inkscape.org/namespaces/inkscape"
   height="343.26324pt"
   version="1.1"
   viewBox="0 0 473.49918 343.26324"
   width="473.49918pt"
   id="svg445"
   sodipodi:docname="ECFP.svg"
   inkscape:version="1.0.2 (1.0.2+r75+1)">
  <sodipodi:namedview
     pagecolor="#ffffff"
     bordercolor="#666666"
     borderopacity="1"
     objecttolerance="10"
     gridtolerance="10"
     guidetolerance="10"
     inkscape:pageopacity="0"
     inkscape:pageshadow="2"
     inkscape:window-width="1920"
     inkscape:window-height="1043"
     id="namedview447"
     showgrid="false"
     inkscape:zoom="1.6354167"
     inkscape:cx="308.38761"
     inkscape:cy="217.68431"
     inkscape:window-x="0"
     inkscape:window-y="0"
     inkscape:window-maximized="1"
     inkscape:current-layer="svg445" />
  <metadata
     id="metadata2">
    <rdf:RDF>
      <cc:Work>
        <dc:type
           rdf:resource="http://purl.org/dc/dcmitype/StillImage" />
        <dc:date>2022-05-05T12:42:28.667192</dc:date>
        <dc:format>image/svg+xml</dc:format>
        <dc:creator>
          <cc:Agent>
            <dc:title>Matplotlib v3.4.2, https://matplotlib.org/</dc:title>
          </cc:Agent>
        </dc:creator>
      </cc:Work>
    </rdf:RDF>
  </metadata>
  <defs
     id="defs6"><style
   type="text/css"
   id="style4">*{stroke-linecap:butt;stroke-linejoin:round;}</style>




























































</defs>
  <g
     id="figure_1"
     transform="translate(-56.709295,-16.736768)">
    <g
       id="patch_1"
       transform="matrix(0.82204719,0,0,0.95350898,56.709295,16.736768)">
      <path
         d="M 0,360 H 576 V 0 H 0 Z"
         style="fill:none"
         id="path8" />
    </g>
    <g
       id="axes_1">
      <g
         id="patch_2">
        <path
           d="M 72,315 H 518.4 V 43.2 H 72 Z"
           style="fill:#eaeaf2"
           id="path11" />
      </g>
      <g
         id="line2d_1">
        <path
           clip-path="url(#pf4f5c7e594)"
           d="M 343.20089,315 V 43.2"
           style="fill:none;stroke:#f5ad4c;stroke-width:0.75;stroke-dasharray:2.775, 1.2;stroke-dashoffset:0"
           id="path14" />
      </g>
      <g
         id="line2d_2">
        <path
           clip-path="url(#pf4f5c7e594)"
           d="M 247.19911,315 V 43.2"
           style="fill:none;stroke:#f5ad4c;stroke-width:0.75;stroke-dasharray:2.775, 1.2;stroke-dashoffset:0"
           id="path17" />
      </g>
      <g
         id="matplotlib.axis_1">
        <g
           id="xtick_1">
          <g
             id="line2d_3">
            <defs
               id="defs21">
              <path
                 d="M 0,0 V 6"
                 id="m11c980f77c"
                 style="stroke:#666666;stroke-width:1.25" />
            </defs>
            <g
               id="g25">
              <use
                 style="fill:#666666;stroke:#666666;stroke-width:1.25"
                 x="111.75204"
                 y="315"
                 xlink:href="#m11c980f77c"
                 id="use23"
                 width="100%"
                 height="100%" />
            </g>
          </g>
          <g
             id="text_1">
            <g
               style="fill:#666666"
               transform="matrix(0.11,0,0,-0.11,98.396501,332.85828)"
               id="g42">
              <defs
                 id="defs32">
                <path
                   d="M 678,2272 H 4684 V 1741 H 678 Z"
                   id="DejaVuSans-2212"
                   transform="scale(0.015625)" />
                <path
                   d="M 525,4666 H 3525 V 4397 L 1831,0 H 1172 L 2766,4134 H 525 Z"
                   id="DejaVuSans-37"
                   transform="scale(0.015625)" />
                <path
                   d="m 684,794 h 660 V 0 H 684 Z"
                   id="DejaVuSans-2e"
                   transform="scale(0.015625)" />
                <path
                   d="M 691,4666 H 3169 V 4134 H 1269 V 2991 q 137,47 274,70 138,23 276,23 781,0 1237,-428 457,-428 457,-1159 Q 3513,744 3044,326 2575,-91 1722,-91 1428,-91 1123,-41 819,9 494,109 v 635 q 281,-153 581,-228 300,-75 634,-75 541,0 856,284 316,284 316,772 0,487 -316,771 -315,285 -856,285 -253,0 -505,-56 -251,-56 -513,-175 z"
                   id="DejaVuSans-35"
                   transform="scale(0.015625)" />
              </defs>
              <use
                 xlink:href="#DejaVuSans-2212"
                 id="use34"
                 x="0"
                 y="0"
                 width="100%"
                 height="100%" />
              <use
                 x="83.789062"
                 xlink:href="#DejaVuSans-37"
                 id="use36"
                 y="0"
                 width="100%"
                 height="100%" />
              <use
                 x="147.41211"
                 xlink:href="#DejaVuSans-2e"
                 id="use38"
                 y="0"
                 width="100%"
                 height="100%" />
              <use
                 x="179.19922"
                 xlink:href="#DejaVuSans-35"
                 id="use40"
                 y="0"
                 width="100%"
                 height="100%" />
            </g>
          </g>
        </g>
        <g
           id="xtick_2">
          <g
             id="line2d_4">
            <g
               id="g48">
              <use
                 style="fill:#666666;stroke:#666666;stroke-width:1.25"
                 x="172.90137"
                 y="315"
                 xlink:href="#m11c980f77c"
                 id="use46"
                 width="100%"
                 height="100%" />
            </g>
          </g>
          <g
             id="text_2">
            <g
               style="fill:#666666"
               transform="matrix(0.11,0,0,-0.11,159.54582,332.85828)"
               id="g62">
              <defs
                 id="defs52">
                <path
                   d="m 2034,4250 q -487,0 -733,-480 -245,-479 -245,-1442 0,-959 245,-1439 246,-480 733,-480 491,0 736,480 246,480 246,1439 0,963 -246,1442 -245,480 -736,480 z m 0,500 q 785,0 1199,-621 414,-620 414,-1801 0,-1178 -414,-1799 -414,-620 -1199,-620 -784,0 -1198,620 -414,621 -414,1799 0,1181 414,1801 414,621 1198,621 z"
                   id="DejaVuSans-30"
                   transform="scale(0.015625)" />
              </defs>
              <use
                 xlink:href="#DejaVuSans-2212"
                 id="use54"
                 x="0"
                 y="0"
                 width="100%"
                 height="100%" />
              <use
                 x="83.789062"
                 xlink:href="#DejaVuSans-35"
                 id="use56"
                 y="0"
                 width="100%"
                 height="100%" />
              <use
                 x="147.41211"
                 xlink:href="#DejaVuSans-2e"
                 id="use58"
                 y="0"
                 width="100%"
                 height="100%" />
              <use
                 x="179.19922"
                 xlink:href="#DejaVuSans-30"
                 id="use60"
                 y="0"
                 width="100%"
                 height="100%" />
            </g>
          </g>
        </g>
        <g
           id="xtick_3">
          <g
             id="line2d_5">
            <g
               id="g68">
              <use
                 style="fill:#666666;stroke:#666666;stroke-width:1.25"
                 x="234.05069"
                 y="315"
                 xlink:href="#m11c980f77c"
                 id="use66"
                 width="100%"
                 height="100%" />
            </g>
          </g>
          <g
             id="text_3">
            <g
               style="fill:#666666"
               transform="matrix(0.11,0,0,-0.11,220.69514,332.85828)"
               id="g82">
              <defs
                 id="defs72">
                <path
                   d="M 1228,531 H 3431 V 0 H 469 v 531 q 359,372 979,998 621,627 780,809 303,340 423,576 121,236 121,464 0,372 -261,606 -261,235 -680,235 -297,0 -627,-103 -329,-103 -704,-313 v 638 q 381,153 712,231 332,78 607,78 725,0 1156,-363 431,-362 431,-968 0,-288 -108,-546 -107,-257 -392,-607 -78,-91 -497,-524 Q 1991,1309 1228,531 Z"
                   id="DejaVuSans-32"
                   transform="scale(0.015625)" />
              </defs>
              <use
                 xlink:href="#DejaVuSans-2212"
                 id="use74"
                 x="0"
                 y="0"
                 width="100%"
                 height="100%" />
              <use
                 x="83.789062"
                 xlink:href="#DejaVuSans-32"
                 id="use76"
                 y="0"
                 width="100%"
                 height="100%" />
              <use
                 x="147.41211"
                 xlink:href="#DejaVuSans-2e"
                 id="use78"
                 y="0"
                 width="100%"
                 height="100%" />
              <use
                 x="179.19922"
                 xlink:href="#DejaVuSans-35"
                 id="use80"
                 y="0"
                 width="100%"
                 height="100%" />
            </g>
          </g>
        </g>
        <g
           id="xtick_4">
          <g
             id="line2d_6">
            <g
               id="g88">
              <use
                 style="fill:#666666;stroke:#666666;stroke-width:1.25"
                 x="295.20001"
                 y="315"
                 xlink:href="#m11c980f77c"
                 id="use86"
                 width="100%"
                 height="100%" />
            </g>
          </g>
          <g
             id="text_4">
            <g
               style="fill:#666666"
               transform="matrix(0.11,0,0,-0.11,286.45328,332.85828)"
               id="g97">
              <use
                 xlink:href="#DejaVuSans-30"
                 id="use91"
                 x="0"
                 y="0"
                 width="100%"
                 height="100%" />
              <use
                 x="63.623047"
                 xlink:href="#DejaVuSans-2e"
                 id="use93"
                 y="0"
                 width="100%"
                 height="100%" />
              <use
                 x="95.410156"
                 xlink:href="#DejaVuSans-30"
                 id="use95"
                 y="0"
                 width="100%"
                 height="100%" />
            </g>
          </g>
        </g>
        <g
           id="xtick_5">
          <g
             id="line2d_7">
            <g
               id="g103">
              <use
                 style="fill:#666666;stroke:#666666;stroke-width:1.25"
                 x="356.3493"
                 y="315"
                 xlink:href="#m11c980f77c"
                 id="use101"
                 width="100%"
                 height="100%" />
            </g>
          </g>
          <g
             id="text_5">
            <g
               style="fill:#666666"
               transform="matrix(0.11,0,0,-0.11,347.6026,332.85828)"
               id="g112">
              <use
                 xlink:href="#DejaVuSans-32"
                 id="use106"
                 x="0"
                 y="0"
                 width="100%"
                 height="100%" />
              <use
                 x="63.623047"
                 xlink:href="#DejaVuSans-2e"
                 id="use108"
                 y="0"
                 width="100%"
                 height="100%" />
              <use
                 x="95.410156"
                 xlink:href="#DejaVuSans-35"
                 id="use110"
                 y="0"
                 width="100%"
                 height="100%" />
            </g>
          </g>
        </g>
        <g
           id="xtick_6">
          <g
             id="line2d_8">
            <g
               id="g118">
              <use
                 style="fill:#666666;stroke:#666666;stroke-width:1.25"
                 x="417.49863"
                 y="315"
                 xlink:href="#m11c980f77c"
                 id="use116"
                 width="100%"
                 height="100%" />
            </g>
          </g>
          <g
             id="text_6">
            <g
               style="fill:#666666"
               transform="matrix(0.11,0,0,-0.11,408.75192,332.85828)"
               id="g127">
              <use
                 xlink:href="#DejaVuSans-35"
                 id="use121"
                 x="0"
                 y="0"
                 width="100%"
                 height="100%" />
              <use
                 x="63.623047"
                 xlink:href="#DejaVuSans-2e"
                 id="use123"
                 y="0"
                 width="100%"
                 height="100%" />
              <use
                 x="95.410156"
                 xlink:href="#DejaVuSans-30"
                 id="use125"
                 y="0"
                 width="100%"
                 height="100%" />
            </g>
          </g>
        </g>
        <g
           id="xtick_7">
          <g
             id="line2d_9">
            <g
               id="g133">
              <use
                 style="fill:#666666;stroke:#666666;stroke-width:1.25"
                 x="478.64795"
                 y="315"
                 xlink:href="#m11c980f77c"
                 id="use131"
                 width="100%"
                 height="100%" />
            </g>
          </g>
          <g
             id="text_7">
            <g
               style="fill:#666666"
               transform="matrix(0.11,0,0,-0.11,469.90123,332.85828)"
               id="g142">
              <use
                 xlink:href="#DejaVuSans-37"
                 id="use136"
                 x="0"
                 y="0"
                 width="100%"
                 height="100%" />
              <use
                 x="63.623047"
                 xlink:href="#DejaVuSans-2e"
                 id="use138"
                 y="0"
                 width="100%"
                 height="100%" />
              <use
                 x="95.410156"
                 xlink:href="#DejaVuSans-35"
                 id="use140"
                 y="0"
                 width="100%"
                 height="100%" />
            </g>
          </g>
        </g>
        <g
           id="text_8">
          <g
             style="fill:#262626"
             transform="matrix(0.12,0,0,-0.12,230.86406,348.26406)"
             id="g206">
            <defs
               id="defs158">
              <path
                 d="M 1259,4147 V 519 h 763 q 966,0 1414,437 448,438 448,1382 0,937 -448,1373 -448,436 -1414,436 z m -631,519 h 1297 q 1356,0 1990,-564 635,-564 635,-1764 Q 4550,1131 3912,565 3275,0 1925,0 H 628 Z"
                 id="DejaVuSans-44"
                 transform="scale(0.015625)" />
              <path
                 d="M 3597,1894 V 1613 H 953 q 38,-594 358,-905 320,-311 892,-311 331,0 642,81 311,81 618,244 V 178 Q 3153,47 2828,-22 2503,-91 2169,-91 1331,-91 842,396 353,884 353,1716 q 0,859 464,1363 464,505 1252,505 706,0 1117,-455 411,-454 411,-1235 z m -575,169 q -6,471 -264,752 -258,282 -683,282 -481,0 -770,-272 -289,-272 -333,-766 z"
                 id="DejaVuSans-65"
                 transform="scale(0.015625)" />
              <path
                 d="m 2834,3397 v -544 q -243,125 -506,187 -262,63 -544,63 -428,0 -642,-131 -214,-131 -214,-394 0,-200 153,-314 153,-114 616,-217 l 197,-44 q 612,-131 870,-370 258,-239 258,-667 0,-488 -386,-773 Q 2250,-91 1575,-91 1294,-91 989,-36 684,19 347,128 v 594 q 319,-166 628,-249 309,-82 613,-82 406,0 624,139 219,139 219,392 0,234 -158,359 -157,125 -692,241 l -200,47 q -534,112 -772,345 -237,233 -237,639 0,494 350,762 350,269 994,269 318,0 599,-47 282,-46 519,-140 z"
                 id="DejaVuSans-73"
                 transform="scale(0.015625)" />
              <path
                 d="m 3122,3366 v -538 q -244,135 -489,202 -245,67 -495,67 -560,0 -870,-355 -309,-354 -309,-995 0,-641 309,-996 310,-354 870,-354 250,0 495,67 245,67 489,202 V 134 Q 2881,22 2623,-34 2366,-91 2075,-91 1284,-91 818,406 353,903 353,1747 q 0,856 470,1346 471,491 1290,491 265,0 518,-55 253,-54 491,-163 z"
                 id="DejaVuSans-63"
                 transform="scale(0.015625)" />
              <path
                 d="m 2631,2963 q -97,56 -211,82 -114,27 -251,27 -488,0 -749,-317 -261,-317 -261,-911 V 0 H 581 v 3500 h 578 v -544 q 182,319 472,473 291,155 707,155 59,0 131,-8 72,-7 159,-23 z"
                 id="DejaVuSans-72"
                 transform="scale(0.015625)" />
              <path
                 d="m 603,3500 h 575 V 0 H 603 Z m 0,1363 h 575 V 4134 H 603 Z"
                 id="DejaVuSans-69"
                 transform="scale(0.015625)" />
              <path
                 d="M 1159,525 V -1331 H 581 v 4831 h 578 v -531 q 182,312 458,463 277,152 661,152 638,0 1036,-506 399,-506 399,-1331 0,-825 -399,-1332 -398,-506 -1036,-506 -384,0 -661,152 -276,152 -458,464 z m 1957,1222 q 0,634 -261,995 -261,361 -717,361 -457,0 -718,-361 -261,-361 -261,-995 0,-634 261,-995 261,-361 718,-361 456,0 717,361 261,361 261,995 z"
                 id="DejaVuSans-70"
                 transform="scale(0.015625)" />
              <path
                 d="M 1172,4494 V 3500 H 2356 V 3053 H 1172 V 1153 q 0,-428 117,-550 117,-122 477,-122 h 590 V 0 H 1766 Q 1100,0 847,248 594,497 594,1153 V 3053 H 172 v 447 h 422 v 994 z"
                 id="DejaVuSans-74"
                 transform="scale(0.015625)" />
              <path
                 d="m 1959,3097 q -462,0 -731,-361 -269,-361 -269,-989 0,-628 267,-989 268,-361 733,-361 460,0 728,362 269,363 269,988 0,622 -269,986 -268,364 -728,364 z m 0,487 q 750,0 1178,-488 429,-487 429,-1349 Q 3566,888 3137,398 2709,-91 1959,-91 1206,-91 779,398 353,888 353,1747 q 0,862 426,1349 427,488 1180,488 z"
                 id="DejaVuSans-6f"
                 transform="scale(0.015625)" />
              <path
                 id="DejaVuSans-20"
                 transform="scale(0.015625)"
                 d="" />
              <path
                 d="M 313,2009 H 1997 V 1497 H 313 Z"
                 id="DejaVuSans-2d"
                 transform="scale(0.015625)" />
              <path
                 d="m 2194,1759 q -697,0 -966,-159 -269,-159 -269,-544 0,-306 202,-486 202,-179 548,-179 479,0 768,339 289,339 289,901 v 128 z m 1147,238 V 0 H 2766 V 531 Q 2569,213 2275,61 1981,-91 1556,-91 q -537,0 -855,302 -317,302 -317,808 0,590 395,890 396,300 1180,300 h 807 v 57 q 0,397 -261,614 -261,217 -733,217 -300,0 -585,-72 -284,-72 -546,-216 v 532 q 315,122 612,182 297,61 578,61 760,0 1135,-394 375,-393 375,-1193 z"
                 id="DejaVuSans-61"
                 transform="scale(0.015625)" />
            </defs>
            <use
               xlink:href="#DejaVuSans-44"
               id="use160"
               x="0"
               y="0"
               width="100%"
               height="100%" />
            <use
               x="77.001953"
               xlink:href="#DejaVuSans-65"
               id="use162"
               y="0"
               width="100%"
               height="100%" />
            <use
               x="138.52539"
               xlink:href="#DejaVuSans-73"
               id="use164"
               y="0"
               width="100%"
               height="100%" />
            <use
               x="190.625"
               xlink:href="#DejaVuSans-63"
               id="use166"
               y="0"
               width="100%"
               height="100%" />
            <use
               x="245.60547"
               xlink:href="#DejaVuSans-72"
               id="use168"
               y="0"
               width="100%"
               height="100%" />
            <use
               x="286.71875"
               xlink:href="#DejaVuSans-69"
               id="use170"
               y="0"
               width="100%"
               height="100%" />
            <use
               x="314.50195"
               xlink:href="#DejaVuSans-70"
               id="use172"
               y="0"
               width="100%"
               height="100%" />
            <use
               x="377.97852"
               xlink:href="#DejaVuSans-74"
               id="use174"
               y="0"
               width="100%"
               height="100%" />
            <use
               x="417.1875"
               xlink:href="#DejaVuSans-6f"
               id="use176"
               y="0"
               width="100%"
               height="100%" />
            <use
               x="478.36914"
               xlink:href="#DejaVuSans-72"
               id="use178"
               y="0"
               width="100%"
               height="100%" />
            <use
               x="519.48242"
               xlink:href="#DejaVuSans-20"
               id="use180"
               y="0"
               width="100%"
               height="100%" />
            <use
               x="551.26953"
               xlink:href="#DejaVuSans-74"
               id="use182"
               y="0"
               width="100%"
               height="100%" />
            <use
               x="590.47852"
               xlink:href="#DejaVuSans-2d"
               id="use184"
               y="0"
               width="100%"
               height="100%" />
            <use
               x="626.5625"
               xlink:href="#DejaVuSans-73"
               id="use186"
               y="0"
               width="100%"
               height="100%" />
            <use
               x="678.66211"
               xlink:href="#DejaVuSans-74"
               id="use188"
               y="0"
               width="100%"
               height="100%" />
            <use
               x="717.87109"
               xlink:href="#DejaVuSans-61"
               id="use190"
               y="0"
               width="100%"
               height="100%" />
            <use
               x="779.15039"
               xlink:href="#DejaVuSans-74"
               id="use192"
               y="0"
               width="100%"
               height="100%" />
            <use
               x="818.35938"
               xlink:href="#DejaVuSans-69"
               id="use194"
               y="0"
               width="100%"
               height="100%" />
            <use
               x="846.14258"
               xlink:href="#DejaVuSans-73"
               id="use196"
               y="0"
               width="100%"
               height="100%" />
            <use
               x="898.24219"
               xlink:href="#DejaVuSans-74"
               id="use198"
               y="0"
               width="100%"
               height="100%" />
            <use
               x="937.45117"
               xlink:href="#DejaVuSans-69"
               id="use200"
               y="0"
               width="100%"
               height="100%" />
            <use
               x="965.23438"
               xlink:href="#DejaVuSans-63"
               id="use202"
               y="0"
               width="100%"
               height="100%" />
            <use
               x="1020.2148"
               xlink:href="#DejaVuSans-73"
               id="use204"
               y="0"
               width="100%"
               height="100%" />
          </g>
        </g>
      </g>
      <g
         id="matplotlib.axis_2" />
      <g
         id="patch_3">
        <path
           clip-path="url(#pf4f5c7e594)"
           d="m 296.54528,271.95416 h 28.80284 q 0.3669,0 0.3669,3.12115 v 16.12593 q 0,3.12115 -0.3669,3.12115 h -28.80284 q -0.36689,0 -0.36689,-3.12115 v -16.12593 q 0,-3.12115 0.36689,-3.12115 z"
           style="fill:#1bbc9b"
           id="path211" />
      </g>
      <g
         id="patch_4">
        <path
           clip-path="url(#pf4f5c7e594)"
           d="m 259.35776,219.93502 h 34.49695 q 0.3669,0 0.3669,3.12115 v 16.12593 q 0,3.12115 -0.3669,3.12115 h -34.49695 q -0.36689,0 -0.36689,-3.12115 v -16.12593 q 0,-3.12115 0.36689,-3.12115 z"
           style="fill:#f06060"
           id="path214" />
      </g>
      <g
         id="patch_5">
        <path
           clip-path="url(#pf4f5c7e594)"
           d="m 248.95211,167.91588 h 44.9026 q 0.3669,0 0.3669,3.12115 v 16.12594 q 0,3.12115 -0.3669,3.12115 h -44.9026 q -0.3669,0 -0.3669,-3.12115 v -16.12594 q 0,-3.12115 0.3669,-3.12115 z"
           style="fill:#f06060"
           id="path217" />
      </g>
      <g
         id="patch_6">
        <path
           clip-path="url(#pf4f5c7e594)"
           d="m 197.72169,115.89675 h 96.13302 q 0.3669,0 0.3669,3.12114 v 16.12594 q 0,3.12115 -0.3669,3.12115 h -96.13302 q -0.36689,0 -0.36689,-3.12115 v -16.12594 q 0,-3.12114 0.36689,-3.12114 z"
           style="fill:#f06060"
           id="path220" />
      </g>
      <g
         id="patch_7">
        <path
           clip-path="url(#pf4f5c7e594)"
           d="m 195.64392,63.877608 h 98.21079 q 0.3669,0 0.3669,3.121148 v 16.125933 q 0,3.121148 -0.3669,3.121148 h -98.21079 q -0.3669,0 -0.3669,-3.121148 V 66.998756 q 0,-3.121148 0.3669,-3.121148 z"
           style="fill:#f06060"
           id="path223" />
      </g>
      <g
         id="line2d_10">
        <path
           clip-path="url(#pf4f5c7e594)"
           d="M 295.2,315 V 43.2"
           style="fill:none;stroke:#808080;stroke-width:0.5;stroke-linecap:round"
           id="path226" />
      </g>
      <g
         id="patch_8">
        <path
           d="M 72,315 V 43.2"
           style="fill:none;stroke:#666666;stroke-width:1.25;stroke-linecap:square;stroke-linejoin:miter"
           id="path229" />
      </g>
      <g
         id="patch_9">
        <path
           d="M 518.4,315 V 43.2"
           style="fill:none;stroke:#666666;stroke-width:1.25;stroke-linecap:square;stroke-linejoin:miter"
           id="path232" />
      </g>
      <g
         id="patch_10">
        <path
           d="M 72,315 H 518.4"
           style="fill:none;stroke:#666666;stroke-width:1.25;stroke-linecap:square;stroke-linejoin:miter"
           id="path235" />
      </g>
      <g
         id="patch_11">
        <path
           d="M 72,43.2 H 518.4"
           style="fill:none;stroke:#666666;stroke-width:1.25;stroke-linecap:square;stroke-linejoin:miter"
           id="path238" />
      </g>
      <g
         id="text_9">
        <g
           style="fill:#262626"
           transform="matrix(0.12,0,0,-0.12,301.31493,78.372972)"
           id="g243">
          <use
             xlink:href="#DejaVuSans-20"
             id="use241"
             x="0"
             y="0"
             width="100%"
             height="100%" />
        </g>
      </g>
      <g
         id="text_10">
        <g
           style="fill:#262626"
           transform="matrix(0.12,0,0,-0.12,301.31493,130.39211)"
           id="g248">
          <use
             xlink:href="#DejaVuSans-20"
             id="use246"
             x="0"
             y="0"
             width="100%"
             height="100%" />
        </g>
      </g>
      <g
         id="text_11">
        <g
           style="fill:#262626"
           transform="matrix(0.12,0,0,-0.12,301.31493,182.41125)"
           id="g253">
          <use
             xlink:href="#DejaVuSans-20"
             id="use251"
             x="0"
             y="0"
             width="100%"
             height="100%" />
        </g>
      </g>
      <g
         id="text_12">
        <g
           style="fill:#262626"
           transform="matrix(0.12,0,0,-0.12,301.31493,234.43039)"
           id="g258">
          <use
             xlink:href="#DejaVuSans-20"
             id="use256"
             x="0"
             y="0"
             width="100%"
             height="100%" />
        </g>
      </g>
      <g
         id="text_13">
        <g
           style="fill:#262626"
           transform="matrix(0.12,0,0,-0.12,285.27132,286.44953)"
           id="g263">
          <use
             xlink:href="#DejaVuSans-20"
             id="use261"
             x="0"
             y="0"
             width="100%"
             height="100%" />
        </g>
      </g>
      <g
         id="patch_12"
         transform="translate(-63,3)">
        <path
           d="m 440.072,99.78 h 138.8 v -58.8 h -138.8 z"
           style="fill:#ffffff;stroke:#000000;stroke-width:0.5;stroke-linejoin:miter"
           id="path266" />
      </g>
      <g
         id="g1288"
         transform="matrix(0.1875,0,0,0.1875,418.347,54.63)">
        <rect
           height="200"
           style="fill:#ffffff;stroke:none"
           width="300"
           x="0"
           y="0"
           id="rect269"> </rect>
        <path
           class="bond-0 atom-0 atom-1"
           d="M 267.396,77.1132 45.9764,122.924"
           style="fill:none;fill-rule:evenodd;stroke:#cccccc;stroke-width:19.7px;stroke-linecap:butt;stroke-linejoin:miter;stroke-opacity:1"
           id="path271" />
        <path
           class="atom-0"
           d="m 274.934,71.2888 4.16,-4.24 -5.52,-1.12 0.84,-2.84 5.08,2.56 -0.72,-5.56 3,-0.04 -0.84,5.56 5.16,-2.4 0.88,2.72 -5.6,1.04 4,4.28 -2.44,1.76 -2.76,-5.28 -2.8,5.28 -2.44,-1.72"
           fill="#191919"
           id="path273" />
        <path
           class="atom-1"
           d="m 11.1674,125.495 q 0,-7.04 3.28,-10.72 3.32,-3.72 9.6,-3.72 5.84,0 8.96,4.12 l -2.64,2.16 q -2.28,-3 -6.32,-3 -4.28,0 -6.56,2.88 -2.24,2.84 -2.24,8.28 0,5.6 2.32,8.48 2.36,2.88 6.92,2.88 3.12,0 6.76,-1.88 l 1.12,3 q -1.48,0.96 -3.72,1.52 -2.24,0.56 -4.72,0.56 -6.16,0 -9.48,-3.76 -3.28,-3.76 -3.28,-10.8"
           fill="#00cc00"
           id="path275" />
        <path
           class="atom-1"
           d="m 36.4474,109.335 h 3.68 v 30.36 h -3.68 v -30.36"
           fill="#00cc00"
           id="path277" />
      </g>
      <g
         id="patch_13"
         transform="translate(-63,3)">
        <path
           d="m 440.072,154.14 h 138.8 v -58.8 h -138.8 z"
           style="fill:#ffffff;stroke:#000000;stroke-width:0.5;stroke-linejoin:miter"
           id="path282" />
      </g>
      <g
         id="g1315"
         transform="matrix(0.2625,0,0,0.2625,407.68811,99.40121)">
        <rect
           height="200"
           style="fill:#ffffff;stroke:none"
           width="300"
           x="0"
           y="0"
           id="rect285"> </rect>
        <path
           class="bond-0 atom-0 atom-1"
           d="M 196.011,190.909 166.827,99.4439"
           style="fill:none;fill-rule:evenodd;stroke:#000000;stroke-width:2px;stroke-linecap:butt;stroke-linejoin:miter;stroke-opacity:1"
           id="path287" />
        <path
           class="bond-1 atom-1 atom-2"
           d="M 169.539,91.2466 81.2921,62.0548"
           style="fill:none;fill-rule:evenodd;stroke:#cccccc;stroke-width:7.7px;stroke-linecap:butt;stroke-linejoin:miter;stroke-opacity:1"
           id="path289" />
        <path
           class="bond-1 atom-1 atom-2"
           d="M 164.115,107.641 75.8687,78.4495"
           style="fill:none;fill-rule:evenodd;stroke:#cccccc;stroke-width:7.7px;stroke-linecap:butt;stroke-linejoin:miter;stroke-dasharray:6, 6;stroke-opacity:1"
           id="path291" />
        <path
           class="bond-2 atom-3 atom-1"
           d="M 216.377,17.8926 159.884,94.3113"
           style="fill:none;fill-rule:evenodd;stroke:#cccccc;stroke-width:7.7px;stroke-linecap:butt;stroke-linejoin:miter;stroke-opacity:1"
           id="path293" />
        <path
           class="bond-2 atom-3 atom-1"
           d="M 230.263,28.158 173.77,104.577"
           style="fill:none;fill-rule:evenodd;stroke:#cccccc;stroke-width:7.7px;stroke-linecap:butt;stroke-linejoin:miter;stroke-dasharray:6, 6;stroke-opacity:1"
           id="path295" />
        <path
           class="atom-2"
           d="m 70.2894,66.0055 4.4898,-4.5761 -5.9576,-1.2088 0.9066,-3.0651 5.4827,2.7629 -0.7771,-6.0008 3.2378,-0.0431 -0.9065,6.0007 5.569,-2.5902 0.9498,2.9356 -6.044,1.1225 4.3171,4.6193 -2.6334,1.8995 -2.9788,-5.6986 -3.022,5.6986 -2.6334,-1.8564"
           fill="#191919"
           id="path297" />
        <path
           class="atom-3"
           d="m 218.184,18.7668 4.49,-4.5762 -5.958,-1.2088 0.907,-3.06511 5.482,2.76291 -0.777,-6.00074 3.238,-0.04317 -0.906,6.00081 5.569,-2.5903 0.949,2.9356 -6.044,1.1225 4.318,4.6193 -2.634,1.8995 -2.979,-5.6986 -3.022,5.6986 -2.633,-1.8563"
           fill="#191919"
           id="path299" />
      </g>
      <g
         id="patch_14"
         transform="translate(-63,3)">
        <path
           d="m 440.072,208.5 h 138.8 v -58.8 h -138.8 z"
           style="fill:#ffffff;stroke:#000000;stroke-width:0.5;stroke-linejoin:miter"
           id="path304" />
      </g>
      <g
         id="g1339"
         transform="matrix(0.21697545,0,0,0.21697545,413.92568,159.6)">
        <rect
           height="200"
           style="fill:#ffffff;stroke:none"
           width="300"
           x="0"
           y="0"
           id="rect307"> </rect>
        <path
           class="bond-0 atom-0 atom-1"
           d="M 68.3676,201.668 201.836,174.061"
           style="fill:none;fill-rule:evenodd;stroke:#cccccc;stroke-width:11.7px;stroke-linecap:butt;stroke-linejoin:miter;stroke-opacity:1"
           id="path309" />
        <path
           class="bond-0 atom-0 atom-1"
           d="M 63.0293,175.859 196.498,148.253"
           style="fill:none;fill-rule:evenodd;stroke:#cccccc;stroke-width:11.7px;stroke-linecap:butt;stroke-linejoin:miter;stroke-dasharray:6, 6;stroke-opacity:1"
           id="path311" />
        <path
           class="bond-1 atom-1 atom-2"
           d="M 211.69,165.258 256.471,28.4939"
           style="fill:none;fill-rule:evenodd;stroke:#cccccc;stroke-width:11.7px;stroke-linecap:butt;stroke-linejoin:miter;stroke-opacity:1"
           id="path313" />
        <path
           class="bond-1 atom-1 atom-2"
           d="M 186.644,157.056 231.425,20.2927"
           style="fill:none;fill-rule:evenodd;stroke:#cccccc;stroke-width:11.7px;stroke-linecap:butt;stroke-linejoin:miter;stroke-dasharray:6, 6;stroke-opacity:1"
           id="path315" />
        <path
           class="atom-0"
           d="m 49.9863,187.749 4.16,-4.24 -5.52,-1.12 0.84,-2.84 5.08,2.56 -0.72,-5.56 3,-0.04 -0.84,5.56 5.16,-2.4 0.88,2.72 -5.6,1.04 4,4.28 -2.44,1.76 -2.76,-5.28 -2.8,5.28 -2.44,-1.72"
           fill="#191919"
           id="path317" />
        <path
           class="atom-2"
           d="m 239.334,19.0173 4.16,-4.24 -5.52,-1.12 0.84,-2.84 5.08,2.56 -0.72,-5.56002 3,-0.04 -0.84,5.56002 5.16,-2.4 0.88,2.72 -5.6,1.04 4,4.28 -2.44,1.76 -2.76,-5.28 -2.8,5.28 -2.44,-1.72"
           fill="#191919"
           id="path319" />
      </g>
      <g
         id="patch_15"
         transform="translate(-63,3)">
        <path
           d="m 440.072,262.86 h 138.8 v -58.8 h -138.8 z"
           style="fill:#ffffff;stroke:#000000;stroke-width:0.5;stroke-linejoin:miter"
           id="path324" />
      </g>
      <g
         id="g1381"
         transform="matrix(0.2625,0,0,0.2625,407.097,210.21)">
        <rect
           height="200"
           style="fill:#ffffff;stroke:none"
           width="300"
           x="0"
           y="0"
           id="rect327"> </rect>
        <path
           class="bond-0 atom-0 atom-1"
           d="M 64.1091,70.9878 87.1208,116.552"
           style="fill:none;fill-rule:evenodd;stroke:#cccccc;stroke-width:5.5px;stroke-linecap:butt;stroke-linejoin:miter;stroke-opacity:1"
           id="path329" />
        <path
           class="bond-1 atom-1 atom-2"
           d="m 105.926,130.748 28.722,-4.368"
           style="fill:none;fill-rule:evenodd;stroke:#cccc00;stroke-width:2px;stroke-linecap:butt;stroke-linejoin:miter;stroke-opacity:1"
           id="path331" />
        <path
           class="bond-1 atom-1 atom-2"
           d="m 134.648,126.38 28.722,-4.369"
           style="fill:none;fill-rule:evenodd;stroke:#000000;stroke-width:2px;stroke-linecap:butt;stroke-linejoin:miter;stroke-opacity:1"
           id="path333" />
        <path
           class="bond-2 atom-2 atom-3"
           d="m 163.37,122.011 3.257,68.898"
           style="fill:none;fill-rule:evenodd;stroke:#000000;stroke-width:2px;stroke-linecap:butt;stroke-linejoin:miter;stroke-opacity:1"
           id="path335" />
        <path
           class="bond-3 atom-2 atom-4"
           d="m 163.37,122.011 68.856,3.865"
           style="fill:none;fill-rule:evenodd;stroke:#000000;stroke-width:2px;stroke-linecap:butt;stroke-linejoin:miter;stroke-opacity:1"
           id="path337" />
        <path
           class="bond-4 atom-2 atom-5"
           d="M 163.37,122.011 174.344,53.7895"
           style="fill:none;fill-rule:evenodd;stroke:#000000;stroke-width:2px;stroke-linecap:butt;stroke-linejoin:miter;stroke-opacity:1"
           id="path339" />
        <path
           class="bond-5 atom-5 atom-6"
           d="M 174.344,53.7895 235.467,23.0162"
           style="fill:none;fill-rule:evenodd;stroke:#cccccc;stroke-width:5.5px;stroke-linecap:butt;stroke-linejoin:miter;stroke-opacity:1"
           id="path341" />
        <path
           class="bond-6 atom-5 atom-7"
           d="M 174.344,53.7895 113.59,22.4617"
           style="fill:none;fill-rule:evenodd;stroke:#cccccc;stroke-width:5.5px;stroke-linecap:butt;stroke-linejoin:miter;stroke-opacity:1"
           id="path343" />
        <path
           class="atom-0"
           d="m 58.6238,67.5399 4.16,-4.24 -5.52,-1.12 0.84,-2.84 5.08,2.56 -0.72,-5.56 3,-0.04 -0.84,5.56 5.16,-2.4 0.88,2.72 -5.6,1.04 4,4.28 -2.44,1.76 -2.76,-5.28 -2.8,5.28 -2.44,-1.72"
           fill="#191919"
           id="path345" />
        <path
           class="atom-1"
           d="m 87.1204,142.112 q 0.32,0.12 1.64,0.68 1.32,0.56 2.76,0.92 1.48,0.32 2.92,0.32 2.68,0 4.24,-1.28 1.5596,-1.32 1.5596,-3.6 0,-1.56 -0.7996,-2.52 -0.76,-0.96 -1.96,-1.48 -1.2,-0.52 -3.2,-1.12 -2.52,-0.76 -4.04,-1.48 -1.48,-0.72 -2.56,-2.24 -1.04,-1.52 -1.04,-4.08 0,-3.56 2.4,-5.76 2.44,-2.2 7.24,-2.2 3.28,0 6.9996,1.56 l -0.92,3.08 q -3.3996,-1.4 -5.9596,-1.4 -2.76,0 -4.28,1.16 -1.52,1.12 -1.48,3.08 0,1.52 0.76,2.44 0.8,0.92 1.92,1.44 1.16,0.52 3.08,1.12 2.56,0.8 4.0796,1.6 1.52,0.8 2.6,2.44 1.12,1.6 1.12,4.36 0,3.92 -2.64,6.04 -2.5996,2.08 -6.9596,2.08 -2.52,0 -4.44,-0.56 -1.88,-0.52 -4.12,-1.44 l 1.08,-3.16"
           fill="#cccc00"
           id="path347" />
        <path
           class="atom-6"
           d="m 230.696,19.5695 4.16,-4.24 -5.52,-1.12 0.84,-2.84 5.08,2.56 -0.72,-5.56005 3,-0.04 -0.84,5.56005 5.16,-2.4 0.88,2.72 -5.6,1.04 4,4.28 -2.44,1.76 -2.76,-5.28 -2.8,5.28 -2.44,-1.72"
           fill="#191919"
           id="path349" />
        <path
           class="atom-7"
           d="m 107.699,19.0173 4.16,-4.24 -5.52,-1.12 0.84,-2.84 5.08,2.56 -0.72,-5.56002 3,-0.04 -0.84,5.56002 5.16,-2.4 0.88,2.72 -5.6,1.04 4,4.28 -2.44,1.76 -2.76,-5.28 -2.8,5.28 -2.44,-1.72"
           fill="#191919"
           id="path351" />
      </g>
      <g
         id="patch_16"
         transform="translate(63,-3)">
        <path
           d="m 11.528,317.22 h 138.8 v -58.8 h -138.8 z"
           style="fill:#ffffff;stroke:#000000;stroke-width:0.5;stroke-linejoin:miter"
           id="path356" />
      </g>
      <g
         id="g1435"
         transform="matrix(0.2625,0,0,0.2625,104.553,258.57)">
        <rect
           height="200"
           style="fill:#ffffff;stroke:none"
           width="300"
           x="0"
           y="0"
           id="rect359"> </rect>
        <path
           class="bond-0 atom-0 atom-1"
           d="M 151.556,190.909 131.576,128.29"
           style="fill:none;fill-rule:evenodd;stroke:#000000;stroke-width:2px;stroke-linecap:butt;stroke-linejoin:miter;stroke-opacity:1"
           id="path361" />
        <path
           class="bond-1 atom-1 atom-2"
           d="m 131.576,128.29 -25.452,-8.42"
           style="fill:none;fill-rule:evenodd;stroke:#000000;stroke-width:2px;stroke-linecap:butt;stroke-linejoin:miter;stroke-opacity:1"
           id="path363" />
        <path
           class="bond-1 atom-1 atom-2"
           d="M 106.124,119.87 80.6716,111.451"
           style="fill:none;fill-rule:evenodd;stroke:#ff0000;stroke-width:2px;stroke-linecap:butt;stroke-linejoin:miter;stroke-opacity:1"
           id="path365" />
        <path
           class="bond-1 atom-1 atom-2"
           d="m 120.227,136.988 -17.816,-5.893"
           style="fill:none;fill-rule:evenodd;stroke:#000000;stroke-width:2px;stroke-linecap:butt;stroke-linejoin:miter;stroke-dasharray:6, 6;stroke-opacity:1"
           id="path367" />
        <path
           class="bond-1 atom-1 atom-2"
           d="M 102.411,131.095 84.5943,125.201"
           style="fill:none;fill-rule:evenodd;stroke:#ff0000;stroke-width:2px;stroke-linecap:butt;stroke-linejoin:miter;stroke-dasharray:6, 6;stroke-opacity:1"
           id="path369" />
        <path
           class="bond-5 atom-5 atom-1"
           d="M 170.682,75.3912 131.576,128.29"
           style="fill:none;fill-rule:evenodd;stroke:#000000;stroke-width:2px;stroke-linecap:butt;stroke-linejoin:miter;stroke-opacity:1"
           id="path371" />
        <path
           class="bond-5 atom-5 atom-1"
           d="M 155.309,76.2981 127.935,113.327"
           style="fill:none;fill-rule:evenodd;stroke:#000000;stroke-width:2px;stroke-linecap:butt;stroke-linejoin:miter;stroke-dasharray:6, 6;stroke-opacity:1"
           id="path373" />
        <path
           class="bond-2 atom-2 atom-3"
           d="M 75.3723,95.5217 75.5106,42.2373"
           style="fill:none;fill-rule:evenodd;stroke:#cccccc;stroke-width:5.3px;stroke-linecap:butt;stroke-linejoin:miter;stroke-opacity:1"
           id="path375" />
        <path
           class="bond-2 atom-2 atom-3"
           d="M 63.55,95.491 63.6883,42.2066"
           style="fill:none;fill-rule:evenodd;stroke:#cccccc;stroke-width:5.3px;stroke-linecap:butt;stroke-linejoin:miter;stroke-dasharray:6, 6;stroke-opacity:1"
           id="path377" />
        <path
           class="bond-3 atom-4 atom-5"
           d="m 127.846,26.2175 38.045,52.6364"
           style="fill:none;fill-rule:evenodd;stroke:#cccccc;stroke-width:5.3px;stroke-linecap:butt;stroke-linejoin:miter;stroke-opacity:1"
           id="path379" />
        <path
           class="bond-3 atom-4 atom-5"
           d="m 137.428,19.292 38.044,52.6365"
           style="fill:none;fill-rule:evenodd;stroke:#cccccc;stroke-width:5.3px;stroke-linecap:butt;stroke-linejoin:miter;stroke-dasharray:6, 6;stroke-opacity:1"
           id="path381" />
        <path
           class="bond-4 atom-5 atom-6"
           d="m 170.682,75.3912 59.023,0.3427"
           style="fill:none;fill-rule:evenodd;stroke:#cccccc;stroke-width:5.3px;stroke-linecap:butt;stroke-linejoin:miter;stroke-opacity:1"
           id="path383" />
        <path
           class="atom-2"
           d="m 59.8237,107.791 q 0,-5.024 2.4827,-7.8322 2.4827,-2.8078 7.123,-2.8078 4.6403,0 7.123,2.8078 2.4827,2.8082 2.4827,7.8322 0,5.084 -2.5123,7.98 -2.5122,2.867 -7.0934,2.867 -4.6107,0 -7.123,-2.867 -2.4827,-2.867 -2.4827,-7.98 m 9.6057,8.483 q 3.1921,0 4.9063,-2.128 1.7438,-2.158 1.7438,-6.355 0,-4.108 -1.7438,-6.177 -1.7142,-2.0986 -4.9063,-2.0986 -3.192,0 -4.9358,2.0686 -1.7143,2.069 -1.7143,6.207 0,4.227 1.7143,6.355 1.7438,2.128 4.9358,2.128"
           fill="#ff0000"
           id="path385" />
        <path
           class="atom-3"
           d="m 65.6545,39.612 3.0738,-3.1329 -4.0787,-0.8276 0.6206,-2.0984 3.7536,1.8915 -0.532,-4.1082 2.2167,-0.0296 -0.6206,4.1083 3.8127,-1.7734 0.6502,2.0098 -4.1378,0.7685 2.9556,3.1625 -1.8029,1.3004 -2.0394,-3.9014 -2.0689,3.9014 -1.8029,-1.2709"
           fill="#191919"
           id="path387" />
        <path
           class="atom-4"
           d="m 128.274,19.8424 3.074,-3.133 -4.079,-0.8275 0.62,-2.0985 3.754,1.8916 -0.532,-4.1083 2.217,-0.0296 -0.621,4.1083 3.813,-1.7733 0.65,2.0098 -4.138,0.7684 2.956,3.1625 -1.803,1.3005 -2.039,-3.9014 -2.069,3.9014 -1.803,-1.2709"
           fill="#191919"
           id="path389" />
        <path
           class="atom-6"
           d="m 232.35,73.4372 3.074,-3.1329 -4.079,-0.8276 0.621,-2.0985 3.754,1.8916 -0.532,-4.1083 2.216,-0.0295 -0.62,4.1083 3.812,-1.7734 0.651,2.0098 -4.138,0.7685 2.955,3.1625 -1.803,1.3004 -2.039,-3.9014 -2.069,3.9014 -1.803,-1.2709"
           fill="#191919"
           id="path391" />
      </g>
      <g
         id="text_14">
        <g
           style="fill:#262626"
           transform="matrix(0.12,0,0,-0.12,244.75969,37.2)"
           id="g435">
          <defs
             id="defs401">
            <path
               d="M 628,4666 H 3578 V 4134 H 1259 V 2753 H 3481 V 2222 H 1259 V 531 H 3634 V 0 H 628 Z"
               id="DejaVuSans-45"
               transform="scale(0.015625)" />
            <path
               d="m 4122,4306 v -665 q -319,297 -680,443 -361,147 -767,147 -800,0 -1225,-489 -425,-489 -425,-1414 0,-922 425,-1411 425,-489 1225,-489 406,0 767,147 361,147 680,444 V 359 Q 3791,134 3420,21 3050,-91 2638,-91 1578,-91 968,557 359,1206 359,2328 q 0,1125 609,1773 610,649 1670,649 418,0 788,-111 371,-111 696,-333 z"
               id="DejaVuSans-43"
               transform="scale(0.015625)" />
            <path
               d="M 628,4666 H 3309 V 4134 H 1259 V 2759 H 3109 V 2228 H 1259 V 0 H 628 Z"
               id="DejaVuSans-46"
               transform="scale(0.015625)" />
            <path
               d="M 1259,4147 V 2394 h 794 q 441,0 681,228 241,228 241,650 0,419 -241,647 -240,228 -681,228 z m -631,519 h 1425 q 785,0 1186,-355 402,-355 402,-1039 0,-691 -402,-1044 -401,-353 -1186,-353 H 1259 V 0 H 628 Z"
               id="DejaVuSans-50"
               transform="scale(0.015625)" />
            <path
               d="m 2906,2969 v 1894 h 575 V 0 H 2906 V 525 Q 2725,213 2448,61 2172,-91 1784,-91 1150,-91 751,415 353,922 353,1747 q 0,825 398,1331 399,506 1033,506 388,0 664,-152 277,-151 458,-463 z M 947,1747 q 0,-634 261,-995 261,-361 717,-361 456,0 718,361 263,361 263,995 0,634 -263,995 -262,361 -718,361 -456,0 -717,-361 -261,-361 -261,-995 z"
               id="DejaVuSans-64"
               transform="scale(0.015625)" />
          </defs>
          <use
             xlink:href="#DejaVuSans-45"
             id="use403"
             x="0"
             y="0"
             width="100%"
             height="100%" />
          <use
             x="63.183594"
             xlink:href="#DejaVuSans-43"
             id="use405"
             y="0"
             width="100%"
             height="100%" />
          <use
             x="133.00781"
             xlink:href="#DejaVuSans-46"
             id="use407"
             y="0"
             width="100%"
             height="100%" />
          <use
             x="190.52734"
             xlink:href="#DejaVuSans-50"
             id="use409"
             y="0"
             width="100%"
             height="100%" />
          <use
             x="250.83008"
             xlink:href="#DejaVuSans-20"
             id="use411"
             y="0"
             width="100%"
             height="100%" />
          <use
             x="282.61719"
             xlink:href="#DejaVuSans-64"
             id="use413"
             y="0"
             width="100%"
             height="100%" />
          <use
             x="346.09375"
             xlink:href="#DejaVuSans-65"
             id="use415"
             y="0"
             width="100%"
             height="100%" />
          <use
             x="407.61719"
             xlink:href="#DejaVuSans-73"
             id="use417"
             y="0"
             width="100%"
             height="100%" />
          <use
             x="459.7168"
             xlink:href="#DejaVuSans-63"
             id="use419"
             y="0"
             width="100%"
             height="100%" />
          <use
             x="514.69727"
             xlink:href="#DejaVuSans-72"
             id="use421"
             y="0"
             width="100%"
             height="100%" />
          <use
             x="555.81055"
             xlink:href="#DejaVuSans-69"
             id="use423"
             y="0"
             width="100%"
             height="100%" />
          <use
             x="583.59375"
             xlink:href="#DejaVuSans-70"
             id="use425"
             y="0"
             width="100%"
             height="100%" />
          <use
             x="647.07031"
             xlink:href="#DejaVuSans-74"
             id="use427"
             y="0"
             width="100%"
             height="100%" />
          <use
             x="686.2793"
             xlink:href="#DejaVuSans-6f"
             id="use429"
             y="0"
             width="100%"
             height="100%" />
          <use
             x="747.46094"
             xlink:href="#DejaVuSans-72"
             id="use431"
             y="0"
             width="100%"
             height="100%" />
          <use
             x="788.57422"
             xlink:href="#DejaVuSans-73"
             id="use433"
             y="0"
             width="100%"
             height="100%" />
        </g>
      </g>
    </g>
  </g>
  <defs
     id="defs443">
    <clipPath
       id="pf4f5c7e594">
      <rect
         height="271.79999"
         width="446.39999"
         x="72"
         y="43.200001"
         id="rect440" />
    </clipPath>
  </defs>
</svg>
