<svg xmlns="http://www.w3.org/2000/svg" xmlns:dc="http://purl.org/dc/elements/1.1/" xmlns:ns2="http://creativecommons.org/ns#" xmlns:ns4="http://www.w3.org/1999/xlink" xmlns:rdf="http://www.w3.org/1999/02/22-rdf-syntax-ns#" width="576pt" height="360pt" viewBox="0 0 576 360" version="1.1">
 <metadata>
  <rdf:RDF>
   <ns2:Work>
    <dc:type rdf:resource="http://purl.org/dc/dcmitype/StillImage"/>
    <dc:date>2025-04-06T12:56:48.946124</dc:date>
    <dc:format>image/svg+xml</dc:format>
    <dc:creator>
     <ns2:Agent>
      <dc:title>Matplotlib v3.10.1, https://matplotlib.org/</dc:title>
     </ns2:Agent>
    </dc:creator>
   </ns2:Work>
  </rdf:RDF>
 </metadata>
 <defs>
  <style type="text/css">*{stroke-linejoin: round; stroke-linecap: butt}</style>
 </defs>
 <g id="figure_1">
  <g id="patch_1">
   <path d="M 0 360  L 576 360  L 576 0  L 0 0  z " style="fill: #ffffff"/>
  </g>
  <g id="axes_1">
   <g id="patch_2">
    <path d="M 72 320.4  L 518.4 320.4  L 518.4 43.2  L 72 43.2  z " style="fill: #f5f4e9"/>
   </g>
   <g id="line2d_1">
    <path d="M 345.084556 320.4  L 345.084556 43.2  " clip-path="url(#p0cc1dd10ec)" style="fill: none; stroke-dasharray: 2.775,1.2; stroke-dashoffset: 0; stroke: #f5ad4c; stroke-width: 0.75"/>
   </g>
   <g id="line2d_2">
    <path d="M 245.315444 320.4  L 245.315444 43.2  " clip-path="url(#p0cc1dd10ec)" style="fill: none; stroke-dasharray: 2.775,1.2; stroke-dashoffset: 0; stroke: #f5ad4c; stroke-width: 0.75"/>
   </g>
   <g id="patch_3">
    <path d="M 296.598935 276.498947  L 332.928807 276.498947  Q 333.310335 276.498947 333.310335 279.682105  L 333.310335 296.128421  Q 333.310335 299.311579 332.928807 299.311579  L 296.598935 299.311579  Q 296.217407 299.311579 296.217407 296.128421  L 296.217407 279.682105  Q 296.217407 276.498947 296.598935 276.498947  z " clip-path="url(#p0cc1dd10ec)" style="fill: #1bbc9b"/>
   </g>
   <g id="patch_4">
    <path d="M 251.608364 223.446316  L 293.801065 223.446316  Q 294.182593 223.446316 294.182593 226.629474  L 294.182593 243.075789  Q 294.182593 246.258947 293.801065 246.258947  L 251.608364 246.258947  Q 251.226837 246.258947 251.226837 243.075789  L 251.226837 226.629474  Q 251.226837 223.446316 251.608364 223.446316  z " clip-path="url(#p0cc1dd10ec)" style="fill: #f06060"/>
   </g>
   <g id="patch_5">
    <path d="M 249.019355 170.393684  L 293.801065 170.393684  Q 294.182593 170.393684 294.182593 173.576842  L 294.182593 190.023158  Q 294.182593 193.206316 293.801065 193.206316  L 249.019355 193.206316  Q 248.637828 193.206316 248.637828 190.023158  L 248.637828 173.576842  Q 248.637828 170.393684 249.019355 170.393684  z " clip-path="url(#p0cc1dd10ec)" style="fill: #f06060"/>
   </g>
   <g id="patch_6">
    <path d="M 247.477071 117.341053  L 293.801065 117.341053  Q 294.182593 117.341053 294.182593 120.524211  L 294.182593 136.970526  Q 294.182593 140.153684 293.801065 140.153684  L 247.477071 140.153684  Q 247.095544 140.153684 247.095544 136.970526  L 247.095544 120.524211  Q 247.095544 117.341053 247.477071 117.341053  z " clip-path="url(#p0cc1dd10ec)" style="fill: #f06060"/>
   </g>
   <g id="patch_7">
    <path d="M 226.009976 64.288421  L 293.801065 64.288421  Q 294.182593 64.288421 294.182593 67.471579  L 294.182593 83.917895  Q 294.182593 87.101053 293.801065 87.101053  L 226.009976 87.101053  Q 225.628448 87.101053 225.628448 83.917895  L 225.628448 67.471579  Q 225.628448 64.288421 226.009976 64.288421  z " clip-path="url(#p0cc1dd10ec)" style="fill: #f06060"/>
   </g>
   <g id="matplotlib.axis_1">
    <g id="xtick_1">
     <g id="line2d_3">
      <defs>
       <path id="mbc53c25dd7" d="M 0 0  L 0 3.5  " style="stroke: #000000; stroke-width: 0.8"/>
      </defs>
      <g>
       <use ns4:href="#mbc53c25dd7" x="91.718611" y="320.4" style="stroke: #000000; stroke-width: 0.8"/>
      </g>
     </g>
     <g id="text_1">
      
      <g transform="translate(84.518611 336.28) scale(0.12 -0.12)">
       <defs>
        <path id="IBMPlexMono-Regular-2212" d="M 397 1734  L 397 2170  L 3443 2170  L 3443 1734  L 397 1734  z " transform="scale(0.015625)"/>
        <path id="IBMPlexMono-Regular-38" d="M 1920 -77  Q 1530 -77 1235 22  Q 941 122 745 294  Q 550 467 451 704  Q 352 941 352 1216  Q 352 1677 601 1945  Q 851 2214 1261 2323  L 1261 2374  Q 902 2496 694 2768  Q 486 3040 486 3424  Q 486 3936 864 4240  Q 1242 4544 1920 4544  Q 2598 4544 2976 4240  Q 3354 3936 3354 3424  Q 3354 3040 3146 2768  Q 2938 2496 2579 2374  L 2579 2323  Q 2989 2214 3238 1945  Q 3488 1677 3488 1216  Q 3488 941 3389 704  Q 3290 467 3091 294  Q 2893 122 2601 22  Q 2310 -77 1920 -77  z M 1920 378  Q 2394 378 2662 589  Q 2931 800 2931 1184  L 2931 1325  Q 2931 1709 2665 1920  Q 2400 2131 1920 2131  Q 1440 2131 1174 1920  Q 909 1709 909 1325  L 909 1184  Q 909 800 1177 589  Q 1446 378 1920 378  z M 1920 2566  Q 2355 2566 2582 2752  Q 2810 2938 2810 3283  L 2810 3373  Q 2810 3718 2576 3904  Q 2342 4090 1920 4090  Q 1498 4090 1264 3904  Q 1030 3718 1030 3373  L 1030 3283  Q 1030 2938 1257 2752  Q 1485 2566 1920 2566  z " transform="scale(0.015625)"/>
       </defs>
       <use ns4:href="#IBMPlexMono-Regular-2212"/>
       <use ns4:href="#IBMPlexMono-Regular-38" transform="translate(59.999985 0)"/>
      </g>
     </g>
    </g>
    <g id="xtick_2">
     <g id="line2d_4">
      <g>
       <use ns4:href="#mbc53c25dd7" x="142.588959" y="320.4" style="stroke: #000000; stroke-width: 0.8"/>
      </g>
     </g>
     <g id="text_2">
      
      <g transform="translate(135.388959 336.28) scale(0.12 -0.12)">
       <defs>
        <path id="IBMPlexMono-Regular-36" d="M 1926 -77  Q 1574 -77 1292 41  Q 1011 160 816 381  Q 621 602 515 922  Q 410 1242 410 1638  Q 410 2138 560 2576  Q 710 3014 944 3376  Q 1178 3738 1466 4016  Q 1754 4294 2029 4467  L 2720 4467  Q 2355 4205 2070 3955  Q 1786 3706 1568 3434  Q 1350 3162 1203 2851  Q 1056 2541 960 2150  L 992 2138  Q 1152 2413 1414 2595  Q 1677 2778 2093 2778  Q 2387 2778 2630 2682  Q 2874 2586 3053 2406  Q 3232 2227 3331 1971  Q 3430 1715 3430 1402  Q 3430 1075 3321 803  Q 3213 531 3017 336  Q 2822 141 2544 32  Q 2266 -77 1926 -77  z M 1920 378  Q 2381 378 2633 627  Q 2886 877 2886 1331  L 2886 1382  Q 2886 1837 2633 2086  Q 2381 2336 1920 2336  Q 1459 2336 1206 2086  Q 954 1837 954 1382  L 954 1331  Q 954 877 1206 627  Q 1459 378 1920 378  z " transform="scale(0.015625)"/>
       </defs>
       <use ns4:href="#IBMPlexMono-Regular-2212"/>
       <use ns4:href="#IBMPlexMono-Regular-36" transform="translate(59.999985 0)"/>
      </g>
     </g>
    </g>
    <g id="xtick_3">
     <g id="line2d_5">
      <g>
       <use ns4:href="#mbc53c25dd7" x="193.459306" y="320.4" style="stroke: #000000; stroke-width: 0.8"/>
      </g>
     </g>
     <g id="text_3">
      
      <g transform="translate(186.259306 336.28) scale(0.12 -0.12)">
       <defs>
        <path id="IBMPlexMono-Regular-34" d="M 2419 0  L 2419 877  L 218 877  L 218 1350  L 2150 4467  L 2931 4467  L 2931 1318  L 3597 1318  L 3597 877  L 2931 877  L 2931 0  L 2419 0  z M 698 1318  L 2419 1318  L 2419 4051  L 2394 4051  L 698 1318  z " transform="scale(0.015625)"/>
       </defs>
       <use ns4:href="#IBMPlexMono-Regular-2212"/>
       <use ns4:href="#IBMPlexMono-Regular-34" transform="translate(59.999985 0)"/>
      </g>
     </g>
    </g>
    <g id="xtick_4">
     <g id="line2d_6">
      <g>
       <use ns4:href="#mbc53c25dd7" x="244.329653" y="320.4" style="stroke: #000000; stroke-width: 0.8"/>
      </g>
     </g>
     <g id="text_4">
      
      <g transform="translate(237.129653 336.28) scale(0.12 -0.12)">
       <defs>
        <path id="IBMPlexMono-Regular-32" d="M 3437 0  L 454 0  L 454 550  L 1946 1894  Q 2272 2189 2483 2499  Q 2694 2810 2694 3155  L 2694 3232  Q 2694 3635 2483 3856  Q 2272 4077 1856 4077  Q 1446 4077 1225 3869  Q 1005 3661 896 3315  L 416 3494  Q 480 3693 592 3881  Q 704 4070 877 4217  Q 1050 4365 1296 4454  Q 1542 4544 1869 4544  Q 2202 4544 2461 4448  Q 2720 4352 2896 4179  Q 3072 4006 3165 3769  Q 3258 3533 3258 3251  Q 3258 2995 3184 2771  Q 3110 2547 2979 2342  Q 2848 2138 2665 1942  Q 2483 1747 2259 1555  L 1011 467  L 3437 467  L 3437 0  z " transform="scale(0.015625)"/>
       </defs>
       <use ns4:href="#IBMPlexMono-Regular-2212"/>
       <use ns4:href="#IBMPlexMono-Regular-32" transform="translate(59.999985 0)"/>
      </g>
     </g>
    </g>
    <g id="xtick_5">
     <g id="line2d_7">
      <g>
       <use ns4:href="#mbc53c25dd7" x="295.2" y="320.4" style="stroke: #000000; stroke-width: 0.8"/>
      </g>
     </g>
     <g id="text_5">
      
      <g transform="translate(291.6 336.28) scale(0.12 -0.12)">
       <defs>
        <path id="IBMPlexMono-Regular-30" d="M 1920 -77  Q 1510 -77 1216 80  Q 922 237 730 531  Q 538 826 448 1254  Q 358 1683 358 2234  Q 358 2778 448 3210  Q 538 3642 730 3936  Q 922 4230 1216 4387  Q 1510 4544 1920 4544  Q 2330 4544 2624 4387  Q 2918 4230 3110 3936  Q 3302 3642 3392 3210  Q 3482 2778 3482 2234  Q 3482 1683 3392 1254  Q 3302 826 3110 531  Q 2918 237 2624 80  Q 2330 -77 1920 -77  z M 1920 390  Q 2189 390 2381 496  Q 2573 602 2691 794  Q 2810 986 2867 1258  Q 2925 1530 2925 1869  L 2925 2598  Q 2925 2931 2867 3206  Q 2810 3482 2691 3674  Q 2573 3866 2381 3971  Q 2189 4077 1920 4077  Q 1651 4077 1459 3971  Q 1267 3866 1148 3674  Q 1030 3482 972 3206  Q 915 2931 915 2598  L 915 1869  Q 915 1530 972 1258  Q 1030 986 1148 794  Q 1267 602 1459 496  Q 1651 390 1920 390  z M 1920 1856  Q 1696 1856 1609 1945  Q 1523 2035 1523 2163  L 1523 2304  Q 1523 2432 1609 2521  Q 1696 2611 1920 2611  Q 2144 2611 2230 2521  Q 2317 2432 2317 2304  L 2317 2163  Q 2317 2035 2230 1945  Q 2144 1856 1920 1856  z " transform="scale(0.015625)"/>
       </defs>
       <use ns4:href="#IBMPlexMono-Regular-30"/>
      </g>
     </g>
    </g>
    <g id="xtick_6">
     <g id="line2d_8">
      <g>
       <use ns4:href="#mbc53c25dd7" x="346.070347" y="320.4" style="stroke: #000000; stroke-width: 0.8"/>
      </g>
     </g>
     <g id="text_6">
      
      <g transform="translate(342.470347 336.28) scale(0.12 -0.12)">
       <use ns4:href="#IBMPlexMono-Regular-32"/>
      </g>
     </g>
    </g>
    <g id="xtick_7">
     <g id="line2d_9">
      <g>
       <use ns4:href="#mbc53c25dd7" x="396.940694" y="320.4" style="stroke: #000000; stroke-width: 0.8"/>
      </g>
     </g>
     <g id="text_7">
      
      <g transform="translate(393.340694 336.28) scale(0.12 -0.12)">
       <use ns4:href="#IBMPlexMono-Regular-34"/>
      </g>
     </g>
    </g>
    <g id="xtick_8">
     <g id="line2d_10">
      <g>
       <use ns4:href="#mbc53c25dd7" x="447.811041" y="320.4" style="stroke: #000000; stroke-width: 0.8"/>
      </g>
     </g>
     <g id="text_8">
      
      <g transform="translate(444.211041 336.28) scale(0.12 -0.12)">
       <use ns4:href="#IBMPlexMono-Regular-36"/>
      </g>
     </g>
    </g>
    <g id="xtick_9">
     <g id="line2d_11">
      <g>
       <use ns4:href="#mbc53c25dd7" x="498.681389" y="320.4" style="stroke: #000000; stroke-width: 0.8"/>
      </g>
     </g>
     <g id="text_9">
      
      <g transform="translate(495.081389 336.28) scale(0.12 -0.12)">
       <use ns4:href="#IBMPlexMono-Regular-38"/>
      </g>
     </g>
    </g>
    <g id="text_10">
     
     <g transform="translate(212.4 351.655625) scale(0.12 -0.12)">
      <defs>
       <path id="IBMPlexMono-Regular-44" d="M 608 4467  L 1856 4467  Q 2675 4467 3078 3904  Q 3482 3341 3482 2234  Q 3482 1126 3078 563  Q 2675 0 1856 0  L 608 0  L 608 4467  z M 1830 467  Q 2368 467 2640 838  Q 2912 1210 2912 1888  L 2912 2579  Q 2912 3258 2640 3629  Q 2368 4000 1830 4000  L 1146 4000  L 1146 467  L 1830 467  z " transform="scale(0.015625)"/>
       <path id="IBMPlexMono-Regular-65" d="M 1978 -77  Q 1619 -77 1334 44  Q 1050 166 848 393  Q 646 621 537 937  Q 429 1254 429 1645  Q 429 2042 541 2362  Q 653 2682 851 2909  Q 1050 3136 1328 3257  Q 1606 3379 1946 3379  Q 2278 3379 2550 3257  Q 2822 3136 3014 2921  Q 3206 2707 3308 2412  Q 3411 2118 3411 1766  L 3411 1523  L 966 1523  L 966 1370  Q 966 1152 1036 966  Q 1107 781 1238 646  Q 1370 512 1558 438  Q 1747 365 1978 365  Q 2310 365 2553 518  Q 2797 672 2925 941  L 3302 685  Q 3155 352 2812 137  Q 2470 -77 1978 -77  z M 1946 2957  Q 1734 2957 1555 2880  Q 1376 2803 1245 2668  Q 1114 2534 1040 2352  Q 966 2170 966 1952  L 966 1907  L 2861 1907  L 2861 1978  Q 2861 2195 2793 2374  Q 2726 2554 2608 2685  Q 2490 2816 2320 2886  Q 2150 2957 1946 2957  z " transform="scale(0.015625)"/>
       <path id="IBMPlexMono-Regular-73" d="M 1958 -77  Q 1440 -77 1065 99  Q 691 275 429 570  L 774 870  Q 1011 621 1292 486  Q 1574 352 1971 352  Q 2355 352 2601 489  Q 2848 627 2848 922  Q 2848 1050 2800 1136  Q 2752 1222 2669 1273  Q 2586 1325 2483 1353  Q 2381 1382 2266 1402  L 1747 1478  Q 1574 1504 1372 1549  Q 1171 1594 1004 1693  Q 838 1792 726 1958  Q 614 2125 614 2394  Q 614 2643 713 2825  Q 813 3008 992 3133  Q 1171 3258 1414 3318  Q 1658 3379 1946 3379  Q 2394 3379 2723 3238  Q 3053 3098 3290 2848  L 2957 2534  Q 2899 2605 2812 2678  Q 2726 2752 2601 2813  Q 2477 2874 2310 2912  Q 2144 2950 1926 2950  Q 1536 2950 1328 2816  Q 1120 2682 1120 2426  Q 1120 2298 1168 2211  Q 1216 2125 1299 2073  Q 1382 2022 1488 1993  Q 1594 1965 1702 1946  L 2221 1869  Q 2400 1843 2598 1798  Q 2797 1754 2963 1654  Q 3130 1555 3242 1388  Q 3354 1222 3354 954  Q 3354 461 2973 192  Q 2592 -77 1958 -77  z " transform="scale(0.015625)"/>
       <path id="IBMPlexMono-Regular-63" d="M 2035 -77  Q 1677 -77 1398 48  Q 1120 173 928 397  Q 736 621 637 941  Q 538 1261 538 1651  Q 538 2042 640 2362  Q 742 2682 934 2909  Q 1126 3136 1401 3257  Q 1677 3379 2029 3379  Q 2509 3379 2809 3168  Q 3110 2957 3251 2618  L 2842 2400  Q 2752 2656 2544 2797  Q 2336 2938 2029 2938  Q 1805 2938 1629 2864  Q 1453 2790 1331 2656  Q 1210 2522 1149 2336  Q 1088 2150 1088 1933  L 1088 1370  Q 1088 1152 1149 966  Q 1210 781 1331 646  Q 1453 512 1632 438  Q 1811 365 2042 365  Q 2374 365 2592 518  Q 2810 672 2938 941  L 3302 691  Q 3155 358 2844 140  Q 2534 -77 2035 -77  z " transform="scale(0.015625)"/>
       <path id="IBMPlexMono-Regular-72" d="M 493 435  L 1459 435  L 1459 2867  L 493 2867  L 493 3302  L 1971 3302  L 1971 2470  L 2003 2470  Q 2106 2861 2390 3081  Q 2675 3302 3117 3302  L 3578 3302  L 3578 2790  L 2957 2790  Q 2515 2790 2243 2534  Q 1971 2278 1971 1862  L 1971 435  L 3251 435  L 3251 0  L 493 0  L 493 435  z " transform="scale(0.015625)"/>
       <path id="IBMPlexMono-Regular-69" d="M 2125 4032  Q 1901 4032 1811 4125  Q 1722 4218 1722 4358  L 1722 4461  Q 1722 4602 1811 4694  Q 1901 4787 2125 4787  Q 2349 4787 2438 4694  Q 2528 4602 2528 4461  L 2528 4358  Q 2528 4218 2438 4125  Q 2349 4032 2125 4032  z M 678 435  L 1869 435  L 1869 2867  L 678 2867  L 678 3302  L 2381 3302  L 2381 435  L 3494 435  L 3494 0  L 678 0  L 678 435  z " transform="scale(0.015625)"/>
       <path id="IBMPlexMono-Regular-70" d="M 608 3302  L 1120 3302  L 1120 2765  L 1146 2765  Q 1466 3379 2163 3379  Q 2771 3379 3113 2924  Q 3456 2470 3456 1651  Q 3456 832 3113 377  Q 2771 -77 2163 -77  Q 1466 -77 1146 538  L 1120 538  L 1120 -1280  L 608 -1280  L 608 3302  z M 1965 378  Q 2413 378 2659 650  Q 2906 922 2906 1370  L 2906 1933  Q 2906 2381 2659 2653  Q 2413 2925 1965 2925  Q 1792 2925 1638 2880  Q 1485 2835 1369 2748  Q 1254 2662 1187 2537  Q 1120 2413 1120 2246  L 1120 1056  Q 1120 890 1187 765  Q 1254 640 1369 553  Q 1485 467 1638 422  Q 1792 378 1965 378  z " transform="scale(0.015625)"/>
       <path id="IBMPlexMono-Regular-74" d="M 2080 0  Q 1702 0 1526 211  Q 1350 422 1350 755  L 1350 2867  L 250 2867  L 250 3302  L 1069 3302  Q 1235 3302 1302 3369  Q 1370 3437 1370 3603  L 1370 4467  L 1862 4467  L 1862 3302  L 3366 3302  L 3366 2867  L 1862 2867  L 1862 435  L 3366 435  L 3366 0  L 2080 0  z " transform="scale(0.015625)"/>
       <path id="IBMPlexMono-Regular-6f" d="M 1920 -77  Q 1574 -77 1296 44  Q 1018 166 822 393  Q 627 621 524 937  Q 422 1254 422 1651  Q 422 2042 524 2362  Q 627 2682 822 2909  Q 1018 3136 1296 3257  Q 1574 3379 1920 3379  Q 2266 3379 2544 3257  Q 2822 3136 3017 2909  Q 3213 2682 3315 2362  Q 3418 2042 3418 1651  Q 3418 1254 3315 937  Q 3213 621 3017 393  Q 2822 166 2544 44  Q 2266 -77 1920 -77  z M 1920 365  Q 2349 365 2611 621  Q 2874 877 2874 1414  L 2874 1888  Q 2874 2426 2611 2682  Q 2349 2938 1920 2938  Q 1491 2938 1228 2682  Q 966 2426 966 1888  L 966 1414  Q 966 877 1228 621  Q 1491 365 1920 365  z " transform="scale(0.015625)"/>
       <path id="IBMPlexMono-Regular-20" transform="scale(0.015625)"/>
       <path id="IBMPlexMono-Regular-2d" d="M 992 1677  L 992 2214  L 2848 2214  L 2848 1677  L 992 1677  z " transform="scale(0.015625)"/>
       <path id="IBMPlexMono-Regular-61" d="M 3168 0  Q 2867 0 2739 153  Q 2611 307 2579 538  L 2547 538  Q 2438 250 2198 86  Q 1958 -77 1555 -77  Q 1037 -77 729 192  Q 422 461 422 928  Q 422 1389 758 1638  Q 1094 1888 1843 1888  L 2547 1888  L 2547 2214  Q 2547 2579 2342 2761  Q 2138 2944 1760 2944  Q 1427 2944 1216 2813  Q 1005 2682 877 2458  L 531 2714  Q 595 2842 704 2963  Q 813 3085 973 3177  Q 1133 3270 1337 3324  Q 1542 3379 1792 3379  Q 2374 3379 2716 3084  Q 3059 2790 3059 2266  L 3059 448  L 3520 448  L 3520 0  L 3168 0  z M 1645 352  Q 1843 352 2006 400  Q 2170 448 2291 528  Q 2413 608 2480 720  Q 2547 832 2547 960  L 2547 1504  L 1843 1504  Q 1382 1504 1171 1376  Q 960 1248 960 1005  L 960 870  Q 960 614 1142 483  Q 1325 352 1645 352  z " transform="scale(0.015625)"/>
      </defs>
      <use ns4:href="#IBMPlexMono-Regular-44"/>
      <use ns4:href="#IBMPlexMono-Regular-65" transform="translate(59.999985 0)"/>
      <use ns4:href="#IBMPlexMono-Regular-73" transform="translate(119.999969 0)"/>
      <use ns4:href="#IBMPlexMono-Regular-63" transform="translate(179.999954 0)"/>
      <use ns4:href="#IBMPlexMono-Regular-72" transform="translate(239.999939 0)"/>
      <use ns4:href="#IBMPlexMono-Regular-69" transform="translate(299.999924 0)"/>
      <use ns4:href="#IBMPlexMono-Regular-70" transform="translate(359.999908 0)"/>
      <use ns4:href="#IBMPlexMono-Regular-74" transform="translate(419.999893 0)"/>
      <use ns4:href="#IBMPlexMono-Regular-6f" transform="translate(479.999878 0)"/>
      <use ns4:href="#IBMPlexMono-Regular-72" transform="translate(539.999863 0)"/>
      <use ns4:href="#IBMPlexMono-Regular-20" transform="translate(599.999847 0)"/>
      <use ns4:href="#IBMPlexMono-Regular-74" transform="translate(659.999832 0)"/>
      <use ns4:href="#IBMPlexMono-Regular-2d" transform="translate(719.999817 0)"/>
      <use ns4:href="#IBMPlexMono-Regular-73" transform="translate(779.999802 0)"/>
      <use ns4:href="#IBMPlexMono-Regular-74" transform="translate(839.999786 0)"/>
      <use ns4:href="#IBMPlexMono-Regular-61" transform="translate(899.999771 0)"/>
      <use ns4:href="#IBMPlexMono-Regular-74" transform="translate(959.999756 0)"/>
      <use ns4:href="#IBMPlexMono-Regular-69" transform="translate(1019.999741 0)"/>
      <use ns4:href="#IBMPlexMono-Regular-73" transform="translate(1079.999725 0)"/>
      <use ns4:href="#IBMPlexMono-Regular-74" transform="translate(1139.99971 0)"/>
      <use ns4:href="#IBMPlexMono-Regular-69" transform="translate(1199.999695 0)"/>
      <use ns4:href="#IBMPlexMono-Regular-63" transform="translate(1259.99968 0)"/>
      <use ns4:href="#IBMPlexMono-Regular-73" transform="translate(1319.999664 0)"/>
     </g>
    </g>
   </g>
   <g id="matplotlib.axis_2"/>
   <g id="line2d_12">
    <path d="M 295.2 320.4  L 295.2 43.2  " clip-path="url(#p0cc1dd10ec)" style="fill: none; stroke: #808080; stroke-width: 0.5; stroke-linecap: square"/>
   </g>
   <g id="patch_8">
    <path d="M 72 320.4  L 72 43.2  " style="fill: none; stroke: #333333; stroke-width: 0.8; stroke-linejoin: miter; stroke-linecap: square"/>
   </g>
   <g id="patch_9">
    <path d="M 518.4 320.4  L 518.4 43.2  " style="fill: none; stroke: #333333; stroke-width: 0.8; stroke-linejoin: miter; stroke-linecap: square"/>
   </g>
   <g id="patch_10">
    <path d="M 72 320.4  L 518.4 320.4  " style="fill: none; stroke: #333333; stroke-width: 0.8; stroke-linejoin: miter; stroke-linecap: square"/>
   </g>
   <g id="patch_11">
    <path d="M 72 43.2  L 518.4 43.2  " style="fill: none; stroke: #333333; stroke-width: 0.8; stroke-linejoin: miter; stroke-linecap: square"/>
   </g>
   <g id="text_11">
    
    <g transform="translate(301.558793 78.982549) scale(0.12 -0.12)">
     <defs>
      <path id="IBMPlexMono-Regular-79" d="M 2989 3302  L 3501 3302  L 1862 -723  Q 1805 -864 1734 -969  Q 1664 -1075 1568 -1142  Q 1472 -1210 1337 -1245  Q 1203 -1280 1018 -1280  L 531 -1280  L 531 -845  L 1299 -845  L 1670 64  L 339 3302  L 864 3302  L 1421 1920  L 1914 666  L 1939 666  L 2432 1920  L 2989 3302  z " transform="scale(0.015625)"/>
      <path id="IBMPlexMono-Regular-6c" d="M 512 435  L 1664 435  L 1664 4301  L 512 4301  L 512 4736  L 2176 4736  L 2176 435  L 3328 435  L 3328 0  L 512 0  L 512 435  z " transform="scale(0.015625)"/>
     </defs>
     <use ns4:href="#IBMPlexMono-Regular-69"/>
     <use ns4:href="#IBMPlexMono-Regular-73" transform="translate(59.999985 0)"/>
     <use ns4:href="#IBMPlexMono-Regular-6f" transform="translate(119.999969 0)"/>
     <use ns4:href="#IBMPlexMono-Regular-2d" transform="translate(179.999954 0)"/>
     <use ns4:href="#IBMPlexMono-Regular-70" transform="translate(239.999939 0)"/>
     <use ns4:href="#IBMPlexMono-Regular-72" transform="translate(299.999924 0)"/>
     <use ns4:href="#IBMPlexMono-Regular-6f" transform="translate(359.999908 0)"/>
     <use ns4:href="#IBMPlexMono-Regular-70" transform="translate(419.999893 0)"/>
     <use ns4:href="#IBMPlexMono-Regular-79" transform="translate(479.999878 0)"/>
     <use ns4:href="#IBMPlexMono-Regular-6c" transform="translate(539.999863 0)"/>
    </g>
   </g>
   <g id="AnnotationBbox_1">
    <g id="patch_12">
     <path d="M 439.672 100.72  L 579.272 100.72  L 579.272 41.12  L 439.672 41.12  z " style="fill: #ffffff; stroke: #000000; stroke-width: 0.5; stroke-linejoin: miter"/>
    </g>
    <g id="sk0">
     <svg version="1.1" baseProfile="full" xml:space="preserve" width="130.0" height="50.0" viewBox="0 0 300 200" x="444.472" y="45.92">

<rect style="opacity:1.0;fill:#FFFFFF;stroke:none" width="300.0" height="200.0" x="0.0" y="0.0"> </rect>
<path class="bond-0 atom-0 atom-1" d="M 81.0,186.1 L 149.9,146.1" style="fill:none;fill-rule:evenodd;stroke:#CCCCCC;stroke-width:7.3px;stroke-linecap:butt;stroke-linejoin:miter;stroke-opacity:1"/>
<path class="bond-1 atom-1 atom-2" d="M 149.9,146.1 L 149.7,55.3" style="fill:none;fill-rule:evenodd;stroke:#000000;stroke-width:2.0px;stroke-linecap:butt;stroke-linejoin:miter;stroke-opacity:1"/>
<path class="bond-2 atom-2 atom-3" d="M 149.7,55.3 L 228.3,9.7" style="fill:none;fill-rule:evenodd;stroke:#000000;stroke-width:2.0px;stroke-linecap:butt;stroke-linejoin:miter;stroke-opacity:1"/>
<path class="bond-3 atom-2 atom-4" d="M 149.7,55.3 L 71.0,10.0" style="fill:none;fill-rule:evenodd;stroke:#000000;stroke-width:2.0px;stroke-linecap:butt;stroke-linejoin:miter;stroke-opacity:1"/>
<path class="bond-4 atom-1 atom-5" d="M 149.9,146.1 L 219.0,185.8" style="fill:none;fill-rule:evenodd;stroke:#CCCCCC;stroke-width:7.3px;stroke-linecap:butt;stroke-linejoin:miter;stroke-opacity:1"/>
<path class="atom-0" d="M 66.0 188.5 L 70.2 184.3 L 64.6 183.2 L 65.5 180.3 L 70.6 182.9 L 69.8 177.3 L 72.8 177.3 L 72.0 182.9 L 77.2 180.5 L 78.0 183.2 L 72.4 184.2 L 76.4 188.5 L 74.0 190.3 L 71.2 185.0 L 68.4 190.3 L 66.0 188.5 " fill="#191919"/>
<path class="atom-5" d="M 223.3 188.2 L 227.5 184.0 L 222.0 182.9 L 222.8 180.0 L 227.9 182.6 L 227.2 177.0 L 230.2 177.0 L 229.3 182.6 L 234.5 180.2 L 235.4 182.9 L 229.8 183.9 L 233.8 188.2 L 231.3 190.0 L 228.6 184.7 L 225.8 190.0 L 223.3 188.2 " fill="#191919"/>
</svg></g>
   </g>
   <g id="text_12">
    
    <g transform="translate(301.558793 112.307181) scale(0.12 -0.12)">
     <defs>
      <path id="IBMPlexMono-Regular-6d" d="M 346 0  L 346 3302  L 819 3302  L 819 2918  L 845 2918  Q 922 3110 1062 3244  Q 1203 3379 1478 3379  Q 1766 3379 1907 3235  Q 2048 3091 2080 2861  L 2099 2861  Q 2189 3085 2355 3232  Q 2522 3379 2816 3379  Q 3219 3379 3356 3097  Q 3494 2816 3494 2291  L 3494 0  L 3021 0  L 3021 2208  Q 3021 2630 2934 2793  Q 2848 2957 2618 2957  Q 2413 2957 2285 2825  Q 2157 2694 2157 2426  L 2157 0  L 1683 0  L 1683 2208  Q 1683 2630 1596 2793  Q 1510 2957 1286 2957  Q 1082 2957 950 2825  Q 819 2694 819 2426  L 819 0  L 346 0  z " transform="scale(0.015625)"/>
      <path id="IBMPlexMono-Regular-64" d="M 2720 538  L 2694 538  Q 2374 -77 1677 -77  Q 1069 -77 726 377  Q 384 832 384 1651  Q 384 2470 726 2924  Q 1069 3379 1677 3379  Q 2374 3379 2694 2765  L 2720 2765  L 2720 4736  L 3232 4736  L 3232 0  L 2720 0  L 2720 538  z M 1875 378  Q 2048 378 2201 422  Q 2355 467 2470 553  Q 2586 640 2653 765  Q 2720 890 2720 1056  L 2720 2246  Q 2720 2413 2653 2537  Q 2586 2662 2470 2748  Q 2355 2835 2201 2880  Q 2048 2925 1875 2925  Q 1427 2925 1180 2653  Q 934 2381 934 1933  L 934 1370  Q 934 922 1180 650  Q 1427 378 1875 378  z " transform="scale(0.015625)"/>
      <path id="IBMPlexMono-Regular-2f" d="M 576 -883  L 2803 4864  L 3264 4864  L 1037 -883  L 576 -883  z " transform="scale(0.015625)"/>
     </defs>
     <use ns4:href="#IBMPlexMono-Regular-74"/>
     <use ns4:href="#IBMPlexMono-Regular-65" transform="translate(59.999985 0)"/>
     <use ns4:href="#IBMPlexMono-Regular-72" transform="translate(119.999969 0)"/>
     <use ns4:href="#IBMPlexMono-Regular-74" transform="translate(179.999954 0)"/>
     <use ns4:href="#IBMPlexMono-Regular-69" transform="translate(239.999939 0)"/>
     <use ns4:href="#IBMPlexMono-Regular-61" transform="translate(299.999924 0)"/>
     <use ns4:href="#IBMPlexMono-Regular-72" transform="translate(359.999908 0)"/>
     <use ns4:href="#IBMPlexMono-Regular-79" transform="translate(419.999893 0)"/>
     <use ns4:href="#IBMPlexMono-Regular-20" transform="translate(479.999878 0)"/>
     <use ns4:href="#IBMPlexMono-Regular-61" transform="translate(539.999863 0)"/>
     <use ns4:href="#IBMPlexMono-Regular-6d" transform="translate(599.999847 0)"/>
     <use ns4:href="#IBMPlexMono-Regular-69" transform="translate(659.999832 0)"/>
     <use ns4:href="#IBMPlexMono-Regular-64" transform="translate(719.999817 0)"/>
     <use ns4:href="#IBMPlexMono-Regular-65" transform="translate(779.999802 0)"/>
     <use ns4:href="#IBMPlexMono-Regular-2f" transform="translate(839.999786 0)"/>
     <use ns4:href="#IBMPlexMono-Regular-69" transform="translate(899.999771 0)"/>
     <use ns4:href="#IBMPlexMono-Regular-73" transform="translate(959.999756 0)"/>
     <use ns4:href="#IBMPlexMono-Regular-6f" transform="translate(1019.999741 0)"/>
     <use ns4:href="#IBMPlexMono-Regular-2d" transform="translate(1079.999725 0)"/>
    </g>
    
    <g transform="translate(301.558793 125.651181) scale(0.12 -0.12)">
     <defs>
      <path id="IBMPlexMono-Regular-62" d="M 608 4736  L 1120 4736  L 1120 2765  L 1146 2765  Q 1466 3379 2163 3379  Q 2771 3379 3113 2924  Q 3456 2470 3456 1651  Q 3456 832 3113 377  Q 2771 -77 2163 -77  Q 1466 -77 1146 538  L 1120 538  L 1120 0  L 608 0  L 608 4736  z M 1965 378  Q 2413 378 2659 650  Q 2906 922 2906 1370  L 2906 1933  Q 2906 2381 2659 2653  Q 2413 2925 1965 2925  Q 1792 2925 1638 2880  Q 1485 2835 1369 2748  Q 1254 2662 1187 2537  Q 1120 2413 1120 2246  L 1120 1056  Q 1120 890 1187 765  Q 1254 640 1369 553  Q 1485 467 1638 422  Q 1792 378 1965 378  z " transform="scale(0.015625)"/>
      <path id="IBMPlexMono-Regular-78" d="M 390 0  L 1619 1677  L 422 3302  L 1037 3302  L 1536 2605  L 1933 2054  L 1958 2054  L 2342 2605  L 2835 3302  L 3424 3302  L 2214 1683  L 3456 0  L 2842 0  L 2285 774  L 1907 1299  L 1882 1299  L 1517 774  L 979 0  L 390 0  z " transform="scale(0.015625)"/>
     </defs>
     <use ns4:href="#IBMPlexMono-Regular-70"/>
     <use ns4:href="#IBMPlexMono-Regular-72" transform="translate(59.999985 0)"/>
     <use ns4:href="#IBMPlexMono-Regular-6f" transform="translate(119.999969 0)"/>
     <use ns4:href="#IBMPlexMono-Regular-70" transform="translate(179.999954 0)"/>
     <use ns4:href="#IBMPlexMono-Regular-79" transform="translate(239.999939 0)"/>
     <use ns4:href="#IBMPlexMono-Regular-6c" transform="translate(299.999924 0)"/>
     <use ns4:href="#IBMPlexMono-Regular-2f" transform="translate(359.999908 0)"/>
     <use ns4:href="#IBMPlexMono-Regular-63" transform="translate(419.999893 0)"/>
     <use ns4:href="#IBMPlexMono-Regular-61" transform="translate(479.999878 0)"/>
     <use ns4:href="#IBMPlexMono-Regular-72" transform="translate(539.999863 0)"/>
     <use ns4:href="#IBMPlexMono-Regular-62" transform="translate(599.999847 0)"/>
     <use ns4:href="#IBMPlexMono-Regular-6f" transform="translate(659.999832 0)"/>
     <use ns4:href="#IBMPlexMono-Regular-78" transform="translate(719.999817 0)"/>
     <use ns4:href="#IBMPlexMono-Regular-79" transform="translate(779.999802 0)"/>
     <use ns4:href="#IBMPlexMono-Regular-6c" transform="translate(839.999786 0)"/>
     <use ns4:href="#IBMPlexMono-Regular-69" transform="translate(899.999771 0)"/>
     <use ns4:href="#IBMPlexMono-Regular-63" transform="translate(959.999756 0)"/>
    </g>
    
    <g transform="translate(301.558793 138.707181) scale(0.12 -0.12)">
     <defs>
      <path id="IBMPlexMono-Regular-6b" d="M 672 4736  L 1184 4736  L 1184 1747  L 1210 1747  L 1786 2291  L 2886 3302  L 3514 3302  L 2144 2010  L 3674 0  L 3040 0  L 1754 1715  L 1184 1197  L 1184 0  L 672 0  L 672 4736  z " transform="scale(0.015625)"/>
      <path id="IBMPlexMono-Regular-6e" d="M 627 0  L 627 3302  L 1139 3302  L 1139 2765  L 1165 2765  Q 1216 2886 1293 2998  Q 1370 3110 1482 3193  Q 1594 3277 1747 3328  Q 1901 3379 2106 3379  Q 2624 3379 2937 3049  Q 3251 2720 3251 2118  L 3251 0  L 2739 0  L 2739 2029  Q 2739 2483 2540 2704  Q 2342 2925 1958 2925  Q 1805 2925 1657 2886  Q 1510 2848 1395 2771  Q 1280 2694 1209 2572  Q 1139 2451 1139 2291  L 1139 0  L 627 0  z " transform="scale(0.015625)"/>
     </defs>
     <use ns4:href="#IBMPlexMono-Regular-61"/>
     <use ns4:href="#IBMPlexMono-Regular-63" transform="translate(59.999985 0)"/>
     <use ns4:href="#IBMPlexMono-Regular-69" transform="translate(119.999969 0)"/>
     <use ns4:href="#IBMPlexMono-Regular-64" transform="translate(179.999954 0)"/>
     <use ns4:href="#IBMPlexMono-Regular-2f" transform="translate(239.999939 0)"/>
     <use ns4:href="#IBMPlexMono-Regular-61" transform="translate(299.999924 0)"/>
     <use ns4:href="#IBMPlexMono-Regular-72" transform="translate(359.999908 0)"/>
     <use ns4:href="#IBMPlexMono-Regular-6f" transform="translate(419.999893 0)"/>
     <use ns4:href="#IBMPlexMono-Regular-6d" transform="translate(479.999878 0)"/>
     <use ns4:href="#IBMPlexMono-Regular-61" transform="translate(539.999863 0)"/>
     <use ns4:href="#IBMPlexMono-Regular-74" transform="translate(599.999847 0)"/>
     <use ns4:href="#IBMPlexMono-Regular-69" transform="translate(659.999832 0)"/>
     <use ns4:href="#IBMPlexMono-Regular-63" transform="translate(719.999817 0)"/>
     <use ns4:href="#IBMPlexMono-Regular-2f" transform="translate(779.999802 0)"/>
     <use ns4:href="#IBMPlexMono-Regular-61" transform="translate(839.999786 0)"/>
     <use ns4:href="#IBMPlexMono-Regular-6c" transform="translate(899.999771 0)"/>
     <use ns4:href="#IBMPlexMono-Regular-6b" transform="translate(959.999756 0)"/>
     <use ns4:href="#IBMPlexMono-Regular-61" transform="translate(1019.999741 0)"/>
     <use ns4:href="#IBMPlexMono-Regular-6e" transform="translate(1079.999725 0)"/>
     <use ns4:href="#IBMPlexMono-Regular-65" transform="translate(1139.99971 0)"/>
    </g>
    
    <g transform="translate(301.558793 151.763181) scale(0.12 -0.12)">
     <defs>
      <path id="IBMPlexMono-Regular-67" d="M 3590 -378  Q 3590 -877 3174 -1117  Q 2758 -1357 1926 -1357  Q 1126 -1357 777 -1145  Q 429 -934 429 -538  Q 429 -269 569 -121  Q 710 26 966 96  L 966 173  Q 826 243 749 352  Q 672 461 672 627  Q 672 883 841 1011  Q 1011 1139 1267 1203  L 1267 1229  Q 960 1363 790 1625  Q 621 1888 621 2240  Q 621 2490 710 2701  Q 800 2912 969 3062  Q 1139 3213 1376 3296  Q 1613 3379 1901 3379  Q 2272 3379 2554 3245  L 2554 3302  Q 2554 3494 2643 3622  Q 2733 3750 2950 3750  L 3558 3750  L 3558 3302  L 2816 3302  L 2816 3078  Q 2995 2925 3091 2713  Q 3187 2502 3187 2240  Q 3187 1990 3094 1779  Q 3002 1568 2835 1417  Q 2669 1267 2429 1184  Q 2189 1101 1901 1101  Q 1818 1101 1741 1107  Q 1664 1114 1587 1126  Q 1510 1114 1427 1085  Q 1344 1056 1273 1008  Q 1203 960 1158 896  Q 1114 832 1114 749  Q 1114 602 1261 554  Q 1408 506 1645 506  L 2374 506  Q 3014 506 3302 266  Q 3590 26 3590 -378  z M 3110 -403  Q 3110 -205 2950 -86  Q 2790 32 2394 32  L 1248 32  Q 915 -102 915 -416  Q 915 -634 1088 -790  Q 1261 -947 1664 -947  L 2163 -947  Q 2611 -947 2860 -809  Q 3110 -672 3110 -403  z M 1901 1498  Q 2285 1498 2467 1677  Q 2650 1856 2650 2150  L 2650 2336  Q 2650 2630 2467 2806  Q 2285 2982 1901 2982  Q 1517 2982 1337 2806  Q 1158 2630 1158 2336  L 1158 2150  Q 1158 1856 1337 1677  Q 1517 1498 1901 1498  z " transform="scale(0.015625)"/>
      <path id="IBMPlexMono-Regular-75" d="M 2701 538  L 2675 538  Q 2624 416 2547 304  Q 2470 192 2358 109  Q 2246 26 2092 -25  Q 1939 -77 1734 -77  Q 1216 -77 902 252  Q 589 582 589 1184  L 589 3302  L 1101 3302  L 1101 1274  Q 1101 819 1299 598  Q 1498 378 1882 378  Q 2035 378 2182 416  Q 2330 454 2445 531  Q 2560 608 2630 726  Q 2701 845 2701 1011  L 2701 3302  L 3213 3302  L 3213 0  L 2701 0  L 2701 538  z " transform="scale(0.015625)"/>
     </defs>
     <use ns4:href="#IBMPlexMono-Regular-67"/>
     <use ns4:href="#IBMPlexMono-Regular-72" transform="translate(59.999985 0)"/>
     <use ns4:href="#IBMPlexMono-Regular-6f" transform="translate(119.999969 0)"/>
     <use ns4:href="#IBMPlexMono-Regular-75" transform="translate(179.999954 0)"/>
     <use ns4:href="#IBMPlexMono-Regular-70" transform="translate(239.999939 0)"/>
    </g>
   </g>
   <g id="AnnotationBbox_2">
    <g id="patch_13">
     <path d="M 439.672 156.16  L 579.272 156.16  L 579.272 96.56  L 439.672 96.56  z " style="fill: #ffffff; stroke: #000000; stroke-width: 0.5; stroke-linejoin: miter"/>
    </g>
    <g id="sk1">
     <svg version="1.1" baseProfile="full" xml:space="preserve" width="130.0" height="50.000000000000014" viewBox="0 0 300 200" x="444.472" y="101.36">

<rect style="opacity:1.0;fill:#FFFFFF;stroke:none" width="300.0" height="200.0" x="0.0" y="0.0"> </rect>
<path class="bond-0 atom-0 atom-1" d="M 42.5,80.6 L 69.2,65.1" style="fill:none;fill-rule:evenodd;stroke:#CCCCCC;stroke-width:2.9px;stroke-linecap:butt;stroke-linejoin:miter;stroke-opacity:1"/>
<path class="bond-1 atom-1 atom-2" d="M 69.2,65.1 L 100.9,83.3" style="fill:none;fill-rule:evenodd;stroke:#000000;stroke-width:2.0px;stroke-linecap:butt;stroke-linejoin:miter;stroke-opacity:1"/>
<path class="bond-2 atom-2 atom-3" d="M 100.9,83.3 L 132.4,65.0" style="fill:none;fill-rule:evenodd;stroke:#000000;stroke-width:2.0px;stroke-linecap:butt;stroke-linejoin:miter;stroke-opacity:1"/>
<path class="bond-3 atom-3 atom-4" d="M 135.2,66.5 L 135.2,52.1" style="fill:none;fill-rule:evenodd;stroke:#000000;stroke-width:2.0px;stroke-linecap:butt;stroke-linejoin:miter;stroke-opacity:1"/>
<path class="bond-3 atom-3 atom-4" d="M 135.2,52.1 L 135.1,37.7" style="fill:none;fill-rule:evenodd;stroke:#FF0000;stroke-width:2.0px;stroke-linecap:butt;stroke-linejoin:miter;stroke-opacity:1"/>
<path class="bond-3 atom-3 atom-4" d="M 129.7,66.6 L 129.7,52.1" style="fill:none;fill-rule:evenodd;stroke:#000000;stroke-width:2.0px;stroke-linecap:butt;stroke-linejoin:miter;stroke-opacity:1"/>
<path class="bond-3 atom-3 atom-4" d="M 129.7,52.1 L 129.7,37.7" style="fill:none;fill-rule:evenodd;stroke:#FF0000;stroke-width:2.0px;stroke-linecap:butt;stroke-linejoin:miter;stroke-opacity:1"/>
<path class="bond-4 atom-3 atom-5" d="M 132.4,65.0 L 144.7,72.0" style="fill:none;fill-rule:evenodd;stroke:#000000;stroke-width:2.0px;stroke-linecap:butt;stroke-linejoin:miter;stroke-opacity:1"/>
<path class="bond-4 atom-3 atom-5" d="M 144.7,72.0 L 157.0,79.1" style="fill:none;fill-rule:evenodd;stroke:#0000FF;stroke-width:2.0px;stroke-linecap:butt;stroke-linejoin:miter;stroke-opacity:1"/>
<path class="bond-5 atom-5 atom-6" d="M 164.1,92.1 L 164.1,105.9" style="fill:none;fill-rule:evenodd;stroke:#0000FF;stroke-width:2.0px;stroke-linecap:butt;stroke-linejoin:miter;stroke-opacity:1"/>
<path class="bond-5 atom-5 atom-6" d="M 164.1,105.9 L 164.2,119.7" style="fill:none;fill-rule:evenodd;stroke:#000000;stroke-width:2.0px;stroke-linecap:butt;stroke-linejoin:miter;stroke-opacity:1"/>
<path class="bond-6 atom-6 atom-7" d="M 164.2,119.7 L 132.6,138.0" style="fill:none;fill-rule:evenodd;stroke:#000000;stroke-width:2.0px;stroke-linecap:butt;stroke-linejoin:miter;stroke-opacity:1"/>
<path class="bond-7 atom-7 atom-8" d="M 132.6,138.0 L 132.7,174.5" style="fill:none;fill-rule:evenodd;stroke:#000000;stroke-width:2.0px;stroke-linecap:butt;stroke-linejoin:miter;stroke-opacity:1"/>
<path class="bond-7 atom-7 atom-8" d="M 127.1,141.2 L 127.2,171.4" style="fill:none;fill-rule:evenodd;stroke:#000000;stroke-width:2.0px;stroke-linecap:butt;stroke-linejoin:miter;stroke-opacity:1;stroke-dasharray:6,4"/>
<path class="bond-8 atom-8 atom-9" d="M 132.7,174.5 L 106.0,190.0" style="fill:none;fill-rule:evenodd;stroke:#CCCCCC;stroke-width:2.9px;stroke-linecap:butt;stroke-linejoin:miter;stroke-opacity:1"/>
<path class="bond-8 atom-8 atom-9" d="M 127.2,171.4 L 103.2,185.3" style="fill:none;fill-rule:evenodd;stroke:#CCCCCC;stroke-width:2.9px;stroke-linecap:butt;stroke-linejoin:miter;stroke-opacity:1;stroke-dasharray:6,4"/>
<path class="bond-9 atom-10 atom-11" d="M 74.2,135.3 L 100.9,119.8" style="fill:none;fill-rule:evenodd;stroke:#CCCCCC;stroke-width:2.9px;stroke-linecap:butt;stroke-linejoin:miter;stroke-opacity:1"/>
<path class="bond-9 atom-10 atom-11" d="M 77.0,140.0 L 100.9,126.1" style="fill:none;fill-rule:evenodd;stroke:#CCCCCC;stroke-width:2.9px;stroke-linecap:butt;stroke-linejoin:miter;stroke-opacity:1;stroke-dasharray:6,4"/>
<path class="bond-10 atom-5 atom-12" d="M 171.2,79.0 L 183.4,71.9" style="fill:none;fill-rule:evenodd;stroke:#0000FF;stroke-width:2.0px;stroke-linecap:butt;stroke-linejoin:miter;stroke-opacity:1"/>
<path class="bond-10 atom-5 atom-12" d="M 183.4,71.9 L 195.7,64.8" style="fill:none;fill-rule:evenodd;stroke:#000000;stroke-width:2.0px;stroke-linecap:butt;stroke-linejoin:miter;stroke-opacity:1"/>
<path class="bond-11 atom-12 atom-13" d="M 195.7,64.8 L 195.6,28.3" style="fill:none;fill-rule:evenodd;stroke:#000000;stroke-width:2.0px;stroke-linecap:butt;stroke-linejoin:miter;stroke-opacity:1"/>
<path class="bond-12 atom-13 atom-14" d="M 195.6,28.3 L 227.2,10.0" style="fill:none;fill-rule:evenodd;stroke:#000000;stroke-width:2.0px;stroke-linecap:butt;stroke-linejoin:miter;stroke-opacity:1"/>
<path class="bond-13 atom-13 atom-15" d="M 195.6,28.3 L 164.0,10.1" style="fill:none;fill-rule:evenodd;stroke:#000000;stroke-width:2.0px;stroke-linecap:butt;stroke-linejoin:miter;stroke-opacity:1"/>
<path class="bond-14 atom-12 atom-16" d="M 195.7,64.8 L 227.3,83.0" style="fill:none;fill-rule:evenodd;stroke:#000000;stroke-width:2.0px;stroke-linecap:butt;stroke-linejoin:miter;stroke-opacity:1"/>
<path class="bond-15 atom-16 atom-17" d="M 227.3,83.0 L 227.4,96.8" style="fill:none;fill-rule:evenodd;stroke:#000000;stroke-width:2.0px;stroke-linecap:butt;stroke-linejoin:miter;stroke-opacity:1"/>
<path class="bond-15 atom-16 atom-17" d="M 227.4,96.8 L 227.4,110.5" style="fill:none;fill-rule:evenodd;stroke:#FF0000;stroke-width:2.0px;stroke-linecap:butt;stroke-linejoin:miter;stroke-opacity:1"/>
<path class="bond-16 atom-16 atom-18" d="M 227.4,86.2 L 239.7,79.1" style="fill:none;fill-rule:evenodd;stroke:#000000;stroke-width:2.0px;stroke-linecap:butt;stroke-linejoin:miter;stroke-opacity:1"/>
<path class="bond-16 atom-16 atom-18" d="M 239.7,79.1 L 252.0,71.9" style="fill:none;fill-rule:evenodd;stroke:#FF0000;stroke-width:2.0px;stroke-linecap:butt;stroke-linejoin:miter;stroke-opacity:1"/>
<path class="bond-16 atom-16 atom-18" d="M 224.6,81.5 L 236.9,74.3" style="fill:none;fill-rule:evenodd;stroke:#000000;stroke-width:2.0px;stroke-linecap:butt;stroke-linejoin:miter;stroke-opacity:1"/>
<path class="bond-16 atom-16 atom-18" d="M 236.9,74.3 L 249.2,67.2" style="fill:none;fill-rule:evenodd;stroke:#FF0000;stroke-width:2.0px;stroke-linecap:butt;stroke-linejoin:miter;stroke-opacity:1"/>
<path class="bond-17 atom-11 atom-7" d="M 100.9,119.8 L 132.6,138.0" style="fill:none;fill-rule:evenodd;stroke:#000000;stroke-width:2.0px;stroke-linecap:butt;stroke-linejoin:miter;stroke-opacity:1"/>
<path class="bond-17 atom-11 atom-7" d="M 100.9,126.1 L 127.1,141.2" style="fill:none;fill-rule:evenodd;stroke:#000000;stroke-width:2.0px;stroke-linecap:butt;stroke-linejoin:miter;stroke-opacity:1;stroke-dasharray:6,4"/>
<path d="M 68.5,65.5 L 69.2,65.1 L 70.0,65.5" style="fill:none;stroke:#CCCCCC;stroke-width:2.9px;stroke-linecap:butt;stroke-linejoin:miter;stroke-opacity:1;"/>
<path d="M 99.3,82.4 L 100.9,83.3 L 102.4,82.4" style="fill:none;stroke:#000000;stroke-width:2.0px;stroke-linecap:butt;stroke-linejoin:miter;stroke-opacity:1;"/>
<path d="M 130.9,65.9 L 132.4,65.0 L 133.1,65.3" style="fill:none;stroke:#000000;stroke-width:2.0px;stroke-linecap:butt;stroke-linejoin:miter;stroke-opacity:1;"/>
<path d="M 164.2,119.0 L 164.2,119.7 L 162.6,120.6" style="fill:none;stroke:#000000;stroke-width:2.0px;stroke-linecap:butt;stroke-linejoin:miter;stroke-opacity:1;"/>
<path d="M 132.7,173.6 L 132.7,174.5 L 132.0,174.9" style="fill:none;stroke:#000000;stroke-width:2.0px;stroke-linecap:butt;stroke-linejoin:miter;stroke-opacity:1;"/>
<path d="M 100.3,120.2 L 100.9,119.8 L 101.7,120.3" style="fill:none;stroke:#CCCCCC;stroke-width:2.9px;stroke-linecap:butt;stroke-linejoin:miter;stroke-opacity:1;"/>
<path d="M 225.8,82.1 L 227.3,83.0 L 227.4,83.7" style="fill:none;stroke:#000000;stroke-width:2.0px;stroke-linecap:butt;stroke-linejoin:miter;stroke-opacity:1;"/>
<path class="atom-0" d="M 34.7 81.7 L 37.0 79.4 L 33.9 78.7 L 34.4 77.2 L 37.2 78.6 L 36.8 75.5 L 38.4 75.5 L 38.0 78.6 L 40.8 77.3 L 41.3 78.7 L 38.2 79.3 L 40.4 81.7 L 39.1 82.6 L 37.6 79.7 L 36.0 82.6 L 34.7 81.7 " fill="#191919"/>
<path class="atom-4" d="M 125.3 28.5 Q 125.3 24.8, 127.1 22.7 Q 128.9 20.6, 132.4 20.6 Q 135.8 20.6, 137.7 22.7 Q 139.5 24.8, 139.5 28.5 Q 139.5 32.3, 137.6 34.4 Q 135.8 36.5, 132.4 36.5 Q 129.0 36.5, 127.1 34.4 Q 125.3 32.3, 125.3 28.5 M 132.4 34.8 Q 134.7 34.8, 136.0 33.2 Q 137.3 31.6, 137.3 28.5 Q 137.3 25.4, 136.0 23.9 Q 134.7 22.4, 132.4 22.4 Q 130.0 22.4, 128.7 23.9 Q 127.4 25.4, 127.4 28.5 Q 127.4 31.6, 128.7 33.2 Q 130.0 34.8, 132.4 34.8 " fill="#FF0000"/>
<path class="atom-5" d="M 160.7 75.4 L 165.8 83.6 Q 166.3 84.4, 167.1 85.9 Q 167.9 87.4, 167.9 87.5 L 167.9 75.4 L 170.0 75.4 L 170.0 90.9 L 167.9 90.9 L 162.4 81.9 Q 161.8 80.9, 161.1 79.7 Q 160.4 78.5, 160.2 78.1 L 160.2 90.9 L 158.2 90.9 L 158.2 75.4 L 160.7 75.4 " fill="#0000FF"/>
<path class="atom-9" d="M 96.8 188.7 L 99.1 186.4 L 96.0 185.8 L 96.5 184.2 L 99.3 185.6 L 98.9 182.6 L 100.5 182.6 L 100.1 185.6 L 102.9 184.3 L 103.4 185.8 L 100.3 186.4 L 102.5 188.7 L 101.2 189.7 L 99.6 186.8 L 98.1 189.7 L 96.8 188.7 " fill="#191919"/>
<path class="atom-10" d="M 67.8 138.8 L 70.1 136.4 L 67.0 135.8 L 67.5 134.3 L 70.3 135.7 L 69.9 132.6 L 71.5 132.6 L 71.1 135.6 L 73.9 134.3 L 74.4 135.8 L 71.3 136.4 L 73.5 138.7 L 72.2 139.7 L 70.7 136.8 L 69.1 139.7 L 67.8 138.8 " fill="#191919"/>
<path class="atom-17" d="M 220.3 119.6 Q 220.3 115.9, 222.1 113.8 Q 224.0 111.7, 227.4 111.7 Q 230.9 111.7, 232.7 113.8 Q 234.5 115.9, 234.5 119.6 Q 234.5 123.4, 232.7 125.5 Q 230.8 127.6, 227.4 127.6 Q 224.0 127.6, 222.1 125.5 Q 220.3 123.4, 220.3 119.6 M 227.4 125.9 Q 229.8 125.9, 231.1 124.3 Q 232.4 122.7, 232.4 119.6 Q 232.4 116.5, 231.1 115.0 Q 229.8 113.5, 227.4 113.5 Q 225.1 113.5, 223.8 115.0 Q 222.5 116.5, 222.5 119.6 Q 222.5 122.7, 223.8 124.3 Q 225.1 125.9, 227.4 125.9 " fill="#FF0000"/>
<path class="atom-17" d="M 237.0 111.9 L 239.1 111.9 L 239.1 118.5 L 247.0 118.5 L 247.0 111.9 L 249.1 111.9 L 249.1 127.4 L 247.0 127.4 L 247.0 120.2 L 239.1 120.2 L 239.1 127.4 L 237.0 127.4 L 237.0 111.9 " fill="#FF0000"/>
<path class="atom-18" d="M 251.8 64.8 Q 251.8 61.0, 253.7 58.9 Q 255.5 56.9, 258.9 56.9 Q 262.4 56.9, 264.2 58.9 Q 266.1 61.0, 266.1 64.8 Q 266.1 68.5, 264.2 70.7 Q 262.3 72.8, 258.9 72.8 Q 255.5 72.8, 253.7 70.7 Q 251.8 68.5, 251.8 64.8 M 258.9 71.0 Q 261.3 71.0, 262.6 69.5 Q 263.9 67.9, 263.9 64.8 Q 263.9 61.7, 262.6 60.2 Q 261.3 58.6, 258.9 58.6 Q 256.6 58.6, 255.3 60.2 Q 254.0 61.7, 254.0 64.8 Q 254.0 67.9, 255.3 69.5 Q 256.6 71.0, 258.9 71.0 " fill="#FF0000"/>
</svg></g>
   </g>
   <g id="text_13">
    
    <g transform="translate(301.558793 185.04) scale(0.12 -0.12)">
     <use ns4:href="#IBMPlexMono-Regular-6e"/>
     <use ns4:href="#IBMPlexMono-Regular-2d" transform="translate(59.999985 0)"/>
     <use ns4:href="#IBMPlexMono-Regular-70" transform="translate(119.999969 0)"/>
     <use ns4:href="#IBMPlexMono-Regular-72" transform="translate(179.999954 0)"/>
     <use ns4:href="#IBMPlexMono-Regular-6f" transform="translate(239.999939 0)"/>
     <use ns4:href="#IBMPlexMono-Regular-70" transform="translate(299.999924 0)"/>
     <use ns4:href="#IBMPlexMono-Regular-79" transform="translate(359.999908 0)"/>
     <use ns4:href="#IBMPlexMono-Regular-6c" transform="translate(419.999893 0)"/>
    </g>
   </g>
   <g id="AnnotationBbox_3">
    <g id="patch_14">
     <path d="M 439.672 211.6  L 579.272 211.6  L 579.272 152  L 439.672 152  z " style="fill: #ffffff; stroke: #000000; stroke-width: 0.5; stroke-linejoin: miter"/>
    </g>
    <g id="sk2">
     <svg version="1.1" baseProfile="full" xml:space="preserve" width="130.0" height="50.0" viewBox="0 0 300 200" x="444.472" y="156.8">

<rect style="opacity:1.0;fill:#FFFFFF;stroke:none" width="300.0" height="200.0" x="0.0" y="0.0"> </rect>
<path class="bond-0 atom-0 atom-1" d="M 16.7,75.2 L 103.4,125.1" style="fill:none;fill-rule:evenodd;stroke:#000000;stroke-width:2.0px;stroke-linecap:butt;stroke-linejoin:miter;stroke-opacity:1"/>
<path class="bond-1 atom-1 atom-2" d="M 103.4,125.1 L 189.9,74.9" style="fill:none;fill-rule:evenodd;stroke:#000000;stroke-width:2.0px;stroke-linecap:butt;stroke-linejoin:miter;stroke-opacity:1"/>
<path class="bond-2 atom-2 atom-3" d="M 189.9,74.9 L 266.6,119.0" style="fill:none;fill-rule:evenodd;stroke:#CCCCCC;stroke-width:8.0px;stroke-linecap:butt;stroke-linejoin:miter;stroke-opacity:1"/>
<path d="M 99.1,122.6 L 103.4,125.1 L 107.7,122.6" style="fill:none;stroke:#000000;stroke-width:2.0px;stroke-linecap:butt;stroke-linejoin:miter;stroke-opacity:1;"/>
<path d="M 187.7,76.2 L 189.9,74.9 L 191.8,76.0" style="fill:none;stroke:#000000;stroke-width:2.0px;stroke-linecap:butt;stroke-linejoin:miter;stroke-opacity:1;"/>
<path class="atom-3" d="M 271.3 121.6 L 275.4 117.3 L 269.9 116.2 L 270.8 113.4 L 275.8 115.9 L 275.1 110.4 L 278.1 110.3 L 277.3 115.9 L 282.4 113.5 L 283.3 116.2 L 277.7 117.3 L 281.7 121.5 L 279.3 123.3 L 276.5 118.0 L 273.7 123.3 L 271.3 121.6 " fill="#191919"/>
</svg></g>
   </g>
   <g id="text_14">
    
    <g transform="translate(301.558793 218.436444) scale(0.12 -0.12)">
     <defs>
      <path id="IBMPlexMono-Regular-68" d="M 627 4736  L 1139 4736  L 1139 2765  L 1165 2765  Q 1216 2886 1293 2998  Q 1370 3110 1482 3193  Q 1594 3277 1747 3328  Q 1901 3379 2106 3379  Q 2624 3379 2937 3049  Q 3251 2720 3251 2118  L 3251 0  L 2739 0  L 2739 2029  Q 2739 2483 2540 2704  Q 2342 2925 1958 2925  Q 1805 2925 1657 2886  Q 1510 2848 1395 2771  Q 1280 2694 1209 2572  Q 1139 2451 1139 2291  L 1139 0  L 627 0  L 627 4736  z " transform="scale(0.015625)"/>
      <path id="IBMPlexMono-Regular-4e" d="M 1043 3763  L 998 3763  L 998 0  L 512 0  L 512 4467  L 1274 4467  L 2797 704  L 2842 704  L 2842 4467  L 3328 4467  L 3328 0  L 2566 0  L 1043 3763  z " transform="scale(0.015625)"/>
     </defs>
     <use ns4:href="#IBMPlexMono-Regular-68"/>
     <use ns4:href="#IBMPlexMono-Regular-65" transform="translate(59.999985 0)"/>
     <use ns4:href="#IBMPlexMono-Regular-74" transform="translate(119.999969 0)"/>
     <use ns4:href="#IBMPlexMono-Regular-65" transform="translate(179.999954 0)"/>
     <use ns4:href="#IBMPlexMono-Regular-72" transform="translate(239.999939 0)"/>
     <use ns4:href="#IBMPlexMono-Regular-6f" transform="translate(299.999924 0)"/>
     <use ns4:href="#IBMPlexMono-Regular-20" transform="translate(359.999908 0)"/>
     <use ns4:href="#IBMPlexMono-Regular-4e" transform="translate(419.999893 0)"/>
     <use ns4:href="#IBMPlexMono-Regular-20" transform="translate(479.999878 0)"/>
     <use ns4:href="#IBMPlexMono-Regular-62" transform="translate(539.999863 0)"/>
     <use ns4:href="#IBMPlexMono-Regular-61" transform="translate(599.999847 0)"/>
     <use ns4:href="#IBMPlexMono-Regular-73" transform="translate(659.999832 0)"/>
     <use ns4:href="#IBMPlexMono-Regular-69" transform="translate(719.999817 0)"/>
     <use ns4:href="#IBMPlexMono-Regular-63" transform="translate(779.999802 0)"/>
    </g>
    
    <g transform="translate(301.558793 231.492444) scale(0.12 -0.12)">
     <defs>
      <path id="IBMPlexMono-Regular-48" d="M 2790 2029  L 1050 2029  L 1050 0  L 512 0  L 512 4467  L 1050 4467  L 1050 2496  L 2790 2496  L 2790 4467  L 3328 4467  L 3328 0  L 2790 0  L 2790 2029  z " transform="scale(0.015625)"/>
     </defs>
     <use ns4:href="#IBMPlexMono-Regular-48"/>
     <use ns4:href="#IBMPlexMono-Regular-2f" transform="translate(59.999985 0)"/>
     <use ns4:href="#IBMPlexMono-Regular-68" transform="translate(119.999969 0)"/>
     <use ns4:href="#IBMPlexMono-Regular-65" transform="translate(179.999954 0)"/>
     <use ns4:href="#IBMPlexMono-Regular-74" transform="translate(239.999939 0)"/>
     <use ns4:href="#IBMPlexMono-Regular-65" transform="translate(299.999924 0)"/>
     <use ns4:href="#IBMPlexMono-Regular-72" transform="translate(359.999908 0)"/>
     <use ns4:href="#IBMPlexMono-Regular-6f" transform="translate(419.999893 0)"/>
     <use ns4:href="#IBMPlexMono-Regular-20" transform="translate(479.999878 0)"/>
     <use ns4:href="#IBMPlexMono-Regular-4e" transform="translate(539.999863 0)"/>
    </g>
    
    <g transform="translate(301.558793 244.548444) scale(0.12 -0.12)">
     <use ns4:href="#IBMPlexMono-Regular-6e"/>
     <use ns4:href="#IBMPlexMono-Regular-6f" transform="translate(59.999985 0)"/>
     <use ns4:href="#IBMPlexMono-Regular-6e" transform="translate(119.999969 0)"/>
     <use ns4:href="#IBMPlexMono-Regular-62" transform="translate(179.999954 0)"/>
     <use ns4:href="#IBMPlexMono-Regular-61" transform="translate(239.999939 0)"/>
     <use ns4:href="#IBMPlexMono-Regular-73" transform="translate(299.999924 0)"/>
     <use ns4:href="#IBMPlexMono-Regular-69" transform="translate(359.999908 0)"/>
     <use ns4:href="#IBMPlexMono-Regular-63" transform="translate(419.999893 0)"/>
     <use ns4:href="#IBMPlexMono-Regular-2f" transform="translate(479.999878 0)"/>
     <use ns4:href="#IBMPlexMono-Regular-61" transform="translate(539.999863 0)"/>
     <use ns4:href="#IBMPlexMono-Regular-72" transform="translate(599.999847 0)"/>
     <use ns4:href="#IBMPlexMono-Regular-6f" transform="translate(659.999832 0)"/>
     <use ns4:href="#IBMPlexMono-Regular-6d" transform="translate(719.999817 0)"/>
     <use ns4:href="#IBMPlexMono-Regular-61" transform="translate(779.999802 0)"/>
     <use ns4:href="#IBMPlexMono-Regular-74" transform="translate(839.999786 0)"/>
     <use ns4:href="#IBMPlexMono-Regular-69" transform="translate(899.999771 0)"/>
     <use ns4:href="#IBMPlexMono-Regular-63" transform="translate(959.999756 0)"/>
    </g>
    
    <g transform="translate(301.558793 257.604444) scale(0.12 -0.12)">
     <use ns4:href="#IBMPlexMono-Regular-67"/>
     <use ns4:href="#IBMPlexMono-Regular-72" transform="translate(59.999985 0)"/>
     <use ns4:href="#IBMPlexMono-Regular-6f" transform="translate(119.999969 0)"/>
     <use ns4:href="#IBMPlexMono-Regular-75" transform="translate(179.999954 0)"/>
     <use ns4:href="#IBMPlexMono-Regular-70" transform="translate(239.999939 0)"/>
    </g>
   </g>
   <g id="AnnotationBbox_4">
    <g id="patch_15">
     <path d="M 439.672 267.04  L 579.272 267.04  L 579.272 207.44  L 439.672 207.44  z " style="fill: #ffffff; stroke: #000000; stroke-width: 0.5; stroke-linejoin: miter"/>
    </g>
    <g id="sk3">
     <svg version="1.1" baseProfile="full" xml:space="preserve" width="130.0" height="50.0" viewBox="0 0 300 200" x="444.472" y="212.24">

<rect style="opacity:1.0;fill:#FFFFFF;stroke:none" width="300.0" height="200.0" x="0.0" y="0.0"> </rect>
<path class="bond-0 atom-0 atom-1" d="M 52.7,53.6 L 119.6,92.0" style="fill:none;fill-rule:evenodd;stroke:#CCCCCC;stroke-width:6.4px;stroke-linecap:butt;stroke-linejoin:miter;stroke-opacity:1"/>
<path class="bond-1 atom-1 atom-2" d="M 113.2,88.3 L 120.2,154.5" style="fill:none;fill-rule:evenodd;stroke:#CCCCCC;stroke-width:6.4px;stroke-linecap:butt;stroke-linejoin:miter;stroke-opacity:1"/>
<path class="bond-1 atom-1 atom-2" d="M 125.3,89.4 L 132.1,153.3" style="fill:none;fill-rule:evenodd;stroke:#CCCCCC;stroke-width:6.4px;stroke-linecap:butt;stroke-linejoin:miter;stroke-opacity:1;stroke-dasharray:6,4"/>
<path class="bond-2 atom-3 atom-4" d="M 209.9,168.1 L 230.5,132.2" style="fill:none;fill-rule:evenodd;stroke:#CCCCCC;stroke-width:6.4px;stroke-linecap:butt;stroke-linejoin:miter;stroke-opacity:1"/>
<path class="bond-2 atom-3 atom-4" d="M 220.2,174.0 L 240.8,138.2" style="fill:none;fill-rule:evenodd;stroke:#CCCCCC;stroke-width:6.4px;stroke-linecap:butt;stroke-linejoin:miter;stroke-opacity:1;stroke-dasharray:6,4"/>
<path class="bond-3 atom-4 atom-5" d="M 227.5,107.6 L 201.0,78.3" style="fill:none;fill-rule:evenodd;stroke:#0000FF;stroke-width:2.0px;stroke-linecap:butt;stroke-linejoin:miter;stroke-opacity:1"/>
<path class="bond-3 atom-4 atom-5" d="M 236.3,99.6 L 209.8,70.3" style="fill:none;fill-rule:evenodd;stroke:#0000FF;stroke-width:2.0px;stroke-linecap:butt;stroke-linejoin:miter;stroke-opacity:1;stroke-dasharray:6,4"/>
<path class="bond-4 atom-5 atom-1" d="M 178.7,65.5 L 149.1,78.7" style="fill:none;fill-rule:evenodd;stroke:#0000FF;stroke-width:2.0px;stroke-linecap:butt;stroke-linejoin:miter;stroke-opacity:1"/>
<path class="bond-4 atom-5 atom-1" d="M 149.1,78.7 L 119.6,92.0" style="fill:none;fill-rule:evenodd;stroke:#000000;stroke-width:2.0px;stroke-linecap:butt;stroke-linejoin:miter;stroke-opacity:1"/>
<path class="bond-4 atom-5 atom-1" d="M 183.5,76.4 L 157.9,87.8" style="fill:none;fill-rule:evenodd;stroke:#0000FF;stroke-width:2.0px;stroke-linecap:butt;stroke-linejoin:miter;stroke-opacity:1;stroke-dasharray:6,4"/>
<path class="bond-4 atom-5 atom-1" d="M 157.9,87.8 L 132.3,99.3" style="fill:none;fill-rule:evenodd;stroke:#000000;stroke-width:2.0px;stroke-linecap:butt;stroke-linejoin:miter;stroke-opacity:1;stroke-dasharray:6,4"/>
<path class="atom-0" d="M 45.4 49.2 L 49.5 45.0 L 44.0 43.9 L 44.8 41.0 L 49.9 43.6 L 49.2 38.0 L 52.2 38.0 L 51.4 43.5 L 56.5 41.1 L 57.4 43.9 L 51.8 44.9 L 55.8 49.2 L 53.4 50.9 L 50.6 45.7 L 47.8 50.9 L 45.4 49.2 " fill="#191919"/>
<path class="atom-2" d="M 122.6 167.7 L 126.8 163.5 L 121.3 162.4 L 122.1 159.5 L 127.2 162.1 L 126.5 156.5 L 129.5 156.5 L 128.6 162.1 L 133.8 159.7 L 134.7 162.4 L 129.1 163.4 L 133.1 167.7 L 130.6 169.5 L 127.9 164.2 L 125.1 169.5 L 122.6 167.7 " fill="#191919"/>
<path class="atom-3" d="M 200.4 184.1 L 204.5 179.8 L 199.0 178.7 L 199.8 175.9 L 204.9 178.4 L 204.2 172.9 L 207.2 172.8 L 206.4 178.4 L 211.5 176.0 L 212.4 178.7 L 206.8 179.8 L 210.8 184.0 L 208.4 185.8 L 205.6 180.5 L 202.8 185.8 L 200.4 184.1 " fill="#191919"/>
<path class="atom-4" d="M 239.0 104.3 L 248.3 119.3 Q 249.2 120.7, 250.7 123.4 Q 252.2 126.1, 252.2 126.3 L 252.2 104.3 L 256.0 104.3 L 256.0 132.6 L 252.1 132.6 L 242.2 116.2 Q 241.0 114.3, 239.8 112.1 Q 238.6 109.9, 238.2 109.2 L 238.2 132.6 L 234.5 132.6 L 234.5 104.3 L 239.0 104.3 " fill="#0000FF"/>
<path class="atom-5" d="M 185.8 45.3 L 195.0 60.3 Q 196.0 61.8, 197.4 64.5 Q 198.9 67.2, 199.0 67.3 L 199.0 45.3 L 202.8 45.3 L 202.8 73.7 L 198.9 73.7 L 188.9 57.3 Q 187.8 55.3, 186.5 53.1 Q 185.3 50.9, 185.0 50.3 L 185.0 73.7 L 181.3 73.7 L 181.3 45.3 L 185.8 45.3 " fill="#0000FF"/>
<path class="atom-5" d="M 180.9 14.2 L 184.8 14.2 L 184.8 26.2 L 199.3 26.2 L 199.3 14.2 L 203.1 14.2 L 203.1 42.5 L 199.3 42.5 L 199.3 29.4 L 184.8 29.4 L 184.8 42.5 L 180.9 42.5 L 180.9 14.2 " fill="#0000FF"/>
</svg></g>
   </g>
   <g id="text_15">
    
    <g transform="translate(231.241207 291.145263) scale(0.12 -0.12)">
     <use ns4:href="#IBMPlexMono-Regular-63"/>
     <use ns4:href="#IBMPlexMono-Regular-61" transform="translate(59.999985 0)"/>
     <use ns4:href="#IBMPlexMono-Regular-72" transform="translate(119.999969 0)"/>
     <use ns4:href="#IBMPlexMono-Regular-62" transform="translate(179.999954 0)"/>
     <use ns4:href="#IBMPlexMono-Regular-6f" transform="translate(239.999939 0)"/>
     <use ns4:href="#IBMPlexMono-Regular-6e" transform="translate(299.999924 0)"/>
     <use ns4:href="#IBMPlexMono-Regular-79" transform="translate(359.999908 0)"/>
     <use ns4:href="#IBMPlexMono-Regular-6c" transform="translate(419.999893 0)"/>
    </g>
   </g>
   <g id="AnnotationBbox_5">
    <g id="patch_16">
     <path d="M 11.128 322.48  L 150.728 322.48  L 150.728 262.88  L 11.128 262.88  z " style="fill: #ffffff; stroke: #000000; stroke-width: 0.5; stroke-linejoin: miter"/>
    </g>
    <g id="sk4">
     <svg version="1.1" baseProfile="full" xml:space="preserve" width="130.0" height="50.0" viewBox="0 0 300 200" x="15.928" y="267.68">

<rect style="opacity:1.0;fill:#FFFFFF;stroke:none" width="300.0" height="200.0" x="0.0" y="0.0"> </rect>
<path class="bond-0 atom-0 atom-1" d="M 68.2,181.7 L 149.9,134.3" style="fill:none;fill-rule:evenodd;stroke:#CCCCCC;stroke-width:8.5px;stroke-linecap:butt;stroke-linejoin:miter;stroke-opacity:1"/>
<path class="bond-1 atom-1 atom-2" d="M 157.9,138.9 L 157.8,92.7" style="fill:none;fill-rule:evenodd;stroke:#000000;stroke-width:2.0px;stroke-linecap:butt;stroke-linejoin:miter;stroke-opacity:1"/>
<path class="bond-1 atom-1 atom-2" d="M 157.8,92.7 L 157.7,46.4" style="fill:none;fill-rule:evenodd;stroke:#FF0000;stroke-width:2.0px;stroke-linecap:butt;stroke-linejoin:miter;stroke-opacity:1"/>
<path class="bond-1 atom-1 atom-2" d="M 141.9,139.0 L 141.8,92.7" style="fill:none;fill-rule:evenodd;stroke:#000000;stroke-width:2.0px;stroke-linecap:butt;stroke-linejoin:miter;stroke-opacity:1"/>
<path class="bond-1 atom-1 atom-2" d="M 141.8,92.7 L 141.8,46.4" style="fill:none;fill-rule:evenodd;stroke:#FF0000;stroke-width:2.0px;stroke-linecap:butt;stroke-linejoin:miter;stroke-opacity:1"/>
<path class="bond-2 atom-1 atom-3" d="M 149.9,134.3 L 231.8,181.4" style="fill:none;fill-rule:evenodd;stroke:#CCCCCC;stroke-width:8.5px;stroke-linecap:butt;stroke-linejoin:miter;stroke-opacity:1"/>
<path d="M 145.8,136.7 L 149.9,134.3 L 154.0,136.7" style="fill:none;stroke:#CCCCCC;stroke-width:8.5px;stroke-linecap:butt;stroke-linejoin:miter;stroke-opacity:1;"/>
<path class="atom-0" d="M 52.7 184.5 L 56.8 180.2 L 51.3 179.1 L 52.2 176.3 L 57.2 178.8 L 56.5 173.3 L 59.5 173.2 L 58.7 178.8 L 63.8 176.4 L 64.7 179.1 L 59.1 180.1 L 63.1 184.4 L 60.7 186.2 L 57.9 180.9 L 55.1 186.2 L 52.7 184.5 " fill="#191919"/>
<path class="atom-2" d="M 136.7 28.2 Q 136.7 21.4, 140.0 17.6 Q 143.4 13.8, 149.7 13.8 Q 156.0 13.8, 159.3 17.6 Q 162.7 21.4, 162.7 28.2 Q 162.7 35.1, 159.3 39.0 Q 155.9 42.9, 149.7 42.9 Q 143.4 42.9, 140.0 39.0 Q 136.7 35.1, 136.7 28.2 M 149.7 39.7 Q 154.0 39.7, 156.3 36.8 Q 158.7 33.9, 158.7 28.2 Q 158.7 22.7, 156.3 19.9 Q 154.0 17.0, 149.7 17.0 Q 145.4 17.0, 143.0 19.8 Q 140.7 22.6, 140.7 28.2 Q 140.7 33.9, 143.0 36.8 Q 145.4 39.7, 149.7 39.7 " fill="#FF0000"/>
<path class="atom-3" d="M 236.6 184.1 L 240.8 179.9 L 235.3 178.7 L 236.1 175.9 L 241.2 178.5 L 240.5 172.9 L 243.5 172.9 L 242.6 178.4 L 247.8 176.0 L 248.7 178.7 L 243.1 179.8 L 247.1 184.1 L 244.6 185.8 L 241.9 180.5 L 239.1 185.8 L 236.6 184.1 " fill="#191919"/>
</svg></g>
   </g>
   <g id="text_16">
    
    <g transform="translate(237.6 37.2) scale(0.12 -0.12)">
     <defs>
      <path id="IBMPlexMono-Regular-66" d="M 531 435  L 1645 435  L 1645 2867  L 467 2867  L 467 3302  L 1645 3302  L 1645 3981  Q 1645 4314 1821 4525  Q 1997 4736 2374 4736  L 3482 4736  L 3482 4301  L 2157 4301  L 2157 3302  L 3482 3302  L 3482 2867  L 2157 2867  L 2157 435  L 3334 435  L 3334 0  L 531 0  L 531 435  z " transform="scale(0.015625)"/>
     </defs>
     <use ns4:href="#IBMPlexMono-Regular-65"/>
     <use ns4:href="#IBMPlexMono-Regular-63" transform="translate(59.999985 0)"/>
     <use ns4:href="#IBMPlexMono-Regular-66" transform="translate(119.999969 0)"/>
     <use ns4:href="#IBMPlexMono-Regular-70" transform="translate(179.999954 0)"/>
     <use ns4:href="#IBMPlexMono-Regular-20" transform="translate(239.999939 0)"/>
     <use ns4:href="#IBMPlexMono-Regular-64" transform="translate(299.999924 0)"/>
     <use ns4:href="#IBMPlexMono-Regular-65" transform="translate(359.999908 0)"/>
     <use ns4:href="#IBMPlexMono-Regular-73" transform="translate(419.999893 0)"/>
     <use ns4:href="#IBMPlexMono-Regular-63" transform="translate(479.999878 0)"/>
     <use ns4:href="#IBMPlexMono-Regular-72" transform="translate(539.999863 0)"/>
     <use ns4:href="#IBMPlexMono-Regular-69" transform="translate(599.999847 0)"/>
     <use ns4:href="#IBMPlexMono-Regular-70" transform="translate(659.999832 0)"/>
     <use ns4:href="#IBMPlexMono-Regular-74" transform="translate(719.999817 0)"/>
     <use ns4:href="#IBMPlexMono-Regular-6f" transform="translate(779.999802 0)"/>
     <use ns4:href="#IBMPlexMono-Regular-72" transform="translate(839.999786 0)"/>
     <use ns4:href="#IBMPlexMono-Regular-73" transform="translate(899.999771 0)"/>
    </g>
   </g>
  </g>
 </g>
 <defs>
  <clipPath id="p0cc1dd10ec">
   <rect x="72" y="43.2" width="446.4" height="277.2"/>
  </clipPath>
 </defs>
</svg>