<svg xmlns="http://www.w3.org/2000/svg" xmlns:dc="http://purl.org/dc/elements/1.1/" xmlns:ns2="http://creativecommons.org/ns#" xmlns:ns4="http://www.w3.org/1999/xlink" xmlns:rdf="http://www.w3.org/1999/02/22-rdf-syntax-ns#" width="576pt" height="360pt" viewBox="0 0 576 360" version="1.1">
 <metadata>
  <rdf:RDF>
   <ns2:Work>
    <dc:type rdf:resource="http://purl.org/dc/dcmitype/StillImage"/>
    <dc:date>2023-03-10T04:50:48.253005</dc:date>
    <dc:format>image/svg+xml</dc:format>
    <dc:creator>
     <ns2:Agent>
      <dc:title>Matplotlib v3.7.1, https://matplotlib.org/</dc:title>
     </ns2:Agent>
    </dc:creator>
   </ns2:Work>
  </rdf:RDF>
 </metadata>
 <defs>
  <style type="text/css">*{stroke-linejoin: round; stroke-linecap: butt}</style>
 </defs>
 <g id="figure_1">
  <g id="patch_1">
   <path d="M 0 360  L 576 360  L 576 0  L 0 0  z " style="fill: #ffffff"/>
  </g>
  <g id="axes_1">
   <g id="patch_2">
    <path d="M 72 320.4  L 518.4 320.4  L 518.4 43.2  L 72 43.2  z " style="fill: #f5f4e9"/>
   </g>
   <g id="line2d_1">
    <path d="M 342.985112 320.4  L 342.985112 43.2  " clip-path="url(#p5ca6575c93)" style="fill: none; stroke-dasharray: 2.775,1.2; stroke-dashoffset: 0; stroke: #f5ad4c; stroke-width: 0.75"/>
   </g>
   <g id="line2d_2">
    <path d="M 247.414888 320.4  L 247.414888 43.2  " clip-path="url(#p5ca6575c93)" style="fill: none; stroke-dasharray: 2.775,1.2; stroke-dashoffset: 0; stroke: #f5ad4c; stroke-width: 0.75"/>
   </g>
   <g id="patch_3">
    <path d="M 296.540073 276.498947  L 329.605763 276.498947  Q 329.971237 276.498947 329.971237 279.682105  L 329.971237 296.128421  Q 329.971237 299.311579 329.605763 299.311579  L 296.540073 299.311579  Q 296.174599 299.311579 296.174599 296.128421  L 296.174599 279.682105  Q 296.174599 276.498947 296.540073 276.498947  z " clip-path="url(#p5ca6575c93)" style="fill: #1bbc9b"/>
   </g>
   <g id="patch_4">
    <path d="M 296.540073 223.446316  L 331.091446 223.446316  Q 331.45692 223.446316 331.45692 226.629474  L 331.45692 243.075789  Q 331.45692 246.258947 331.091446 246.258947  L 296.540073 246.258947  Q 296.174599 246.258947 296.174599 243.075789  L 296.174599 226.629474  Q 296.174599 223.446316 296.540073 223.446316  z " clip-path="url(#p5ca6575c93)" style="fill: #1bbc9b"/>
   </g>
   <g id="patch_5">
    <path d="M 255.080937 170.393684  L 293.859927 170.393684  Q 294.225401 170.393684 294.225401 173.576842  L 294.225401 190.023158  Q 294.225401 193.206316 293.859927 193.206316  L 255.080937 193.206316  Q 254.715462 193.206316 254.715462 190.023158  L 254.715462 173.576842  Q 254.715462 170.393684 255.080937 170.393684  z " clip-path="url(#p5ca6575c93)" style="fill: #f06060"/>
   </g>
   <g id="patch_6">
    <path d="M 254.975799 117.341053  L 293.859927 117.341053  Q 294.225401 117.341053 294.225401 120.524211  L 294.225401 136.970526  Q 294.225401 140.153684 293.859927 140.153684  L 254.975799 140.153684  Q 254.610325 140.153684 254.610325 136.970526  L 254.610325 120.524211  Q 254.610325 117.341053 254.975799 117.341053  z " clip-path="url(#p5ca6575c93)" style="fill: #f06060"/>
   </g>
   <g id="patch_7">
    <path d="M 219.529889 64.288421  L 293.859927 64.288421  Q 294.225401 64.288421 294.225401 67.471579  L 294.225401 83.917895  Q 294.225401 87.101053 293.859927 87.101053  L 219.529889 87.101053  Q 219.164414 87.101053 219.164414 83.917895  L 219.164414 67.471579  Q 219.164414 64.288421 219.529889 64.288421  z " clip-path="url(#p5ca6575c93)" style="fill: #f06060"/>
   </g>
   <g id="matplotlib.axis_1">
    <g id="xtick_1">
     <g id="line2d_3">
      <defs>
       <path id="md46c063f87" d="M 0 0  L 0 3.5  " style="stroke: #000000; stroke-width: 0.8"/>
      </defs>
      <g>
       <use ns4:href="#md46c063f87" x="112.462731" y="320.4" style="stroke: #000000; stroke-width: 0.8"/>
      </g>
     </g>
     <g id="text_1">
      
      <g transform="translate(98.062731 336.28) scale(0.12 -0.12)">
       <defs>
        <path id="IBMPlexMono-Regular-2212" d="M 397 1734  L 397 2170  L 3443 2170  L 3443 1734  L 397 1734  z " transform="scale(0.015625)"/>
        <path id="IBMPlexMono-Regular-37" d="M 1107 0  L 2854 4006  L 896 4006  L 896 3174  L 416 3174  L 416 4467  L 3398 4467  L 3398 3994  L 1683 0  L 1107 0  z " transform="scale(0.015625)"/>
        <path id="IBMPlexMono-Regular-2e" d="M 1920 -58  Q 1658 -58 1552 51  Q 1446 160 1446 326  L 1446 442  Q 1446 608 1552 717  Q 1658 826 1920 826  Q 2182 826 2288 717  Q 2394 608 2394 442  L 2394 326  Q 2394 160 2288 51  Q 2182 -58 1920 -58  z " transform="scale(0.015625)"/>
        <path id="IBMPlexMono-Regular-35" d="M 3206 4000  L 1210 4000  L 1082 2291  L 1126 2291  Q 1293 2515 1497 2646  Q 1702 2778 2061 2778  Q 2355 2778 2601 2685  Q 2848 2592 3027 2413  Q 3206 2234 3308 1981  Q 3411 1728 3411 1402  Q 3411 1075 3308 803  Q 3206 531 3008 336  Q 2810 141 2528 32  Q 2246 -77 1888 -77  Q 1606 -77 1385 -13  Q 1165 51 995 160  Q 826 269 698 403  Q 570 538 467 685  L 870 992  Q 960 858 1053 749  Q 1146 640 1267 560  Q 1389 480 1542 435  Q 1696 390 1901 390  Q 2362 390 2608 640  Q 2854 890 2854 1331  L 2854 1382  Q 2854 1824 2604 2073  Q 2355 2323 1888 2323  Q 1568 2323 1392 2214  Q 1216 2106 1069 1946  L 614 2010  L 774 4467  L 3206 4467  L 3206 4000  z " transform="scale(0.015625)"/>
       </defs>
       <use ns4:href="#IBMPlexMono-Regular-2212"/>
       <use ns4:href="#IBMPlexMono-Regular-37" x="59.999985"/>
       <use ns4:href="#IBMPlexMono-Regular-2e" x="119.999969"/>
       <use ns4:href="#IBMPlexMono-Regular-35" x="179.999954"/>
      </g>
     </g>
    </g>
    <g id="xtick_2">
     <g id="line2d_4">
      <g>
       <use ns4:href="#md46c063f87" x="173.375154" y="320.4" style="stroke: #000000; stroke-width: 0.8"/>
      </g>
     </g>
     <g id="text_2">
      
      <g transform="translate(158.975154 336.28) scale(0.12 -0.12)">
       <defs>
        <path id="IBMPlexMono-Regular-30" d="M 1920 -77  Q 1510 -77 1216 80  Q 922 237 730 531  Q 538 826 448 1254  Q 358 1683 358 2234  Q 358 2778 448 3210  Q 538 3642 730 3936  Q 922 4230 1216 4387  Q 1510 4544 1920 4544  Q 2330 4544 2624 4387  Q 2918 4230 3110 3936  Q 3302 3642 3392 3210  Q 3482 2778 3482 2234  Q 3482 1683 3392 1254  Q 3302 826 3110 531  Q 2918 237 2624 80  Q 2330 -77 1920 -77  z M 1920 390  Q 2189 390 2381 496  Q 2573 602 2691 794  Q 2810 986 2867 1258  Q 2925 1530 2925 1869  L 2925 2598  Q 2925 2931 2867 3206  Q 2810 3482 2691 3674  Q 2573 3866 2381 3971  Q 2189 4077 1920 4077  Q 1651 4077 1459 3971  Q 1267 3866 1148 3674  Q 1030 3482 972 3206  Q 915 2931 915 2598  L 915 1869  Q 915 1530 972 1258  Q 1030 986 1148 794  Q 1267 602 1459 496  Q 1651 390 1920 390  z M 1920 1856  Q 1696 1856 1609 1945  Q 1523 2035 1523 2163  L 1523 2304  Q 1523 2432 1609 2521  Q 1696 2611 1920 2611  Q 2144 2611 2230 2521  Q 2317 2432 2317 2304  L 2317 2163  Q 2317 2035 2230 1945  Q 2144 1856 1920 1856  z " transform="scale(0.015625)"/>
       </defs>
       <use ns4:href="#IBMPlexMono-Regular-2212"/>
       <use ns4:href="#IBMPlexMono-Regular-35" x="59.999985"/>
       <use ns4:href="#IBMPlexMono-Regular-2e" x="119.999969"/>
       <use ns4:href="#IBMPlexMono-Regular-30" x="179.999954"/>
      </g>
     </g>
    </g>
    <g id="xtick_3">
     <g id="line2d_5">
      <g>
       <use ns4:href="#md46c063f87" x="234.287577" y="320.4" style="stroke: #000000; stroke-width: 0.8"/>
      </g>
     </g>
     <g id="text_3">
      
      <g transform="translate(219.887577 336.28) scale(0.12 -0.12)">
       <defs>
        <path id="IBMPlexMono-Regular-32" d="M 3437 0  L 454 0  L 454 550  L 1946 1894  Q 2272 2189 2483 2499  Q 2694 2810 2694 3155  L 2694 3232  Q 2694 3635 2483 3856  Q 2272 4077 1856 4077  Q 1446 4077 1225 3869  Q 1005 3661 896 3315  L 416 3494  Q 480 3693 592 3881  Q 704 4070 877 4217  Q 1050 4365 1296 4454  Q 1542 4544 1869 4544  Q 2202 4544 2461 4448  Q 2720 4352 2896 4179  Q 3072 4006 3165 3769  Q 3258 3533 3258 3251  Q 3258 2995 3184 2771  Q 3110 2547 2979 2342  Q 2848 2138 2665 1942  Q 2483 1747 2259 1555  L 1011 467  L 3437 467  L 3437 0  z " transform="scale(0.015625)"/>
       </defs>
       <use ns4:href="#IBMPlexMono-Regular-2212"/>
       <use ns4:href="#IBMPlexMono-Regular-32" x="59.999985"/>
       <use ns4:href="#IBMPlexMono-Regular-2e" x="119.999969"/>
       <use ns4:href="#IBMPlexMono-Regular-35" x="179.999954"/>
      </g>
     </g>
    </g>
    <g id="xtick_4">
     <g id="line2d_6">
      <g>
       <use ns4:href="#md46c063f87" x="295.2" y="320.4" style="stroke: #000000; stroke-width: 0.8"/>
      </g>
     </g>
     <g id="text_4">
      
      <g transform="translate(284.4 336.28) scale(0.12 -0.12)">
       <use ns4:href="#IBMPlexMono-Regular-30"/>
       <use ns4:href="#IBMPlexMono-Regular-2e" x="59.999985"/>
       <use ns4:href="#IBMPlexMono-Regular-30" x="119.999969"/>
      </g>
     </g>
    </g>
    <g id="xtick_5">
     <g id="line2d_7">
      <g>
       <use ns4:href="#md46c063f87" x="356.112423" y="320.4" style="stroke: #000000; stroke-width: 0.8"/>
      </g>
     </g>
     <g id="text_5">
      
      <g transform="translate(345.312423 336.28) scale(0.12 -0.12)">
       <use ns4:href="#IBMPlexMono-Regular-32"/>
       <use ns4:href="#IBMPlexMono-Regular-2e" x="59.999985"/>
       <use ns4:href="#IBMPlexMono-Regular-35" x="119.999969"/>
      </g>
     </g>
    </g>
    <g id="xtick_6">
     <g id="line2d_8">
      <g>
       <use ns4:href="#md46c063f87" x="417.024846" y="320.4" style="stroke: #000000; stroke-width: 0.8"/>
      </g>
     </g>
     <g id="text_6">
      
      <g transform="translate(406.224846 336.28) scale(0.12 -0.12)">
       <use ns4:href="#IBMPlexMono-Regular-35"/>
       <use ns4:href="#IBMPlexMono-Regular-2e" x="59.999985"/>
       <use ns4:href="#IBMPlexMono-Regular-30" x="119.999969"/>
      </g>
     </g>
    </g>
    <g id="xtick_7">
     <g id="line2d_9">
      <g>
       <use ns4:href="#md46c063f87" x="477.937269" y="320.4" style="stroke: #000000; stroke-width: 0.8"/>
      </g>
     </g>
     <g id="text_7">
      
      <g transform="translate(467.137269 336.28) scale(0.12 -0.12)">
       <use ns4:href="#IBMPlexMono-Regular-37"/>
       <use ns4:href="#IBMPlexMono-Regular-2e" x="59.999985"/>
       <use ns4:href="#IBMPlexMono-Regular-35" x="119.999969"/>
      </g>
     </g>
    </g>
    <g id="text_8">
     
     <g transform="translate(212.4 351.655625) scale(0.12 -0.12)">
      <defs>
       <path id="IBMPlexMono-Regular-44" d="M 608 4467  L 1856 4467  Q 2675 4467 3078 3904  Q 3482 3341 3482 2234  Q 3482 1126 3078 563  Q 2675 0 1856 0  L 608 0  L 608 4467  z M 1830 467  Q 2368 467 2640 838  Q 2912 1210 2912 1888  L 2912 2579  Q 2912 3258 2640 3629  Q 2368 4000 1830 4000  L 1146 4000  L 1146 467  L 1830 467  z " transform="scale(0.015625)"/>
       <path id="IBMPlexMono-Regular-65" d="M 1978 -77  Q 1619 -77 1334 44  Q 1050 166 848 393  Q 646 621 537 937  Q 429 1254 429 1645  Q 429 2042 541 2362  Q 653 2682 851 2909  Q 1050 3136 1328 3257  Q 1606 3379 1946 3379  Q 2278 3379 2550 3257  Q 2822 3136 3014 2921  Q 3206 2707 3308 2412  Q 3411 2118 3411 1766  L 3411 1523  L 966 1523  L 966 1370  Q 966 1152 1036 966  Q 1107 781 1238 646  Q 1370 512 1558 438  Q 1747 365 1978 365  Q 2310 365 2553 518  Q 2797 672 2925 941  L 3302 685  Q 3155 352 2812 137  Q 2470 -77 1978 -77  z M 1946 2957  Q 1734 2957 1555 2880  Q 1376 2803 1245 2668  Q 1114 2534 1040 2352  Q 966 2170 966 1952  L 966 1907  L 2861 1907  L 2861 1978  Q 2861 2195 2793 2374  Q 2726 2554 2608 2685  Q 2490 2816 2320 2886  Q 2150 2957 1946 2957  z " transform="scale(0.015625)"/>
       <path id="IBMPlexMono-Regular-73" d="M 1958 -77  Q 1440 -77 1065 99  Q 691 275 429 570  L 774 870  Q 1011 621 1292 486  Q 1574 352 1971 352  Q 2355 352 2601 489  Q 2848 627 2848 922  Q 2848 1050 2800 1136  Q 2752 1222 2669 1273  Q 2586 1325 2483 1353  Q 2381 1382 2266 1402  L 1747 1478  Q 1574 1504 1372 1549  Q 1171 1594 1004 1693  Q 838 1792 726 1958  Q 614 2125 614 2394  Q 614 2643 713 2825  Q 813 3008 992 3133  Q 1171 3258 1414 3318  Q 1658 3379 1946 3379  Q 2394 3379 2723 3238  Q 3053 3098 3290 2848  L 2957 2534  Q 2899 2605 2812 2678  Q 2726 2752 2601 2813  Q 2477 2874 2310 2912  Q 2144 2950 1926 2950  Q 1536 2950 1328 2816  Q 1120 2682 1120 2426  Q 1120 2298 1168 2211  Q 1216 2125 1299 2073  Q 1382 2022 1488 1993  Q 1594 1965 1702 1946  L 2221 1869  Q 2400 1843 2598 1798  Q 2797 1754 2963 1654  Q 3130 1555 3242 1388  Q 3354 1222 3354 954  Q 3354 461 2973 192  Q 2592 -77 1958 -77  z " transform="scale(0.015625)"/>
       <path id="IBMPlexMono-Regular-63" d="M 2035 -77  Q 1677 -77 1398 48  Q 1120 173 928 397  Q 736 621 637 941  Q 538 1261 538 1651  Q 538 2042 640 2362  Q 742 2682 934 2909  Q 1126 3136 1401 3257  Q 1677 3379 2029 3379  Q 2509 3379 2809 3168  Q 3110 2957 3251 2618  L 2842 2400  Q 2752 2656 2544 2797  Q 2336 2938 2029 2938  Q 1805 2938 1629 2864  Q 1453 2790 1331 2656  Q 1210 2522 1149 2336  Q 1088 2150 1088 1933  L 1088 1370  Q 1088 1152 1149 966  Q 1210 781 1331 646  Q 1453 512 1632 438  Q 1811 365 2042 365  Q 2374 365 2592 518  Q 2810 672 2938 941  L 3302 691  Q 3155 358 2844 140  Q 2534 -77 2035 -77  z " transform="scale(0.015625)"/>
       <path id="IBMPlexMono-Regular-72" d="M 493 435  L 1459 435  L 1459 2867  L 493 2867  L 493 3302  L 1971 3302  L 1971 2470  L 2003 2470  Q 2106 2861 2390 3081  Q 2675 3302 3117 3302  L 3578 3302  L 3578 2790  L 2957 2790  Q 2515 2790 2243 2534  Q 1971 2278 1971 1862  L 1971 435  L 3251 435  L 3251 0  L 493 0  L 493 435  z " transform="scale(0.015625)"/>
       <path id="IBMPlexMono-Regular-69" d="M 2125 4032  Q 1901 4032 1811 4125  Q 1722 4218 1722 4358  L 1722 4461  Q 1722 4602 1811 4694  Q 1901 4787 2125 4787  Q 2349 4787 2438 4694  Q 2528 4602 2528 4461  L 2528 4358  Q 2528 4218 2438 4125  Q 2349 4032 2125 4032  z M 678 435  L 1869 435  L 1869 2867  L 678 2867  L 678 3302  L 2381 3302  L 2381 435  L 3494 435  L 3494 0  L 678 0  L 678 435  z " transform="scale(0.015625)"/>
       <path id="IBMPlexMono-Regular-70" d="M 608 3302  L 1120 3302  L 1120 2765  L 1146 2765  Q 1466 3379 2163 3379  Q 2771 3379 3113 2924  Q 3456 2470 3456 1651  Q 3456 832 3113 377  Q 2771 -77 2163 -77  Q 1466 -77 1146 538  L 1120 538  L 1120 -1280  L 608 -1280  L 608 3302  z M 1965 378  Q 2413 378 2659 650  Q 2906 922 2906 1370  L 2906 1933  Q 2906 2381 2659 2653  Q 2413 2925 1965 2925  Q 1792 2925 1638 2880  Q 1485 2835 1369 2748  Q 1254 2662 1187 2537  Q 1120 2413 1120 2246  L 1120 1056  Q 1120 890 1187 765  Q 1254 640 1369 553  Q 1485 467 1638 422  Q 1792 378 1965 378  z " transform="scale(0.015625)"/>
       <path id="IBMPlexMono-Regular-74" d="M 2080 0  Q 1702 0 1526 211  Q 1350 422 1350 755  L 1350 2867  L 250 2867  L 250 3302  L 1069 3302  Q 1235 3302 1302 3369  Q 1370 3437 1370 3603  L 1370 4467  L 1862 4467  L 1862 3302  L 3366 3302  L 3366 2867  L 1862 2867  L 1862 435  L 3366 435  L 3366 0  L 2080 0  z " transform="scale(0.015625)"/>
       <path id="IBMPlexMono-Regular-6f" d="M 1920 -77  Q 1574 -77 1296 44  Q 1018 166 822 393  Q 627 621 524 937  Q 422 1254 422 1651  Q 422 2042 524 2362  Q 627 2682 822 2909  Q 1018 3136 1296 3257  Q 1574 3379 1920 3379  Q 2266 3379 2544 3257  Q 2822 3136 3017 2909  Q 3213 2682 3315 2362  Q 3418 2042 3418 1651  Q 3418 1254 3315 937  Q 3213 621 3017 393  Q 2822 166 2544 44  Q 2266 -77 1920 -77  z M 1920 365  Q 2349 365 2611 621  Q 2874 877 2874 1414  L 2874 1888  Q 2874 2426 2611 2682  Q 2349 2938 1920 2938  Q 1491 2938 1228 2682  Q 966 2426 966 1888  L 966 1414  Q 966 877 1228 621  Q 1491 365 1920 365  z " transform="scale(0.015625)"/>
       <path id="IBMPlexMono-Regular-20" transform="scale(0.015625)"/>
       <path id="IBMPlexMono-Regular-2d" d="M 992 1677  L 992 2214  L 2848 2214  L 2848 1677  L 992 1677  z " transform="scale(0.015625)"/>
       <path id="IBMPlexMono-Regular-61" d="M 3168 0  Q 2867 0 2739 153  Q 2611 307 2579 538  L 2547 538  Q 2438 250 2198 86  Q 1958 -77 1555 -77  Q 1037 -77 729 192  Q 422 461 422 928  Q 422 1389 758 1638  Q 1094 1888 1843 1888  L 2547 1888  L 2547 2214  Q 2547 2579 2342 2761  Q 2138 2944 1760 2944  Q 1427 2944 1216 2813  Q 1005 2682 877 2458  L 531 2714  Q 595 2842 704 2963  Q 813 3085 973 3177  Q 1133 3270 1337 3324  Q 1542 3379 1792 3379  Q 2374 3379 2716 3084  Q 3059 2790 3059 2266  L 3059 448  L 3520 448  L 3520 0  L 3168 0  z M 1645 352  Q 1843 352 2006 400  Q 2170 448 2291 528  Q 2413 608 2480 720  Q 2547 832 2547 960  L 2547 1504  L 1843 1504  Q 1382 1504 1171 1376  Q 960 1248 960 1005  L 960 870  Q 960 614 1142 483  Q 1325 352 1645 352  z " transform="scale(0.015625)"/>
      </defs>
      <use ns4:href="#IBMPlexMono-Regular-44"/>
      <use ns4:href="#IBMPlexMono-Regular-65" x="59.999985"/>
      <use ns4:href="#IBMPlexMono-Regular-73" x="119.999969"/>
      <use ns4:href="#IBMPlexMono-Regular-63" x="179.999954"/>
      <use ns4:href="#IBMPlexMono-Regular-72" x="239.999939"/>
      <use ns4:href="#IBMPlexMono-Regular-69" x="299.999924"/>
      <use ns4:href="#IBMPlexMono-Regular-70" x="359.999908"/>
      <use ns4:href="#IBMPlexMono-Regular-74" x="419.999893"/>
      <use ns4:href="#IBMPlexMono-Regular-6f" x="479.999878"/>
      <use ns4:href="#IBMPlexMono-Regular-72" x="539.999863"/>
      <use ns4:href="#IBMPlexMono-Regular-20" x="599.999847"/>
      <use ns4:href="#IBMPlexMono-Regular-74" x="659.999832"/>
      <use ns4:href="#IBMPlexMono-Regular-2d" x="719.999817"/>
      <use ns4:href="#IBMPlexMono-Regular-73" x="779.999802"/>
      <use ns4:href="#IBMPlexMono-Regular-74" x="839.999786"/>
      <use ns4:href="#IBMPlexMono-Regular-61" x="899.999771"/>
      <use ns4:href="#IBMPlexMono-Regular-74" x="959.999756"/>
      <use ns4:href="#IBMPlexMono-Regular-69" x="1019.999741"/>
      <use ns4:href="#IBMPlexMono-Regular-73" x="1079.999725"/>
      <use ns4:href="#IBMPlexMono-Regular-74" x="1139.99971"/>
      <use ns4:href="#IBMPlexMono-Regular-69" x="1199.999695"/>
      <use ns4:href="#IBMPlexMono-Regular-63" x="1259.99968"/>
      <use ns4:href="#IBMPlexMono-Regular-73" x="1319.999664"/>
     </g>
    </g>
   </g>
   <g id="matplotlib.axis_2"/>
   <g id="line2d_10">
    <path d="M 295.2 320.4  L 295.2 43.2  " clip-path="url(#p5ca6575c93)" style="fill: none; stroke: #808080; stroke-width: 0.5; stroke-linecap: square"/>
   </g>
   <g id="patch_8">
    <path d="M 72 320.4  L 72 43.2  " style="fill: none; stroke: #333333; stroke-width: 0.8; stroke-linejoin: miter; stroke-linecap: square"/>
   </g>
   <g id="patch_9">
    <path d="M 518.4 320.4  L 518.4 43.2  " style="fill: none; stroke: #333333; stroke-width: 0.8; stroke-linejoin: miter; stroke-linecap: square"/>
   </g>
   <g id="patch_10">
    <path d="M 72 320.4  L 518.4 320.4  " style="fill: none; stroke: #333333; stroke-width: 0.8; stroke-linejoin: miter; stroke-linecap: square"/>
   </g>
   <g id="patch_11">
    <path d="M 72 43.2  L 518.4 43.2  " style="fill: none; stroke: #333333; stroke-width: 0.8; stroke-linejoin: miter; stroke-linecap: square"/>
   </g>
   <g id="text_9">
    
    <g transform="translate(301.291242 78.982549) scale(0.12 -0.12)">
     <defs>
      <path id="IBMPlexMono-Regular-79" d="M 2989 3302  L 3501 3302  L 1862 -723  Q 1805 -864 1734 -969  Q 1664 -1075 1568 -1142  Q 1472 -1210 1337 -1245  Q 1203 -1280 1018 -1280  L 531 -1280  L 531 -845  L 1299 -845  L 1670 64  L 339 3302  L 864 3302  L 1421 1920  L 1914 666  L 1939 666  L 2432 1920  L 2989 3302  z " transform="scale(0.015625)"/>
      <path id="IBMPlexMono-Regular-6c" d="M 512 435  L 1664 435  L 1664 4301  L 512 4301  L 512 4736  L 2176 4736  L 2176 435  L 3328 435  L 3328 0  L 512 0  L 512 435  z " transform="scale(0.015625)"/>
     </defs>
     <use ns4:href="#IBMPlexMono-Regular-69"/>
     <use ns4:href="#IBMPlexMono-Regular-73" x="59.999985"/>
     <use ns4:href="#IBMPlexMono-Regular-6f" x="119.999969"/>
     <use ns4:href="#IBMPlexMono-Regular-2d" x="179.999954"/>
     <use ns4:href="#IBMPlexMono-Regular-70" x="239.999939"/>
     <use ns4:href="#IBMPlexMono-Regular-72" x="299.999924"/>
     <use ns4:href="#IBMPlexMono-Regular-6f" x="359.999908"/>
     <use ns4:href="#IBMPlexMono-Regular-70" x="419.999893"/>
     <use ns4:href="#IBMPlexMono-Regular-79" x="479.999878"/>
     <use ns4:href="#IBMPlexMono-Regular-6c" x="539.999863"/>
    </g>
   </g>
   <g id="AnnotationBbox_1">
    <g id="patch_12">
     <path d="M 439.672 100.72  L 579.272 100.72  L 579.272 41.12  L 439.672 41.12  z " style="fill: #ffffff; stroke: #000000; stroke-width: 0.5; stroke-linejoin: miter"/>
    </g>
    <g id="sk0">
     <svg version="1.1" baseProfile="full" xml:space="preserve" width="130.0" height="50.0" viewBox="0 0 300 200" x="444.472" y="45.92">

<rect style="opacity:1.0;fill:#FFFFFF;stroke:none" width="300.0" height="200.0" x="0.0" y="0.0"> </rect>
<path class="bond-0 atom-0 atom-1" d="M 80.3,187.0 L 149.9,146.6" style="fill:none;fill-rule:evenodd;stroke:#CCCCCC;stroke-width:7.3px;stroke-linecap:butt;stroke-linejoin:miter;stroke-opacity:1"/>
<path class="bond-1 atom-1 atom-2" d="M 149.9,146.6 L 149.7,54.9" style="fill:none;fill-rule:evenodd;stroke:#000000;stroke-width:2.0px;stroke-linecap:butt;stroke-linejoin:miter;stroke-opacity:1"/>
<path class="bond-2 atom-2 atom-3" d="M 149.7,54.9 L 229.1,8.8" style="fill:none;fill-rule:evenodd;stroke:#000000;stroke-width:2.0px;stroke-linecap:butt;stroke-linejoin:miter;stroke-opacity:1"/>
<path class="bond-3 atom-2 atom-4" d="M 149.7,54.9 L 70.2,9.1" style="fill:none;fill-rule:evenodd;stroke:#000000;stroke-width:2.0px;stroke-linecap:butt;stroke-linejoin:miter;stroke-opacity:1"/>
<path class="bond-4 atom-1 atom-5" d="M 149.9,146.6 L 219.7,186.7" style="fill:none;fill-rule:evenodd;stroke:#CCCCCC;stroke-width:7.3px;stroke-linecap:butt;stroke-linejoin:miter;stroke-opacity:1"/>
<path class="atom-0" d="M 65.2 189.5 L 69.4 185.2 L 63.8 184.1 L 64.7 181.3 L 69.8 183.8 L 69.0 178.3 L 72.0 178.2 L 71.2 183.8 L 76.4 181.4 L 77.2 184.1 L 71.6 185.1 L 75.6 189.4 L 73.2 191.2 L 70.4 185.9 L 67.6 191.2 L 65.2 189.5 " fill="#191919"/>
<path class="atom-5" d="M 224.1 189.1 L 228.3 184.9 L 222.8 183.8 L 223.6 180.9 L 228.7 183.5 L 228.0 177.9 L 231.0 177.9 L 230.1 183.5 L 235.3 181.1 L 236.2 183.8 L 230.6 184.8 L 234.6 189.1 L 232.1 190.9 L 229.4 185.6 L 226.6 190.9 L 224.1 189.1 " fill="#191919"/>
</svg></g>
   </g>
   <g id="text_10">
    
    <g transform="translate(301.291242 125.290993) scale(0.12 -0.12)">
     <use ns4:href="#IBMPlexMono-Regular-74"/>
     <use ns4:href="#IBMPlexMono-Regular-65" x="59.999985"/>
     <use ns4:href="#IBMPlexMono-Regular-72" x="119.999969"/>
     <use ns4:href="#IBMPlexMono-Regular-74" x="179.999954"/>
     <use ns4:href="#IBMPlexMono-Regular-69" x="239.999939"/>
     <use ns4:href="#IBMPlexMono-Regular-61" x="299.999924"/>
     <use ns4:href="#IBMPlexMono-Regular-72" x="359.999908"/>
     <use ns4:href="#IBMPlexMono-Regular-79" x="419.999893"/>
    </g>
    
    <g transform="translate(301.291242 138.634993) scale(0.12 -0.12)">
     <defs>
      <path id="IBMPlexMono-Regular-6d" d="M 346 0  L 346 3302  L 819 3302  L 819 2918  L 845 2918  Q 922 3110 1062 3244  Q 1203 3379 1478 3379  Q 1766 3379 1907 3235  Q 2048 3091 2080 2861  L 2099 2861  Q 2189 3085 2355 3232  Q 2522 3379 2816 3379  Q 3219 3379 3356 3097  Q 3494 2816 3494 2291  L 3494 0  L 3021 0  L 3021 2208  Q 3021 2630 2934 2793  Q 2848 2957 2618 2957  Q 2413 2957 2285 2825  Q 2157 2694 2157 2426  L 2157 0  L 1683 0  L 1683 2208  Q 1683 2630 1596 2793  Q 1510 2957 1286 2957  Q 1082 2957 950 2825  Q 819 2694 819 2426  L 819 0  L 346 0  z " transform="scale(0.015625)"/>
      <path id="IBMPlexMono-Regular-64" d="M 2720 538  L 2694 538  Q 2374 -77 1677 -77  Q 1069 -77 726 377  Q 384 832 384 1651  Q 384 2470 726 2924  Q 1069 3379 1677 3379  Q 2374 3379 2694 2765  L 2720 2765  L 2720 4736  L 3232 4736  L 3232 0  L 2720 0  L 2720 538  z M 1875 378  Q 2048 378 2201 422  Q 2355 467 2470 553  Q 2586 640 2653 765  Q 2720 890 2720 1056  L 2720 2246  Q 2720 2413 2653 2537  Q 2586 2662 2470 2748  Q 2355 2835 2201 2880  Q 2048 2925 1875 2925  Q 1427 2925 1180 2653  Q 934 2381 934 1933  L 934 1370  Q 934 922 1180 650  Q 1427 378 1875 378  z " transform="scale(0.015625)"/>
      <path id="IBMPlexMono-Regular-2f" d="M 576 -883  L 2803 4864  L 3264 4864  L 1037 -883  L 576 -883  z " transform="scale(0.015625)"/>
      <path id="IBMPlexMono-Regular-67" d="M 3590 -378  Q 3590 -877 3174 -1117  Q 2758 -1357 1926 -1357  Q 1126 -1357 777 -1145  Q 429 -934 429 -538  Q 429 -269 569 -121  Q 710 26 966 96  L 966 173  Q 826 243 749 352  Q 672 461 672 627  Q 672 883 841 1011  Q 1011 1139 1267 1203  L 1267 1229  Q 960 1363 790 1625  Q 621 1888 621 2240  Q 621 2490 710 2701  Q 800 2912 969 3062  Q 1139 3213 1376 3296  Q 1613 3379 1901 3379  Q 2272 3379 2554 3245  L 2554 3302  Q 2554 3494 2643 3622  Q 2733 3750 2950 3750  L 3558 3750  L 3558 3302  L 2816 3302  L 2816 3078  Q 2995 2925 3091 2713  Q 3187 2502 3187 2240  Q 3187 1990 3094 1779  Q 3002 1568 2835 1417  Q 2669 1267 2429 1184  Q 2189 1101 1901 1101  Q 1818 1101 1741 1107  Q 1664 1114 1587 1126  Q 1510 1114 1427 1085  Q 1344 1056 1273 1008  Q 1203 960 1158 896  Q 1114 832 1114 749  Q 1114 602 1261 554  Q 1408 506 1645 506  L 2374 506  Q 3014 506 3302 266  Q 3590 26 3590 -378  z M 3110 -403  Q 3110 -205 2950 -86  Q 2790 32 2394 32  L 1248 32  Q 915 -102 915 -416  Q 915 -634 1088 -790  Q 1261 -947 1664 -947  L 2163 -947  Q 2611 -947 2860 -809  Q 3110 -672 3110 -403  z M 1901 1498  Q 2285 1498 2467 1677  Q 2650 1856 2650 2150  L 2650 2336  Q 2650 2630 2467 2806  Q 2285 2982 1901 2982  Q 1517 2982 1337 2806  Q 1158 2630 1158 2336  L 1158 2150  Q 1158 1856 1337 1677  Q 1517 1498 1901 1498  z " transform="scale(0.015625)"/>
      <path id="IBMPlexMono-Regular-75" d="M 2701 538  L 2675 538  Q 2624 416 2547 304  Q 2470 192 2358 109  Q 2246 26 2092 -25  Q 1939 -77 1734 -77  Q 1216 -77 902 252  Q 589 582 589 1184  L 589 3302  L 1101 3302  L 1101 1274  Q 1101 819 1299 598  Q 1498 378 1882 378  Q 2035 378 2182 416  Q 2330 454 2445 531  Q 2560 608 2630 726  Q 2701 845 2701 1011  L 2701 3302  L 3213 3302  L 3213 0  L 2701 0  L 2701 538  z " transform="scale(0.015625)"/>
     </defs>
     <use ns4:href="#IBMPlexMono-Regular-61"/>
     <use ns4:href="#IBMPlexMono-Regular-6d" x="59.999985"/>
     <use ns4:href="#IBMPlexMono-Regular-69" x="119.999969"/>
     <use ns4:href="#IBMPlexMono-Regular-64" x="179.999954"/>
     <use ns4:href="#IBMPlexMono-Regular-65" x="239.999939"/>
     <use ns4:href="#IBMPlexMono-Regular-2f" x="299.999924"/>
     <use ns4:href="#IBMPlexMono-Regular-61" x="359.999908"/>
     <use ns4:href="#IBMPlexMono-Regular-72" x="419.999893"/>
     <use ns4:href="#IBMPlexMono-Regular-6f" x="479.999878"/>
     <use ns4:href="#IBMPlexMono-Regular-6d" x="539.999863"/>
     <use ns4:href="#IBMPlexMono-Regular-61" x="599.999847"/>
     <use ns4:href="#IBMPlexMono-Regular-74" x="659.999832"/>
     <use ns4:href="#IBMPlexMono-Regular-69" x="719.999817"/>
     <use ns4:href="#IBMPlexMono-Regular-63" x="779.999802"/>
     <use ns4:href="#IBMPlexMono-Regular-20" x="839.999786"/>
     <use ns4:href="#IBMPlexMono-Regular-67" x="899.999771"/>
     <use ns4:href="#IBMPlexMono-Regular-72" x="959.999756"/>
     <use ns4:href="#IBMPlexMono-Regular-6f" x="1019.999741"/>
     <use ns4:href="#IBMPlexMono-Regular-75" x="1079.999725"/>
     <use ns4:href="#IBMPlexMono-Regular-70" x="1139.99971"/>
    </g>
   </g>
   <g id="AnnotationBbox_2">
    <g id="patch_13">
     <path d="M 439.672 156.16  L 579.272 156.16  L 579.272 96.56  L 439.672 96.56  z " style="fill: #ffffff; stroke: #000000; stroke-width: 0.5; stroke-linejoin: miter"/>
    </g>
    <g id="sk1">
     <svg version="1.1" baseProfile="full" xml:space="preserve" width="130.0" height="50.000000000000014" viewBox="0 0 300 200" x="444.472" y="101.36">

<rect style="opacity:1.0;fill:#FFFFFF;stroke:none" width="300.0" height="200.0" x="0.0" y="0.0"> </rect>
<path class="bond-0 atom-0 atom-1" d="M 50.3,76.3 L 83.0,95.1" style="fill:none;fill-rule:evenodd;stroke:#CCCCCC;stroke-width:3.1px;stroke-linecap:butt;stroke-linejoin:miter;stroke-opacity:1"/>
<path class="bond-1 atom-1 atom-2" d="M 83.0,95.1 L 116.5,75.7" style="fill:none;fill-rule:evenodd;stroke:#000000;stroke-width:2.0px;stroke-linecap:butt;stroke-linejoin:miter;stroke-opacity:1"/>
<path class="bond-2 atom-2 atom-3" d="M 119.4,77.4 L 119.4,62.1" style="fill:none;fill-rule:evenodd;stroke:#000000;stroke-width:2.0px;stroke-linecap:butt;stroke-linejoin:miter;stroke-opacity:1"/>
<path class="bond-2 atom-2 atom-3" d="M 119.4,62.1 L 119.3,46.8" style="fill:none;fill-rule:evenodd;stroke:#FF0000;stroke-width:2.0px;stroke-linecap:butt;stroke-linejoin:miter;stroke-opacity:1"/>
<path class="bond-2 atom-2 atom-3" d="M 113.6,77.4 L 113.6,62.1" style="fill:none;fill-rule:evenodd;stroke:#000000;stroke-width:2.0px;stroke-linecap:butt;stroke-linejoin:miter;stroke-opacity:1"/>
<path class="bond-2 atom-2 atom-3" d="M 113.6,62.1 L 113.5,46.8" style="fill:none;fill-rule:evenodd;stroke:#FF0000;stroke-width:2.0px;stroke-linecap:butt;stroke-linejoin:miter;stroke-opacity:1"/>
<path class="bond-3 atom-2 atom-4" d="M 116.5,75.7 L 129.5,83.2" style="fill:none;fill-rule:evenodd;stroke:#000000;stroke-width:2.0px;stroke-linecap:butt;stroke-linejoin:miter;stroke-opacity:1"/>
<path class="bond-3 atom-2 atom-4" d="M 129.5,83.2 L 142.5,90.6" style="fill:none;fill-rule:evenodd;stroke:#0000FF;stroke-width:2.0px;stroke-linecap:butt;stroke-linejoin:miter;stroke-opacity:1"/>
<path class="bond-4 atom-4 atom-5" d="M 150.1,104.5 L 150.1,119.1" style="fill:none;fill-rule:evenodd;stroke:#0000FF;stroke-width:2.0px;stroke-linecap:butt;stroke-linejoin:miter;stroke-opacity:1"/>
<path class="bond-4 atom-4 atom-5" d="M 150.1,119.1 L 150.1,133.6" style="fill:none;fill-rule:evenodd;stroke:#000000;stroke-width:2.0px;stroke-linecap:butt;stroke-linejoin:miter;stroke-opacity:1"/>
<path class="bond-5 atom-5 atom-6" d="M 150.1,133.6 L 116.7,153.1" style="fill:none;fill-rule:evenodd;stroke:#000000;stroke-width:2.0px;stroke-linecap:butt;stroke-linejoin:miter;stroke-opacity:1"/>
<path class="bond-6 atom-6 atom-7" d="M 113.8,151.4 L 113.8,182.1" style="fill:none;fill-rule:evenodd;stroke:#CCCCCC;stroke-width:3.1px;stroke-linecap:butt;stroke-linejoin:miter;stroke-opacity:1"/>
<path class="bond-6 atom-6 atom-7" d="M 119.6,151.4 L 119.6,182.1" style="fill:none;fill-rule:evenodd;stroke:#CCCCCC;stroke-width:3.1px;stroke-linecap:butt;stroke-linejoin:miter;stroke-opacity:1;stroke-dasharray:6,0,6"/>
<path class="bond-7 atom-4 atom-8" d="M 157.5,90.6 L 170.5,83.1" style="fill:none;fill-rule:evenodd;stroke:#0000FF;stroke-width:2.0px;stroke-linecap:butt;stroke-linejoin:miter;stroke-opacity:1"/>
<path class="bond-7 atom-4 atom-8" d="M 170.5,83.1 L 183.5,75.5" style="fill:none;fill-rule:evenodd;stroke:#000000;stroke-width:2.0px;stroke-linecap:butt;stroke-linejoin:miter;stroke-opacity:1"/>
<path class="bond-8 atom-8 atom-9" d="M 183.5,75.5 L 183.4,36.9" style="fill:none;fill-rule:evenodd;stroke:#000000;stroke-width:2.0px;stroke-linecap:butt;stroke-linejoin:miter;stroke-opacity:1"/>
<path class="bond-9 atom-9 atom-10" d="M 183.4,36.9 L 216.1,17.9" style="fill:none;fill-rule:evenodd;stroke:#CCCCCC;stroke-width:3.1px;stroke-linecap:butt;stroke-linejoin:miter;stroke-opacity:1"/>
<path class="bond-10 atom-9 atom-11" d="M 183.4,36.9 L 150.7,18.0" style="fill:none;fill-rule:evenodd;stroke:#CCCCCC;stroke-width:3.1px;stroke-linecap:butt;stroke-linejoin:miter;stroke-opacity:1"/>
<path class="bond-11 atom-8 atom-12" d="M 183.5,75.5 L 217.0,94.8" style="fill:none;fill-rule:evenodd;stroke:#000000;stroke-width:2.0px;stroke-linecap:butt;stroke-linejoin:miter;stroke-opacity:1"/>
<path class="bond-12 atom-12 atom-13" d="M 217.0,94.8 L 217.1,123.9" style="fill:none;fill-rule:evenodd;stroke:#CCCCCC;stroke-width:3.1px;stroke-linecap:butt;stroke-linejoin:miter;stroke-opacity:1"/>
<path class="bond-13 atom-12 atom-14" d="M 217.1,98.2 L 251.2,78.4" style="fill:none;fill-rule:evenodd;stroke:#CCCCCC;stroke-width:3.1px;stroke-linecap:butt;stroke-linejoin:miter;stroke-opacity:1"/>
<path class="bond-13 atom-12 atom-14" d="M 214.1,93.2 L 248.3,73.3" style="fill:none;fill-rule:evenodd;stroke:#CCCCCC;stroke-width:3.1px;stroke-linecap:butt;stroke-linejoin:miter;stroke-opacity:1"/>
<path class="bond-14 atom-15 atom-6" d="M 85.3,131.7 L 119.6,151.4" style="fill:none;fill-rule:evenodd;stroke:#CCCCCC;stroke-width:3.1px;stroke-linecap:butt;stroke-linejoin:miter;stroke-opacity:1"/>
<path class="bond-14 atom-15 atom-6" d="M 82.4,136.7 L 116.7,156.4" style="fill:none;fill-rule:evenodd;stroke:#CCCCCC;stroke-width:3.1px;stroke-linecap:butt;stroke-linejoin:miter;stroke-opacity:1;stroke-dasharray:6,0,6"/>
<path d="M 82.2,94.6 L 83.0,95.1 L 83.9,94.6" style="fill:none;stroke:#CCCCCC;stroke-width:3.1px;stroke-linecap:butt;stroke-linejoin:miter;stroke-opacity:1;"/>
<path d="M 114.8,76.7 L 116.5,75.7 L 117.1,76.1" style="fill:none;stroke:#000000;stroke-width:2.0px;stroke-linecap:butt;stroke-linejoin:miter;stroke-opacity:1;"/>
<path d="M 150.1,132.9 L 150.1,133.6 L 148.4,134.6" style="fill:none;stroke:#000000;stroke-width:2.0px;stroke-linecap:butt;stroke-linejoin:miter;stroke-opacity:1;"/>
<path d="M 216.2,94.3 L 217.0,94.8 L 217.1,95.6" style="fill:none;stroke:#000000;stroke-width:2.0px;stroke-linecap:butt;stroke-linejoin:miter;stroke-opacity:1;"/>
<path class="atom-0" d="M 46.4 74.0 L 48.8 71.5 L 45.6 70.9 L 46.1 69.2 L 49.0 70.7 L 48.6 67.5 L 50.4 67.5 L 49.9 70.7 L 52.9 69.3 L 53.4 70.9 L 50.1 71.5 L 52.4 74.0 L 51.0 75.0 L 49.4 71.9 L 47.8 75.0 L 46.4 74.0 " fill="#191919"/>
<path class="atom-3" d="M 108.9 37.0 Q 108.9 33.1, 110.8 30.9 Q 112.8 28.7, 116.4 28.7 Q 120.1 28.7, 122.0 30.9 Q 124.0 33.1, 124.0 37.0 Q 124.0 41.0, 122.0 43.3 Q 120.0 45.6, 116.4 45.6 Q 112.8 45.6, 110.8 43.3 Q 108.9 41.1, 108.9 37.0 M 116.4 43.7 Q 118.9 43.7, 120.3 42.0 Q 121.6 40.3, 121.6 37.0 Q 121.6 33.8, 120.3 32.2 Q 118.9 30.5, 116.4 30.5 Q 113.9 30.5, 112.5 32.2 Q 111.2 33.8, 111.2 37.0 Q 111.2 40.4, 112.5 42.0 Q 113.9 43.7, 116.4 43.7 " fill="#FF0000"/>
<path class="atom-4" d="M 146.4 86.7 L 151.8 95.4 Q 152.3 96.3, 153.2 97.9 Q 154.0 99.4, 154.1 99.5 L 154.1 86.7 L 156.3 86.7 L 156.3 103.2 L 154.0 103.2 L 148.2 93.7 Q 147.6 92.5, 146.8 91.3 Q 146.2 90.0, 145.9 89.6 L 145.9 103.2 L 143.8 103.2 L 143.8 86.7 L 146.4 86.7 " fill="#0000FF"/>
<path class="atom-7" d="M 113.6 189.9 L 116.0 187.5 L 112.8 186.8 L 113.3 185.2 L 116.3 186.6 L 115.9 183.4 L 117.6 183.4 L 117.1 186.6 L 120.1 185.2 L 120.6 186.8 L 117.4 187.4 L 119.7 189.9 L 118.3 190.9 L 116.7 187.8 L 115.0 190.9 L 113.6 189.9 " fill="#191919"/>
<path class="atom-10" d="M 213.8 15.6 L 216.2 13.2 L 213.0 12.5 L 213.5 10.9 L 216.4 12.3 L 216.0 9.1 L 217.8 9.1 L 217.3 12.3 L 220.3 10.9 L 220.8 12.5 L 217.5 13.1 L 219.9 15.6 L 218.4 16.6 L 216.8 13.5 L 215.2 16.6 L 213.8 15.6 " fill="#191919"/>
<path class="atom-11" d="M 146.8 15.7 L 149.2 13.3 L 146.0 12.6 L 146.5 11.0 L 149.4 12.5 L 149.0 9.2 L 150.8 9.2 L 150.3 12.4 L 153.3 11.1 L 153.8 12.6 L 150.5 13.2 L 152.8 15.7 L 151.4 16.7 L 149.8 13.7 L 148.2 16.7 L 146.8 15.7 " fill="#191919"/>
<path class="atom-13" d="M 214.0 131.7 L 216.4 129.2 L 213.2 128.6 L 213.7 126.9 L 216.7 128.4 L 216.3 125.2 L 218.0 125.2 L 217.5 128.4 L 220.5 127.0 L 221.0 128.6 L 217.8 129.2 L 220.1 131.7 L 218.7 132.7 L 217.1 129.6 L 215.4 132.7 L 214.0 131.7 " fill="#191919"/>
<path class="atom-14" d="M 247.4 73.6 L 249.8 71.1 L 246.6 70.5 L 247.1 68.8 L 250.1 70.3 L 249.6 67.1 L 251.4 67.1 L 250.9 70.3 L 253.9 68.9 L 254.4 70.5 L 251.2 71.1 L 253.5 73.6 L 252.1 74.6 L 250.5 71.5 L 248.8 74.6 L 247.4 73.6 " fill="#191919"/>
<path class="atom-15" d="M 80.0 131.9 L 82.4 129.5 L 79.2 128.8 L 79.7 127.2 L 82.7 128.7 L 82.2 125.4 L 84.0 125.4 L 83.5 128.6 L 86.5 127.3 L 87.0 128.8 L 83.7 129.4 L 86.1 131.9 L 84.6 132.9 L 83.0 129.9 L 81.4 132.9 L 80.0 131.9 " fill="#191919"/>
</svg></g>
   </g>
   <g id="text_11">
    
    <g transform="translate(301.291242 165.359813) scale(0.12 -0.12)">
     <use ns4:href="#IBMPlexMono-Regular-74"/>
     <use ns4:href="#IBMPlexMono-Regular-65" x="59.999985"/>
     <use ns4:href="#IBMPlexMono-Regular-72" x="119.999969"/>
     <use ns4:href="#IBMPlexMono-Regular-74" x="179.999954"/>
     <use ns4:href="#IBMPlexMono-Regular-69" x="239.999939"/>
     <use ns4:href="#IBMPlexMono-Regular-61" x="299.999924"/>
     <use ns4:href="#IBMPlexMono-Regular-72" x="359.999908"/>
     <use ns4:href="#IBMPlexMono-Regular-79" x="419.999893"/>
     <use ns4:href="#IBMPlexMono-Regular-20" x="479.999878"/>
     <use ns4:href="#IBMPlexMono-Regular-61" x="539.999863"/>
     <use ns4:href="#IBMPlexMono-Regular-6d" x="599.999847"/>
     <use ns4:href="#IBMPlexMono-Regular-69" x="659.999832"/>
     <use ns4:href="#IBMPlexMono-Regular-64" x="719.999817"/>
     <use ns4:href="#IBMPlexMono-Regular-65" x="779.999802"/>
     <use ns4:href="#IBMPlexMono-Regular-2f" x="839.999786"/>
     <use ns4:href="#IBMPlexMono-Regular-69" x="899.999771"/>
     <use ns4:href="#IBMPlexMono-Regular-73" x="959.999756"/>
     <use ns4:href="#IBMPlexMono-Regular-6f" x="1019.999741"/>
     <use ns4:href="#IBMPlexMono-Regular-2d" x="1079.999725"/>
    </g>
    
    <g transform="translate(301.291242 178.703813) scale(0.12 -0.12)">
     <defs>
      <path id="IBMPlexMono-Regular-62" d="M 608 4736  L 1120 4736  L 1120 2765  L 1146 2765  Q 1466 3379 2163 3379  Q 2771 3379 3113 2924  Q 3456 2470 3456 1651  Q 3456 832 3113 377  Q 2771 -77 2163 -77  Q 1466 -77 1146 538  L 1120 538  L 1120 0  L 608 0  L 608 4736  z M 1965 378  Q 2413 378 2659 650  Q 2906 922 2906 1370  L 2906 1933  Q 2906 2381 2659 2653  Q 2413 2925 1965 2925  Q 1792 2925 1638 2880  Q 1485 2835 1369 2748  Q 1254 2662 1187 2537  Q 1120 2413 1120 2246  L 1120 1056  Q 1120 890 1187 765  Q 1254 640 1369 553  Q 1485 467 1638 422  Q 1792 378 1965 378  z " transform="scale(0.015625)"/>
      <path id="IBMPlexMono-Regular-78" d="M 390 0  L 1619 1677  L 422 3302  L 1037 3302  L 1536 2605  L 1933 2054  L 1958 2054  L 2342 2605  L 2835 3302  L 3424 3302  L 2214 1683  L 3456 0  L 2842 0  L 2285 774  L 1907 1299  L 1882 1299  L 1517 774  L 979 0  L 390 0  z " transform="scale(0.015625)"/>
     </defs>
     <use ns4:href="#IBMPlexMono-Regular-70"/>
     <use ns4:href="#IBMPlexMono-Regular-72" x="59.999985"/>
     <use ns4:href="#IBMPlexMono-Regular-6f" x="119.999969"/>
     <use ns4:href="#IBMPlexMono-Regular-70" x="179.999954"/>
     <use ns4:href="#IBMPlexMono-Regular-79" x="239.999939"/>
     <use ns4:href="#IBMPlexMono-Regular-6c" x="299.999924"/>
     <use ns4:href="#IBMPlexMono-Regular-2f" x="359.999908"/>
     <use ns4:href="#IBMPlexMono-Regular-63" x="419.999893"/>
     <use ns4:href="#IBMPlexMono-Regular-61" x="479.999878"/>
     <use ns4:href="#IBMPlexMono-Regular-72" x="539.999863"/>
     <use ns4:href="#IBMPlexMono-Regular-62" x="599.999847"/>
     <use ns4:href="#IBMPlexMono-Regular-6f" x="659.999832"/>
     <use ns4:href="#IBMPlexMono-Regular-78" x="719.999817"/>
     <use ns4:href="#IBMPlexMono-Regular-79" x="779.999802"/>
     <use ns4:href="#IBMPlexMono-Regular-6c" x="839.999786"/>
     <use ns4:href="#IBMPlexMono-Regular-69" x="899.999771"/>
     <use ns4:href="#IBMPlexMono-Regular-63" x="959.999756"/>
    </g>
    
    <g transform="translate(301.291242 191.759813) scale(0.12 -0.12)">
     <defs>
      <path id="IBMPlexMono-Regular-6b" d="M 672 4736  L 1184 4736  L 1184 1747  L 1210 1747  L 1786 2291  L 2886 3302  L 3514 3302  L 2144 2010  L 3674 0  L 3040 0  L 1754 1715  L 1184 1197  L 1184 0  L 672 0  L 672 4736  z " transform="scale(0.015625)"/>
      <path id="IBMPlexMono-Regular-6e" d="M 627 0  L 627 3302  L 1139 3302  L 1139 2765  L 1165 2765  Q 1216 2886 1293 2998  Q 1370 3110 1482 3193  Q 1594 3277 1747 3328  Q 1901 3379 2106 3379  Q 2624 3379 2937 3049  Q 3251 2720 3251 2118  L 3251 0  L 2739 0  L 2739 2029  Q 2739 2483 2540 2704  Q 2342 2925 1958 2925  Q 1805 2925 1657 2886  Q 1510 2848 1395 2771  Q 1280 2694 1209 2572  Q 1139 2451 1139 2291  L 1139 0  L 627 0  z " transform="scale(0.015625)"/>
     </defs>
     <use ns4:href="#IBMPlexMono-Regular-61"/>
     <use ns4:href="#IBMPlexMono-Regular-63" x="59.999985"/>
     <use ns4:href="#IBMPlexMono-Regular-69" x="119.999969"/>
     <use ns4:href="#IBMPlexMono-Regular-64" x="179.999954"/>
     <use ns4:href="#IBMPlexMono-Regular-2f" x="239.999939"/>
     <use ns4:href="#IBMPlexMono-Regular-61" x="299.999924"/>
     <use ns4:href="#IBMPlexMono-Regular-72" x="359.999908"/>
     <use ns4:href="#IBMPlexMono-Regular-6f" x="419.999893"/>
     <use ns4:href="#IBMPlexMono-Regular-6d" x="479.999878"/>
     <use ns4:href="#IBMPlexMono-Regular-61" x="539.999863"/>
     <use ns4:href="#IBMPlexMono-Regular-74" x="599.999847"/>
     <use ns4:href="#IBMPlexMono-Regular-69" x="659.999832"/>
     <use ns4:href="#IBMPlexMono-Regular-63" x="719.999817"/>
     <use ns4:href="#IBMPlexMono-Regular-2f" x="779.999802"/>
     <use ns4:href="#IBMPlexMono-Regular-61" x="839.999786"/>
     <use ns4:href="#IBMPlexMono-Regular-6c" x="899.999771"/>
     <use ns4:href="#IBMPlexMono-Regular-6b" x="959.999756"/>
     <use ns4:href="#IBMPlexMono-Regular-61" x="1019.999741"/>
     <use ns4:href="#IBMPlexMono-Regular-6e" x="1079.999725"/>
     <use ns4:href="#IBMPlexMono-Regular-65" x="1139.99971"/>
    </g>
    
    <g transform="translate(301.291242 204.815812) scale(0.12 -0.12)">
     <use ns4:href="#IBMPlexMono-Regular-67"/>
     <use ns4:href="#IBMPlexMono-Regular-72" x="59.999985"/>
     <use ns4:href="#IBMPlexMono-Regular-6f" x="119.999969"/>
     <use ns4:href="#IBMPlexMono-Regular-75" x="179.999954"/>
     <use ns4:href="#IBMPlexMono-Regular-70" x="239.999939"/>
    </g>
   </g>
   <g id="AnnotationBbox_3">
    <g id="patch_14">
     <path d="M 439.672 211.6  L 579.272 211.6  L 579.272 152  L 439.672 152  z " style="fill: #ffffff; stroke: #000000; stroke-width: 0.5; stroke-linejoin: miter"/>
    </g>
    <g id="sk2">
     <svg version="1.1" baseProfile="full" xml:space="preserve" width="130.0" height="50.0" viewBox="0 0 300 200" x="444.472" y="156.8">

<rect style="opacity:1.0;fill:#FFFFFF;stroke:none" width="300.0" height="200.0" x="0.0" y="0.0"> </rect>
<path class="bond-0 atom-0 atom-1" d="M 41.4,80.4 L 68.4,64.7" style="fill:none;fill-rule:evenodd;stroke:#CCCCCC;stroke-width:3.0px;stroke-linecap:butt;stroke-linejoin:miter;stroke-opacity:1"/>
<path class="bond-1 atom-1 atom-2" d="M 68.4,64.7 L 100.4,83.1" style="fill:none;fill-rule:evenodd;stroke:#000000;stroke-width:2.0px;stroke-linecap:butt;stroke-linejoin:miter;stroke-opacity:1"/>
<path class="bond-2 atom-2 atom-3" d="M 100.4,83.1 L 132.3,64.6" style="fill:none;fill-rule:evenodd;stroke:#000000;stroke-width:2.0px;stroke-linecap:butt;stroke-linejoin:miter;stroke-opacity:1"/>
<path class="bond-3 atom-3 atom-4" d="M 135.0,66.2 L 135.0,51.7" style="fill:none;fill-rule:evenodd;stroke:#000000;stroke-width:2.0px;stroke-linecap:butt;stroke-linejoin:miter;stroke-opacity:1"/>
<path class="bond-3 atom-3 atom-4" d="M 135.0,51.7 L 135.0,37.1" style="fill:none;fill-rule:evenodd;stroke:#FF0000;stroke-width:2.0px;stroke-linecap:butt;stroke-linejoin:miter;stroke-opacity:1"/>
<path class="bond-3 atom-3 atom-4" d="M 129.5,66.2 L 129.5,51.7" style="fill:none;fill-rule:evenodd;stroke:#000000;stroke-width:2.0px;stroke-linecap:butt;stroke-linejoin:miter;stroke-opacity:1"/>
<path class="bond-3 atom-3 atom-4" d="M 129.5,51.7 L 129.4,37.1" style="fill:none;fill-rule:evenodd;stroke:#FF0000;stroke-width:2.0px;stroke-linecap:butt;stroke-linejoin:miter;stroke-opacity:1"/>
<path class="bond-4 atom-3 atom-5" d="M 132.3,64.6 L 144.7,71.7" style="fill:none;fill-rule:evenodd;stroke:#000000;stroke-width:2.0px;stroke-linecap:butt;stroke-linejoin:miter;stroke-opacity:1"/>
<path class="bond-4 atom-3 atom-5" d="M 144.7,71.7 L 157.1,78.9" style="fill:none;fill-rule:evenodd;stroke:#0000FF;stroke-width:2.0px;stroke-linecap:butt;stroke-linejoin:miter;stroke-opacity:1"/>
<path class="bond-5 atom-5 atom-6" d="M 164.3,92.0 L 164.3,106.0" style="fill:none;fill-rule:evenodd;stroke:#0000FF;stroke-width:2.0px;stroke-linecap:butt;stroke-linejoin:miter;stroke-opacity:1"/>
<path class="bond-5 atom-5 atom-6" d="M 164.3,106.0 L 164.3,119.9" style="fill:none;fill-rule:evenodd;stroke:#000000;stroke-width:2.0px;stroke-linecap:butt;stroke-linejoin:miter;stroke-opacity:1"/>
<path class="bond-6 atom-6 atom-7" d="M 164.3,119.9 L 132.4,138.4" style="fill:none;fill-rule:evenodd;stroke:#000000;stroke-width:2.0px;stroke-linecap:butt;stroke-linejoin:miter;stroke-opacity:1"/>
<path class="bond-7 atom-7 atom-8" d="M 132.4,138.4 L 132.5,175.3" style="fill:none;fill-rule:evenodd;stroke:#000000;stroke-width:2.0px;stroke-linecap:butt;stroke-linejoin:miter;stroke-opacity:1"/>
<path class="bond-7 atom-7 atom-8" d="M 126.9,141.6 L 127.0,172.1" style="fill:none;fill-rule:evenodd;stroke:#000000;stroke-width:2.0px;stroke-linecap:butt;stroke-linejoin:miter;stroke-opacity:1;stroke-dasharray:6,0,6"/>
<path class="bond-8 atom-8 atom-9" d="M 132.5,175.3 L 105.5,190.9" style="fill:none;fill-rule:evenodd;stroke:#CCCCCC;stroke-width:3.0px;stroke-linecap:butt;stroke-linejoin:miter;stroke-opacity:1"/>
<path class="bond-8 atom-8 atom-9" d="M 127.0,172.1 L 102.7,186.1" style="fill:none;fill-rule:evenodd;stroke:#CCCCCC;stroke-width:3.0px;stroke-linecap:butt;stroke-linejoin:miter;stroke-opacity:1;stroke-dasharray:6,0,6"/>
<path class="bond-9 atom-10 atom-11" d="M 73.5,135.6 L 100.4,120.0" style="fill:none;fill-rule:evenodd;stroke:#CCCCCC;stroke-width:3.0px;stroke-linecap:butt;stroke-linejoin:miter;stroke-opacity:1"/>
<path class="bond-9 atom-10 atom-11" d="M 76.2,140.4 L 100.4,126.4" style="fill:none;fill-rule:evenodd;stroke:#CCCCCC;stroke-width:3.0px;stroke-linecap:butt;stroke-linejoin:miter;stroke-opacity:1;stroke-dasharray:6,0,6"/>
<path class="bond-10 atom-5 atom-12" d="M 171.4,78.8 L 183.8,71.7" style="fill:none;fill-rule:evenodd;stroke:#0000FF;stroke-width:2.0px;stroke-linecap:butt;stroke-linejoin:miter;stroke-opacity:1"/>
<path class="bond-10 atom-5 atom-12" d="M 183.8,71.7 L 196.2,64.5" style="fill:none;fill-rule:evenodd;stroke:#000000;stroke-width:2.0px;stroke-linecap:butt;stroke-linejoin:miter;stroke-opacity:1"/>
<path class="bond-11 atom-12 atom-13" d="M 196.2,64.5 L 196.1,27.6" style="fill:none;fill-rule:evenodd;stroke:#000000;stroke-width:2.0px;stroke-linecap:butt;stroke-linejoin:miter;stroke-opacity:1"/>
<path class="bond-12 atom-13 atom-14" d="M 196.1,27.6 L 228.0,9.1" style="fill:none;fill-rule:evenodd;stroke:#000000;stroke-width:2.0px;stroke-linecap:butt;stroke-linejoin:miter;stroke-opacity:1"/>
<path class="bond-13 atom-13 atom-15" d="M 196.1,27.6 L 164.1,9.2" style="fill:none;fill-rule:evenodd;stroke:#000000;stroke-width:2.0px;stroke-linecap:butt;stroke-linejoin:miter;stroke-opacity:1"/>
<path class="bond-14 atom-12 atom-16" d="M 196.2,64.5 L 228.1,82.9" style="fill:none;fill-rule:evenodd;stroke:#000000;stroke-width:2.0px;stroke-linecap:butt;stroke-linejoin:miter;stroke-opacity:1"/>
<path class="bond-15 atom-16 atom-17" d="M 228.1,82.9 L 228.2,96.7" style="fill:none;fill-rule:evenodd;stroke:#000000;stroke-width:2.0px;stroke-linecap:butt;stroke-linejoin:miter;stroke-opacity:1"/>
<path class="bond-15 atom-16 atom-17" d="M 228.2,96.7 L 228.2,110.6" style="fill:none;fill-rule:evenodd;stroke:#FF0000;stroke-width:2.0px;stroke-linecap:butt;stroke-linejoin:miter;stroke-opacity:1"/>
<path class="bond-16 atom-16 atom-18" d="M 228.1,86.1 L 240.6,78.8" style="fill:none;fill-rule:evenodd;stroke:#000000;stroke-width:2.0px;stroke-linecap:butt;stroke-linejoin:miter;stroke-opacity:1"/>
<path class="bond-16 atom-16 atom-18" d="M 240.6,78.8 L 253.0,71.6" style="fill:none;fill-rule:evenodd;stroke:#FF0000;stroke-width:2.0px;stroke-linecap:butt;stroke-linejoin:miter;stroke-opacity:1"/>
<path class="bond-16 atom-16 atom-18" d="M 225.4,81.3 L 237.8,74.1" style="fill:none;fill-rule:evenodd;stroke:#000000;stroke-width:2.0px;stroke-linecap:butt;stroke-linejoin:miter;stroke-opacity:1"/>
<path class="bond-16 atom-16 atom-18" d="M 237.8,74.1 L 250.2,66.8" style="fill:none;fill-rule:evenodd;stroke:#FF0000;stroke-width:2.0px;stroke-linecap:butt;stroke-linejoin:miter;stroke-opacity:1"/>
<path class="bond-17 atom-11 atom-7" d="M 100.4,120.0 L 132.4,138.4" style="fill:none;fill-rule:evenodd;stroke:#000000;stroke-width:2.0px;stroke-linecap:butt;stroke-linejoin:miter;stroke-opacity:1"/>
<path class="bond-17 atom-11 atom-7" d="M 100.4,126.4 L 126.9,141.6" style="fill:none;fill-rule:evenodd;stroke:#000000;stroke-width:2.0px;stroke-linecap:butt;stroke-linejoin:miter;stroke-opacity:1;stroke-dasharray:6,0,6"/>
<path d="M 67.7,65.1 L 68.4,64.7 L 69.2,65.2" style="fill:none;stroke:#CCCCCC;stroke-width:3.0px;stroke-linecap:butt;stroke-linejoin:miter;stroke-opacity:1;"/>
<path d="M 98.8,82.2 L 100.4,83.1 L 102.0,82.2" style="fill:none;stroke:#000000;stroke-width:2.0px;stroke-linecap:butt;stroke-linejoin:miter;stroke-opacity:1;"/>
<path d="M 130.7,65.5 L 132.3,64.6 L 132.9,65.0" style="fill:none;stroke:#000000;stroke-width:2.0px;stroke-linecap:butt;stroke-linejoin:miter;stroke-opacity:1;"/>
<path d="M 164.3,119.2 L 164.3,119.9 L 162.7,120.8" style="fill:none;stroke:#000000;stroke-width:2.0px;stroke-linecap:butt;stroke-linejoin:miter;stroke-opacity:1;"/>
<path d="M 132.5,174.3 L 132.5,175.3 L 131.8,175.6" style="fill:none;stroke:#000000;stroke-width:2.0px;stroke-linecap:butt;stroke-linejoin:miter;stroke-opacity:1;"/>
<path d="M 99.8,120.4 L 100.4,120.0 L 101.2,120.5" style="fill:none;stroke:#CCCCCC;stroke-width:3.0px;stroke-linecap:butt;stroke-linejoin:miter;stroke-opacity:1;"/>
<path d="M 226.5,81.9 L 228.1,82.9 L 228.1,83.6" style="fill:none;stroke:#000000;stroke-width:2.0px;stroke-linecap:butt;stroke-linejoin:miter;stroke-opacity:1;"/>
<path class="atom-0" d="M 33.5 81.5 L 35.8 79.1 L 32.8 78.5 L 33.2 77.0 L 36.0 78.4 L 35.6 75.3 L 37.3 75.3 L 36.8 78.4 L 39.7 77.0 L 40.2 78.5 L 37.1 79.1 L 39.3 81.5 L 37.9 82.4 L 36.4 79.5 L 34.9 82.4 L 33.5 81.5 " fill="#191919"/>
<path class="atom-4" d="M 125.0 27.8 Q 125.0 24.0, 126.9 21.9 Q 128.7 19.8, 132.2 19.8 Q 135.7 19.8, 137.5 21.9 Q 139.4 24.0, 139.4 27.8 Q 139.4 31.6, 137.5 33.7 Q 135.6 35.9, 132.2 35.9 Q 128.7 35.9, 126.9 33.7 Q 125.0 31.6, 125.0 27.8 M 132.2 34.1 Q 134.6 34.1, 135.9 32.5 Q 137.2 30.9, 137.2 27.8 Q 137.2 24.7, 135.9 23.1 Q 134.6 21.6, 132.2 21.6 Q 129.8 21.6, 128.5 23.1 Q 127.2 24.7, 127.2 27.8 Q 127.2 30.9, 128.5 32.5 Q 129.8 34.1, 132.2 34.1 " fill="#FF0000"/>
<path class="atom-5" d="M 160.8 75.2 L 165.9 83.5 Q 166.4 84.3, 167.2 85.8 Q 168.1 87.2, 168.1 87.3 L 168.1 75.2 L 170.2 75.2 L 170.2 90.8 L 168.0 90.8 L 162.5 81.7 Q 161.9 80.7, 161.2 79.5 Q 160.5 78.2, 160.3 77.9 L 160.3 90.8 L 158.3 90.8 L 158.3 75.2 L 160.8 75.2 " fill="#0000FF"/>
<path class="atom-9" d="M 96.2 189.6 L 98.5 187.3 L 95.5 186.7 L 96.0 185.1 L 98.8 186.5 L 98.4 183.4 L 100.0 183.4 L 99.6 186.5 L 102.4 185.2 L 102.9 186.7 L 99.8 187.2 L 102.0 189.6 L 100.7 190.6 L 99.1 187.7 L 97.6 190.6 L 96.2 189.6 " fill="#191919"/>
<path class="atom-10" d="M 67.0 139.1 L 69.3 136.8 L 66.2 136.2 L 66.7 134.6 L 69.5 136.0 L 69.1 133.0 L 70.7 132.9 L 70.3 136.0 L 73.1 134.7 L 73.6 136.2 L 70.5 136.8 L 72.7 139.1 L 71.4 140.1 L 69.9 137.2 L 68.3 140.1 L 67.0 139.1 " fill="#191919"/>
<path class="atom-17" d="M 221.0 119.8 Q 221.0 116.0, 222.9 113.9 Q 224.7 111.8, 228.2 111.8 Q 231.7 111.8, 233.5 113.9 Q 235.4 116.0, 235.4 119.8 Q 235.4 123.6, 233.5 125.8 Q 231.6 127.9, 228.2 127.9 Q 224.8 127.9, 222.9 125.8 Q 221.0 123.6, 221.0 119.8 M 228.2 126.1 Q 230.6 126.1, 231.9 124.5 Q 233.2 122.9, 233.2 119.8 Q 233.2 116.7, 231.9 115.2 Q 230.6 113.6, 228.2 113.6 Q 225.8 113.6, 224.5 115.1 Q 223.2 116.7, 223.2 119.8 Q 223.2 123.0, 224.5 124.5 Q 225.8 126.1, 228.2 126.1 " fill="#FF0000"/>
<path class="atom-17" d="M 237.8 112.0 L 240.0 112.0 L 240.0 118.7 L 248.0 118.7 L 248.0 112.0 L 250.1 112.0 L 250.1 127.7 L 248.0 127.7 L 248.0 120.4 L 240.0 120.4 L 240.0 127.7 L 237.8 127.7 L 237.8 112.0 " fill="#FF0000"/>
<path class="atom-18" d="M 252.8 64.4 Q 252.8 60.6, 254.7 58.5 Q 256.6 56.4, 260.0 56.4 Q 263.5 56.4, 265.4 58.5 Q 267.2 60.6, 267.2 64.4 Q 267.2 68.2, 265.3 70.4 Q 263.5 72.5, 260.0 72.5 Q 256.6 72.5, 254.7 70.4 Q 252.8 68.2, 252.8 64.4 M 260.0 70.7 Q 262.4 70.7, 263.7 69.2 Q 265.0 67.5, 265.0 64.4 Q 265.0 61.3, 263.7 59.8 Q 262.4 58.2, 260.0 58.2 Q 257.6 58.2, 256.3 59.7 Q 255.1 61.3, 255.1 64.4 Q 255.1 67.6, 256.3 69.2 Q 257.6 70.7, 260.0 70.7 " fill="#FF0000"/>
</svg></g>
   </g>
   <g id="text_12">
    
    <g transform="translate(152.308758 224.796444) scale(0.12 -0.12)">
     <use ns4:href="#IBMPlexMono-Regular-74"/>
     <use ns4:href="#IBMPlexMono-Regular-65" x="59.999985"/>
     <use ns4:href="#IBMPlexMono-Regular-72" x="119.999969"/>
     <use ns4:href="#IBMPlexMono-Regular-74" x="179.999954"/>
     <use ns4:href="#IBMPlexMono-Regular-69" x="239.999939"/>
     <use ns4:href="#IBMPlexMono-Regular-61" x="299.999924"/>
     <use ns4:href="#IBMPlexMono-Regular-72" x="359.999908"/>
     <use ns4:href="#IBMPlexMono-Regular-79" x="419.999893"/>
     <use ns4:href="#IBMPlexMono-Regular-20" x="479.999878"/>
     <use ns4:href="#IBMPlexMono-Regular-61" x="539.999863"/>
     <use ns4:href="#IBMPlexMono-Regular-6d" x="599.999847"/>
     <use ns4:href="#IBMPlexMono-Regular-69" x="659.999832"/>
     <use ns4:href="#IBMPlexMono-Regular-64" x="719.999817"/>
     <use ns4:href="#IBMPlexMono-Regular-65" x="779.999802"/>
     <use ns4:href="#IBMPlexMono-Regular-2f" x="839.999786"/>
     <use ns4:href="#IBMPlexMono-Regular-69" x="899.999771"/>
     <use ns4:href="#IBMPlexMono-Regular-73" x="959.999756"/>
     <use ns4:href="#IBMPlexMono-Regular-6f" x="1019.999741"/>
     <use ns4:href="#IBMPlexMono-Regular-2d" x="1079.999725"/>
    </g>
    
    <g transform="translate(166.708758 238.140444) scale(0.12 -0.12)">
     <use ns4:href="#IBMPlexMono-Regular-70"/>
     <use ns4:href="#IBMPlexMono-Regular-72" x="59.999985"/>
     <use ns4:href="#IBMPlexMono-Regular-6f" x="119.999969"/>
     <use ns4:href="#IBMPlexMono-Regular-70" x="179.999954"/>
     <use ns4:href="#IBMPlexMono-Regular-79" x="239.999939"/>
     <use ns4:href="#IBMPlexMono-Regular-6c" x="299.999924"/>
     <use ns4:href="#IBMPlexMono-Regular-2f" x="359.999908"/>
     <use ns4:href="#IBMPlexMono-Regular-63" x="419.999893"/>
     <use ns4:href="#IBMPlexMono-Regular-61" x="479.999878"/>
     <use ns4:href="#IBMPlexMono-Regular-72" x="539.999863"/>
     <use ns4:href="#IBMPlexMono-Regular-62" x="599.999847"/>
     <use ns4:href="#IBMPlexMono-Regular-6f" x="659.999832"/>
     <use ns4:href="#IBMPlexMono-Regular-78" x="719.999817"/>
     <use ns4:href="#IBMPlexMono-Regular-79" x="779.999802"/>
     <use ns4:href="#IBMPlexMono-Regular-6c" x="839.999786"/>
     <use ns4:href="#IBMPlexMono-Regular-69" x="899.999771"/>
     <use ns4:href="#IBMPlexMono-Regular-63" x="959.999756"/>
    </g>
    
    <g transform="translate(152.308758 251.484444) scale(0.12 -0.12)">
     <use ns4:href="#IBMPlexMono-Regular-61"/>
     <use ns4:href="#IBMPlexMono-Regular-63" x="59.999985"/>
     <use ns4:href="#IBMPlexMono-Regular-69" x="119.999969"/>
     <use ns4:href="#IBMPlexMono-Regular-64" x="179.999954"/>
     <use ns4:href="#IBMPlexMono-Regular-2f" x="239.999939"/>
     <use ns4:href="#IBMPlexMono-Regular-61" x="299.999924"/>
     <use ns4:href="#IBMPlexMono-Regular-72" x="359.999908"/>
     <use ns4:href="#IBMPlexMono-Regular-6f" x="419.999893"/>
     <use ns4:href="#IBMPlexMono-Regular-6d" x="479.999878"/>
     <use ns4:href="#IBMPlexMono-Regular-61" x="539.999863"/>
     <use ns4:href="#IBMPlexMono-Regular-74" x="599.999847"/>
     <use ns4:href="#IBMPlexMono-Regular-69" x="659.999832"/>
     <use ns4:href="#IBMPlexMono-Regular-63" x="719.999817"/>
     <use ns4:href="#IBMPlexMono-Regular-20" x="779.999802"/>
     <use ns4:href="#IBMPlexMono-Regular-67" x="839.999786"/>
     <use ns4:href="#IBMPlexMono-Regular-72" x="899.999771"/>
     <use ns4:href="#IBMPlexMono-Regular-6f" x="959.999756"/>
     <use ns4:href="#IBMPlexMono-Regular-75" x="1019.999741"/>
     <use ns4:href="#IBMPlexMono-Regular-70" x="1079.999725"/>
    </g>
   </g>
   <g id="AnnotationBbox_4">
    <g id="patch_15">
     <path d="M 11.128 267.04  L 150.728 267.04  L 150.728 207.44  L 11.128 207.44  z " style="fill: #ffffff; stroke: #000000; stroke-width: 0.5; stroke-linejoin: miter"/>
    </g>
    <g id="sk3">
     <svg version="1.1" baseProfile="full" xml:space="preserve" width="130.0" height="50.0" viewBox="0 0 300 200" x="15.928" y="212.24">

<rect style="opacity:1.0;fill:#FFFFFF;stroke:none" width="300.0" height="200.0" x="0.0" y="0.0"> </rect>
<path class="bond-0 atom-0 atom-1" d="M 43.5,70.7 L 77.9,90.5" style="fill:none;fill-rule:evenodd;stroke:#CCCCCC;stroke-width:3.2px;stroke-linecap:butt;stroke-linejoin:miter;stroke-opacity:1"/>
<path class="bond-1 atom-1 atom-2" d="M 77.9,90.5 L 113.0,70.1" style="fill:none;fill-rule:evenodd;stroke:#000000;stroke-width:2.0px;stroke-linecap:butt;stroke-linejoin:miter;stroke-opacity:1"/>
<path class="bond-2 atom-2 atom-3" d="M 116.0,71.9 L 116.0,55.9" style="fill:none;fill-rule:evenodd;stroke:#000000;stroke-width:2.0px;stroke-linecap:butt;stroke-linejoin:miter;stroke-opacity:1"/>
<path class="bond-2 atom-2 atom-3" d="M 116.0,55.9 L 115.9,39.9" style="fill:none;fill-rule:evenodd;stroke:#FF0000;stroke-width:2.0px;stroke-linecap:butt;stroke-linejoin:miter;stroke-opacity:1"/>
<path class="bond-2 atom-2 atom-3" d="M 109.9,71.9 L 109.9,55.9" style="fill:none;fill-rule:evenodd;stroke:#000000;stroke-width:2.0px;stroke-linecap:butt;stroke-linejoin:miter;stroke-opacity:1"/>
<path class="bond-2 atom-2 atom-3" d="M 109.9,55.9 L 109.9,39.9" style="fill:none;fill-rule:evenodd;stroke:#FF0000;stroke-width:2.0px;stroke-linecap:butt;stroke-linejoin:miter;stroke-opacity:1"/>
<path class="bond-3 atom-2 atom-4" d="M 113.0,70.1 L 126.6,78.0" style="fill:none;fill-rule:evenodd;stroke:#000000;stroke-width:2.0px;stroke-linecap:butt;stroke-linejoin:miter;stroke-opacity:1"/>
<path class="bond-3 atom-2 atom-4" d="M 126.6,78.0 L 140.3,85.8" style="fill:none;fill-rule:evenodd;stroke:#0000FF;stroke-width:2.0px;stroke-linecap:butt;stroke-linejoin:miter;stroke-opacity:1"/>
<path class="bond-4 atom-4 atom-5" d="M 148.1,100.3 L 148.2,115.6" style="fill:none;fill-rule:evenodd;stroke:#0000FF;stroke-width:2.0px;stroke-linecap:butt;stroke-linejoin:miter;stroke-opacity:1"/>
<path class="bond-4 atom-4 atom-5" d="M 148.2,115.6 L 148.2,130.9" style="fill:none;fill-rule:evenodd;stroke:#000000;stroke-width:2.0px;stroke-linecap:butt;stroke-linejoin:miter;stroke-opacity:1"/>
<path class="bond-5 atom-5 atom-6" d="M 148.2,130.9 L 113.1,151.2" style="fill:none;fill-rule:evenodd;stroke:#000000;stroke-width:2.0px;stroke-linecap:butt;stroke-linejoin:miter;stroke-opacity:1"/>
<path class="bond-6 atom-6 atom-7" d="M 110.1,149.5 L 110.1,181.7" style="fill:none;fill-rule:evenodd;stroke:#CCCCCC;stroke-width:3.2px;stroke-linecap:butt;stroke-linejoin:miter;stroke-opacity:1"/>
<path class="bond-6 atom-6 atom-7" d="M 116.2,149.5 L 116.2,181.7" style="fill:none;fill-rule:evenodd;stroke:#CCCCCC;stroke-width:3.2px;stroke-linecap:butt;stroke-linejoin:miter;stroke-opacity:1;stroke-dasharray:6,0,6"/>
<path class="bond-7 atom-4 atom-8" d="M 156.0,85.8 L 169.6,77.9" style="fill:none;fill-rule:evenodd;stroke:#0000FF;stroke-width:2.0px;stroke-linecap:butt;stroke-linejoin:miter;stroke-opacity:1"/>
<path class="bond-7 atom-4 atom-8" d="M 169.6,77.9 L 183.2,70.0" style="fill:none;fill-rule:evenodd;stroke:#000000;stroke-width:2.0px;stroke-linecap:butt;stroke-linejoin:miter;stroke-opacity:1"/>
<path class="bond-8 atom-8 atom-9" d="M 183.2,70.0 L 183.1,29.4" style="fill:none;fill-rule:evenodd;stroke:#000000;stroke-width:2.0px;stroke-linecap:butt;stroke-linejoin:miter;stroke-opacity:1"/>
<path class="bond-9 atom-9 atom-10" d="M 183.1,29.4 L 218.2,9.1" style="fill:none;fill-rule:evenodd;stroke:#000000;stroke-width:2.0px;stroke-linecap:butt;stroke-linejoin:miter;stroke-opacity:1"/>
<path class="bond-10 atom-9 atom-11" d="M 183.1,29.4 L 148.0,9.2" style="fill:none;fill-rule:evenodd;stroke:#000000;stroke-width:2.0px;stroke-linecap:butt;stroke-linejoin:miter;stroke-opacity:1"/>
<path class="bond-11 atom-8 atom-12" d="M 183.2,70.0 L 218.4,90.2" style="fill:none;fill-rule:evenodd;stroke:#000000;stroke-width:2.0px;stroke-linecap:butt;stroke-linejoin:miter;stroke-opacity:1"/>
<path class="bond-12 atom-12 atom-13" d="M 218.4,90.2 L 218.4,105.5" style="fill:none;fill-rule:evenodd;stroke:#000000;stroke-width:2.0px;stroke-linecap:butt;stroke-linejoin:miter;stroke-opacity:1"/>
<path class="bond-12 atom-12 atom-13" d="M 218.4,105.5 L 218.4,120.7" style="fill:none;fill-rule:evenodd;stroke:#FF0000;stroke-width:2.0px;stroke-linecap:butt;stroke-linejoin:miter;stroke-opacity:1"/>
<path class="bond-13 atom-12 atom-14" d="M 218.4,93.7 L 232.0,85.8" style="fill:none;fill-rule:evenodd;stroke:#000000;stroke-width:2.0px;stroke-linecap:butt;stroke-linejoin:miter;stroke-opacity:1"/>
<path class="bond-13 atom-12 atom-14" d="M 232.0,85.8 L 245.7,77.8" style="fill:none;fill-rule:evenodd;stroke:#FF0000;stroke-width:2.0px;stroke-linecap:butt;stroke-linejoin:miter;stroke-opacity:1"/>
<path class="bond-13 atom-12 atom-14" d="M 215.3,88.4 L 229.0,80.5" style="fill:none;fill-rule:evenodd;stroke:#000000;stroke-width:2.0px;stroke-linecap:butt;stroke-linejoin:miter;stroke-opacity:1"/>
<path class="bond-13 atom-12 atom-14" d="M 229.0,80.5 L 242.7,72.6" style="fill:none;fill-rule:evenodd;stroke:#FF0000;stroke-width:2.0px;stroke-linecap:butt;stroke-linejoin:miter;stroke-opacity:1"/>
<path class="bond-14 atom-15 atom-6" d="M 80.3,128.9 L 116.2,149.5" style="fill:none;fill-rule:evenodd;stroke:#CCCCCC;stroke-width:3.2px;stroke-linecap:butt;stroke-linejoin:miter;stroke-opacity:1"/>
<path class="bond-14 atom-15 atom-6" d="M 77.3,134.1 L 113.1,154.7" style="fill:none;fill-rule:evenodd;stroke:#CCCCCC;stroke-width:3.2px;stroke-linecap:butt;stroke-linejoin:miter;stroke-opacity:1;stroke-dasharray:6,0,6"/>
<path d="M 77.0,90.0 L 77.9,90.5 L 78.8,90.0" style="fill:none;stroke:#CCCCCC;stroke-width:3.2px;stroke-linecap:butt;stroke-linejoin:miter;stroke-opacity:1;"/>
<path d="M 111.2,71.1 L 113.0,70.1 L 113.6,70.5" style="fill:none;stroke:#000000;stroke-width:2.0px;stroke-linecap:butt;stroke-linejoin:miter;stroke-opacity:1;"/>
<path d="M 148.2,130.1 L 148.2,130.9 L 146.5,131.9" style="fill:none;stroke:#000000;stroke-width:2.0px;stroke-linecap:butt;stroke-linejoin:miter;stroke-opacity:1;"/>
<path d="M 216.6,89.2 L 218.4,90.2 L 218.4,91.0" style="fill:none;stroke:#000000;stroke-width:2.0px;stroke-linecap:butt;stroke-linejoin:miter;stroke-opacity:1;"/>
<path class="atom-0" d="M 39.5 68.3 L 42.0 65.8 L 38.6 65.1 L 39.2 63.4 L 42.3 64.9 L 41.8 61.5 L 43.6 61.5 L 43.1 64.9 L 46.3 63.4 L 46.8 65.1 L 43.4 65.7 L 45.8 68.3 L 44.3 69.4 L 42.7 66.2 L 41.0 69.4 L 39.5 68.3 " fill="#191919"/>
<path class="atom-3" d="M 105.0 29.6 Q 105.0 25.5, 107.0 23.2 Q 109.1 20.9, 112.9 20.9 Q 116.7 20.9, 118.7 23.2 Q 120.8 25.5, 120.8 29.6 Q 120.8 33.8, 118.7 36.2 Q 116.7 38.6, 112.9 38.6 Q 109.1 38.6, 107.0 36.2 Q 105.0 33.8, 105.0 29.6 M 112.9 36.6 Q 115.5 36.6, 116.9 34.9 Q 118.4 33.1, 118.4 29.6 Q 118.4 26.2, 116.9 24.5 Q 115.5 22.8, 112.9 22.8 Q 110.3 22.8, 108.8 24.5 Q 107.4 26.2, 107.4 29.6 Q 107.4 33.1, 108.8 34.9 Q 110.3 36.6, 112.9 36.6 " fill="#FF0000"/>
<path class="atom-4" d="M 144.3 81.7 L 150.0 90.8 Q 150.5 91.7, 151.4 93.4 Q 152.3 95.0, 152.4 95.1 L 152.4 81.7 L 154.7 81.7 L 154.7 98.9 L 152.3 98.9 L 146.2 89.0 Q 145.5 87.8, 144.8 86.5 Q 144.0 85.1, 143.8 84.7 L 143.8 98.9 L 141.6 98.9 L 141.6 81.7 L 144.3 81.7 " fill="#0000FF"/>
<path class="atom-7" d="M 110.0 189.9 L 112.5 187.3 L 109.1 186.6 L 109.6 184.9 L 112.7 186.4 L 112.3 183.0 L 114.1 183.0 L 113.6 186.4 L 116.7 184.9 L 117.3 186.6 L 113.9 187.2 L 116.3 189.8 L 114.8 190.9 L 113.1 187.7 L 111.4 190.9 L 110.0 189.9 " fill="#191919"/>
<path class="atom-13" d="M 210.5 130.8 Q 210.5 126.7, 212.6 124.4 Q 214.6 122.0, 218.4 122.0 Q 222.3 122.0, 224.3 124.4 Q 226.4 126.7, 226.4 130.8 Q 226.4 135.0, 224.3 137.4 Q 222.2 139.7, 218.4 139.7 Q 214.6 139.7, 212.6 137.4 Q 210.5 135.0, 210.5 130.8 M 218.4 137.8 Q 221.1 137.8, 222.5 136.0 Q 223.9 134.3, 223.9 130.8 Q 223.9 127.4, 222.5 125.7 Q 221.1 124.0, 218.4 124.0 Q 215.8 124.0, 214.4 125.7 Q 213.0 127.4, 213.0 130.8 Q 213.0 134.3, 214.4 136.0 Q 215.8 137.8, 218.4 137.8 " fill="#FF0000"/>
<path class="atom-13" d="M 229.0 122.2 L 231.4 122.2 L 231.4 129.6 L 240.2 129.6 L 240.2 122.2 L 242.5 122.2 L 242.5 139.5 L 240.2 139.5 L 240.2 131.5 L 231.4 131.5 L 231.4 139.5 L 229.0 139.5 L 229.0 122.2 " fill="#FF0000"/>
<path class="atom-14" d="M 245.5 69.9 Q 245.5 65.8, 247.6 63.4 Q 249.6 61.1, 253.4 61.1 Q 257.3 61.1, 259.3 63.4 Q 261.4 65.8, 261.4 69.9 Q 261.4 74.1, 259.3 76.5 Q 257.2 78.8, 253.4 78.8 Q 249.6 78.8, 247.6 76.5 Q 245.5 74.1, 245.5 69.9 M 253.4 76.9 Q 256.1 76.9, 257.5 75.1 Q 258.9 73.4, 258.9 69.9 Q 258.9 66.5, 257.5 64.8 Q 256.1 63.1, 253.4 63.1 Q 250.8 63.1, 249.4 64.8 Q 248.0 66.5, 248.0 69.9 Q 248.0 73.4, 249.4 75.1 Q 250.8 76.9, 253.4 76.9 " fill="#FF0000"/>
<path class="atom-15" d="M 74.7 129.1 L 77.2 126.5 L 73.9 125.8 L 74.4 124.1 L 77.5 125.7 L 77.1 122.3 L 78.9 122.3 L 78.4 125.7 L 81.5 124.2 L 82.0 125.8 L 78.6 126.5 L 81.1 129.1 L 79.6 130.2 L 77.9 126.9 L 76.2 130.2 L 74.7 129.1 " fill="#191919"/>
</svg></g>
   </g>
   <g id="text_13">
    
    <g transform="translate(188.308758 291.193076) scale(0.12 -0.12)">
     <use ns4:href="#IBMPlexMono-Regular-70"/>
     <use ns4:href="#IBMPlexMono-Regular-72" x="59.999985"/>
     <use ns4:href="#IBMPlexMono-Regular-69" x="119.999969"/>
     <use ns4:href="#IBMPlexMono-Regular-6d" x="179.999954"/>
     <use ns4:href="#IBMPlexMono-Regular-61" x="239.999939"/>
     <use ns4:href="#IBMPlexMono-Regular-72" x="299.999924"/>
     <use ns4:href="#IBMPlexMono-Regular-79" x="359.999908"/>
     <use ns4:href="#IBMPlexMono-Regular-20" x="419.999893"/>
     <use ns4:href="#IBMPlexMono-Regular-63" x="479.999878"/>
     <use ns4:href="#IBMPlexMono-Regular-61" x="539.999863"/>
     <use ns4:href="#IBMPlexMono-Regular-72" x="599.999847"/>
     <use ns4:href="#IBMPlexMono-Regular-62" x="659.999832"/>
     <use ns4:href="#IBMPlexMono-Regular-6f" x="719.999817"/>
     <use ns4:href="#IBMPlexMono-Regular-6e" x="779.999802"/>
    </g>
   </g>
   <g id="AnnotationBbox_5">
    <g id="patch_16">
     <path d="M 11.128 322.48  L 150.728 322.48  L 150.728 262.88  L 11.128 262.88  z " style="fill: #ffffff; stroke: #000000; stroke-width: 0.5; stroke-linejoin: miter"/>
    </g>
    <g id="sk4">
     <svg version="1.1" baseProfile="full" xml:space="preserve" width="130.0" height="50.0" viewBox="0 0 300 200" x="15.928" y="267.68">

<rect style="opacity:1.0;fill:#FFFFFF;stroke:none" width="300.0" height="200.0" x="0.0" y="0.0"> </rect>
<path class="bond-0 atom-0 atom-1" d="M 153.6,170.4 L 153.5,81.0" style="fill:none;fill-rule:evenodd;stroke:#CCCCCC;stroke-width:8.6px;stroke-linecap:butt;stroke-linejoin:miter;stroke-opacity:1"/>
<path class="bond-1 atom-1 atom-2" d="M 153.5,81.0 L 246.4,27.1" style="fill:none;fill-rule:evenodd;stroke:#000000;stroke-width:2.0px;stroke-linecap:butt;stroke-linejoin:miter;stroke-opacity:1"/>
<path class="bond-2 atom-1 atom-3" d="M 153.5,81.0 L 64.0,29.6" style="fill:none;fill-rule:evenodd;stroke:#CCCCCC;stroke-width:8.6px;stroke-linecap:butt;stroke-linejoin:miter;stroke-opacity:1"/>
<path class="atom-0" d="M 148.3 185.2 L 152.5 181.0 L 147.0 179.9 L 147.8 177.0 L 152.9 179.6 L 152.2 174.0 L 155.2 174.0 L 154.3 179.5 L 159.5 177.1 L 160.4 179.9 L 154.8 180.9 L 158.8 185.2 L 156.3 186.9 L 153.6 181.7 L 150.8 186.9 L 148.3 185.2 " fill="#191919"/>
<path class="atom-3" d="M 55.0 24.3 L 59.1 20.1 L 53.6 18.9 L 54.5 16.1 L 59.5 18.7 L 58.8 13.1 L 61.8 13.1 L 61.0 18.6 L 66.1 16.2 L 67.0 18.9 L 61.4 20.0 L 65.4 24.3 L 63.0 26.0 L 60.2 20.7 L 57.4 26.0 L 55.0 24.3 " fill="#191919"/>
</svg></g>
   </g>
   <g id="text_14">
    
    <g transform="translate(237.6 37.2) scale(0.12 -0.12)">
     <defs>
      <path id="IBMPlexMono-Regular-66" d="M 531 435  L 1645 435  L 1645 2867  L 467 2867  L 467 3302  L 1645 3302  L 1645 3981  Q 1645 4314 1821 4525  Q 1997 4736 2374 4736  L 3482 4736  L 3482 4301  L 2157 4301  L 2157 3302  L 3482 3302  L 3482 2867  L 2157 2867  L 2157 435  L 3334 435  L 3334 0  L 531 0  L 531 435  z " transform="scale(0.015625)"/>
     </defs>
     <use ns4:href="#IBMPlexMono-Regular-65"/>
     <use ns4:href="#IBMPlexMono-Regular-63" x="59.999985"/>
     <use ns4:href="#IBMPlexMono-Regular-66" x="119.999969"/>
     <use ns4:href="#IBMPlexMono-Regular-70" x="179.999954"/>
     <use ns4:href="#IBMPlexMono-Regular-20" x="239.999939"/>
     <use ns4:href="#IBMPlexMono-Regular-64" x="299.999924"/>
     <use ns4:href="#IBMPlexMono-Regular-65" x="359.999908"/>
     <use ns4:href="#IBMPlexMono-Regular-73" x="419.999893"/>
     <use ns4:href="#IBMPlexMono-Regular-63" x="479.999878"/>
     <use ns4:href="#IBMPlexMono-Regular-72" x="539.999863"/>
     <use ns4:href="#IBMPlexMono-Regular-69" x="599.999847"/>
     <use ns4:href="#IBMPlexMono-Regular-70" x="659.999832"/>
     <use ns4:href="#IBMPlexMono-Regular-74" x="719.999817"/>
     <use ns4:href="#IBMPlexMono-Regular-6f" x="779.999802"/>
     <use ns4:href="#IBMPlexMono-Regular-72" x="839.999786"/>
     <use ns4:href="#IBMPlexMono-Regular-73" x="899.999771"/>
    </g>
   </g>
  </g>
 </g>
 <defs>
  <clipPath id="p5ca6575c93">
   <rect x="72" y="43.2" width="446.4" height="277.2"/>
  </clipPath>
 </defs>
</svg>