<svg xmlns="http://www.w3.org/2000/svg" xmlns:dc="http://purl.org/dc/elements/1.1/" xmlns:ns2="http://creativecommons.org/ns#" xmlns:ns4="http://www.w3.org/1999/xlink" xmlns:rdf="http://www.w3.org/1999/02/22-rdf-syntax-ns#" width="576pt" height="360pt" viewBox="0 0 576 360" version="1.1">
 <metadata>
  <rdf:RDF>
   <ns2:Work>
    <dc:type rdf:resource="http://purl.org/dc/dcmitype/StillImage" />
    <dc:date>2022-05-06T17:01:17.569432</dc:date>
    <dc:format>image/svg+xml</dc:format>
    <dc:creator>
     <ns2:Agent>
      <dc:title>Matplotlib v3.5.2, https://matplotlib.org/</dc:title>
     </ns2:Agent>
    </dc:creator>
   </ns2:Work>
  </rdf:RDF>
 </metadata>
 <defs>
  <style type="text/css">*{stroke-linejoin: round; stroke-linecap: butt}</style>
 </defs>
 <g id="figure_1">
  <g id="patch_1">
   <path d="M 0 360  L 576 360  L 576 0  L 0 0  L 0 360  z " style="fill: none" />
  </g>
  <g id="axes_1">
   <g id="patch_2">
    <path d="M 72 315  L 518.4 315  L 518.4 43.2  L 72 43.2  z " style="fill: #eaeaf2" />
   </g>
   <g id="line2d_1">
    <path d="M 369.81408 315  L 369.81408 43.2  " clip-path="url(#pa9df6dc178)" style="fill: none; stroke-dasharray: 2.775,1.2; stroke-dashoffset: 0; stroke: #f5ad4c; stroke-width: 0.75" />
   </g>
   <g id="line2d_2">
    <path d="M 220.58592 315  L 220.58592 43.2  " clip-path="url(#pa9df6dc178)" style="fill: none; stroke-dasharray: 2.775,1.2; stroke-dashoffset: 0; stroke: #f5ad4c; stroke-width: 0.75" />
   </g>
   <g id="matplotlib.axis_1">
    <g id="xtick_1">
     <g id="line2d_3">
      <defs>
       <path id="m14f93916e5" d="M 0 0  L 0 6  " style="stroke: #666666; stroke-width: 1.25" />
      </defs>
      <g>
       <use ns4:href="#m14f93916e5" x="143.660578" y="315" style="fill: #666666; stroke: #666666; stroke-width: 1.25" />
      </g>
     </g>
     <g id="text_1">
      
      <g style="fill: #666666" transform="translate(135.552375 332.858281)scale(0.11 -0.11)">
       <defs>
        <path id="DejaVuSans-2212" d="M 678 2272  L 4684 2272  L 4684 1741  L 678 1741  L 678 2272  z " transform="scale(0.015625)" />
        <path id="DejaVuSans-34" d="M 2419 4116  L 825 1625  L 2419 1625  L 2419 4116  z M 2253 4666  L 3047 4666  L 3047 1625  L 3713 1625  L 3713 1100  L 3047 1100  L 3047 0  L 2419 0  L 2419 1100  L 313 1100  L 313 1709  L 2253 4666  z " transform="scale(0.015625)" />
       </defs>
       <use ns4:href="#DejaVuSans-2212" />
       <use ns4:href="#DejaVuSans-34" x="83.789062" />
      </g>
     </g>
    </g>
    <g id="xtick_2">
     <g id="line2d_4">
      <g>
       <use ns4:href="#m14f93916e5" x="219.430289" y="315" style="fill: #666666; stroke: #666666; stroke-width: 1.25" />
      </g>
     </g>
     <g id="text_2">
      
      <g style="fill: #666666" transform="translate(211.322086 332.858281)scale(0.11 -0.11)">
       <defs>
        <path id="DejaVuSans-32" d="M 1228 531  L 3431 531  L 3431 0  L 469 0  L 469 531  Q 828 903 1448 1529  Q 2069 2156 2228 2338  Q 2531 2678 2651 2914  Q 2772 3150 2772 3378  Q 2772 3750 2511 3984  Q 2250 4219 1831 4219  Q 1534 4219 1204 4116  Q 875 4013 500 3803  L 500 4441  Q 881 4594 1212 4672  Q 1544 4750 1819 4750  Q 2544 4750 2975 4387  Q 3406 4025 3406 3419  Q 3406 3131 3298 2873  Q 3191 2616 2906 2266  Q 2828 2175 2409 1742  Q 1991 1309 1228 531  z " transform="scale(0.015625)" />
       </defs>
       <use ns4:href="#DejaVuSans-2212" />
       <use ns4:href="#DejaVuSans-32" x="83.789062" />
      </g>
     </g>
    </g>
    <g id="xtick_3">
     <g id="line2d_5">
      <g>
       <use ns4:href="#m14f93916e5" x="295.2" y="315" style="fill: #666666; stroke: #666666; stroke-width: 1.25" />
      </g>
     </g>
     <g id="text_3">
      
      <g style="fill: #666666" transform="translate(291.700625 332.858281)scale(0.11 -0.11)">
       <defs>
        <path id="DejaVuSans-30" d="M 2034 4250  Q 1547 4250 1301 3770  Q 1056 3291 1056 2328  Q 1056 1369 1301 889  Q 1547 409 2034 409  Q 2525 409 2770 889  Q 3016 1369 3016 2328  Q 3016 3291 2770 3770  Q 2525 4250 2034 4250  z M 2034 4750  Q 2819 4750 3233 4129  Q 3647 3509 3647 2328  Q 3647 1150 3233 529  Q 2819 -91 2034 -91  Q 1250 -91 836 529  Q 422 1150 422 2328  Q 422 3509 836 4129  Q 1250 4750 2034 4750  z " transform="scale(0.015625)" />
       </defs>
       <use ns4:href="#DejaVuSans-30" />
      </g>
     </g>
    </g>
    <g id="xtick_4">
     <g id="line2d_6">
      <g>
       <use ns4:href="#m14f93916e5" x="370.969711" y="315" style="fill: #666666; stroke: #666666; stroke-width: 1.25" />
      </g>
     </g>
     <g id="text_4">
      
      <g style="fill: #666666" transform="translate(367.470336 332.858281)scale(0.11 -0.11)">
       <use ns4:href="#DejaVuSans-32" />
      </g>
     </g>
    </g>
    <g id="xtick_5">
     <g id="line2d_7">
      <g>
       <use ns4:href="#m14f93916e5" x="446.739422" y="315" style="fill: #666666; stroke: #666666; stroke-width: 1.25" />
      </g>
     </g>
     <g id="text_5">
      
      <g style="fill: #666666" transform="translate(443.240047 332.858281)scale(0.11 -0.11)">
       <use ns4:href="#DejaVuSans-34" />
      </g>
     </g>
    </g>
    <g id="text_6">
     
     <g style="fill: #262626" transform="translate(230.864062 348.264063)scale(0.12 -0.12)">
      <defs>
       <path id="DejaVuSans-44" d="M 1259 4147  L 1259 519  L 2022 519  Q 2988 519 3436 956  Q 3884 1394 3884 2338  Q 3884 3275 3436 3711  Q 2988 4147 2022 4147  L 1259 4147  z M 628 4666  L 1925 4666  Q 3281 4666 3915 4102  Q 4550 3538 4550 2338  Q 4550 1131 3912 565  Q 3275 0 1925 0  L 628 0  L 628 4666  z " transform="scale(0.015625)" />
       <path id="DejaVuSans-65" d="M 3597 1894  L 3597 1613  L 953 1613  Q 991 1019 1311 708  Q 1631 397 2203 397  Q 2534 397 2845 478  Q 3156 559 3463 722  L 3463 178  Q 3153 47 2828 -22  Q 2503 -91 2169 -91  Q 1331 -91 842 396  Q 353 884 353 1716  Q 353 2575 817 3079  Q 1281 3584 2069 3584  Q 2775 3584 3186 3129  Q 3597 2675 3597 1894  z M 3022 2063  Q 3016 2534 2758 2815  Q 2500 3097 2075 3097  Q 1594 3097 1305 2825  Q 1016 2553 972 2059  L 3022 2063  z " transform="scale(0.015625)" />
       <path id="DejaVuSans-73" d="M 2834 3397  L 2834 2853  Q 2591 2978 2328 3040  Q 2066 3103 1784 3103  Q 1356 3103 1142 2972  Q 928 2841 928 2578  Q 928 2378 1081 2264  Q 1234 2150 1697 2047  L 1894 2003  Q 2506 1872 2764 1633  Q 3022 1394 3022 966  Q 3022 478 2636 193  Q 2250 -91 1575 -91  Q 1294 -91 989 -36  Q 684 19 347 128  L 347 722  Q 666 556 975 473  Q 1284 391 1588 391  Q 1994 391 2212 530  Q 2431 669 2431 922  Q 2431 1156 2273 1281  Q 2116 1406 1581 1522  L 1381 1569  Q 847 1681 609 1914  Q 372 2147 372 2553  Q 372 3047 722 3315  Q 1072 3584 1716 3584  Q 2034 3584 2315 3537  Q 2597 3491 2834 3397  z " transform="scale(0.015625)" />
       <path id="DejaVuSans-63" d="M 3122 3366  L 3122 2828  Q 2878 2963 2633 3030  Q 2388 3097 2138 3097  Q 1578 3097 1268 2742  Q 959 2388 959 1747  Q 959 1106 1268 751  Q 1578 397 2138 397  Q 2388 397 2633 464  Q 2878 531 3122 666  L 3122 134  Q 2881 22 2623 -34  Q 2366 -91 2075 -91  Q 1284 -91 818 406  Q 353 903 353 1747  Q 353 2603 823 3093  Q 1294 3584 2113 3584  Q 2378 3584 2631 3529  Q 2884 3475 3122 3366  z " transform="scale(0.015625)" />
       <path id="DejaVuSans-72" d="M 2631 2963  Q 2534 3019 2420 3045  Q 2306 3072 2169 3072  Q 1681 3072 1420 2755  Q 1159 2438 1159 1844  L 1159 0  L 581 0  L 581 3500  L 1159 3500  L 1159 2956  Q 1341 3275 1631 3429  Q 1922 3584 2338 3584  Q 2397 3584 2469 3576  Q 2541 3569 2628 3553  L 2631 2963  z " transform="scale(0.015625)" />
       <path id="DejaVuSans-69" d="M 603 3500  L 1178 3500  L 1178 0  L 603 0  L 603 3500  z M 603 4863  L 1178 4863  L 1178 4134  L 603 4134  L 603 4863  z " transform="scale(0.015625)" />
       <path id="DejaVuSans-70" d="M 1159 525  L 1159 -1331  L 581 -1331  L 581 3500  L 1159 3500  L 1159 2969  Q 1341 3281 1617 3432  Q 1894 3584 2278 3584  Q 2916 3584 3314 3078  Q 3713 2572 3713 1747  Q 3713 922 3314 415  Q 2916 -91 2278 -91  Q 1894 -91 1617 61  Q 1341 213 1159 525  z M 3116 1747  Q 3116 2381 2855 2742  Q 2594 3103 2138 3103  Q 1681 3103 1420 2742  Q 1159 2381 1159 1747  Q 1159 1113 1420 752  Q 1681 391 2138 391  Q 2594 391 2855 752  Q 3116 1113 3116 1747  z " transform="scale(0.015625)" />
       <path id="DejaVuSans-74" d="M 1172 4494  L 1172 3500  L 2356 3500  L 2356 3053  L 1172 3053  L 1172 1153  Q 1172 725 1289 603  Q 1406 481 1766 481  L 2356 481  L 2356 0  L 1766 0  Q 1100 0 847 248  Q 594 497 594 1153  L 594 3053  L 172 3053  L 172 3500  L 594 3500  L 594 4494  L 1172 4494  z " transform="scale(0.015625)" />
       <path id="DejaVuSans-6f" d="M 1959 3097  Q 1497 3097 1228 2736  Q 959 2375 959 1747  Q 959 1119 1226 758  Q 1494 397 1959 397  Q 2419 397 2687 759  Q 2956 1122 2956 1747  Q 2956 2369 2687 2733  Q 2419 3097 1959 3097  z M 1959 3584  Q 2709 3584 3137 3096  Q 3566 2609 3566 1747  Q 3566 888 3137 398  Q 2709 -91 1959 -91  Q 1206 -91 779 398  Q 353 888 353 1747  Q 353 2609 779 3096  Q 1206 3584 1959 3584  z " transform="scale(0.015625)" />
       <path id="DejaVuSans-20" transform="scale(0.015625)" />
       <path id="DejaVuSans-2d" d="M 313 2009  L 1997 2009  L 1997 1497  L 313 1497  L 313 2009  z " transform="scale(0.015625)" />
       <path id="DejaVuSans-61" d="M 2194 1759  Q 1497 1759 1228 1600  Q 959 1441 959 1056  Q 959 750 1161 570  Q 1363 391 1709 391  Q 2188 391 2477 730  Q 2766 1069 2766 1631  L 2766 1759  L 2194 1759  z M 3341 1997  L 3341 0  L 2766 0  L 2766 531  Q 2569 213 2275 61  Q 1981 -91 1556 -91  Q 1019 -91 701 211  Q 384 513 384 1019  Q 384 1609 779 1909  Q 1175 2209 1959 2209  L 2766 2209  L 2766 2266  Q 2766 2663 2505 2880  Q 2244 3097 1772 3097  Q 1472 3097 1187 3025  Q 903 2953 641 2809  L 641 3341  Q 956 3463 1253 3523  Q 1550 3584 1831 3584  Q 2591 3584 2966 3190  Q 3341 2797 3341 1997  z " transform="scale(0.015625)" />
      </defs>
      <use ns4:href="#DejaVuSans-44" />
      <use ns4:href="#DejaVuSans-65" x="77.001953" />
      <use ns4:href="#DejaVuSans-73" x="138.525391" />
      <use ns4:href="#DejaVuSans-63" x="190.625" />
      <use ns4:href="#DejaVuSans-72" x="245.605469" />
      <use ns4:href="#DejaVuSans-69" x="286.71875" />
      <use ns4:href="#DejaVuSans-70" x="314.501953" />
      <use ns4:href="#DejaVuSans-74" x="377.978516" />
      <use ns4:href="#DejaVuSans-6f" x="417.1875" />
      <use ns4:href="#DejaVuSans-72" x="478.369141" />
      <use ns4:href="#DejaVuSans-20" x="519.482422" />
      <use ns4:href="#DejaVuSans-74" x="551.269531" />
      <use ns4:href="#DejaVuSans-2d" x="590.478516" />
      <use ns4:href="#DejaVuSans-73" x="626.5625" />
      <use ns4:href="#DejaVuSans-74" x="678.662109" />
      <use ns4:href="#DejaVuSans-61" x="717.871094" />
      <use ns4:href="#DejaVuSans-74" x="779.150391" />
      <use ns4:href="#DejaVuSans-69" x="818.359375" />
      <use ns4:href="#DejaVuSans-73" x="846.142578" />
      <use ns4:href="#DejaVuSans-74" x="898.242188" />
      <use ns4:href="#DejaVuSans-69" x="937.451172" />
      <use ns4:href="#DejaVuSans-63" x="965.234375" />
      <use ns4:href="#DejaVuSans-73" x="1020.214844" />
     </g>
    </g>
   </g>
   <g id="matplotlib.axis_2" />
   <g id="patch_3">
    <path d="M 282.972808 271.954163  L 293.116333 271.954163  Q 293.684606 271.954163 293.684606 275.075311  L 293.684606 291.201244  Q 293.684606 294.322392 293.116333 294.322392  L 282.972808 294.322392  Q 282.404535 294.322392 282.404535 291.201244  L 282.404535 275.075311  Q 282.404535 271.954163 282.972808 271.954163  z " clip-path="url(#pa9df6dc178)" style="fill: #f06060" />
   </g>
   <g id="patch_4">
    <path d="M 297.283667 219.935024  L 307.617071 219.935024  Q 308.185344 219.935024 308.185344 223.056172  L 308.185344 239.182105  Q 308.185344 242.303254 307.617071 242.303254  L 297.283667 242.303254  Q 296.715394 242.303254 296.715394 239.182105  L 296.715394 223.056172  Q 296.715394 219.935024 297.283667 219.935024  z " clip-path="url(#pa9df6dc178)" style="fill: #1bbc9b" />
   </g>
   <g id="patch_5">
    <path d="M 297.283667 167.915885  L 310.182228 167.915885  Q 310.750501 167.915885 310.750501 171.037033  L 310.750501 187.162967  Q 310.750501 190.284115 310.182228 190.284115  L 297.283667 190.284115  Q 296.715394 190.284115 296.715394 187.162967  L 296.715394 171.037033  Q 296.715394 167.915885 297.283667 167.915885  z " clip-path="url(#pa9df6dc178)" style="fill: #1bbc9b" />
   </g>
   <g id="patch_6">
    <path d="M 280.019669 115.896746  L 293.116333 115.896746  Q 293.684606 115.896746 293.684606 119.017895  L 293.684606 135.143828  Q 293.684606 138.264976 293.116333 138.264976  L 280.019669 138.264976  Q 279.451396 138.264976 279.451396 135.143828  L 279.451396 119.017895  Q 279.451396 115.896746 280.019669 115.896746  z " clip-path="url(#pa9df6dc178)" style="fill: #f06060" />
   </g>
   <g id="patch_7">
    <path d="M 263.507945 63.877608  L 293.116333 63.877608  Q 293.684606 63.877608 293.684606 66.998756  L 293.684606 83.124689  Q 293.684606 86.245837 293.116333 86.245837  L 263.507945 86.245837  Q 262.939672 86.245837 262.939672 83.124689  L 262.939672 66.998756  Q 262.939672 63.877608 263.507945 63.877608  z " clip-path="url(#pa9df6dc178)" style="fill: #f06060" />
   </g>
   <g id="line2d_8">
    <path d="M 295.2 315  L 295.2 43.2  " clip-path="url(#pa9df6dc178)" style="fill: none; stroke: #808080; stroke-width: 0.5; stroke-linecap: round" />
   </g>
   <g id="patch_8">
    <path d="M 72 315  L 72 43.2  " style="fill: none; stroke: #666666; stroke-width: 1.25; stroke-linejoin: miter; stroke-linecap: square" />
   </g>
   <g id="patch_9">
    <path d="M 518.4 315  L 518.4 43.2  " style="fill: none; stroke: #666666; stroke-width: 1.25; stroke-linejoin: miter; stroke-linecap: square" />
   </g>
   <g id="patch_10">
    <path d="M 72 315  L 518.4 315  " style="fill: none; stroke: #666666; stroke-width: 1.25; stroke-linejoin: miter; stroke-linecap: square" />
   </g>
   <g id="patch_11">
    <path d="M 72 43.2  L 518.4 43.2  " style="fill: none; stroke: #666666; stroke-width: 1.25; stroke-linejoin: miter; stroke-linecap: square" />
   </g>
   <g id="text_7">
    
    <g style="fill: #262626" transform="translate(304.671214 78.372972)scale(0.12 -0.12)">
     <use ns4:href="#DejaVuSans-20" />
    </g>
   </g>
   <g id="patch_12">
    <path d="M 440.072 99.78  L 578.872 99.78  L 578.872 40.98  L 440.072 40.98  z " style="fill: #ffffff; stroke: #000000; stroke-width: 0.5; stroke-linejoin: miter" />
   </g>
   <g id="sk0">
    <svg version="1.1" baseProfile="full" xml:space="preserve" width="130.0" height="49.99999999999999" viewBox="0 0 300 200" x="444.472" y="45.38">

<rect style="opacity:1.0;fill:#FFFFFF;stroke:none" width="300.0" height="200.0" x="0.0" y="0.0"> </rect>
<path class="bond-0 atom-0 atom-1" d="M 61.5,22.8 L 150.2,73.6" style="fill:none;fill-rule:evenodd;stroke:#CCCCCC;stroke-width:8.5px;stroke-linecap:butt;stroke-linejoin:miter;stroke-opacity:1" />
<path class="bond-0 atom-0 atom-1" d="M 52.0,39.4 L 140.7,90.2" style="fill:none;fill-rule:evenodd;stroke:#CCCCCC;stroke-width:8.5px;stroke-linecap:butt;stroke-linejoin:miter;stroke-opacity:1;stroke-dasharray:6,0,6" />
<path class="bond-1 atom-1 atom-2" d="M 145.5,81.9 L 184.2,59.3" style="fill:none;fill-rule:evenodd;stroke:#000000;stroke-width:2.0px;stroke-linecap:butt;stroke-linejoin:miter;stroke-opacity:1" />
<path class="bond-1 atom-1 atom-2" d="M 184.2,59.3 L 222.9,36.8" style="fill:none;fill-rule:evenodd;stroke:#00CC00;stroke-width:2.0px;stroke-linecap:butt;stroke-linejoin:miter;stroke-opacity:1" />
<path class="bond-2 atom-1 atom-3" d="M 155.0,81.8 L 155.3,170.3" style="fill:none;fill-rule:evenodd;stroke:#CCCCCC;stroke-width:8.5px;stroke-linecap:butt;stroke-linejoin:miter;stroke-opacity:1" />
<path class="bond-2 atom-1 atom-3" d="M 135.9,81.9 L 136.2,170.4" style="fill:none;fill-rule:evenodd;stroke:#CCCCCC;stroke-width:8.5px;stroke-linecap:butt;stroke-linejoin:miter;stroke-opacity:1;stroke-dasharray:6,0,6" />
<path class="atom-0" d="M 47.8 25.9 L 51.9 21.6 L 46.4 20.5 L 47.3 17.7 L 52.3 20.2 L 51.6 14.7 L 54.6 14.6 L 53.8 20.2 L 58.9 17.8 L 59.8 20.5 L 54.2 21.5 L 58.2 25.8 L 55.8 27.6 L 53.0 22.3 L 50.2 27.6 L 47.8 25.9 " fill="#191919" />
<path class="atom-2" d="M 226.5 29.3 Q 226.5 22.3, 229.7 18.6 Q 233.1 14.9, 239.3 14.9 Q 245.2 14.9, 248.3 19.0 L 245.7 21.2 Q 243.4 18.2, 239.3 18.2 Q 235.1 18.2, 232.8 21.1 Q 230.5 23.9, 230.5 29.3 Q 230.5 34.9, 232.9 37.8 Q 235.2 40.7, 239.8 40.7 Q 242.9 40.7, 246.5 38.8 L 247.7 41.8 Q 246.2 42.8, 243.9 43.3 Q 241.7 43.9, 239.2 43.9 Q 233.1 43.9, 229.7 40.1 Q 226.5 36.4, 226.5 29.3 " fill="#00CC00" />
<path class="atom-2" d="M 249.9 13.2 L 253.6 13.2 L 253.6 43.5 L 249.9 43.5 L 249.9 13.2 " fill="#00CC00" />
<path class="atom-3" d="M 140.5 185.1 L 144.6 180.9 L 139.1 179.7 L 140.0 176.9 L 145.0 179.5 L 144.3 173.9 L 147.3 173.9 L 146.5 179.4 L 151.6 177.0 L 152.5 179.7 L 146.9 180.8 L 150.9 185.1 L 148.5 186.8 L 145.7 181.5 L 142.9 186.8 L 140.5 185.1 " fill="#191919" />
</svg></g>
   <g id="text_8">
    
    <g style="fill: #262626" transform="translate(304.671214 130.392111)scale(0.12 -0.12)">
     <use ns4:href="#DejaVuSans-20" />
    </g>
   </g>
   <g id="patch_13">
    <path d="M 440.072 154.14  L 578.872 154.14  L 578.872 95.34  L 440.072 95.34  z " style="fill: #ffffff; stroke: #000000; stroke-width: 0.5; stroke-linejoin: miter" />
   </g>
   <g id="sk1">
    <svg version="1.1" baseProfile="full" xml:space="preserve" width="130.0" height="50.000000000000014" viewBox="0 0 300 200" x="444.472" y="99.74">

<rect style="opacity:1.0;fill:#FFFFFF;stroke:none" width="300.0" height="200.0" x="0.0" y="0.0"> </rect>
<path class="bond-0 atom-0 atom-1" d="M 25.2,134.9 L 61.2,114.0" style="fill:none;fill-rule:evenodd;stroke:#CCCCCC;stroke-width:3.9px;stroke-linecap:butt;stroke-linejoin:miter;stroke-opacity:1" />
<path class="bond-1 atom-1 atom-2" d="M 56.8,114.0 L 56.6,65.2" style="fill:none;fill-rule:evenodd;stroke:#CCCCCC;stroke-width:3.9px;stroke-linecap:butt;stroke-linejoin:miter;stroke-opacity:1" />
<path class="bond-1 atom-1 atom-2" d="M 65.6,113.9 L 65.5,65.2" style="fill:none;fill-rule:evenodd;stroke:#CCCCCC;stroke-width:3.9px;stroke-linecap:butt;stroke-linejoin:miter;stroke-opacity:1" />
<path class="bond-2 atom-1 atom-3" d="M 61.2,114.0 L 77.8,123.5" style="fill:none;fill-rule:evenodd;stroke:#000000;stroke-width:2.0px;stroke-linecap:butt;stroke-linejoin:miter;stroke-opacity:1" />
<path class="bond-2 atom-1 atom-3" d="M 77.8,123.5 L 94.4,133.0" style="fill:none;fill-rule:evenodd;stroke:#0000FF;stroke-width:2.0px;stroke-linecap:butt;stroke-linejoin:miter;stroke-opacity:1" />
<path class="bond-3 atom-3 atom-4" d="M 113.5,132.9 L 130.1,123.3" style="fill:none;fill-rule:evenodd;stroke:#0000FF;stroke-width:2.0px;stroke-linecap:butt;stroke-linejoin:miter;stroke-opacity:1" />
<path class="bond-3 atom-3 atom-4" d="M 130.1,123.3 L 146.6,113.7" style="fill:none;fill-rule:evenodd;stroke:#000000;stroke-width:2.0px;stroke-linecap:butt;stroke-linejoin:miter;stroke-opacity:1" />
<path class="bond-4 atom-4 atom-5" d="M 146.6,113.7 L 146.4,64.4" style="fill:none;fill-rule:evenodd;stroke:#000000;stroke-width:2.0px;stroke-linecap:butt;stroke-linejoin:miter;stroke-opacity:1" />
<path class="bond-4 atom-4 atom-5" d="M 155.4,106.2 L 155.3,71.7" style="fill:none;fill-rule:evenodd;stroke:#000000;stroke-width:2.0px;stroke-linecap:butt;stroke-linejoin:miter;stroke-opacity:1" />
<path class="bond-5 atom-5 atom-6" d="M 146.4,64.4 L 189.0,39.6" style="fill:none;fill-rule:evenodd;stroke:#000000;stroke-width:2.0px;stroke-linecap:butt;stroke-linejoin:miter;stroke-opacity:1" />
<path class="bond-6 atom-6 atom-7" d="M 189.0,39.6 L 231.8,64.1" style="fill:none;fill-rule:evenodd;stroke:#000000;stroke-width:2.0px;stroke-linecap:butt;stroke-linejoin:miter;stroke-opacity:1" />
<path class="bond-6 atom-6 atom-7" d="M 191.0,50.9 L 221.0,68.1" style="fill:none;fill-rule:evenodd;stroke:#000000;stroke-width:2.0px;stroke-linecap:butt;stroke-linejoin:miter;stroke-opacity:1" />
<path class="bond-7 atom-7 atom-8" d="M 231.8,64.1 L 248.2,54.5" style="fill:none;fill-rule:evenodd;stroke:#000000;stroke-width:2.0px;stroke-linecap:butt;stroke-linejoin:miter;stroke-opacity:1" />
<path class="bond-7 atom-7 atom-8" d="M 248.2,54.5 L 264.7,44.9" style="fill:none;fill-rule:evenodd;stroke:#00CC00;stroke-width:2.0px;stroke-linecap:butt;stroke-linejoin:miter;stroke-opacity:1" />
<path class="bond-8 atom-7 atom-9" d="M 231.8,64.1 L 232.0,113.4" style="fill:none;fill-rule:evenodd;stroke:#000000;stroke-width:2.0px;stroke-linecap:butt;stroke-linejoin:miter;stroke-opacity:1" />
<path class="bond-9 atom-9 atom-10" d="M 232.0,113.4 L 268.2,134.1" style="fill:none;fill-rule:evenodd;stroke:#CCCCCC;stroke-width:3.9px;stroke-linecap:butt;stroke-linejoin:miter;stroke-opacity:1" />
<path class="bond-10 atom-9 atom-11" d="M 232.0,113.4 L 189.4,138.2" style="fill:none;fill-rule:evenodd;stroke:#000000;stroke-width:2.0px;stroke-linecap:butt;stroke-linejoin:miter;stroke-opacity:1" />
<path class="bond-10 atom-9 atom-11" d="M 221.1,109.4 L 191.3,126.8" style="fill:none;fill-rule:evenodd;stroke:#000000;stroke-width:2.0px;stroke-linecap:butt;stroke-linejoin:miter;stroke-opacity:1" />
<path class="bond-11 atom-11 atom-4" d="M 189.4,138.2 L 146.6,113.7" style="fill:none;fill-rule:evenodd;stroke:#000000;stroke-width:2.0px;stroke-linecap:butt;stroke-linejoin:miter;stroke-opacity:1" />
<path class="atom-0" d="M 14.6 136.4 L 17.7 133.3 L 13.6 132.5 L 14.3 130.4 L 18.0 132.3 L 17.5 128.1 L 19.7 128.1 L 19.1 132.2 L 22.9 130.5 L 23.5 132.5 L 19.4 133.2 L 22.4 136.4 L 20.6 137.7 L 18.5 133.8 L 16.4 137.7 L 14.6 136.4 " fill="#191919" />
<path class="atom-2" d="M 57.1 62.3 L 60.1 59.2 L 56.1 58.4 L 56.7 56.3 L 60.4 58.2 L 59.9 54.0 L 62.1 54.0 L 61.5 58.1 L 65.3 56.4 L 66.0 58.4 L 61.8 59.1 L 64.8 62.3 L 63.0 63.6 L 60.9 59.7 L 58.9 63.6 L 57.1 62.3 " fill="#191919" />
<path class="atom-3" d="M 99.3 128.0 L 106.2 139.1 Q 106.9 140.2, 108.0 142.2 Q 109.1 144.1, 109.1 144.3 L 109.1 128.0 L 111.9 128.0 L 111.9 148.9 L 109.0 148.9 L 101.7 136.8 Q 100.8 135.4, 99.9 133.8 Q 99.0 132.1, 98.8 131.6 L 98.8 148.9 L 96.0 148.9 L 96.0 128.0 L 99.3 128.0 " fill="#0000FF" />
<path class="atom-3" d="M 95.8 151.0 L 98.6 151.0 L 98.6 159.9 L 109.3 159.9 L 109.3 151.0 L 112.2 151.0 L 112.2 172.0 L 109.3 172.0 L 109.3 162.3 L 98.6 162.3 L 98.6 172.0 L 95.8 172.0 L 95.8 151.0 " fill="#0000FF" />
<path class="atom-8" d="M 266.3 40.0 Q 266.3 34.8, 268.7 32.1 Q 271.2 29.3, 275.8 29.3 Q 280.2 29.3, 282.5 32.3 L 280.5 33.9 Q 278.8 31.7, 275.8 31.7 Q 272.7 31.7, 271.0 33.9 Q 269.3 36.0, 269.3 40.0 Q 269.3 44.1, 271.0 46.3 Q 272.8 48.4, 276.2 48.4 Q 278.5 48.4, 281.2 47.0 L 282.0 49.2 Q 280.9 49.9, 279.2 50.3 Q 277.6 50.7, 275.7 50.7 Q 271.2 50.7, 268.7 48.0 Q 266.3 45.2, 266.3 40.0 " fill="#00CC00" />
<path class="atom-8" d="M 283.6 28.0 L 286.4 28.0 L 286.4 50.5 L 283.6 50.5 L 283.6 28.0 " fill="#00CC00" />
<path class="atom-10" d="M 270.8 135.5 L 273.9 132.4 L 269.8 131.6 L 270.4 129.5 L 274.2 131.3 L 273.6 127.2 L 275.8 127.2 L 275.2 131.3 L 279.0 129.5 L 279.7 131.6 L 275.6 132.3 L 278.5 135.5 L 276.7 136.8 L 274.7 132.9 L 272.6 136.8 L 270.8 135.5 " fill="#191919" />
</svg></g>
   <g id="text_9">
    
    <g style="fill: #262626" transform="translate(281.915036 182.41125)scale(0.12 -0.12)">
     <use ns4:href="#DejaVuSans-20" />
    </g>
   </g>
   <g id="patch_14">
    <path d="M 11.528 208.5  L 150.328 208.5  L 150.328 149.7  L 11.528 149.7  z " style="fill: #ffffff; stroke: #000000; stroke-width: 0.5; stroke-linejoin: miter" />
   </g>
   <g id="sk2">
    <svg version="1.1" baseProfile="full" xml:space="preserve" width="130.0" height="50.0" viewBox="0 0 300 200" x="15.928" y="154.1">

<rect style="opacity:1.0;fill:#FFFFFF;stroke:none" width="300.0" height="200.0" x="0.0" y="0.0"> </rect>
<path class="bond-0 atom-0 atom-1" d="M 20.9,117.4 L 60.3,140.0" style="fill:none;fill-rule:evenodd;stroke:#CCCCCC;stroke-width:4.8px;stroke-linecap:butt;stroke-linejoin:miter;stroke-opacity:1" />
<path class="bond-1 atom-1 atom-2" d="M 83.7,139.9 L 103.9,128.1" style="fill:none;fill-rule:evenodd;stroke:#0000FF;stroke-width:2.0px;stroke-linecap:butt;stroke-linejoin:miter;stroke-opacity:1" />
<path class="bond-1 atom-1 atom-2" d="M 103.9,128.1 L 124.1,116.3" style="fill:none;fill-rule:evenodd;stroke:#000000;stroke-width:2.0px;stroke-linecap:butt;stroke-linejoin:miter;stroke-opacity:1" />
<path class="bond-2 atom-2 atom-3" d="M 124.1,116.3 L 123.9,56.1" style="fill:none;fill-rule:evenodd;stroke:#000000;stroke-width:2.0px;stroke-linecap:butt;stroke-linejoin:miter;stroke-opacity:1" />
<path class="bond-2 atom-2 atom-3" d="M 134.9,107.3 L 134.7,65.1" style="fill:none;fill-rule:evenodd;stroke:#000000;stroke-width:2.0px;stroke-linecap:butt;stroke-linejoin:miter;stroke-opacity:1" />
<path class="bond-3 atom-3 atom-4" d="M 123.9,56.1 L 175.9,25.8" style="fill:none;fill-rule:evenodd;stroke:#000000;stroke-width:2.0px;stroke-linecap:butt;stroke-linejoin:miter;stroke-opacity:1" />
<path class="bond-4 atom-4 atom-5" d="M 175.9,25.8 L 228.2,55.7" style="fill:none;fill-rule:evenodd;stroke:#000000;stroke-width:2.0px;stroke-linecap:butt;stroke-linejoin:miter;stroke-opacity:1" />
<path class="bond-4 atom-4 atom-5" d="M 178.4,39.7 L 215.0,60.6" style="fill:none;fill-rule:evenodd;stroke:#000000;stroke-width:2.0px;stroke-linecap:butt;stroke-linejoin:miter;stroke-opacity:1" />
<path class="bond-5 atom-5 atom-6" d="M 228.2,55.7 L 279.1,26.1" style="fill:none;fill-rule:evenodd;stroke:#CCCCCC;stroke-width:4.8px;stroke-linecap:butt;stroke-linejoin:miter;stroke-opacity:1" />
<path class="bond-6 atom-5 atom-7" d="M 228.2,55.7 L 228.4,101.0" style="fill:none;fill-rule:evenodd;stroke:#CCCCCC;stroke-width:4.8px;stroke-linecap:butt;stroke-linejoin:miter;stroke-opacity:1" />
<path class="bond-7 atom-7 atom-8" d="M 227.3,116.7 L 176.4,146.3" style="fill:none;fill-rule:evenodd;stroke:#CCCCCC;stroke-width:4.8px;stroke-linecap:butt;stroke-linejoin:miter;stroke-opacity:1" />
<path class="bond-7 atom-7 atom-8" d="M 214.2,111.7 L 178.5,132.5" style="fill:none;fill-rule:evenodd;stroke:#CCCCCC;stroke-width:4.8px;stroke-linecap:butt;stroke-linejoin:miter;stroke-opacity:1" />
<path class="bond-8 atom-8 atom-2" d="M 176.4,146.3 L 124.1,116.3" style="fill:none;fill-rule:evenodd;stroke:#000000;stroke-width:2.0px;stroke-linecap:butt;stroke-linejoin:miter;stroke-opacity:1" />
<path class="atom-0" d="M 14.9 113.9 L 18.6 110.0 L 13.6 109.0 L 14.4 106.4 L 19.0 108.8 L 18.3 103.7 L 21.0 103.7 L 20.3 108.7 L 25.0 106.6 L 25.7 109.0 L 20.7 110.0 L 24.3 113.8 L 22.1 115.4 L 19.6 110.6 L 17.1 115.4 L 14.9 113.9 " fill="#191919" />
<path class="atom-1" d="M 66.3 133.9 L 74.7 147.4 Q 75.6 148.8, 76.9 151.2 Q 78.2 153.6, 78.3 153.8 L 78.3 133.9 L 81.7 133.9 L 81.7 159.5 L 78.2 159.5 L 69.2 144.6 Q 68.1 142.9, 67.0 140.9 Q 65.9 138.9, 65.6 138.3 L 65.6 159.5 L 62.3 159.5 L 62.3 133.9 L 66.3 133.9 " fill="#0000FF" />
<path class="atom-1" d="M 62.0 162.0 L 65.4 162.0 L 65.4 172.9 L 78.5 172.9 L 78.5 162.0 L 82.0 162.0 L 82.0 187.6 L 78.5 187.6 L 78.5 175.8 L 65.4 175.8 L 65.4 187.6 L 62.0 187.6 L 62.0 162.0 " fill="#0000FF" />
<path class="atom-6" d="M 275.5 22.5 L 279.2 18.7 L 274.3 17.7 L 275.0 15.1 L 279.6 17.4 L 279.0 12.4 L 281.7 12.4 L 280.9 17.4 L 285.6 15.2 L 286.4 17.7 L 281.3 18.6 L 284.9 22.5 L 282.7 24.1 L 280.2 19.3 L 277.7 24.1 L 275.5 22.5 " fill="#191919" />
<path class="atom-7" d="M 223.6 113.1 L 227.4 109.3 L 222.4 108.3 L 223.1 105.7 L 227.7 108.0 L 227.1 103.0 L 229.8 103.0 L 229.0 108.0 L 233.7 105.8 L 234.5 108.3 L 229.4 109.2 L 233.1 113.1 L 230.8 114.7 L 228.4 109.9 L 225.8 114.7 L 223.6 113.1 " fill="#191919" />
</svg></g>
   <g id="text_10">
    
    <g style="fill: #262626" transform="translate(281.915036 234.430389)scale(0.12 -0.12)">
     <use ns4:href="#DejaVuSans-20" />
    </g>
   </g>
   <g id="patch_15">
    <path d="M 11.528 262.86  L 150.328 262.86  L 150.328 204.06  L 11.528 204.06  z " style="fill: #ffffff; stroke: #000000; stroke-width: 0.5; stroke-linejoin: miter" />
   </g>
   <g id="sk3">
    <svg version="1.1" baseProfile="full" xml:space="preserve" width="130.0" height="49.99999999999997" viewBox="0 0 300 200" x="15.928" y="208.46">

<rect style="opacity:1.0;fill:#FFFFFF;stroke:none" width="300.0" height="200.0" x="0.0" y="0.0"> </rect>
<path class="bond-0 atom-0 atom-1" d="M 68.4,180.1 L 149.8,132.6" style="fill:none;fill-rule:evenodd;stroke:#CCCCCC;stroke-width:8.5px;stroke-linecap:butt;stroke-linejoin:miter;stroke-opacity:1" />
<path class="bond-1 atom-1 atom-2" d="M 140.3,132.7 L 139.9,28.7" style="fill:none;fill-rule:evenodd;stroke:#CCCCCC;stroke-width:8.5px;stroke-linecap:butt;stroke-linejoin:miter;stroke-opacity:1" />
<path class="bond-1 atom-1 atom-2" d="M 159.4,132.6 L 159.0,28.6" style="fill:none;fill-rule:evenodd;stroke:#CCCCCC;stroke-width:8.5px;stroke-linecap:butt;stroke-linejoin:miter;stroke-opacity:1;stroke-dasharray:6,0,6" />
<path class="bond-2 atom-3 atom-1" d="M 226.9,187.8 L 145.1,140.9" style="fill:none;fill-rule:evenodd;stroke:#CCCCCC;stroke-width:8.5px;stroke-linecap:butt;stroke-linejoin:miter;stroke-opacity:1" />
<path class="bond-2 atom-3 atom-1" d="M 236.4,171.2 L 154.6,124.4" style="fill:none;fill-rule:evenodd;stroke:#CCCCCC;stroke-width:8.5px;stroke-linecap:butt;stroke-linejoin:miter;stroke-opacity:1;stroke-dasharray:6,0,6" />
<path class="atom-0" d="M 52.8 182.8 L 57.0 178.6 L 51.5 177.5 L 52.3 174.6 L 57.4 177.2 L 56.7 171.6 L 59.7 171.6 L 58.8 177.2 L 64.0 174.8 L 64.9 177.5 L 59.3 178.5 L 63.3 182.8 L 60.8 184.6 L 58.1 179.3 L 55.3 184.6 L 52.8 182.8 " fill="#191919" />
<path class="atom-2" d="M 144.1 23.5 L 148.2 19.2 L 142.7 18.1 L 143.6 15.3 L 148.6 17.8 L 147.9 12.3 L 150.9 12.2 L 150.1 17.8 L 155.2 15.4 L 156.1 18.1 L 150.5 19.1 L 154.5 23.4 L 152.1 25.2 L 149.3 19.9 L 146.5 25.2 L 144.1 23.5 " fill="#191919" />
<path class="atom-3" d="M 236.5 182.2 L 240.7 177.9 L 235.1 176.8 L 236.0 174.0 L 241.1 176.5 L 240.3 171.0 L 243.3 170.9 L 242.5 176.5 L 247.7 174.1 L 248.5 176.8 L 242.9 177.9 L 246.9 182.1 L 244.5 183.9 L 241.7 178.6 L 238.9 183.9 L 236.5 182.2 " fill="#191919" />
</svg></g>
   <g id="text_11">
    
    <g style="fill: #262626" transform="translate(304.671214 286.449528)scale(0.12 -0.12)">
     <use ns4:href="#DejaVuSans-20" />
    </g>
   </g>
   <g id="patch_16">
    <path d="M 440.072 317.22  L 578.872 317.22  L 578.872 258.42  L 440.072 258.42  z " style="fill: #ffffff; stroke: #000000; stroke-width: 0.5; stroke-linejoin: miter" />
   </g>
   <g id="sk4">
    <svg version="1.1" baseProfile="full" xml:space="preserve" width="130.0" height="50.0" viewBox="0 0 300 200" x="444.472" y="262.82">

<rect style="opacity:1.0;fill:#FFFFFF;stroke:none" width="300.0" height="200.0" x="0.0" y="0.0"> </rect>
<path class="bond-0 atom-0 atom-1" d="M 60.9,30.2 L 135.9,73.1" style="fill:none;fill-rule:evenodd;stroke:#CCCCCC;stroke-width:8.6px;stroke-linecap:butt;stroke-linejoin:miter;stroke-opacity:1" />
<path class="bond-1 atom-1 atom-2" d="M 150.3,99.0 L 150.5,170.5" style="fill:none;fill-rule:evenodd;stroke:#CCCCCC;stroke-width:8.6px;stroke-linecap:butt;stroke-linejoin:miter;stroke-opacity:1" />
<path class="bond-2 atom-1 atom-3" d="M 164.5,73.0 L 239.2,29.5" style="fill:none;fill-rule:evenodd;stroke:#CCCCCC;stroke-width:8.6px;stroke-linecap:butt;stroke-linejoin:miter;stroke-opacity:1" />
<path class="atom-0" d="M 51.9 24.9 L 56.1 20.7 L 50.5 19.6 L 51.4 16.7 L 56.5 19.3 L 55.7 13.7 L 58.7 13.7 L 57.9 19.2 L 63.1 16.8 L 63.9 19.6 L 58.3 20.6 L 62.3 24.9 L 59.9 26.6 L 57.1 21.4 L 54.3 26.6 L 51.9 24.9 " fill="#191919" />
<path class="atom-1" d="M 143.9 67.2 L 153.2 82.2 Q 154.1 83.6, 155.6 86.3 Q 157.1 89.0, 157.2 89.2 L 157.2 67.2 L 160.9 67.2 L 160.9 95.5 L 157.1 95.5 L 147.1 79.1 Q 145.9 77.2, 144.7 75.0 Q 143.5 72.8, 143.1 72.1 L 143.1 95.5 L 139.5 95.5 L 139.5 67.2 L 143.9 67.2 " fill="#0000FF" />
<path class="atom-2" d="M 145.2 185.3 L 149.4 181.0 L 143.9 179.9 L 144.7 177.1 L 149.8 179.6 L 149.1 174.1 L 152.1 174.0 L 151.2 179.6 L 156.4 177.2 L 157.3 179.9 L 151.7 180.9 L 155.7 185.2 L 153.2 187.0 L 150.5 181.7 L 147.7 187.0 L 145.2 185.3 " fill="#191919" />
<path class="atom-3" d="M 237.4 24.3 L 241.6 20.0 L 236.1 18.9 L 236.9 16.1 L 242.0 18.6 L 241.3 13.1 L 244.3 13.0 L 243.4 18.6 L 248.6 16.2 L 249.5 18.9 L 243.9 19.9 L 247.9 24.2 L 245.4 26.0 L 242.7 20.7 L 239.9 26.0 L 237.4 24.3 " fill="#191919" />
</svg></g>
   <g id="text_12">
    
    <g style="fill: #262626" transform="translate(244.759687 37.2)scale(0.12 -0.12)">
     <defs>
      <path id="DejaVuSans-45" d="M 628 4666  L 3578 4666  L 3578 4134  L 1259 4134  L 1259 2753  L 3481 2753  L 3481 2222  L 1259 2222  L 1259 531  L 3634 531  L 3634 0  L 628 0  L 628 4666  z " transform="scale(0.015625)" />
      <path id="DejaVuSans-43" d="M 4122 4306  L 4122 3641  Q 3803 3938 3442 4084  Q 3081 4231 2675 4231  Q 1875 4231 1450 3742  Q 1025 3253 1025 2328  Q 1025 1406 1450 917  Q 1875 428 2675 428  Q 3081 428 3442 575  Q 3803 722 4122 1019  L 4122 359  Q 3791 134 3420 21  Q 3050 -91 2638 -91  Q 1578 -91 968 557  Q 359 1206 359 2328  Q 359 3453 968 4101  Q 1578 4750 2638 4750  Q 3056 4750 3426 4639  Q 3797 4528 4122 4306  z " transform="scale(0.015625)" />
      <path id="DejaVuSans-46" d="M 628 4666  L 3309 4666  L 3309 4134  L 1259 4134  L 1259 2759  L 3109 2759  L 3109 2228  L 1259 2228  L 1259 0  L 628 0  L 628 4666  z " transform="scale(0.015625)" />
      <path id="DejaVuSans-50" d="M 1259 4147  L 1259 2394  L 2053 2394  Q 2494 2394 2734 2622  Q 2975 2850 2975 3272  Q 2975 3691 2734 3919  Q 2494 4147 2053 4147  L 1259 4147  z M 628 4666  L 2053 4666  Q 2838 4666 3239 4311  Q 3641 3956 3641 3272  Q 3641 2581 3239 2228  Q 2838 1875 2053 1875  L 1259 1875  L 1259 0  L 628 0  L 628 4666  z " transform="scale(0.015625)" />
      <path id="DejaVuSans-64" d="M 2906 2969  L 2906 4863  L 3481 4863  L 3481 0  L 2906 0  L 2906 525  Q 2725 213 2448 61  Q 2172 -91 1784 -91  Q 1150 -91 751 415  Q 353 922 353 1747  Q 353 2572 751 3078  Q 1150 3584 1784 3584  Q 2172 3584 2448 3432  Q 2725 3281 2906 2969  z M 947 1747  Q 947 1113 1208 752  Q 1469 391 1925 391  Q 2381 391 2643 752  Q 2906 1113 2906 1747  Q 2906 2381 2643 2742  Q 2381 3103 1925 3103  Q 1469 3103 1208 2742  Q 947 2381 947 1747  z " transform="scale(0.015625)" />
     </defs>
     <use ns4:href="#DejaVuSans-45" />
     <use ns4:href="#DejaVuSans-43" x="63.183594" />
     <use ns4:href="#DejaVuSans-46" x="133.007812" />
     <use ns4:href="#DejaVuSans-50" x="190.527344" />
     <use ns4:href="#DejaVuSans-20" x="250.830078" />
     <use ns4:href="#DejaVuSans-64" x="282.617188" />
     <use ns4:href="#DejaVuSans-65" x="346.09375" />
     <use ns4:href="#DejaVuSans-73" x="407.617188" />
     <use ns4:href="#DejaVuSans-63" x="459.716797" />
     <use ns4:href="#DejaVuSans-72" x="514.697266" />
     <use ns4:href="#DejaVuSans-69" x="555.810547" />
     <use ns4:href="#DejaVuSans-70" x="583.59375" />
     <use ns4:href="#DejaVuSans-74" x="647.070312" />
     <use ns4:href="#DejaVuSans-6f" x="686.279297" />
     <use ns4:href="#DejaVuSans-72" x="747.460938" />
     <use ns4:href="#DejaVuSans-73" x="788.574219" />
    </g>
   </g>
  </g>
 </g>
 <defs>
  <clipPath id="pa9df6dc178">
   <rect x="72" y="43.2" width="446.4" height="271.8" />
  </clipPath>
 </defs>
</svg>