<?xml version="1.0" encoding="UTF-8" standalone="no"?>
<svg
   xmlns:dc="http://purl.org/dc/elements/1.1/"
   xmlns:cc="http://creativecommons.org/ns#"
   xmlns:rdf="http://www.w3.org/1999/02/22-rdf-syntax-ns#"
   xmlns:svg="http://www.w3.org/2000/svg"
   xmlns="http://www.w3.org/2000/svg"
   xmlns:sodipodi="http://sodipodi.sourceforge.net/DTD/sodipodi-0.dtd"
   xmlns:inkscape="http://www.inkscape.org/namespaces/inkscape"
   height="113.55882pt"
   version="1.1"
   viewBox="0 0 354.66122 113.55882"
   width="354.66122pt"
   id="svg3327"
   sodipodi:docname="17.svg"
   inkscape:version="1.0.2 (1.0.2+r75+1)">
  <metadata
     id="metadata3333">
    <rdf:RDF>
      <cc:Work
         rdf:about="">
        <dc:format>image/svg+xml</dc:format>
        <dc:type
           rdf:resource="http://purl.org/dc/dcmitype/StillImage" />
        <dc:title></dc:title>
      </cc:Work>
    </rdf:RDF>
  </metadata>
  <defs
     id="defs3331">
    <clipPath
       clipPathUnits="userSpaceOnUse"
       id="clipPath10734">
      <rect
         style="fill:#5fa22c;stroke:#aa0000;stroke-width:0.975;stroke-linejoin:round;stroke-dasharray:1.95, 0.975"
         id="rect10736"
         width="354.66122"
         height="113.55882"
         x="114.5126"
         y="323.46075" />
    </clipPath>
  </defs>
  <sodipodi:namedview
     pagecolor="#ffffff"
     bordercolor="#666666"
     borderopacity="1"
     objecttolerance="10"
     gridtolerance="10"
     guidetolerance="10"
     inkscape:pageopacity="0"
     inkscape:pageshadow="2"
     inkscape:window-width="1920"
     inkscape:window-height="1043"
     id="namedview3329"
     showgrid="false"
     fit-margin-top="0"
     fit-margin-left="0"
     fit-margin-right="0"
     fit-margin-bottom="0"
     inkscape:zoom="0.78206651"
     inkscape:cx="243.9832"
     inkscape:cy="130.05234"
     inkscape:window-x="0"
     inkscape:window-y="0"
     inkscape:window-maximized="1"
     inkscape:current-layer="surface1" />
  <g
     id="surface1"
     transform="translate(-114.5126,-323.46075)">
    <rect
       height="842"
       style="fill:#ffffff;fill-opacity:1;stroke:none"
       width="595"
       x="0"
       y="0"
       id="rect2874"
       clip-path="url(#clipPath10734)" />
    <path
       d="M 2.999978,1.93521e-5 H 2.15023e-5"
       style="fill:none;stroke:#000000;stroke-width:0.06;stroke-linecap:butt;stroke-linejoin:miter;stroke-miterlimit:10;stroke-opacity:1"
       transform="matrix(78.985507,0,0,78.985507,179.02174,382.49457)"
       id="path2876" />
    <path
       d="M 2.999978,0.119998 H 2.15023e-5"
       style="fill:none;stroke:#000000;stroke-width:0.06;stroke-linecap:butt;stroke-linejoin:miter;stroke-miterlimit:10;stroke-opacity:1"
       transform="matrix(78.985507,0,0,78.985507,179.02174,382.49457)"
       id="path2878" />
    <path
       d="M 2.999978,-0.120009 H 2.15023e-5"
       style="fill:none;stroke:#000000;stroke-width:0.06;stroke-linecap:butt;stroke-linejoin:miter;stroke-miterlimit:10;stroke-opacity:1"
       transform="matrix(78.985507,0,0,78.985507,179.02174,382.49457)"
       id="path2880" />
    <path
       d="M 3.450022,1.93521e-5 C 3.450022,0.248532 3.248541,0.450013 2.999978,0.450013 2.751466,0.450013 2.549985,0.248532 2.549985,1.93521e-5 2.549985,-0.248543 2.751466,-0.450024 2.999978,-0.450024 c 0.248563,0 0.450044,0.201481 0.450044,0.4500433521"
       style="fill:#ffffff;fill-opacity:1;fill-rule:nonzero;stroke:#ffffff;stroke-width:0.06;stroke-linecap:butt;stroke-linejoin:miter;stroke-miterlimit:10;stroke-opacity:1"
       transform="matrix(78.985507,0,0,78.985507,179.02174,382.49457)"
       id="path2882" />
    <path
       d="M 3.450022,1.93521e-5 C 3.450022,0.248532 3.248541,0.450013 2.999978,0.450013 2.751466,0.450013 2.549985,0.248532 2.549985,1.93521e-5 2.549985,-0.248543 2.751466,-0.450024 2.999978,-0.450024 c 0.248563,0 0.450044,0.201481 0.450044,0.4500433521"
       style="fill:#8c8c8c;fill-opacity:1;fill-rule:nonzero;stroke:#8c8c8c;stroke-width:0.06;stroke-linecap:butt;stroke-linejoin:miter;stroke-miterlimit:10;stroke-opacity:1"
       transform="matrix(78.985507,0,0,78.985507,179.02174,382.49457)"
       id="path2884" />
    <path
       d="M 3.450022,1.93521e-5 C 3.450022,0.248532 3.248541,0.450013 2.999978,0.450013 2.751466,0.450013 2.549985,0.248532 2.549985,1.93521e-5 2.549985,-0.248543 2.751466,-0.450024 2.999978,-0.450024 c 0.248563,0 0.450044,0.201481 0.450044,0.4500433521"
       style="fill:none;stroke:#ffffff;stroke-width:0.075;stroke-linecap:butt;stroke-linejoin:miter;stroke-miterlimit:10;stroke-opacity:1"
       transform="matrix(78.985507,0,0,78.985507,179.02174,382.49457)"
       id="path2886" />
    <path
       d="M 0.450015,1.93521e-5 C 0.450015,0.248532 0.248534,0.450013 2.15023e-5,0.450013 -0.248541,0.450013 -0.450022,0.248532 -0.450022,1.93521e-5 -0.450022,-0.248543 -0.248541,-0.450024 2.15023e-5,-0.450024 0.248534,-0.450024 0.450015,-0.248543 0.450015,1.93521e-5"
       style="fill:#ffffff;fill-opacity:1;fill-rule:nonzero;stroke:#ffffff;stroke-width:0.06;stroke-linecap:butt;stroke-linejoin:miter;stroke-miterlimit:10;stroke-opacity:1"
       transform="matrix(78.985507,0,0,78.985507,179.02174,382.49457)"
       id="path2888" />
    <path
       d="M 0.450015,1.93521e-5 C 0.450015,0.248532 0.248534,0.450013 2.15023e-5,0.450013 -0.248541,0.450013 -0.450022,0.248532 -0.450022,1.93521e-5 -0.450022,-0.248543 -0.248541,-0.450024 2.15023e-5,-0.450024 0.248534,-0.450024 0.450015,-0.248543 0.450015,1.93521e-5"
       style="fill:#8c8c8c;fill-opacity:1;fill-rule:nonzero;stroke:#8c8c8c;stroke-width:0.06;stroke-linecap:butt;stroke-linejoin:miter;stroke-miterlimit:10;stroke-opacity:1"
       transform="matrix(78.985507,0,0,78.985507,179.02174,382.49457)"
       id="path2890" />
    <path
       d="M 0.450015,1.93521e-5 C 0.450015,0.248532 0.248534,0.450013 2.15023e-5,0.450013 -0.248541,0.450013 -0.450022,0.248532 -0.450022,1.93521e-5 -0.450022,-0.248543 -0.248541,-0.450024 2.15023e-5,-0.450024 0.248534,-0.450024 0.450015,-0.248543 0.450015,1.93521e-5"
       style="fill:none;stroke:#ffffff;stroke-width:0.075;stroke-linecap:butt;stroke-linejoin:miter;stroke-miterlimit:10;stroke-opacity:1"
       transform="matrix(78.985507,0,0,78.985507,179.02174,382.49457)"
       id="path2892" />
  </g>
</svg>
