<?xml version="1.0" encoding="UTF-8" standalone="no"?>
<svg
   xmlns:dc="http://purl.org/dc/elements/1.1/"
   xmlns:cc="http://creativecommons.org/ns#"
   xmlns:rdf="http://www.w3.org/1999/02/22-rdf-syntax-ns#"
   xmlns:svg="http://www.w3.org/2000/svg"
   xmlns="http://www.w3.org/2000/svg"
   xmlns:sodipodi="http://sodipodi.sourceforge.net/DTD/sodipodi-0.dtd"
   xmlns:inkscape="http://www.inkscape.org/namespaces/inkscape"
   height="146.6196pt"
   version="1.1"
   viewBox="0 0 363.67374 146.6196"
   width="363.67374pt"
   id="svg469"
   sodipodi:docname="31.svg"
   inkscape:version="1.0.2 (1.0.2+r75+1)">
  <metadata
     id="metadata475">
    <rdf:RDF>
      <cc:Work
         rdf:about="">
        <dc:format>image/svg+xml</dc:format>
        <dc:type
           rdf:resource="http://purl.org/dc/dcmitype/StillImage" />
        <dc:title></dc:title>
      </cc:Work>
    </rdf:RDF>
  </metadata>
  <defs
     id="defs473">
    <clipPath
       clipPathUnits="userSpaceOnUse"
       id="clipPath1302">
      <rect
         style="fill:#cccccc;stroke:#cccccc;stroke-width:0.975;stroke-linejoin:round;stroke-dasharray:1.95, 0.975;stroke-opacity:1"
         id="rect1304"
         width="363.67374"
         height="146.6196"
         x="115.52393"
         y="312.25116" />
    </clipPath>
  </defs>
  <sodipodi:namedview
     pagecolor="#ffffff"
     bordercolor="#666666"
     borderopacity="1"
     objecttolerance="10"
     gridtolerance="10"
     guidetolerance="10"
     inkscape:pageopacity="0"
     inkscape:pageshadow="2"
     inkscape:window-width="1920"
     inkscape:window-height="1043"
     id="namedview471"
     showgrid="false"
     inkscape:zoom="0.78206651"
     inkscape:cx="242.63476"
     inkscape:cy="144.99847"
     inkscape:window-x="0"
     inkscape:window-y="0"
     inkscape:window-maximized="1"
     inkscape:current-layer="svg469" />
  <g
     id="surface1"
     transform="translate(-115.52393,-312.25116)">
    <rect
       height="842"
       style="fill:#ffffff;fill-opacity:1;stroke:none"
       width="595"
       x="0"
       y="0"
       id="rect2"
       clip-path="url(#clipPath1302)" />
    <path
       d="M 2.999978,1.93521e-5 H 2.15023e-5"
       style="fill:none;stroke:#cccccc;stroke-width:0.12;stroke-linecap:butt;stroke-linejoin:miter;stroke-miterlimit:10;stroke-opacity:1"
       transform="matrix(78.985507,0,0,78.985507,179.02174,382.49457)"
       id="path4" />
    <path
       d="M 3.450022,1.93521e-5 C 3.450022,0.248532 3.248541,0.450013 2.999978,0.450013 2.751466,0.450013 2.549985,0.248532 2.549985,1.93521e-5 2.549985,-0.248543 2.751466,-0.450024 2.999978,-0.450024 c 0.248563,0 0.450044,0.201481 0.450044,0.4500433521"
       style="fill:#ffffff;fill-opacity:1;fill-rule:nonzero;stroke:#ffffff;stroke-width:0.06;stroke-linecap:butt;stroke-linejoin:miter;stroke-miterlimit:10;stroke-opacity:1"
       transform="matrix(78.985507,0,0,78.985507,179.02174,382.49457)"
       id="path6" />
    <path
       d="M 3.450022,1.93521e-5 C 3.450022,0.248532 3.248541,0.450013 2.999978,0.450013 2.751466,0.450013 2.549985,0.248532 2.549985,1.93521e-5 Z m 0,0"
       style="fill:#8c8c8c;fill-opacity:1;fill-rule:nonzero;stroke:#000000;stroke-width:0.0375;stroke-linecap:butt;stroke-linejoin:miter;stroke-miterlimit:10;stroke-opacity:1"
       transform="matrix(78.985507,0,0,78.985507,179.02174,382.49457)"
       id="path8" />
    <path
       d="M 3.539981,1.93521e-5 C 3.539981,0.298235 3.298243,0.540022 2.999978,0.540022 2.701763,0.540022 2.459976,0.298235 2.459976,1.93521e-5"
       style="fill:none;stroke:#cc0000;stroke-width:0.09;stroke-linecap:butt;stroke-linejoin:miter;stroke-miterlimit:10;stroke-opacity:1"
       transform="matrix(78.985507,0,0,78.985507,179.02174,382.49457)"
       id="path10" />
    <path
       d="M 3.448291,-0.0391987 C 3.45927,0.0864672 3.417035,0.210996 3.331774,0.304021 3.246563,0.397046 3.126188,0.450013 2.999978,0.450013 2.873818,0.450013 2.753444,0.397046 2.668233,0.304021 2.582972,0.210996 2.540737,0.0864672 2.551716,-0.0391987"
       style="fill:none;stroke:#ffffff;stroke-width:0.084;stroke-linecap:butt;stroke-linejoin:miter;stroke-miterlimit:10;stroke-opacity:1"
       transform="matrix(78.985507,0,0,78.985507,179.02174,382.49457)"
       id="path12" />
    <path
       d="M 2.549985,1.93521e-5 C 2.549985,-0.248543 2.751466,-0.450024 2.999978,-0.450024 c 0.248563,0 0.450044,0.201481 0.450044,0.4500433521 z m 0,0"
       style="fill:#ffffff;fill-opacity:1;fill-rule:nonzero;stroke:#000000;stroke-width:0.0375;stroke-linecap:butt;stroke-linejoin:miter;stroke-miterlimit:10;stroke-opacity:1"
       transform="matrix(78.985507,0,0,78.985507,179.02174,382.49457)"
       id="path14" />
    <path
       d="M 2.459976,1.93521e-5 C 2.459976,-0.298245 2.701763,-0.539983 2.999978,-0.539983 c 0.298265,0 0.540003,0.241738 0.540003,0.5400023521"
       style="fill:none;stroke:#cc0000;stroke-width:0.09;stroke-linecap:butt;stroke-linejoin:miter;stroke-miterlimit:10;stroke-opacity:1"
       transform="matrix(78.985507,0,0,78.985507,179.02174,382.49457)"
       id="path16" />
    <path
       d="M 2.551716,0.0392374 C 2.540737,-0.0864779 2.582972,-0.211006 2.668233,-0.304032 c 0.085211,-0.093025 0.205585,-0.145992 0.331745,-0.145992 0.12621,0 0.246585,0.052967 0.331796,0.145992 0.085261,0.093026 0.127496,0.2175541 0.116517,0.3432694"
       style="fill:none;stroke:#ffffff;stroke-width:0.084;stroke-linecap:butt;stroke-linejoin:miter;stroke-miterlimit:10;stroke-opacity:1"
       transform="matrix(78.985507,0,0,78.985507,179.02174,382.49457)"
       id="path18" />
    <path
       d="M 2.551716,0.0392374 C 2.540737,-0.0864779 2.582972,-0.211006 2.668233,-0.304032 c 0.085211,-0.093025 0.205585,-0.145992 0.331745,-0.145992 0.12621,0 0.246585,0.052967 0.331796,0.145992 0.085261,0.093026 0.127496,0.2175541 0.116517,0.3432694"
       style="fill:none;stroke:#e6e6e6;stroke-width:0.06;stroke-linecap:butt;stroke-linejoin:miter;stroke-miterlimit:10;stroke-opacity:1"
       transform="matrix(78.985507,0,0,78.985507,179.02174,382.49457)"
       id="path20" />
    <path
       d="M 2.074857,-7.870944 H 1.080867 V 3.82263e-4 h 0.99399 V -3.706932 H 5.735769 V 3.82263e-4 H 6.744412 V -7.870944 H 5.735769 v 3.299461 H 2.074857 v -3.299461"
       style="fill:none;stroke:#ffffff;stroke-width:0.437649;stroke-linecap:round;stroke-linejoin:round;stroke-miterlimit:10;stroke-opacity:1"
       transform="matrix(1.599457,0,0,1.599457,407.29854,372.89783)"
       id="path22" />
    <path
       d="m 410.61719,360.30859 h -1.58985 v 12.58985 h 1.58985 v -5.92969 h 5.85547 v 5.92969 h 1.61328 v -12.58985 h -1.61328 v 5.27735 h -5.85547 v -5.27735"
       style="fill:#000000;fill-opacity:1;fill-rule:nonzero;stroke:none"
       id="path24" />
    <path
       d="M 0.450015,1.93521e-5 C 0.450015,0.248532 0.248534,0.450013 2.15023e-5,0.450013 -0.248541,0.450013 -0.450022,0.248532 -0.450022,1.93521e-5 -0.450022,-0.248543 -0.248541,-0.450024 2.15023e-5,-0.450024 0.248534,-0.450024 0.450015,-0.248543 0.450015,1.93521e-5"
       style="fill:#ffffff;fill-opacity:1;fill-rule:nonzero;stroke:#ffffff;stroke-width:0.06;stroke-linecap:butt;stroke-linejoin:miter;stroke-miterlimit:10;stroke-opacity:1"
       transform="matrix(78.985507,0,0,78.985507,179.02174,382.49457)"
       id="path26" />
    <path
       d="M 0.450015,1.93521e-5 C 0.450015,0.248532 0.248534,0.450013 2.15023e-5,0.450013 V 1.93521e-5 Z m 0,0"
       style="fill:#00994c;fill-opacity:1;fill-rule:nonzero;stroke:#000000;stroke-width:0.0375;stroke-linecap:butt;stroke-linejoin:miter;stroke-miterlimit:10;stroke-opacity:1"
       transform="matrix(78.985507,0,0,78.985507,179.02174,382.49457)"
       id="path28" />
    <path
       d="M 2.15023e-5,0.450013 C -0.248541,0.450013 -0.450022,0.248532 -0.450022,1.93521e-5 H 2.15023e-5 Z m 0,0"
       style="fill:#00ff00;fill-opacity:1;fill-rule:nonzero;stroke:#000000;stroke-width:0.0375;stroke-linecap:butt;stroke-linejoin:miter;stroke-miterlimit:10;stroke-opacity:1"
       transform="matrix(78.985507,0,0,78.985507,179.02174,382.49457)"
       id="path30" />
    <path
       d="M -0.450022,1.93521e-5 C -0.450022,-0.248543 -0.248541,-0.450024 2.15023e-5,-0.450024 V 1.93521e-5 Z m 0,0"
       style="fill:#a1512e;fill-opacity:1;fill-rule:nonzero;stroke:#000000;stroke-width:0.0375;stroke-linecap:butt;stroke-linejoin:miter;stroke-miterlimit:10;stroke-opacity:1"
       transform="matrix(78.985507,0,0,78.985507,179.02174,382.49457)"
       id="path32" />
    <path
       d="M 2.15023e-5,-0.450024 C 0.248534,-0.450024 0.450015,-0.248543 0.450015,1.93521e-5 H 2.15023e-5 Z m 0,0"
       style="fill:#ccb300;fill-opacity:1;fill-rule:nonzero;stroke:#000000;stroke-width:0.0375;stroke-linecap:butt;stroke-linejoin:miter;stroke-miterlimit:10;stroke-opacity:1"
       transform="matrix(78.985507,0,0,78.985507,179.02174,382.49457)"
       id="path34" />
  </g>
</svg>
