<?xml version="1.0" encoding="UTF-8" standalone="no"?>
<svg
   xmlns:dc="http://purl.org/dc/elements/1.1/"
   xmlns:cc="http://creativecommons.org/ns#"
   xmlns:rdf="http://www.w3.org/1999/02/22-rdf-syntax-ns#"
   xmlns:svg="http://www.w3.org/2000/svg"
   xmlns="http://www.w3.org/2000/svg"
   xmlns:sodipodi="http://sodipodi.sourceforge.net/DTD/sodipodi-0.dtd"
   xmlns:inkscape="http://www.inkscape.org/namespaces/inkscape"
   height="105.9134pt"
   version="1.1"
   viewBox="0 0 335.19882 105.9134"
   width="335.19882pt"
   id="svg916"
   sodipodi:docname="33.svg"
   inkscape:version="1.0.2 (1.0.2+r75+1)">
  <metadata
     id="metadata922">
    <rdf:RDF>
      <cc:Work
         rdf:about="">
        <dc:format>image/svg+xml</dc:format>
        <dc:type
           rdf:resource="http://purl.org/dc/dcmitype/StillImage" />
      </cc:Work>
    </rdf:RDF>
  </metadata>
  <defs
     id="defs920">
    <clipPath
       clipPathUnits="userSpaceOnUse"
       id="clipPath9608">
      <rect
         style="fill:#cccccc;stroke:#cccccc;stroke-width:0.975;stroke-linejoin:round;stroke-dasharray:1.95, 0.975;stroke-opacity:1"
         id="rect9610"
         width="335.19882"
         height="105.9134"
         x="125.24157"
         y="329.24084" />
    </clipPath>
  </defs>
  <sodipodi:namedview
     pagecolor="#ffffff"
     bordercolor="#666666"
     borderopacity="1"
     objecttolerance="10"
     gridtolerance="10"
     guidetolerance="10"
     inkscape:pageopacity="0"
     inkscape:pageshadow="2"
     inkscape:window-width="1920"
     inkscape:window-height="1043"
     id="namedview918"
     showgrid="false"
     inkscape:zoom="0.78206651"
     inkscape:cx="229.67791"
     inkscape:cy="122.34555"
     inkscape:window-x="0"
     inkscape:window-y="0"
     inkscape:window-maximized="1"
     inkscape:current-layer="surface1" />
  <g
     id="surface1"
     transform="translate(-125.24157,-329.24084)">
    <rect
       height="842"
       style="fill:#ffffff;fill-opacity:1;stroke:none"
       width="595"
       x="0"
       y="0"
       id="rect467"
       clip-path="url(#clipPath9608)" />
    <path
       d="M 2.999978,1.93521e-5 H 2.15023e-5"
       style="fill:none;stroke:#cccccc;stroke-width:0.12;stroke-linecap:butt;stroke-linejoin:miter;stroke-miterlimit:10;stroke-opacity:1"
       transform="matrix(78.985507,0,0,78.985507,179.02174,382.49457)"
       id="path469" />
    <path
       d="M 3.450022,1.93521e-5 C 3.450022,0.248532 3.248541,0.450013 2.999978,0.450013 2.751466,0.450013 2.549985,0.248532 2.549985,1.93521e-5 2.549985,-0.248543 2.751466,-0.450024 2.999978,-0.450024 c 0.248563,0 0.450044,0.201481 0.450044,0.4500433521"
       style="fill:#ffffff;fill-opacity:1;fill-rule:nonzero;stroke:#ffffff;stroke-width:0.06;stroke-linecap:butt;stroke-linejoin:miter;stroke-miterlimit:10;stroke-opacity:1"
       transform="matrix(78.985507,0,0,78.985507,179.02174,382.49457)"
       id="path471" />
    <path
       d="M 3.450022,1.93521e-5 C 3.450022,0.248532 3.248541,0.450013 2.999978,0.450013 2.751466,0.450013 2.549985,0.248532 2.549985,1.93521e-5 2.549985,-0.248543 2.751466,-0.450024 2.999978,-0.450024 c 0.248563,0 0.450044,0.201481 0.450044,0.4500433521"
       style="fill:#1975ff;fill-opacity:1;fill-rule:nonzero;stroke:#1975ff;stroke-width:0.06;stroke-linecap:butt;stroke-linejoin:miter;stroke-miterlimit:10;stroke-opacity:1"
       transform="matrix(78.985507,0,0,78.985507,179.02174,382.49457)"
       id="path473" />
    <path
       d="M 3.450022,1.93521e-5 C 3.450022,0.248532 3.248541,0.450013 2.999978,0.450013 2.751466,0.450013 2.549985,0.248532 2.549985,1.93521e-5 2.549985,-0.248543 2.751466,-0.450024 2.999978,-0.450024 c 0.248563,0 0.450044,0.201481 0.450044,0.4500433521"
       style="fill:none;stroke:#ffffff;stroke-width:0.075;stroke-linecap:butt;stroke-linejoin:miter;stroke-miterlimit:10;stroke-opacity:1"
       transform="matrix(78.985507,0,0,78.985507,179.02174,382.49457)"
       id="path475" />
    <path
       d="M 0.450015,1.93521e-5 C 0.450015,0.248532 0.248534,0.450013 2.15023e-5,0.450013 -0.248541,0.450013 -0.450022,0.248532 -0.450022,1.93521e-5 -0.450022,-0.248543 -0.248541,-0.450024 2.15023e-5,-0.450024 0.248534,-0.450024 0.450015,-0.248543 0.450015,1.93521e-5"
       style="fill:#ffffff;fill-opacity:1;fill-rule:nonzero;stroke:#ffffff;stroke-width:0.06;stroke-linecap:butt;stroke-linejoin:miter;stroke-miterlimit:10;stroke-opacity:1"
       transform="matrix(78.985507,0,0,78.985507,179.02174,382.49457)"
       id="path477" />
    <path
       d="M 0.450015,1.93521e-5 C 0.450015,0.248532 0.248534,0.450013 2.15023e-5,0.450013 -0.248541,0.450013 -0.450022,0.248532 -0.450022,1.93521e-5 -0.450022,-0.248543 -0.248541,-0.450024 2.15023e-5,-0.450024 0.248534,-0.450024 0.450015,-0.248543 0.450015,1.93521e-5"
       style="fill:#ffd900;fill-opacity:1;fill-rule:nonzero;stroke:#ffd900;stroke-width:0.06;stroke-linecap:butt;stroke-linejoin:miter;stroke-miterlimit:10;stroke-opacity:1"
       transform="matrix(78.985507,0,0,78.985507,179.02174,382.49457)"
       id="path479" />
    <path
       d="M 0.450015,1.93521e-5 C 0.450015,0.248532 0.248534,0.450013 2.15023e-5,0.450013 -0.248541,0.450013 -0.450022,0.248532 -0.450022,1.93521e-5 -0.450022,-0.248543 -0.248541,-0.450024 2.15023e-5,-0.450024 0.248534,-0.450024 0.450015,-0.248543 0.450015,1.93521e-5"
       style="fill:none;stroke:#ffffff;stroke-width:0.075;stroke-linecap:butt;stroke-linejoin:miter;stroke-miterlimit:10;stroke-opacity:1"
       transform="matrix(78.985507,0,0,78.985507,179.02174,382.49457)"
       id="path481" />
  </g>
</svg>
