<?xml version="1.0" encoding="UTF-8" standalone="no"?>
<svg
   xmlns:dc="http://purl.org/dc/elements/1.1/"
   xmlns:cc="http://creativecommons.org/ns#"
   xmlns:rdf="http://www.w3.org/1999/02/22-rdf-syntax-ns#"
   xmlns:svg="http://www.w3.org/2000/svg"
   xmlns="http://www.w3.org/2000/svg"
   xmlns:sodipodi="http://sodipodi.sourceforge.net/DTD/sodipodi-0.dtd"
   xmlns:inkscape="http://www.inkscape.org/namespaces/inkscape"
   height="421.33847pt"
   version="1.1"
   viewBox="0 0 412.30615 421.33847"
   width="412.30615pt"
   id="svg2920"
   sodipodi:docname="56.svg"
   inkscape:version="1.0.2 (1.0.2+r75+1)">
  <metadata
     id="metadata2926">
    <rdf:RDF>
      <cc:Work
         rdf:about="">
        <dc:format>image/svg+xml</dc:format>
        <dc:type
           rdf:resource="http://purl.org/dc/dcmitype/StillImage" />
      </cc:Work>
    </rdf:RDF>
  </metadata>
  <defs
     id="defs2924">
    <clipPath
       clipPathUnits="userSpaceOnUse"
       id="clipPath10714">
      <rect
         style="fill:#cccccc;stroke:#cccccc;stroke-width:0.975;stroke-linejoin:round;stroke-dasharray:1.95, 0.975;stroke-opacity:1"
         id="rect10716"
         width="412.30615"
         height="421.33847"
         x="87.346878"
         y="178.68758" />
    </clipPath>
  </defs>
  <sodipodi:namedview
     pagecolor="#ffffff"
     bordercolor="#666666"
     borderopacity="1"
     objecttolerance="10"
     gridtolerance="10"
     guidetolerance="10"
     inkscape:pageopacity="0"
     inkscape:pageshadow="2"
     inkscape:window-width="1920"
     inkscape:window-height="1043"
     id="namedview2922"
     showgrid="false"
     inkscape:zoom="0.78206651"
     inkscape:cx="280.20417"
     inkscape:cy="323.08324"
     inkscape:window-x="0"
     inkscape:window-y="0"
     inkscape:window-maximized="1"
     inkscape:current-layer="surface1" />
  <g
     id="surface1"
     transform="translate(-87.346878,-178.68758)">
    <rect
       height="842"
       style="fill:#ffffff;fill-opacity:1;stroke:none"
       width="595"
       x="0"
       y="0"
       id="rect2455"
       clip-path="url(#clipPath10714)" />
    <path
       d="M 4.499974,2.598096 2.999991,8.60092e-6"
       style="fill:none;stroke:#cccccc;stroke-width:0.12;stroke-linecap:butt;stroke-linejoin:miter;stroke-miterlimit:10;stroke-opacity:1"
       transform="matrix(64.880952,0,0,64.880952,151.51786,389.37054)"
       id="path2457" />
    <path
       d="M 2.999991,8.60092e-6 4.499974,-2.598079"
       style="fill:none;stroke:#cccccc;stroke-width:0.12;stroke-linecap:butt;stroke-linejoin:miter;stroke-miterlimit:10;stroke-opacity:1"
       transform="matrix(64.880952,0,0,64.880952,151.51786,389.37054)"
       id="path2459" />
    <path
       d="M 2.999991,8.60092e-6 H 2.58028e-5"
       style="fill:none;stroke:#cccccc;stroke-width:0.12;stroke-linecap:butt;stroke-linejoin:miter;stroke-miterlimit:10;stroke-opacity:1"
       transform="matrix(64.880952,0,0,64.880952,151.51786,389.37054)"
       id="path2461" />
    <path
       d="m 4.950017,2.598096 c 0,0.248532 -0.201511,0.449983 -0.450043,0.449983 -0.248532,0 -0.449983,-0.201451 -0.449983,-0.449983 0,-0.248532 0.201451,-0.450043 0.449983,-0.450043 0.248532,0 0.450043,0.201511 0.450043,0.450043"
       style="fill:#ffffff;fill-opacity:1;fill-rule:nonzero;stroke:#ffffff;stroke-width:0.06;stroke-linecap:butt;stroke-linejoin:miter;stroke-miterlimit:10;stroke-opacity:1"
       transform="matrix(64.880952,0,0,64.880952,151.51786,389.37054)"
       id="path2463" />
    <path
       d="m 4.950017,2.598096 c 0,0.248532 -0.201511,0.449983 -0.450043,0.449983 -0.248532,0 -0.449983,-0.201451 -0.449983,-0.449983 0,-0.248532 0.201451,-0.450043 0.449983,-0.450043 0.248532,0 0.450043,0.201511 0.450043,0.450043"
       style="fill:#ff0000;fill-opacity:1;fill-rule:nonzero;stroke:#ff0000;stroke-width:0.06;stroke-linecap:butt;stroke-linejoin:miter;stroke-miterlimit:10;stroke-opacity:1"
       transform="matrix(64.880952,0,0,64.880952,151.51786,389.37054)"
       id="path2465" />
    <path
       d="m 4.950017,2.598096 c 0,0.248532 -0.201511,0.449983 -0.450043,0.449983 -0.248532,0 -0.449983,-0.201451 -0.449983,-0.449983 0,-0.248532 0.201451,-0.450043 0.449983,-0.450043 0.248532,0 0.450043,0.201511 0.450043,0.450043"
       style="fill:none;stroke:#ffffff;stroke-width:0.075;stroke-linecap:butt;stroke-linejoin:miter;stroke-miterlimit:10;stroke-opacity:1"
       transform="matrix(64.880952,0,0,64.880952,151.51786,389.37054)"
       id="path2467" />
    <path
       d="M 3.449974,8.60092e-6 C 3.449974,0.248541 3.248524,0.449991 2.999991,0.449991 2.751459,0.449991 2.550009,0.248541 2.550009,8.60092e-6 2.550009,-0.248524 2.751459,-0.449974 2.999991,-0.449974 c 0.248533,0 0.449983,0.20145 0.449983,0.44998260092"
       style="fill:#ffffff;fill-opacity:1;fill-rule:nonzero;stroke:#ffffff;stroke-width:0.06;stroke-linecap:butt;stroke-linejoin:miter;stroke-miterlimit:10;stroke-opacity:1"
       transform="matrix(64.880952,0,0,64.880952,151.51786,389.37054)"
       id="path2469" />
    <path
       d="M 3.449974,8.60092e-6 C 3.449974,0.248541 3.248524,0.449991 2.999991,0.449991 2.751459,0.449991 2.550009,0.248541 2.550009,8.60092e-6 2.550009,-0.248524 2.751459,-0.449974 2.999991,-0.449974 c 0.248533,0 0.449983,0.20145 0.449983,0.44998260092"
       style="fill:#1975ff;fill-opacity:1;fill-rule:nonzero;stroke:#1975ff;stroke-width:0.06;stroke-linecap:butt;stroke-linejoin:miter;stroke-miterlimit:10;stroke-opacity:1"
       transform="matrix(64.880952,0,0,64.880952,151.51786,389.37054)"
       id="path2471" />
    <path
       d="M 3.449974,8.60092e-6 C 3.449974,0.248541 3.248524,0.449991 2.999991,0.449991 2.751459,0.449991 2.550009,0.248541 2.550009,8.60092e-6 2.550009,-0.248524 2.751459,-0.449974 2.999991,-0.449974 c 0.248533,0 0.449983,0.20145 0.449983,0.44998260092"
       style="fill:none;stroke:#ffffff;stroke-width:0.075;stroke-linecap:butt;stroke-linejoin:miter;stroke-miterlimit:10;stroke-opacity:1"
       transform="matrix(64.880952,0,0,64.880952,151.51786,389.37054)"
       id="path2473" />
    <path
       d="m 4.950017,-2.598079 c 0,0.248532 -0.201511,0.449983 -0.450043,0.449983 -0.248532,0 -0.449983,-0.201451 -0.449983,-0.449983 0,-0.248532 0.201451,-0.449983 0.449983,-0.449983 0.248532,0 0.450043,0.201451 0.450043,0.449983"
       style="fill:#ffffff;fill-opacity:1;fill-rule:nonzero;stroke:#ffffff;stroke-width:0.06;stroke-linecap:butt;stroke-linejoin:miter;stroke-miterlimit:10;stroke-opacity:1"
       transform="matrix(64.880952,0,0,64.880952,151.51786,389.37054)"
       id="path2475" />
    <path
       d="m 4.950017,-2.598079 c 0,0.248532 -0.201511,0.449983 -0.450043,0.449983 -0.248532,0 -0.449983,-0.201451 -0.449983,-0.449983 0,-0.248532 0.201451,-0.449983 0.449983,-0.449983 0.248532,0 0.450043,0.201451 0.450043,0.449983"
       style="fill:#ff0000;fill-opacity:1;fill-rule:nonzero;stroke:#ff0000;stroke-width:0.06;stroke-linecap:butt;stroke-linejoin:miter;stroke-miterlimit:10;stroke-opacity:1"
       transform="matrix(64.880952,0,0,64.880952,151.51786,389.37054)"
       id="path2477" />
    <path
       d="m 4.950017,-2.598079 c 0,0.248532 -0.201511,0.449983 -0.450043,0.449983 -0.248532,0 -0.449983,-0.201451 -0.449983,-0.449983 0,-0.248532 0.201451,-0.449983 0.449983,-0.449983 0.248532,0 0.450043,0.201451 0.450043,0.449983"
       style="fill:none;stroke:#ffffff;stroke-width:0.075;stroke-linecap:butt;stroke-linejoin:miter;stroke-miterlimit:10;stroke-opacity:1"
       transform="matrix(64.880952,0,0,64.880952,151.51786,389.37054)"
       id="path2479" />
    <path
       d="M 0.450009,8.60092e-6 C 0.450009,0.248541 0.248558,0.449991 2.58028e-5,0.449991 -0.248506,0.449991 -0.450017,0.248541 -0.450017,8.60092e-6 -0.450017,-0.248524 -0.248506,-0.449974 2.58028e-5,-0.449974 0.248558,-0.449974 0.450009,-0.248524 0.450009,8.60092e-6"
       style="fill:#ffffff;fill-opacity:1;fill-rule:nonzero;stroke:#ffffff;stroke-width:0.06;stroke-linecap:butt;stroke-linejoin:miter;stroke-miterlimit:10;stroke-opacity:1"
       transform="matrix(64.880952,0,0,64.880952,151.51786,389.37054)"
       id="path2481" />
    <path
       d="M 0.450009,8.60092e-6 C 0.450009,0.248541 0.248558,0.449991 2.58028e-5,0.449991 -0.248506,0.449991 -0.450017,0.248541 -0.450017,8.60092e-6 -0.450017,-0.248524 -0.248506,-0.449974 2.58028e-5,-0.449974 0.248558,-0.449974 0.450009,-0.248524 0.450009,8.60092e-6"
       style="fill:#8c8c8c;fill-opacity:1;fill-rule:nonzero;stroke:#8c8c8c;stroke-width:0.06;stroke-linecap:butt;stroke-linejoin:miter;stroke-miterlimit:10;stroke-opacity:1"
       transform="matrix(64.880952,0,0,64.880952,151.51786,389.37054)"
       id="path2483" />
    <path
       d="M 0.450009,8.60092e-6 C 0.450009,0.248541 0.248558,0.449991 2.58028e-5,0.449991 -0.248506,0.449991 -0.450017,0.248541 -0.450017,8.60092e-6 -0.450017,-0.248524 -0.248506,-0.449974 2.58028e-5,-0.449974 0.248558,-0.449974 0.450009,-0.248524 0.450009,8.60092e-6"
       style="fill:none;stroke:#ffffff;stroke-width:0.075;stroke-linecap:butt;stroke-linejoin:miter;stroke-miterlimit:10;stroke-opacity:1"
       transform="matrix(64.880952,0,0,64.880952,151.51786,389.37054)"
       id="path2485" />
  </g>
</svg>
