<?xml version="1.0" encoding="UTF-8" standalone="no"?>
<svg
   xmlns:dc="http://purl.org/dc/elements/1.1/"
   xmlns:cc="http://creativecommons.org/ns#"
   xmlns:rdf="http://www.w3.org/1999/02/22-rdf-syntax-ns#"
   xmlns:svg="http://www.w3.org/2000/svg"
   xmlns="http://www.w3.org/2000/svg"
   xmlns:sodipodi="http://sodipodi.sourceforge.net/DTD/sodipodi-0.dtd"
   xmlns:inkscape="http://www.inkscape.org/namespaces/inkscape"
   height="174.36568pt"
   version="1.1"
   viewBox="0 0 429.58472 174.36568"
   width="429.58472pt"
   id="svg3880"
   sodipodi:docname="58.svg"
   inkscape:version="1.0.2 (1.0.2+r75+1)">
  <metadata
     id="metadata3886">
    <rdf:RDF>
      <cc:Work
         rdf:about="">
        <dc:format>image/svg+xml</dc:format>
        <dc:type
           rdf:resource="http://purl.org/dc/dcmitype/StillImage" />
      </cc:Work>
    </rdf:RDF>
  </metadata>
  <defs
     id="defs3884">
    <clipPath
       clipPathUnits="userSpaceOnUse"
       id="clipPath10702">
      <rect
         style="fill:#cccccc;stroke:#cccccc;stroke-width:0.975;stroke-linejoin:round;stroke-dasharray:1.95, 0.975;stroke-opacity:1"
         id="rect10704"
         width="429.58472"
         height="174.36568"
         x="87.993546"
         y="291.84302" />
    </clipPath>
  </defs>
  <sodipodi:namedview
     pagecolor="#ffffff"
     bordercolor="#666666"
     borderopacity="1"
     objecttolerance="10"
     gridtolerance="10"
     guidetolerance="10"
     inkscape:pageopacity="0"
     inkscape:pageshadow="2"
     inkscape:window-width="1920"
     inkscape:window-height="1043"
     id="namedview3882"
     showgrid="false"
     inkscape:zoom="0.78206651"
     inkscape:cx="279.34194"
     inkscape:cy="172.20932"
     inkscape:window-x="0"
     inkscape:window-y="0"
     inkscape:window-maximized="1"
     inkscape:current-layer="surface1" />
  <g
     id="surface1"
     transform="translate(-87.993546,-291.84302)">
    <rect
       height="842"
       style="fill:#ffffff;fill-opacity:1;stroke:none"
       width="595"
       x="0"
       y="0"
       id="rect3395"
       clip-path="url(#clipPath10702)" />
    <path
       d="M -5.196139,1.38393e-5 -2.598076,1.499979"
       style="fill:none;stroke:#cccccc;stroke-width:0.12;stroke-linecap:butt;stroke-linejoin:miter;stroke-miterlimit:10;stroke-opacity:1"
       transform="matrix(59.915443,0,0,59.915443,453.16489,346.85464)"
       id="path3397" />
    <path
       d="M -2.598076,1.499979 -1.3754e-5,1.38393e-5"
       style="fill:none;stroke:#cccccc;stroke-width:0.12;stroke-linecap:butt;stroke-linejoin:miter;stroke-miterlimit:10;stroke-opacity:1"
       transform="matrix(59.915443,0,0,59.915443,453.16489,346.85464)"
       id="path3399" />
    <path
       d="M -4.746156,1.38393e-5 C -4.746156,0.248541 -4.947611,0.449997 -5.196139,0.449997 c -0.248527,0 -0.449983,-0.201456 -0.449983,-0.4499831607 0,-0.2485268393 0.201456,-0.4499828393 0.449983,-0.4499828393 0.248528,0 0.449983,0.201456 0.449983,0.4499828393"
       style="fill:#ffffff;fill-opacity:1;fill-rule:nonzero;stroke:#ffffff;stroke-width:0.06;stroke-linecap:butt;stroke-linejoin:miter;stroke-miterlimit:10;stroke-opacity:1"
       transform="matrix(59.915443,0,0,59.915443,453.16489,346.85464)"
       id="path3401" />
    <path
       d="M -4.746156,1.38393e-5 C -4.746156,0.248541 -4.947611,0.449997 -5.196139,0.449997 c -0.248527,0 -0.449983,-0.201456 -0.449983,-0.4499831607 z m 0,0"
       style="fill:#8c8c8c;fill-opacity:1;fill-rule:nonzero;stroke:#000000;stroke-width:0.0375;stroke-linecap:butt;stroke-linejoin:miter;stroke-miterlimit:10;stroke-opacity:1"
       transform="matrix(59.915443,0,0,59.915443,453.16489,346.85464)"
       id="path3403" />
    <path
       d="M -4.656185,1.38393e-5 C -4.656185,0.298221 -4.897932,0.539967 -5.196139,0.539967 c -0.298272,0 -0.540019,-0.241746 -0.540019,-0.5399531607"
       style="fill:none;stroke:#cc0000;stroke-width:0.09;stroke-linecap:butt;stroke-linejoin:miter;stroke-miterlimit:10;stroke-opacity:1"
       transform="matrix(59.915443,0,0,59.915443,453.16489,346.85464)"
       id="path3405" />
    <path
       d="m -4.747851,-0.0392342 c 0.010953,0.125698 -0.031294,0.2502222 -0.116505,0.3432572 -0.085276,0.093035 -0.205628,0.145974 -0.331783,0.145974 -0.126154,0 -0.246571,-0.052939 -0.331782,-0.145974 -0.085212,-0.093035 -0.127524,-0.2175592 -0.116506,-0.3432572"
       style="fill:none;stroke:#ffffff;stroke-width:0.084;stroke-linecap:butt;stroke-linejoin:miter;stroke-miterlimit:10;stroke-opacity:1"
       transform="matrix(59.915443,0,0,59.915443,453.16489,346.85464)"
       id="path3407" />
    <path
       d="m -5.646122,1.38393e-5 c 0,-0.2485268393 0.201456,-0.4499828393 0.449983,-0.4499828393 0.248528,0 0.449983,0.201456 0.449983,0.4499828393 z m 0,0"
       style="fill:#ffffff;fill-opacity:1;fill-rule:nonzero;stroke:#000000;stroke-width:0.0375;stroke-linecap:butt;stroke-linejoin:miter;stroke-miterlimit:10;stroke-opacity:1"
       transform="matrix(59.915443,0,0,59.915443,453.16489,346.85464)"
       id="path3409" />
    <path
       d="m -5.736158,1.38393e-5 c 0,-0.2982718393 0.241747,-0.5400188393 0.540019,-0.5400188393 0.298207,0 0.539954,0.241747 0.539954,0.5400188393"
       style="fill:none;stroke:#cc0000;stroke-width:0.09;stroke-linecap:butt;stroke-linejoin:miter;stroke-miterlimit:10;stroke-opacity:1"
       transform="matrix(59.915443,0,0,59.915443,453.16489,346.85464)"
       id="path3411" />
    <path
       d="m -5.644427,0.0391967 c -0.011018,-0.1256328 0.031294,-0.2502227 0.116506,-0.3431917 0.085211,-0.093035 0.205628,-0.145974 0.331782,-0.145974 0.126155,0 0.246507,0.052939 0.331783,0.145974 0.085211,0.092969 0.127458,0.2175589 0.116505,0.3431917"
       style="fill:none;stroke:#ffffff;stroke-width:0.084;stroke-linecap:butt;stroke-linejoin:miter;stroke-miterlimit:10;stroke-opacity:1"
       transform="matrix(59.915443,0,0,59.915443,453.16489,346.85464)"
       id="path3413" />
    <path
       d="m -5.644427,0.0391967 c -0.011018,-0.1256328 0.031294,-0.2502227 0.116506,-0.3431917 0.085211,-0.093035 0.205628,-0.145974 0.331782,-0.145974 0.126155,0 0.246507,0.052939 0.331783,0.145974 0.085211,0.092969 0.127458,0.2175589 0.116505,0.3431917"
       style="fill:none;stroke:#e6e6e6;stroke-width:0.06;stroke-linecap:butt;stroke-linejoin:miter;stroke-miterlimit:10;stroke-opacity:1"
       transform="matrix(59.915443,0,0,59.915443,453.16489,346.85464)"
       id="path3415" />
    <path
       d="M 2.075786,-7.872391 H 1.080943 V -5.72422e-4 H 2.075786 V -3.709503 H 5.736423 V -5.72422e-4 H 6.744145 V -7.872391 H 5.736423 v 3.300046 H 2.075786 v -3.300046"
       style="fill:none;stroke:#ffffff;stroke-width:0.576945;stroke-linecap:round;stroke-linejoin:round;stroke-miterlimit:10;stroke-opacity:1"
       transform="matrix(1.213288,0,0,1.213288,135.251,339.57491)"
       id="path3417" />
    <path
       d="m 137.76953,330.02344 h -1.20703 v 9.55078 h 1.20703 v -4.5 h 4.44141 v 4.5 h 1.22265 v -9.55078 h -1.22265 v 4.0039 h -4.44141 v -4.0039"
       style="fill:#000000;fill-opacity:1;fill-rule:nonzero;stroke:none"
       id="path3419" />
    <path
       d="m -2.148093,1.499979 c 0,0.248528 -0.201456,0.450049 -0.449983,0.450049 -0.248528,0 -0.449983,-0.201521 -0.449983,-0.450049 0,-0.248527 0.201455,-0.449983 0.449983,-0.449983 0.248527,0 0.449983,0.201456 0.449983,0.449983"
       style="fill:#ffffff;fill-opacity:1;fill-rule:nonzero;stroke:#ffffff;stroke-width:0.06;stroke-linecap:butt;stroke-linejoin:miter;stroke-miterlimit:10;stroke-opacity:1"
       transform="matrix(59.915443,0,0,59.915443,453.16489,346.85464)"
       id="path3421" />
    <path
       d="m -2.148093,1.499979 c 0,0.248528 -0.201456,0.450049 -0.449983,0.450049 -0.248528,0 -0.449983,-0.201521 -0.449983,-0.450049 0,-0.248527 0.201455,-0.449983 0.449983,-0.449983 0.248527,0 0.449983,0.201456 0.449983,0.449983"
       style="fill:#ffd900;fill-opacity:1;fill-rule:nonzero;stroke:#ffd900;stroke-width:0.06;stroke-linecap:butt;stroke-linejoin:miter;stroke-miterlimit:10;stroke-opacity:1"
       transform="matrix(59.915443,0,0,59.915443,453.16489,346.85464)"
       id="path3423" />
    <path
       d="m -2.148093,1.499979 c 0,0.248528 -0.201456,0.450049 -0.449983,0.450049 -0.248528,0 -0.449983,-0.201521 -0.449983,-0.450049 0,-0.248527 0.201455,-0.449983 0.449983,-0.449983 0.248527,0 0.449983,0.201456 0.449983,0.449983"
       style="fill:none;stroke:#ffffff;stroke-width:0.075;stroke-linecap:butt;stroke-linejoin:miter;stroke-miterlimit:10;stroke-opacity:1"
       transform="matrix(59.915443,0,0,59.915443,453.16489,346.85464)"
       id="path3425" />
    <path
       d="M 0.449969,1.38393e-5 C 0.449969,0.248541 0.248514,0.449997 -1.3754e-5,0.449997 -0.248541,0.449997 -0.449997,0.248541 -0.449997,1.38393e-5 -0.449997,-0.248513 -0.248541,-0.449969 -1.3754e-5,-0.449969 0.248514,-0.449969 0.449969,-0.248513 0.449969,1.38393e-5"
       style="fill:#ffffff;fill-opacity:1;fill-rule:nonzero;stroke:#ffffff;stroke-width:0.06;stroke-linecap:butt;stroke-linejoin:miter;stroke-miterlimit:10;stroke-opacity:1"
       transform="matrix(59.915443,0,0,59.915443,453.16489,346.85464)"
       id="path3427" />
    <path
       d="M 0.449969,1.38393e-5 C 0.449969,0.248541 0.248514,0.449997 -1.3754e-5,0.449997 -0.248541,0.449997 -0.449997,0.248541 -0.449997,1.38393e-5 Z m 0,0"
       style="fill:#8c8c8c;fill-opacity:1;fill-rule:nonzero;stroke:#000000;stroke-width:0.0375;stroke-linecap:butt;stroke-linejoin:miter;stroke-miterlimit:10;stroke-opacity:1"
       transform="matrix(59.915443,0,0,59.915443,453.16489,346.85464)"
       id="path3429" />
    <path
       d="M 0.540005,1.38393e-5 C 0.540005,0.298221 0.298258,0.539967 -1.3754e-5,0.539967 -0.29822,0.539967 -0.539967,0.298221 -0.539967,1.38393e-5"
       style="fill:none;stroke:#cc0000;stroke-width:0.09;stroke-linecap:butt;stroke-linejoin:miter;stroke-miterlimit:10;stroke-opacity:1"
       transform="matrix(59.915443,0,0,59.915443,453.16489,346.85464)"
       id="path3431" />
    <path
       d="M 0.448274,-0.0392342 C 0.459292,0.0864638 0.41698,0.210988 0.331769,0.304023 0.246558,0.397058 0.126141,0.449997 -1.3754e-5,0.449997 -0.126168,0.449997 -0.24652,0.397058 -0.331796,0.304023 -0.417008,0.210988 -0.459255,0.0864638 -0.448302,-0.0392342"
       style="fill:none;stroke:#ffffff;stroke-width:0.084;stroke-linecap:butt;stroke-linejoin:miter;stroke-miterlimit:10;stroke-opacity:1"
       transform="matrix(59.915443,0,0,59.915443,453.16489,346.85464)"
       id="path3433" />
    <path
       d="M -0.449997,1.38393e-5 C -0.449997,-0.248513 -0.248541,-0.449969 -1.3754e-5,-0.449969 0.248514,-0.449969 0.449969,-0.248513 0.449969,1.38393e-5 Z m 0,0"
       style="fill:#ffffff;fill-opacity:1;fill-rule:nonzero;stroke:#000000;stroke-width:0.0375;stroke-linecap:butt;stroke-linejoin:miter;stroke-miterlimit:10;stroke-opacity:1"
       transform="matrix(59.915443,0,0,59.915443,453.16489,346.85464)"
       id="path3435" />
    <path
       d="M -0.539967,1.38393e-5 C -0.539967,-0.298258 -0.29822,-0.540005 -1.3754e-5,-0.540005 0.298258,-0.540005 0.540005,-0.298258 0.540005,1.38393e-5"
       style="fill:none;stroke:#cc0000;stroke-width:0.09;stroke-linecap:butt;stroke-linejoin:miter;stroke-miterlimit:10;stroke-opacity:1"
       transform="matrix(59.915443,0,0,59.915443,453.16489,346.85464)"
       id="path3437" />
    <path
       d="M -0.448302,0.0391967 C -0.459255,-0.0864361 -0.417008,-0.211026 -0.331796,-0.303995 -0.24652,-0.39703 -0.126168,-0.449969 -1.3754e-5,-0.449969 0.126141,-0.449969 0.246558,-0.39703 0.331769,-0.303995 0.41698,-0.211026 0.459292,-0.0864361 0.448274,0.0391967"
       style="fill:none;stroke:#ffffff;stroke-width:0.084;stroke-linecap:butt;stroke-linejoin:miter;stroke-miterlimit:10;stroke-opacity:1"
       transform="matrix(59.915443,0,0,59.915443,453.16489,346.85464)"
       id="path3439" />
    <path
       d="M -0.448302,0.0391967 C -0.459255,-0.0864361 -0.417008,-0.211026 -0.331796,-0.303995 -0.24652,-0.39703 -0.126168,-0.449969 -1.3754e-5,-0.449969 0.126141,-0.449969 0.246558,-0.39703 0.331769,-0.303995 0.41698,-0.211026 0.459292,-0.0864361 0.448274,0.0391967"
       style="fill:none;stroke:#e6e6e6;stroke-width:0.06;stroke-linecap:butt;stroke-linejoin:miter;stroke-miterlimit:10;stroke-opacity:1"
       transform="matrix(59.915443,0,0,59.915443,453.16489,346.85464)"
       id="path3441" />
    <path
       d="M 2.074428,-7.872391 H 1.079584 V -5.72422e-4 H 2.074428 V -3.709503 H 5.735065 V -5.72422e-4 H 6.742787 V -7.872391 H 5.735065 v 3.300046 H 2.074428 v -3.300046"
       style="fill:none;stroke:#ffffff;stroke-width:0.576945;stroke-linecap:round;stroke-linejoin:round;stroke-miterlimit:10;stroke-opacity:1"
       transform="matrix(1.213288,0,0,1.213288,446.58078,339.57491)"
       id="path3443" />
    <path
       d="m 449.09766,330.02344 h -1.20704 v 9.55078 h 1.20704 v -4.5 h 4.4414 v 4.5 h 1.22266 v -9.55078 h -1.22266 v 4.0039 h -4.4414 v -4.0039"
       style="fill:#000000;fill-opacity:1;fill-rule:nonzero;stroke:none"
       id="path3445" />
  </g>
</svg>
