<?xml version="1.0" encoding="UTF-8" standalone="no"?>
<svg
   xmlns:dc="http://purl.org/dc/elements/1.1/"
   xmlns:cc="http://creativecommons.org/ns#"
   xmlns:rdf="http://www.w3.org/1999/02/22-rdf-syntax-ns#"
   xmlns:svg="http://www.w3.org/2000/svg"
   xmlns="http://www.w3.org/2000/svg"
   xmlns:sodipodi="http://sodipodi.sourceforge.net/DTD/sodipodi-0.dtd"
   xmlns:inkscape="http://www.inkscape.org/namespaces/inkscape"
   height="187.20793pt"
   version="1.1"
   viewBox="0 0 401.41467 187.20793"
   width="401.41467pt"
   id="svg4349"
   sodipodi:docname="59.svg"
   inkscape:version="1.0.2 (1.0.2+r75+1)">
  <metadata
     id="metadata4355">
    <rdf:RDF>
      <cc:Work
         rdf:about="">
        <dc:format>image/svg+xml</dc:format>
        <dc:type
           rdf:resource="http://purl.org/dc/dcmitype/StillImage" />
      </cc:Work>
    </rdf:RDF>
  </metadata>
  <defs
     id="defs4353">
    <clipPath
       clipPathUnits="userSpaceOnUse"
       id="clipPath10696">
      <rect
         style="fill:#cccccc;fill-opacity:1;stroke:#cccccc;stroke-width:0.975;stroke-linejoin:round;stroke-dasharray:1.95, 0.975"
         id="rect10698"
         width="401.41467"
         height="187.20793"
         x="89.048767"
         y="296.7225" />
    </clipPath>
  </defs>
  <sodipodi:namedview
     pagecolor="#ffffff"
     bordercolor="#666666"
     borderopacity="1"
     objecttolerance="10"
     gridtolerance="10"
     guidetolerance="10"
     inkscape:pageopacity="0"
     inkscape:pageshadow="2"
     inkscape:window-width="1920"
     inkscape:window-height="1043"
     id="namedview4351"
     showgrid="false"
     inkscape:zoom="0.78206651"
     inkscape:cx="277.93498"
     inkscape:cy="165.70334"
     inkscape:window-x="0"
     inkscape:window-y="0"
     inkscape:window-maximized="1"
     inkscape:current-layer="surface1" />
  <g
     id="surface1"
     transform="translate(-89.048767,-296.7225)">
    <rect
       height="842"
       style="fill:#ffffff;fill-opacity:1;stroke:none"
       width="595"
       x="0"
       y="0"
       id="rect3888"
       clip-path="url(#clipPath10696)" />
    <path
       d="M -5.196139,1.38393e-5 -2.598076,1.499979"
       style="fill:none;stroke:#cc0000;stroke-width:0.06;stroke-linecap:butt;stroke-linejoin:miter;stroke-miterlimit:10;stroke-opacity:1"
       transform="matrix(59.915443,0,0,59.915443,453.16489,346.85464)"
       id="path3890" />
    <path
       d="m -5.136158,-0.103909 2.598062,1.499966"
       style="fill:none;stroke:#cc0000;stroke-width:0.06;stroke-linecap:butt;stroke-linejoin:miter;stroke-miterlimit:10;stroke-dasharray:0.375, 0.375;stroke-dashoffset:0.1875;stroke-opacity:1"
       transform="matrix(59.915443,0,0,59.915443,453.16489,346.85464)"
       id="path3892" />
    <path
       d="M -2.598076,1.499979 -1.3754e-5,1.38393e-5"
       style="fill:none;stroke:#000000;stroke-width:0.06;stroke-linecap:butt;stroke-linejoin:miter;stroke-miterlimit:10;stroke-opacity:1"
       transform="matrix(59.915443,0,0,59.915443,453.16489,346.85464)"
       id="path3894" />
    <path
       d="m -2.658057,1.396057 2.5980629,-1.499966"
       style="fill:none;stroke:#000000;stroke-width:0.06;stroke-linecap:butt;stroke-linejoin:miter;stroke-miterlimit:10;stroke-dasharray:0.375, 0.375;stroke-dashoffset:0.1875;stroke-opacity:1"
       transform="matrix(59.915443,0,0,59.915443,453.16489,346.85464)"
       id="path3896" />
    <path
       d="M -4.746156,1.38393e-5 C -4.746156,0.248541 -4.947611,0.449997 -5.196139,0.449997 c -0.248527,0 -0.449983,-0.201456 -0.449983,-0.4499831607 0,-0.2485268393 0.201456,-0.4499828393 0.449983,-0.4499828393 0.248528,0 0.449983,0.201456 0.449983,0.4499828393"
       style="fill:#ffffff;fill-opacity:1;fill-rule:nonzero;stroke:#ffffff;stroke-width:0.06;stroke-linecap:butt;stroke-linejoin:miter;stroke-miterlimit:10;stroke-opacity:1"
       transform="matrix(59.915443,0,0,59.915443,453.16489,346.85464)"
       id="path3898" />
    <path
       d="M -4.746156,1.38393e-5 C -4.746156,0.248541 -4.947611,0.449997 -5.196139,0.449997 c -0.248527,0 -0.449983,-0.201456 -0.449983,-0.4499831607 0,-0.2485268393 0.201456,-0.4499828393 0.449983,-0.4499828393 0.248528,0 0.449983,0.201456 0.449983,0.4499828393"
       style="fill:#ffd900;fill-opacity:1;fill-rule:nonzero;stroke:#ffd900;stroke-width:0.06;stroke-linecap:butt;stroke-linejoin:miter;stroke-miterlimit:10;stroke-opacity:1"
       transform="matrix(59.915443,0,0,59.915443,453.16489,346.85464)"
       id="path3900" />
    <path
       d="M -4.746156,1.38393e-5 C -4.746156,0.248541 -4.947611,0.449997 -5.196139,0.449997 c -0.248527,0 -0.449983,-0.201456 -0.449983,-0.4499831607 0,-0.2485268393 0.201456,-0.4499828393 0.449983,-0.4499828393 0.248528,0 0.449983,0.201456 0.449983,0.4499828393"
       style="fill:none;stroke:#ffffff;stroke-width:0.075;stroke-linecap:butt;stroke-linejoin:miter;stroke-miterlimit:10;stroke-opacity:1"
       transform="matrix(59.915443,0,0,59.915443,453.16489,346.85464)"
       id="path3902" />
    <path
       d="m -2.148093,1.499979 c 0,0.248528 -0.201456,0.450049 -0.449983,0.450049 -0.248528,0 -0.449983,-0.201521 -0.449983,-0.450049 0,-0.248527 0.201455,-0.449983 0.449983,-0.449983 0.248527,0 0.449983,0.201456 0.449983,0.449983"
       style="fill:#ffffff;fill-opacity:1;fill-rule:nonzero;stroke:#ffffff;stroke-width:0.06;stroke-linecap:butt;stroke-linejoin:miter;stroke-miterlimit:10;stroke-opacity:1"
       transform="matrix(59.915443,0,0,59.915443,453.16489,346.85464)"
       id="path3904" />
    <path
       d="m -2.148093,1.499979 c 0,0.248528 -0.201456,0.450049 -0.449983,0.450049 -0.248528,0 -0.449983,-0.201521 -0.449983,-0.450049 0,-0.248527 0.201455,-0.449983 0.449983,-0.449983 0.248527,0 0.449983,0.201456 0.449983,0.449983"
       style="fill:#cccccc;fill-opacity:1;fill-rule:nonzero;stroke:#e6e6e6;stroke-width:0.06;stroke-linecap:butt;stroke-linejoin:miter;stroke-miterlimit:10;stroke-opacity:1"
       transform="matrix(59.915443,0,0,59.915443,453.16489,346.85464)"
       id="path3906" />
    <path
       d="m -2.148093,1.499979 c 0,0.248528 -0.201456,0.450049 -0.449983,0.450049 -0.248528,0 -0.449983,-0.201521 -0.449983,-0.450049 0,-0.248527 0.201455,-0.449983 0.449983,-0.449983 0.248527,0 0.449983,0.201456 0.449983,0.449983"
       style="fill:none;stroke:#ffffff;stroke-width:0.075;stroke-linecap:butt;stroke-linejoin:miter;stroke-miterlimit:10;stroke-opacity:1"
       transform="matrix(59.915443,0,0,59.915443,453.16489,346.85464)"
       id="path3908" />
    <path
       d="M 0.449969,1.38393e-5 C 0.449969,0.248541 0.248514,0.449997 -1.3754e-5,0.449997 -0.248541,0.449997 -0.449997,0.248541 -0.449997,1.38393e-5 -0.449997,-0.248513 -0.248541,-0.449969 -1.3754e-5,-0.449969 0.248514,-0.449969 0.449969,-0.248513 0.449969,1.38393e-5"
       style="fill:#ffffff;fill-opacity:1;fill-rule:nonzero;stroke:#ffffff;stroke-width:0.06;stroke-linecap:butt;stroke-linejoin:miter;stroke-miterlimit:10;stroke-opacity:1"
       transform="matrix(59.915443,0,0,59.915443,453.16489,346.85464)"
       id="path3910" />
    <path
       d="M 0.449969,1.38393e-5 C 0.449969,0.248541 0.248514,0.449997 -1.3754e-5,0.449997 -0.248541,0.449997 -0.449997,0.248541 -0.449997,1.38393e-5 -0.449997,-0.248513 -0.248541,-0.449969 -1.3754e-5,-0.449969 0.248514,-0.449969 0.449969,-0.248513 0.449969,1.38393e-5"
       style="fill:#cccccc;fill-opacity:1;fill-rule:nonzero;stroke:#e6e6e6;stroke-width:0.06;stroke-linecap:butt;stroke-linejoin:miter;stroke-miterlimit:10;stroke-opacity:1"
       transform="matrix(59.915443,0,0,59.915443,453.16489,346.85464)"
       id="path3912" />
    <path
       d="M 0.449969,1.38393e-5 C 0.449969,0.248541 0.248514,0.449997 -1.3754e-5,0.449997 -0.248541,0.449997 -0.449997,0.248541 -0.449997,1.38393e-5 -0.449997,-0.248513 -0.248541,-0.449969 -1.3754e-5,-0.449969 0.248514,-0.449969 0.449969,-0.248513 0.449969,1.38393e-5"
       style="fill:none;stroke:#ffffff;stroke-width:0.075;stroke-linecap:butt;stroke-linejoin:miter;stroke-miterlimit:10;stroke-opacity:1"
       transform="matrix(59.915443,0,0,59.915443,453.16489,346.85464)"
       id="path3914" />
  </g>
</svg>
