<svg xmlns="http://www.w3.org/2000/svg" xmlns:dc="http://purl.org/dc/elements/1.1/" xmlns:ns2="http://creativecommons.org/ns#" xmlns:ns4="http://www.w3.org/1999/xlink" xmlns:rdf="http://www.w3.org/1999/02/22-rdf-syntax-ns#" height="169.992875pt" version="1.1" viewBox="0 0 564.48 169.992875" width="564.48pt">
 <metadata>
  <rdf:RDF>
   <ns2:Work>
    <dc:type rdf:resource="http://purl.org/dc/dcmitype/StillImage" />
    <dc:date>2021-09-16T16:38:41.856617</dc:date>
    <dc:format>image/svg+xml</dc:format>
    <dc:creator>
     <ns2:Agent>
      <dc:title>Matplotlib v3.3.2, https://matplotlib.org/</dc:title>
     </ns2:Agent>
    </dc:creator>
   </ns2:Work>
  </rdf:RDF>
 </metadata>
 <defs>
  <style type="text/css">*{stroke-linecap:butt;stroke-linejoin:round;}</style>
 </defs>
 <g id="figure_1">
  <g id="patch_1">
   <path d="M 0 169.992875  L 564.48 169.992875  L 564.48 0  L 0 0  z " style="fill:#ffffff;" />
  </g>
  <g id="axes_1">
   <g clip-path="url(#pd8d9b2a69a)">
    <g id="rdkit-img-0-g"><svg baseProfile="full" height="114.0" version="1.1" viewBox="0 0 200 200" width="128.0" x="7.2" y="48.792875" xml:space="preserve">

<rect height="200" style="opacity:1.0;fill:#FFFFFF;stroke:none" width="200" x="0" y="0"> </rect>
<path class="bond-0 atom-0 atom-1" d="M 31.5613,136.996 L 31.5712,124.647" style="fill:none;fill-rule:evenodd;stroke:#000000;stroke-linecap:butt;stroke-linejoin:miter;stroke-opacity:1" />
<path class="bond-0 atom-0 atom-1" d="M 29.3385,136.995 L 29.3484,124.645" style="fill:none;fill-rule:evenodd;stroke:#000000;stroke-linecap:butt;stroke-linejoin:miter;stroke-opacity:1" />
<path class="bond-1 atom-1 atom-2" d="M 30.4598,124.646 L 41.159,118.482" style="fill:none;fill-rule:evenodd;stroke:#000000;stroke-linecap:butt;stroke-linejoin:miter;stroke-opacity:1" />
<path class="bond-2 atom-2 atom-3" d="M 41.159,118.482 L 41.1641,112.105" style="fill:none;fill-rule:evenodd;stroke:#000000;stroke-linecap:butt;stroke-linejoin:miter;stroke-opacity:1" />
<path class="bond-3 atom-3 atom-4" d="M 36.5642,103.468 L 30.4795,99.9481" style="fill:none;fill-rule:evenodd;stroke:#000000;stroke-linecap:butt;stroke-linejoin:miter;stroke-opacity:1" />
<path class="bond-6 atom-3 atom-7" d="M 45.7737,103.478 L 51.8682,99.9654" style="fill:none;fill-rule:evenodd;stroke:#000000;stroke-linecap:butt;stroke-linejoin:miter;stroke-opacity:1" />
<path class="bond-4 atom-4 atom-5" d="M 30.4795,99.9481 L 19.7803,106.115" style="fill:none;fill-rule:evenodd;stroke:#000000;stroke-linecap:butt;stroke-linejoin:miter;stroke-opacity:1" />
<path class="bond-5 atom-5 atom-6" d="M 20.3367,105.153 L 9.64732,98.9712" style="fill:none;fill-rule:evenodd;stroke:#000000;stroke-linecap:butt;stroke-linejoin:miter;stroke-opacity:1" />
<path class="bond-5 atom-5 atom-6" d="M 19.2239,107.077 L 8.5345,100.895" style="fill:none;fill-rule:evenodd;stroke:#000000;stroke-linecap:butt;stroke-linejoin:miter;stroke-opacity:1" />
<path class="bond-7 atom-7 atom-8" d="M 52.9796,99.9663 L 52.9845,93.8299" style="fill:none;fill-rule:evenodd;stroke:#000000;stroke-linecap:butt;stroke-linejoin:miter;stroke-opacity:1" />
<path class="bond-7 atom-7 atom-8" d="M 50.7568,99.9645 L 50.7617,93.8282" style="fill:none;fill-rule:evenodd;stroke:#000000;stroke-linecap:butt;stroke-linejoin:miter;stroke-opacity:1" />
<path class="bond-8 atom-7 atom-9" d="M 51.8682,99.9654 L 57.9528,103.486" style="fill:none;fill-rule:evenodd;stroke:#000000;stroke-linecap:butt;stroke-linejoin:miter;stroke-opacity:1" />
<path class="bond-9 atom-9 atom-10" d="M 67.1622,103.495 L 73.2543,99.9827" style="fill:none;fill-rule:evenodd;stroke:#000000;stroke-linecap:butt;stroke-linejoin:miter;stroke-opacity:1" />
<path class="bond-10 atom-10 atom-11" d="M 73.2543,99.9827 L 73.2642,87.6336" style="fill:none;fill-rule:evenodd;stroke:#000000;stroke-linecap:butt;stroke-linejoin:miter;stroke-opacity:1" />
<path class="bond-10 atom-10 atom-11" d="M 75.4787,98.1321 L 75.4856,89.4878" style="fill:none;fill-rule:evenodd;stroke:#000000;stroke-linecap:butt;stroke-linejoin:miter;stroke-opacity:1" />
<path class="bond-30 atom-30 atom-10" d="M 83.9462,106.165 L 73.2543,99.9827" style="fill:none;fill-rule:evenodd;stroke:#000000;stroke-linecap:butt;stroke-linejoin:miter;stroke-opacity:1" />
<path class="bond-11 atom-11 atom-12" d="M 73.2642,87.6336 L 83.9659,81.469" style="fill:none;fill-rule:evenodd;stroke:#000000;stroke-linecap:butt;stroke-linejoin:miter;stroke-opacity:1" />
<path class="bond-12 atom-12 atom-13" d="M 83.9659,81.469 L 94.6553,87.6509" style="fill:none;fill-rule:evenodd;stroke:#000000;stroke-linecap:butt;stroke-linejoin:miter;stroke-opacity:1" />
<path class="bond-12 atom-12 atom-13" d="M 84.4565,84.3205 L 91.9391,88.6478" style="fill:none;fill-rule:evenodd;stroke:#000000;stroke-linecap:butt;stroke-linejoin:miter;stroke-opacity:1" />
<path class="bond-13 atom-13 atom-14" d="M 94.6553,87.6509 L 105.355,81.4862" style="fill:none;fill-rule:evenodd;stroke:#000000;stroke-linecap:butt;stroke-linejoin:miter;stroke-opacity:1" />
<path class="bond-28 atom-13 atom-29" d="M 94.6553,87.6509 L 94.6454,100" style="fill:none;fill-rule:evenodd;stroke:#000000;stroke-linecap:butt;stroke-linejoin:miter;stroke-opacity:1" />
<path class="bond-14 atom-14 atom-15" d="M 106.466,81.4871 L 106.471,75.3508" style="fill:none;fill-rule:evenodd;stroke:#000000;stroke-linecap:butt;stroke-linejoin:miter;stroke-opacity:1" />
<path class="bond-14 atom-14 atom-15" d="M 104.243,81.4854 L 104.248,75.349" style="fill:none;fill-rule:evenodd;stroke:#000000;stroke-linecap:butt;stroke-linejoin:miter;stroke-opacity:1" />
<path class="bond-15 atom-14 atom-16" d="M 105.355,81.4862 L 111.439,85.0052" style="fill:none;fill-rule:evenodd;stroke:#000000;stroke-linecap:butt;stroke-linejoin:miter;stroke-opacity:1" />
<path class="bond-16 atom-16 atom-17" d="M 120.649,85.0151 L 122.271,84.0801" style="fill:none;fill-rule:evenodd;stroke:#000000;stroke-linecap:butt;stroke-linejoin:miter;stroke-opacity:1" />
<path class="bond-17 atom-17 atom-18" d="M 131.348,84.1666 L 137.433,87.6855" style="fill:none;fill-rule:evenodd;stroke:#000000;stroke-linecap:butt;stroke-linejoin:miter;stroke-opacity:1" />
<path class="bond-17 atom-17 atom-18" d="M 131.148,86.6186 L 135.407,89.0819" style="fill:none;fill-rule:evenodd;stroke:#000000;stroke-linecap:butt;stroke-linejoin:miter;stroke-opacity:1" />
<path class="bond-18 atom-18 atom-19" d="M 137.433,87.6855 L 148.129,81.5208" style="fill:none;fill-rule:evenodd;stroke:#000000;stroke-linecap:butt;stroke-linejoin:miter;stroke-opacity:1" />
<path class="bond-19 atom-19 atom-20" d="M 148.129,81.5208 L 148.139,69.1693" style="fill:none;fill-rule:evenodd;stroke:#000000;stroke-linecap:butt;stroke-linejoin:miter;stroke-opacity:1" />
<path class="bond-19 atom-19 atom-20" d="M 150.354,79.6699 L 150.361,71.0238" style="fill:none;fill-rule:evenodd;stroke:#000000;stroke-linecap:butt;stroke-linejoin:miter;stroke-opacity:1" />
<path class="bond-31 atom-26 atom-19" d="M 158.821,87.7003 L 148.129,81.5208" style="fill:none;fill-rule:evenodd;stroke:#000000;stroke-linecap:butt;stroke-linejoin:miter;stroke-opacity:1" />
<path class="bond-20 atom-20 atom-21" d="M 148.139,69.1693 L 158.841,63.0046" style="fill:none;fill-rule:evenodd;stroke:#000000;stroke-linecap:butt;stroke-linejoin:miter;stroke-opacity:1" />
<path class="bond-21 atom-21 atom-22" d="M 158.841,63.0046 L 169.53,69.1865" style="fill:none;fill-rule:evenodd;stroke:#000000;stroke-linecap:butt;stroke-linejoin:miter;stroke-opacity:1" />
<path class="bond-21 atom-21 atom-22" d="M 159.332,65.8561 L 166.814,70.1835" style="fill:none;fill-rule:evenodd;stroke:#000000;stroke-linecap:butt;stroke-linejoin:miter;stroke-opacity:1" />
<path class="bond-22 atom-22 atom-23" d="M 169.53,69.1865 L 169.52,81.5381" style="fill:none;fill-rule:evenodd;stroke:#000000;stroke-linecap:butt;stroke-linejoin:miter;stroke-opacity:1" />
<path class="bond-23 atom-23 atom-24" d="M 169.52,81.5381 L 174.701,84.5342" style="fill:none;fill-rule:evenodd;stroke:#000000;stroke-linecap:butt;stroke-linejoin:miter;stroke-opacity:1" />
<path class="bond-25 atom-23 atom-26" d="M 169.52,81.5381 L 158.821,87.7003" style="fill:none;fill-rule:evenodd;stroke:#000000;stroke-linecap:butt;stroke-linejoin:miter;stroke-opacity:1" />
<path class="bond-25 atom-23 atom-26" d="M 166.806,80.5362 L 159.317,84.8498" style="fill:none;fill-rule:evenodd;stroke:#000000;stroke-linecap:butt;stroke-linejoin:miter;stroke-opacity:1" />
<path class="bond-24 atom-24 atom-25" d="M 185.719,84.5448 L 190.909,81.5529" style="fill:none;fill-rule:evenodd;stroke:#000000;stroke-linecap:butt;stroke-linejoin:miter;stroke-opacity:1" />
<path class="bond-26 atom-26 atom-27" d="M 158.821,87.7003 L 158.816,94.0151" style="fill:none;fill-rule:evenodd;stroke:#000000;stroke-linecap:butt;stroke-linejoin:miter;stroke-opacity:1" />
<path class="bond-27 atom-27 atom-28" d="M 164.32,103.238 L 169.501,106.234" style="fill:none;fill-rule:evenodd;stroke:#000000;stroke-linecap:butt;stroke-linejoin:miter;stroke-opacity:1" />
<path class="bond-29 atom-29 atom-30" d="M 94.6454,100 L 83.9462,106.165" style="fill:none;fill-rule:evenodd;stroke:#000000;stroke-linecap:butt;stroke-linejoin:miter;stroke-opacity:1" />
<path class="bond-29 atom-29 atom-30" d="M 91.9308,98.9987 L 84.4413,103.314" style="fill:none;fill-rule:evenodd;stroke:#000000;stroke-linecap:butt;stroke-linejoin:miter;stroke-opacity:1" />
<path class="atom-3" d="M 38.6649 100.469 L 42.3769 106.469 Q 42.7449 107.061, 43.3369 108.133 Q 43.9289 109.205, 43.9609 109.269 L 43.9609 100.469 L 45.4649 100.469 L 45.4649 111.797 L 43.9129 111.797 L 39.9289 105.237 Q 39.4649 104.469, 38.9689 103.589 Q 38.4889 102.709, 38.3449 102.437 L 38.3449 111.797 L 36.8729 111.797 L 36.8729 100.469 L 38.6649 100.469 " fill="#000000" />
<path class="atom-8" d="M 46.6781 87.6483 Q 46.6781 84.9283, 48.0221 83.4083 Q 49.3661 81.8883, 51.8781 81.8883 Q 54.3901 81.8883, 55.7341 83.4083 Q 57.0781 84.9283, 57.0781 87.6483 Q 57.0781 90.4003, 55.7181 91.9683 Q 54.3581 93.5203, 51.8781 93.5203 Q 49.3821 93.5203, 48.0221 91.9683 Q 46.6781 90.4163, 46.6781 87.6483 M 51.8781 92.2403 Q 53.6061 92.2403, 54.5341 91.0883 Q 55.4781 89.9203, 55.4781 87.6483 Q 55.4781 85.4243, 54.5341 84.3043 Q 53.6061 83.1683, 51.8781 83.1683 Q 50.1501 83.1683, 49.2061 84.2883 Q 48.2781 85.4083, 48.2781 87.6483 Q 48.2781 89.9363, 49.2061 91.0883 Q 50.1501 92.2403, 51.8781 92.2403 " fill="#000000" />
<path class="atom-9" d="M 60.0535 100.486 L 63.7655 106.486 Q 64.1335 107.078, 64.7255 108.15 Q 65.3175 109.222, 65.3495 109.286 L 65.3495 100.486 L 66.8535 100.486 L 66.8535 111.814 L 65.3015 111.814 L 61.3175 105.254 Q 60.8535 104.486, 60.3575 103.606 Q 59.8775 102.726, 59.7335 102.454 L 59.7335 111.814 L 58.2615 111.814 L 58.2615 100.486 L 60.0535 100.486 " fill="#000000" />
<path class="atom-9" d="M 58.1255 112.947 L 59.6615 112.947 L 59.6615 117.763 L 65.4535 117.763 L 65.4535 112.947 L 66.9895 112.947 L 66.9895 124.275 L 65.4535 124.275 L 65.4535 119.043 L 59.6615 119.043 L 59.6615 124.275 L 58.1255 124.275 L 58.1255 112.947 " fill="#000000" />
<path class="atom-15" d="M 100.164 69.1691 Q 100.164 66.4491, 101.508 64.9291 Q 102.852 63.4091, 105.364 63.4091 Q 107.876 63.4091, 109.22 64.9291 Q 110.564 66.4491, 110.564 69.1691 Q 110.564 71.9211, 109.204 73.4891 Q 107.844 75.0411, 105.364 75.0411 Q 102.868 75.0411, 101.508 73.4891 Q 100.164 71.9371, 100.164 69.1691 M 105.364 73.7611 Q 107.092 73.7611, 108.02 72.6091 Q 108.964 71.4411, 108.964 69.1691 Q 108.964 66.9451, 108.02 65.8251 Q 107.092 64.6891, 105.364 64.6891 Q 103.636 64.6891, 102.692 65.8091 Q 101.764 66.9291, 101.764 69.1691 Q 101.764 71.4571, 102.692 72.6091 Q 103.636 73.7611, 105.364 73.7611 " fill="#000000" />
<path class="atom-16" d="M 113.54 82.0042 L 117.252 88.0042 Q 117.62 88.5962, 118.212 89.6682 Q 118.804 90.7402, 118.836 90.8042 L 118.836 82.0042 L 120.34 82.0042 L 120.34 93.3322 L 118.788 93.3322 L 114.804 86.7722 Q 114.34 86.0042, 113.844 85.1242 Q 113.364 84.2442, 113.22 83.9722 L 113.22 93.3322 L 111.748 93.3322 L 111.748 82.0042 L 113.54 82.0042 " fill="#000000" />
<path class="atom-16" d="M 111.612 94.465 L 113.148 94.465 L 113.148 99.281 L 118.94 99.281 L 118.94 94.465 L 120.476 94.465 L 120.476 105.793 L 118.94 105.793 L 118.94 100.561 L 113.148 100.561 L 113.148 105.793 L 111.612 105.793 L 111.612 94.465 " fill="#000000" />
<path class="atom-17" d="M 124.239 75.8395 L 127.951 81.8395 Q 128.319 82.4315, 128.911 83.5035 Q 129.503 84.5755, 129.535 84.6395 L 129.535 75.8395 L 131.039 75.8395 L 131.039 87.1675 L 129.487 87.1675 L 125.503 80.6075 Q 125.039 79.8395, 124.543 78.9595 Q 124.063 78.0795, 123.919 77.8075 L 123.919 87.1675 L 122.447 87.1675 L 122.447 75.8395 L 124.239 75.8395 " fill="#000000" />
<path class="atom-24" d="M 175.01 87.7521 Q 175.01 85.0321, 176.354 83.5121 Q 177.698 81.9921, 180.21 81.9921 Q 182.722 81.9921, 184.066 83.5121 Q 185.41 85.0321, 185.41 87.7521 Q 185.41 90.5041, 184.05 92.0721 Q 182.69 93.6241, 180.21 93.6241 Q 177.714 93.6241, 176.354 92.0721 Q 175.01 90.5201, 175.01 87.7521 M 180.21 92.3441 Q 181.938 92.3441, 182.866 91.1921 Q 183.81 90.0241, 183.81 87.7521 Q 183.81 85.5281, 182.866 84.4081 Q 181.938 83.2721, 180.21 83.2721 Q 178.482 83.2721, 177.538 84.3921 Q 176.61 85.5121, 176.61 87.7521 Q 176.61 90.0401, 177.538 91.1921 Q 178.482 92.3441, 180.21 92.3441 " fill="#000000" />
<path class="atom-27" d="M 153.611 100.084 Q 153.611 97.3639, 154.955 95.8439 Q 156.299 94.3239, 158.811 94.3239 Q 161.323 94.3239, 162.667 95.8439 Q 164.011 97.3639, 164.011 100.084 Q 164.011 102.836, 162.651 104.404 Q 161.291 105.956, 158.811 105.956 Q 156.315 105.956, 154.955 104.404 Q 153.611 102.852, 153.611 100.084 M 158.811 104.676 Q 160.539 104.676, 161.467 103.524 Q 162.411 102.356, 162.411 100.084 Q 162.411 97.8599, 161.467 96.7399 Q 160.539 95.6039, 158.811 95.6039 Q 157.083 95.6039, 156.139 96.7239 Q 155.211 97.8439, 155.211 100.084 Q 155.211 102.372, 156.139 103.524 Q 157.083 104.676, 158.811 104.676 " fill="#000000" />
</svg></g></g>
   <g id="text_1">
    
    <g style="fill:#262626;" transform="translate(56.489063 29.7555)scale(0.12 -0.12)">
     <defs>
      <path d="M 19.671875 34.8125  L 19.671875 8.109375  L 35.5 8.109375  Q 43.453125 8.109375 47.28125 11.40625  Q 51.125 14.703125 51.125 21.484375  Q 51.125 28.328125 47.28125 31.5625  Q 43.453125 34.8125 35.5 34.8125  z M 19.671875 64.796875  L 19.671875 42.828125  L 34.28125 42.828125  Q 41.5 42.828125 45.03125 45.53125  Q 48.578125 48.25 48.578125 53.8125  Q 48.578125 59.328125 45.03125 62.0625  Q 41.5 64.796875 34.28125 64.796875  z M 9.8125 72.90625  L 35.015625 72.90625  Q 46.296875 72.90625 52.390625 68.21875  Q 58.5 63.53125 58.5 54.890625  Q 58.5 48.1875 55.375 44.234375  Q 52.25 40.28125 46.1875 39.3125  Q 53.46875 37.75 57.5 32.78125  Q 61.53125 27.828125 61.53125 20.40625  Q 61.53125 10.640625 54.890625 5.3125  Q 48.25 0 35.984375 0  L 9.8125 0  z " id="DejaVuSans-66" />
      <path d="M 34.28125 27.484375  Q 23.390625 27.484375 19.1875 25  Q 14.984375 22.515625 14.984375 16.5  Q 14.984375 11.71875 18.140625 8.90625  Q 21.296875 6.109375 26.703125 6.109375  Q 34.1875 6.109375 38.703125 11.40625  Q 43.21875 16.703125 43.21875 25.484375  L 43.21875 27.484375  z M 52.203125 31.203125  L 52.203125 0  L 43.21875 0  L 43.21875 8.296875  Q 40.140625 3.328125 35.546875 0.953125  Q 30.953125 -1.421875 24.3125 -1.421875  Q 15.921875 -1.421875 10.953125 3.296875  Q 6 8.015625 6 15.921875  Q 6 25.140625 12.171875 29.828125  Q 18.359375 34.515625 30.609375 34.515625  L 43.21875 34.515625  L 43.21875 35.40625  Q 43.21875 41.609375 39.140625 45  Q 35.0625 48.390625 27.6875 48.390625  Q 23 48.390625 18.546875 47.265625  Q 14.109375 46.140625 10.015625 43.890625  L 10.015625 52.203125  Q 14.9375 54.109375 19.578125 55.046875  Q 24.21875 56 28.609375 56  Q 40.484375 56 46.34375 49.84375  Q 52.203125 43.703125 52.203125 31.203125  z " id="DejaVuSans-97" />
      <path d="M 44.28125 53.078125  L 44.28125 44.578125  Q 40.484375 46.53125 36.375 47.5  Q 32.28125 48.484375 27.875 48.484375  Q 21.1875 48.484375 17.84375 46.4375  Q 14.5 44.390625 14.5 40.28125  Q 14.5 37.15625 16.890625 35.375  Q 19.28125 33.59375 26.515625 31.984375  L 29.59375 31.296875  Q 39.15625 29.25 43.1875 25.515625  Q 47.21875 21.78125 47.21875 15.09375  Q 47.21875 7.46875 41.1875 3.015625  Q 35.15625 -1.421875 24.609375 -1.421875  Q 20.21875 -1.421875 15.453125 -0.5625  Q 10.6875 0.296875 5.421875 2  L 5.421875 11.28125  Q 10.40625 8.6875 15.234375 7.390625  Q 20.0625 6.109375 24.8125 6.109375  Q 31.15625 6.109375 34.5625 8.28125  Q 37.984375 10.453125 37.984375 14.40625  Q 37.984375 18.0625 35.515625 20.015625  Q 33.0625 21.96875 24.703125 23.78125  L 21.578125 24.515625  Q 13.234375 26.265625 9.515625 29.90625  Q 5.8125 33.546875 5.8125 39.890625  Q 5.8125 47.609375 11.28125 51.796875  Q 16.75 56 26.8125 56  Q 31.78125 56 36.171875 55.265625  Q 40.578125 54.546875 44.28125 53.078125  z " id="DejaVuSans-115" />
      <path d="M 56.203125 29.59375  L 56.203125 25.203125  L 14.890625 25.203125  Q 15.484375 15.921875 20.484375 11.0625  Q 25.484375 6.203125 34.421875 6.203125  Q 39.59375 6.203125 44.453125 7.46875  Q 49.3125 8.734375 54.109375 11.28125  L 54.109375 2.78125  Q 49.265625 0.734375 44.1875 -0.34375  Q 39.109375 -1.421875 33.890625 -1.421875  Q 20.796875 -1.421875 13.15625 6.1875  Q 5.515625 13.8125 5.515625 26.8125  Q 5.515625 40.234375 12.765625 48.109375  Q 20.015625 56 32.328125 56  Q 43.359375 56 49.78125 48.890625  Q 56.203125 41.796875 56.203125 29.59375  z M 47.21875 32.234375  Q 47.125 39.59375 43.09375 43.984375  Q 39.0625 48.390625 32.421875 48.390625  Q 24.90625 48.390625 20.390625 44.140625  Q 15.875 39.890625 15.1875 32.171875  z " id="DejaVuSans-101" />
     </defs>
     <use ns4:href="#DejaVuSans-66" />
     <use x="68.603516" ns4:href="#DejaVuSans-97" />
     <use x="129.882812" ns4:href="#DejaVuSans-115" />
     <use x="181.982422" ns4:href="#DejaVuSans-101" />
    </g>
    
    <g style="fill:#262626;" transform="translate(34.73625 43.192875)scale(0.12 -0.12)">
     <defs>
      <path d="M 37.109375 75.984375  L 37.109375 68.5  L 28.515625 68.5  Q 23.6875 68.5 21.796875 66.546875  Q 19.921875 64.59375 19.921875 59.515625  L 19.921875 54.6875  L 34.71875 54.6875  L 34.71875 47.703125  L 19.921875 47.703125  L 19.921875 0  L 10.890625 0  L 10.890625 47.703125  L 2.296875 47.703125  L 2.296875 54.6875  L 10.890625 54.6875  L 10.890625 58.5  Q 10.890625 67.625 15.140625 71.796875  Q 19.390625 75.984375 28.609375 75.984375  z " id="DejaVuSans-102" />
      <path d="M 31 75.875  Q 24.46875 64.65625 21.28125 53.65625  Q 18.109375 42.671875 18.109375 31.390625  Q 18.109375 20.125 21.3125 9.0625  Q 24.515625 -2 31 -13.1875  L 23.1875 -13.1875  Q 15.875 -1.703125 12.234375 9.375  Q 8.59375 20.453125 8.59375 31.390625  Q 8.59375 42.28125 12.203125 53.3125  Q 15.828125 64.359375 23.1875 75.875  z " id="DejaVuSans-40" />
      <path d="M 54.890625 54.6875  L 35.109375 28.078125  L 55.90625 0  L 45.3125 0  L 29.390625 21.484375  L 13.484375 0  L 2.875 0  L 24.125 28.609375  L 4.6875 54.6875  L 15.28125 54.6875  L 29.78125 35.203125  L 44.28125 54.6875  z " id="DejaVuSans-120" />
      <path d="M 8.015625 75.875  L 15.828125 75.875  Q 23.140625 64.359375 26.78125 53.3125  Q 30.421875 42.28125 30.421875 31.390625  Q 30.421875 20.453125 26.78125 9.375  Q 23.140625 -1.703125 15.828125 -13.1875  L 8.015625 -13.1875  Q 14.5 -2 17.703125 9.0625  Q 20.90625 20.125 20.90625 31.390625  Q 20.90625 42.671875 17.703125 53.65625  Q 14.5 64.65625 8.015625 75.875  z " id="DejaVuSans-41" />
      <path id="DejaVuSans-32" />
      <path d="M 10.59375 45.40625  L 73.1875 45.40625  L 73.1875 37.203125  L 10.59375 37.203125  z M 10.59375 25.484375  L 73.1875 25.484375  L 73.1875 17.1875  L 10.59375 17.1875  z " id="DejaVuSans-61" />
      <path d="M 12.40625 8.296875  L 28.515625 8.296875  L 28.515625 63.921875  L 10.984375 60.40625  L 10.984375 69.390625  L 28.421875 72.90625  L 38.28125 72.90625  L 38.28125 8.296875  L 54.390625 8.296875  L 54.390625 0  L 12.40625 0  z " id="DejaVuSans-49" />
      <path d="M 10.6875 12.40625  L 21 12.40625  L 21 0  L 10.6875 0  z " id="DejaVuSans-46" />
      <path d="M 31.78125 66.40625  Q 24.171875 66.40625 20.328125 58.90625  Q 16.5 51.421875 16.5 36.375  Q 16.5 21.390625 20.328125 13.890625  Q 24.171875 6.390625 31.78125 6.390625  Q 39.453125 6.390625 43.28125 13.890625  Q 47.125 21.390625 47.125 36.375  Q 47.125 51.421875 43.28125 58.90625  Q 39.453125 66.40625 31.78125 66.40625  z M 31.78125 74.21875  Q 44.046875 74.21875 50.515625 64.515625  Q 56.984375 54.828125 56.984375 36.375  Q 56.984375 17.96875 50.515625 8.265625  Q 44.046875 -1.421875 31.78125 -1.421875  Q 19.53125 -1.421875 13.0625 8.265625  Q 6.59375 17.96875 6.59375 36.375  Q 6.59375 54.828125 13.0625 64.515625  Q 19.53125 74.21875 31.78125 74.21875  z " id="DejaVuSans-48" />
     </defs>
     <use ns4:href="#DejaVuSans-102" />
     <use x="35.205078" ns4:href="#DejaVuSans-40" />
     <use x="74.21875" ns4:href="#DejaVuSans-120" />
     <use x="133.398438" ns4:href="#DejaVuSans-41" />
     <use x="172.412109" ns4:href="#DejaVuSans-32" />
     <use x="204.199219" ns4:href="#DejaVuSans-61" />
     <use x="287.988281" ns4:href="#DejaVuSans-32" />
     <use x="319.775391" ns4:href="#DejaVuSans-49" />
     <use x="383.398438" ns4:href="#DejaVuSans-46" />
     <use x="415.185547" ns4:href="#DejaVuSans-48" />
     <use x="478.808594" ns4:href="#DejaVuSans-48" />
     <use x="542.431641" ns4:href="#DejaVuSans-48" />
    </g>
   </g>
  </g>
  <g id="axes_2">
   <g clip-path="url(#p4daaf5c8ad)">
    <g id="rdkit-img-1-g"><svg baseProfile="full" height="114.0" version="1.1" viewBox="0 0 200 200" width="128.0" x="147.96" y="48.792875" xml:space="preserve">

<rect height="200" style="opacity:1.0;fill:#FFFFFF;stroke:none" width="200" x="0" y="0"> </rect>
<path d="M 73.8855,54.5326 L 87.0033,46.9948" style="fill:none;fill-rule:evenodd;stroke:#1BBC9B;stroke-width:4.8px;stroke-linecap:butt;stroke-linejoin:miter;stroke-opacity:1" />
<ellipse cx="73.8855" cy="54.5326" rx="4.53902" ry="4.53902" style="fill:#1BBC9B;fill-rule:evenodd;stroke:#1BBC9B;stroke-width:1.0px;stroke-linecap:butt;stroke-linejoin:miter;stroke-opacity:1" />
<ellipse cx="87.0033" cy="46.9948" rx="4.53902" ry="4.53902" style="fill:#1BBC9B;fill-rule:evenodd;stroke:#1BBC9B;stroke-width:1.0px;stroke-linecap:butt;stroke-linejoin:miter;stroke-opacity:1" />
<path class="bond-0 atom-0 atom-1" d="M 22.1535,55.6103 L 35.2713,48.0694" style="fill:none;fill-rule:evenodd;stroke:#000000;stroke-linecap:butt;stroke-linejoin:miter;stroke-opacity:1" />
<path class="bond-0 atom-0 atom-1" d="M 20.7962,53.2492 L 33.914,45.7083" style="fill:none;fill-rule:evenodd;stroke:#000000;stroke-linecap:butt;stroke-linejoin:miter;stroke-opacity:1" />
<path class="bond-1 atom-1 atom-2" d="M 34.5927,46.8889 L 47.6802,54.4812" style="fill:none;fill-rule:evenodd;stroke:#000000;stroke-linecap:butt;stroke-linejoin:miter;stroke-opacity:1" />
<path class="bond-2 atom-2 atom-3" d="M 47.6802,54.4812 L 56.1237,49.6293" style="fill:none;fill-rule:evenodd;stroke:#000000;stroke-linecap:butt;stroke-linejoin:miter;stroke-opacity:1" />
<path class="bond-3 atom-3 atom-4" d="M 60.81,40.9011 L 60.8282,31.8133" style="fill:none;fill-rule:evenodd;stroke:#000000;stroke-linecap:butt;stroke-linejoin:miter;stroke-opacity:1" />
<path class="bond-6 atom-3 atom-7" d="M 65.4722,49.6539 L 73.8855,54.5326" style="fill:none;fill-rule:evenodd;stroke:#000000;stroke-linecap:butt;stroke-linejoin:miter;stroke-opacity:1" />
<path class="bond-4 atom-4 atom-5" d="M 60.8282,31.8133 L 47.7407,24.221" style="fill:none;fill-rule:evenodd;stroke:#000000;stroke-linecap:butt;stroke-linejoin:miter;stroke-opacity:1" />
<path class="bond-5 atom-5 atom-6" d="M 49.1024,24.2237 L 49.1327,9.09363" style="fill:none;fill-rule:evenodd;stroke:#000000;stroke-linecap:butt;stroke-linejoin:miter;stroke-opacity:1" />
<path class="bond-5 atom-5 atom-6" d="M 46.379,24.2183 L 46.4093,9.08819" style="fill:none;fill-rule:evenodd;stroke:#000000;stroke-linecap:butt;stroke-linejoin:miter;stroke-opacity:1" />
<path class="bond-7 atom-7 atom-8" d="M 74.5639,55.7133 L 87.6817,48.1755" style="fill:none;fill-rule:evenodd;stroke:#000000;stroke-linecap:butt;stroke-linejoin:miter;stroke-opacity:1" />
<path class="bond-7 atom-7 atom-8" d="M 73.207,53.3519 L 86.3248,45.8141" style="fill:none;fill-rule:evenodd;stroke:#000000;stroke-linecap:butt;stroke-linejoin:miter;stroke-opacity:1" />
<path class="bond-8 atom-7 atom-9" d="M 73.8855,54.5326 L 73.8673,63.6204" style="fill:none;fill-rule:evenodd;stroke:#000000;stroke-linecap:butt;stroke-linejoin:miter;stroke-opacity:1" />
<path class="bond-9 atom-9 atom-10" d="M 78.5294,72.3732 L 86.9427,77.2519" style="fill:none;fill-rule:evenodd;stroke:#000000;stroke-linecap:butt;stroke-linejoin:miter;stroke-opacity:1" />
<path class="bond-10 atom-10 atom-11" d="M 86.9427,77.2519 L 100.061,69.7141" style="fill:none;fill-rule:evenodd;stroke:#000000;stroke-linecap:butt;stroke-linejoin:miter;stroke-opacity:1" />
<path class="bond-10 atom-10 atom-11" d="M 90.2673,78.4826 L 99.4497,73.2061" style="fill:none;fill-rule:evenodd;stroke:#000000;stroke-linecap:butt;stroke-linejoin:miter;stroke-opacity:1" />
<path class="bond-30 atom-30 atom-10" d="M 86.9125,92.382 L 86.9427,77.2519" style="fill:none;fill-rule:evenodd;stroke:#000000;stroke-linecap:butt;stroke-linejoin:miter;stroke-opacity:1" />
<path class="bond-11 atom-11 atom-12" d="M 100.061,69.7141 L 113.148,77.3064" style="fill:none;fill-rule:evenodd;stroke:#000000;stroke-linecap:butt;stroke-linejoin:miter;stroke-opacity:1" />
<path class="bond-12 atom-12 atom-13" d="M 113.148,77.3064 L 113.118,92.4365" style="fill:none;fill-rule:evenodd;stroke:#000000;stroke-linecap:butt;stroke-linejoin:miter;stroke-opacity:1" />
<path class="bond-12 atom-12 atom-13" d="M 110.42,79.5705 L 110.399,90.1615" style="fill:none;fill-rule:evenodd;stroke:#000000;stroke-linecap:butt;stroke-linejoin:miter;stroke-opacity:1" />
<path class="bond-13 atom-13 atom-14" d="M 113.118,92.4365 L 126.205,100.026" style="fill:none;fill-rule:evenodd;stroke:#000000;stroke-linecap:butt;stroke-linejoin:miter;stroke-opacity:1" />
<path class="bond-28 atom-13 atom-29" d="M 113.118,92.4365 L 100,99.9743" style="fill:none;fill-rule:evenodd;stroke:#000000;stroke-linecap:butt;stroke-linejoin:miter;stroke-opacity:1" />
<path class="bond-14 atom-14 atom-15" d="M 126.884,101.206 L 134.423,96.874" style="fill:none;fill-rule:evenodd;stroke:#000000;stroke-linecap:butt;stroke-linejoin:miter;stroke-opacity:1" />
<path class="bond-14 atom-14 atom-15" d="M 125.527,98.8451 L 133.066,94.5126" style="fill:none;fill-rule:evenodd;stroke:#000000;stroke-linecap:butt;stroke-linejoin:miter;stroke-opacity:1" />
<path class="bond-15 atom-14 atom-16" d="M 126.205,100.026 L 126.187,109.114" style="fill:none;fill-rule:evenodd;stroke:#000000;stroke-linecap:butt;stroke-linejoin:miter;stroke-opacity:1" />
<path class="bond-16 atom-16 atom-17" d="M 130.849,117.867 L 134.723,120.115" style="fill:none;fill-rule:evenodd;stroke:#000000;stroke-linecap:butt;stroke-linejoin:miter;stroke-opacity:1" />
<path class="bond-17 atom-17 atom-18" d="M 139.25,128.79 L 139.232,137.878" style="fill:none;fill-rule:evenodd;stroke:#000000;stroke-linecap:butt;stroke-linejoin:miter;stroke-opacity:1" />
<path class="bond-17 atom-17 atom-18" d="M 136.524,130.148 L 136.512,136.51" style="fill:none;fill-rule:evenodd;stroke:#000000;stroke-linecap:butt;stroke-linejoin:miter;stroke-opacity:1" />
<path class="bond-18 atom-18 atom-19" d="M 139.232,137.878 L 152.32,145.467" style="fill:none;fill-rule:evenodd;stroke:#000000;stroke-linecap:butt;stroke-linejoin:miter;stroke-opacity:1" />
<path class="bond-19 atom-19 atom-20" d="M 152.32,145.467 L 165.438,137.93" style="fill:none;fill-rule:evenodd;stroke:#000000;stroke-linecap:butt;stroke-linejoin:miter;stroke-opacity:1" />
<path class="bond-19 atom-19 atom-20" d="M 155.644,146.698 L 164.827,141.422" style="fill:none;fill-rule:evenodd;stroke:#000000;stroke-linecap:butt;stroke-linejoin:miter;stroke-opacity:1" />
<path class="bond-31 atom-26 atom-19" d="M 152.29,160.597 L 152.32,145.467" style="fill:none;fill-rule:evenodd;stroke:#000000;stroke-linecap:butt;stroke-linejoin:miter;stroke-opacity:1" />
<path class="bond-20 atom-20 atom-21" d="M 165.438,137.93 L 178.525,145.522" style="fill:none;fill-rule:evenodd;stroke:#000000;stroke-linecap:butt;stroke-linejoin:miter;stroke-opacity:1" />
<path class="bond-21 atom-21 atom-22" d="M 178.525,145.522 L 178.498,160.652" style="fill:none;fill-rule:evenodd;stroke:#000000;stroke-linecap:butt;stroke-linejoin:miter;stroke-opacity:1" />
<path class="bond-21 atom-21 atom-22" d="M 175.798,147.786 L 175.779,158.378" style="fill:none;fill-rule:evenodd;stroke:#000000;stroke-linecap:butt;stroke-linejoin:miter;stroke-opacity:1" />
<path class="bond-22 atom-22 atom-23" d="M 178.498,160.652 L 165.377,168.19" style="fill:none;fill-rule:evenodd;stroke:#000000;stroke-linecap:butt;stroke-linejoin:miter;stroke-opacity:1" />
<path class="bond-23 atom-23 atom-24" d="M 165.377,168.19 L 165.359,177.214" style="fill:none;fill-rule:evenodd;stroke:#000000;stroke-linecap:butt;stroke-linejoin:miter;stroke-opacity:1" />
<path class="bond-25 atom-23 atom-26" d="M 165.377,168.19 L 152.29,160.597" style="fill:none;fill-rule:evenodd;stroke:#000000;stroke-linecap:butt;stroke-linejoin:miter;stroke-opacity:1" />
<path class="bond-25 atom-23 atom-26" d="M 164.781,164.695 L 155.619,159.381" style="fill:none;fill-rule:evenodd;stroke:#000000;stroke-linecap:butt;stroke-linejoin:miter;stroke-opacity:1" />
<path class="bond-24 atom-24 atom-25" d="M 170.925,186.555 L 178.434,190.909" style="fill:none;fill-rule:evenodd;stroke:#000000;stroke-linecap:butt;stroke-linejoin:miter;stroke-opacity:1" />
<path class="bond-26 atom-26 atom-27" d="M 152.29,160.597 L 144.75,164.93" style="fill:none;fill-rule:evenodd;stroke:#000000;stroke-linecap:butt;stroke-linejoin:miter;stroke-opacity:1" />
<path class="bond-27 atom-27 atom-28" d="M 139.159,174.418 L 139.142,183.265" style="fill:none;fill-rule:evenodd;stroke:#000000;stroke-linecap:butt;stroke-linejoin:miter;stroke-opacity:1" />
<path class="bond-29 atom-29 atom-30" d="M 100,99.9743 L 86.9125,92.382" style="fill:none;fill-rule:evenodd;stroke:#000000;stroke-linecap:butt;stroke-linejoin:miter;stroke-opacity:1" />
<path class="bond-29 atom-29 atom-30" d="M 99.4035,96.4797 L 90.2422,91.1651" style="fill:none;fill-rule:evenodd;stroke:#000000;stroke-linecap:butt;stroke-linejoin:miter;stroke-opacity:1" />
<path class="atom-3" d="M 58.294 41.2793 L 62.006 47.2793 Q 62.374 47.8713, 62.966 48.9433 Q 63.558 50.0153, 63.59 50.0793 L 63.59 41.2793 L 65.094 41.2793 L 65.094 52.6073 L 63.542 52.6073 L 59.558 46.0473 Q 59.094 45.2793, 58.598 44.3993 Q 58.118 43.5193, 57.974 43.2473 L 57.974 52.6073 L 56.502 52.6073 L 56.502 41.2793 L 58.294 41.2793 " fill="#000000" />
<path class="atom-9" d="M 59.3672 63.9987 L 60.9032 63.9987 L 60.9032 68.8147 L 66.6952 68.8147 L 66.6952 63.9987 L 68.2312 63.9987 L 68.2312 75.3267 L 66.6952 75.3267 L 66.6952 70.0947 L 60.9032 70.0947 L 60.9032 75.3267 L 59.3672 75.3267 L 59.3672 63.9987 " fill="#000000" />
<path class="atom-9" d="M 71.3512 63.9987 L 75.0632 69.9987 Q 75.4312 70.5907, 76.0232 71.6627 Q 76.6152 72.7347, 76.6472 72.7987 L 76.6472 63.9987 L 78.1512 63.9987 L 78.1512 75.3267 L 76.5992 75.3267 L 72.6152 68.7667 Q 72.1512 67.9987, 71.6552 67.1187 Q 71.1752 66.2387, 71.0312 65.9667 L 71.0312 75.3267 L 69.5592 75.3267 L 69.5592 63.9987 L 71.3512 63.9987 " fill="#000000" />
<path class="atom-15" d="M 134.123 92.5199 Q 134.123 89.7999, 135.467 88.2799 Q 136.811 86.7599, 139.323 86.7599 Q 141.835 86.7599, 143.179 88.2799 Q 144.523 89.7999, 144.523 92.5199 Q 144.523 95.2719, 143.163 96.8399 Q 141.803 98.3919, 139.323 98.3919 Q 136.827 98.3919, 135.467 96.8399 Q 134.123 95.2879, 134.123 92.5199 M 139.323 97.1119 Q 141.051 97.1119, 141.979 95.9599 Q 142.923 94.7919, 142.923 92.5199 Q 142.923 90.2959, 141.979 89.1759 Q 141.051 88.0399, 139.323 88.0399 Q 137.595 88.0399, 136.651 89.1599 Q 135.723 90.2799, 135.723 92.5199 Q 135.723 94.8079, 136.651 95.9599 Q 137.595 97.1119, 139.323 97.1119 " fill="#000000" />
<path class="atom-16" d="M 111.687 109.492 L 113.223 109.492 L 113.223 114.308 L 119.015 114.308 L 119.015 109.492 L 120.551 109.492 L 120.551 120.82 L 119.015 120.82 L 119.015 115.588 L 113.223 115.588 L 113.223 120.82 L 111.687 120.82 L 111.687 109.492 " fill="#000000" />
<path class="atom-16" d="M 123.671 109.492 L 127.383 115.492 Q 127.751 116.084, 128.343 117.156 Q 128.935 118.228, 128.967 118.292 L 128.967 109.492 L 130.471 109.492 L 130.471 120.82 L 128.919 120.82 L 124.935 114.26 Q 124.471 113.492, 123.975 112.612 Q 123.495 111.732, 123.351 111.46 L 123.351 120.82 L 121.879 120.82 L 121.879 109.492 L 123.671 109.492 " fill="#000000" />
<path class="atom-17" d="M 136.759 117.084 L 140.471 123.084 Q 140.839 123.676, 141.431 124.748 Q 142.023 125.82, 142.055 125.884 L 142.055 117.084 L 143.559 117.084 L 143.559 128.412 L 142.007 128.412 L 138.023 121.852 Q 137.559 121.084, 137.063 120.204 Q 136.583 119.324, 136.439 119.052 L 136.439 128.412 L 134.967 128.412 L 134.967 117.084 L 136.759 117.084 " fill="#000000" />
<path class="atom-24" d="M 160.147 183.352 Q 160.147 180.632, 161.491 179.112 Q 162.835 177.592, 165.347 177.592 Q 167.859 177.592, 169.203 179.112 Q 170.547 180.632, 170.547 183.352 Q 170.547 186.104, 169.187 187.672 Q 167.827 189.224, 165.347 189.224 Q 162.851 189.224, 161.491 187.672 Q 160.147 186.12, 160.147 183.352 M 165.347 187.944 Q 167.075 187.944, 168.003 186.792 Q 168.947 185.624, 168.947 183.352 Q 168.947 181.128, 168.003 180.008 Q 167.075 178.872, 165.347 178.872 Q 163.619 178.872, 162.675 179.992 Q 161.747 181.112, 161.747 183.352 Q 161.747 185.64, 162.675 186.792 Q 163.619 187.944, 165.347 187.944 " fill="#000000" />
<path class="atom-27" d="M 133.972 168.167 Q 133.972 165.447, 135.316 163.927 Q 136.66 162.407, 139.172 162.407 Q 141.684 162.407, 143.028 163.927 Q 144.372 165.447, 144.372 168.167 Q 144.372 170.919, 143.012 172.487 Q 141.652 174.039, 139.172 174.039 Q 136.676 174.039, 135.316 172.487 Q 133.972 170.935, 133.972 168.167 M 139.172 172.759 Q 140.9 172.759, 141.828 171.607 Q 142.772 170.439, 142.772 168.167 Q 142.772 165.943, 141.828 164.823 Q 140.9 163.687, 139.172 163.687 Q 137.444 163.687, 136.5 164.807 Q 135.572 165.927, 135.572 168.167 Q 135.572 170.455, 136.5 171.607 Q 137.444 172.759, 139.172 172.759 " fill="#000000" />
</svg></g></g>
   <g id="text_2">
    
    <g style="fill:#262626;" transform="translate(161.29125 16.318125)scale(0.12 -0.12)">
     <defs>
      <path d="M 53.515625 70.515625  L 53.515625 60.890625  Q 47.90625 63.578125 42.921875 64.890625  Q 37.9375 66.21875 33.296875 66.21875  Q 25.25 66.21875 20.875 63.09375  Q 16.5 59.96875 16.5 54.203125  Q 16.5 49.359375 19.40625 46.890625  Q 22.3125 44.4375 30.421875 42.921875  L 36.375 41.703125  Q 47.40625 39.59375 52.65625 34.296875  Q 57.90625 29 57.90625 20.125  Q 57.90625 9.515625 50.796875 4.046875  Q 43.703125 -1.421875 29.984375 -1.421875  Q 24.8125 -1.421875 18.96875 -0.25  Q 13.140625 0.921875 6.890625 3.21875  L 6.890625 13.375  Q 12.890625 10.015625 18.65625 8.296875  Q 24.421875 6.59375 29.984375 6.59375  Q 38.421875 6.59375 43.015625 9.90625  Q 47.609375 13.234375 47.609375 19.390625  Q 47.609375 24.75 44.3125 27.78125  Q 41.015625 30.8125 33.5 32.328125  L 27.484375 33.5  Q 16.453125 35.6875 11.515625 40.375  Q 6.59375 45.0625 6.59375 53.421875  Q 6.59375 63.09375 13.40625 68.65625  Q 20.21875 74.21875 32.171875 74.21875  Q 37.3125 74.21875 42.625 73.28125  Q 47.953125 72.359375 53.515625 70.515625  z " id="DejaVuSans-83" />
      <path d="M 9.421875 54.6875  L 18.40625 54.6875  L 18.40625 0  L 9.421875 0  z M 9.421875 75.984375  L 18.40625 75.984375  L 18.40625 64.59375  L 9.421875 64.59375  z " id="DejaVuSans-105" />
      <path d="M 52 44.1875  Q 55.375 50.25 60.0625 53.125  Q 64.75 56 71.09375 56  Q 79.640625 56 84.28125 50.015625  Q 88.921875 44.046875 88.921875 33.015625  L 88.921875 0  L 79.890625 0  L 79.890625 32.71875  Q 79.890625 40.578125 77.09375 44.375  Q 74.3125 48.1875 68.609375 48.1875  Q 61.625 48.1875 57.5625 43.546875  Q 53.515625 38.921875 53.515625 30.90625  L 53.515625 0  L 44.484375 0  L 44.484375 32.71875  Q 44.484375 40.625 41.703125 44.40625  Q 38.921875 48.1875 33.109375 48.1875  Q 26.21875 48.1875 22.15625 43.53125  Q 18.109375 38.875 18.109375 30.90625  L 18.109375 0  L 9.078125 0  L 9.078125 54.6875  L 18.109375 54.6875  L 18.109375 46.1875  Q 21.1875 51.21875 25.484375 53.609375  Q 29.78125 56 35.6875 56  Q 41.65625 56 45.828125 52.96875  Q 50 49.953125 52 44.1875  z " id="DejaVuSans-109" />
      <path d="M 9.421875 75.984375  L 18.40625 75.984375  L 18.40625 0  L 9.421875 0  z " id="DejaVuSans-108" />
      <path d="M 41.109375 46.296875  Q 39.59375 47.171875 37.8125 47.578125  Q 36.03125 48 33.890625 48  Q 26.265625 48 22.1875 43.046875  Q 18.109375 38.09375 18.109375 28.8125  L 18.109375 0  L 9.078125 0  L 9.078125 54.6875  L 18.109375 54.6875  L 18.109375 46.1875  Q 20.953125 51.171875 25.484375 53.578125  Q 30.03125 56 36.53125 56  Q 37.453125 56 38.578125 55.875  Q 39.703125 55.765625 41.0625 55.515625  z " id="DejaVuSans-114" />
      <path d="M 18.3125 70.21875  L 18.3125 54.6875  L 36.8125 54.6875  L 36.8125 47.703125  L 18.3125 47.703125  L 18.3125 18.015625  Q 18.3125 11.328125 20.140625 9.421875  Q 21.96875 7.515625 27.59375 7.515625  L 36.8125 7.515625  L 36.8125 0  L 27.59375 0  Q 17.1875 0 13.234375 3.875  Q 9.28125 7.765625 9.28125 18.015625  L 9.28125 47.703125  L 2.6875 47.703125  L 2.6875 54.6875  L 9.28125 54.6875  L 9.28125 70.21875  z " id="DejaVuSans-116" />
      <path d="M 32.171875 -5.078125  Q 28.375 -14.84375 24.75 -17.8125  Q 21.140625 -20.796875 15.09375 -20.796875  L 7.90625 -20.796875  L 7.90625 -13.28125  L 13.1875 -13.28125  Q 16.890625 -13.28125 18.9375 -11.515625  Q 21 -9.765625 23.484375 -3.21875  L 25.09375 0.875  L 2.984375 54.6875  L 12.5 54.6875  L 29.59375 11.921875  L 46.6875 54.6875  L 56.203125 54.6875  z " id="DejaVuSans-121" />
      <path d="M 31.78125 34.625  Q 24.75 34.625 20.71875 30.859375  Q 16.703125 27.09375 16.703125 20.515625  Q 16.703125 13.921875 20.71875 10.15625  Q 24.75 6.390625 31.78125 6.390625  Q 38.8125 6.390625 42.859375 10.171875  Q 46.921875 13.96875 46.921875 20.515625  Q 46.921875 27.09375 42.890625 30.859375  Q 38.875 34.625 31.78125 34.625  z M 21.921875 38.8125  Q 15.578125 40.375 12.03125 44.71875  Q 8.5 49.078125 8.5 55.328125  Q 8.5 64.0625 14.71875 69.140625  Q 20.953125 74.21875 31.78125 74.21875  Q 42.671875 74.21875 48.875 69.140625  Q 55.078125 64.0625 55.078125 55.328125  Q 55.078125 49.078125 51.53125 44.71875  Q 48 40.375 41.703125 38.8125  Q 48.828125 37.15625 52.796875 32.3125  Q 56.78125 27.484375 56.78125 20.515625  Q 56.78125 9.90625 50.3125 4.234375  Q 43.84375 -1.421875 31.78125 -1.421875  Q 19.734375 -1.421875 13.25 4.234375  Q 6.78125 9.90625 6.78125 20.515625  Q 6.78125 27.484375 10.78125 32.3125  Q 14.796875 37.15625 21.921875 38.8125  z M 18.3125 54.390625  Q 18.3125 48.734375 21.84375 45.5625  Q 25.390625 42.390625 31.78125 42.390625  Q 38.140625 42.390625 41.71875 45.5625  Q 45.3125 48.734375 45.3125 54.390625  Q 45.3125 60.0625 41.71875 63.234375  Q 38.140625 66.40625 31.78125 66.40625  Q 25.390625 66.40625 21.84375 63.234375  Q 18.3125 60.0625 18.3125 54.390625  z " id="DejaVuSans-56" />
      <path d="M 8.203125 72.90625  L 55.078125 72.90625  L 55.078125 68.703125  L 28.609375 0  L 18.3125 0  L 43.21875 64.59375  L 8.203125 64.59375  z " id="DejaVuSans-55" />
     </defs>
     <use ns4:href="#DejaVuSans-83" />
     <use x="63.476562" ns4:href="#DejaVuSans-105" />
     <use x="91.259766" ns4:href="#DejaVuSans-109" />
     <use x="188.671875" ns4:href="#DejaVuSans-105" />
     <use x="216.455078" ns4:href="#DejaVuSans-108" />
     <use x="244.238281" ns4:href="#DejaVuSans-97" />
     <use x="305.517578" ns4:href="#DejaVuSans-114" />
     <use x="346.630859" ns4:href="#DejaVuSans-105" />
     <use x="374.414062" ns4:href="#DejaVuSans-116" />
     <use x="413.623047" ns4:href="#DejaVuSans-121" />
     <use x="472.802734" ns4:href="#DejaVuSans-32" />
     <use x="504.589844" ns4:href="#DejaVuSans-61" />
     <use x="588.378906" ns4:href="#DejaVuSans-32" />
     <use x="620.166016" ns4:href="#DejaVuSans-48" />
     <use x="683.789062" ns4:href="#DejaVuSans-46" />
     <use x="715.576172" ns4:href="#DejaVuSans-56" />
     <use x="779.199219" ns4:href="#DejaVuSans-55" />
    </g>
    
    <g style="fill:#262626;" transform="translate(161.5725 29.7555)scale(0.12 -0.12)">
     <defs>
      <path d="M 64.40625 67.28125  L 64.40625 56.890625  Q 59.421875 61.53125 53.78125 63.8125  Q 48.140625 66.109375 41.796875 66.109375  Q 29.296875 66.109375 22.65625 58.46875  Q 16.015625 50.828125 16.015625 36.375  Q 16.015625 21.96875 22.65625 14.328125  Q 29.296875 6.6875 41.796875 6.6875  Q 48.140625 6.6875 53.78125 8.984375  Q 59.421875 11.28125 64.40625 15.921875  L 64.40625 5.609375  Q 59.234375 2.09375 53.4375 0.328125  Q 47.65625 -1.421875 41.21875 -1.421875  Q 24.65625 -1.421875 15.125 8.703125  Q 5.609375 18.84375 5.609375 36.375  Q 5.609375 53.953125 15.125 64.078125  Q 24.65625 74.21875 41.21875 74.21875  Q 47.75 74.21875 53.53125 72.484375  Q 59.328125 70.75 64.40625 67.28125  z " id="DejaVuSans-67" />
      <path d="M 30.609375 48.390625  Q 23.390625 48.390625 19.1875 42.75  Q 14.984375 37.109375 14.984375 27.296875  Q 14.984375 17.484375 19.15625 11.84375  Q 23.34375 6.203125 30.609375 6.203125  Q 37.796875 6.203125 41.984375 11.859375  Q 46.1875 17.53125 46.1875 27.296875  Q 46.1875 37.015625 41.984375 42.703125  Q 37.796875 48.390625 30.609375 48.390625  z M 30.609375 56  Q 42.328125 56 49.015625 48.375  Q 55.71875 40.765625 55.71875 27.296875  Q 55.71875 13.875 49.015625 6.21875  Q 42.328125 -1.421875 30.609375 -1.421875  Q 18.84375 -1.421875 12.171875 6.21875  Q 5.515625 13.875 5.515625 27.296875  Q 5.515625 40.765625 12.171875 48.375  Q 18.84375 56 30.609375 56  z " id="DejaVuSans-111" />
      <path d="M 8.5 21.578125  L 8.5 54.6875  L 17.484375 54.6875  L 17.484375 21.921875  Q 17.484375 14.15625 20.5 10.265625  Q 23.53125 6.390625 29.59375 6.390625  Q 36.859375 6.390625 41.078125 11.03125  Q 45.3125 15.671875 45.3125 23.6875  L 45.3125 54.6875  L 54.296875 54.6875  L 54.296875 0  L 45.3125 0  L 45.3125 8.40625  Q 42.046875 3.421875 37.71875 1  Q 33.40625 -1.421875 27.6875 -1.421875  Q 18.265625 -1.421875 13.375 4.4375  Q 8.5 10.296875 8.5 21.578125  z M 31.109375 56  z " id="DejaVuSans-117" />
      <path d="M 54.890625 33.015625  L 54.890625 0  L 45.90625 0  L 45.90625 32.71875  Q 45.90625 40.484375 42.875 44.328125  Q 39.84375 48.1875 33.796875 48.1875  Q 26.515625 48.1875 22.3125 43.546875  Q 18.109375 38.921875 18.109375 30.90625  L 18.109375 0  L 9.078125 0  L 9.078125 54.6875  L 18.109375 54.6875  L 18.109375 46.1875  Q 21.34375 51.125 25.703125 53.5625  Q 30.078125 56 35.796875 56  Q 45.21875 56 50.046875 50.171875  Q 54.890625 44.34375 54.890625 33.015625  z " id="DejaVuSans-110" />
      <path d="M 48.78125 52.59375  L 48.78125 44.1875  Q 44.96875 46.296875 41.140625 47.34375  Q 37.3125 48.390625 33.40625 48.390625  Q 24.65625 48.390625 19.8125 42.84375  Q 14.984375 37.3125 14.984375 27.296875  Q 14.984375 17.28125 19.8125 11.734375  Q 24.65625 6.203125 33.40625 6.203125  Q 37.3125 6.203125 41.140625 7.25  Q 44.96875 8.296875 48.78125 10.40625  L 48.78125 2.09375  Q 45.015625 0.34375 40.984375 -0.53125  Q 36.96875 -1.421875 32.421875 -1.421875  Q 20.0625 -1.421875 12.78125 6.34375  Q 5.515625 14.109375 5.515625 27.296875  Q 5.515625 40.671875 12.859375 48.328125  Q 20.21875 56 33.015625 56  Q 37.15625 56 41.109375 55.140625  Q 45.0625 54.296875 48.78125 52.59375  z " id="DejaVuSans-99" />
     </defs>
     <use ns4:href="#DejaVuSans-67" />
     <use x="69.824219" ns4:href="#DejaVuSans-111" />
     <use x="131.005859" ns4:href="#DejaVuSans-117" />
     <use x="194.384766" ns4:href="#DejaVuSans-110" />
     <use x="257.763672" ns4:href="#DejaVuSans-116" />
     <use x="296.972656" ns4:href="#DejaVuSans-101" />
     <use x="358.496094" ns4:href="#DejaVuSans-114" />
     <use x="399.609375" ns4:href="#DejaVuSans-102" />
     <use x="434.814453" ns4:href="#DejaVuSans-97" />
     <use x="496.09375" ns4:href="#DejaVuSans-99" />
     <use x="551.074219" ns4:href="#DejaVuSans-116" />
     <use x="590.283203" ns4:href="#DejaVuSans-117" />
     <use x="653.662109" ns4:href="#DejaVuSans-97" />
     <use x="714.941406" ns4:href="#DejaVuSans-108" />
     <use x="742.724609" ns4:href="#DejaVuSans-32" />
     <use x="774.511719" ns4:href="#DejaVuSans-49" />
    </g>
    
    <g style="fill:#262626;" transform="translate(175.49625 43.192875)scale(0.12 -0.12)">
     <use ns4:href="#DejaVuSans-102" />
     <use x="35.205078" ns4:href="#DejaVuSans-40" />
     <use x="74.21875" ns4:href="#DejaVuSans-120" />
     <use x="133.398438" ns4:href="#DejaVuSans-41" />
     <use x="172.412109" ns4:href="#DejaVuSans-32" />
     <use x="204.199219" ns4:href="#DejaVuSans-61" />
     <use x="287.988281" ns4:href="#DejaVuSans-32" />
     <use x="319.775391" ns4:href="#DejaVuSans-48" />
     <use x="383.398438" ns4:href="#DejaVuSans-46" />
     <use x="415.185547" ns4:href="#DejaVuSans-48" />
     <use x="478.808594" ns4:href="#DejaVuSans-48" />
     <use x="542.431641" ns4:href="#DejaVuSans-48" />
    </g>
   </g>
  </g>
  <g id="axes_3">
   <g clip-path="url(#p46c8384b99)">
    <g id="rdkit-img-2-g"><svg baseProfile="full" height="114.0" version="1.1" viewBox="0 0 200 200" width="128.0" x="288.72" y="48.792875" xml:space="preserve">

<rect height="200" style="opacity:1.0;fill:#FFFFFF;stroke:none" width="200" x="0" y="0"> </rect>
<path d="M 61.7823,35.6883 L 49.0136,28.2809" style="fill:none;fill-rule:evenodd;stroke:#1BBC9B;stroke-width:4.7px;stroke-linecap:butt;stroke-linejoin:miter;stroke-opacity:1" />
<path d="M 49.0136,28.2809 L 49.0431,13.5194" style="fill:none;fill-rule:evenodd;stroke:#1BBC9B;stroke-width:4.7px;stroke-linecap:butt;stroke-linejoin:miter;stroke-opacity:1" />
<ellipse cx="61.7823" cy="35.6883" rx="4.42847" ry="4.42847" style="fill:#1BBC9B;fill-rule:evenodd;stroke:#1BBC9B;stroke-width:1.0px;stroke-linecap:butt;stroke-linejoin:miter;stroke-opacity:1" />
<ellipse cx="44.2056" cy="28.4329" rx="11.936" ry="8.22507" style="fill:#1BBC9B;fill-rule:evenodd;stroke:#1BBC9B;stroke-width:1.0px;stroke-linecap:butt;stroke-linejoin:miter;stroke-opacity:1" />
<ellipse cx="49.0431" cy="13.5194" rx="4.42847" ry="4.42847" style="fill:#1BBC9B;fill-rule:evenodd;stroke:#1BBC9B;stroke-width:1.0px;stroke-linecap:butt;stroke-linejoin:miter;stroke-opacity:1" />
<path class="bond-0 atom-0 atom-1" d="M 24.0496,58.9057 L 36.8479,51.5485" style="fill:none;fill-rule:evenodd;stroke:#000000;stroke-linecap:butt;stroke-linejoin:miter;stroke-opacity:1" />
<path class="bond-0 atom-0 atom-1" d="M 22.7254,56.6021 L 35.5236,49.2449" style="fill:none;fill-rule:evenodd;stroke:#000000;stroke-linecap:butt;stroke-linejoin:miter;stroke-opacity:1" />
<path class="bond-1 atom-1 atom-2" d="M 36.1858,50.3967 L 48.9545,57.8041" style="fill:none;fill-rule:evenodd;stroke:#000000;stroke-linecap:butt;stroke-linejoin:miter;stroke-opacity:1" />
<path class="bond-2 atom-2 atom-3" d="M 48.9545,57.8041 L 57.0878,53.1305" style="fill:none;fill-rule:evenodd;stroke:#000000;stroke-linecap:butt;stroke-linejoin:miter;stroke-opacity:1" />
<path class="bond-3 atom-3 atom-4" d="M 61.7649,44.4168 L 61.7823,35.6883" style="fill:none;fill-rule:evenodd;stroke:#000000;stroke-linecap:butt;stroke-linejoin:miter;stroke-opacity:1" />
<path class="bond-6 atom-3 atom-7" d="M 66.4178,53.155 L 74.5215,57.8543" style="fill:none;fill-rule:evenodd;stroke:#000000;stroke-linecap:butt;stroke-linejoin:miter;stroke-opacity:1" />
<path class="bond-4 atom-4 atom-5" d="M 61.7823,35.6883 L 53.0146,30.602" style="fill:none;fill-rule:evenodd;stroke:#000000;stroke-linecap:butt;stroke-linejoin:miter;stroke-opacity:1" />
<path class="bond-5 atom-5 atom-6" d="M 50.3541,22.2826 L 50.3716,13.522" style="fill:none;fill-rule:evenodd;stroke:#000000;stroke-linecap:butt;stroke-linejoin:miter;stroke-opacity:1" />
<path class="bond-5 atom-5 atom-6" d="M 47.697,22.2772 L 47.7145,13.5167" style="fill:none;fill-rule:evenodd;stroke:#000000;stroke-linecap:butt;stroke-linejoin:miter;stroke-opacity:1" />
<path class="bond-7 atom-7 atom-8" d="M 75.1835,59.0062 L 82.4127,54.8521" style="fill:none;fill-rule:evenodd;stroke:#000000;stroke-linecap:butt;stroke-linejoin:miter;stroke-opacity:1" />
<path class="bond-7 atom-7 atom-8" d="M 73.8596,56.7024 L 81.0889,52.5482" style="fill:none;fill-rule:evenodd;stroke:#000000;stroke-linecap:butt;stroke-linejoin:miter;stroke-opacity:1" />
<path class="bond-8 atom-7 atom-9" d="M 74.5215,57.8543 L 74.5041,66.5828" style="fill:none;fill-rule:evenodd;stroke:#000000;stroke-linecap:butt;stroke-linejoin:miter;stroke-opacity:1" />
<path class="bond-9 atom-9 atom-10" d="M 79.157,75.321 L 87.2608,80.0202" style="fill:none;fill-rule:evenodd;stroke:#000000;stroke-linecap:butt;stroke-linejoin:miter;stroke-opacity:1" />
<path class="bond-10 atom-10 atom-11" d="M 87.2608,80.0202 L 100.059,72.666" style="fill:none;fill-rule:evenodd;stroke:#000000;stroke-linecap:butt;stroke-linejoin:miter;stroke-opacity:1" />
<path class="bond-10 atom-10 atom-11" d="M 90.5043,81.2209 L 99.4631,76.073" style="fill:none;fill-rule:evenodd;stroke:#000000;stroke-linecap:butt;stroke-linejoin:miter;stroke-opacity:1" />
<path class="bond-30 atom-30 atom-10" d="M 87.2312,94.7818 L 87.2608,80.0202" style="fill:none;fill-rule:evenodd;stroke:#000000;stroke-linecap:butt;stroke-linejoin:miter;stroke-opacity:1" />
<path class="bond-11 atom-11 atom-12" d="M 100.059,72.666 L 112.828,80.0734" style="fill:none;fill-rule:evenodd;stroke:#000000;stroke-linecap:butt;stroke-linejoin:miter;stroke-opacity:1" />
<path class="bond-12 atom-12 atom-13" d="M 112.828,80.0734 L 112.798,94.8349" style="fill:none;fill-rule:evenodd;stroke:#000000;stroke-linecap:butt;stroke-linejoin:miter;stroke-opacity:1" />
<path class="bond-12 atom-12 atom-13" d="M 110.166,82.2823 L 110.146,92.6154" style="fill:none;fill-rule:evenodd;stroke:#000000;stroke-linecap:butt;stroke-linejoin:miter;stroke-opacity:1" />
<path class="bond-13 atom-13 atom-14" d="M 112.798,94.8349 L 125.567,102.239" style="fill:none;fill-rule:evenodd;stroke:#000000;stroke-linecap:butt;stroke-linejoin:miter;stroke-opacity:1" />
<path class="bond-28 atom-13 atom-29" d="M 112.798,94.8349 L 100,102.189" style="fill:none;fill-rule:evenodd;stroke:#000000;stroke-linecap:butt;stroke-linejoin:miter;stroke-opacity:1" />
<path class="bond-14 atom-14 atom-15" d="M 126.229,103.391 L 133.458,99.2371" style="fill:none;fill-rule:evenodd;stroke:#000000;stroke-linecap:butt;stroke-linejoin:miter;stroke-opacity:1" />
<path class="bond-14 atom-14 atom-15" d="M 124.905,101.087 L 132.134,96.9333" style="fill:none;fill-rule:evenodd;stroke:#000000;stroke-linecap:butt;stroke-linejoin:miter;stroke-opacity:1" />
<path class="bond-15 atom-14 atom-16" d="M 125.567,102.239 L 125.55,110.968" style="fill:none;fill-rule:evenodd;stroke:#000000;stroke-linecap:butt;stroke-linejoin:miter;stroke-opacity:1" />
<path class="bond-16 atom-16 atom-17" d="M 130.203,119.707 L 133.776,121.78" style="fill:none;fill-rule:evenodd;stroke:#000000;stroke-linecap:butt;stroke-linejoin:miter;stroke-opacity:1" />
<path class="bond-17 atom-17 atom-18" d="M 138.294,130.441 L 138.277,139.17" style="fill:none;fill-rule:evenodd;stroke:#000000;stroke-linecap:butt;stroke-linejoin:miter;stroke-opacity:1" />
<path class="bond-17 atom-17 atom-18" d="M 135.634,131.745 L 135.622,137.855" style="fill:none;fill-rule:evenodd;stroke:#000000;stroke-linecap:butt;stroke-linejoin:miter;stroke-opacity:1" />
<path class="bond-18 atom-18 atom-19" d="M 138.277,139.17 L 151.045,146.574" style="fill:none;fill-rule:evenodd;stroke:#000000;stroke-linecap:butt;stroke-linejoin:miter;stroke-opacity:1" />
<path class="bond-19 atom-19 atom-20" d="M 151.045,146.574 L 163.844,139.22" style="fill:none;fill-rule:evenodd;stroke:#000000;stroke-linecap:butt;stroke-linejoin:miter;stroke-opacity:1" />
<path class="bond-19 atom-19 atom-20" d="M 154.289,147.775 L 163.248,142.627" style="fill:none;fill-rule:evenodd;stroke:#000000;stroke-linecap:butt;stroke-linejoin:miter;stroke-opacity:1" />
<path class="bond-31 atom-26 atom-19" d="M 151.016,161.336 L 151.045,146.574" style="fill:none;fill-rule:evenodd;stroke:#000000;stroke-linecap:butt;stroke-linejoin:miter;stroke-opacity:1" />
<path class="bond-20 atom-20 atom-21" d="M 163.844,139.22 L 176.613,146.627" style="fill:none;fill-rule:evenodd;stroke:#000000;stroke-linecap:butt;stroke-linejoin:miter;stroke-opacity:1" />
<path class="bond-21 atom-21 atom-22" d="M 176.613,146.627 L 176.586,161.389" style="fill:none;fill-rule:evenodd;stroke:#000000;stroke-linecap:butt;stroke-linejoin:miter;stroke-opacity:1" />
<path class="bond-21 atom-21 atom-22" d="M 173.951,148.837 L 173.933,159.17" style="fill:none;fill-rule:evenodd;stroke:#000000;stroke-linecap:butt;stroke-linejoin:miter;stroke-opacity:1" />
<path class="bond-22 atom-22 atom-23" d="M 176.586,161.389 L 163.785,168.743" style="fill:none;fill-rule:evenodd;stroke:#000000;stroke-linecap:butt;stroke-linejoin:miter;stroke-opacity:1" />
<path class="bond-23 atom-23 atom-24" d="M 163.785,168.743 L 163.767,177.408" style="fill:none;fill-rule:evenodd;stroke:#000000;stroke-linecap:butt;stroke-linejoin:miter;stroke-opacity:1" />
<path class="bond-25 atom-23 atom-26" d="M 163.785,168.743 L 151.016,161.336" style="fill:none;fill-rule:evenodd;stroke:#000000;stroke-linecap:butt;stroke-linejoin:miter;stroke-opacity:1" />
<path class="bond-25 atom-23 atom-26" d="M 163.203,165.334 L 154.265,160.149" style="fill:none;fill-rule:evenodd;stroke:#000000;stroke-linecap:butt;stroke-linejoin:miter;stroke-opacity:1" />
<path class="bond-24 atom-24 atom-25" d="M 169.324,186.734 L 176.524,190.909" style="fill:none;fill-rule:evenodd;stroke:#000000;stroke-linecap:butt;stroke-linejoin:miter;stroke-opacity:1" />
<path class="bond-26 atom-26 atom-27" d="M 151.016,161.336 L 143.787,165.49" style="fill:none;fill-rule:evenodd;stroke:#000000;stroke-linecap:butt;stroke-linejoin:miter;stroke-opacity:1" />
<path class="bond-27 atom-27 atom-28" d="M 138.205,174.963 L 138.188,183.452" style="fill:none;fill-rule:evenodd;stroke:#000000;stroke-linecap:butt;stroke-linejoin:miter;stroke-opacity:1" />
<path class="bond-29 atom-29 atom-30" d="M 100,102.189 L 87.2312,94.7818" style="fill:none;fill-rule:evenodd;stroke:#000000;stroke-linecap:butt;stroke-linejoin:miter;stroke-opacity:1" />
<path class="bond-29 atom-29 atom-30" d="M 99.418,98.7797 L 90.4799,93.5946" style="fill:none;fill-rule:evenodd;stroke:#000000;stroke-linecap:butt;stroke-linejoin:miter;stroke-opacity:1" />
<path class="atom-3" d="M 59.2488 44.7859 L 62.9608 50.7859 Q 63.3288 51.3779, 63.9208 52.4499 Q 64.5128 53.5219, 64.5448 53.5859 L 64.5448 44.7859 L 66.0488 44.7859 L 66.0488 56.1139 L 64.4968 56.1139 L 60.5128 49.5539 Q 60.0488 48.7859, 59.5528 47.9059 Q 59.0728 47.0259, 58.9288 46.7539 L 58.9288 56.1139 L 57.4568 56.1139 L 57.4568 44.7859 L 59.2488 44.7859 " fill="#000000" />
<path class="atom-5" d="M 35.7656 22.6169 L 37.3016 22.6169 L 37.3016 27.4329 L 43.0936 27.4329 L 43.0936 22.6169 L 44.6296 22.6169 L 44.6296 33.9449 L 43.0936 33.9449 L 43.0936 28.7129 L 37.3016 28.7129 L 37.3016 33.9449 L 35.7656 33.9449 L 35.7656 22.6169 " fill="#000000" />
<path class="atom-5" d="M 45.8136 32.1849 Q 45.9416 32.2329, 46.4696 32.4569 Q 46.9976 32.6809, 47.5736 32.8249 Q 48.1656 32.9529, 48.7416 32.9529 Q 49.8136 32.9529, 50.4376 32.4409 Q 51.0616 31.9129, 51.0616 31.0009 Q 51.0616 30.3769, 50.7416 29.9929 Q 50.4376 29.6089, 49.9576 29.4009 Q 49.4776 29.1929, 48.6776 28.9529 Q 47.6696 28.6489, 47.0616 28.3609 Q 46.4696 28.0729, 46.0376 27.4649 Q 45.6216 26.8569, 45.6216 25.8329 Q 45.6216 24.4089, 46.5816 23.5289 Q 47.5576 22.6489, 49.4776 22.6489 Q 50.7896 22.6489, 52.2776 23.2729 L 51.9096 24.5049 Q 50.5496 23.9449, 49.5256 23.9449 Q 48.4216 23.9449, 47.8136 24.4089 Q 47.2056 24.8569, 47.2216 25.6409 Q 47.2216 26.2489, 47.5256 26.6169 Q 47.8456 26.9849, 48.2936 27.1929 Q 48.7576 27.4009, 49.5256 27.6409 Q 50.5496 27.9609, 51.1576 28.2809 Q 51.7656 28.6009, 52.1976 29.2569 Q 52.6456 29.8969, 52.6456 31.0009 Q 52.6456 32.5689, 51.5896 33.4169 Q 50.5496 34.2489, 48.8056 34.2489 Q 47.7976 34.2489, 47.0296 34.0249 Q 46.2776 33.8169, 45.3816 33.4489 L 45.8136 32.1849 " fill="#000000" />
<path class="atom-8" d="M 82.1198 50.5321 Q 82.1198 47.8121, 83.4638 46.2921 Q 84.8078 44.7721, 87.3198 44.7721 Q 89.8318 44.7721, 91.1758 46.2921 Q 92.5198 47.8121, 92.5198 50.5321 Q 92.5198 53.2841, 91.1598 54.8521 Q 89.7998 56.4041, 87.3198 56.4041 Q 84.8238 56.4041, 83.4638 54.8521 Q 82.1198 53.3001, 82.1198 50.5321 M 87.3198 55.1241 Q 89.0478 55.1241, 89.9758 53.9721 Q 90.9198 52.8041, 90.9198 50.5321 Q 90.9198 48.3081, 89.9758 47.1881 Q 89.0478 46.0521, 87.3198 46.0521 Q 85.5918 46.0521, 84.6478 47.1721 Q 83.7198 48.2921, 83.7198 50.5321 Q 83.7198 52.8201, 84.6478 53.9721 Q 85.5918 55.1241, 87.3198 55.1241 " fill="#000000" />
<path class="atom-9" d="M 60.004 66.9518 L 61.54 66.9518 L 61.54 71.7678 L 67.332 71.7678 L 67.332 66.9518 L 68.868 66.9518 L 68.868 78.2798 L 67.332 78.2798 L 67.332 73.0478 L 61.54 73.0478 L 61.54 78.2798 L 60.004 78.2798 L 60.004 66.9518 " fill="#000000" />
<path class="atom-9" d="M 71.988 66.9518 L 75.7 72.9518 Q 76.068 73.5438, 76.66 74.6158 Q 77.252 75.6878, 77.284 75.7518 L 77.284 66.9518 L 78.788 66.9518 L 78.788 78.2798 L 77.236 78.2798 L 73.252 71.7198 Q 72.788 70.9518, 72.292 70.0718 Q 71.812 69.1918, 71.668 68.9198 L 71.668 78.2798 L 70.196 78.2798 L 70.196 66.9518 L 71.988 66.9518 " fill="#000000" />
<path class="atom-15" d="M 133.165 94.9171 Q 133.165 92.1971, 134.509 90.6771 Q 135.853 89.1571, 138.365 89.1571 Q 140.877 89.1571, 142.221 90.6771 Q 143.565 92.1971, 143.565 94.9171 Q 143.565 97.6691, 142.205 99.2371 Q 140.845 100.789, 138.365 100.789 Q 135.869 100.789, 134.509 99.2371 Q 133.165 97.6851, 133.165 94.9171 M 138.365 99.5091 Q 140.093 99.5091, 141.021 98.3571 Q 141.965 97.1891, 141.965 94.9171 Q 141.965 92.6931, 141.021 91.5731 Q 140.093 90.4371, 138.365 90.4371 Q 136.637 90.4371, 135.693 91.5571 Q 134.765 92.6771, 134.765 94.9171 Q 134.765 97.2051, 135.693 98.3571 Q 136.637 99.5091, 138.365 99.5091 " fill="#000000" />
<path class="atom-16" d="M 111.05 111.337 L 112.586 111.337 L 112.586 116.153 L 118.378 116.153 L 118.378 111.337 L 119.914 111.337 L 119.914 122.665 L 118.378 122.665 L 118.378 117.433 L 112.586 117.433 L 112.586 122.665 L 111.05 122.665 L 111.05 111.337 " fill="#000000" />
<path class="atom-16" d="M 123.034 111.337 L 126.746 117.337 Q 127.114 117.929, 127.706 119.001 Q 128.298 120.073, 128.33 120.137 L 128.33 111.337 L 129.834 111.337 L 129.834 122.665 L 128.282 122.665 L 124.298 116.105 Q 123.834 115.337, 123.338 114.457 Q 122.858 113.577, 122.714 113.305 L 122.714 122.665 L 121.242 122.665 L 121.242 111.337 L 123.034 111.337 " fill="#000000" />
<path class="atom-17" d="M 135.802 118.744 L 139.514 124.744 Q 139.882 125.336, 140.474 126.408 Q 141.066 127.48, 141.098 127.544 L 141.098 118.744 L 142.602 118.744 L 142.602 130.072 L 141.05 130.072 L 137.066 123.512 Q 136.602 122.744, 136.106 121.864 Q 135.626 120.984, 135.482 120.712 L 135.482 130.072 L 134.01 130.072 L 134.01 118.744 L 135.802 118.744 " fill="#000000" />
<path class="atom-24" d="M 158.555 183.537 Q 158.555 180.817, 159.899 179.297 Q 161.243 177.777, 163.755 177.777 Q 166.267 177.777, 167.611 179.297 Q 168.955 180.817, 168.955 183.537 Q 168.955 186.289, 167.595 187.857 Q 166.235 189.409, 163.755 189.409 Q 161.259 189.409, 159.899 187.857 Q 158.555 186.305, 158.555 183.537 M 163.755 188.129 Q 165.483 188.129, 166.411 186.977 Q 167.355 185.809, 167.355 183.537 Q 167.355 181.313, 166.411 180.193 Q 165.483 179.057, 163.755 179.057 Q 162.027 179.057, 161.083 180.177 Q 160.155 181.297, 160.155 183.537 Q 160.155 185.825, 161.083 186.977 Q 162.027 188.129, 163.755 188.129 " fill="#000000" />
<path class="atom-27" d="M 133.018 168.722 Q 133.018 166.002, 134.362 164.482 Q 135.706 162.962, 138.218 162.962 Q 140.73 162.962, 142.074 164.482 Q 143.418 166.002, 143.418 168.722 Q 143.418 171.474, 142.058 173.042 Q 140.698 174.594, 138.218 174.594 Q 135.722 174.594, 134.362 173.042 Q 133.018 171.49, 133.018 168.722 M 138.218 173.314 Q 139.946 173.314, 140.874 172.162 Q 141.818 170.994, 141.818 168.722 Q 141.818 166.498, 140.874 165.378 Q 139.946 164.242, 138.218 164.242 Q 136.49 164.242, 135.546 165.362 Q 134.618 166.482, 134.618 168.722 Q 134.618 171.01, 135.546 172.162 Q 136.49 173.314, 138.218 173.314 " fill="#000000" />
</svg></g></g>
   <g id="text_3">
    
    <g style="fill:#262626;" transform="translate(302.05125 16.318125)scale(0.12 -0.12)">
     <defs>
      <path d="M 10.796875 72.90625  L 49.515625 72.90625  L 49.515625 64.59375  L 19.828125 64.59375  L 19.828125 46.734375  Q 21.96875 47.46875 24.109375 47.828125  Q 26.265625 48.1875 28.421875 48.1875  Q 40.625 48.1875 47.75 41.5  Q 54.890625 34.8125 54.890625 23.390625  Q 54.890625 11.625 47.5625 5.09375  Q 40.234375 -1.421875 26.90625 -1.421875  Q 22.3125 -1.421875 17.546875 -0.640625  Q 12.796875 0.140625 7.71875 1.703125  L 7.71875 11.625  Q 12.109375 9.234375 16.796875 8.0625  Q 21.484375 6.890625 26.703125 6.890625  Q 35.15625 6.890625 40.078125 11.328125  Q 45.015625 15.765625 45.015625 23.390625  Q 45.015625 31 40.078125 35.4375  Q 35.15625 39.890625 26.703125 39.890625  Q 22.75 39.890625 18.8125 39.015625  Q 14.890625 38.140625 10.796875 36.28125  z " id="DejaVuSans-53" />
     </defs>
     <use ns4:href="#DejaVuSans-83" />
     <use x="63.476562" ns4:href="#DejaVuSans-105" />
     <use x="91.259766" ns4:href="#DejaVuSans-109" />
     <use x="188.671875" ns4:href="#DejaVuSans-105" />
     <use x="216.455078" ns4:href="#DejaVuSans-108" />
     <use x="244.238281" ns4:href="#DejaVuSans-97" />
     <use x="305.517578" ns4:href="#DejaVuSans-114" />
     <use x="346.630859" ns4:href="#DejaVuSans-105" />
     <use x="374.414062" ns4:href="#DejaVuSans-116" />
     <use x="413.623047" ns4:href="#DejaVuSans-121" />
     <use x="472.802734" ns4:href="#DejaVuSans-32" />
     <use x="504.589844" ns4:href="#DejaVuSans-61" />
     <use x="588.378906" ns4:href="#DejaVuSans-32" />
     <use x="620.166016" ns4:href="#DejaVuSans-48" />
     <use x="683.789062" ns4:href="#DejaVuSans-46" />
     <use x="715.576172" ns4:href="#DejaVuSans-56" />
     <use x="779.199219" ns4:href="#DejaVuSans-53" />
    </g>
    
    <g style="fill:#262626;" transform="translate(302.3325 29.7555)scale(0.12 -0.12)">
     <defs>
      <path d="M 19.1875 8.296875  L 53.609375 8.296875  L 53.609375 0  L 7.328125 0  L 7.328125 8.296875  Q 12.9375 14.109375 22.625 23.890625  Q 32.328125 33.6875 34.8125 36.53125  Q 39.546875 41.84375 41.421875 45.53125  Q 43.3125 49.21875 43.3125 52.78125  Q 43.3125 58.59375 39.234375 62.25  Q 35.15625 65.921875 28.609375 65.921875  Q 23.96875 65.921875 18.8125 64.3125  Q 13.671875 62.703125 7.8125 59.421875  L 7.8125 69.390625  Q 13.765625 71.78125 18.9375 73  Q 24.125 74.21875 28.421875 74.21875  Q 39.75 74.21875 46.484375 68.546875  Q 53.21875 62.890625 53.21875 53.421875  Q 53.21875 48.921875 51.53125 44.890625  Q 49.859375 40.875 45.40625 35.40625  Q 44.1875 33.984375 37.640625 27.21875  Q 31.109375 20.453125 19.1875 8.296875  z " id="DejaVuSans-50" />
     </defs>
     <use ns4:href="#DejaVuSans-67" />
     <use x="69.824219" ns4:href="#DejaVuSans-111" />
     <use x="131.005859" ns4:href="#DejaVuSans-117" />
     <use x="194.384766" ns4:href="#DejaVuSans-110" />
     <use x="257.763672" ns4:href="#DejaVuSans-116" />
     <use x="296.972656" ns4:href="#DejaVuSans-101" />
     <use x="358.496094" ns4:href="#DejaVuSans-114" />
     <use x="399.609375" ns4:href="#DejaVuSans-102" />
     <use x="434.814453" ns4:href="#DejaVuSans-97" />
     <use x="496.09375" ns4:href="#DejaVuSans-99" />
     <use x="551.074219" ns4:href="#DejaVuSans-116" />
     <use x="590.283203" ns4:href="#DejaVuSans-117" />
     <use x="653.662109" ns4:href="#DejaVuSans-97" />
     <use x="714.941406" ns4:href="#DejaVuSans-108" />
     <use x="742.724609" ns4:href="#DejaVuSans-32" />
     <use x="774.511719" ns4:href="#DejaVuSans-50" />
    </g>
    
    <g style="fill:#262626;" transform="translate(316.25625 43.192875)scale(0.12 -0.12)">
     <use ns4:href="#DejaVuSans-102" />
     <use x="35.205078" ns4:href="#DejaVuSans-40" />
     <use x="74.21875" ns4:href="#DejaVuSans-120" />
     <use x="133.398438" ns4:href="#DejaVuSans-41" />
     <use x="172.412109" ns4:href="#DejaVuSans-32" />
     <use x="204.199219" ns4:href="#DejaVuSans-61" />
     <use x="287.988281" ns4:href="#DejaVuSans-32" />
     <use x="319.775391" ns4:href="#DejaVuSans-48" />
     <use x="383.398438" ns4:href="#DejaVuSans-46" />
     <use x="415.185547" ns4:href="#DejaVuSans-48" />
     <use x="478.808594" ns4:href="#DejaVuSans-48" />
     <use x="542.431641" ns4:href="#DejaVuSans-48" />
    </g>
   </g>
  </g>
  <g id="axes_4">
   <g clip-path="url(#p1b72555542)">
    <g id="rdkit-img-3-g"><svg baseProfile="full" height="114.0" version="1.1" viewBox="0 0 200 200" width="128.0" x="429.48" y="48.792875" xml:space="preserve">

<rect height="200" style="opacity:1.0;fill:#FFFFFF;stroke:none" width="200" x="0" y="0"> </rect>
<path d="M 12.7217,104.169 L 23.1976,110.228" style="fill:none;fill-rule:evenodd;stroke:#1BBC9B;stroke-width:3.9px;stroke-linecap:butt;stroke-linejoin:miter;stroke-opacity:1" />
<path d="M 23.1976,110.228 L 33.6832,104.186" style="fill:none;fill-rule:evenodd;stroke:#1BBC9B;stroke-width:3.9px;stroke-linecap:butt;stroke-linejoin:miter;stroke-opacity:1" />
<path d="M 33.6832,104.186 L 44.1591,110.245" style="fill:none;fill-rule:evenodd;stroke:#1BBC9B;stroke-width:3.9px;stroke-linecap:butt;stroke-linejoin:miter;stroke-opacity:1" />
<path d="M 44.1591,110.245 L 44.1494,122.347" style="fill:none;fill-rule:evenodd;stroke:#1BBC9B;stroke-width:3.9px;stroke-linecap:butt;stroke-linejoin:miter;stroke-opacity:1" />
<path d="M 44.1591,110.245 L 54.6447,104.203" style="fill:none;fill-rule:evenodd;stroke:#1BBC9B;stroke-width:3.9px;stroke-linecap:butt;stroke-linejoin:miter;stroke-opacity:1" />
<path d="M 44.1494,122.347 L 33.6638,128.391" style="fill:none;fill-rule:evenodd;stroke:#1BBC9B;stroke-width:3.9px;stroke-linecap:butt;stroke-linejoin:miter;stroke-opacity:1" />
<ellipse cx="12.7217" cy="104.169" rx="3.63075" ry="3.63075" style="fill:#1BBC9B;fill-rule:evenodd;stroke:#1BBC9B;stroke-width:1.0px;stroke-linecap:butt;stroke-linejoin:miter;stroke-opacity:1" />
<ellipse cx="23.1976" cy="110.228" rx="3.63075" ry="3.63075" style="fill:#1BBC9B;fill-rule:evenodd;stroke:#1BBC9B;stroke-width:1.0px;stroke-linecap:butt;stroke-linejoin:miter;stroke-opacity:1" />
<ellipse cx="33.6832" cy="104.186" rx="3.63075" ry="3.63075" style="fill:#1BBC9B;fill-rule:evenodd;stroke:#1BBC9B;stroke-width:1.0px;stroke-linecap:butt;stroke-linejoin:miter;stroke-opacity:1" />
<ellipse cx="44.1591" cy="110.245" rx="3.63075" ry="3.63075" style="fill:#1BBC9B;fill-rule:evenodd;stroke:#1BBC9B;stroke-width:1.0px;stroke-linecap:butt;stroke-linejoin:miter;stroke-opacity:1" />
<ellipse cx="44.1494" cy="122.347" rx="3.63075" ry="3.63075" style="fill:#1BBC9B;fill-rule:evenodd;stroke:#1BBC9B;stroke-width:1.0px;stroke-linecap:butt;stroke-linejoin:miter;stroke-opacity:1" />
<ellipse cx="33.6638" cy="128.391" rx="3.63075" ry="3.63075" style="fill:#1BBC9B;fill-rule:evenodd;stroke:#1BBC9B;stroke-width:1.0px;stroke-linecap:butt;stroke-linejoin:miter;stroke-opacity:1" />
<ellipse cx="54.6447" cy="104.203" rx="3.63075" ry="3.63075" style="fill:#1BBC9B;fill-rule:evenodd;stroke:#1BBC9B;stroke-width:1.0px;stroke-linecap:butt;stroke-linejoin:miter;stroke-opacity:1" />
<path class="bond-0 atom-0 atom-1" d="M 12.1764,105.112 L 22.6523,111.171" style="fill:none;fill-rule:evenodd;stroke:#000000;stroke-linecap:butt;stroke-linejoin:miter;stroke-opacity:1" />
<path class="bond-0 atom-0 atom-1" d="M 13.267,103.226 L 23.7429,109.285" style="fill:none;fill-rule:evenodd;stroke:#000000;stroke-linecap:butt;stroke-linejoin:miter;stroke-opacity:1" />
<path class="bond-1 atom-1 atom-2" d="M 23.1976,110.228 L 33.6832,104.186" style="fill:none;fill-rule:evenodd;stroke:#000000;stroke-linecap:butt;stroke-linejoin:miter;stroke-opacity:1" />
<path class="bond-2 atom-2 atom-3" d="M 33.6832,104.186 L 44.1591,110.245" style="fill:none;fill-rule:evenodd;stroke:#000000;stroke-linecap:butt;stroke-linejoin:miter;stroke-opacity:1" />
<path class="bond-3 atom-3 atom-4" d="M 44.1591,110.245 L 44.1494,122.347" style="fill:none;fill-rule:evenodd;stroke:#000000;stroke-linecap:butt;stroke-linejoin:miter;stroke-opacity:1" />
<path class="bond-5 atom-3 atom-6" d="M 44.1591,110.245 L 54.6447,104.203" style="fill:none;fill-rule:evenodd;stroke:#000000;stroke-linecap:butt;stroke-linejoin:miter;stroke-opacity:1" />
<path class="bond-4 atom-4 atom-5" d="M 43.6055,121.404 L 33.1199,127.448" style="fill:none;fill-rule:evenodd;stroke:#000000;stroke-linecap:butt;stroke-linejoin:miter;stroke-opacity:1" />
<path class="bond-4 atom-4 atom-5" d="M 44.6934,123.291 L 34.2078,129.335" style="fill:none;fill-rule:evenodd;stroke:#000000;stroke-linecap:butt;stroke-linejoin:miter;stroke-opacity:1" />
<path class="bond-6 atom-6 atom-7" d="M 55.7339,104.204 L 55.7386,98.3081" style="fill:none;fill-rule:evenodd;stroke:#000000;stroke-linecap:butt;stroke-linejoin:miter;stroke-opacity:1" />
<path class="bond-6 atom-6 atom-7" d="M 53.5555,104.202 L 53.5602,98.3064" style="fill:none;fill-rule:evenodd;stroke:#000000;stroke-linecap:butt;stroke-linejoin:miter;stroke-opacity:1" />
<path class="bond-7 atom-6 atom-8" d="M 54.6447,104.203 L 60.5221,107.602" style="fill:none;fill-rule:evenodd;stroke:#000000;stroke-linecap:butt;stroke-linejoin:miter;stroke-opacity:1" />
<path class="bond-8 atom-8 atom-9" d="M 69.7192,107.612 L 75.6062,104.22" style="fill:none;fill-rule:evenodd;stroke:#000000;stroke-linecap:butt;stroke-linejoin:miter;stroke-opacity:1" />
<path class="bond-9 atom-9 atom-10" d="M 75.6062,104.22 L 75.6159,92.1152" style="fill:none;fill-rule:evenodd;stroke:#000000;stroke-linecap:butt;stroke-linejoin:miter;stroke-opacity:1" />
<path class="bond-9 atom-9 atom-10" d="M 77.7861,102.406 L 77.7929,93.9327" style="fill:none;fill-rule:evenodd;stroke:#000000;stroke-linecap:butt;stroke-linejoin:miter;stroke-opacity:1" />
<path class="bond-29 atom-29 atom-9" d="M 86.0821,110.276 L 75.6062,104.22" style="fill:none;fill-rule:evenodd;stroke:#000000;stroke-linecap:butt;stroke-linejoin:miter;stroke-opacity:1" />
<path class="bond-10 atom-10 atom-11" d="M 75.6159,92.1152 L 86.1015,86.0737" style="fill:none;fill-rule:evenodd;stroke:#000000;stroke-linecap:butt;stroke-linejoin:miter;stroke-opacity:1" />
<path class="bond-11 atom-11 atom-12" d="M 86.1015,86.0737 L 96.5774,92.1322" style="fill:none;fill-rule:evenodd;stroke:#000000;stroke-linecap:butt;stroke-linejoin:miter;stroke-opacity:1" />
<path class="bond-11 atom-11 atom-12" d="M 86.5823,88.8682 L 93.9154,93.1092" style="fill:none;fill-rule:evenodd;stroke:#000000;stroke-linecap:butt;stroke-linejoin:miter;stroke-opacity:1" />
<path class="bond-12 atom-12 atom-13" d="M 96.5774,92.1322 L 107.063,86.0906" style="fill:none;fill-rule:evenodd;stroke:#000000;stroke-linecap:butt;stroke-linejoin:miter;stroke-opacity:1" />
<path class="bond-27 atom-12 atom-28" d="M 96.5774,92.1322 L 96.5677,104.237" style="fill:none;fill-rule:evenodd;stroke:#000000;stroke-linecap:butt;stroke-linejoin:miter;stroke-opacity:1" />
<path class="bond-13 atom-13 atom-14" d="M 108.152,86.0915 L 108.157,80.1955" style="fill:none;fill-rule:evenodd;stroke:#000000;stroke-linecap:butt;stroke-linejoin:miter;stroke-opacity:1" />
<path class="bond-13 atom-13 atom-14" d="M 105.974,86.0897 L 105.979,80.1938" style="fill:none;fill-rule:evenodd;stroke:#000000;stroke-linecap:butt;stroke-linejoin:miter;stroke-opacity:1" />
<path class="bond-14 atom-13 atom-15" d="M 107.063,86.0906 L 112.94,89.4897" style="fill:none;fill-rule:evenodd;stroke:#000000;stroke-linecap:butt;stroke-linejoin:miter;stroke-opacity:1" />
<path class="bond-15 atom-15 atom-16" d="M 122.137,89.4995 L 123.559,88.6807" style="fill:none;fill-rule:evenodd;stroke:#000000;stroke-linecap:butt;stroke-linejoin:miter;stroke-opacity:1" />
<path class="bond-16 atom-16 atom-17" d="M 132.623,88.767 L 138.5,92.1661" style="fill:none;fill-rule:evenodd;stroke:#000000;stroke-linecap:butt;stroke-linejoin:miter;stroke-opacity:1" />
<path class="bond-16 atom-16 atom-17" d="M 132.414,91.1627 L 136.528,93.542" style="fill:none;fill-rule:evenodd;stroke:#000000;stroke-linecap:butt;stroke-linejoin:miter;stroke-opacity:1" />
<path class="bond-17 atom-17 atom-18" d="M 138.5,92.1661 L 148.986,86.1245" style="fill:none;fill-rule:evenodd;stroke:#000000;stroke-linecap:butt;stroke-linejoin:miter;stroke-opacity:1" />
<path class="bond-18 atom-18 atom-19" d="M 148.986,86.1245 L 148.996,74.0196" style="fill:none;fill-rule:evenodd;stroke:#000000;stroke-linecap:butt;stroke-linejoin:miter;stroke-opacity:1" />
<path class="bond-18 atom-18 atom-19" d="M 151.166,84.3105 L 151.173,75.8371" style="fill:none;fill-rule:evenodd;stroke:#000000;stroke-linecap:butt;stroke-linejoin:miter;stroke-opacity:1" />
<path class="bond-30 atom-25 atom-18" d="M 159.462,92.183 L 148.986,86.1245" style="fill:none;fill-rule:evenodd;stroke:#000000;stroke-linecap:butt;stroke-linejoin:miter;stroke-opacity:1" />
<path class="bond-19 atom-19 atom-20" d="M 148.996,74.0196 L 159.481,67.978" style="fill:none;fill-rule:evenodd;stroke:#000000;stroke-linecap:butt;stroke-linejoin:miter;stroke-opacity:1" />
<path class="bond-20 atom-20 atom-21" d="M 159.481,67.978 L 169.957,74.0365" style="fill:none;fill-rule:evenodd;stroke:#000000;stroke-linecap:butt;stroke-linejoin:miter;stroke-opacity:1" />
<path class="bond-20 atom-20 atom-21" d="M 159.962,70.7726 L 167.295,75.0135" style="fill:none;fill-rule:evenodd;stroke:#000000;stroke-linecap:butt;stroke-linejoin:miter;stroke-opacity:1" />
<path class="bond-21 atom-21 atom-22" d="M 169.957,74.0365 L 169.948,86.1414" style="fill:none;fill-rule:evenodd;stroke:#000000;stroke-linecap:butt;stroke-linejoin:miter;stroke-opacity:1" />
<path class="bond-22 atom-22 atom-23" d="M 169.948,86.1414 L 174.921,89.0177" style="fill:none;fill-rule:evenodd;stroke:#000000;stroke-linecap:butt;stroke-linejoin:miter;stroke-opacity:1" />
<path class="bond-24 atom-22 atom-25" d="M 169.948,86.1414 L 159.462,92.183" style="fill:none;fill-rule:evenodd;stroke:#000000;stroke-linecap:butt;stroke-linejoin:miter;stroke-opacity:1" />
<path class="bond-24 atom-22 atom-25" d="M 167.287,85.1601 L 159.947,89.3892" style="fill:none;fill-rule:evenodd;stroke:#000000;stroke-linecap:butt;stroke-linejoin:miter;stroke-opacity:1" />
<path class="bond-23 atom-23 atom-24" d="M 185.926,89.0282 L 190.909,86.156" style="fill:none;fill-rule:evenodd;stroke:#000000;stroke-linecap:butt;stroke-linejoin:miter;stroke-opacity:1" />
<path class="bond-25 atom-25 atom-26" d="M 159.462,92.183 L 159.457,98.2549" style="fill:none;fill-rule:evenodd;stroke:#000000;stroke-linecap:butt;stroke-linejoin:miter;stroke-opacity:1" />
<path class="bond-26 atom-26 atom-27" d="M 164.955,107.468 L 169.928,110.344" style="fill:none;fill-rule:evenodd;stroke:#000000;stroke-linecap:butt;stroke-linejoin:miter;stroke-opacity:1" />
<path class="bond-28 atom-28 atom-29" d="M 96.5677,104.237 L 86.0821,110.276" style="fill:none;fill-rule:evenodd;stroke:#000000;stroke-linecap:butt;stroke-linejoin:miter;stroke-opacity:1" />
<path class="bond-28 atom-28 atom-29" d="M 93.9077,103.255 L 86.5677,107.483" style="fill:none;fill-rule:evenodd;stroke:#000000;stroke-linecap:butt;stroke-linejoin:miter;stroke-opacity:1" />
<path class="atom-7" d="M 49.4544 92.1327 Q 49.4544 89.4127, 50.7984 87.8927 Q 52.1424 86.3727, 54.6544 86.3727 Q 57.1664 86.3727, 58.5104 87.8927 Q 59.8544 89.4127, 59.8544 92.1327 Q 59.8544 94.8847, 58.4944 96.4527 Q 57.1344 98.0047, 54.6544 98.0047 Q 52.1584 98.0047, 50.7984 96.4527 Q 49.4544 94.9007, 49.4544 92.1327 M 54.6544 96.7247 Q 56.3824 96.7247, 57.3104 95.5727 Q 58.2544 94.4047, 58.2544 92.1327 Q 58.2544 89.9087, 57.3104 88.7887 Q 56.3824 87.6527, 54.6544 87.6527 Q 52.9264 87.6527, 51.9824 88.7727 Q 51.0544 89.8927, 51.0544 92.1327 Q 51.0544 94.4207, 51.9824 95.5727 Q 52.9264 96.7247, 54.6544 96.7247 " fill="#000000" />
<path class="atom-8" d="M 62.6166 104.598 L 66.3286 110.598 Q 66.6966 111.19, 67.2886 112.262 Q 67.8806 113.334, 67.9126 113.398 L 67.9126 104.598 L 69.4166 104.598 L 69.4166 115.926 L 67.8646 115.926 L 63.8806 109.366 Q 63.4166 108.598, 62.9206 107.718 Q 62.4406 106.838, 62.2966 106.566 L 62.2966 115.926 L 60.8246 115.926 L 60.8246 104.598 L 62.6166 104.598 " fill="#000000" />
<path class="atom-8" d="M 60.6886 117.059 L 62.2246 117.059 L 62.2246 121.875 L 68.0166 121.875 L 68.0166 117.059 L 69.5526 117.059 L 69.5526 128.387 L 68.0166 128.387 L 68.0166 123.155 L 62.2246 123.155 L 62.2246 128.387 L 60.6886 128.387 L 60.6886 117.059 " fill="#000000" />
<path class="atom-14" d="M 101.873 74.0201 Q 101.873 71.3001, 103.217 69.7801 Q 104.561 68.2601, 107.073 68.2601 Q 109.585 68.2601, 110.929 69.7801 Q 112.273 71.3001, 112.273 74.0201 Q 112.273 76.7721, 110.913 78.3401 Q 109.553 79.8921, 107.073 79.8921 Q 104.577 79.8921, 103.217 78.3401 Q 101.873 76.7881, 101.873 74.0201 M 107.073 78.6121 Q 108.801 78.6121, 109.729 77.4601 Q 110.673 76.2921, 110.673 74.0201 Q 110.673 71.7961, 109.729 70.6761 Q 108.801 69.5401, 107.073 69.5401 Q 105.345 69.5401, 104.401 70.6601 Q 103.473 71.7801, 103.473 74.0201 Q 103.473 76.3081, 104.401 77.4601 Q 105.345 78.6121, 107.073 78.6121 " fill="#000000" />
<path class="atom-15" d="M 115.035 86.4851 L 118.747 92.4851 Q 119.115 93.0771, 119.707 94.1491 Q 120.299 95.2211, 120.331 95.2851 L 120.331 86.4851 L 121.835 86.4851 L 121.835 97.8131 L 120.283 97.8131 L 116.299 91.2531 Q 115.835 90.4851, 115.339 89.6051 Q 114.859 88.7251, 114.715 88.4531 L 114.715 97.8131 L 113.243 97.8131 L 113.243 86.4851 L 115.035 86.4851 " fill="#000000" />
<path class="atom-15" d="M 113.107 98.9459 L 114.643 98.9459 L 114.643 103.762 L 120.435 103.762 L 120.435 98.9459 L 121.971 98.9459 L 121.971 110.274 L 120.435 110.274 L 120.435 105.042 L 114.643 105.042 L 114.643 110.274 L 113.107 110.274 L 113.107 98.9459 " fill="#000000" />
<path class="atom-16" d="M 125.521 80.4435 L 129.233 86.4435 Q 129.601 87.0355, 130.193 88.1075 Q 130.785 89.1795, 130.817 89.2435 L 130.817 80.4435 L 132.321 80.4435 L 132.321 91.7715 L 130.769 91.7715 L 126.785 85.2115 Q 126.321 84.4435, 125.825 83.5635 Q 125.345 82.6835, 125.201 82.4115 L 125.201 91.7715 L 123.729 91.7715 L 123.729 80.4435 L 125.521 80.4435 " fill="#000000" />
<path class="atom-23" d="M 175.223 92.2319 Q 175.223 89.5119, 176.567 87.9919 Q 177.911 86.4719, 180.423 86.4719 Q 182.935 86.4719, 184.279 87.9919 Q 185.623 89.5119, 185.623 92.2319 Q 185.623 94.9839, 184.263 96.5519 Q 182.903 98.1039, 180.423 98.1039 Q 177.927 98.1039, 176.567 96.5519 Q 175.223 94.9999, 175.223 92.2319 M 180.423 96.8239 Q 182.151 96.8239, 183.079 95.6719 Q 184.023 94.5039, 184.023 92.2319 Q 184.023 90.0079, 183.079 88.8879 Q 182.151 87.7519, 180.423 87.7519 Q 178.695 87.7519, 177.751 88.8719 Q 176.823 89.9919, 176.823 92.2319 Q 176.823 94.5199, 177.751 95.6719 Q 178.695 96.8239, 180.423 96.8239 " fill="#000000" />
<path class="atom-26" d="M 154.252 104.317 Q 154.252 101.597, 155.596 100.077 Q 156.94 98.5575, 159.452 98.5575 Q 161.964 98.5575, 163.308 100.077 Q 164.652 101.597, 164.652 104.317 Q 164.652 107.069, 163.292 108.637 Q 161.932 110.189, 159.452 110.189 Q 156.956 110.189, 155.596 108.637 Q 154.252 107.085, 154.252 104.317 M 159.452 108.909 Q 161.18 108.909, 162.108 107.757 Q 163.052 106.589, 163.052 104.317 Q 163.052 102.093, 162.108 100.973 Q 161.18 99.8375, 159.452 99.8375 Q 157.724 99.8375, 156.78 100.957 Q 155.852 102.077, 155.852 104.317 Q 155.852 106.605, 156.78 107.757 Q 157.724 108.909, 159.452 108.909 " fill="#000000" />
</svg></g></g>
   <g id="text_4">
    
    <g style="fill:#262626;" transform="translate(442.81125 16.318125)scale(0.12 -0.12)">
     <defs>
      <path d="M 37.796875 64.3125  L 12.890625 25.390625  L 37.796875 25.390625  z M 35.203125 72.90625  L 47.609375 72.90625  L 47.609375 25.390625  L 58.015625 25.390625  L 58.015625 17.1875  L 47.609375 17.1875  L 47.609375 0  L 37.796875 0  L 37.796875 17.1875  L 4.890625 17.1875  L 4.890625 26.703125  z " id="DejaVuSans-52" />
     </defs>
     <use ns4:href="#DejaVuSans-83" />
     <use x="63.476562" ns4:href="#DejaVuSans-105" />
     <use x="91.259766" ns4:href="#DejaVuSans-109" />
     <use x="188.671875" ns4:href="#DejaVuSans-105" />
     <use x="216.455078" ns4:href="#DejaVuSans-108" />
     <use x="244.238281" ns4:href="#DejaVuSans-97" />
     <use x="305.517578" ns4:href="#DejaVuSans-114" />
     <use x="346.630859" ns4:href="#DejaVuSans-105" />
     <use x="374.414062" ns4:href="#DejaVuSans-116" />
     <use x="413.623047" ns4:href="#DejaVuSans-121" />
     <use x="472.802734" ns4:href="#DejaVuSans-32" />
     <use x="504.589844" ns4:href="#DejaVuSans-61" />
     <use x="588.378906" ns4:href="#DejaVuSans-32" />
     <use x="620.166016" ns4:href="#DejaVuSans-48" />
     <use x="683.789062" ns4:href="#DejaVuSans-46" />
     <use x="715.576172" ns4:href="#DejaVuSans-55" />
     <use x="779.199219" ns4:href="#DejaVuSans-52" />
    </g>
    
    <g style="fill:#262626;" transform="translate(443.0925 29.7555)scale(0.12 -0.12)">
     <defs>
      <path d="M 40.578125 39.3125  Q 47.65625 37.796875 51.625 33  Q 55.609375 28.21875 55.609375 21.1875  Q 55.609375 10.40625 48.1875 4.484375  Q 40.765625 -1.421875 27.09375 -1.421875  Q 22.515625 -1.421875 17.65625 -0.515625  Q 12.796875 0.390625 7.625 2.203125  L 7.625 11.71875  Q 11.71875 9.328125 16.59375 8.109375  Q 21.484375 6.890625 26.8125 6.890625  Q 36.078125 6.890625 40.9375 10.546875  Q 45.796875 14.203125 45.796875 21.1875  Q 45.796875 27.640625 41.28125 31.265625  Q 36.765625 34.90625 28.71875 34.90625  L 20.21875 34.90625  L 20.21875 43.015625  L 29.109375 43.015625  Q 36.375 43.015625 40.234375 45.921875  Q 44.09375 48.828125 44.09375 54.296875  Q 44.09375 59.90625 40.109375 62.90625  Q 36.140625 65.921875 28.71875 65.921875  Q 24.65625 65.921875 20.015625 65.03125  Q 15.375 64.15625 9.8125 62.3125  L 9.8125 71.09375  Q 15.4375 72.65625 20.34375 73.4375  Q 25.25 74.21875 29.59375 74.21875  Q 40.828125 74.21875 47.359375 69.109375  Q 53.90625 64.015625 53.90625 55.328125  Q 53.90625 49.265625 50.4375 45.09375  Q 46.96875 40.921875 40.578125 39.3125  z " id="DejaVuSans-51" />
     </defs>
     <use ns4:href="#DejaVuSans-67" />
     <use x="69.824219" ns4:href="#DejaVuSans-111" />
     <use x="131.005859" ns4:href="#DejaVuSans-117" />
     <use x="194.384766" ns4:href="#DejaVuSans-110" />
     <use x="257.763672" ns4:href="#DejaVuSans-116" />
     <use x="296.972656" ns4:href="#DejaVuSans-101" />
     <use x="358.496094" ns4:href="#DejaVuSans-114" />
     <use x="399.609375" ns4:href="#DejaVuSans-102" />
     <use x="434.814453" ns4:href="#DejaVuSans-97" />
     <use x="496.09375" ns4:href="#DejaVuSans-99" />
     <use x="551.074219" ns4:href="#DejaVuSans-116" />
     <use x="590.283203" ns4:href="#DejaVuSans-117" />
     <use x="653.662109" ns4:href="#DejaVuSans-97" />
     <use x="714.941406" ns4:href="#DejaVuSans-108" />
     <use x="742.724609" ns4:href="#DejaVuSans-32" />
     <use x="774.511719" ns4:href="#DejaVuSans-51" />
    </g>
    
    <g style="fill:#262626;" transform="translate(457.01625 43.192875)scale(0.12 -0.12)">
     <use ns4:href="#DejaVuSans-102" />
     <use x="35.205078" ns4:href="#DejaVuSans-40" />
     <use x="74.21875" ns4:href="#DejaVuSans-120" />
     <use x="133.398438" ns4:href="#DejaVuSans-41" />
     <use x="172.412109" ns4:href="#DejaVuSans-32" />
     <use x="204.199219" ns4:href="#DejaVuSans-61" />
     <use x="287.988281" ns4:href="#DejaVuSans-32" />
     <use x="319.775391" ns4:href="#DejaVuSans-48" />
     <use x="383.398438" ns4:href="#DejaVuSans-46" />
     <use x="415.185547" ns4:href="#DejaVuSans-48" />
     <use x="478.808594" ns4:href="#DejaVuSans-48" />
     <use x="542.431641" ns4:href="#DejaVuSans-48" />
    </g>
   </g>
  </g>
 </g>
 <defs>
  <clipPath id="pd8d9b2a69a">
   <rect height="113.6" width="127.8" x="7.2" y="49.192875" />
  </clipPath>
  <clipPath id="p4daaf5c8ad">
   <rect height="113.6" width="127.8" x="147.96" y="49.192875" />
  </clipPath>
  <clipPath id="p46c8384b99">
   <rect height="113.6" width="127.8" x="288.72" y="49.192875" />
  </clipPath>
  <clipPath id="p1b72555542">
   <rect height="113.6" width="127.8" x="429.48" y="49.192875" />
  </clipPath>
 </defs>
</svg>