<svg xmlns="http://www.w3.org/2000/svg" xmlns:dc="http://purl.org/dc/elements/1.1/" xmlns:ns2="http://creativecommons.org/ns#" xmlns:ns4="http://www.w3.org/1999/xlink" xmlns:rdf="http://www.w3.org/1999/02/22-rdf-syntax-ns#" height="169.992875pt" version="1.1" viewBox="0 0 564.48 169.992875" width="564.48pt">
 <metadata>
  <rdf:RDF>
   <ns2:Work>
    <dc:type rdf:resource="http://purl.org/dc/dcmitype/StillImage" />
    <dc:date>2021-10-07T14:15:12.331921</dc:date>
    <dc:format>image/svg+xml</dc:format>
    <dc:creator>
     <ns2:Agent>
      <dc:title>Matplotlib v3.3.2, https://matplotlib.org/</dc:title>
     </ns2:Agent>
    </dc:creator>
   </ns2:Work>
  </rdf:RDF>
 </metadata>
 <defs>
  <style type="text/css">*{stroke-linecap:butt;stroke-linejoin:round;}</style>
 </defs>
 <g id="figure_1">
  <g id="patch_1">
   <path d="M 0 169.992875  L 564.48 169.992875  L 564.48 0  L 0 0  z " style="fill:#ffffff;" />
  </g>
  <g id="axes_1">
   <g clip-path="url(#pc9c644d646)">
    <g id="rdkit-img-0-g"><svg baseProfile="full" height="114.0" version="1.1" viewBox="0 0 200 200" width="128.0" x="7.2" y="48.792875" xml:space="preserve">

<rect height="200" style="opacity:1.0;fill:#FFFFFF;stroke:none" width="200" x="0" y="0"> </rect>
<path class="bond-0 atom-0 atom-1" d="M 27.6559,134.303 L 29.3921,113.057" style="fill:none;fill-rule:evenodd;stroke:#000000;stroke-linecap:butt;stroke-linejoin:miter;stroke-opacity:1" />
<path class="bond-1 atom-1 atom-2" d="M 29.3921,113.057 L 18.3353,103.499" style="fill:none;fill-rule:evenodd;stroke:#000000;stroke-linecap:butt;stroke-linejoin:miter;stroke-opacity:1" />
<path class="bond-28 atom-12 atom-1" d="M 47.6173,101.898 L 29.3921,113.057" style="fill:none;fill-rule:evenodd;stroke:#000000;stroke-linecap:butt;stroke-linejoin:miter;stroke-opacity:1" />
<path class="bond-28 atom-12 atom-1" d="M 42.8779,100.296 L 30.1203,108.107" style="fill:none;fill-rule:evenodd;stroke:#000000;stroke-linecap:butt;stroke-linejoin:miter;stroke-opacity:1" />
<path class="bond-2 atom-2 atom-3" d="M 15.5509,93.5594 L 19.2085,84.737" style="fill:none;fill-rule:evenodd;stroke:#000000;stroke-linecap:butt;stroke-linejoin:miter;stroke-opacity:1" />
<path class="bond-3 atom-3 atom-4" d="M 25.7154,79.761 L 42.7178,81.2" style="fill:none;fill-rule:evenodd;stroke:#000000;stroke-linecap:butt;stroke-linejoin:miter;stroke-opacity:1" />
<path class="bond-3 atom-3 atom-4" d="M 27.9418,83.8042 L 39.8435,84.8114" style="fill:none;fill-rule:evenodd;stroke:#000000;stroke-linecap:butt;stroke-linejoin:miter;stroke-opacity:1" />
<path class="bond-4 atom-4 atom-5" d="M 42.7178,81.2 L 56.5956,64.9994" style="fill:none;fill-rule:evenodd;stroke:#000000;stroke-linecap:butt;stroke-linejoin:miter;stroke-opacity:1" />
<path class="bond-11 atom-4 atom-12" d="M 42.7178,81.2 L 47.6173,101.898" style="fill:none;fill-rule:evenodd;stroke:#000000;stroke-linecap:butt;stroke-linejoin:miter;stroke-opacity:1" />
<path class="bond-5 atom-5 atom-6" d="M 56.5956,64.9994 L 77.5955,68.8936" style="fill:none;fill-rule:evenodd;stroke:#000000;stroke-linecap:butt;stroke-linejoin:miter;stroke-opacity:1" />
<path class="bond-5 atom-5 atom-6" d="M 60.4459,61.8069 L 75.1458,64.5329" style="fill:none;fill-rule:evenodd;stroke:#000000;stroke-linecap:butt;stroke-linejoin:miter;stroke-opacity:1" />
<path class="bond-30 atom-10 atom-5" d="M 49.5674,44.8312 L 56.5956,64.9994" style="fill:none;fill-rule:evenodd;stroke:#000000;stroke-linecap:butt;stroke-linejoin:miter;stroke-opacity:1" />
<path class="bond-6 atom-6 atom-7" d="M 77.5955,68.8936 L 91.4572,52.747" style="fill:none;fill-rule:evenodd;stroke:#000000;stroke-linecap:butt;stroke-linejoin:miter;stroke-opacity:1" />
<path class="bond-7 atom-7 atom-8" d="M 91.4572,52.747 L 84.4293,32.5786" style="fill:none;fill-rule:evenodd;stroke:#000000;stroke-linecap:butt;stroke-linejoin:miter;stroke-opacity:1" />
<path class="bond-7 atom-7 atom-8" d="M 86.7759,50.9857 L 81.8564,36.8678" style="fill:none;fill-rule:evenodd;stroke:#000000;stroke-linecap:butt;stroke-linejoin:miter;stroke-opacity:1" />
<path class="bond-8 atom-8 atom-9" d="M 84.4293,32.5786 L 63.4295,28.6845" style="fill:none;fill-rule:evenodd;stroke:#000000;stroke-linecap:butt;stroke-linejoin:miter;stroke-opacity:1" />
<path class="bond-9 atom-9 atom-10" d="M 63.4295,28.6845 L 49.5674,44.8312" style="fill:none;fill-rule:evenodd;stroke:#000000;stroke-linecap:butt;stroke-linejoin:miter;stroke-opacity:1" />
<path class="bond-9 atom-9 atom-10" d="M 64.2645,33.6085 L 54.5611,44.9112" style="fill:none;fill-rule:evenodd;stroke:#000000;stroke-linecap:butt;stroke-linejoin:miter;stroke-opacity:1" />
<path class="bond-10 atom-10 atom-11" d="M 49.5674,44.8312 L 29.7563,41.115" style="fill:none;fill-rule:evenodd;stroke:#000000;stroke-linecap:butt;stroke-linejoin:miter;stroke-opacity:1" />
<path class="bond-12 atom-12 atom-13" d="M 47.6173,101.898 L 67.2445,110.064" style="fill:none;fill-rule:evenodd;stroke:#000000;stroke-linecap:butt;stroke-linejoin:miter;stroke-opacity:1" />
<path class="bond-13 atom-13 atom-14" d="M 65.3405,110.316 L 67.4001,125.924" style="fill:none;fill-rule:evenodd;stroke:#000000;stroke-linecap:butt;stroke-linejoin:miter;stroke-opacity:1" />
<path class="bond-13 atom-13 atom-14" d="M 69.1484,109.813 L 71.2081,125.422" style="fill:none;fill-rule:evenodd;stroke:#000000;stroke-linecap:butt;stroke-linejoin:miter;stroke-opacity:1" />
<path class="bond-14 atom-13 atom-15" d="M 67.2445,110.064 L 79.8319,100.378" style="fill:none;fill-rule:evenodd;stroke:#000000;stroke-linecap:butt;stroke-linejoin:miter;stroke-opacity:1" />
<path class="bond-15 atom-15 atom-16" d="M 88.4129,98.8665 L 103.708,105.251" style="fill:none;fill-rule:evenodd;stroke:#000000;stroke-linecap:butt;stroke-linejoin:miter;stroke-opacity:1" />
<path class="bond-16 atom-16 atom-17" d="M 103.708,105.251 L 123.448,97.212" style="fill:none;fill-rule:evenodd;stroke:#000000;stroke-linecap:butt;stroke-linejoin:miter;stroke-opacity:1" />
<path class="bond-29 atom-20 atom-16" d="M 111.788,124.947 L 103.708,105.251" style="fill:none;fill-rule:evenodd;stroke:#000000;stroke-linecap:butt;stroke-linejoin:miter;stroke-opacity:1" />
<path class="bond-17 atom-17 atom-18" d="M 125.219,97.9545 L 131.087,83.9548" style="fill:none;fill-rule:evenodd;stroke:#000000;stroke-linecap:butt;stroke-linejoin:miter;stroke-opacity:1" />
<path class="bond-17 atom-17 atom-18" d="M 121.677,96.4696 L 127.545,82.4699" style="fill:none;fill-rule:evenodd;stroke:#000000;stroke-linecap:butt;stroke-linejoin:miter;stroke-opacity:1" />
<path class="bond-18 atom-17 atom-19" d="M 123.448,97.212 L 129.277,111.424" style="fill:none;fill-rule:evenodd;stroke:#000000;stroke-linecap:butt;stroke-linejoin:miter;stroke-opacity:1" />
<path class="bond-19 atom-19 atom-20" d="M 127.237,118.659 L 111.788,124.947" style="fill:none;fill-rule:evenodd;stroke:#000000;stroke-linecap:butt;stroke-linejoin:miter;stroke-opacity:1" />
<path class="bond-31 atom-25 atom-19" d="M 145.302,133.126 L 135.819,121.964" style="fill:none;fill-rule:evenodd;stroke:#000000;stroke-linecap:butt;stroke-linejoin:miter;stroke-opacity:1" />
<path class="bond-20 atom-20 atom-21" d="M 111.788,124.947 L 112.949,140.728" style="fill:none;fill-rule:evenodd;stroke:#000000;stroke-linecap:butt;stroke-linejoin:miter;stroke-opacity:1" />
<path class="bond-21 atom-21 atom-22" d="M 117.062,147.101 L 134.042,151.212" style="fill:none;fill-rule:evenodd;stroke:#000000;stroke-linecap:butt;stroke-linejoin:miter;stroke-opacity:1" />
<path class="bond-22 atom-22 atom-23" d="M 134.042,151.212 L 126.843,171.315" style="fill:none;fill-rule:evenodd;stroke:#000000;stroke-linecap:butt;stroke-linejoin:miter;stroke-opacity:1" />
<path class="bond-23 atom-22 atom-24" d="M 134.042,151.212 L 153.267,160.511" style="fill:none;fill-rule:evenodd;stroke:#000000;stroke-linecap:butt;stroke-linejoin:miter;stroke-opacity:1" />
<path class="bond-24 atom-22 atom-25" d="M 134.042,151.212 L 145.302,133.126" style="fill:none;fill-rule:evenodd;stroke:#000000;stroke-linecap:butt;stroke-linejoin:miter;stroke-opacity:1" />
<path class="bond-25 atom-25 atom-26" d="M 145.302,133.126 L 166.561,131.552" style="fill:none;fill-rule:evenodd;stroke:#000000;stroke-linecap:butt;stroke-linejoin:miter;stroke-opacity:1" />
<path class="bond-26 atom-26 atom-27" d="M 168.291,132.386 L 174.815,118.868" style="fill:none;fill-rule:evenodd;stroke:#000000;stroke-linecap:butt;stroke-linejoin:miter;stroke-opacity:1" />
<path class="bond-26 atom-26 atom-27" d="M 164.831,130.717 L 171.356,117.199" style="fill:none;fill-rule:evenodd;stroke:#000000;stroke-linecap:butt;stroke-linejoin:miter;stroke-opacity:1" />
<path class="bond-27 atom-26 atom-28" d="M 166.561,131.552 L 174.793,143.647" style="fill:none;fill-rule:evenodd;stroke:#000000;stroke-linecap:butt;stroke-linejoin:miter;stroke-opacity:1" />
<path class="atom-2" d="M 8.70197 99.1328 Q 8.70197 96.7528, 9.87797 95.4228 Q 11.054 94.0928, 13.252 94.0928 Q 15.45 94.0928, 16.626 95.4228 Q 17.802 96.7528, 17.802 99.1328 Q 17.802 101.541, 16.612 102.913 Q 15.422 104.271, 13.252 104.271 Q 11.068 104.271, 9.87797 102.913 Q 8.70197 101.555, 8.70197 99.1328 M 13.252 103.151 Q 14.764 103.151, 15.576 102.143 Q 16.402 101.121, 16.402 99.1328 Q 16.402 97.1868, 15.576 96.2068 Q 14.764 95.2128, 13.252 95.2128 Q 11.74 95.2128, 10.914 96.1928 Q 10.102 97.1728, 10.102 99.1328 Q 10.102 101.135, 10.914 102.143 Q 11.74 103.151, 13.252 103.151 " fill="#000000" />
<path class="atom-3" d="M 19.2311 74.4417 L 22.4791 79.6917 Q 22.8011 80.2097, 23.3191 81.1477 Q 23.8371 82.0857, 23.8651 82.1417 L 23.8651 74.4417 L 25.1811 74.4417 L 25.1811 84.3537 L 23.8231 84.3537 L 20.3371 78.6137 Q 19.9311 77.9417, 19.4971 77.1717 Q 19.0771 76.4017, 18.9511 76.1637 L 18.9511 84.3537 L 17.6631 84.3537 L 17.6631 74.4417 L 19.2311 74.4417 " fill="#000000" />
<path class="atom-11" d="M 19.0864 41.237 Q 19.0864 38.773, 20.2344 37.485 Q 21.3964 36.183, 23.5944 36.183 Q 25.6384 36.183, 26.7304 37.625 L 25.8064 38.381 Q 25.0084 37.331, 23.5944 37.331 Q 22.0964 37.331, 21.2984 38.339 Q 20.5144 39.333, 20.5144 41.237 Q 20.5144 43.197, 21.3264 44.205 Q 22.1524 45.213, 23.7484 45.213 Q 24.8404 45.213, 26.1144 44.555 L 26.5064 45.605 Q 25.9884 45.941, 25.2044 46.137 Q 24.4204 46.333, 23.5524 46.333 Q 21.3964 46.333, 20.2344 45.017 Q 19.0864 43.701, 19.0864 41.237 " fill="#000000" />
<path class="atom-11" d="M 27.9344 35.581 L 29.2224 35.581 L 29.2224 46.207 L 27.9344 46.207 L 27.9344 35.581 " fill="#000000" />
<path class="atom-14" d="M 65.4859 131.247 Q 65.4859 128.867, 66.6619 127.537 Q 67.8379 126.207, 70.0359 126.207 Q 72.2339 126.207, 73.4099 127.537 Q 74.5859 128.867, 74.5859 131.247 Q 74.5859 133.655, 73.3959 135.027 Q 72.2059 136.385, 70.0359 136.385 Q 67.8519 136.385, 66.6619 135.027 Q 65.4859 133.669, 65.4859 131.247 M 70.0359 135.265 Q 71.5479 135.265, 72.3599 134.257 Q 73.1859 133.235, 73.1859 131.247 Q 73.1859 129.301, 72.3599 128.321 Q 71.5479 127.327, 70.0359 127.327 Q 68.5239 127.327, 67.6979 128.307 Q 66.8859 129.287, 66.8859 131.247 Q 66.8859 133.249, 67.6979 134.257 Q 68.5239 135.265, 70.0359 135.265 " fill="#000000" />
<path class="atom-15" d="M 81.9323 92.1201 L 85.1803 97.3701 Q 85.5023 97.8881, 86.0203 98.8261 Q 86.5383 99.7641, 86.5663 99.8201 L 86.5663 92.1201 L 87.8823 92.1201 L 87.8823 102.032 L 86.5243 102.032 L 83.0383 96.2921 Q 82.6323 95.6201, 82.1983 94.8501 Q 81.7783 94.0801, 81.6523 93.8421 L 81.6523 102.032 L 80.3643 102.032 L 80.3643 92.1201 L 81.9323 92.1201 " fill="#000000" />
<path class="atom-15" d="M 80.2453 81.2169 L 81.5893 81.2169 L 81.5893 85.4309 L 86.6573 85.4309 L 86.6573 81.2169 L 88.0013 81.2169 L 88.0013 91.1289 L 86.6573 91.1289 L 86.6573 86.5509 L 81.5893 86.5509 L 81.5893 91.1289 L 80.2453 91.1289 L 80.2453 81.2169 " fill="#000000" />
<path class="atom-18" d="M 127.155 77.5403 Q 127.155 75.1603, 128.331 73.8303 Q 129.507 72.5003, 131.705 72.5003 Q 133.903 72.5003, 135.079 73.8303 Q 136.255 75.1603, 136.255 77.5403 Q 136.255 79.9483, 135.065 81.3203 Q 133.875 82.6783, 131.705 82.6783 Q 129.521 82.6783, 128.331 81.3203 Q 127.155 79.9623, 127.155 77.5403 M 131.705 81.5583 Q 133.217 81.5583, 134.029 80.5503 Q 134.855 79.5283, 134.855 77.5403 Q 134.855 75.5943, 134.029 74.6143 Q 133.217 73.6203, 131.705 73.6203 Q 130.193 73.6203, 129.367 74.6003 Q 128.555 75.5803, 128.555 77.5403 Q 128.555 79.5423, 129.367 80.5503 Q 130.193 81.5583, 131.705 81.5583 " fill="#000000" />
<path class="atom-19" d="M 129.338 111.957 L 132.586 117.207 Q 132.908 117.725, 133.426 118.663 Q 133.944 119.601, 133.972 119.657 L 133.972 111.957 L 135.288 111.957 L 135.288 121.869 L 133.93 121.869 L 130.444 116.129 Q 130.038 115.457, 129.604 114.687 Q 129.184 113.917, 129.058 113.679 L 129.058 121.869 L 127.77 121.869 L 127.77 111.957 L 129.338 111.957 " fill="#000000" />
<path class="atom-21" d="M 110.552 149.605 Q 110.664 149.647, 111.126 149.843 Q 111.588 150.039, 112.092 150.165 Q 112.61 150.277, 113.114 150.277 Q 114.052 150.277, 114.598 149.829 Q 115.144 149.367, 115.144 148.569 Q 115.144 148.023, 114.864 147.687 Q 114.598 147.351, 114.178 147.169 Q 113.758 146.987, 113.058 146.777 Q 112.176 146.511, 111.644 146.259 Q 111.126 146.007, 110.748 145.475 Q 110.384 144.943, 110.384 144.047 Q 110.384 142.801, 111.224 142.031 Q 112.078 141.261, 113.758 141.261 Q 114.906 141.261, 116.208 141.807 L 115.886 142.885 Q 114.696 142.395, 113.8 142.395 Q 112.834 142.395, 112.302 142.801 Q 111.77 143.193, 111.784 143.879 Q 111.784 144.411, 112.05 144.733 Q 112.33 145.055, 112.722 145.237 Q 113.128 145.419, 113.8 145.629 Q 114.696 145.909, 115.228 146.189 Q 115.76 146.469, 116.138 147.043 Q 116.53 147.603, 116.53 148.569 Q 116.53 149.941, 115.606 150.683 Q 114.696 151.411, 113.17 151.411 Q 112.288 151.411, 111.616 151.215 Q 110.958 151.033, 110.174 150.711 L 110.552 149.605 " fill="#000000" />
<path class="atom-27" d="M 171.286 112.362 Q 171.286 109.982, 172.462 108.652 Q 173.638 107.322, 175.836 107.322 Q 178.034 107.322, 179.21 108.652 Q 180.386 109.982, 180.386 112.362 Q 180.386 114.77, 179.196 116.142 Q 178.006 117.5, 175.836 117.5 Q 173.652 117.5, 172.462 116.142 Q 171.286 114.784, 171.286 112.362 M 175.836 116.38 Q 177.348 116.38, 178.16 115.372 Q 178.986 114.35, 178.986 112.362 Q 178.986 110.416, 178.16 109.436 Q 177.348 108.442, 175.836 108.442 Q 174.324 108.442, 173.498 109.422 Q 172.686 110.402, 172.686 112.362 Q 172.686 114.364, 173.498 115.372 Q 174.324 116.38, 175.836 116.38 " fill="#000000" />
<path class="atom-28" d="M 174.017 149.221 Q 174.017 146.841, 175.193 145.511 Q 176.369 144.181, 178.567 144.181 Q 180.765 144.181, 181.941 145.511 Q 183.117 146.841, 183.117 149.221 Q 183.117 151.629, 181.927 153.001 Q 180.737 154.359, 178.567 154.359 Q 176.383 154.359, 175.193 153.001 Q 174.017 151.643, 174.017 149.221 M 178.567 153.239 Q 180.079 153.239, 180.891 152.231 Q 181.717 151.209, 181.717 149.221 Q 181.717 147.275, 180.891 146.295 Q 180.079 145.301, 178.567 145.301 Q 177.055 145.301, 176.229 146.281 Q 175.417 147.261, 175.417 149.221 Q 175.417 151.223, 176.229 152.231 Q 177.055 153.239, 178.567 153.239 " fill="#000000" />
<path class="atom-28" d="M 184.307 144.293 L 185.651 144.293 L 185.651 148.507 L 190.719 148.507 L 190.719 144.293 L 192.063 144.293 L 192.063 154.205 L 190.719 154.205 L 190.719 149.627 L 185.651 149.627 L 185.651 154.205 L 184.307 154.205 L 184.307 144.293 " fill="#000000" />
</svg></g></g>
   <g id="text_1">
    
    <g style="fill:#262626;" transform="translate(56.489063 29.7555)scale(0.12 -0.12)">
     <defs>
      <path d="M 19.671875 34.8125  L 19.671875 8.109375  L 35.5 8.109375  Q 43.453125 8.109375 47.28125 11.40625  Q 51.125 14.703125 51.125 21.484375  Q 51.125 28.328125 47.28125 31.5625  Q 43.453125 34.8125 35.5 34.8125  z M 19.671875 64.796875  L 19.671875 42.828125  L 34.28125 42.828125  Q 41.5 42.828125 45.03125 45.53125  Q 48.578125 48.25 48.578125 53.8125  Q 48.578125 59.328125 45.03125 62.0625  Q 41.5 64.796875 34.28125 64.796875  z M 9.8125 72.90625  L 35.015625 72.90625  Q 46.296875 72.90625 52.390625 68.21875  Q 58.5 63.53125 58.5 54.890625  Q 58.5 48.1875 55.375 44.234375  Q 52.25 40.28125 46.1875 39.3125  Q 53.46875 37.75 57.5 32.78125  Q 61.53125 27.828125 61.53125 20.40625  Q 61.53125 10.640625 54.890625 5.3125  Q 48.25 0 35.984375 0  L 9.8125 0  z " id="DejaVuSans-66" />
      <path d="M 34.28125 27.484375  Q 23.390625 27.484375 19.1875 25  Q 14.984375 22.515625 14.984375 16.5  Q 14.984375 11.71875 18.140625 8.90625  Q 21.296875 6.109375 26.703125 6.109375  Q 34.1875 6.109375 38.703125 11.40625  Q 43.21875 16.703125 43.21875 25.484375  L 43.21875 27.484375  z M 52.203125 31.203125  L 52.203125 0  L 43.21875 0  L 43.21875 8.296875  Q 40.140625 3.328125 35.546875 0.953125  Q 30.953125 -1.421875 24.3125 -1.421875  Q 15.921875 -1.421875 10.953125 3.296875  Q 6 8.015625 6 15.921875  Q 6 25.140625 12.171875 29.828125  Q 18.359375 34.515625 30.609375 34.515625  L 43.21875 34.515625  L 43.21875 35.40625  Q 43.21875 41.609375 39.140625 45  Q 35.0625 48.390625 27.6875 48.390625  Q 23 48.390625 18.546875 47.265625  Q 14.109375 46.140625 10.015625 43.890625  L 10.015625 52.203125  Q 14.9375 54.109375 19.578125 55.046875  Q 24.21875 56 28.609375 56  Q 40.484375 56 46.34375 49.84375  Q 52.203125 43.703125 52.203125 31.203125  z " id="DejaVuSans-97" />
      <path d="M 44.28125 53.078125  L 44.28125 44.578125  Q 40.484375 46.53125 36.375 47.5  Q 32.28125 48.484375 27.875 48.484375  Q 21.1875 48.484375 17.84375 46.4375  Q 14.5 44.390625 14.5 40.28125  Q 14.5 37.15625 16.890625 35.375  Q 19.28125 33.59375 26.515625 31.984375  L 29.59375 31.296875  Q 39.15625 29.25 43.1875 25.515625  Q 47.21875 21.78125 47.21875 15.09375  Q 47.21875 7.46875 41.1875 3.015625  Q 35.15625 -1.421875 24.609375 -1.421875  Q 20.21875 -1.421875 15.453125 -0.5625  Q 10.6875 0.296875 5.421875 2  L 5.421875 11.28125  Q 10.40625 8.6875 15.234375 7.390625  Q 20.0625 6.109375 24.8125 6.109375  Q 31.15625 6.109375 34.5625 8.28125  Q 37.984375 10.453125 37.984375 14.40625  Q 37.984375 18.0625 35.515625 20.015625  Q 33.0625 21.96875 24.703125 23.78125  L 21.578125 24.515625  Q 13.234375 26.265625 9.515625 29.90625  Q 5.8125 33.546875 5.8125 39.890625  Q 5.8125 47.609375 11.28125 51.796875  Q 16.75 56 26.8125 56  Q 31.78125 56 36.171875 55.265625  Q 40.578125 54.546875 44.28125 53.078125  z " id="DejaVuSans-115" />
      <path d="M 56.203125 29.59375  L 56.203125 25.203125  L 14.890625 25.203125  Q 15.484375 15.921875 20.484375 11.0625  Q 25.484375 6.203125 34.421875 6.203125  Q 39.59375 6.203125 44.453125 7.46875  Q 49.3125 8.734375 54.109375 11.28125  L 54.109375 2.78125  Q 49.265625 0.734375 44.1875 -0.34375  Q 39.109375 -1.421875 33.890625 -1.421875  Q 20.796875 -1.421875 13.15625 6.1875  Q 5.515625 13.8125 5.515625 26.8125  Q 5.515625 40.234375 12.765625 48.109375  Q 20.015625 56 32.328125 56  Q 43.359375 56 49.78125 48.890625  Q 56.203125 41.796875 56.203125 29.59375  z M 47.21875 32.234375  Q 47.125 39.59375 43.09375 43.984375  Q 39.0625 48.390625 32.421875 48.390625  Q 24.90625 48.390625 20.390625 44.140625  Q 15.875 39.890625 15.1875 32.171875  z " id="DejaVuSans-101" />
     </defs>
     <use ns4:href="#DejaVuSans-66" />
     <use x="68.603516" ns4:href="#DejaVuSans-97" />
     <use x="129.882812" ns4:href="#DejaVuSans-115" />
     <use x="181.982422" ns4:href="#DejaVuSans-101" />
    </g>
    
    <g style="fill:#262626;" transform="translate(34.73625 43.192875)scale(0.12 -0.12)">
     <defs>
      <path d="M 37.109375 75.984375  L 37.109375 68.5  L 28.515625 68.5  Q 23.6875 68.5 21.796875 66.546875  Q 19.921875 64.59375 19.921875 59.515625  L 19.921875 54.6875  L 34.71875 54.6875  L 34.71875 47.703125  L 19.921875 47.703125  L 19.921875 0  L 10.890625 0  L 10.890625 47.703125  L 2.296875 47.703125  L 2.296875 54.6875  L 10.890625 54.6875  L 10.890625 58.5  Q 10.890625 67.625 15.140625 71.796875  Q 19.390625 75.984375 28.609375 75.984375  z " id="DejaVuSans-102" />
      <path d="M 31 75.875  Q 24.46875 64.65625 21.28125 53.65625  Q 18.109375 42.671875 18.109375 31.390625  Q 18.109375 20.125 21.3125 9.0625  Q 24.515625 -2 31 -13.1875  L 23.1875 -13.1875  Q 15.875 -1.703125 12.234375 9.375  Q 8.59375 20.453125 8.59375 31.390625  Q 8.59375 42.28125 12.203125 53.3125  Q 15.828125 64.359375 23.1875 75.875  z " id="DejaVuSans-40" />
      <path d="M 54.890625 54.6875  L 35.109375 28.078125  L 55.90625 0  L 45.3125 0  L 29.390625 21.484375  L 13.484375 0  L 2.875 0  L 24.125 28.609375  L 4.6875 54.6875  L 15.28125 54.6875  L 29.78125 35.203125  L 44.28125 54.6875  z " id="DejaVuSans-120" />
      <path d="M 8.015625 75.875  L 15.828125 75.875  Q 23.140625 64.359375 26.78125 53.3125  Q 30.421875 42.28125 30.421875 31.390625  Q 30.421875 20.453125 26.78125 9.375  Q 23.140625 -1.703125 15.828125 -13.1875  L 8.015625 -13.1875  Q 14.5 -2 17.703125 9.0625  Q 20.90625 20.125 20.90625 31.390625  Q 20.90625 42.671875 17.703125 53.65625  Q 14.5 64.65625 8.015625 75.875  z " id="DejaVuSans-41" />
      <path id="DejaVuSans-32" />
      <path d="M 10.59375 45.40625  L 73.1875 45.40625  L 73.1875 37.203125  L 10.59375 37.203125  z M 10.59375 25.484375  L 73.1875 25.484375  L 73.1875 17.1875  L 10.59375 17.1875  z " id="DejaVuSans-61" />
      <path d="M 31.78125 66.40625  Q 24.171875 66.40625 20.328125 58.90625  Q 16.5 51.421875 16.5 36.375  Q 16.5 21.390625 20.328125 13.890625  Q 24.171875 6.390625 31.78125 6.390625  Q 39.453125 6.390625 43.28125 13.890625  Q 47.125 21.390625 47.125 36.375  Q 47.125 51.421875 43.28125 58.90625  Q 39.453125 66.40625 31.78125 66.40625  z M 31.78125 74.21875  Q 44.046875 74.21875 50.515625 64.515625  Q 56.984375 54.828125 56.984375 36.375  Q 56.984375 17.96875 50.515625 8.265625  Q 44.046875 -1.421875 31.78125 -1.421875  Q 19.53125 -1.421875 13.0625 8.265625  Q 6.59375 17.96875 6.59375 36.375  Q 6.59375 54.828125 13.0625 64.515625  Q 19.53125 74.21875 31.78125 74.21875  z " id="DejaVuSans-48" />
      <path d="M 10.6875 12.40625  L 21 12.40625  L 21 0  L 10.6875 0  z " id="DejaVuSans-46" />
     </defs>
     <use ns4:href="#DejaVuSans-102" />
     <use x="35.205078" ns4:href="#DejaVuSans-40" />
     <use x="74.21875" ns4:href="#DejaVuSans-120" />
     <use x="133.398438" ns4:href="#DejaVuSans-41" />
     <use x="172.412109" ns4:href="#DejaVuSans-32" />
     <use x="204.199219" ns4:href="#DejaVuSans-61" />
     <use x="287.988281" ns4:href="#DejaVuSans-32" />
     <use x="319.775391" ns4:href="#DejaVuSans-48" />
     <use x="383.398438" ns4:href="#DejaVuSans-46" />
     <use x="415.185547" ns4:href="#DejaVuSans-48" />
     <use x="478.808594" ns4:href="#DejaVuSans-48" />
     <use x="542.431641" ns4:href="#DejaVuSans-48" />
    </g>
   </g>
  </g>
  <g id="axes_2">
   <g clip-path="url(#p57da5c7fd8)">
    <g id="rdkit-img-1-g"><svg baseProfile="full" height="114.0" version="1.1" viewBox="0 0 200 200" width="128.0" x="147.96" y="48.792875" xml:space="preserve">

<rect height="200" style="opacity:1.0;fill:#FFFFFF;stroke:none" width="200" x="0" y="0"> </rect>
<ellipse cx="170.482" cy="149.905" rx="6.57396" ry="6.57396" style="fill:#F06060;fill-rule:evenodd;stroke:#F06060;stroke-width:1.0px;stroke-linecap:butt;stroke-linejoin:miter;stroke-opacity:1" />
<path class="bond-0 atom-0 atom-1" d="M 42.1009,117.583 L 43.8803,95.7182" style="fill:none;fill-rule:evenodd;stroke:#000000;stroke-linecap:butt;stroke-linejoin:miter;stroke-opacity:1" />
<path class="bond-1 atom-1 atom-2" d="M 43.8803,95.7182 L 32.3152,85.8473" style="fill:none;fill-rule:evenodd;stroke:#000000;stroke-linecap:butt;stroke-linejoin:miter;stroke-opacity:1" />
<path class="bond-26 atom-12 atom-1" d="M 62.6248,84.3759 L 43.8803,95.7182" style="fill:none;fill-rule:evenodd;stroke:#000000;stroke-linecap:butt;stroke-linejoin:miter;stroke-opacity:1" />
<path class="bond-26 atom-12 atom-1" d="M 57.7712,82.7026 L 44.65,90.6422" style="fill:none;fill-rule:evenodd;stroke:#000000;stroke-linecap:butt;stroke-linejoin:miter;stroke-opacity:1" />
<path class="bond-2 atom-2 atom-3" d="M 29.5582,75.9358 L 33.4794,66.6201" style="fill:none;fill-rule:evenodd;stroke:#000000;stroke-linecap:butt;stroke-linejoin:miter;stroke-opacity:1" />
<path class="bond-3 atom-3 atom-4" d="M 40.0379,61.6165 L 57.4972,63.0368" style="fill:none;fill-rule:evenodd;stroke:#000000;stroke-linecap:butt;stroke-linejoin:miter;stroke-opacity:1" />
<path class="bond-3 atom-3 atom-4" d="M 42.3369,65.7609 L 54.5584,66.7552" style="fill:none;fill-rule:evenodd;stroke:#000000;stroke-linecap:butt;stroke-linejoin:miter;stroke-opacity:1" />
<path class="bond-4 atom-4 atom-5" d="M 57.4972,63.0368 L 71.767,46.4135" style="fill:none;fill-rule:evenodd;stroke:#000000;stroke-linecap:butt;stroke-linejoin:miter;stroke-opacity:1" />
<path class="bond-11 atom-4 atom-12" d="M 57.4972,63.0368 L 62.6248,84.3759" style="fill:none;fill-rule:evenodd;stroke:#000000;stroke-linecap:butt;stroke-linejoin:miter;stroke-opacity:1" />
<path class="bond-5 atom-5 atom-6" d="M 71.767,46.4135 L 93.3778,50.4806" style="fill:none;fill-rule:evenodd;stroke:#000000;stroke-linecap:butt;stroke-linejoin:miter;stroke-opacity:1" />
<path class="bond-5 atom-5 atom-6" d="M 75.7382,43.1472 L 90.8657,45.9942" style="fill:none;fill-rule:evenodd;stroke:#000000;stroke-linecap:butt;stroke-linejoin:miter;stroke-opacity:1" />
<path class="bond-28 atom-10 atom-5" d="M 64.5883,25.7406 L 71.767,46.4135" style="fill:none;fill-rule:evenodd;stroke:#000000;stroke-linecap:butt;stroke-linejoin:miter;stroke-opacity:1" />
<path class="bond-6 atom-6 atom-7" d="M 93.3778,50.4806 L 107.582,33.8309" style="fill:none;fill-rule:evenodd;stroke:#000000;stroke-linecap:butt;stroke-linejoin:miter;stroke-opacity:1" />
<path class="bond-7 atom-7 atom-8" d="M 107.582,33.8309 L 100.399,13.158" style="fill:none;fill-rule:evenodd;stroke:#000000;stroke-linecap:butt;stroke-linejoin:miter;stroke-opacity:1" />
<path class="bond-7 atom-7 atom-8" d="M 102.779,32.0246 L 97.7504,17.5535" style="fill:none;fill-rule:evenodd;stroke:#000000;stroke-linecap:butt;stroke-linejoin:miter;stroke-opacity:1" />
<path class="bond-8 atom-8 atom-9" d="M 100.399,13.158 L 78.7924,9.09091" style="fill:none;fill-rule:evenodd;stroke:#000000;stroke-linecap:butt;stroke-linejoin:miter;stroke-opacity:1" />
<path class="bond-9 atom-9 atom-10" d="M 78.7924,9.09091 L 64.5883,25.7406" style="fill:none;fill-rule:evenodd;stroke:#000000;stroke-linecap:butt;stroke-linejoin:miter;stroke-opacity:1" />
<path class="bond-9 atom-9 atom-10" d="M 79.6625,14.1484 L 69.7196,25.8031" style="fill:none;fill-rule:evenodd;stroke:#000000;stroke-linecap:butt;stroke-linejoin:miter;stroke-opacity:1" />
<path class="bond-10 atom-10 atom-11" d="M 64.5883,25.7406 L 44.2225,21.9067" style="fill:none;fill-rule:evenodd;stroke:#000000;stroke-linecap:butt;stroke-linejoin:miter;stroke-opacity:1" />
<path class="bond-12 atom-12 atom-13" d="M 62.6248,84.3759 L 82.8332,92.7862" style="fill:none;fill-rule:evenodd;stroke:#000000;stroke-linecap:butt;stroke-linejoin:miter;stroke-opacity:1" />
<path class="bond-13 atom-13 atom-14" d="M 84.0309,94.3531 L 96.3409,84.9439" style="fill:none;fill-rule:evenodd;stroke:#000000;stroke-linecap:butt;stroke-linejoin:miter;stroke-opacity:1" />
<path class="bond-13 atom-13 atom-14" d="M 81.6355,91.2193 L 93.9456,81.8101" style="fill:none;fill-rule:evenodd;stroke:#000000;stroke-linecap:butt;stroke-linejoin:miter;stroke-opacity:1" />
<path class="bond-14 atom-13 atom-15" d="M 82.8332,92.7862 L 84.9337,108.994" style="fill:none;fill-rule:evenodd;stroke:#000000;stroke-linecap:butt;stroke-linejoin:miter;stroke-opacity:1" />
<path class="bond-15 atom-15 atom-16" d="M 89.954,116.298 L 105.877,122.952" style="fill:none;fill-rule:evenodd;stroke:#000000;stroke-linecap:butt;stroke-linejoin:miter;stroke-opacity:1" />
<path class="bond-16 atom-16 atom-17" d="M 105.877,122.952 L 126.138,114.616" style="fill:none;fill-rule:evenodd;stroke:#000000;stroke-linecap:butt;stroke-linejoin:miter;stroke-opacity:1" />
<path class="bond-27 atom-20 atom-16" d="M 114.165,143.222 L 105.877,122.952" style="fill:none;fill-rule:evenodd;stroke:#000000;stroke-linecap:butt;stroke-linejoin:miter;stroke-opacity:1" />
<path class="bond-17 atom-17 atom-18" d="M 127.956,115.38 L 134.037,100.902" style="fill:none;fill-rule:evenodd;stroke:#000000;stroke-linecap:butt;stroke-linejoin:miter;stroke-opacity:1" />
<path class="bond-17 atom-17 atom-18" d="M 124.32,113.852 L 130.4,99.3751" style="fill:none;fill-rule:evenodd;stroke:#000000;stroke-linecap:butt;stroke-linejoin:miter;stroke-opacity:1" />
<path class="bond-18 atom-17 atom-19" d="M 126.138,114.616 L 132.209,129.433" style="fill:none;fill-rule:evenodd;stroke:#000000;stroke-linecap:butt;stroke-linejoin:miter;stroke-opacity:1" />
<path class="bond-19 atom-19 atom-20" d="M 130.158,136.696 L 114.165,143.222" style="fill:none;fill-rule:evenodd;stroke:#000000;stroke-linecap:butt;stroke-linejoin:miter;stroke-opacity:1" />
<path class="bond-29 atom-25 atom-19" d="M 148.621,151.566 L 138.77,139.995" style="fill:none;fill-rule:evenodd;stroke:#000000;stroke-linecap:butt;stroke-linejoin:miter;stroke-opacity:1" />
<path class="bond-20 atom-20 atom-21" d="M 114.165,143.222 L 115.448,159.583" style="fill:none;fill-rule:evenodd;stroke:#000000;stroke-linecap:butt;stroke-linejoin:miter;stroke-opacity:1" />
<path class="bond-21 atom-21 atom-22" d="M 119.604,165.988 L 137.147,170.298" style="fill:none;fill-rule:evenodd;stroke:#000000;stroke-linecap:butt;stroke-linejoin:miter;stroke-opacity:1" />
<path class="bond-22 atom-22 atom-23" d="M 137.147,170.298 L 156.9,179.751" style="fill:none;fill-rule:evenodd;stroke:#000000;stroke-linecap:butt;stroke-linejoin:miter;stroke-opacity:1" />
<path class="bond-23 atom-22 atom-24" d="M 137.147,170.298 L 129.771,190.909" style="fill:none;fill-rule:evenodd;stroke:#000000;stroke-linecap:butt;stroke-linejoin:miter;stroke-opacity:1" />
<path class="bond-24 atom-22 atom-25" d="M 137.147,170.298 L 148.621,151.566" style="fill:none;fill-rule:evenodd;stroke:#000000;stroke-linecap:butt;stroke-linejoin:miter;stroke-opacity:1" />
<path class="bond-25 atom-25 atom-26" d="M 148.621,151.566 L 170.482,149.905" style="fill:none;fill-rule:evenodd;stroke:#000000;stroke-linecap:butt;stroke-linejoin:miter;stroke-opacity:1" />
<path class="atom-2" d="M 22.6675 81.5245 Q 22.6675 79.1445, 23.8435 77.8145 Q 25.0195 76.4845, 27.2175 76.4845 Q 29.4155 76.4845, 30.5915 77.8145 Q 31.7675 79.1445, 31.7675 81.5245 Q 31.7675 83.9325, 30.5775 85.3045 Q 29.3875 86.6625, 27.2175 86.6625 Q 25.0335 86.6625, 23.8435 85.3045 Q 22.6675 83.9465, 22.6675 81.5245 M 27.2175 85.5425 Q 28.7295 85.5425, 29.5415 84.5345 Q 30.3675 83.5125, 30.3675 81.5245 Q 30.3675 79.5785, 29.5415 78.5985 Q 28.7295 77.6045, 27.2175 77.6045 Q 25.7055 77.6045, 24.8795 78.5845 Q 24.0675 79.5645, 24.0675 81.5245 Q 24.0675 83.5265, 24.8795 84.5345 Q 25.7055 85.5425, 27.2175 85.5425 " fill="#000000" />
<path class="atom-3" d="M 33.542 56.3102 L 36.79 61.5602 Q 37.112 62.0782, 37.63 63.0162 Q 38.148 63.9542, 38.176 64.0102 L 38.176 56.3102 L 39.492 56.3102 L 39.492 66.2222 L 38.134 66.2222 L 34.648 60.4822 Q 34.242 59.8102, 33.808 59.0402 Q 33.388 58.2702, 33.262 58.0322 L 33.262 66.2222 L 31.974 66.2222 L 31.974 56.3102 L 33.542 56.3102 " fill="#000000" />
<path class="atom-11" d="M 33.5381 22.0252 Q 33.5381 19.5612, 34.6861 18.2732 Q 35.8481 16.9712, 38.0461 16.9712 Q 40.0901 16.9712, 41.1821 18.4132 L 40.2581 19.1692 Q 39.4601 18.1192, 38.0461 18.1192 Q 36.5481 18.1192, 35.7501 19.1272 Q 34.9661 20.1212, 34.9661 22.0252 Q 34.9661 23.9852, 35.7781 24.9932 Q 36.6041 26.0012, 38.2001 26.0012 Q 39.2921 26.0012, 40.5661 25.3432 L 40.9581 26.3932 Q 40.4401 26.7292, 39.6561 26.9252 Q 38.8721 27.1212, 38.0041 27.1212 Q 35.8481 27.1212, 34.6861 25.8052 Q 33.5381 24.4892, 33.5381 22.0252 " fill="#000000" />
<path class="atom-11" d="M 42.3861 16.3692 L 43.6741 16.3692 L 43.6741 26.9952 L 42.3861 26.9952 L 42.3861 16.3692 " fill="#000000" />
<path class="atom-14" d="M 95.691 79.5085 Q 95.691 77.1285, 96.867 75.7985 Q 98.043 74.4685, 100.241 74.4685 Q 102.439 74.4685, 103.615 75.7985 Q 104.791 77.1285, 104.791 79.5085 Q 104.791 81.9165, 103.601 83.2885 Q 102.411 84.6465, 100.241 84.6465 Q 98.057 84.6465, 96.867 83.2885 Q 95.691 81.9305, 95.691 79.5085 M 100.241 83.5265 Q 101.753 83.5265, 102.565 82.5185 Q 103.391 81.4965, 103.391 79.5085 Q 103.391 77.5625, 102.565 76.5825 Q 101.753 75.5885, 100.241 75.5885 Q 98.729 75.5885, 97.903 76.5685 Q 97.091 77.5485, 97.091 79.5085 Q 97.091 81.5105, 97.903 82.5185 Q 98.729 83.5265, 100.241 83.5265 " fill="#000000" />
<path class="atom-15" d="M 72.9699 109.542 L 74.3139 109.542 L 74.3139 113.756 L 79.3819 113.756 L 79.3819 109.542 L 80.7259 109.542 L 80.7259 119.454 L 79.3819 119.454 L 79.3819 114.876 L 74.3139 114.876 L 74.3139 119.454 L 72.9699 119.454 L 72.9699 109.542 " fill="#000000" />
<path class="atom-15" d="M 83.4559 109.542 L 86.7039 114.792 Q 87.0259 115.31, 87.5439 116.248 Q 88.0619 117.186, 88.0899 117.242 L 88.0899 109.542 L 89.4059 109.542 L 89.4059 119.454 L 88.0479 119.454 L 84.5619 113.714 Q 84.1559 113.042, 83.7219 112.272 Q 83.3019 111.502, 83.1759 111.264 L 83.1759 119.454 L 81.8879 119.454 L 81.8879 109.542 L 83.4559 109.542 " fill="#000000" />
<path class="atom-18" d="M 130.068 94.4533 Q 130.068 92.0733, 131.244 90.7433 Q 132.42 89.4133, 134.618 89.4133 Q 136.816 89.4133, 137.992 90.7433 Q 139.168 92.0733, 139.168 94.4533 Q 139.168 96.8613, 137.978 98.2333 Q 136.788 99.5913, 134.618 99.5913 Q 132.434 99.5913, 131.244 98.2333 Q 130.068 96.8753, 130.068 94.4533 M 134.618 98.4713 Q 136.13 98.4713, 136.942 97.4633 Q 137.768 96.4413, 137.768 94.4533 Q 137.768 92.5073, 136.942 91.5273 Q 136.13 90.5333, 134.618 90.5333 Q 133.106 90.5333, 132.28 91.5133 Q 131.468 92.4933, 131.468 94.4533 Q 131.468 96.4553, 132.28 97.4633 Q 133.106 98.4713, 134.618 98.4713 " fill="#000000" />
<path class="atom-19" d="M 132.274 129.982 L 135.522 135.232 Q 135.844 135.75, 136.362 136.688 Q 136.88 137.626, 136.908 137.682 L 136.908 129.982 L 138.224 129.982 L 138.224 139.894 L 136.866 139.894 L 133.38 134.154 Q 132.974 133.482, 132.54 132.712 Q 132.12 131.942, 131.994 131.704 L 131.994 139.894 L 130.706 139.894 L 130.706 129.982 L 132.274 129.982 " fill="#000000" />
<path class="atom-21" d="M 113.078 168.475 Q 113.19 168.517, 113.652 168.713 Q 114.114 168.909, 114.618 169.035 Q 115.136 169.147, 115.64 169.147 Q 116.578 169.147, 117.124 168.699 Q 117.67 168.237, 117.67 167.439 Q 117.67 166.893, 117.39 166.557 Q 117.124 166.221, 116.704 166.039 Q 116.284 165.857, 115.584 165.647 Q 114.702 165.381, 114.17 165.129 Q 113.652 164.877, 113.274 164.345 Q 112.91 163.813, 112.91 162.917 Q 112.91 161.671, 113.75 160.901 Q 114.604 160.131, 116.284 160.131 Q 117.432 160.131, 118.734 160.677 L 118.412 161.755 Q 117.222 161.265, 116.326 161.265 Q 115.36 161.265, 114.828 161.671 Q 114.296 162.063, 114.31 162.749 Q 114.31 163.281, 114.576 163.603 Q 114.856 163.925, 115.248 164.107 Q 115.654 164.289, 116.326 164.499 Q 117.222 164.779, 117.754 165.059 Q 118.286 165.339, 118.664 165.913 Q 119.056 166.473, 119.056 167.439 Q 119.056 168.811, 118.132 169.553 Q 117.222 170.281, 115.696 170.281 Q 114.814 170.281, 114.142 170.085 Q 113.484 169.903, 112.7 169.581 L 113.078 168.475 " fill="#000000" />
</svg></g></g>
   <g id="text_2">
    
    <g style="fill:#262626;" transform="translate(161.29125 16.318125)scale(0.12 -0.12)">
     <defs>
      <path d="M 53.515625 70.515625  L 53.515625 60.890625  Q 47.90625 63.578125 42.921875 64.890625  Q 37.9375 66.21875 33.296875 66.21875  Q 25.25 66.21875 20.875 63.09375  Q 16.5 59.96875 16.5 54.203125  Q 16.5 49.359375 19.40625 46.890625  Q 22.3125 44.4375 30.421875 42.921875  L 36.375 41.703125  Q 47.40625 39.59375 52.65625 34.296875  Q 57.90625 29 57.90625 20.125  Q 57.90625 9.515625 50.796875 4.046875  Q 43.703125 -1.421875 29.984375 -1.421875  Q 24.8125 -1.421875 18.96875 -0.25  Q 13.140625 0.921875 6.890625 3.21875  L 6.890625 13.375  Q 12.890625 10.015625 18.65625 8.296875  Q 24.421875 6.59375 29.984375 6.59375  Q 38.421875 6.59375 43.015625 9.90625  Q 47.609375 13.234375 47.609375 19.390625  Q 47.609375 24.75 44.3125 27.78125  Q 41.015625 30.8125 33.5 32.328125  L 27.484375 33.5  Q 16.453125 35.6875 11.515625 40.375  Q 6.59375 45.0625 6.59375 53.421875  Q 6.59375 63.09375 13.40625 68.65625  Q 20.21875 74.21875 32.171875 74.21875  Q 37.3125 74.21875 42.625 73.28125  Q 47.953125 72.359375 53.515625 70.515625  z " id="DejaVuSans-83" />
      <path d="M 9.421875 54.6875  L 18.40625 54.6875  L 18.40625 0  L 9.421875 0  z M 9.421875 75.984375  L 18.40625 75.984375  L 18.40625 64.59375  L 9.421875 64.59375  z " id="DejaVuSans-105" />
      <path d="M 52 44.1875  Q 55.375 50.25 60.0625 53.125  Q 64.75 56 71.09375 56  Q 79.640625 56 84.28125 50.015625  Q 88.921875 44.046875 88.921875 33.015625  L 88.921875 0  L 79.890625 0  L 79.890625 32.71875  Q 79.890625 40.578125 77.09375 44.375  Q 74.3125 48.1875 68.609375 48.1875  Q 61.625 48.1875 57.5625 43.546875  Q 53.515625 38.921875 53.515625 30.90625  L 53.515625 0  L 44.484375 0  L 44.484375 32.71875  Q 44.484375 40.625 41.703125 44.40625  Q 38.921875 48.1875 33.109375 48.1875  Q 26.21875 48.1875 22.15625 43.53125  Q 18.109375 38.875 18.109375 30.90625  L 18.109375 0  L 9.078125 0  L 9.078125 54.6875  L 18.109375 54.6875  L 18.109375 46.1875  Q 21.1875 51.21875 25.484375 53.609375  Q 29.78125 56 35.6875 56  Q 41.65625 56 45.828125 52.96875  Q 50 49.953125 52 44.1875  z " id="DejaVuSans-109" />
      <path d="M 9.421875 75.984375  L 18.40625 75.984375  L 18.40625 0  L 9.421875 0  z " id="DejaVuSans-108" />
      <path d="M 41.109375 46.296875  Q 39.59375 47.171875 37.8125 47.578125  Q 36.03125 48 33.890625 48  Q 26.265625 48 22.1875 43.046875  Q 18.109375 38.09375 18.109375 28.8125  L 18.109375 0  L 9.078125 0  L 9.078125 54.6875  L 18.109375 54.6875  L 18.109375 46.1875  Q 20.953125 51.171875 25.484375 53.578125  Q 30.03125 56 36.53125 56  Q 37.453125 56 38.578125 55.875  Q 39.703125 55.765625 41.0625 55.515625  z " id="DejaVuSans-114" />
      <path d="M 18.3125 70.21875  L 18.3125 54.6875  L 36.8125 54.6875  L 36.8125 47.703125  L 18.3125 47.703125  L 18.3125 18.015625  Q 18.3125 11.328125 20.140625 9.421875  Q 21.96875 7.515625 27.59375 7.515625  L 36.8125 7.515625  L 36.8125 0  L 27.59375 0  Q 17.1875 0 13.234375 3.875  Q 9.28125 7.765625 9.28125 18.015625  L 9.28125 47.703125  L 2.6875 47.703125  L 2.6875 54.6875  L 9.28125 54.6875  L 9.28125 70.21875  z " id="DejaVuSans-116" />
      <path d="M 32.171875 -5.078125  Q 28.375 -14.84375 24.75 -17.8125  Q 21.140625 -20.796875 15.09375 -20.796875  L 7.90625 -20.796875  L 7.90625 -13.28125  L 13.1875 -13.28125  Q 16.890625 -13.28125 18.9375 -11.515625  Q 21 -9.765625 23.484375 -3.21875  L 25.09375 0.875  L 2.984375 54.6875  L 12.5 54.6875  L 29.59375 11.921875  L 46.6875 54.6875  L 56.203125 54.6875  z " id="DejaVuSans-121" />
      <path d="M 31.78125 34.625  Q 24.75 34.625 20.71875 30.859375  Q 16.703125 27.09375 16.703125 20.515625  Q 16.703125 13.921875 20.71875 10.15625  Q 24.75 6.390625 31.78125 6.390625  Q 38.8125 6.390625 42.859375 10.171875  Q 46.921875 13.96875 46.921875 20.515625  Q 46.921875 27.09375 42.890625 30.859375  Q 38.875 34.625 31.78125 34.625  z M 21.921875 38.8125  Q 15.578125 40.375 12.03125 44.71875  Q 8.5 49.078125 8.5 55.328125  Q 8.5 64.0625 14.71875 69.140625  Q 20.953125 74.21875 31.78125 74.21875  Q 42.671875 74.21875 48.875 69.140625  Q 55.078125 64.0625 55.078125 55.328125  Q 55.078125 49.078125 51.53125 44.71875  Q 48 40.375 41.703125 38.8125  Q 48.828125 37.15625 52.796875 32.3125  Q 56.78125 27.484375 56.78125 20.515625  Q 56.78125 9.90625 50.3125 4.234375  Q 43.84375 -1.421875 31.78125 -1.421875  Q 19.734375 -1.421875 13.25 4.234375  Q 6.78125 9.90625 6.78125 20.515625  Q 6.78125 27.484375 10.78125 32.3125  Q 14.796875 37.15625 21.921875 38.8125  z M 18.3125 54.390625  Q 18.3125 48.734375 21.84375 45.5625  Q 25.390625 42.390625 31.78125 42.390625  Q 38.140625 42.390625 41.71875 45.5625  Q 45.3125 48.734375 45.3125 54.390625  Q 45.3125 60.0625 41.71875 63.234375  Q 38.140625 66.40625 31.78125 66.40625  Q 25.390625 66.40625 21.84375 63.234375  Q 18.3125 60.0625 18.3125 54.390625  z " id="DejaVuSans-56" />
     </defs>
     <use ns4:href="#DejaVuSans-83" />
     <use x="63.476562" ns4:href="#DejaVuSans-105" />
     <use x="91.259766" ns4:href="#DejaVuSans-109" />
     <use x="188.671875" ns4:href="#DejaVuSans-105" />
     <use x="216.455078" ns4:href="#DejaVuSans-108" />
     <use x="244.238281" ns4:href="#DejaVuSans-97" />
     <use x="305.517578" ns4:href="#DejaVuSans-114" />
     <use x="346.630859" ns4:href="#DejaVuSans-105" />
     <use x="374.414062" ns4:href="#DejaVuSans-116" />
     <use x="413.623047" ns4:href="#DejaVuSans-121" />
     <use x="472.802734" ns4:href="#DejaVuSans-32" />
     <use x="504.589844" ns4:href="#DejaVuSans-61" />
     <use x="588.378906" ns4:href="#DejaVuSans-32" />
     <use x="620.166016" ns4:href="#DejaVuSans-48" />
     <use x="683.789062" ns4:href="#DejaVuSans-46" />
     <use x="715.576172" ns4:href="#DejaVuSans-56" />
     <use x="779.199219" ns4:href="#DejaVuSans-48" />
    </g>
    
    <g style="fill:#262626;" transform="translate(161.5725 29.7555)scale(0.12 -0.12)">
     <defs>
      <path d="M 64.40625 67.28125  L 64.40625 56.890625  Q 59.421875 61.53125 53.78125 63.8125  Q 48.140625 66.109375 41.796875 66.109375  Q 29.296875 66.109375 22.65625 58.46875  Q 16.015625 50.828125 16.015625 36.375  Q 16.015625 21.96875 22.65625 14.328125  Q 29.296875 6.6875 41.796875 6.6875  Q 48.140625 6.6875 53.78125 8.984375  Q 59.421875 11.28125 64.40625 15.921875  L 64.40625 5.609375  Q 59.234375 2.09375 53.4375 0.328125  Q 47.65625 -1.421875 41.21875 -1.421875  Q 24.65625 -1.421875 15.125 8.703125  Q 5.609375 18.84375 5.609375 36.375  Q 5.609375 53.953125 15.125 64.078125  Q 24.65625 74.21875 41.21875 74.21875  Q 47.75 74.21875 53.53125 72.484375  Q 59.328125 70.75 64.40625 67.28125  z " id="DejaVuSans-67" />
      <path d="M 30.609375 48.390625  Q 23.390625 48.390625 19.1875 42.75  Q 14.984375 37.109375 14.984375 27.296875  Q 14.984375 17.484375 19.15625 11.84375  Q 23.34375 6.203125 30.609375 6.203125  Q 37.796875 6.203125 41.984375 11.859375  Q 46.1875 17.53125 46.1875 27.296875  Q 46.1875 37.015625 41.984375 42.703125  Q 37.796875 48.390625 30.609375 48.390625  z M 30.609375 56  Q 42.328125 56 49.015625 48.375  Q 55.71875 40.765625 55.71875 27.296875  Q 55.71875 13.875 49.015625 6.21875  Q 42.328125 -1.421875 30.609375 -1.421875  Q 18.84375 -1.421875 12.171875 6.21875  Q 5.515625 13.875 5.515625 27.296875  Q 5.515625 40.765625 12.171875 48.375  Q 18.84375 56 30.609375 56  z " id="DejaVuSans-111" />
      <path d="M 8.5 21.578125  L 8.5 54.6875  L 17.484375 54.6875  L 17.484375 21.921875  Q 17.484375 14.15625 20.5 10.265625  Q 23.53125 6.390625 29.59375 6.390625  Q 36.859375 6.390625 41.078125 11.03125  Q 45.3125 15.671875 45.3125 23.6875  L 45.3125 54.6875  L 54.296875 54.6875  L 54.296875 0  L 45.3125 0  L 45.3125 8.40625  Q 42.046875 3.421875 37.71875 1  Q 33.40625 -1.421875 27.6875 -1.421875  Q 18.265625 -1.421875 13.375 4.4375  Q 8.5 10.296875 8.5 21.578125  z M 31.109375 56  z " id="DejaVuSans-117" />
      <path d="M 54.890625 33.015625  L 54.890625 0  L 45.90625 0  L 45.90625 32.71875  Q 45.90625 40.484375 42.875 44.328125  Q 39.84375 48.1875 33.796875 48.1875  Q 26.515625 48.1875 22.3125 43.546875  Q 18.109375 38.921875 18.109375 30.90625  L 18.109375 0  L 9.078125 0  L 9.078125 54.6875  L 18.109375 54.6875  L 18.109375 46.1875  Q 21.34375 51.125 25.703125 53.5625  Q 30.078125 56 35.796875 56  Q 45.21875 56 50.046875 50.171875  Q 54.890625 44.34375 54.890625 33.015625  z " id="DejaVuSans-110" />
      <path d="M 48.78125 52.59375  L 48.78125 44.1875  Q 44.96875 46.296875 41.140625 47.34375  Q 37.3125 48.390625 33.40625 48.390625  Q 24.65625 48.390625 19.8125 42.84375  Q 14.984375 37.3125 14.984375 27.296875  Q 14.984375 17.28125 19.8125 11.734375  Q 24.65625 6.203125 33.40625 6.203125  Q 37.3125 6.203125 41.140625 7.25  Q 44.96875 8.296875 48.78125 10.40625  L 48.78125 2.09375  Q 45.015625 0.34375 40.984375 -0.53125  Q 36.96875 -1.421875 32.421875 -1.421875  Q 20.0625 -1.421875 12.78125 6.34375  Q 5.515625 14.109375 5.515625 27.296875  Q 5.515625 40.671875 12.859375 48.328125  Q 20.21875 56 33.015625 56  Q 37.15625 56 41.109375 55.140625  Q 45.0625 54.296875 48.78125 52.59375  z " id="DejaVuSans-99" />
      <path d="M 12.40625 8.296875  L 28.515625 8.296875  L 28.515625 63.921875  L 10.984375 60.40625  L 10.984375 69.390625  L 28.421875 72.90625  L 38.28125 72.90625  L 38.28125 8.296875  L 54.390625 8.296875  L 54.390625 0  L 12.40625 0  z " id="DejaVuSans-49" />
     </defs>
     <use ns4:href="#DejaVuSans-67" />
     <use x="69.824219" ns4:href="#DejaVuSans-111" />
     <use x="131.005859" ns4:href="#DejaVuSans-117" />
     <use x="194.384766" ns4:href="#DejaVuSans-110" />
     <use x="257.763672" ns4:href="#DejaVuSans-116" />
     <use x="296.972656" ns4:href="#DejaVuSans-101" />
     <use x="358.496094" ns4:href="#DejaVuSans-114" />
     <use x="399.609375" ns4:href="#DejaVuSans-102" />
     <use x="434.814453" ns4:href="#DejaVuSans-97" />
     <use x="496.09375" ns4:href="#DejaVuSans-99" />
     <use x="551.074219" ns4:href="#DejaVuSans-116" />
     <use x="590.283203" ns4:href="#DejaVuSans-117" />
     <use x="653.662109" ns4:href="#DejaVuSans-97" />
     <use x="714.941406" ns4:href="#DejaVuSans-108" />
     <use x="742.724609" ns4:href="#DejaVuSans-32" />
     <use x="774.511719" ns4:href="#DejaVuSans-49" />
    </g>
    
    <g style="fill:#262626;" transform="translate(175.49625 43.192875)scale(0.12 -0.12)">
     <use ns4:href="#DejaVuSans-102" />
     <use x="35.205078" ns4:href="#DejaVuSans-40" />
     <use x="74.21875" ns4:href="#DejaVuSans-120" />
     <use x="133.398438" ns4:href="#DejaVuSans-41" />
     <use x="172.412109" ns4:href="#DejaVuSans-32" />
     <use x="204.199219" ns4:href="#DejaVuSans-61" />
     <use x="287.988281" ns4:href="#DejaVuSans-32" />
     <use x="319.775391" ns4:href="#DejaVuSans-49" />
     <use x="383.398438" ns4:href="#DejaVuSans-46" />
     <use x="415.185547" ns4:href="#DejaVuSans-48" />
     <use x="478.808594" ns4:href="#DejaVuSans-48" />
     <use x="542.431641" ns4:href="#DejaVuSans-48" />
    </g>
   </g>
  </g>
  <g id="axes_3">
   <g clip-path="url(#p23ba258049)">
    <g id="rdkit-img-2-g"><svg baseProfile="full" height="114.0" version="1.1" viewBox="0 0 200 200" width="128.0" x="288.72" y="48.792875" xml:space="preserve">

<rect height="200" style="opacity:1.0;fill:#FFFFFF;stroke:none" width="200" x="0" y="0"> </rect>
<path d="M 164.289,149.905 L 176.67,167.988" style="fill:none;fill-rule:evenodd;stroke:#1BBC9B;stroke-width:7.0px;stroke-linecap:butt;stroke-linejoin:miter;stroke-opacity:1" />
<ellipse cx="164.289" cy="149.905" rx="6.57396" ry="6.57396" style="fill:#1BBC9B;fill-rule:evenodd;stroke:#1BBC9B;stroke-width:1.0px;stroke-linecap:butt;stroke-linejoin:miter;stroke-opacity:1" />
<ellipse cx="176.67" cy="167.988" rx="6.57396" ry="7.00884" style="fill:#1BBC9B;fill-rule:evenodd;stroke:#1BBC9B;stroke-width:1.0px;stroke-linecap:butt;stroke-linejoin:miter;stroke-opacity:1" />
<path class="bond-0 atom-0 atom-1" d="M 35.9127,117.583 L 37.692,95.7182" style="fill:none;fill-rule:evenodd;stroke:#000000;stroke-linecap:butt;stroke-linejoin:miter;stroke-opacity:1" />
<path class="bond-1 atom-1 atom-2" d="M 37.692,95.7182 L 26.1269,85.8473" style="fill:none;fill-rule:evenodd;stroke:#000000;stroke-linecap:butt;stroke-linejoin:miter;stroke-opacity:1" />
<path class="bond-27 atom-12 atom-1" d="M 56.4366,84.3759 L 37.692,95.7182" style="fill:none;fill-rule:evenodd;stroke:#000000;stroke-linecap:butt;stroke-linejoin:miter;stroke-opacity:1" />
<path class="bond-27 atom-12 atom-1" d="M 51.5829,82.7026 L 38.4617,90.6422" style="fill:none;fill-rule:evenodd;stroke:#000000;stroke-linecap:butt;stroke-linejoin:miter;stroke-opacity:1" />
<path class="bond-2 atom-2 atom-3" d="M 23.3687,75.9358 L 27.2879,66.6201" style="fill:none;fill-rule:evenodd;stroke:#000000;stroke-linecap:butt;stroke-linejoin:miter;stroke-opacity:1" />
<path class="bond-3 atom-3 atom-4" d="M 33.8453,61.6164 L 51.3089,63.0368" style="fill:none;fill-rule:evenodd;stroke:#000000;stroke-linecap:butt;stroke-linejoin:miter;stroke-opacity:1" />
<path class="bond-3 atom-3 atom-4" d="M 36.1451,65.7608 L 48.3696,66.7551" style="fill:none;fill-rule:evenodd;stroke:#000000;stroke-linecap:butt;stroke-linejoin:miter;stroke-opacity:1" />
<path class="bond-4 atom-4 atom-5" d="M 51.3089,63.0368 L 65.5787,46.4135" style="fill:none;fill-rule:evenodd;stroke:#000000;stroke-linecap:butt;stroke-linejoin:miter;stroke-opacity:1" />
<path class="bond-11 atom-4 atom-12" d="M 51.3089,63.0368 L 56.4366,84.3759" style="fill:none;fill-rule:evenodd;stroke:#000000;stroke-linecap:butt;stroke-linejoin:miter;stroke-opacity:1" />
<path class="bond-5 atom-5 atom-6" d="M 65.5787,46.4135 L 87.1852,50.4806" style="fill:none;fill-rule:evenodd;stroke:#000000;stroke-linecap:butt;stroke-linejoin:miter;stroke-opacity:1" />
<path class="bond-5 atom-5 atom-6" d="M 69.5494,43.1472 L 84.6739,45.9942" style="fill:none;fill-rule:evenodd;stroke:#000000;stroke-linecap:butt;stroke-linejoin:miter;stroke-opacity:1" />
<path class="bond-29 atom-10 atom-5" d="M 58.3956,25.7406 L 65.5787,46.4135" style="fill:none;fill-rule:evenodd;stroke:#000000;stroke-linecap:butt;stroke-linejoin:miter;stroke-opacity:1" />
<path class="bond-6 atom-6 atom-7" d="M 87.1852,50.4806 L 101.394,33.8309" style="fill:none;fill-rule:evenodd;stroke:#000000;stroke-linecap:butt;stroke-linejoin:miter;stroke-opacity:1" />
<path class="bond-7 atom-7 atom-8" d="M 101.394,33.8309 L 94.2105,13.158" style="fill:none;fill-rule:evenodd;stroke:#000000;stroke-linecap:butt;stroke-linejoin:miter;stroke-opacity:1" />
<path class="bond-7 atom-7 atom-8" d="M 96.5903,32.0246 L 91.5621,17.5535" style="fill:none;fill-rule:evenodd;stroke:#000000;stroke-linecap:butt;stroke-linejoin:miter;stroke-opacity:1" />
<path class="bond-8 atom-8 atom-9" d="M 94.2105,13.158 L 72.6041,9.09091" style="fill:none;fill-rule:evenodd;stroke:#000000;stroke-linecap:butt;stroke-linejoin:miter;stroke-opacity:1" />
<path class="bond-9 atom-9 atom-10" d="M 72.6041,9.09091 L 58.3956,25.7406" style="fill:none;fill-rule:evenodd;stroke:#000000;stroke-linecap:butt;stroke-linejoin:miter;stroke-opacity:1" />
<path class="bond-9 atom-9 atom-10" d="M 73.4732,14.1488 L 63.5272,25.8036" style="fill:none;fill-rule:evenodd;stroke:#000000;stroke-linecap:butt;stroke-linejoin:miter;stroke-opacity:1" />
<path class="bond-10 atom-10 atom-11" d="M 58.3956,25.7406 L 38.0298,21.9067" style="fill:none;fill-rule:evenodd;stroke:#000000;stroke-linecap:butt;stroke-linejoin:miter;stroke-opacity:1" />
<path class="bond-12 atom-12 atom-13" d="M 56.4366,84.3759 L 76.6405,92.7862" style="fill:none;fill-rule:evenodd;stroke:#000000;stroke-linecap:butt;stroke-linejoin:miter;stroke-opacity:1" />
<path class="bond-13 atom-13 atom-14" d="M 77.838,94.3532 L 90.1524,84.9431" style="fill:none;fill-rule:evenodd;stroke:#000000;stroke-linecap:butt;stroke-linejoin:miter;stroke-opacity:1" />
<path class="bond-13 atom-13 atom-14" d="M 75.4431,91.2191 L 87.7574,81.809" style="fill:none;fill-rule:evenodd;stroke:#000000;stroke-linecap:butt;stroke-linejoin:miter;stroke-opacity:1" />
<path class="bond-14 atom-13 atom-15" d="M 76.6405,92.7862 L 78.7409,108.99" style="fill:none;fill-rule:evenodd;stroke:#000000;stroke-linecap:butt;stroke-linejoin:miter;stroke-opacity:1" />
<path class="bond-15 atom-15 atom-16" d="M 83.7615,116.294 L 99.6888,122.952" style="fill:none;fill-rule:evenodd;stroke:#000000;stroke-linecap:butt;stroke-linejoin:miter;stroke-opacity:1" />
<path class="bond-16 atom-16 atom-17" d="M 99.6888,122.952 L 119.95,114.616" style="fill:none;fill-rule:evenodd;stroke:#000000;stroke-linecap:butt;stroke-linejoin:miter;stroke-opacity:1" />
<path class="bond-28 atom-20 atom-16" d="M 107.976,143.217 L 99.6888,122.952" style="fill:none;fill-rule:evenodd;stroke:#000000;stroke-linecap:butt;stroke-linejoin:miter;stroke-opacity:1" />
<path class="bond-17 atom-17 atom-18" d="M 121.768,115.38 L 127.849,100.902" style="fill:none;fill-rule:evenodd;stroke:#000000;stroke-linecap:butt;stroke-linejoin:miter;stroke-opacity:1" />
<path class="bond-17 atom-17 atom-18" d="M 118.131,113.852 L 124.212,99.3751" style="fill:none;fill-rule:evenodd;stroke:#000000;stroke-linecap:butt;stroke-linejoin:miter;stroke-opacity:1" />
<path class="bond-18 atom-17 atom-19" d="M 119.95,114.616 L 126.021,129.433" style="fill:none;fill-rule:evenodd;stroke:#000000;stroke-linecap:butt;stroke-linejoin:miter;stroke-opacity:1" />
<path class="bond-19 atom-19 atom-20" d="M 123.97,136.695 L 107.976,143.217" style="fill:none;fill-rule:evenodd;stroke:#000000;stroke-linecap:butt;stroke-linejoin:miter;stroke-opacity:1" />
<path class="bond-30 atom-25 atom-19" d="M 142.428,151.566 L 132.582,139.997" style="fill:none;fill-rule:evenodd;stroke:#000000;stroke-linecap:butt;stroke-linejoin:miter;stroke-opacity:1" />
<path class="bond-20 atom-20 atom-21" d="M 107.976,143.217 L 109.256,159.583" style="fill:none;fill-rule:evenodd;stroke:#000000;stroke-linecap:butt;stroke-linejoin:miter;stroke-opacity:1" />
<path class="bond-21 atom-21 atom-22" d="M 113.411,165.989 L 130.955,170.298" style="fill:none;fill-rule:evenodd;stroke:#000000;stroke-linecap:butt;stroke-linejoin:miter;stroke-opacity:1" />
<path class="bond-22 atom-22 atom-23" d="M 130.955,170.298 L 150.712,179.751" style="fill:none;fill-rule:evenodd;stroke:#000000;stroke-linecap:butt;stroke-linejoin:miter;stroke-opacity:1" />
<path class="bond-23 atom-22 atom-24" d="M 130.955,170.298 L 123.579,190.909" style="fill:none;fill-rule:evenodd;stroke:#000000;stroke-linecap:butt;stroke-linejoin:miter;stroke-opacity:1" />
<path class="bond-24 atom-22 atom-25" d="M 130.955,170.298 L 142.428,151.566" style="fill:none;fill-rule:evenodd;stroke:#000000;stroke-linecap:butt;stroke-linejoin:miter;stroke-opacity:1" />
<path class="bond-25 atom-25 atom-26" d="M 142.428,151.566 L 164.289,149.905" style="fill:none;fill-rule:evenodd;stroke:#000000;stroke-linecap:butt;stroke-linejoin:miter;stroke-opacity:1" />
<path class="bond-26 atom-26 atom-27" d="M 164.289,149.905 L 173.175,162.884" style="fill:none;fill-rule:evenodd;stroke:#000000;stroke-linecap:butt;stroke-linejoin:miter;stroke-opacity:1" />
<path class="atom-2" d="M 16.4792 81.5245 Q 16.4792 79.1445, 17.6552 77.8145 Q 18.8312 76.4845, 21.0292 76.4845 Q 23.2272 76.4845, 24.4032 77.8145 Q 25.5792 79.1445, 25.5792 81.5245 Q 25.5792 83.9325, 24.3892 85.3045 Q 23.1992 86.6625, 21.0292 86.6625 Q 18.8452 86.6625, 17.6552 85.3045 Q 16.4792 83.9465, 16.4792 81.5245 M 21.0292 85.5425 Q 22.5412 85.5425, 23.3532 84.5345 Q 24.1792 83.5125, 24.1792 81.5245 Q 24.1792 79.5785, 23.3532 78.5985 Q 22.5412 77.6045, 21.0292 77.6045 Q 19.5172 77.6045, 18.6912 78.5845 Q 17.8792 79.5645, 17.8792 81.5245 Q 17.8792 83.5265, 18.6912 84.5345 Q 19.5172 85.5425, 21.0292 85.5425 " fill="#000000" />
<path class="atom-3" d="M 27.3493 56.3102 L 30.5973 61.5602 Q 30.9193 62.0782, 31.4373 63.0162 Q 31.9553 63.9542, 31.9833 64.0102 L 31.9833 56.3102 L 33.2993 56.3102 L 33.2993 66.2222 L 31.9413 66.2222 L 28.4553 60.4822 Q 28.0493 59.8102, 27.6153 59.0402 Q 27.1953 58.2702, 27.0693 58.0322 L 27.0693 66.2222 L 25.7813 66.2222 L 25.7813 56.3102 L 27.3493 56.3102 " fill="#000000" />
<path class="atom-11" d="M 27.3454 22.0252 Q 27.3454 19.5612, 28.4934 18.2732 Q 29.6554 16.9712, 31.8534 16.9712 Q 33.8974 16.9712, 34.9894 18.4132 L 34.0654 19.1692 Q 33.2674 18.1192, 31.8534 18.1192 Q 30.3554 18.1192, 29.5574 19.1272 Q 28.7734 20.1212, 28.7734 22.0252 Q 28.7734 23.9852, 29.5854 24.9932 Q 30.4114 26.0012, 32.0074 26.0012 Q 33.0994 26.0012, 34.3734 25.3432 L 34.7654 26.3932 Q 34.2474 26.7292, 33.4634 26.9252 Q 32.6794 27.1212, 31.8114 27.1212 Q 29.6554 27.1212, 28.4934 25.8052 Q 27.3454 24.4892, 27.3454 22.0252 " fill="#000000" />
<path class="atom-11" d="M 36.1934 16.3692 L 37.4814 16.3692 L 37.4814 26.9952 L 36.1934 26.9952 L 36.1934 16.3692 " fill="#000000" />
<path class="atom-14" d="M 89.5028 79.5085 Q 89.5028 77.1285, 90.6788 75.7985 Q 91.8548 74.4685, 94.0528 74.4685 Q 96.2508 74.4685, 97.4268 75.7985 Q 98.6028 77.1285, 98.6028 79.5085 Q 98.6028 81.9165, 97.4128 83.2885 Q 96.2228 84.6465, 94.0528 84.6465 Q 91.8688 84.6465, 90.6788 83.2885 Q 89.5028 81.9305, 89.5028 79.5085 M 94.0528 83.5265 Q 95.5648 83.5265, 96.3768 82.5185 Q 97.2028 81.4965, 97.2028 79.5085 Q 97.2028 77.5625, 96.3768 76.5825 Q 95.5648 75.5885, 94.0528 75.5885 Q 92.5408 75.5885, 91.7148 76.5685 Q 90.9028 77.5485, 90.9028 79.5085 Q 90.9028 81.5105, 91.7148 82.5185 Q 92.5408 83.5265, 94.0528 83.5265 " fill="#000000" />
<path class="atom-15" d="M 66.7772 109.537 L 68.1212 109.537 L 68.1212 113.751 L 73.1892 113.751 L 73.1892 109.537 L 74.5332 109.537 L 74.5332 119.449 L 73.1892 119.449 L 73.1892 114.871 L 68.1212 114.871 L 68.1212 119.449 L 66.7772 119.449 L 66.7772 109.537 " fill="#000000" />
<path class="atom-15" d="M 77.2632 109.537 L 80.5112 114.787 Q 80.8332 115.305, 81.3512 116.243 Q 81.8692 117.181, 81.8972 117.237 L 81.8972 109.537 L 83.2132 109.537 L 83.2132 119.449 L 81.8552 119.449 L 78.3692 113.709 Q 77.9632 113.037, 77.5292 112.267 Q 77.1092 111.497, 76.9832 111.259 L 76.9832 119.449 L 75.6952 119.449 L 75.6952 109.537 L 77.2632 109.537 " fill="#000000" />
<path class="atom-18" d="M 123.88 94.4533 Q 123.88 92.0733, 125.056 90.7433 Q 126.232 89.4133, 128.43 89.4133 Q 130.628 89.4133, 131.804 90.7433 Q 132.98 92.0733, 132.98 94.4533 Q 132.98 96.8613, 131.79 98.2333 Q 130.6 99.5913, 128.43 99.5913 Q 126.246 99.5913, 125.056 98.2333 Q 123.88 96.8753, 123.88 94.4533 M 128.43 98.4713 Q 129.942 98.4713, 130.754 97.4633 Q 131.58 96.4413, 131.58 94.4533 Q 131.58 92.5073, 130.754 91.5273 Q 129.942 90.5333, 128.43 90.5333 Q 126.918 90.5333, 126.092 91.5133 Q 125.28 92.4933, 125.28 94.4533 Q 125.28 96.4553, 126.092 97.4633 Q 126.918 98.4713, 128.43 98.4713 " fill="#000000" />
<path class="atom-19" d="M 126.086 129.982 L 129.334 135.232 Q 129.656 135.75, 130.174 136.688 Q 130.692 137.626, 130.72 137.682 L 130.72 129.982 L 132.036 129.982 L 132.036 139.894 L 130.678 139.894 L 127.192 134.154 Q 126.786 133.482, 126.352 132.712 Q 125.932 131.942, 125.806 131.704 L 125.806 139.894 L 124.518 139.894 L 124.518 129.982 L 126.086 129.982 " fill="#000000" />
<path class="atom-21" d="M 106.886 168.475 Q 106.998 168.517, 107.46 168.713 Q 107.922 168.909, 108.426 169.035 Q 108.944 169.147, 109.448 169.147 Q 110.386 169.147, 110.932 168.699 Q 111.478 168.237, 111.478 167.439 Q 111.478 166.893, 111.198 166.557 Q 110.932 166.221, 110.512 166.039 Q 110.092 165.857, 109.392 165.647 Q 108.51 165.381, 107.978 165.129 Q 107.46 164.877, 107.082 164.345 Q 106.718 163.813, 106.718 162.917 Q 106.718 161.671, 107.558 160.901 Q 108.412 160.131, 110.092 160.131 Q 111.24 160.131, 112.542 160.677 L 112.22 161.755 Q 111.03 161.265, 110.134 161.265 Q 109.168 161.265, 108.636 161.671 Q 108.104 162.063, 108.118 162.749 Q 108.118 163.281, 108.384 163.603 Q 108.664 163.925, 109.056 164.107 Q 109.462 164.289, 110.134 164.499 Q 111.03 164.779, 111.562 165.059 Q 112.094 165.339, 112.472 165.913 Q 112.864 166.473, 112.864 167.439 Q 112.864 168.811, 111.94 169.553 Q 111.03 170.281, 109.504 170.281 Q 108.622 170.281, 107.95 170.085 Q 107.292 169.903, 106.508 169.581 L 106.886 168.475 " fill="#000000" />
<path class="atom-27" d="M 173.723 163.032 L 179.617 163.032 L 179.617 164.166 L 175.053 164.166 L 175.053 167.176 L 179.113 167.176 L 179.113 168.324 L 175.053 168.324 L 175.053 172.944 L 173.723 172.944 L 173.723 163.032 " fill="#000000" />
</svg></g></g>
   <g id="text_3">
    
    <g style="fill:#262626;" transform="translate(302.05125 16.318125)scale(0.12 -0.12)">
     <defs>
      <path d="M 8.203125 72.90625  L 55.078125 72.90625  L 55.078125 68.703125  L 28.609375 0  L 18.3125 0  L 43.21875 64.59375  L 8.203125 64.59375  z " id="DejaVuSans-55" />
     </defs>
     <use ns4:href="#DejaVuSans-83" />
     <use x="63.476562" ns4:href="#DejaVuSans-105" />
     <use x="91.259766" ns4:href="#DejaVuSans-109" />
     <use x="188.671875" ns4:href="#DejaVuSans-105" />
     <use x="216.455078" ns4:href="#DejaVuSans-108" />
     <use x="244.238281" ns4:href="#DejaVuSans-97" />
     <use x="305.517578" ns4:href="#DejaVuSans-114" />
     <use x="346.630859" ns4:href="#DejaVuSans-105" />
     <use x="374.414062" ns4:href="#DejaVuSans-116" />
     <use x="413.623047" ns4:href="#DejaVuSans-121" />
     <use x="472.802734" ns4:href="#DejaVuSans-32" />
     <use x="504.589844" ns4:href="#DejaVuSans-61" />
     <use x="588.378906" ns4:href="#DejaVuSans-32" />
     <use x="620.166016" ns4:href="#DejaVuSans-48" />
     <use x="683.789062" ns4:href="#DejaVuSans-46" />
     <use x="715.576172" ns4:href="#DejaVuSans-55" />
     <use x="779.199219" ns4:href="#DejaVuSans-55" />
    </g>
    
    <g style="fill:#262626;" transform="translate(302.3325 29.7555)scale(0.12 -0.12)">
     <defs>
      <path d="M 19.1875 8.296875  L 53.609375 8.296875  L 53.609375 0  L 7.328125 0  L 7.328125 8.296875  Q 12.9375 14.109375 22.625 23.890625  Q 32.328125 33.6875 34.8125 36.53125  Q 39.546875 41.84375 41.421875 45.53125  Q 43.3125 49.21875 43.3125 52.78125  Q 43.3125 58.59375 39.234375 62.25  Q 35.15625 65.921875 28.609375 65.921875  Q 23.96875 65.921875 18.8125 64.3125  Q 13.671875 62.703125 7.8125 59.421875  L 7.8125 69.390625  Q 13.765625 71.78125 18.9375 73  Q 24.125 74.21875 28.421875 74.21875  Q 39.75 74.21875 46.484375 68.546875  Q 53.21875 62.890625 53.21875 53.421875  Q 53.21875 48.921875 51.53125 44.890625  Q 49.859375 40.875 45.40625 35.40625  Q 44.1875 33.984375 37.640625 27.21875  Q 31.109375 20.453125 19.1875 8.296875  z " id="DejaVuSans-50" />
     </defs>
     <use ns4:href="#DejaVuSans-67" />
     <use x="69.824219" ns4:href="#DejaVuSans-111" />
     <use x="131.005859" ns4:href="#DejaVuSans-117" />
     <use x="194.384766" ns4:href="#DejaVuSans-110" />
     <use x="257.763672" ns4:href="#DejaVuSans-116" />
     <use x="296.972656" ns4:href="#DejaVuSans-101" />
     <use x="358.496094" ns4:href="#DejaVuSans-114" />
     <use x="399.609375" ns4:href="#DejaVuSans-102" />
     <use x="434.814453" ns4:href="#DejaVuSans-97" />
     <use x="496.09375" ns4:href="#DejaVuSans-99" />
     <use x="551.074219" ns4:href="#DejaVuSans-116" />
     <use x="590.283203" ns4:href="#DejaVuSans-117" />
     <use x="653.662109" ns4:href="#DejaVuSans-97" />
     <use x="714.941406" ns4:href="#DejaVuSans-108" />
     <use x="742.724609" ns4:href="#DejaVuSans-32" />
     <use x="774.511719" ns4:href="#DejaVuSans-50" />
    </g>
    
    <g style="fill:#262626;" transform="translate(316.25625 43.192875)scale(0.12 -0.12)">
     <use ns4:href="#DejaVuSans-102" />
     <use x="35.205078" ns4:href="#DejaVuSans-40" />
     <use x="74.21875" ns4:href="#DejaVuSans-120" />
     <use x="133.398438" ns4:href="#DejaVuSans-41" />
     <use x="172.412109" ns4:href="#DejaVuSans-32" />
     <use x="204.199219" ns4:href="#DejaVuSans-61" />
     <use x="287.988281" ns4:href="#DejaVuSans-32" />
     <use x="319.775391" ns4:href="#DejaVuSans-49" />
     <use x="383.398438" ns4:href="#DejaVuSans-46" />
     <use x="415.185547" ns4:href="#DejaVuSans-48" />
     <use x="478.808594" ns4:href="#DejaVuSans-48" />
     <use x="542.431641" ns4:href="#DejaVuSans-48" />
    </g>
   </g>
  </g>
  <g id="axes_4">
   <g clip-path="url(#pa3a5adef01)">
    <g id="rdkit-img-3-g"><svg baseProfile="full" height="114.0" version="1.1" viewBox="0 0 200 200" width="128.0" x="429.48" y="48.792875" xml:space="preserve">

<rect height="200" style="opacity:1.0;fill:#FFFFFF;stroke:none" width="200" x="0" y="0"> </rect>
<path d="M 151.525,148.177 L 163.469,165.638" style="fill:none;fill-rule:evenodd;stroke:#1BBC9B;stroke-width:6.8px;stroke-linecap:butt;stroke-linejoin:miter;stroke-opacity:1" />
<path d="M 163.469,165.638 L 184.563,164.021" style="fill:none;fill-rule:evenodd;stroke:#1BBC9B;stroke-width:6.8px;stroke-linecap:butt;stroke-linejoin:miter;stroke-opacity:1" />
<ellipse cx="151.525" cy="148.177" rx="6.34609" ry="6.34609" style="fill:#1BBC9B;fill-rule:evenodd;stroke:#1BBC9B;stroke-width:1.0px;stroke-linecap:butt;stroke-linejoin:miter;stroke-opacity:1" />
<ellipse cx="163.469" cy="165.771" rx="6.34609" ry="7.17713" style="fill:#1BBC9B;fill-rule:evenodd;stroke:#1BBC9B;stroke-width:1.0px;stroke-linecap:butt;stroke-linejoin:miter;stroke-opacity:1" />
<ellipse cx="184.563" cy="164.021" rx="6.34609" ry="7.03854" style="fill:#1BBC9B;fill-rule:evenodd;stroke:#1BBC9B;stroke-width:1.0px;stroke-linecap:butt;stroke-linejoin:miter;stroke-opacity:1" />
<path class="bond-0 atom-0 atom-1" d="M 27.5946,116.972 L 29.3122,95.8687" style="fill:none;fill-rule:evenodd;stroke:#000000;stroke-linecap:butt;stroke-linejoin:miter;stroke-opacity:1" />
<path class="bond-1 atom-1 atom-2" d="M 29.3122,95.8687 L 18.3058,86.4718" style="fill:none;fill-rule:evenodd;stroke:#000000;stroke-linecap:butt;stroke-linejoin:miter;stroke-opacity:1" />
<path class="bond-28 atom-12 atom-1" d="M 47.4071,84.9196 L 29.3122,95.8687" style="fill:none;fill-rule:evenodd;stroke:#000000;stroke-linecap:butt;stroke-linejoin:miter;stroke-opacity:1" />
<path class="bond-28 atom-12 atom-1" d="M 42.7216,83.3043 L 30.0552,90.9686" style="fill:none;fill-rule:evenodd;stroke:#000000;stroke-linecap:butt;stroke-linejoin:miter;stroke-opacity:1" />
<path class="bond-2 atom-2 atom-3" d="M 15.5597,76.594 L 19.2015,67.9421" style="fill:none;fill-rule:evenodd;stroke:#000000;stroke-linecap:butt;stroke-linejoin:miter;stroke-opacity:1" />
<path class="bond-3 atom-3 atom-4" d="M 25.7333,62.9563 L 42.4571,64.3202" style="fill:none;fill-rule:evenodd;stroke:#000000;stroke-linecap:butt;stroke-linejoin:miter;stroke-opacity:1" />
<path class="bond-3 atom-3 atom-4" d="M 27.9324,66.9559 L 39.639,67.9106" style="fill:none;fill-rule:evenodd;stroke:#000000;stroke-linecap:butt;stroke-linejoin:miter;stroke-opacity:1" />
<path class="bond-4 atom-4 atom-5" d="M 42.4571,64.3202 L 56.2366,48.273" style="fill:none;fill-rule:evenodd;stroke:#000000;stroke-linecap:butt;stroke-linejoin:miter;stroke-opacity:1" />
<path class="bond-11 atom-4 atom-12" d="M 42.4571,64.3202 L 47.4071,84.9196" style="fill:none;fill-rule:evenodd;stroke:#000000;stroke-linecap:butt;stroke-linejoin:miter;stroke-opacity:1" />
<path class="bond-5 atom-5 atom-6" d="M 56.2366,48.273 L 77.0941,52.1991" style="fill:none;fill-rule:evenodd;stroke:#000000;stroke-linecap:butt;stroke-linejoin:miter;stroke-opacity:1" />
<path class="bond-5 atom-5 atom-6" d="M 60.0696,45.12 L 74.6698,47.8683" style="fill:none;fill-rule:evenodd;stroke:#000000;stroke-linecap:butt;stroke-linejoin:miter;stroke-opacity:1" />
<path class="bond-30 atom-10 atom-5" d="M 49.3024,28.3125 L 56.2366,48.273" style="fill:none;fill-rule:evenodd;stroke:#000000;stroke-linecap:butt;stroke-linejoin:miter;stroke-opacity:1" />
<path class="bond-6 atom-6 atom-7" d="M 77.0941,52.1991 L 90.8059,36.1266" style="fill:none;fill-rule:evenodd;stroke:#000000;stroke-linecap:butt;stroke-linejoin:miter;stroke-opacity:1" />
<path class="bond-7 atom-7 atom-8" d="M 90.8059,36.1266 L 83.8759,16.166" style="fill:none;fill-rule:evenodd;stroke:#000000;stroke-linecap:butt;stroke-linejoin:miter;stroke-opacity:1" />
<path class="bond-7 atom-7 atom-8" d="M 86.1693,34.3813 L 81.3184,20.4089" style="fill:none;fill-rule:evenodd;stroke:#000000;stroke-linecap:butt;stroke-linejoin:miter;stroke-opacity:1" />
<path class="bond-8 atom-8 atom-9" d="M 83.8759,16.166 L 63.0142,12.2399" style="fill:none;fill-rule:evenodd;stroke:#000000;stroke-linecap:butt;stroke-linejoin:miter;stroke-opacity:1" />
<path class="bond-9 atom-9 atom-10" d="M 63.0142,12.2399 L 49.3024,28.3125" style="fill:none;fill-rule:evenodd;stroke:#000000;stroke-linecap:butt;stroke-linejoin:miter;stroke-opacity:1" />
<path class="bond-9 atom-9 atom-10" d="M 63.8542,17.1221 L 54.2559,28.3728" style="fill:none;fill-rule:evenodd;stroke:#000000;stroke-linecap:butt;stroke-linejoin:miter;stroke-opacity:1" />
<path class="bond-10 atom-10 atom-11" d="M 49.3024,28.3125 L 29.6649,24.6197" style="fill:none;fill-rule:evenodd;stroke:#000000;stroke-linecap:butt;stroke-linejoin:miter;stroke-opacity:1" />
<path class="bond-12 atom-12 atom-13" d="M 47.4071,84.9196 L 66.9149,93.0383" style="fill:none;fill-rule:evenodd;stroke:#000000;stroke-linecap:butt;stroke-linejoin:miter;stroke-opacity:1" />
<path class="bond-13 atom-13 atom-14" d="M 68.0711,94.5509 L 79.7968,85.5884" style="fill:none;fill-rule:evenodd;stroke:#000000;stroke-linecap:butt;stroke-linejoin:miter;stroke-opacity:1" />
<path class="bond-13 atom-13 atom-14" d="M 65.7588,91.5258 L 77.4845,82.5632" style="fill:none;fill-rule:evenodd;stroke:#000000;stroke-linecap:butt;stroke-linejoin:miter;stroke-opacity:1" />
<path class="bond-14 atom-13 atom-15" d="M 66.9149,93.0383 L 68.9202,108.509" style="fill:none;fill-rule:evenodd;stroke:#000000;stroke-linecap:butt;stroke-linejoin:miter;stroke-opacity:1" />
<path class="bond-15 atom-15 atom-16" d="M 73.9192,115.785 L 89.1601,122.154" style="fill:none;fill-rule:evenodd;stroke:#000000;stroke-linecap:butt;stroke-linejoin:miter;stroke-opacity:1" />
<path class="bond-16 atom-16 atom-17" d="M 89.1601,122.154 L 108.723,114.107" style="fill:none;fill-rule:evenodd;stroke:#000000;stroke-linecap:butt;stroke-linejoin:miter;stroke-opacity:1" />
<path class="bond-29 atom-20 atom-16" d="M 97.1604,141.721 L 89.1601,122.154" style="fill:none;fill-rule:evenodd;stroke:#000000;stroke-linecap:butt;stroke-linejoin:miter;stroke-opacity:1" />
<path class="bond-17 atom-17 atom-18" d="M 110.478,114.844 L 116.27,101.048" style="fill:none;fill-rule:evenodd;stroke:#000000;stroke-linecap:butt;stroke-linejoin:miter;stroke-opacity:1" />
<path class="bond-17 atom-17 atom-18" d="M 106.968,113.37 L 112.759,99.574" style="fill:none;fill-rule:evenodd;stroke:#000000;stroke-linecap:butt;stroke-linejoin:miter;stroke-opacity:1" />
<path class="bond-18 atom-17 atom-19" d="M 108.723,114.107 L 114.51,128.239" style="fill:none;fill-rule:evenodd;stroke:#000000;stroke-linecap:butt;stroke-linejoin:miter;stroke-opacity:1" />
<path class="bond-19 atom-19 atom-20" d="M 112.469,135.475 L 97.1604,141.721" style="fill:none;fill-rule:evenodd;stroke:#000000;stroke-linecap:butt;stroke-linejoin:miter;stroke-opacity:1" />
<path class="bond-31 atom-25 atom-19" d="M 130.422,149.781 L 121.043,138.761" style="fill:none;fill-rule:evenodd;stroke:#000000;stroke-linecap:butt;stroke-linejoin:miter;stroke-opacity:1" />
<path class="bond-20 atom-20 atom-21" d="M 97.1604,141.721 L 98.3856,157.345" style="fill:none;fill-rule:evenodd;stroke:#000000;stroke-linecap:butt;stroke-linejoin:miter;stroke-opacity:1" />
<path class="bond-21 atom-21 atom-22" d="M 102.521,163.726 L 119.346,167.859" style="fill:none;fill-rule:evenodd;stroke:#000000;stroke-linecap:butt;stroke-linejoin:miter;stroke-opacity:1" />
<path class="bond-22 atom-22 atom-23" d="M 119.346,167.859 L 138.418,176.984" style="fill:none;fill-rule:evenodd;stroke:#000000;stroke-linecap:butt;stroke-linejoin:miter;stroke-opacity:1" />
<path class="bond-23 atom-22 atom-24" d="M 119.346,167.859 L 112.226,187.76" style="fill:none;fill-rule:evenodd;stroke:#000000;stroke-linecap:butt;stroke-linejoin:miter;stroke-opacity:1" />
<path class="bond-24 atom-22 atom-25" d="M 119.346,167.859 L 130.422,149.781" style="fill:none;fill-rule:evenodd;stroke:#000000;stroke-linecap:butt;stroke-linejoin:miter;stroke-opacity:1" />
<path class="bond-25 atom-25 atom-26" d="M 130.422,149.781 L 151.525,148.177" style="fill:none;fill-rule:evenodd;stroke:#000000;stroke-linecap:butt;stroke-linejoin:miter;stroke-opacity:1" />
<path class="bond-26 atom-26 atom-27" d="M 151.525,148.177 L 159.762,160.218" style="fill:none;fill-rule:evenodd;stroke:#000000;stroke-linecap:butt;stroke-linejoin:miter;stroke-opacity:1" />
<path class="bond-27 atom-27 atom-28" d="M 167.175,165.354 L 183.462,164.106" style="fill:none;fill-rule:evenodd;stroke:#000000;stroke-linecap:butt;stroke-linejoin:miter;stroke-opacity:1" />
<path class="atom-2" d="M 8.67702 82.1638 Q 8.67702 79.7838, 9.85302 78.4538 Q 11.029 77.1238, 13.227 77.1238 Q 15.425 77.1238, 16.601 78.4538 Q 17.777 79.7838, 17.777 82.1638 Q 17.777 84.5718, 16.587 85.9438 Q 15.397 87.3018, 13.227 87.3018 Q 11.043 87.3018, 9.85302 85.9438 Q 8.67702 84.5858, 8.67702 82.1638 M 13.227 86.1818 Q 14.739 86.1818, 15.551 85.1738 Q 16.377 84.1518, 16.377 82.1638 Q 16.377 80.2178, 15.551 79.2378 Q 14.739 78.2438, 13.227 78.2438 Q 11.715 78.2438, 10.889 79.2238 Q 10.077 80.2038, 10.077 82.1638 Q 10.077 84.1658, 10.889 85.1738 Q 11.715 86.1818, 13.227 86.1818 " fill="#000000" />
<path class="atom-3" d="M 19.2563 57.6507 L 22.5043 62.9007 Q 22.8263 63.4187, 23.3443 64.3567 Q 23.8623 65.2947, 23.8903 65.3507 L 23.8903 57.6507 L 25.2063 57.6507 L 25.2063 67.5627 L 23.8483 67.5627 L 20.3623 61.8227 Q 19.9563 61.1507, 19.5223 60.3807 Q 19.1023 59.6107, 18.9763 59.3727 L 18.9763 67.5627 L 17.6883 67.5627 L 17.6883 57.6507 L 19.2563 57.6507 " fill="#000000" />
<path class="atom-11" d="M 18.9995 24.742 Q 18.9995 22.278, 20.1475 20.99 Q 21.3095 19.688, 23.5075 19.688 Q 25.5515 19.688, 26.6435 21.13 L 25.7195 21.886 Q 24.9215 20.836, 23.5075 20.836 Q 22.0095 20.836, 21.2115 21.844 Q 20.4275 22.838, 20.4275 24.742 Q 20.4275 26.702, 21.2395 27.71 Q 22.0655 28.718, 23.6615 28.718 Q 24.7535 28.718, 26.0275 28.06 L 26.4195 29.11 Q 25.9015 29.446, 25.1175 29.642 Q 24.3335 29.838, 23.4655 29.838 Q 21.3095 29.838, 20.1475 28.522 Q 18.9995 27.206, 18.9995 24.742 " fill="#000000" />
<path class="atom-11" d="M 27.8475 19.086 L 29.1355 19.086 L 29.1355 29.712 L 27.8475 29.712 L 27.8475 19.086 " fill="#000000" />
<path class="atom-14" d="M 79.1694 80.2219 Q 79.1694 77.8419, 80.3454 76.5119 Q 81.5214 75.1819, 83.7194 75.1819 Q 85.9174 75.1819, 87.0934 76.5119 Q 88.2694 77.8419, 88.2694 80.2219 Q 88.2694 82.6299, 87.0794 84.0019 Q 85.8894 85.3599, 83.7194 85.3599 Q 81.5354 85.3599, 80.3454 84.0019 Q 79.1694 82.6439, 79.1694 80.2219 M 83.7194 84.2399 Q 85.2314 84.2399, 86.0434 83.2319 Q 86.8694 82.2099, 86.8694 80.2219 Q 86.8694 78.2759, 86.0434 77.2959 Q 85.2314 76.3019, 83.7194 76.3019 Q 82.2074 76.3019, 81.3814 77.2819 Q 80.5694 78.2619, 80.5694 80.2219 Q 80.5694 82.2239, 81.3814 83.2319 Q 82.2074 84.2399, 83.7194 84.2399 " fill="#000000" />
<path class="atom-15" d="M 56.9541 109.037 L 58.2981 109.037 L 58.2981 113.251 L 63.3661 113.251 L 63.3661 109.037 L 64.7101 109.037 L 64.7101 118.949 L 63.3661 118.949 L 63.3661 114.371 L 58.2981 114.371 L 58.2981 118.949 L 56.9541 118.949 L 56.9541 109.037 " fill="#000000" />
<path class="atom-15" d="M 67.4401 109.037 L 70.6881 114.287 Q 71.0101 114.805, 71.5281 115.743 Q 72.0461 116.681, 72.0741 116.737 L 72.0741 109.037 L 73.3901 109.037 L 73.3901 118.949 L 72.0321 118.949 L 68.5461 113.209 Q 68.1401 112.537, 67.7061 111.767 Q 67.2861 110.997, 67.1601 110.759 L 67.1601 118.949 L 65.8721 118.949 L 65.8721 109.037 L 67.4401 109.037 " fill="#000000" />
<path class="atom-18" d="M 112.355 94.6444 Q 112.355 92.2644, 113.531 90.9344 Q 114.707 89.6044, 116.905 89.6044 Q 119.103 89.6044, 120.279 90.9344 Q 121.455 92.2644, 121.455 94.6444 Q 121.455 97.0524, 120.265 98.4244 Q 119.075 99.7824, 116.905 99.7824 Q 114.721 99.7824, 113.531 98.4244 Q 112.355 97.0664, 112.355 94.6444 M 116.905 98.6624 Q 118.417 98.6624, 119.229 97.6544 Q 120.055 96.6324, 120.055 94.6444 Q 120.055 92.6984, 119.229 91.7184 Q 118.417 90.7244, 116.905 90.7244 Q 115.393 90.7244, 114.567 91.7044 Q 113.755 92.6844, 113.755 94.6444 Q 113.755 96.6464, 114.567 97.6544 Q 115.393 98.6624, 116.905 98.6624 " fill="#000000" />
<path class="atom-19" d="M 114.566 128.769 L 117.814 134.019 Q 118.136 134.537, 118.654 135.475 Q 119.172 136.413, 119.2 136.469 L 119.2 128.769 L 120.516 128.769 L 120.516 138.681 L 119.158 138.681 L 115.672 132.941 Q 115.266 132.269, 114.832 131.499 Q 114.412 130.729, 114.286 130.491 L 114.286 138.681 L 112.998 138.681 L 112.998 128.769 L 114.566 128.769 " fill="#000000" />
<path class="atom-21" d="M 96.0146 166.218 Q 96.1266 166.26, 96.5886 166.456 Q 97.0506 166.652, 97.5546 166.778 Q 98.0726 166.89, 98.5766 166.89 Q 99.5146 166.89, 100.061 166.442 Q 100.607 165.98, 100.607 165.182 Q 100.607 164.636, 100.327 164.3 Q 100.061 163.964, 99.6406 163.782 Q 99.2206 163.6, 98.5206 163.39 Q 97.6386 163.124, 97.1066 162.872 Q 96.5886 162.62, 96.2106 162.088 Q 95.8466 161.556, 95.8466 160.66 Q 95.8466 159.414, 96.6866 158.644 Q 97.5406 157.874, 99.2206 157.874 Q 100.369 157.874, 101.671 158.42 L 101.349 159.498 Q 100.159 159.008, 99.2626 159.008 Q 98.2966 159.008, 97.7646 159.414 Q 97.2326 159.806, 97.2466 160.492 Q 97.2466 161.024, 97.5126 161.346 Q 97.7926 161.668, 98.1846 161.85 Q 98.5906 162.032, 99.2626 162.242 Q 100.159 162.522, 100.691 162.802 Q 101.223 163.082, 101.601 163.656 Q 101.993 164.216, 101.993 165.182 Q 101.993 166.554, 101.069 167.296 Q 100.159 168.024, 98.6326 168.024 Q 97.7506 168.024, 97.0786 167.828 Q 96.4206 167.646, 95.6366 167.324 L 96.0146 166.218 " fill="#000000" />
<path class="atom-27" d="M 160.669 169.04 Q 160.781 169.082, 161.243 169.278 Q 161.705 169.474, 162.209 169.6 Q 162.727 169.712, 163.231 169.712 Q 164.169 169.712, 164.715 169.264 Q 165.261 168.802, 165.261 168.004 Q 165.261 167.458, 164.981 167.122 Q 164.715 166.786, 164.295 166.604 Q 163.875 166.422, 163.175 166.212 Q 162.293 165.946, 161.761 165.694 Q 161.243 165.442, 160.865 164.91 Q 160.501 164.378, 160.501 163.482 Q 160.501 162.236, 161.341 161.466 Q 162.195 160.696, 163.875 160.696 Q 165.023 160.696, 166.325 161.242 L 166.003 162.32 Q 164.813 161.83, 163.917 161.83 Q 162.951 161.83, 162.419 162.236 Q 161.887 162.628, 161.901 163.314 Q 161.901 163.846, 162.167 164.168 Q 162.447 164.49, 162.839 164.672 Q 163.245 164.854, 163.917 165.064 Q 164.813 165.344, 165.345 165.624 Q 165.877 165.904, 166.255 166.478 Q 166.647 167.038, 166.647 168.004 Q 166.647 169.376, 165.723 170.118 Q 164.813 170.846, 163.287 170.846 Q 162.405 170.846, 161.733 170.65 Q 161.075 170.468, 160.291 170.146 L 160.669 169.04 " fill="#000000" />
<path class="atom-28" d="M 183.898 159.044 L 185.228 159.044 L 185.228 168.998 L 183.898 168.998 L 183.898 159.044 " fill="#000000" />
</svg></g></g>
   <g id="text_4">
    
    <g style="fill:#262626;" transform="translate(442.81125 16.318125)scale(0.12 -0.12)">
     <defs>
      <path d="M 10.796875 72.90625  L 49.515625 72.90625  L 49.515625 64.59375  L 19.828125 64.59375  L 19.828125 46.734375  Q 21.96875 47.46875 24.109375 47.828125  Q 26.265625 48.1875 28.421875 48.1875  Q 40.625 48.1875 47.75 41.5  Q 54.890625 34.8125 54.890625 23.390625  Q 54.890625 11.625 47.5625 5.09375  Q 40.234375 -1.421875 26.90625 -1.421875  Q 22.3125 -1.421875 17.546875 -0.640625  Q 12.796875 0.140625 7.71875 1.703125  L 7.71875 11.625  Q 12.109375 9.234375 16.796875 8.0625  Q 21.484375 6.890625 26.703125 6.890625  Q 35.15625 6.890625 40.078125 11.328125  Q 45.015625 15.765625 45.015625 23.390625  Q 45.015625 31 40.078125 35.4375  Q 35.15625 39.890625 26.703125 39.890625  Q 22.75 39.890625 18.8125 39.015625  Q 14.890625 38.140625 10.796875 36.28125  z " id="DejaVuSans-53" />
     </defs>
     <use ns4:href="#DejaVuSans-83" />
     <use x="63.476562" ns4:href="#DejaVuSans-105" />
     <use x="91.259766" ns4:href="#DejaVuSans-109" />
     <use x="188.671875" ns4:href="#DejaVuSans-105" />
     <use x="216.455078" ns4:href="#DejaVuSans-108" />
     <use x="244.238281" ns4:href="#DejaVuSans-97" />
     <use x="305.517578" ns4:href="#DejaVuSans-114" />
     <use x="346.630859" ns4:href="#DejaVuSans-105" />
     <use x="374.414062" ns4:href="#DejaVuSans-116" />
     <use x="413.623047" ns4:href="#DejaVuSans-121" />
     <use x="472.802734" ns4:href="#DejaVuSans-32" />
     <use x="504.589844" ns4:href="#DejaVuSans-61" />
     <use x="588.378906" ns4:href="#DejaVuSans-32" />
     <use x="620.166016" ns4:href="#DejaVuSans-48" />
     <use x="683.789062" ns4:href="#DejaVuSans-46" />
     <use x="715.576172" ns4:href="#DejaVuSans-55" />
     <use x="779.199219" ns4:href="#DejaVuSans-53" />
    </g>
    
    <g style="fill:#262626;" transform="translate(443.0925 29.7555)scale(0.12 -0.12)">
     <defs>
      <path d="M 40.578125 39.3125  Q 47.65625 37.796875 51.625 33  Q 55.609375 28.21875 55.609375 21.1875  Q 55.609375 10.40625 48.1875 4.484375  Q 40.765625 -1.421875 27.09375 -1.421875  Q 22.515625 -1.421875 17.65625 -0.515625  Q 12.796875 0.390625 7.625 2.203125  L 7.625 11.71875  Q 11.71875 9.328125 16.59375 8.109375  Q 21.484375 6.890625 26.8125 6.890625  Q 36.078125 6.890625 40.9375 10.546875  Q 45.796875 14.203125 45.796875 21.1875  Q 45.796875 27.640625 41.28125 31.265625  Q 36.765625 34.90625 28.71875 34.90625  L 20.21875 34.90625  L 20.21875 43.015625  L 29.109375 43.015625  Q 36.375 43.015625 40.234375 45.921875  Q 44.09375 48.828125 44.09375 54.296875  Q 44.09375 59.90625 40.109375 62.90625  Q 36.140625 65.921875 28.71875 65.921875  Q 24.65625 65.921875 20.015625 65.03125  Q 15.375 64.15625 9.8125 62.3125  L 9.8125 71.09375  Q 15.4375 72.65625 20.34375 73.4375  Q 25.25 74.21875 29.59375 74.21875  Q 40.828125 74.21875 47.359375 69.109375  Q 53.90625 64.015625 53.90625 55.328125  Q 53.90625 49.265625 50.4375 45.09375  Q 46.96875 40.921875 40.578125 39.3125  z " id="DejaVuSans-51" />
     </defs>
     <use ns4:href="#DejaVuSans-67" />
     <use x="69.824219" ns4:href="#DejaVuSans-111" />
     <use x="131.005859" ns4:href="#DejaVuSans-117" />
     <use x="194.384766" ns4:href="#DejaVuSans-110" />
     <use x="257.763672" ns4:href="#DejaVuSans-116" />
     <use x="296.972656" ns4:href="#DejaVuSans-101" />
     <use x="358.496094" ns4:href="#DejaVuSans-114" />
     <use x="399.609375" ns4:href="#DejaVuSans-102" />
     <use x="434.814453" ns4:href="#DejaVuSans-97" />
     <use x="496.09375" ns4:href="#DejaVuSans-99" />
     <use x="551.074219" ns4:href="#DejaVuSans-116" />
     <use x="590.283203" ns4:href="#DejaVuSans-117" />
     <use x="653.662109" ns4:href="#DejaVuSans-97" />
     <use x="714.941406" ns4:href="#DejaVuSans-108" />
     <use x="742.724609" ns4:href="#DejaVuSans-32" />
     <use x="774.511719" ns4:href="#DejaVuSans-51" />
    </g>
    
    <g style="fill:#262626;" transform="translate(457.01625 43.192875)scale(0.12 -0.12)">
     <use ns4:href="#DejaVuSans-102" />
     <use x="35.205078" ns4:href="#DejaVuSans-40" />
     <use x="74.21875" ns4:href="#DejaVuSans-120" />
     <use x="133.398438" ns4:href="#DejaVuSans-41" />
     <use x="172.412109" ns4:href="#DejaVuSans-32" />
     <use x="204.199219" ns4:href="#DejaVuSans-61" />
     <use x="287.988281" ns4:href="#DejaVuSans-32" />
     <use x="319.775391" ns4:href="#DejaVuSans-49" />
     <use x="383.398438" ns4:href="#DejaVuSans-46" />
     <use x="415.185547" ns4:href="#DejaVuSans-48" />
     <use x="478.808594" ns4:href="#DejaVuSans-48" />
     <use x="542.431641" ns4:href="#DejaVuSans-48" />
    </g>
   </g>
  </g>
 </g>
 <defs>
  <clipPath id="pc9c644d646">
   <rect height="113.6" width="127.8" x="7.2" y="49.192875" />
  </clipPath>
  <clipPath id="p57da5c7fd8">
   <rect height="113.6" width="127.8" x="147.96" y="49.192875" />
  </clipPath>
  <clipPath id="p23ba258049">
   <rect height="113.6" width="127.8" x="288.72" y="49.192875" />
  </clipPath>
  <clipPath id="pa3a5adef01">
   <rect height="113.6" width="127.8" x="429.48" y="49.192875" />
  </clipPath>
 </defs>
</svg>