<svg xmlns="http://www.w3.org/2000/svg" xmlns:dc="http://purl.org/dc/elements/1.1/" xmlns:ns2="http://creativecommons.org/ns#" xmlns:ns4="http://www.w3.org/1999/xlink" xmlns:rdf="http://www.w3.org/1999/02/22-rdf-syntax-ns#" height="170.568875pt" version="1.1" viewBox="0 0 708.48 170.568875" width="708.48pt">
 <metadata>
  <rdf:RDF>
   <ns2:Work>
    <dc:type rdf:resource="http://purl.org/dc/dcmitype/StillImage" />
    <dc:date>2021-09-17T13:48:02.280740</dc:date>
    <dc:format>image/svg+xml</dc:format>
    <dc:creator>
     <ns2:Agent>
      <dc:title>Matplotlib v3.3.2, https://matplotlib.org/</dc:title>
     </ns2:Agent>
    </dc:creator>
   </ns2:Work>
  </rdf:RDF>
 </metadata>
 <defs>
  <style type="text/css">*{stroke-linecap:butt;stroke-linejoin:round;}</style>
 </defs>
 <g id="figure_1">
  <g id="patch_1">
   <path d="M 0 170.568875  L 708.48 170.568875  L 708.48 0  L 0 0  z " style="fill:#ffffff;" />
  </g>
  <g id="axes_1">
   <g clip-path="url(#p6ace9d2e69)">
    <g id="rdkit-img-0-g"><svg baseProfile="full" height="115.0" version="1.1" viewBox="0 0 200 200" width="129.0" x="7.2" y="48.368875" xml:space="preserve">

<rect height="200" style="opacity:1.0;fill:#FFFFFF;stroke:none" width="200" x="0" y="0"> </rect>
<path class="bond-0 atom-0 atom-1" d="M 9.09091,93.5286 L 24.2736,84.8368" style="fill:none;fill-rule:evenodd;stroke:#000000;stroke-linecap:butt;stroke-linejoin:miter;stroke-opacity:1" />
<path class="bond-1 atom-1 atom-2" d="M 24.2736,84.8368 L 33.756,90.3559" style="fill:none;fill-rule:evenodd;stroke:#000000;stroke-linecap:butt;stroke-linejoin:miter;stroke-opacity:1" />
<path class="bond-2 atom-2 atom-3" d="M 45.0307,90.4098 L 54.5761,84.9453" style="fill:none;fill-rule:evenodd;stroke:#000000;stroke-linecap:butt;stroke-linejoin:miter;stroke-opacity:1" />
<path class="bond-3 atom-3 atom-4" d="M 56.1507,84.9513 L 56.1931,73.797" style="fill:none;fill-rule:evenodd;stroke:#000000;stroke-linecap:butt;stroke-linejoin:miter;stroke-opacity:1" />
<path class="bond-3 atom-3 atom-4" d="M 53.0015,84.9393 L 53.0439,73.7851" style="fill:none;fill-rule:evenodd;stroke:#000000;stroke-linecap:butt;stroke-linejoin:miter;stroke-opacity:1" />
<path class="bond-4 atom-3 atom-5" d="M 54.5761,84.9453 L 69.6958,93.7456" style="fill:none;fill-rule:evenodd;stroke:#000000;stroke-linecap:butt;stroke-linejoin:miter;stroke-opacity:1" />
<path class="bond-5 atom-5 atom-6" d="M 69.6958,93.7456 L 84.882,85.0503" style="fill:none;fill-rule:evenodd;stroke:#000000;stroke-linecap:butt;stroke-linejoin:miter;stroke-opacity:1" />
<path class="bond-5 atom-5 atom-6" d="M 73.5386,95.1742 L 84.1689,89.0875" style="fill:none;fill-rule:evenodd;stroke:#000000;stroke-linecap:butt;stroke-linejoin:miter;stroke-opacity:1" />
<path class="bond-20 atom-20 atom-5" d="M 69.6363,111.241 L 69.6958,93.7456" style="fill:none;fill-rule:evenodd;stroke:#000000;stroke-linecap:butt;stroke-linejoin:miter;stroke-opacity:1" />
<path class="bond-6 atom-6 atom-7" d="M 84.882,85.0503 L 99.9982,93.8541" style="fill:none;fill-rule:evenodd;stroke:#000000;stroke-linecap:butt;stroke-linejoin:miter;stroke-opacity:1" />
<path class="bond-7 atom-7 atom-8" d="M 99.9982,93.8541 L 99.9388,111.35" style="fill:none;fill-rule:evenodd;stroke:#000000;stroke-linecap:butt;stroke-linejoin:miter;stroke-opacity:1" />
<path class="bond-7 atom-7 atom-8" d="M 96.8401,96.4677 L 96.7985,108.715" style="fill:none;fill-rule:evenodd;stroke:#000000;stroke-linecap:butt;stroke-linejoin:miter;stroke-opacity:1" />
<path class="bond-8 atom-8 atom-9" d="M 99.9388,111.35 L 110.325,117.397" style="fill:none;fill-rule:evenodd;stroke:#000000;stroke-linecap:butt;stroke-linejoin:miter;stroke-opacity:1" />
<path class="bond-18 atom-8 atom-19" d="M 99.9388,111.35 L 84.7525,120.045" style="fill:none;fill-rule:evenodd;stroke:#000000;stroke-linecap:butt;stroke-linejoin:miter;stroke-opacity:1" />
<path class="bond-9 atom-9 atom-10" d="M 119.792,117.443 L 130.241,111.458" style="fill:none;fill-rule:evenodd;stroke:#000000;stroke-linecap:butt;stroke-linejoin:miter;stroke-opacity:1" />
<path class="bond-9 atom-9 atom-10" d="M 119.794,113.812 L 127.109,109.623" style="fill:none;fill-rule:evenodd;stroke:#000000;stroke-linecap:butt;stroke-linejoin:miter;stroke-opacity:1" />
<path class="bond-10 atom-10 atom-11" d="M 130.241,111.458 L 140.628,117.506" style="fill:none;fill-rule:evenodd;stroke:#000000;stroke-linecap:butt;stroke-linejoin:miter;stroke-opacity:1" />
<path class="bond-11 atom-11 atom-12" d="M 145.339,126.363 L 145.298,137.758" style="fill:none;fill-rule:evenodd;stroke:#000000;stroke-linecap:butt;stroke-linejoin:miter;stroke-opacity:1" />
<path class="bond-12 atom-11 atom-13" d="M 150.094,117.551 L 160.544,111.567" style="fill:none;fill-rule:evenodd;stroke:#000000;stroke-linecap:butt;stroke-linejoin:miter;stroke-opacity:1" />
<path class="bond-13 atom-13 atom-14" d="M 160.544,111.567 L 160.607,94.071" style="fill:none;fill-rule:evenodd;stroke:#000000;stroke-linecap:butt;stroke-linejoin:miter;stroke-opacity:1" />
<path class="bond-13 atom-13 atom-14" d="M 163.702,108.954 L 163.746,96.7067" style="fill:none;fill-rule:evenodd;stroke:#000000;stroke-linecap:butt;stroke-linejoin:miter;stroke-opacity:1" />
<path class="bond-21 atom-18 atom-13" d="M 175.663,120.37 L 160.544,111.567" style="fill:none;fill-rule:evenodd;stroke:#000000;stroke-linecap:butt;stroke-linejoin:miter;stroke-opacity:1" />
<path class="bond-14 atom-14 atom-15" d="M 160.607,94.071 L 175.789,85.3792" style="fill:none;fill-rule:evenodd;stroke:#000000;stroke-linecap:butt;stroke-linejoin:miter;stroke-opacity:1" />
<path class="bond-15 atom-15 atom-16" d="M 175.789,85.3792 L 190.909,94.183" style="fill:none;fill-rule:evenodd;stroke:#000000;stroke-linecap:butt;stroke-linejoin:miter;stroke-opacity:1" />
<path class="bond-15 atom-15 atom-16" d="M 176.473,89.4212 L 187.056,95.5839" style="fill:none;fill-rule:evenodd;stroke:#000000;stroke-linecap:butt;stroke-linejoin:miter;stroke-opacity:1" />
<path class="bond-16 atom-16 atom-17" d="M 190.909,94.183 L 190.846,111.675" style="fill:none;fill-rule:evenodd;stroke:#000000;stroke-linecap:butt;stroke-linejoin:miter;stroke-opacity:1" />
<path class="bond-17 atom-17 atom-18" d="M 190.846,111.675 L 175.663,120.37" style="fill:none;fill-rule:evenodd;stroke:#000000;stroke-linecap:butt;stroke-linejoin:miter;stroke-opacity:1" />
<path class="bond-17 atom-17 atom-18" d="M 187.004,110.247 L 176.376,116.333" style="fill:none;fill-rule:evenodd;stroke:#000000;stroke-linecap:butt;stroke-linejoin:miter;stroke-opacity:1" />
<path class="bond-19 atom-19 atom-20" d="M 84.7525,120.045 L 69.6363,111.241" style="fill:none;fill-rule:evenodd;stroke:#000000;stroke-linecap:butt;stroke-linejoin:miter;stroke-opacity:1" />
<path class="bond-19 atom-19 atom-20" d="M 84.07,116.003 L 73.4887,109.84" style="fill:none;fill-rule:evenodd;stroke:#000000;stroke-linecap:butt;stroke-linejoin:miter;stroke-opacity:1" />
<path class="atom-2" d="M 34.1934 93.6691 Q 34.1934 90.9491, 35.5374 89.4291 Q 36.8814 87.9091, 39.3934 87.9091 Q 41.9054 87.9091, 43.2494 89.4291 Q 44.5934 90.9491, 44.5934 93.6691 Q 44.5934 96.4211, 43.2334 97.9891 Q 41.8734 99.5411, 39.3934 99.5411 Q 36.8974 99.5411, 35.5374 97.9891 Q 34.1934 96.4371, 34.1934 93.6691 M 39.3934 98.2611 Q 41.1214 98.2611, 42.0494 97.1091 Q 42.9934 95.9411, 42.9934 93.6691 Q 42.9934 91.4451, 42.0494 90.3251 Q 41.1214 89.1891, 39.3934 89.1891 Q 37.6654 89.1891, 36.7214 90.3091 Q 35.7934 91.4291, 35.7934 93.6691 Q 35.7934 95.9571, 36.7214 97.1091 Q 37.6654 98.2611, 39.3934 98.2611 " fill="#000000" />
<path class="atom-4" d="M 49.4426 67.4816 Q 49.4426 64.7616, 50.7866 63.2416 Q 52.1306 61.7216, 54.6426 61.7216 Q 57.1546 61.7216, 58.4986 63.2416 Q 59.8426 64.7616, 59.8426 67.4816 Q 59.8426 70.2336, 58.4826 71.8016 Q 57.1226 73.3536, 54.6426 73.3536 Q 52.1466 73.3536, 50.7866 71.8016 Q 49.4426 70.2496, 49.4426 67.4816 M 54.6426 72.0736 Q 56.3706 72.0736, 57.2986 70.9216 Q 58.2426 69.7536, 58.2426 67.4816 Q 58.2426 65.2576, 57.2986 64.1376 Q 56.3706 63.0016, 54.6426 63.0016 Q 52.9146 63.0016, 51.9706 64.1216 Q 51.0426 65.2416, 51.0426 67.4816 Q 51.0426 69.7696, 51.9706 70.9216 Q 52.9146 72.0736, 54.6426 72.0736 " fill="#000000" />
<path class="atom-9" d="M 112.554 114.49 L 116.266 120.49 Q 116.634 121.082, 117.226 122.154 Q 117.818 123.226, 117.85 123.29 L 117.85 114.49 L 119.354 114.49 L 119.354 125.818 L 117.802 125.818 L 113.818 119.258 Q 113.354 118.49, 112.858 117.61 Q 112.378 116.73, 112.234 116.458 L 112.234 125.818 L 110.762 125.818 L 110.762 114.49 L 112.554 114.49 " fill="#000000" />
<path class="atom-11" d="M 142.857 114.598 L 146.569 120.598 Q 146.937 121.19, 147.529 122.262 Q 148.121 123.334, 148.153 123.398 L 148.153 114.598 L 149.657 114.598 L 149.657 125.926 L 148.105 125.926 L 144.121 119.366 Q 143.657 118.598, 143.161 117.718 Q 142.681 116.838, 142.537 116.566 L 142.537 125.926 L 141.065 125.926 L 141.065 114.598 L 142.857 114.598 " fill="#000000" />
</svg></g></g>
   <g id="text_1">
    
    <g style="fill:#262626;" transform="translate(56.813063 29.7555)scale(0.12 -0.12)">
     <defs>
      <path d="M 19.671875 34.8125  L 19.671875 8.109375  L 35.5 8.109375  Q 43.453125 8.109375 47.28125 11.40625  Q 51.125 14.703125 51.125 21.484375  Q 51.125 28.328125 47.28125 31.5625  Q 43.453125 34.8125 35.5 34.8125  z M 19.671875 64.796875  L 19.671875 42.828125  L 34.28125 42.828125  Q 41.5 42.828125 45.03125 45.53125  Q 48.578125 48.25 48.578125 53.8125  Q 48.578125 59.328125 45.03125 62.0625  Q 41.5 64.796875 34.28125 64.796875  z M 9.8125 72.90625  L 35.015625 72.90625  Q 46.296875 72.90625 52.390625 68.21875  Q 58.5 63.53125 58.5 54.890625  Q 58.5 48.1875 55.375 44.234375  Q 52.25 40.28125 46.1875 39.3125  Q 53.46875 37.75 57.5 32.78125  Q 61.53125 27.828125 61.53125 20.40625  Q 61.53125 10.640625 54.890625 5.3125  Q 48.25 0 35.984375 0  L 9.8125 0  z " id="DejaVuSans-66" />
      <path d="M 34.28125 27.484375  Q 23.390625 27.484375 19.1875 25  Q 14.984375 22.515625 14.984375 16.5  Q 14.984375 11.71875 18.140625 8.90625  Q 21.296875 6.109375 26.703125 6.109375  Q 34.1875 6.109375 38.703125 11.40625  Q 43.21875 16.703125 43.21875 25.484375  L 43.21875 27.484375  z M 52.203125 31.203125  L 52.203125 0  L 43.21875 0  L 43.21875 8.296875  Q 40.140625 3.328125 35.546875 0.953125  Q 30.953125 -1.421875 24.3125 -1.421875  Q 15.921875 -1.421875 10.953125 3.296875  Q 6 8.015625 6 15.921875  Q 6 25.140625 12.171875 29.828125  Q 18.359375 34.515625 30.609375 34.515625  L 43.21875 34.515625  L 43.21875 35.40625  Q 43.21875 41.609375 39.140625 45  Q 35.0625 48.390625 27.6875 48.390625  Q 23 48.390625 18.546875 47.265625  Q 14.109375 46.140625 10.015625 43.890625  L 10.015625 52.203125  Q 14.9375 54.109375 19.578125 55.046875  Q 24.21875 56 28.609375 56  Q 40.484375 56 46.34375 49.84375  Q 52.203125 43.703125 52.203125 31.203125  z " id="DejaVuSans-97" />
      <path d="M 44.28125 53.078125  L 44.28125 44.578125  Q 40.484375 46.53125 36.375 47.5  Q 32.28125 48.484375 27.875 48.484375  Q 21.1875 48.484375 17.84375 46.4375  Q 14.5 44.390625 14.5 40.28125  Q 14.5 37.15625 16.890625 35.375  Q 19.28125 33.59375 26.515625 31.984375  L 29.59375 31.296875  Q 39.15625 29.25 43.1875 25.515625  Q 47.21875 21.78125 47.21875 15.09375  Q 47.21875 7.46875 41.1875 3.015625  Q 35.15625 -1.421875 24.609375 -1.421875  Q 20.21875 -1.421875 15.453125 -0.5625  Q 10.6875 0.296875 5.421875 2  L 5.421875 11.28125  Q 10.40625 8.6875 15.234375 7.390625  Q 20.0625 6.109375 24.8125 6.109375  Q 31.15625 6.109375 34.5625 8.28125  Q 37.984375 10.453125 37.984375 14.40625  Q 37.984375 18.0625 35.515625 20.015625  Q 33.0625 21.96875 24.703125 23.78125  L 21.578125 24.515625  Q 13.234375 26.265625 9.515625 29.90625  Q 5.8125 33.546875 5.8125 39.890625  Q 5.8125 47.609375 11.28125 51.796875  Q 16.75 56 26.8125 56  Q 31.78125 56 36.171875 55.265625  Q 40.578125 54.546875 44.28125 53.078125  z " id="DejaVuSans-115" />
      <path d="M 56.203125 29.59375  L 56.203125 25.203125  L 14.890625 25.203125  Q 15.484375 15.921875 20.484375 11.0625  Q 25.484375 6.203125 34.421875 6.203125  Q 39.59375 6.203125 44.453125 7.46875  Q 49.3125 8.734375 54.109375 11.28125  L 54.109375 2.78125  Q 49.265625 0.734375 44.1875 -0.34375  Q 39.109375 -1.421875 33.890625 -1.421875  Q 20.796875 -1.421875 13.15625 6.1875  Q 5.515625 13.8125 5.515625 26.8125  Q 5.515625 40.234375 12.765625 48.109375  Q 20.015625 56 32.328125 56  Q 43.359375 56 49.78125 48.890625  Q 56.203125 41.796875 56.203125 29.59375  z M 47.21875 32.234375  Q 47.125 39.59375 43.09375 43.984375  Q 39.0625 48.390625 32.421875 48.390625  Q 24.90625 48.390625 20.390625 44.140625  Q 15.875 39.890625 15.1875 32.171875  z " id="DejaVuSans-101" />
     </defs>
     <use ns4:href="#DejaVuSans-66" />
     <use x="68.603516" ns4:href="#DejaVuSans-97" />
     <use x="129.882812" ns4:href="#DejaVuSans-115" />
     <use x="181.982422" ns4:href="#DejaVuSans-101" />
    </g>
    
    <g style="fill:#262626;" transform="translate(32.895563 43.192875)scale(0.12 -0.12)">
     <defs>
      <path d="M 37.109375 75.984375  L 37.109375 68.5  L 28.515625 68.5  Q 23.6875 68.5 21.796875 66.546875  Q 19.921875 64.59375 19.921875 59.515625  L 19.921875 54.6875  L 34.71875 54.6875  L 34.71875 47.703125  L 19.921875 47.703125  L 19.921875 0  L 10.890625 0  L 10.890625 47.703125  L 2.296875 47.703125  L 2.296875 54.6875  L 10.890625 54.6875  L 10.890625 58.5  Q 10.890625 67.625 15.140625 71.796875  Q 19.390625 75.984375 28.609375 75.984375  z " id="DejaVuSans-102" />
      <path d="M 31 75.875  Q 24.46875 64.65625 21.28125 53.65625  Q 18.109375 42.671875 18.109375 31.390625  Q 18.109375 20.125 21.3125 9.0625  Q 24.515625 -2 31 -13.1875  L 23.1875 -13.1875  Q 15.875 -1.703125 12.234375 9.375  Q 8.59375 20.453125 8.59375 31.390625  Q 8.59375 42.28125 12.203125 53.3125  Q 15.828125 64.359375 23.1875 75.875  z " id="DejaVuSans-40" />
      <path d="M 54.890625 54.6875  L 35.109375 28.078125  L 55.90625 0  L 45.3125 0  L 29.390625 21.484375  L 13.484375 0  L 2.875 0  L 24.125 28.609375  L 4.6875 54.6875  L 15.28125 54.6875  L 29.78125 35.203125  L 44.28125 54.6875  z " id="DejaVuSans-120" />
      <path d="M 8.015625 75.875  L 15.828125 75.875  Q 23.140625 64.359375 26.78125 53.3125  Q 30.421875 42.28125 30.421875 31.390625  Q 30.421875 20.453125 26.78125 9.375  Q 23.140625 -1.703125 15.828125 -13.1875  L 8.015625 -13.1875  Q 14.5 -2 17.703125 9.0625  Q 20.90625 20.125 20.90625 31.390625  Q 20.90625 42.671875 17.703125 53.65625  Q 14.5 64.65625 8.015625 75.875  z " id="DejaVuSans-41" />
      <path id="DejaVuSans-32" />
      <path d="M 10.59375 45.40625  L 73.1875 45.40625  L 73.1875 37.203125  L 10.59375 37.203125  z M 10.59375 25.484375  L 73.1875 25.484375  L 73.1875 17.1875  L 10.59375 17.1875  z " id="DejaVuSans-61" />
      <path d="M 4.890625 31.390625  L 31.203125 31.390625  L 31.203125 23.390625  L 4.890625 23.390625  z " id="DejaVuSans-45" />
      <path d="M 40.578125 39.3125  Q 47.65625 37.796875 51.625 33  Q 55.609375 28.21875 55.609375 21.1875  Q 55.609375 10.40625 48.1875 4.484375  Q 40.765625 -1.421875 27.09375 -1.421875  Q 22.515625 -1.421875 17.65625 -0.515625  Q 12.796875 0.390625 7.625 2.203125  L 7.625 11.71875  Q 11.71875 9.328125 16.59375 8.109375  Q 21.484375 6.890625 26.8125 6.890625  Q 36.078125 6.890625 40.9375 10.546875  Q 45.796875 14.203125 45.796875 21.1875  Q 45.796875 27.640625 41.28125 31.265625  Q 36.765625 34.90625 28.71875 34.90625  L 20.21875 34.90625  L 20.21875 43.015625  L 29.109375 43.015625  Q 36.375 43.015625 40.234375 45.921875  Q 44.09375 48.828125 44.09375 54.296875  Q 44.09375 59.90625 40.109375 62.90625  Q 36.140625 65.921875 28.71875 65.921875  Q 24.65625 65.921875 20.015625 65.03125  Q 15.375 64.15625 9.8125 62.3125  L 9.8125 71.09375  Q 15.4375 72.65625 20.34375 73.4375  Q 25.25 74.21875 29.59375 74.21875  Q 40.828125 74.21875 47.359375 69.109375  Q 53.90625 64.015625 53.90625 55.328125  Q 53.90625 49.265625 50.4375 45.09375  Q 46.96875 40.921875 40.578125 39.3125  z " id="DejaVuSans-51" />
      <path d="M 10.6875 12.40625  L 21 12.40625  L 21 0  L 10.6875 0  z " id="DejaVuSans-46" />
      <path d="M 10.796875 72.90625  L 49.515625 72.90625  L 49.515625 64.59375  L 19.828125 64.59375  L 19.828125 46.734375  Q 21.96875 47.46875 24.109375 47.828125  Q 26.265625 48.1875 28.421875 48.1875  Q 40.625 48.1875 47.75 41.5  Q 54.890625 34.8125 54.890625 23.390625  Q 54.890625 11.625 47.5625 5.09375  Q 40.234375 -1.421875 26.90625 -1.421875  Q 22.3125 -1.421875 17.546875 -0.640625  Q 12.796875 0.140625 7.71875 1.703125  L 7.71875 11.625  Q 12.109375 9.234375 16.796875 8.0625  Q 21.484375 6.890625 26.703125 6.890625  Q 35.15625 6.890625 40.078125 11.328125  Q 45.015625 15.765625 45.015625 23.390625  Q 45.015625 31 40.078125 35.4375  Q 35.15625 39.890625 26.703125 39.890625  Q 22.75 39.890625 18.8125 39.015625  Q 14.890625 38.140625 10.796875 36.28125  z " id="DejaVuSans-53" />
      <path d="M 10.984375 1.515625  L 10.984375 10.5  Q 14.703125 8.734375 18.5 7.8125  Q 22.3125 6.890625 25.984375 6.890625  Q 35.75 6.890625 40.890625 13.453125  Q 46.046875 20.015625 46.78125 33.40625  Q 43.953125 29.203125 39.59375 26.953125  Q 35.25 24.703125 29.984375 24.703125  Q 19.046875 24.703125 12.671875 31.3125  Q 6.296875 37.9375 6.296875 49.421875  Q 6.296875 60.640625 12.9375 67.421875  Q 19.578125 74.21875 30.609375 74.21875  Q 43.265625 74.21875 49.921875 64.515625  Q 56.59375 54.828125 56.59375 36.375  Q 56.59375 19.140625 48.40625 8.859375  Q 40.234375 -1.421875 26.421875 -1.421875  Q 22.703125 -1.421875 18.890625 -0.6875  Q 15.09375 0.046875 10.984375 1.515625  z M 30.609375 32.421875  Q 37.25 32.421875 41.125 36.953125  Q 45.015625 41.5 45.015625 49.421875  Q 45.015625 57.28125 41.125 61.84375  Q 37.25 66.40625 30.609375 66.40625  Q 23.96875 66.40625 20.09375 61.84375  Q 16.21875 57.28125 16.21875 49.421875  Q 16.21875 41.5 20.09375 36.953125  Q 23.96875 32.421875 30.609375 32.421875  z " id="DejaVuSans-57" />
     </defs>
     <use ns4:href="#DejaVuSans-102" />
     <use x="35.205078" ns4:href="#DejaVuSans-40" />
     <use x="74.21875" ns4:href="#DejaVuSans-120" />
     <use x="133.398438" ns4:href="#DejaVuSans-41" />
     <use x="172.412109" ns4:href="#DejaVuSans-32" />
     <use x="204.199219" ns4:href="#DejaVuSans-61" />
     <use x="287.988281" ns4:href="#DejaVuSans-32" />
     <use x="319.775391" ns4:href="#DejaVuSans-45" />
     <use x="355.859375" ns4:href="#DejaVuSans-51" />
     <use x="419.482422" ns4:href="#DejaVuSans-46" />
     <use x="451.269531" ns4:href="#DejaVuSans-53" />
     <use x="514.892578" ns4:href="#DejaVuSans-57" />
     <use x="578.515625" ns4:href="#DejaVuSans-53" />
    </g>
   </g>
  </g>
  <g id="axes_2">
   <g clip-path="url(#p61be8da2d5)">
    <g id="rdkit-img-1-g"><svg baseProfile="full" height="115.0" version="1.1" viewBox="0 0 200 200" width="129.0" x="148.608" y="48.368875" xml:space="preserve">

<rect height="200" style="opacity:1.0;fill:#FFFFFF;stroke:none" width="200" x="0" y="0"> </rect>
<path d="M 45.1469,87.0578 L 31.866,94.6609" style="fill:none;fill-rule:evenodd;stroke:#1BBC9B;stroke-width:4.9px;stroke-linecap:butt;stroke-linejoin:miter;stroke-opacity:1" />
<ellipse cx="45.1469" cy="87.0578" rx="4.59122" ry="4.59122" style="fill:#1BBC9B;fill-rule:evenodd;stroke:#1BBC9B;stroke-width:1.0px;stroke-linecap:butt;stroke-linejoin:miter;stroke-opacity:1" />
<ellipse cx="23.9875" cy="97.4929" rx="17.2174" ry="12.0152" style="fill:#1BBC9B;fill-rule:evenodd;stroke:#1BBC9B;stroke-width:1.0px;stroke-linecap:butt;stroke-linejoin:miter;stroke-opacity:1" />
<path class="bond-0 atom-0 atom-1" d="M 151.011,133.35 L 151.045,124.092" style="fill:none;fill-rule:evenodd;stroke:#000000;stroke-linecap:butt;stroke-linejoin:miter;stroke-opacity:1" />
<path class="bond-1 atom-1 atom-2" d="M 146.388,115.321 L 137.841,110.345" style="fill:none;fill-rule:evenodd;stroke:#000000;stroke-linecap:butt;stroke-linejoin:miter;stroke-opacity:1" />
<path class="bond-14 atom-1 atom-15" d="M 155.745,115.366 L 164.347,110.439" style="fill:none;fill-rule:evenodd;stroke:#000000;stroke-linecap:butt;stroke-linejoin:miter;stroke-opacity:1" />
<path class="bond-2 atom-2 atom-3" d="M 137.841,110.345 L 129.238,115.271" style="fill:none;fill-rule:evenodd;stroke:#000000;stroke-linecap:butt;stroke-linejoin:miter;stroke-opacity:1" />
<path class="bond-2 atom-2 atom-3" d="M 137.919,113.474 L 131.898,116.923" style="fill:none;fill-rule:evenodd;stroke:#000000;stroke-linecap:butt;stroke-linejoin:miter;stroke-opacity:1" />
<path class="bond-3 atom-3 atom-4" d="M 119.881,115.226 L 111.334,110.25" style="fill:none;fill-rule:evenodd;stroke:#000000;stroke-linecap:butt;stroke-linejoin:miter;stroke-opacity:1" />
<path class="bond-4 atom-4 atom-5" d="M 111.334,110.25 L 111.386,94.9456" style="fill:none;fill-rule:evenodd;stroke:#000000;stroke-linecap:butt;stroke-linejoin:miter;stroke-opacity:1" />
<path class="bond-4 atom-4 atom-5" d="M 108.587,107.945 L 108.623,97.2318" style="fill:none;fill-rule:evenodd;stroke:#000000;stroke-linecap:butt;stroke-linejoin:miter;stroke-opacity:1" />
<path class="bond-20 atom-14 atom-4" d="M 98.05,117.856 L 111.334,110.25" style="fill:none;fill-rule:evenodd;stroke:#000000;stroke-linecap:butt;stroke-linejoin:miter;stroke-opacity:1" />
<path class="bond-5 atom-5 atom-6" d="M 111.386,94.9456 L 98.1633,87.2446" style="fill:none;fill-rule:evenodd;stroke:#000000;stroke-linecap:butt;stroke-linejoin:miter;stroke-opacity:1" />
<path class="bond-6 atom-6 atom-7" d="M 98.1633,87.2446 L 84.8794,94.8507" style="fill:none;fill-rule:evenodd;stroke:#000000;stroke-linecap:butt;stroke-linejoin:miter;stroke-opacity:1" />
<path class="bond-6 atom-6 atom-7" d="M 97.5395,90.7761 L 88.2408,96.1004" style="fill:none;fill-rule:evenodd;stroke:#000000;stroke-linecap:butt;stroke-linejoin:miter;stroke-opacity:1" />
<path class="bond-7 atom-7 atom-8" d="M 84.8794,94.8507 L 71.6536,87.1527" style="fill:none;fill-rule:evenodd;stroke:#000000;stroke-linecap:butt;stroke-linejoin:miter;stroke-opacity:1" />
<path class="bond-12 atom-7 atom-13" d="M 84.8794,94.8507 L 84.8273,110.155" style="fill:none;fill-rule:evenodd;stroke:#000000;stroke-linecap:butt;stroke-linejoin:miter;stroke-opacity:1" />
<path class="bond-8 atom-8 atom-9" d="M 73.0309,87.158 L 73.0652,78.1405" style="fill:none;fill-rule:evenodd;stroke:#000000;stroke-linecap:butt;stroke-linejoin:miter;stroke-opacity:1" />
<path class="bond-8 atom-8 atom-9" d="M 70.2762,87.1475 L 70.3105,78.13" style="fill:none;fill-rule:evenodd;stroke:#000000;stroke-linecap:butt;stroke-linejoin:miter;stroke-opacity:1" />
<path class="bond-9 atom-8 atom-10" d="M 71.6536,87.1527 L 63.9553,91.5599" style="fill:none;fill-rule:evenodd;stroke:#000000;stroke-linecap:butt;stroke-linejoin:miter;stroke-opacity:1" />
<path class="bond-10 atom-10 atom-11" d="M 52.7901,91.5065 L 45.1469,87.0578" style="fill:none;fill-rule:evenodd;stroke:#000000;stroke-linecap:butt;stroke-linejoin:miter;stroke-opacity:1" />
<path class="bond-11 atom-11 atom-12" d="M 45.1469,87.0578 L 36.5446,91.9825" style="fill:none;fill-rule:evenodd;stroke:#000000;stroke-linecap:butt;stroke-linejoin:miter;stroke-opacity:1" />
<path class="bond-13 atom-13 atom-14" d="M 84.8273,110.155 L 98.05,117.856" style="fill:none;fill-rule:evenodd;stroke:#000000;stroke-linecap:butt;stroke-linejoin:miter;stroke-opacity:1" />
<path class="bond-13 atom-13 atom-14" d="M 88.1971,108.929 L 97.453,114.32" style="fill:none;fill-rule:evenodd;stroke:#000000;stroke-linecap:butt;stroke-linejoin:miter;stroke-opacity:1" />
<path class="bond-15 atom-15 atom-16" d="M 164.347,110.439 L 164.402,95.1353" style="fill:none;fill-rule:evenodd;stroke:#000000;stroke-linecap:butt;stroke-linejoin:miter;stroke-opacity:1" />
<path class="bond-15 atom-15 atom-16" d="M 167.11,108.154 L 167.149,97.4409" style="fill:none;fill-rule:evenodd;stroke:#000000;stroke-linecap:butt;stroke-linejoin:miter;stroke-opacity:1" />
<path class="bond-21 atom-20 atom-15" d="M 177.573,118.14 L 164.347,110.439" style="fill:none;fill-rule:evenodd;stroke:#000000;stroke-linecap:butt;stroke-linejoin:miter;stroke-opacity:1" />
<path class="bond-16 atom-16 atom-17" d="M 164.402,95.1353 L 177.683,87.5323" style="fill:none;fill-rule:evenodd;stroke:#000000;stroke-linecap:butt;stroke-linejoin:miter;stroke-opacity:1" />
<path class="bond-17 atom-17 atom-18" d="M 177.683,87.5323 L 190.909,95.2333" style="fill:none;fill-rule:evenodd;stroke:#000000;stroke-linecap:butt;stroke-linejoin:miter;stroke-opacity:1" />
<path class="bond-17 atom-17 atom-18" d="M 178.281,91.068 L 187.539,96.4587" style="fill:none;fill-rule:evenodd;stroke:#000000;stroke-linecap:butt;stroke-linejoin:miter;stroke-opacity:1" />
<path class="bond-18 atom-18 atom-19" d="M 190.909,95.2333 L 190.854,110.534" style="fill:none;fill-rule:evenodd;stroke:#000000;stroke-linecap:butt;stroke-linejoin:miter;stroke-opacity:1" />
<path class="bond-19 atom-19 atom-20" d="M 190.854,110.534 L 177.573,118.14" style="fill:none;fill-rule:evenodd;stroke:#000000;stroke-linecap:butt;stroke-linejoin:miter;stroke-opacity:1" />
<path class="bond-19 atom-19 atom-20" d="M 187.493,109.285 L 178.196,114.609" style="fill:none;fill-rule:evenodd;stroke:#000000;stroke-linecap:butt;stroke-linejoin:miter;stroke-opacity:1" />
<path class="atom-1" d="M 148.562 112.382 L 152.274 118.382 Q 152.642 118.974, 153.234 120.046 Q 153.826 121.118, 153.858 121.182 L 153.858 112.382 L 155.362 112.382 L 155.362 123.71 L 153.81 123.71 L 149.826 117.15 Q 149.362 116.382, 148.866 115.502 Q 148.386 114.622, 148.242 114.35 L 148.242 123.71 L 146.77 123.71 L 146.77 112.382 L 148.562 112.382 " fill="#000000" />
<path class="atom-3" d="M 122.056 112.287 L 125.768 118.287 Q 126.136 118.879, 126.728 119.951 Q 127.32 121.023, 127.352 121.087 L 127.352 112.287 L 128.856 112.287 L 128.856 123.615 L 127.304 123.615 L 123.32 117.055 Q 122.856 116.287, 122.36 115.407 Q 121.88 114.527, 121.736 114.255 L 121.736 123.615 L 120.264 123.615 L 120.264 112.287 L 122.056 112.287 " fill="#000000" />
<path class="atom-9" d="M 66.5117 71.8806 Q 66.5117 69.1606, 67.8557 67.6406 Q 69.1997 66.1206, 71.7117 66.1206 Q 74.2237 66.1206, 75.5677 67.6406 Q 76.9117 69.1606, 76.9117 71.8806 Q 76.9117 74.6326, 75.5517 76.2006 Q 74.1917 77.7526, 71.7117 77.7526 Q 69.2157 77.7526, 67.8557 76.2006 Q 66.5117 74.6486, 66.5117 71.8806 M 71.7117 76.4726 Q 73.4397 76.4726, 74.3677 75.3206 Q 75.3117 74.1526, 75.3117 71.8806 Q 75.3117 69.6566, 74.3677 68.5366 Q 73.4397 67.4006, 71.7117 67.4006 Q 69.9837 67.4006, 69.0397 68.5206 Q 68.1117 69.6406, 68.1117 71.8806 Q 68.1117 74.1686, 69.0397 75.3206 Q 69.9837 76.4726, 71.7117 76.4726 " fill="#000000" />
<path class="atom-10" d="M 53.1727 94.7878 Q 53.1727 92.0678, 54.5167 90.5478 Q 55.8607 89.0278, 58.3727 89.0278 Q 60.8847 89.0278, 62.2287 90.5478 Q 63.5727 92.0678, 63.5727 94.7878 Q 63.5727 97.5398, 62.2127 99.1078 Q 60.8527 100.66, 58.3727 100.66 Q 55.8767 100.66, 54.5167 99.1078 Q 53.1727 97.5558, 53.1727 94.7878 M 58.3727 99.3798 Q 60.1007 99.3798, 61.0287 98.2278 Q 61.9727 97.0598, 61.9727 94.7878 Q 61.9727 92.5638, 61.0287 91.4438 Q 60.1007 90.3078, 58.3727 90.3078 Q 56.6447 90.3078, 55.7007 91.4278 Q 54.7727 92.5478, 54.7727 94.7878 Q 54.7727 97.0758, 55.7007 98.2278 Q 56.6447 99.3798, 58.3727 99.3798 " fill="#000000" />
<path class="atom-12" d="M 11.8129 88.9969 L 13.3489 88.9969 L 13.3489 93.8129 L 19.1409 93.8129 L 19.1409 88.9969 L 20.6769 88.9969 L 20.6769 100.325 L 19.1409 100.325 L 19.1409 95.0929 L 13.3489 95.0929 L 13.3489 100.325 L 11.8129 100.325 L 11.8129 88.9969 " fill="#000000" />
<path class="atom-12" d="M 21.226 99.9275 Q 21.5006 99.2199, 22.1553 98.8292 Q 22.81 98.4279, 23.7182 98.4279 Q 24.8481 98.4279, 25.4817 99.0404 Q 26.1153 99.6529, 26.1153 100.741 Q 26.1153 101.849, 25.2916 102.884 Q 24.4785 103.919, 22.7889 105.144 L 26.242 105.144 L 26.242 105.989 L 21.2049 105.989 L 21.2049 105.281 Q 22.5988 104.289, 23.4225 103.55 Q 24.2567 102.81, 24.658 102.145 Q 25.0593 101.48, 25.0593 100.793 Q 25.0593 100.075, 24.7003 99.674 Q 24.3412 99.2727, 23.7182 99.2727 Q 23.1163 99.2727, 22.715 99.5156 Q 22.3137 99.7585, 22.0286 100.297 L 21.226 99.9275 " fill="#000000" />
<path class="atom-12" d="M 29.362 88.9969 L 33.074 94.9969 Q 33.442 95.5889, 34.034 96.6609 Q 34.626 97.7329, 34.658 97.7969 L 34.658 88.9969 L 36.162 88.9969 L 36.162 100.325 L 34.61 100.325 L 30.626 93.7649 Q 30.162 92.9969, 29.666 92.1169 Q 29.186 91.2369, 29.042 90.9649 L 29.042 100.325 L 27.57 100.325 L 27.57 88.9969 L 29.362 88.9969 " fill="#000000" />
</svg></g></g>
   <g id="text_2">
    
    <g style="fill:#262626;" transform="translate(162.26325 16.318125)scale(0.12 -0.12)">
     <defs>
      <path d="M 53.515625 70.515625  L 53.515625 60.890625  Q 47.90625 63.578125 42.921875 64.890625  Q 37.9375 66.21875 33.296875 66.21875  Q 25.25 66.21875 20.875 63.09375  Q 16.5 59.96875 16.5 54.203125  Q 16.5 49.359375 19.40625 46.890625  Q 22.3125 44.4375 30.421875 42.921875  L 36.375 41.703125  Q 47.40625 39.59375 52.65625 34.296875  Q 57.90625 29 57.90625 20.125  Q 57.90625 9.515625 50.796875 4.046875  Q 43.703125 -1.421875 29.984375 -1.421875  Q 24.8125 -1.421875 18.96875 -0.25  Q 13.140625 0.921875 6.890625 3.21875  L 6.890625 13.375  Q 12.890625 10.015625 18.65625 8.296875  Q 24.421875 6.59375 29.984375 6.59375  Q 38.421875 6.59375 43.015625 9.90625  Q 47.609375 13.234375 47.609375 19.390625  Q 47.609375 24.75 44.3125 27.78125  Q 41.015625 30.8125 33.5 32.328125  L 27.484375 33.5  Q 16.453125 35.6875 11.515625 40.375  Q 6.59375 45.0625 6.59375 53.421875  Q 6.59375 63.09375 13.40625 68.65625  Q 20.21875 74.21875 32.171875 74.21875  Q 37.3125 74.21875 42.625 73.28125  Q 47.953125 72.359375 53.515625 70.515625  z " id="DejaVuSans-83" />
      <path d="M 9.421875 54.6875  L 18.40625 54.6875  L 18.40625 0  L 9.421875 0  z M 9.421875 75.984375  L 18.40625 75.984375  L 18.40625 64.59375  L 9.421875 64.59375  z " id="DejaVuSans-105" />
      <path d="M 52 44.1875  Q 55.375 50.25 60.0625 53.125  Q 64.75 56 71.09375 56  Q 79.640625 56 84.28125 50.015625  Q 88.921875 44.046875 88.921875 33.015625  L 88.921875 0  L 79.890625 0  L 79.890625 32.71875  Q 79.890625 40.578125 77.09375 44.375  Q 74.3125 48.1875 68.609375 48.1875  Q 61.625 48.1875 57.5625 43.546875  Q 53.515625 38.921875 53.515625 30.90625  L 53.515625 0  L 44.484375 0  L 44.484375 32.71875  Q 44.484375 40.625 41.703125 44.40625  Q 38.921875 48.1875 33.109375 48.1875  Q 26.21875 48.1875 22.15625 43.53125  Q 18.109375 38.875 18.109375 30.90625  L 18.109375 0  L 9.078125 0  L 9.078125 54.6875  L 18.109375 54.6875  L 18.109375 46.1875  Q 21.1875 51.21875 25.484375 53.609375  Q 29.78125 56 35.6875 56  Q 41.65625 56 45.828125 52.96875  Q 50 49.953125 52 44.1875  z " id="DejaVuSans-109" />
      <path d="M 9.421875 75.984375  L 18.40625 75.984375  L 18.40625 0  L 9.421875 0  z " id="DejaVuSans-108" />
      <path d="M 41.109375 46.296875  Q 39.59375 47.171875 37.8125 47.578125  Q 36.03125 48 33.890625 48  Q 26.265625 48 22.1875 43.046875  Q 18.109375 38.09375 18.109375 28.8125  L 18.109375 0  L 9.078125 0  L 9.078125 54.6875  L 18.109375 54.6875  L 18.109375 46.1875  Q 20.953125 51.171875 25.484375 53.578125  Q 30.03125 56 36.53125 56  Q 37.453125 56 38.578125 55.875  Q 39.703125 55.765625 41.0625 55.515625  z " id="DejaVuSans-114" />
      <path d="M 18.3125 70.21875  L 18.3125 54.6875  L 36.8125 54.6875  L 36.8125 47.703125  L 18.3125 47.703125  L 18.3125 18.015625  Q 18.3125 11.328125 20.140625 9.421875  Q 21.96875 7.515625 27.59375 7.515625  L 36.8125 7.515625  L 36.8125 0  L 27.59375 0  Q 17.1875 0 13.234375 3.875  Q 9.28125 7.765625 9.28125 18.015625  L 9.28125 47.703125  L 2.6875 47.703125  L 2.6875 54.6875  L 9.28125 54.6875  L 9.28125 70.21875  z " id="DejaVuSans-116" />
      <path d="M 32.171875 -5.078125  Q 28.375 -14.84375 24.75 -17.8125  Q 21.140625 -20.796875 15.09375 -20.796875  L 7.90625 -20.796875  L 7.90625 -13.28125  L 13.1875 -13.28125  Q 16.890625 -13.28125 18.9375 -11.515625  Q 21 -9.765625 23.484375 -3.21875  L 25.09375 0.875  L 2.984375 54.6875  L 12.5 54.6875  L 29.59375 11.921875  L 46.6875 54.6875  L 56.203125 54.6875  z " id="DejaVuSans-121" />
      <path d="M 31.78125 66.40625  Q 24.171875 66.40625 20.328125 58.90625  Q 16.5 51.421875 16.5 36.375  Q 16.5 21.390625 20.328125 13.890625  Q 24.171875 6.390625 31.78125 6.390625  Q 39.453125 6.390625 43.28125 13.890625  Q 47.125 21.390625 47.125 36.375  Q 47.125 51.421875 43.28125 58.90625  Q 39.453125 66.40625 31.78125 66.40625  z M 31.78125 74.21875  Q 44.046875 74.21875 50.515625 64.515625  Q 56.984375 54.828125 56.984375 36.375  Q 56.984375 17.96875 50.515625 8.265625  Q 44.046875 -1.421875 31.78125 -1.421875  Q 19.53125 -1.421875 13.0625 8.265625  Q 6.59375 17.96875 6.59375 36.375  Q 6.59375 54.828125 13.0625 64.515625  Q 19.53125 74.21875 31.78125 74.21875  z " id="DejaVuSans-48" />
      <path d="M 31.78125 34.625  Q 24.75 34.625 20.71875 30.859375  Q 16.703125 27.09375 16.703125 20.515625  Q 16.703125 13.921875 20.71875 10.15625  Q 24.75 6.390625 31.78125 6.390625  Q 38.8125 6.390625 42.859375 10.171875  Q 46.921875 13.96875 46.921875 20.515625  Q 46.921875 27.09375 42.890625 30.859375  Q 38.875 34.625 31.78125 34.625  z M 21.921875 38.8125  Q 15.578125 40.375 12.03125 44.71875  Q 8.5 49.078125 8.5 55.328125  Q 8.5 64.0625 14.71875 69.140625  Q 20.953125 74.21875 31.78125 74.21875  Q 42.671875 74.21875 48.875 69.140625  Q 55.078125 64.0625 55.078125 55.328125  Q 55.078125 49.078125 51.53125 44.71875  Q 48 40.375 41.703125 38.8125  Q 48.828125 37.15625 52.796875 32.3125  Q 56.78125 27.484375 56.78125 20.515625  Q 56.78125 9.90625 50.3125 4.234375  Q 43.84375 -1.421875 31.78125 -1.421875  Q 19.734375 -1.421875 13.25 4.234375  Q 6.78125 9.90625 6.78125 20.515625  Q 6.78125 27.484375 10.78125 32.3125  Q 14.796875 37.15625 21.921875 38.8125  z M 18.3125 54.390625  Q 18.3125 48.734375 21.84375 45.5625  Q 25.390625 42.390625 31.78125 42.390625  Q 38.140625 42.390625 41.71875 45.5625  Q 45.3125 48.734375 45.3125 54.390625  Q 45.3125 60.0625 41.71875 63.234375  Q 38.140625 66.40625 31.78125 66.40625  Q 25.390625 66.40625 21.84375 63.234375  Q 18.3125 60.0625 18.3125 54.390625  z " id="DejaVuSans-56" />
     </defs>
     <use ns4:href="#DejaVuSans-83" />
     <use x="63.476562" ns4:href="#DejaVuSans-105" />
     <use x="91.259766" ns4:href="#DejaVuSans-109" />
     <use x="188.671875" ns4:href="#DejaVuSans-105" />
     <use x="216.455078" ns4:href="#DejaVuSans-108" />
     <use x="244.238281" ns4:href="#DejaVuSans-97" />
     <use x="305.517578" ns4:href="#DejaVuSans-114" />
     <use x="346.630859" ns4:href="#DejaVuSans-105" />
     <use x="374.414062" ns4:href="#DejaVuSans-116" />
     <use x="413.623047" ns4:href="#DejaVuSans-121" />
     <use x="472.802734" ns4:href="#DejaVuSans-32" />
     <use x="504.589844" ns4:href="#DejaVuSans-61" />
     <use x="588.378906" ns4:href="#DejaVuSans-32" />
     <use x="620.166016" ns4:href="#DejaVuSans-48" />
     <use x="683.789062" ns4:href="#DejaVuSans-46" />
     <use x="715.576172" ns4:href="#DejaVuSans-56" />
     <use x="779.199219" ns4:href="#DejaVuSans-53" />
    </g>
    
    <g style="fill:#262626;" transform="translate(174.297 29.7555)scale(0.12 -0.12)">
     <defs>
      <path d="M 19.671875 64.796875  L 19.671875 8.109375  L 31.59375 8.109375  Q 46.6875 8.109375 53.6875 14.9375  Q 60.6875 21.78125 60.6875 36.53125  Q 60.6875 51.171875 53.6875 57.984375  Q 46.6875 64.796875 31.59375 64.796875  z M 9.8125 72.90625  L 30.078125 72.90625  Q 51.265625 72.90625 61.171875 64.09375  Q 71.09375 55.28125 71.09375 36.53125  Q 71.09375 17.671875 61.125 8.828125  Q 51.171875 0 30.078125 0  L 9.8125 0  z " id="DejaVuSans-68" />
      <path d="M 48.78125 52.59375  L 48.78125 44.1875  Q 44.96875 46.296875 41.140625 47.34375  Q 37.3125 48.390625 33.40625 48.390625  Q 24.65625 48.390625 19.8125 42.84375  Q 14.984375 37.3125 14.984375 27.296875  Q 14.984375 17.28125 19.8125 11.734375  Q 24.65625 6.203125 33.40625 6.203125  Q 37.3125 6.203125 41.140625 7.25  Q 44.96875 8.296875 48.78125 10.40625  L 48.78125 2.09375  Q 45.015625 0.34375 40.984375 -0.53125  Q 36.96875 -1.421875 32.421875 -1.421875  Q 20.0625 -1.421875 12.78125 6.34375  Q 5.515625 14.109375 5.515625 27.296875  Q 5.515625 40.671875 12.859375 48.328125  Q 20.21875 56 33.015625 56  Q 37.15625 56 41.109375 55.140625  Q 45.0625 54.296875 48.78125 52.59375  z " id="DejaVuSans-99" />
      <path d="M 12.40625 8.296875  L 28.515625 8.296875  L 28.515625 63.921875  L 10.984375 60.40625  L 10.984375 69.390625  L 28.421875 72.90625  L 38.28125 72.90625  L 38.28125 8.296875  L 54.390625 8.296875  L 54.390625 0  L 12.40625 0  z " id="DejaVuSans-49" />
     </defs>
     <use ns4:href="#DejaVuSans-68" />
     <use x="77.001953" ns4:href="#DejaVuSans-101" />
     <use x="138.525391" ns4:href="#DejaVuSans-99" />
     <use x="193.505859" ns4:href="#DejaVuSans-114" />
     <use x="232.369141" ns4:href="#DejaVuSans-101" />
     <use x="293.892578" ns4:href="#DejaVuSans-97" />
     <use x="355.171875" ns4:href="#DejaVuSans-115" />
     <use x="407.271484" ns4:href="#DejaVuSans-101" />
     <use x="468.794922" ns4:href="#DejaVuSans-32" />
     <use x="500.582031" ns4:href="#DejaVuSans-40" />
     <use x="539.595703" ns4:href="#DejaVuSans-49" />
     <use x="603.21875" ns4:href="#DejaVuSans-41" />
    </g>
    
    <g style="fill:#262626;" transform="translate(174.303562 43.192875)scale(0.12 -0.12)">
     <defs>
      <path d="M 19.1875 8.296875  L 53.609375 8.296875  L 53.609375 0  L 7.328125 0  L 7.328125 8.296875  Q 12.9375 14.109375 22.625 23.890625  Q 32.328125 33.6875 34.8125 36.53125  Q 39.546875 41.84375 41.421875 45.53125  Q 43.3125 49.21875 43.3125 52.78125  Q 43.3125 58.59375 39.234375 62.25  Q 35.15625 65.921875 28.609375 65.921875  Q 23.96875 65.921875 18.8125 64.3125  Q 13.671875 62.703125 7.8125 59.421875  L 7.8125 69.390625  Q 13.765625 71.78125 18.9375 73  Q 24.125 74.21875 28.421875 74.21875  Q 39.75 74.21875 46.484375 68.546875  Q 53.21875 62.890625 53.21875 53.421875  Q 53.21875 48.921875 51.53125 44.890625  Q 49.859375 40.875 45.40625 35.40625  Q 44.1875 33.984375 37.640625 27.21875  Q 31.109375 20.453125 19.1875 8.296875  z " id="DejaVuSans-50" />
      <path d="M 8.203125 72.90625  L 55.078125 72.90625  L 55.078125 68.703125  L 28.609375 0  L 18.3125 0  L 43.21875 64.59375  L 8.203125 64.59375  z " id="DejaVuSans-55" />
     </defs>
     <use ns4:href="#DejaVuSans-102" />
     <use x="35.205078" ns4:href="#DejaVuSans-40" />
     <use x="74.21875" ns4:href="#DejaVuSans-120" />
     <use x="133.398438" ns4:href="#DejaVuSans-41" />
     <use x="172.412109" ns4:href="#DejaVuSans-32" />
     <use x="204.199219" ns4:href="#DejaVuSans-61" />
     <use x="287.988281" ns4:href="#DejaVuSans-32" />
     <use x="319.775391" ns4:href="#DejaVuSans-45" />
     <use x="355.859375" ns4:href="#DejaVuSans-57" />
     <use x="419.482422" ns4:href="#DejaVuSans-46" />
     <use x="451.269531" ns4:href="#DejaVuSans-50" />
     <use x="514.892578" ns4:href="#DejaVuSans-55" />
     <use x="578.515625" ns4:href="#DejaVuSans-51" />
    </g>
   </g>
  </g>
  <g id="axes_3">
   <g clip-path="url(#p597d10950b)">
    <g id="rdkit-img-2-g"><svg baseProfile="full" height="115.0" version="1.1" viewBox="0 0 200 200" width="129.0" x="290.016" y="48.368875" xml:space="preserve">

<rect height="200" style="opacity:1.0;fill:#FFFFFF;stroke:none" width="200" x="0" y="0"> </rect>
<path d="M 145.361,116.606 L 145.298,134.101" style="fill:none;fill-rule:evenodd;stroke:#1BBC9B;stroke-width:5.6px;stroke-linecap:butt;stroke-linejoin:miter;stroke-opacity:1" />
<ellipse cx="145.361" cy="116.606" rx="6.07546" ry="8.01011" style="fill:#1BBC9B;fill-rule:evenodd;stroke:#1BBC9B;stroke-width:1.0px;stroke-linecap:butt;stroke-linejoin:miter;stroke-opacity:1" />
<ellipse cx="145.298" cy="134.101" rx="5.24869" ry="8.04405" style="fill:#1BBC9B;fill-rule:evenodd;stroke:#1BBC9B;stroke-width:1.0px;stroke-linecap:butt;stroke-linejoin:miter;stroke-opacity:1" />
<path class="bond-0 atom-0 atom-1" d="M 9.09091,89.8723 L 24.2736,81.1804" style="fill:none;fill-rule:evenodd;stroke:#000000;stroke-linecap:butt;stroke-linejoin:miter;stroke-opacity:1" />
<path class="bond-1 atom-1 atom-2" d="M 24.2736,81.1804 L 33.756,86.6996" style="fill:none;fill-rule:evenodd;stroke:#000000;stroke-linecap:butt;stroke-linejoin:miter;stroke-opacity:1" />
<path class="bond-2 atom-2 atom-3" d="M 45.0307,86.7534 L 54.5761,81.2889" style="fill:none;fill-rule:evenodd;stroke:#000000;stroke-linecap:butt;stroke-linejoin:miter;stroke-opacity:1" />
<path class="bond-3 atom-3 atom-4" d="M 56.1507,81.2949 L 56.1931,70.1406" style="fill:none;fill-rule:evenodd;stroke:#000000;stroke-linecap:butt;stroke-linejoin:miter;stroke-opacity:1" />
<path class="bond-3 atom-3 atom-4" d="M 53.0015,81.2829 L 53.0439,70.1287" style="fill:none;fill-rule:evenodd;stroke:#000000;stroke-linecap:butt;stroke-linejoin:miter;stroke-opacity:1" />
<path class="bond-4 atom-3 atom-5" d="M 54.5761,81.2889 L 69.6958,90.0892" style="fill:none;fill-rule:evenodd;stroke:#000000;stroke-linecap:butt;stroke-linejoin:miter;stroke-opacity:1" />
<path class="bond-5 atom-5 atom-6" d="M 69.6958,90.0892 L 84.882,81.3939" style="fill:none;fill-rule:evenodd;stroke:#000000;stroke-linecap:butt;stroke-linejoin:miter;stroke-opacity:1" />
<path class="bond-5 atom-5 atom-6" d="M 73.5386,91.5178 L 84.1689,85.4311" style="fill:none;fill-rule:evenodd;stroke:#000000;stroke-linecap:butt;stroke-linejoin:miter;stroke-opacity:1" />
<path class="bond-20 atom-20 atom-5" d="M 69.6363,107.585 L 69.6958,90.0892" style="fill:none;fill-rule:evenodd;stroke:#000000;stroke-linecap:butt;stroke-linejoin:miter;stroke-opacity:1" />
<path class="bond-6 atom-6 atom-7" d="M 84.882,81.3939 L 99.9982,90.1977" style="fill:none;fill-rule:evenodd;stroke:#000000;stroke-linecap:butt;stroke-linejoin:miter;stroke-opacity:1" />
<path class="bond-7 atom-7 atom-8" d="M 99.9982,90.1977 L 99.9388,107.693" style="fill:none;fill-rule:evenodd;stroke:#000000;stroke-linecap:butt;stroke-linejoin:miter;stroke-opacity:1" />
<path class="bond-7 atom-7 atom-8" d="M 96.8401,92.8113 L 96.7985,105.058" style="fill:none;fill-rule:evenodd;stroke:#000000;stroke-linecap:butt;stroke-linejoin:miter;stroke-opacity:1" />
<path class="bond-8 atom-8 atom-9" d="M 99.9388,107.693 L 110.325,113.741" style="fill:none;fill-rule:evenodd;stroke:#000000;stroke-linecap:butt;stroke-linejoin:miter;stroke-opacity:1" />
<path class="bond-18 atom-8 atom-19" d="M 99.9388,107.693 L 84.7525,116.389" style="fill:none;fill-rule:evenodd;stroke:#000000;stroke-linecap:butt;stroke-linejoin:miter;stroke-opacity:1" />
<path class="bond-9 atom-9 atom-10" d="M 119.792,113.786 L 130.241,107.802" style="fill:none;fill-rule:evenodd;stroke:#000000;stroke-linecap:butt;stroke-linejoin:miter;stroke-opacity:1" />
<path class="bond-9 atom-9 atom-10" d="M 119.794,110.156 L 127.109,105.967" style="fill:none;fill-rule:evenodd;stroke:#000000;stroke-linecap:butt;stroke-linejoin:miter;stroke-opacity:1" />
<path class="bond-10 atom-10 atom-11" d="M 130.241,107.802 L 140.628,113.849" style="fill:none;fill-rule:evenodd;stroke:#000000;stroke-linecap:butt;stroke-linejoin:miter;stroke-opacity:1" />
<path class="bond-11 atom-11 atom-12" d="M 145.339,122.707 L 145.319,128.128" style="fill:none;fill-rule:evenodd;stroke:#000000;stroke-linecap:butt;stroke-linejoin:miter;stroke-opacity:1" />
<path class="bond-12 atom-11 atom-13" d="M 150.094,113.895 L 160.544,107.91" style="fill:none;fill-rule:evenodd;stroke:#000000;stroke-linecap:butt;stroke-linejoin:miter;stroke-opacity:1" />
<path class="bond-13 atom-13 atom-14" d="M 160.544,107.91 L 160.607,90.4146" style="fill:none;fill-rule:evenodd;stroke:#000000;stroke-linecap:butt;stroke-linejoin:miter;stroke-opacity:1" />
<path class="bond-13 atom-13 atom-14" d="M 163.702,105.297 L 163.746,93.0503" style="fill:none;fill-rule:evenodd;stroke:#000000;stroke-linecap:butt;stroke-linejoin:miter;stroke-opacity:1" />
<path class="bond-21 atom-18 atom-13" d="M 175.663,116.714 L 160.544,107.91" style="fill:none;fill-rule:evenodd;stroke:#000000;stroke-linecap:butt;stroke-linejoin:miter;stroke-opacity:1" />
<path class="bond-14 atom-14 atom-15" d="M 160.607,90.4146 L 175.789,81.7228" style="fill:none;fill-rule:evenodd;stroke:#000000;stroke-linecap:butt;stroke-linejoin:miter;stroke-opacity:1" />
<path class="bond-15 atom-15 atom-16" d="M 175.789,81.7228 L 190.909,90.5266" style="fill:none;fill-rule:evenodd;stroke:#000000;stroke-linecap:butt;stroke-linejoin:miter;stroke-opacity:1" />
<path class="bond-15 atom-15 atom-16" d="M 176.473,85.7648 L 187.056,91.9275" style="fill:none;fill-rule:evenodd;stroke:#000000;stroke-linecap:butt;stroke-linejoin:miter;stroke-opacity:1" />
<path class="bond-16 atom-16 atom-17" d="M 190.909,90.5266 L 190.846,108.019" style="fill:none;fill-rule:evenodd;stroke:#000000;stroke-linecap:butt;stroke-linejoin:miter;stroke-opacity:1" />
<path class="bond-17 atom-17 atom-18" d="M 190.846,108.019 L 175.663,116.714" style="fill:none;fill-rule:evenodd;stroke:#000000;stroke-linecap:butt;stroke-linejoin:miter;stroke-opacity:1" />
<path class="bond-17 atom-17 atom-18" d="M 187.004,106.59 L 176.376,112.677" style="fill:none;fill-rule:evenodd;stroke:#000000;stroke-linecap:butt;stroke-linejoin:miter;stroke-opacity:1" />
<path class="bond-19 atom-19 atom-20" d="M 84.7525,116.389 L 69.6363,107.585" style="fill:none;fill-rule:evenodd;stroke:#000000;stroke-linecap:butt;stroke-linejoin:miter;stroke-opacity:1" />
<path class="bond-19 atom-19 atom-20" d="M 84.07,112.347 L 73.4887,106.184" style="fill:none;fill-rule:evenodd;stroke:#000000;stroke-linecap:butt;stroke-linejoin:miter;stroke-opacity:1" />
<path class="atom-2" d="M 34.1934 90.0127 Q 34.1934 87.2927, 35.5374 85.7727 Q 36.8814 84.2527, 39.3934 84.2527 Q 41.9054 84.2527, 43.2494 85.7727 Q 44.5934 87.2927, 44.5934 90.0127 Q 44.5934 92.7647, 43.2334 94.3327 Q 41.8734 95.8847, 39.3934 95.8847 Q 36.8974 95.8847, 35.5374 94.3327 Q 34.1934 92.7807, 34.1934 90.0127 M 39.3934 94.6047 Q 41.1214 94.6047, 42.0494 93.4527 Q 42.9934 92.2847, 42.9934 90.0127 Q 42.9934 87.7887, 42.0494 86.6687 Q 41.1214 85.5327, 39.3934 85.5327 Q 37.6654 85.5327, 36.7214 86.6527 Q 35.7934 87.7727, 35.7934 90.0127 Q 35.7934 92.3007, 36.7214 93.4527 Q 37.6654 94.6047, 39.3934 94.6047 " fill="#000000" />
<path class="atom-4" d="M 49.4426 63.8253 Q 49.4426 61.1053, 50.7866 59.5853 Q 52.1306 58.0653, 54.6426 58.0653 Q 57.1546 58.0653, 58.4986 59.5853 Q 59.8426 61.1053, 59.8426 63.8253 Q 59.8426 66.5773, 58.4826 68.1453 Q 57.1226 69.6973, 54.6426 69.6973 Q 52.1466 69.6973, 50.7866 68.1453 Q 49.4426 66.5933, 49.4426 63.8253 M 54.6426 68.4173 Q 56.3706 68.4173, 57.2986 67.2653 Q 58.2426 66.0973, 58.2426 63.8253 Q 58.2426 61.6013, 57.2986 60.4813 Q 56.3706 59.3453, 54.6426 59.3453 Q 52.9146 59.3453, 51.9706 60.4653 Q 51.0426 61.5853, 51.0426 63.8253 Q 51.0426 66.1133, 51.9706 67.2653 Q 52.9146 68.4173, 54.6426 68.4173 " fill="#000000" />
<path class="atom-9" d="M 112.554 110.833 L 116.266 116.833 Q 116.634 117.425, 117.226 118.497 Q 117.818 119.569, 117.85 119.633 L 117.85 110.833 L 119.354 110.833 L 119.354 122.161 L 117.802 122.161 L 113.818 115.601 Q 113.354 114.833, 112.858 113.953 Q 112.378 113.073, 112.234 112.801 L 112.234 122.161 L 110.762 122.161 L 110.762 110.833 L 112.554 110.833 " fill="#000000" />
<path class="atom-11" d="M 142.857 110.942 L 146.569 116.942 Q 146.937 117.534, 147.529 118.606 Q 148.121 119.678, 148.153 119.742 L 148.153 110.942 L 149.657 110.942 L 149.657 122.27 L 148.105 122.27 L 144.121 115.71 Q 143.657 114.942, 143.161 114.062 Q 142.681 113.182, 142.537 112.91 L 142.537 122.27 L 141.065 122.27 L 141.065 110.942 L 142.857 110.942 " fill="#000000" />
<path class="atom-12" d="M 144.538 128.413 L 146.058 128.413 L 146.058 139.789 L 144.538 139.789 L 144.538 128.413 " fill="#000000" />
</svg></g></g>
   <g id="text_3">
    
    <g style="fill:#262626;" transform="translate(303.67125 16.318125)scale(0.12 -0.12)">
     <use ns4:href="#DejaVuSans-83" />
     <use x="63.476562" ns4:href="#DejaVuSans-105" />
     <use x="91.259766" ns4:href="#DejaVuSans-109" />
     <use x="188.671875" ns4:href="#DejaVuSans-105" />
     <use x="216.455078" ns4:href="#DejaVuSans-108" />
     <use x="244.238281" ns4:href="#DejaVuSans-97" />
     <use x="305.517578" ns4:href="#DejaVuSans-114" />
     <use x="346.630859" ns4:href="#DejaVuSans-105" />
     <use x="374.414062" ns4:href="#DejaVuSans-116" />
     <use x="413.623047" ns4:href="#DejaVuSans-121" />
     <use x="472.802734" ns4:href="#DejaVuSans-32" />
     <use x="504.589844" ns4:href="#DejaVuSans-61" />
     <use x="588.378906" ns4:href="#DejaVuSans-32" />
     <use x="620.166016" ns4:href="#DejaVuSans-48" />
     <use x="683.789062" ns4:href="#DejaVuSans-46" />
     <use x="715.576172" ns4:href="#DejaVuSans-56" />
     <use x="779.199219" ns4:href="#DejaVuSans-50" />
    </g>
    
    <g style="fill:#262626;" transform="translate(315.705 29.7555)scale(0.12 -0.12)">
     <use ns4:href="#DejaVuSans-68" />
     <use x="77.001953" ns4:href="#DejaVuSans-101" />
     <use x="138.525391" ns4:href="#DejaVuSans-99" />
     <use x="193.505859" ns4:href="#DejaVuSans-114" />
     <use x="232.369141" ns4:href="#DejaVuSans-101" />
     <use x="293.892578" ns4:href="#DejaVuSans-97" />
     <use x="355.171875" ns4:href="#DejaVuSans-115" />
     <use x="407.271484" ns4:href="#DejaVuSans-101" />
     <use x="468.794922" ns4:href="#DejaVuSans-32" />
     <use x="500.582031" ns4:href="#DejaVuSans-40" />
     <use x="539.595703" ns4:href="#DejaVuSans-50" />
     <use x="603.21875" ns4:href="#DejaVuSans-41" />
    </g>
    
    <g style="fill:#262626;" transform="translate(315.711562 43.192875)scale(0.12 -0.12)">
     <defs>
      <path d="M 37.796875 64.3125  L 12.890625 25.390625  L 37.796875 25.390625  z M 35.203125 72.90625  L 47.609375 72.90625  L 47.609375 25.390625  L 58.015625 25.390625  L 58.015625 17.1875  L 47.609375 17.1875  L 47.609375 0  L 37.796875 0  L 37.796875 17.1875  L 4.890625 17.1875  L 4.890625 26.703125  z " id="DejaVuSans-52" />
     </defs>
     <use ns4:href="#DejaVuSans-102" />
     <use x="35.205078" ns4:href="#DejaVuSans-40" />
     <use x="74.21875" ns4:href="#DejaVuSans-120" />
     <use x="133.398438" ns4:href="#DejaVuSans-41" />
     <use x="172.412109" ns4:href="#DejaVuSans-32" />
     <use x="204.199219" ns4:href="#DejaVuSans-61" />
     <use x="287.988281" ns4:href="#DejaVuSans-32" />
     <use x="319.775391" ns4:href="#DejaVuSans-45" />
     <use x="355.859375" ns4:href="#DejaVuSans-52" />
     <use x="419.482422" ns4:href="#DejaVuSans-46" />
     <use x="451.269531" ns4:href="#DejaVuSans-50" />
     <use x="514.892578" ns4:href="#DejaVuSans-52" />
     <use x="578.515625" ns4:href="#DejaVuSans-53" />
    </g>
   </g>
  </g>
  <g id="axes_4">
   <g clip-path="url(#p63f7dd5df7)">
    <g id="rdkit-img-3-g"><svg baseProfile="full" height="115.0" version="1.1" viewBox="0 0 200 200" width="129.0" x="431.424" y="48.368875" xml:space="preserve">

<rect height="200" style="opacity:1.0;fill:#FFFFFF;stroke:none" width="200" x="0" y="0"> </rect>
<path d="M 145.361,113.513 L 145.298,131.009" style="fill:none;fill-rule:evenodd;stroke:#1BBC9B;stroke-width:5.6px;stroke-linecap:butt;stroke-linejoin:miter;stroke-opacity:1" />
<ellipse cx="145.361" cy="113.513" rx="6.07546" ry="8.01011" style="fill:#1BBC9B;fill-rule:evenodd;stroke:#1BBC9B;stroke-width:1.0px;stroke-linecap:butt;stroke-linejoin:miter;stroke-opacity:1" />
<ellipse cx="153.193" cy="133.841" rx="17.2401" ry="12.0152" style="fill:#1BBC9B;fill-rule:evenodd;stroke:#1BBC9B;stroke-width:1.0px;stroke-linecap:butt;stroke-linejoin:miter;stroke-opacity:1" />
<path class="bond-0 atom-0 atom-1" d="M 9.09091,86.7799 L 24.2736,78.0881" style="fill:none;fill-rule:evenodd;stroke:#000000;stroke-linecap:butt;stroke-linejoin:miter;stroke-opacity:1" />
<path class="bond-1 atom-1 atom-2" d="M 24.2736,78.0881 L 33.756,83.6072" style="fill:none;fill-rule:evenodd;stroke:#000000;stroke-linecap:butt;stroke-linejoin:miter;stroke-opacity:1" />
<path class="bond-2 atom-2 atom-3" d="M 45.0307,83.6611 L 54.5761,78.1966" style="fill:none;fill-rule:evenodd;stroke:#000000;stroke-linecap:butt;stroke-linejoin:miter;stroke-opacity:1" />
<path class="bond-3 atom-3 atom-4" d="M 56.1507,78.2026 L 56.1931,67.0483" style="fill:none;fill-rule:evenodd;stroke:#000000;stroke-linecap:butt;stroke-linejoin:miter;stroke-opacity:1" />
<path class="bond-3 atom-3 atom-4" d="M 53.0015,78.1906 L 53.0439,67.0364" style="fill:none;fill-rule:evenodd;stroke:#000000;stroke-linecap:butt;stroke-linejoin:miter;stroke-opacity:1" />
<path class="bond-4 atom-3 atom-5" d="M 54.5761,78.1966 L 69.6958,86.9969" style="fill:none;fill-rule:evenodd;stroke:#000000;stroke-linecap:butt;stroke-linejoin:miter;stroke-opacity:1" />
<path class="bond-5 atom-5 atom-6" d="M 69.6958,86.9969 L 84.882,78.3016" style="fill:none;fill-rule:evenodd;stroke:#000000;stroke-linecap:butt;stroke-linejoin:miter;stroke-opacity:1" />
<path class="bond-5 atom-5 atom-6" d="M 73.5386,88.4255 L 84.1689,82.3388" style="fill:none;fill-rule:evenodd;stroke:#000000;stroke-linecap:butt;stroke-linejoin:miter;stroke-opacity:1" />
<path class="bond-20 atom-20 atom-5" d="M 69.6363,104.493 L 69.6958,86.9969" style="fill:none;fill-rule:evenodd;stroke:#000000;stroke-linecap:butt;stroke-linejoin:miter;stroke-opacity:1" />
<path class="bond-6 atom-6 atom-7" d="M 84.882,78.3016 L 99.9982,87.1054" style="fill:none;fill-rule:evenodd;stroke:#000000;stroke-linecap:butt;stroke-linejoin:miter;stroke-opacity:1" />
<path class="bond-7 atom-7 atom-8" d="M 99.9982,87.1054 L 99.9388,104.601" style="fill:none;fill-rule:evenodd;stroke:#000000;stroke-linecap:butt;stroke-linejoin:miter;stroke-opacity:1" />
<path class="bond-7 atom-7 atom-8" d="M 96.8401,89.719 L 96.7985,101.966" style="fill:none;fill-rule:evenodd;stroke:#000000;stroke-linecap:butt;stroke-linejoin:miter;stroke-opacity:1" />
<path class="bond-8 atom-8 atom-9" d="M 99.9388,104.601 L 110.325,110.649" style="fill:none;fill-rule:evenodd;stroke:#000000;stroke-linecap:butt;stroke-linejoin:miter;stroke-opacity:1" />
<path class="bond-18 atom-8 atom-19" d="M 99.9388,104.601 L 84.7525,113.296" style="fill:none;fill-rule:evenodd;stroke:#000000;stroke-linecap:butt;stroke-linejoin:miter;stroke-opacity:1" />
<path class="bond-9 atom-9 atom-10" d="M 119.792,110.694 L 130.241,104.709" style="fill:none;fill-rule:evenodd;stroke:#000000;stroke-linecap:butt;stroke-linejoin:miter;stroke-opacity:1" />
<path class="bond-9 atom-9 atom-10" d="M 119.794,107.063 L 127.109,102.874" style="fill:none;fill-rule:evenodd;stroke:#000000;stroke-linecap:butt;stroke-linejoin:miter;stroke-opacity:1" />
<path class="bond-10 atom-10 atom-11" d="M 130.241,104.709 L 140.628,110.757" style="fill:none;fill-rule:evenodd;stroke:#000000;stroke-linecap:butt;stroke-linejoin:miter;stroke-opacity:1" />
<path class="bond-11 atom-11 atom-12" d="M 145.339,119.615 L 145.319,125.06" style="fill:none;fill-rule:evenodd;stroke:#000000;stroke-linecap:butt;stroke-linejoin:miter;stroke-opacity:1" />
<path class="bond-12 atom-11 atom-13" d="M 150.094,110.802 L 160.544,104.818" style="fill:none;fill-rule:evenodd;stroke:#000000;stroke-linecap:butt;stroke-linejoin:miter;stroke-opacity:1" />
<path class="bond-13 atom-13 atom-14" d="M 160.544,104.818 L 160.607,87.3223" style="fill:none;fill-rule:evenodd;stroke:#000000;stroke-linecap:butt;stroke-linejoin:miter;stroke-opacity:1" />
<path class="bond-13 atom-13 atom-14" d="M 163.702,102.205 L 163.746,89.958" style="fill:none;fill-rule:evenodd;stroke:#000000;stroke-linecap:butt;stroke-linejoin:miter;stroke-opacity:1" />
<path class="bond-21 atom-18 atom-13" d="M 175.663,113.622 L 160.544,104.818" style="fill:none;fill-rule:evenodd;stroke:#000000;stroke-linecap:butt;stroke-linejoin:miter;stroke-opacity:1" />
<path class="bond-14 atom-14 atom-15" d="M 160.607,87.3223 L 175.789,78.6305" style="fill:none;fill-rule:evenodd;stroke:#000000;stroke-linecap:butt;stroke-linejoin:miter;stroke-opacity:1" />
<path class="bond-15 atom-15 atom-16" d="M 175.789,78.6305 L 190.909,87.4343" style="fill:none;fill-rule:evenodd;stroke:#000000;stroke-linecap:butt;stroke-linejoin:miter;stroke-opacity:1" />
<path class="bond-15 atom-15 atom-16" d="M 176.473,82.6725 L 187.056,88.8352" style="fill:none;fill-rule:evenodd;stroke:#000000;stroke-linecap:butt;stroke-linejoin:miter;stroke-opacity:1" />
<path class="bond-16 atom-16 atom-17" d="M 190.909,87.4343 L 190.846,104.926" style="fill:none;fill-rule:evenodd;stroke:#000000;stroke-linecap:butt;stroke-linejoin:miter;stroke-opacity:1" />
<path class="bond-17 atom-17 atom-18" d="M 190.846,104.926 L 175.663,113.622" style="fill:none;fill-rule:evenodd;stroke:#000000;stroke-linecap:butt;stroke-linejoin:miter;stroke-opacity:1" />
<path class="bond-17 atom-17 atom-18" d="M 187.004,103.498 L 176.376,109.585" style="fill:none;fill-rule:evenodd;stroke:#000000;stroke-linecap:butt;stroke-linejoin:miter;stroke-opacity:1" />
<path class="bond-19 atom-19 atom-20" d="M 84.7525,113.296 L 69.6363,104.493" style="fill:none;fill-rule:evenodd;stroke:#000000;stroke-linecap:butt;stroke-linejoin:miter;stroke-opacity:1" />
<path class="bond-19 atom-19 atom-20" d="M 84.07,109.254 L 73.4887,103.092" style="fill:none;fill-rule:evenodd;stroke:#000000;stroke-linecap:butt;stroke-linejoin:miter;stroke-opacity:1" />
<path class="atom-2" d="M 34.1934 86.9204 Q 34.1934 84.2004, 35.5374 82.6804 Q 36.8814 81.1604, 39.3934 81.1604 Q 41.9054 81.1604, 43.2494 82.6804 Q 44.5934 84.2004, 44.5934 86.9204 Q 44.5934 89.6724, 43.2334 91.2404 Q 41.8734 92.7924, 39.3934 92.7924 Q 36.8974 92.7924, 35.5374 91.2404 Q 34.1934 89.6884, 34.1934 86.9204 M 39.3934 91.5124 Q 41.1214 91.5124, 42.0494 90.3604 Q 42.9934 89.1924, 42.9934 86.9204 Q 42.9934 84.6964, 42.0494 83.5764 Q 41.1214 82.4404, 39.3934 82.4404 Q 37.6654 82.4404, 36.7214 83.5604 Q 35.7934 84.6804, 35.7934 86.9204 Q 35.7934 89.2084, 36.7214 90.3604 Q 37.6654 91.5124, 39.3934 91.5124 " fill="#000000" />
<path class="atom-4" d="M 49.4426 60.7329 Q 49.4426 58.0129, 50.7866 56.4929 Q 52.1306 54.9729, 54.6426 54.9729 Q 57.1546 54.9729, 58.4986 56.4929 Q 59.8426 58.0129, 59.8426 60.7329 Q 59.8426 63.4849, 58.4826 65.0529 Q 57.1226 66.6049, 54.6426 66.6049 Q 52.1466 66.6049, 50.7866 65.0529 Q 49.4426 63.5009, 49.4426 60.7329 M 54.6426 65.3249 Q 56.3706 65.3249, 57.2986 64.1729 Q 58.2426 63.0049, 58.2426 60.7329 Q 58.2426 58.5089, 57.2986 57.3889 Q 56.3706 56.2529, 54.6426 56.2529 Q 52.9146 56.2529, 51.9706 57.3729 Q 51.0426 58.4929, 51.0426 60.7329 Q 51.0426 63.0209, 51.9706 64.1729 Q 52.9146 65.3249, 54.6426 65.3249 " fill="#000000" />
<path class="atom-9" d="M 112.554 107.741 L 116.266 113.741 Q 116.634 114.333, 117.226 115.405 Q 117.818 116.477, 117.85 116.541 L 117.85 107.741 L 119.354 107.741 L 119.354 119.069 L 117.802 119.069 L 113.818 112.509 Q 113.354 111.741, 112.858 110.861 Q 112.378 109.981, 112.234 109.709 L 112.234 119.069 L 110.762 119.069 L 110.762 107.741 L 112.554 107.741 " fill="#000000" />
<path class="atom-11" d="M 142.857 107.849 L 146.569 113.849 Q 146.937 114.441, 147.529 115.513 Q 148.121 116.585, 148.153 116.649 L 148.153 107.849 L 149.657 107.849 L 149.657 119.177 L 148.105 119.177 L 144.121 112.617 Q 143.657 111.849, 143.161 110.969 Q 142.681 110.089, 142.537 109.817 L 142.537 119.177 L 141.065 119.177 L 141.065 107.849 L 142.857 107.849 " fill="#000000" />
<path class="atom-12" d="M 142.794 125.345 L 146.506 131.345 Q 146.874 131.937, 147.466 133.009 Q 148.058 134.081, 148.09 134.145 L 148.09 125.345 L 149.594 125.345 L 149.594 136.673 L 148.042 136.673 L 144.058 130.113 Q 143.594 129.345, 143.098 128.465 Q 142.618 127.585, 142.474 127.313 L 142.474 136.673 L 141.002 136.673 L 141.002 125.345 L 142.794 125.345 " fill="#000000" />
<path class="atom-12" d="M 150.954 125.345 L 152.49 125.345 L 152.49 130.161 L 158.282 130.161 L 158.282 125.345 L 159.818 125.345 L 159.818 136.673 L 158.282 136.673 L 158.282 131.441 L 152.49 131.441 L 152.49 136.673 L 150.954 136.673 L 150.954 125.345 " fill="#000000" />
<path class="atom-12" d="M 160.367 136.275 Q 160.642 135.568, 161.296 135.177 Q 161.951 134.776, 162.859 134.776 Q 163.989 134.776, 164.623 135.388 Q 165.256 136.001, 165.256 137.089 Q 165.256 138.197, 164.433 139.232 Q 163.62 140.267, 161.93 141.492 L 165.383 141.492 L 165.383 142.337 L 160.346 142.337 L 160.346 141.629 Q 161.74 140.637, 162.564 139.898 Q 163.398 139.158, 163.799 138.493 Q 164.2 137.828, 164.2 137.141 Q 164.2 136.423, 163.841 136.022 Q 163.482 135.621, 162.859 135.621 Q 162.257 135.621, 161.856 135.864 Q 161.455 136.107, 161.17 136.645 L 160.367 136.275 " fill="#000000" />
</svg></g></g>
   <g id="text_4">
    
    <g style="fill:#262626;" transform="translate(445.07925 16.318125)scale(0.12 -0.12)">
     <use ns4:href="#DejaVuSans-83" />
     <use x="63.476562" ns4:href="#DejaVuSans-105" />
     <use x="91.259766" ns4:href="#DejaVuSans-109" />
     <use x="188.671875" ns4:href="#DejaVuSans-105" />
     <use x="216.455078" ns4:href="#DejaVuSans-108" />
     <use x="244.238281" ns4:href="#DejaVuSans-97" />
     <use x="305.517578" ns4:href="#DejaVuSans-114" />
     <use x="346.630859" ns4:href="#DejaVuSans-105" />
     <use x="374.414062" ns4:href="#DejaVuSans-116" />
     <use x="413.623047" ns4:href="#DejaVuSans-121" />
     <use x="472.802734" ns4:href="#DejaVuSans-32" />
     <use x="504.589844" ns4:href="#DejaVuSans-61" />
     <use x="588.378906" ns4:href="#DejaVuSans-32" />
     <use x="620.166016" ns4:href="#DejaVuSans-48" />
     <use x="683.789062" ns4:href="#DejaVuSans-46" />
     <use x="715.576172" ns4:href="#DejaVuSans-56" />
     <use x="779.199219" ns4:href="#DejaVuSans-50" />
    </g>
    
    <g style="fill:#262626;" transform="translate(459.852375 29.7555)scale(0.12 -0.12)">
     <defs>
      <path d="M 9.8125 72.90625  L 19.671875 72.90625  L 19.671875 0  L 9.8125 0  z " id="DejaVuSans-73" />
      <path d="M 54.890625 33.015625  L 54.890625 0  L 45.90625 0  L 45.90625 32.71875  Q 45.90625 40.484375 42.875 44.328125  Q 39.84375 48.1875 33.796875 48.1875  Q 26.515625 48.1875 22.3125 43.546875  Q 18.109375 38.921875 18.109375 30.90625  L 18.109375 0  L 9.078125 0  L 9.078125 54.6875  L 18.109375 54.6875  L 18.109375 46.1875  Q 21.34375 51.125 25.703125 53.5625  Q 30.078125 56 35.796875 56  Q 45.21875 56 50.046875 50.171875  Q 54.890625 44.34375 54.890625 33.015625  z " id="DejaVuSans-110" />
     </defs>
     <use ns4:href="#DejaVuSans-73" />
     <use x="29.492188" ns4:href="#DejaVuSans-110" />
     <use x="92.871094" ns4:href="#DejaVuSans-99" />
     <use x="147.851562" ns4:href="#DejaVuSans-114" />
     <use x="186.714844" ns4:href="#DejaVuSans-101" />
     <use x="248.238281" ns4:href="#DejaVuSans-97" />
     <use x="309.517578" ns4:href="#DejaVuSans-115" />
     <use x="361.617188" ns4:href="#DejaVuSans-101" />
     <use x="423.140625" ns4:href="#DejaVuSans-32" />
     <use x="454.927734" ns4:href="#DejaVuSans-40" />
     <use x="493.941406" ns4:href="#DejaVuSans-49" />
     <use x="557.564453" ns4:href="#DejaVuSans-41" />
    </g>
    
    <g style="fill:#262626;" transform="translate(457.119562 43.192875)scale(0.12 -0.12)">
     <use ns4:href="#DejaVuSans-102" />
     <use x="35.205078" ns4:href="#DejaVuSans-40" />
     <use x="74.21875" ns4:href="#DejaVuSans-120" />
     <use x="133.398438" ns4:href="#DejaVuSans-41" />
     <use x="172.412109" ns4:href="#DejaVuSans-32" />
     <use x="204.199219" ns4:href="#DejaVuSans-61" />
     <use x="287.988281" ns4:href="#DejaVuSans-32" />
     <use x="319.775391" ns4:href="#DejaVuSans-45" />
     <use x="355.859375" ns4:href="#DejaVuSans-51" />
     <use x="419.482422" ns4:href="#DejaVuSans-46" />
     <use x="451.269531" ns4:href="#DejaVuSans-48" />
     <use x="514.892578" ns4:href="#DejaVuSans-53" />
     <use x="578.515625" ns4:href="#DejaVuSans-56" />
    </g>
   </g>
  </g>
  <g id="axes_5">
   <g clip-path="url(#p0d46f7aea9)">
    <g id="rdkit-img-4-g"><svg baseProfile="full" height="115.0" version="1.1" viewBox="0 0 200 200" width="129.0" x="572.832" y="48.368875" xml:space="preserve">

<rect height="200" style="opacity:1.0;fill:#FFFFFF;stroke:none" width="200" x="0" y="0"> </rect>
<path d="M 170.73,85.8996 L 185.391,94.4362" style="fill:none;fill-rule:evenodd;stroke:#1BBC9B;stroke-width:5.4px;stroke-linecap:butt;stroke-linejoin:miter;stroke-opacity:1" />
<path d="M 185.391,94.4362 L 185.33,111.397" style="fill:none;fill-rule:evenodd;stroke:#1BBC9B;stroke-width:5.4px;stroke-linecap:butt;stroke-linejoin:miter;stroke-opacity:1" />
<ellipse cx="170.73" cy="85.8996" rx="5.08939" ry="5.08939" style="fill:#1BBC9B;fill-rule:evenodd;stroke:#1BBC9B;stroke-width:1.0px;stroke-linecap:butt;stroke-linejoin:miter;stroke-opacity:1" />
<ellipse cx="185.391" cy="94.4362" rx="6.07546" ry="8.01011" style="fill:#1BBC9B;fill-rule:evenodd;stroke:#1BBC9B;stroke-width:1.0px;stroke-linecap:butt;stroke-linejoin:miter;stroke-opacity:1" />
<ellipse cx="185.33" cy="111.397" rx="5.08939" ry="5.08939" style="fill:#1BBC9B;fill-rule:evenodd;stroke:#1BBC9B;stroke-width:1.0px;stroke-linecap:butt;stroke-linejoin:miter;stroke-opacity:1" />
<path class="bond-0 atom-0 atom-1" d="M 9.09091,93.8017 L 23.8128,85.3737" style="fill:none;fill-rule:evenodd;stroke:#000000;stroke-linecap:butt;stroke-linejoin:miter;stroke-opacity:1" />
<path class="bond-1 atom-1 atom-2" d="M 23.8128,85.3737 L 32.8496,90.6335" style="fill:none;fill-rule:evenodd;stroke:#000000;stroke-linecap:butt;stroke-linejoin:miter;stroke-opacity:1" />
<path class="bond-2 atom-2 atom-3" d="M 44.0978,90.6872 L 53.1956,85.4789" style="fill:none;fill-rule:evenodd;stroke:#000000;stroke-linecap:butt;stroke-linejoin:miter;stroke-opacity:1" />
<path class="bond-3 atom-3 atom-4" d="M 54.7224,85.4847 L 54.7628,74.8482" style="fill:none;fill-rule:evenodd;stroke:#000000;stroke-linecap:butt;stroke-linejoin:miter;stroke-opacity:1" />
<path class="bond-3 atom-3 atom-4" d="M 51.6688,85.4731 L 51.7092,74.8366" style="fill:none;fill-rule:evenodd;stroke:#000000;stroke-linecap:butt;stroke-linejoin:miter;stroke-opacity:1" />
<path class="bond-4 atom-3 atom-5" d="M 53.1956,85.4789 L 67.8564,94.0121" style="fill:none;fill-rule:evenodd;stroke:#000000;stroke-linecap:butt;stroke-linejoin:miter;stroke-opacity:1" />
<path class="bond-5 atom-5 atom-6" d="M 67.8564,94.0121 L 82.5817,85.5807" style="fill:none;fill-rule:evenodd;stroke:#000000;stroke-linecap:butt;stroke-linejoin:miter;stroke-opacity:1" />
<path class="bond-5 atom-5 atom-6" d="M 71.5826,95.3974 L 81.8903,89.4954" style="fill:none;fill-rule:evenodd;stroke:#000000;stroke-linecap:butt;stroke-linejoin:miter;stroke-opacity:1" />
<path class="bond-20 atom-20 atom-5" d="M 67.7988,110.977 L 67.8564,94.0121" style="fill:none;fill-rule:evenodd;stroke:#000000;stroke-linecap:butt;stroke-linejoin:miter;stroke-opacity:1" />
<path class="bond-6 atom-6 atom-7" d="M 82.5817,85.5807 L 97.2392,94.1173" style="fill:none;fill-rule:evenodd;stroke:#000000;stroke-linecap:butt;stroke-linejoin:miter;stroke-opacity:1" />
<path class="bond-7 atom-7 atom-8" d="M 97.2392,94.1173 L 97.1815,111.082" style="fill:none;fill-rule:evenodd;stroke:#000000;stroke-linecap:butt;stroke-linejoin:miter;stroke-opacity:1" />
<path class="bond-7 atom-7 atom-8" d="M 94.1769,96.6516 L 94.1366,108.527" style="fill:none;fill-rule:evenodd;stroke:#000000;stroke-linecap:butt;stroke-linejoin:miter;stroke-opacity:1" />
<path class="bond-8 atom-8 atom-9" d="M 97.1815,111.082 L 107.122,116.87" style="fill:none;fill-rule:evenodd;stroke:#000000;stroke-linecap:butt;stroke-linejoin:miter;stroke-opacity:1" />
<path class="bond-18 atom-8 atom-19" d="M 97.1815,111.082 L 82.4562,119.513" style="fill:none;fill-rule:evenodd;stroke:#000000;stroke-linecap:butt;stroke-linejoin:miter;stroke-opacity:1" />
<path class="bond-9 atom-9 atom-10" d="M 116.562,116.915 L 126.564,111.187" style="fill:none;fill-rule:evenodd;stroke:#000000;stroke-linecap:butt;stroke-linejoin:miter;stroke-opacity:1" />
<path class="bond-9 atom-9 atom-10" d="M 116.545,113.406 L 123.546,109.397" style="fill:none;fill-rule:evenodd;stroke:#000000;stroke-linecap:butt;stroke-linejoin:miter;stroke-opacity:1" />
<path class="bond-10 atom-10 atom-11" d="M 126.564,111.187 L 136.505,116.975" style="fill:none;fill-rule:evenodd;stroke:#000000;stroke-linecap:butt;stroke-linejoin:miter;stroke-opacity:1" />
<path class="bond-11 atom-11 atom-12" d="M 141.203,125.812 L 141.164,136.688" style="fill:none;fill-rule:evenodd;stroke:#000000;stroke-linecap:butt;stroke-linejoin:miter;stroke-opacity:1" />
<path class="bond-12 atom-11 atom-13" d="M 145.945,117.02 L 155.947,111.292" style="fill:none;fill-rule:evenodd;stroke:#000000;stroke-linecap:butt;stroke-linejoin:miter;stroke-opacity:1" />
<path class="bond-13 atom-13 atom-14" d="M 155.947,111.292 L 156.008,94.3276" style="fill:none;fill-rule:evenodd;stroke:#000000;stroke-linecap:butt;stroke-linejoin:miter;stroke-opacity:1" />
<path class="bond-13 atom-13 atom-14" d="M 159.01,108.759 L 159.053,96.8833" style="fill:none;fill-rule:evenodd;stroke:#000000;stroke-linecap:butt;stroke-linejoin:miter;stroke-opacity:1" />
<path class="bond-21 atom-18 atom-13" d="M 170.608,119.829 L 155.947,111.292" style="fill:none;fill-rule:evenodd;stroke:#000000;stroke-linecap:butt;stroke-linejoin:miter;stroke-opacity:1" />
<path class="bond-14 atom-14 atom-15" d="M 156.008,94.3276 L 170.73,85.8996" style="fill:none;fill-rule:evenodd;stroke:#000000;stroke-linecap:butt;stroke-linejoin:miter;stroke-opacity:1" />
<path class="bond-15 atom-15 atom-16" d="M 170.73,85.8996 L 180.671,91.6878" style="fill:none;fill-rule:evenodd;stroke:#000000;stroke-linecap:butt;stroke-linejoin:miter;stroke-opacity:1" />
<path class="bond-15 atom-15 atom-16" d="M 170.685,89.4067 L 177.643,93.4585" style="fill:none;fill-rule:evenodd;stroke:#000000;stroke-linecap:butt;stroke-linejoin:miter;stroke-opacity:1" />
<path class="bond-16 atom-16 atom-17" d="M 185.369,100.524 L 185.33,111.397" style="fill:none;fill-rule:evenodd;stroke:#000000;stroke-linecap:butt;stroke-linejoin:miter;stroke-opacity:1" />
<path class="bond-17 atom-17 atom-18" d="M 185.33,111.397 L 170.608,119.829" style="fill:none;fill-rule:evenodd;stroke:#000000;stroke-linecap:butt;stroke-linejoin:miter;stroke-opacity:1" />
<path class="bond-17 atom-17 atom-18" d="M 181.604,110.012 L 171.299,115.914" style="fill:none;fill-rule:evenodd;stroke:#000000;stroke-linecap:butt;stroke-linejoin:miter;stroke-opacity:1" />
<path class="bond-19 atom-19 atom-20" d="M 82.4562,119.513 L 67.7988,110.977" style="fill:none;fill-rule:evenodd;stroke:#000000;stroke-linecap:butt;stroke-linejoin:miter;stroke-opacity:1" />
<path class="bond-19 atom-19 atom-20" d="M 81.7944,115.594 L 71.5342,109.619" style="fill:none;fill-rule:evenodd;stroke:#000000;stroke-linecap:butt;stroke-linejoin:miter;stroke-opacity:1" />
<path class="atom-2" d="M 33.2737 93.9389 Q 33.2737 91.2189, 34.6177 89.6989 Q 35.9617 88.1789, 38.4737 88.1789 Q 40.9857 88.1789, 42.3297 89.6989 Q 43.6737 91.2189, 43.6737 93.9389 Q 43.6737 96.6909, 42.3137 98.2589 Q 40.9537 99.8109, 38.4737 99.8109 Q 35.9777 99.8109, 34.6177 98.2589 Q 33.2737 96.7069, 33.2737 93.9389 M 38.4737 98.5309 Q 40.2017 98.5309, 41.1297 97.3789 Q 42.0737 96.2109, 42.0737 93.9389 Q 42.0737 91.7149, 41.1297 90.5949 Q 40.2017 89.4589, 38.4737 89.4589 Q 36.7457 89.4589, 35.8017 90.5789 Q 34.8737 91.6989, 34.8737 93.9389 Q 34.8737 96.2269, 35.8017 97.3789 Q 36.7457 98.5309, 38.4737 98.5309 " fill="#000000" />
<path class="atom-4" d="M 48.0601 68.5462 Q 48.0601 65.8262, 49.4041 64.3062 Q 50.7481 62.7862, 53.2601 62.7862 Q 55.7721 62.7862, 57.1161 64.3062 Q 58.4601 65.8262, 58.4601 68.5462 Q 58.4601 71.2982, 57.1001 72.8662 Q 55.7401 74.4182, 53.2601 74.4182 Q 50.7641 74.4182, 49.4041 72.8662 Q 48.0601 71.3142, 48.0601 68.5462 M 53.2601 73.1382 Q 54.9881 73.1382, 55.9161 71.9862 Q 56.8601 70.8182, 56.8601 68.5462 Q 56.8601 66.3222, 55.9161 65.2022 Q 54.9881 64.0662, 53.2601 64.0662 Q 51.5321 64.0662, 50.5881 65.1862 Q 49.6601 66.3062, 49.6601 68.5462 Q 49.6601 70.8342, 50.5881 71.9862 Q 51.5321 73.1382, 53.2601 73.1382 " fill="#000000" />
<path class="atom-9" d="M 109.338 113.955 L 113.05 119.955 Q 113.418 120.547, 114.01 121.619 Q 114.602 122.691, 114.634 122.755 L 114.634 113.955 L 116.138 113.955 L 116.138 125.283 L 114.586 125.283 L 110.602 118.723 Q 110.138 117.955, 109.642 117.075 Q 109.162 116.195, 109.018 115.923 L 109.018 125.283 L 107.546 125.283 L 107.546 113.955 L 109.338 113.955 " fill="#000000" />
<path class="atom-11" d="M 138.721 114.06 L 142.433 120.06 Q 142.801 120.652, 143.393 121.724 Q 143.985 122.796, 144.017 122.86 L 144.017 114.06 L 145.521 114.06 L 145.521 125.388 L 143.969 125.388 L 139.985 118.828 Q 139.521 118.06, 139.025 117.18 Q 138.545 116.3, 138.401 116.028 L 138.401 125.388 L 136.929 125.388 L 136.929 114.06 L 138.721 114.06 " fill="#000000" />
<path class="atom-16" d="M 182.887 88.7722 L 186.599 94.7722 Q 186.967 95.3642, 187.559 96.4362 Q 188.151 97.5082, 188.183 97.5722 L 188.183 88.7722 L 189.687 88.7722 L 189.687 100.1 L 188.135 100.1 L 184.151 93.5402 Q 183.687 92.7722, 183.191 91.8922 Q 182.711 91.0122, 182.567 90.7402 L 182.567 100.1 L 181.095 100.1 L 181.095 88.7722 L 182.887 88.7722 " fill="#000000" />
</svg></g></g>
   <g id="text_5">
    
    <g style="fill:#262626;" transform="translate(586.48725 16.318125)scale(0.12 -0.12)">
     <use ns4:href="#DejaVuSans-83" />
     <use x="63.476562" ns4:href="#DejaVuSans-105" />
     <use x="91.259766" ns4:href="#DejaVuSans-109" />
     <use x="188.671875" ns4:href="#DejaVuSans-105" />
     <use x="216.455078" ns4:href="#DejaVuSans-108" />
     <use x="244.238281" ns4:href="#DejaVuSans-97" />
     <use x="305.517578" ns4:href="#DejaVuSans-114" />
     <use x="346.630859" ns4:href="#DejaVuSans-105" />
     <use x="374.414062" ns4:href="#DejaVuSans-116" />
     <use x="413.623047" ns4:href="#DejaVuSans-121" />
     <use x="472.802734" ns4:href="#DejaVuSans-32" />
     <use x="504.589844" ns4:href="#DejaVuSans-61" />
     <use x="588.378906" ns4:href="#DejaVuSans-32" />
     <use x="620.166016" ns4:href="#DejaVuSans-48" />
     <use x="683.789062" ns4:href="#DejaVuSans-46" />
     <use x="715.576172" ns4:href="#DejaVuSans-55" />
     <use x="779.199219" ns4:href="#DejaVuSans-52" />
    </g>
    
    <g style="fill:#262626;" transform="translate(601.260375 29.7555)scale(0.12 -0.12)">
     <use ns4:href="#DejaVuSans-73" />
     <use x="29.492188" ns4:href="#DejaVuSans-110" />
     <use x="92.871094" ns4:href="#DejaVuSans-99" />
     <use x="147.851562" ns4:href="#DejaVuSans-114" />
     <use x="186.714844" ns4:href="#DejaVuSans-101" />
     <use x="248.238281" ns4:href="#DejaVuSans-97" />
     <use x="309.517578" ns4:href="#DejaVuSans-115" />
     <use x="361.617188" ns4:href="#DejaVuSans-101" />
     <use x="423.140625" ns4:href="#DejaVuSans-32" />
     <use x="454.927734" ns4:href="#DejaVuSans-40" />
     <use x="493.941406" ns4:href="#DejaVuSans-50" />
     <use x="557.564453" ns4:href="#DejaVuSans-41" />
    </g>
    
    <g style="fill:#262626;" transform="translate(598.527563 43.192875)scale(0.12 -0.12)">
     <defs>
      <path d="M 33.015625 40.375  Q 26.375 40.375 22.484375 35.828125  Q 18.609375 31.296875 18.609375 23.390625  Q 18.609375 15.53125 22.484375 10.953125  Q 26.375 6.390625 33.015625 6.390625  Q 39.65625 6.390625 43.53125 10.953125  Q 47.40625 15.53125 47.40625 23.390625  Q 47.40625 31.296875 43.53125 35.828125  Q 39.65625 40.375 33.015625 40.375  z M 52.59375 71.296875  L 52.59375 62.3125  Q 48.875 64.0625 45.09375 64.984375  Q 41.3125 65.921875 37.59375 65.921875  Q 27.828125 65.921875 22.671875 59.328125  Q 17.53125 52.734375 16.796875 39.40625  Q 19.671875 43.65625 24.015625 45.921875  Q 28.375 48.1875 33.59375 48.1875  Q 44.578125 48.1875 50.953125 41.515625  Q 57.328125 34.859375 57.328125 23.390625  Q 57.328125 12.15625 50.6875 5.359375  Q 44.046875 -1.421875 33.015625 -1.421875  Q 20.359375 -1.421875 13.671875 8.265625  Q 6.984375 17.96875 6.984375 36.375  Q 6.984375 53.65625 15.1875 63.9375  Q 23.390625 74.21875 37.203125 74.21875  Q 40.921875 74.21875 44.703125 73.484375  Q 48.484375 72.75 52.59375 71.296875  z " id="DejaVuSans-54" />
     </defs>
     <use ns4:href="#DejaVuSans-102" />
     <use x="35.205078" ns4:href="#DejaVuSans-40" />
     <use x="74.21875" ns4:href="#DejaVuSans-120" />
     <use x="133.398438" ns4:href="#DejaVuSans-41" />
     <use x="172.412109" ns4:href="#DejaVuSans-32" />
     <use x="204.199219" ns4:href="#DejaVuSans-61" />
     <use x="287.988281" ns4:href="#DejaVuSans-32" />
     <use x="319.775391" ns4:href="#DejaVuSans-45" />
     <use x="355.859375" ns4:href="#DejaVuSans-50" />
     <use x="419.482422" ns4:href="#DejaVuSans-46" />
     <use x="451.269531" ns4:href="#DejaVuSans-56" />
     <use x="514.892578" ns4:href="#DejaVuSans-50" />
     <use x="578.515625" ns4:href="#DejaVuSans-54" />
    </g>
   </g>
  </g>
 </g>
 <defs>
  <clipPath id="p6ace9d2e69">
   <rect height="114.176" width="128.448" x="7.2" y="49.192875" />
  </clipPath>
  <clipPath id="p61be8da2d5">
   <rect height="114.176" width="128.448" x="148.608" y="49.192875" />
  </clipPath>
  <clipPath id="p597d10950b">
   <rect height="114.176" width="128.448" x="290.016" y="49.192875" />
  </clipPath>
  <clipPath id="p63f7dd5df7">
   <rect height="114.176" width="128.448" x="431.424" y="49.192875" />
  </clipPath>
  <clipPath id="p0d46f7aea9">
   <rect height="114.176" width="128.448" x="572.832" y="49.192875" />
  </clipPath>
 </defs>
</svg>