<svg xmlns="http://www.w3.org/2000/svg" xmlns:dc="http://purl.org/dc/elements/1.1/" xmlns:ns2="http://creativecommons.org/ns#" xmlns:ns4="http://www.w3.org/1999/xlink" xmlns:rdf="http://www.w3.org/1999/02/22-rdf-syntax-ns#" height="220.192875pt" version="1.1" viewBox="0 0 708.48 220.192875" width="708.48pt">
 <metadata>
  <rdf:RDF>
   <ns2:Work>
    <dc:type rdf:resource="http://purl.org/dc/dcmitype/StillImage" />
    <dc:date>2021-09-16T16:32:43.261048</dc:date>
    <dc:format>image/svg+xml</dc:format>
    <dc:creator>
     <ns2:Agent>
      <dc:title>Matplotlib v3.3.2, https://matplotlib.org/</dc:title>
     </ns2:Agent>
    </dc:creator>
   </ns2:Work>
  </rdf:RDF>
 </metadata>
 <defs>
  <style type="text/css">*{stroke-linecap:butt;stroke-linejoin:round;}</style>
 </defs>
 <g id="figure_1">
  <g id="patch_1">
   <path d="M 0 220.192875  L 708.48 220.192875  L 708.48 0  L 0 0  z " style="fill:#ffffff;" />
  </g>
  <g id="axes_1">
   <g clip-path="url(#p8b1640f7bd)">
    <g id="rdkit-img-0-g"><svg baseProfile="full" height="164.0" version="1.1" viewBox="0 0 200 200" width="164.0" x="7.2" y="48.992875" xml:space="preserve">

<rect height="200" style="opacity:1.0;fill:#FFFFFF;stroke:none" width="200" x="0" y="0"> </rect>
<path class="bond-0 atom-0 atom-1" d="M 9.09091,93.5286 L 24.2736,84.8368" style="fill:none;fill-rule:evenodd;stroke:#000000;stroke-linecap:butt;stroke-linejoin:miter;stroke-opacity:1" />
<path class="bond-1 atom-1 atom-2" d="M 24.2736,84.8368 L 33.756,90.3559" style="fill:none;fill-rule:evenodd;stroke:#000000;stroke-linecap:butt;stroke-linejoin:miter;stroke-opacity:1" />
<path class="bond-2 atom-2 atom-3" d="M 45.0307,90.4098 L 54.5761,84.9453" style="fill:none;fill-rule:evenodd;stroke:#000000;stroke-linecap:butt;stroke-linejoin:miter;stroke-opacity:1" />
<path class="bond-3 atom-3 atom-4" d="M 56.1507,84.9513 L 56.1931,73.797" style="fill:none;fill-rule:evenodd;stroke:#000000;stroke-linecap:butt;stroke-linejoin:miter;stroke-opacity:1" />
<path class="bond-3 atom-3 atom-4" d="M 53.0015,84.9393 L 53.0439,73.7851" style="fill:none;fill-rule:evenodd;stroke:#000000;stroke-linecap:butt;stroke-linejoin:miter;stroke-opacity:1" />
<path class="bond-4 atom-3 atom-5" d="M 54.5761,84.9453 L 69.6958,93.7456" style="fill:none;fill-rule:evenodd;stroke:#000000;stroke-linecap:butt;stroke-linejoin:miter;stroke-opacity:1" />
<path class="bond-5 atom-5 atom-6" d="M 69.6958,93.7456 L 84.882,85.0503" style="fill:none;fill-rule:evenodd;stroke:#000000;stroke-linecap:butt;stroke-linejoin:miter;stroke-opacity:1" />
<path class="bond-5 atom-5 atom-6" d="M 73.5386,95.1742 L 84.1689,89.0875" style="fill:none;fill-rule:evenodd;stroke:#000000;stroke-linecap:butt;stroke-linejoin:miter;stroke-opacity:1" />
<path class="bond-20 atom-20 atom-5" d="M 69.6363,111.241 L 69.6958,93.7456" style="fill:none;fill-rule:evenodd;stroke:#000000;stroke-linecap:butt;stroke-linejoin:miter;stroke-opacity:1" />
<path class="bond-6 atom-6 atom-7" d="M 84.882,85.0503 L 99.9982,93.8541" style="fill:none;fill-rule:evenodd;stroke:#000000;stroke-linecap:butt;stroke-linejoin:miter;stroke-opacity:1" />
<path class="bond-7 atom-7 atom-8" d="M 99.9982,93.8541 L 99.9388,111.35" style="fill:none;fill-rule:evenodd;stroke:#000000;stroke-linecap:butt;stroke-linejoin:miter;stroke-opacity:1" />
<path class="bond-7 atom-7 atom-8" d="M 96.8401,96.4677 L 96.7985,108.715" style="fill:none;fill-rule:evenodd;stroke:#000000;stroke-linecap:butt;stroke-linejoin:miter;stroke-opacity:1" />
<path class="bond-8 atom-8 atom-9" d="M 99.9388,111.35 L 110.325,117.397" style="fill:none;fill-rule:evenodd;stroke:#000000;stroke-linecap:butt;stroke-linejoin:miter;stroke-opacity:1" />
<path class="bond-18 atom-8 atom-19" d="M 99.9388,111.35 L 84.7525,120.045" style="fill:none;fill-rule:evenodd;stroke:#000000;stroke-linecap:butt;stroke-linejoin:miter;stroke-opacity:1" />
<path class="bond-9 atom-9 atom-10" d="M 119.792,117.443 L 130.241,111.458" style="fill:none;fill-rule:evenodd;stroke:#000000;stroke-linecap:butt;stroke-linejoin:miter;stroke-opacity:1" />
<path class="bond-9 atom-9 atom-10" d="M 119.794,113.812 L 127.109,109.623" style="fill:none;fill-rule:evenodd;stroke:#000000;stroke-linecap:butt;stroke-linejoin:miter;stroke-opacity:1" />
<path class="bond-10 atom-10 atom-11" d="M 130.241,111.458 L 140.628,117.506" style="fill:none;fill-rule:evenodd;stroke:#000000;stroke-linecap:butt;stroke-linejoin:miter;stroke-opacity:1" />
<path class="bond-11 atom-11 atom-12" d="M 145.339,126.363 L 145.298,137.758" style="fill:none;fill-rule:evenodd;stroke:#000000;stroke-linecap:butt;stroke-linejoin:miter;stroke-opacity:1" />
<path class="bond-12 atom-11 atom-13" d="M 150.094,117.551 L 160.544,111.567" style="fill:none;fill-rule:evenodd;stroke:#000000;stroke-linecap:butt;stroke-linejoin:miter;stroke-opacity:1" />
<path class="bond-13 atom-13 atom-14" d="M 160.544,111.567 L 160.607,94.071" style="fill:none;fill-rule:evenodd;stroke:#000000;stroke-linecap:butt;stroke-linejoin:miter;stroke-opacity:1" />
<path class="bond-13 atom-13 atom-14" d="M 163.702,108.954 L 163.746,96.7067" style="fill:none;fill-rule:evenodd;stroke:#000000;stroke-linecap:butt;stroke-linejoin:miter;stroke-opacity:1" />
<path class="bond-21 atom-18 atom-13" d="M 175.663,120.37 L 160.544,111.567" style="fill:none;fill-rule:evenodd;stroke:#000000;stroke-linecap:butt;stroke-linejoin:miter;stroke-opacity:1" />
<path class="bond-14 atom-14 atom-15" d="M 160.607,94.071 L 175.789,85.3792" style="fill:none;fill-rule:evenodd;stroke:#000000;stroke-linecap:butt;stroke-linejoin:miter;stroke-opacity:1" />
<path class="bond-15 atom-15 atom-16" d="M 175.789,85.3792 L 190.909,94.183" style="fill:none;fill-rule:evenodd;stroke:#000000;stroke-linecap:butt;stroke-linejoin:miter;stroke-opacity:1" />
<path class="bond-15 atom-15 atom-16" d="M 176.473,89.4212 L 187.056,95.5839" style="fill:none;fill-rule:evenodd;stroke:#000000;stroke-linecap:butt;stroke-linejoin:miter;stroke-opacity:1" />
<path class="bond-16 atom-16 atom-17" d="M 190.909,94.183 L 190.846,111.675" style="fill:none;fill-rule:evenodd;stroke:#000000;stroke-linecap:butt;stroke-linejoin:miter;stroke-opacity:1" />
<path class="bond-17 atom-17 atom-18" d="M 190.846,111.675 L 175.663,120.37" style="fill:none;fill-rule:evenodd;stroke:#000000;stroke-linecap:butt;stroke-linejoin:miter;stroke-opacity:1" />
<path class="bond-17 atom-17 atom-18" d="M 187.004,110.247 L 176.376,116.333" style="fill:none;fill-rule:evenodd;stroke:#000000;stroke-linecap:butt;stroke-linejoin:miter;stroke-opacity:1" />
<path class="bond-19 atom-19 atom-20" d="M 84.7525,120.045 L 69.6363,111.241" style="fill:none;fill-rule:evenodd;stroke:#000000;stroke-linecap:butt;stroke-linejoin:miter;stroke-opacity:1" />
<path class="bond-19 atom-19 atom-20" d="M 84.07,116.003 L 73.4887,109.84" style="fill:none;fill-rule:evenodd;stroke:#000000;stroke-linecap:butt;stroke-linejoin:miter;stroke-opacity:1" />
<path class="atom-2" d="M 34.1934 93.6691 Q 34.1934 90.9491, 35.5374 89.4291 Q 36.8814 87.9091, 39.3934 87.9091 Q 41.9054 87.9091, 43.2494 89.4291 Q 44.5934 90.9491, 44.5934 93.6691 Q 44.5934 96.4211, 43.2334 97.9891 Q 41.8734 99.5411, 39.3934 99.5411 Q 36.8974 99.5411, 35.5374 97.9891 Q 34.1934 96.4371, 34.1934 93.6691 M 39.3934 98.2611 Q 41.1214 98.2611, 42.0494 97.1091 Q 42.9934 95.9411, 42.9934 93.6691 Q 42.9934 91.4451, 42.0494 90.3251 Q 41.1214 89.1891, 39.3934 89.1891 Q 37.6654 89.1891, 36.7214 90.3091 Q 35.7934 91.4291, 35.7934 93.6691 Q 35.7934 95.9571, 36.7214 97.1091 Q 37.6654 98.2611, 39.3934 98.2611 " fill="#000000" />
<path class="atom-4" d="M 49.4426 67.4816 Q 49.4426 64.7616, 50.7866 63.2416 Q 52.1306 61.7216, 54.6426 61.7216 Q 57.1546 61.7216, 58.4986 63.2416 Q 59.8426 64.7616, 59.8426 67.4816 Q 59.8426 70.2336, 58.4826 71.8016 Q 57.1226 73.3536, 54.6426 73.3536 Q 52.1466 73.3536, 50.7866 71.8016 Q 49.4426 70.2496, 49.4426 67.4816 M 54.6426 72.0736 Q 56.3706 72.0736, 57.2986 70.9216 Q 58.2426 69.7536, 58.2426 67.4816 Q 58.2426 65.2576, 57.2986 64.1376 Q 56.3706 63.0016, 54.6426 63.0016 Q 52.9146 63.0016, 51.9706 64.1216 Q 51.0426 65.2416, 51.0426 67.4816 Q 51.0426 69.7696, 51.9706 70.9216 Q 52.9146 72.0736, 54.6426 72.0736 " fill="#000000" />
<path class="atom-9" d="M 112.554 114.49 L 116.266 120.49 Q 116.634 121.082, 117.226 122.154 Q 117.818 123.226, 117.85 123.29 L 117.85 114.49 L 119.354 114.49 L 119.354 125.818 L 117.802 125.818 L 113.818 119.258 Q 113.354 118.49, 112.858 117.61 Q 112.378 116.73, 112.234 116.458 L 112.234 125.818 L 110.762 125.818 L 110.762 114.49 L 112.554 114.49 " fill="#000000" />
<path class="atom-11" d="M 142.857 114.598 L 146.569 120.598 Q 146.937 121.19, 147.529 122.262 Q 148.121 123.334, 148.153 123.398 L 148.153 114.598 L 149.657 114.598 L 149.657 125.926 L 148.105 125.926 L 144.121 119.366 Q 143.657 118.598, 143.161 117.718 Q 142.681 116.838, 142.537 116.566 L 142.537 125.926 L 141.065 125.926 L 141.065 114.598 L 142.857 114.598 " fill="#000000" />
</svg></g></g>
   <g id="text_1">
    
    <g style="fill:#262626;" transform="translate(74.489062 29.7555)scale(0.12 -0.12)">
     <defs>
      <path d="M 19.671875 34.8125  L 19.671875 8.109375  L 35.5 8.109375  Q 43.453125 8.109375 47.28125 11.40625  Q 51.125 14.703125 51.125 21.484375  Q 51.125 28.328125 47.28125 31.5625  Q 43.453125 34.8125 35.5 34.8125  z M 19.671875 64.796875  L 19.671875 42.828125  L 34.28125 42.828125  Q 41.5 42.828125 45.03125 45.53125  Q 48.578125 48.25 48.578125 53.8125  Q 48.578125 59.328125 45.03125 62.0625  Q 41.5 64.796875 34.28125 64.796875  z M 9.8125 72.90625  L 35.015625 72.90625  Q 46.296875 72.90625 52.390625 68.21875  Q 58.5 63.53125 58.5 54.890625  Q 58.5 48.1875 55.375 44.234375  Q 52.25 40.28125 46.1875 39.3125  Q 53.46875 37.75 57.5 32.78125  Q 61.53125 27.828125 61.53125 20.40625  Q 61.53125 10.640625 54.890625 5.3125  Q 48.25 0 35.984375 0  L 9.8125 0  z " id="DejaVuSans-66" />
      <path d="M 34.28125 27.484375  Q 23.390625 27.484375 19.1875 25  Q 14.984375 22.515625 14.984375 16.5  Q 14.984375 11.71875 18.140625 8.90625  Q 21.296875 6.109375 26.703125 6.109375  Q 34.1875 6.109375 38.703125 11.40625  Q 43.21875 16.703125 43.21875 25.484375  L 43.21875 27.484375  z M 52.203125 31.203125  L 52.203125 0  L 43.21875 0  L 43.21875 8.296875  Q 40.140625 3.328125 35.546875 0.953125  Q 30.953125 -1.421875 24.3125 -1.421875  Q 15.921875 -1.421875 10.953125 3.296875  Q 6 8.015625 6 15.921875  Q 6 25.140625 12.171875 29.828125  Q 18.359375 34.515625 30.609375 34.515625  L 43.21875 34.515625  L 43.21875 35.40625  Q 43.21875 41.609375 39.140625 45  Q 35.0625 48.390625 27.6875 48.390625  Q 23 48.390625 18.546875 47.265625  Q 14.109375 46.140625 10.015625 43.890625  L 10.015625 52.203125  Q 14.9375 54.109375 19.578125 55.046875  Q 24.21875 56 28.609375 56  Q 40.484375 56 46.34375 49.84375  Q 52.203125 43.703125 52.203125 31.203125  z " id="DejaVuSans-97" />
      <path d="M 44.28125 53.078125  L 44.28125 44.578125  Q 40.484375 46.53125 36.375 47.5  Q 32.28125 48.484375 27.875 48.484375  Q 21.1875 48.484375 17.84375 46.4375  Q 14.5 44.390625 14.5 40.28125  Q 14.5 37.15625 16.890625 35.375  Q 19.28125 33.59375 26.515625 31.984375  L 29.59375 31.296875  Q 39.15625 29.25 43.1875 25.515625  Q 47.21875 21.78125 47.21875 15.09375  Q 47.21875 7.46875 41.1875 3.015625  Q 35.15625 -1.421875 24.609375 -1.421875  Q 20.21875 -1.421875 15.453125 -0.5625  Q 10.6875 0.296875 5.421875 2  L 5.421875 11.28125  Q 10.40625 8.6875 15.234375 7.390625  Q 20.0625 6.109375 24.8125 6.109375  Q 31.15625 6.109375 34.5625 8.28125  Q 37.984375 10.453125 37.984375 14.40625  Q 37.984375 18.0625 35.515625 20.015625  Q 33.0625 21.96875 24.703125 23.78125  L 21.578125 24.515625  Q 13.234375 26.265625 9.515625 29.90625  Q 5.8125 33.546875 5.8125 39.890625  Q 5.8125 47.609375 11.28125 51.796875  Q 16.75 56 26.8125 56  Q 31.78125 56 36.171875 55.265625  Q 40.578125 54.546875 44.28125 53.078125  z " id="DejaVuSans-115" />
      <path d="M 56.203125 29.59375  L 56.203125 25.203125  L 14.890625 25.203125  Q 15.484375 15.921875 20.484375 11.0625  Q 25.484375 6.203125 34.421875 6.203125  Q 39.59375 6.203125 44.453125 7.46875  Q 49.3125 8.734375 54.109375 11.28125  L 54.109375 2.78125  Q 49.265625 0.734375 44.1875 -0.34375  Q 39.109375 -1.421875 33.890625 -1.421875  Q 20.796875 -1.421875 13.15625 6.1875  Q 5.515625 13.8125 5.515625 26.8125  Q 5.515625 40.234375 12.765625 48.109375  Q 20.015625 56 32.328125 56  Q 43.359375 56 49.78125 48.890625  Q 56.203125 41.796875 56.203125 29.59375  z M 47.21875 32.234375  Q 47.125 39.59375 43.09375 43.984375  Q 39.0625 48.390625 32.421875 48.390625  Q 24.90625 48.390625 20.390625 44.140625  Q 15.875 39.890625 15.1875 32.171875  z " id="DejaVuSans-101" />
     </defs>
     <use ns4:href="#DejaVuSans-66" />
     <use x="68.603516" ns4:href="#DejaVuSans-97" />
     <use x="129.882812" ns4:href="#DejaVuSans-115" />
     <use x="181.982422" ns4:href="#DejaVuSans-101" />
    </g>
    
    <g style="fill:#262626;" transform="translate(50.571562 43.192875)scale(0.12 -0.12)">
     <defs>
      <path d="M 37.109375 75.984375  L 37.109375 68.5  L 28.515625 68.5  Q 23.6875 68.5 21.796875 66.546875  Q 19.921875 64.59375 19.921875 59.515625  L 19.921875 54.6875  L 34.71875 54.6875  L 34.71875 47.703125  L 19.921875 47.703125  L 19.921875 0  L 10.890625 0  L 10.890625 47.703125  L 2.296875 47.703125  L 2.296875 54.6875  L 10.890625 54.6875  L 10.890625 58.5  Q 10.890625 67.625 15.140625 71.796875  Q 19.390625 75.984375 28.609375 75.984375  z " id="DejaVuSans-102" />
      <path d="M 31 75.875  Q 24.46875 64.65625 21.28125 53.65625  Q 18.109375 42.671875 18.109375 31.390625  Q 18.109375 20.125 21.3125 9.0625  Q 24.515625 -2 31 -13.1875  L 23.1875 -13.1875  Q 15.875 -1.703125 12.234375 9.375  Q 8.59375 20.453125 8.59375 31.390625  Q 8.59375 42.28125 12.203125 53.3125  Q 15.828125 64.359375 23.1875 75.875  z " id="DejaVuSans-40" />
      <path d="M 54.890625 54.6875  L 35.109375 28.078125  L 55.90625 0  L 45.3125 0  L 29.390625 21.484375  L 13.484375 0  L 2.875 0  L 24.125 28.609375  L 4.6875 54.6875  L 15.28125 54.6875  L 29.78125 35.203125  L 44.28125 54.6875  z " id="DejaVuSans-120" />
      <path d="M 8.015625 75.875  L 15.828125 75.875  Q 23.140625 64.359375 26.78125 53.3125  Q 30.421875 42.28125 30.421875 31.390625  Q 30.421875 20.453125 26.78125 9.375  Q 23.140625 -1.703125 15.828125 -13.1875  L 8.015625 -13.1875  Q 14.5 -2 17.703125 9.0625  Q 20.90625 20.125 20.90625 31.390625  Q 20.90625 42.671875 17.703125 53.65625  Q 14.5 64.65625 8.015625 75.875  z " id="DejaVuSans-41" />
      <path id="DejaVuSans-32" />
      <path d="M 10.59375 45.40625  L 73.1875 45.40625  L 73.1875 37.203125  L 10.59375 37.203125  z M 10.59375 25.484375  L 73.1875 25.484375  L 73.1875 17.1875  L 10.59375 17.1875  z " id="DejaVuSans-61" />
      <path d="M 4.890625 31.390625  L 31.203125 31.390625  L 31.203125 23.390625  L 4.890625 23.390625  z " id="DejaVuSans-45" />
      <path d="M 37.796875 64.3125  L 12.890625 25.390625  L 37.796875 25.390625  z M 35.203125 72.90625  L 47.609375 72.90625  L 47.609375 25.390625  L 58.015625 25.390625  L 58.015625 17.1875  L 47.609375 17.1875  L 47.609375 0  L 37.796875 0  L 37.796875 17.1875  L 4.890625 17.1875  L 4.890625 26.703125  z " id="DejaVuSans-52" />
      <path d="M 10.6875 12.40625  L 21 12.40625  L 21 0  L 10.6875 0  z " id="DejaVuSans-46" />
      <path d="M 8.203125 72.90625  L 55.078125 72.90625  L 55.078125 68.703125  L 28.609375 0  L 18.3125 0  L 43.21875 64.59375  L 8.203125 64.59375  z " id="DejaVuSans-55" />
      <path d="M 31.78125 66.40625  Q 24.171875 66.40625 20.328125 58.90625  Q 16.5 51.421875 16.5 36.375  Q 16.5 21.390625 20.328125 13.890625  Q 24.171875 6.390625 31.78125 6.390625  Q 39.453125 6.390625 43.28125 13.890625  Q 47.125 21.390625 47.125 36.375  Q 47.125 51.421875 43.28125 58.90625  Q 39.453125 66.40625 31.78125 66.40625  z M 31.78125 74.21875  Q 44.046875 74.21875 50.515625 64.515625  Q 56.984375 54.828125 56.984375 36.375  Q 56.984375 17.96875 50.515625 8.265625  Q 44.046875 -1.421875 31.78125 -1.421875  Q 19.53125 -1.421875 13.0625 8.265625  Q 6.59375 17.96875 6.59375 36.375  Q 6.59375 54.828125 13.0625 64.515625  Q 19.53125 74.21875 31.78125 74.21875  z " id="DejaVuSans-48" />
      <path d="M 31.78125 34.625  Q 24.75 34.625 20.71875 30.859375  Q 16.703125 27.09375 16.703125 20.515625  Q 16.703125 13.921875 20.71875 10.15625  Q 24.75 6.390625 31.78125 6.390625  Q 38.8125 6.390625 42.859375 10.171875  Q 46.921875 13.96875 46.921875 20.515625  Q 46.921875 27.09375 42.890625 30.859375  Q 38.875 34.625 31.78125 34.625  z M 21.921875 38.8125  Q 15.578125 40.375 12.03125 44.71875  Q 8.5 49.078125 8.5 55.328125  Q 8.5 64.0625 14.71875 69.140625  Q 20.953125 74.21875 31.78125 74.21875  Q 42.671875 74.21875 48.875 69.140625  Q 55.078125 64.0625 55.078125 55.328125  Q 55.078125 49.078125 51.53125 44.71875  Q 48 40.375 41.703125 38.8125  Q 48.828125 37.15625 52.796875 32.3125  Q 56.78125 27.484375 56.78125 20.515625  Q 56.78125 9.90625 50.3125 4.234375  Q 43.84375 -1.421875 31.78125 -1.421875  Q 19.734375 -1.421875 13.25 4.234375  Q 6.78125 9.90625 6.78125 20.515625  Q 6.78125 27.484375 10.78125 32.3125  Q 14.796875 37.15625 21.921875 38.8125  z M 18.3125 54.390625  Q 18.3125 48.734375 21.84375 45.5625  Q 25.390625 42.390625 31.78125 42.390625  Q 38.140625 42.390625 41.71875 45.5625  Q 45.3125 48.734375 45.3125 54.390625  Q 45.3125 60.0625 41.71875 63.234375  Q 38.140625 66.40625 31.78125 66.40625  Q 25.390625 66.40625 21.84375 63.234375  Q 18.3125 60.0625 18.3125 54.390625  z " id="DejaVuSans-56" />
     </defs>
     <use ns4:href="#DejaVuSans-102" />
     <use x="35.205078" ns4:href="#DejaVuSans-40" />
     <use x="74.21875" ns4:href="#DejaVuSans-120" />
     <use x="133.398438" ns4:href="#DejaVuSans-41" />
     <use x="172.412109" ns4:href="#DejaVuSans-32" />
     <use x="204.199219" ns4:href="#DejaVuSans-61" />
     <use x="287.988281" ns4:href="#DejaVuSans-32" />
     <use x="319.775391" ns4:href="#DejaVuSans-45" />
     <use x="355.859375" ns4:href="#DejaVuSans-52" />
     <use x="419.482422" ns4:href="#DejaVuSans-46" />
     <use x="451.269531" ns4:href="#DejaVuSans-55" />
     <use x="514.892578" ns4:href="#DejaVuSans-48" />
     <use x="578.515625" ns4:href="#DejaVuSans-56" />
    </g>
   </g>
  </g>
  <g id="axes_2">
   <g clip-path="url(#pa8a4273bc1)">
    <g id="rdkit-img-1-g"><svg baseProfile="full" height="164.0" version="1.1" viewBox="0 0 200 200" width="164.0" x="183.96" y="48.992875" xml:space="preserve">

<rect height="200" style="opacity:1.0;fill:#FFFFFF;stroke:none" width="200" x="0" y="0"> </rect>
<path d="M 54.5761,86.0009 L 54.6426,68.5053" style="fill:none;fill-rule:evenodd;stroke:#1BBC9B;stroke-width:5.6px;stroke-linecap:butt;stroke-linejoin:miter;stroke-opacity:1" />
<ellipse cx="54.5761" cy="86.0009" rx="5.24869" ry="5.24869" style="fill:#1BBC9B;fill-rule:evenodd;stroke:#1BBC9B;stroke-width:1.0px;stroke-linecap:butt;stroke-linejoin:miter;stroke-opacity:1" />
<ellipse cx="54.6426" cy="68.6573" rx="5.24869" ry="8.20244" style="fill:#1BBC9B;fill-rule:evenodd;stroke:#1BBC9B;stroke-width:1.0px;stroke-linecap:butt;stroke-linejoin:miter;stroke-opacity:1" />
<path class="bond-0 atom-0 atom-1" d="M 9.09091,94.5843 L 24.2736,85.8925" style="fill:none;fill-rule:evenodd;stroke:#000000;stroke-linecap:butt;stroke-linejoin:miter;stroke-opacity:1" />
<path class="bond-1 atom-1 atom-2" d="M 24.2736,85.8925 L 33.756,91.4116" style="fill:none;fill-rule:evenodd;stroke:#000000;stroke-linecap:butt;stroke-linejoin:miter;stroke-opacity:1" />
<path class="bond-2 atom-2 atom-3" d="M 45.0307,91.4655 L 54.5761,86.0009" style="fill:none;fill-rule:evenodd;stroke:#000000;stroke-linecap:butt;stroke-linejoin:miter;stroke-opacity:1" />
<path class="bond-3 atom-3 atom-4" d="M 56.1507,86.0069 L 56.1929,74.9007" style="fill:none;fill-rule:evenodd;stroke:#000000;stroke-linecap:butt;stroke-linejoin:miter;stroke-opacity:1" />
<path class="bond-3 atom-3 atom-4" d="M 53.0015,85.995 L 53.0437,74.8887" style="fill:none;fill-rule:evenodd;stroke:#000000;stroke-linecap:butt;stroke-linejoin:miter;stroke-opacity:1" />
<path class="bond-4 atom-3 atom-5" d="M 54.5761,86.0009 L 69.6958,94.8012" style="fill:none;fill-rule:evenodd;stroke:#000000;stroke-linecap:butt;stroke-linejoin:miter;stroke-opacity:1" />
<path class="bond-5 atom-5 atom-6" d="M 69.6958,94.8012 L 84.882,86.1059" style="fill:none;fill-rule:evenodd;stroke:#000000;stroke-linecap:butt;stroke-linejoin:miter;stroke-opacity:1" />
<path class="bond-5 atom-5 atom-6" d="M 73.5386,96.2299 L 84.1689,90.1431" style="fill:none;fill-rule:evenodd;stroke:#000000;stroke-linecap:butt;stroke-linejoin:miter;stroke-opacity:1" />
<path class="bond-20 atom-20 atom-5" d="M 69.6363,112.297 L 69.6958,94.8012" style="fill:none;fill-rule:evenodd;stroke:#000000;stroke-linecap:butt;stroke-linejoin:miter;stroke-opacity:1" />
<path class="bond-6 atom-6 atom-7" d="M 84.882,86.1059 L 99.9982,94.9097" style="fill:none;fill-rule:evenodd;stroke:#000000;stroke-linecap:butt;stroke-linejoin:miter;stroke-opacity:1" />
<path class="bond-7 atom-7 atom-8" d="M 99.9982,94.9097 L 99.9388,112.405" style="fill:none;fill-rule:evenodd;stroke:#000000;stroke-linecap:butt;stroke-linejoin:miter;stroke-opacity:1" />
<path class="bond-7 atom-7 atom-8" d="M 96.8401,97.5234 L 96.7985,109.77" style="fill:none;fill-rule:evenodd;stroke:#000000;stroke-linecap:butt;stroke-linejoin:miter;stroke-opacity:1" />
<path class="bond-8 atom-8 atom-9" d="M 99.9388,112.405 L 110.325,118.453" style="fill:none;fill-rule:evenodd;stroke:#000000;stroke-linecap:butt;stroke-linejoin:miter;stroke-opacity:1" />
<path class="bond-18 atom-8 atom-19" d="M 99.9388,112.405 L 84.7525,121.101" style="fill:none;fill-rule:evenodd;stroke:#000000;stroke-linecap:butt;stroke-linejoin:miter;stroke-opacity:1" />
<path class="bond-9 atom-9 atom-10" d="M 119.792,118.498 L 130.241,112.514" style="fill:none;fill-rule:evenodd;stroke:#000000;stroke-linecap:butt;stroke-linejoin:miter;stroke-opacity:1" />
<path class="bond-9 atom-9 atom-10" d="M 119.794,114.868 L 127.109,110.679" style="fill:none;fill-rule:evenodd;stroke:#000000;stroke-linecap:butt;stroke-linejoin:miter;stroke-opacity:1" />
<path class="bond-10 atom-10 atom-11" d="M 130.241,112.514 L 140.628,118.562" style="fill:none;fill-rule:evenodd;stroke:#000000;stroke-linecap:butt;stroke-linejoin:miter;stroke-opacity:1" />
<path class="bond-11 atom-11 atom-12" d="M 145.339,127.419 L 145.298,138.813" style="fill:none;fill-rule:evenodd;stroke:#000000;stroke-linecap:butt;stroke-linejoin:miter;stroke-opacity:1" />
<path class="bond-12 atom-11 atom-13" d="M 150.094,118.607 L 160.544,112.622" style="fill:none;fill-rule:evenodd;stroke:#000000;stroke-linecap:butt;stroke-linejoin:miter;stroke-opacity:1" />
<path class="bond-13 atom-13 atom-14" d="M 160.544,112.622 L 160.607,95.1267" style="fill:none;fill-rule:evenodd;stroke:#000000;stroke-linecap:butt;stroke-linejoin:miter;stroke-opacity:1" />
<path class="bond-13 atom-13 atom-14" d="M 163.702,110.009 L 163.746,97.7624" style="fill:none;fill-rule:evenodd;stroke:#000000;stroke-linecap:butt;stroke-linejoin:miter;stroke-opacity:1" />
<path class="bond-21 atom-18 atom-13" d="M 175.663,121.426 L 160.544,112.622" style="fill:none;fill-rule:evenodd;stroke:#000000;stroke-linecap:butt;stroke-linejoin:miter;stroke-opacity:1" />
<path class="bond-14 atom-14 atom-15" d="M 160.607,95.1267 L 175.789,86.4348" style="fill:none;fill-rule:evenodd;stroke:#000000;stroke-linecap:butt;stroke-linejoin:miter;stroke-opacity:1" />
<path class="bond-15 atom-15 atom-16" d="M 175.789,86.4348 L 190.909,95.2386" style="fill:none;fill-rule:evenodd;stroke:#000000;stroke-linecap:butt;stroke-linejoin:miter;stroke-opacity:1" />
<path class="bond-15 atom-15 atom-16" d="M 176.473,90.4769 L 187.056,96.6396" style="fill:none;fill-rule:evenodd;stroke:#000000;stroke-linecap:butt;stroke-linejoin:miter;stroke-opacity:1" />
<path class="bond-16 atom-16 atom-17" d="M 190.909,95.2386 L 190.846,112.731" style="fill:none;fill-rule:evenodd;stroke:#000000;stroke-linecap:butt;stroke-linejoin:miter;stroke-opacity:1" />
<path class="bond-17 atom-17 atom-18" d="M 190.846,112.731 L 175.663,121.426" style="fill:none;fill-rule:evenodd;stroke:#000000;stroke-linecap:butt;stroke-linejoin:miter;stroke-opacity:1" />
<path class="bond-17 atom-17 atom-18" d="M 187.004,111.302 L 176.376,117.389" style="fill:none;fill-rule:evenodd;stroke:#000000;stroke-linecap:butt;stroke-linejoin:miter;stroke-opacity:1" />
<path class="bond-19 atom-19 atom-20" d="M 84.7525,121.101 L 69.6363,112.297" style="fill:none;fill-rule:evenodd;stroke:#000000;stroke-linecap:butt;stroke-linejoin:miter;stroke-opacity:1" />
<path class="bond-19 atom-19 atom-20" d="M 84.07,117.059 L 73.4887,110.896" style="fill:none;fill-rule:evenodd;stroke:#000000;stroke-linecap:butt;stroke-linejoin:miter;stroke-opacity:1" />
<path class="atom-2" d="M 34.1934 94.7248 Q 34.1934 92.0048, 35.5374 90.4848 Q 36.8814 88.9648, 39.3934 88.9648 Q 41.9054 88.9648, 43.2494 90.4848 Q 44.5934 92.0048, 44.5934 94.7248 Q 44.5934 97.4768, 43.2334 99.0448 Q 41.8734 100.597, 39.3934 100.597 Q 36.8974 100.597, 35.5374 99.0448 Q 34.1934 97.4928, 34.1934 94.7248 M 39.3934 99.3168 Q 41.1214 99.3168, 42.0494 98.1648 Q 42.9934 96.9968, 42.9934 94.7248 Q 42.9934 92.5008, 42.0494 91.3808 Q 41.1214 90.2448, 39.3934 90.2448 Q 37.6654 90.2448, 36.7214 91.3648 Q 35.7934 92.4848, 35.7934 94.7248 Q 35.7934 97.0128, 36.7214 98.1648 Q 37.6654 99.3168, 39.3934 99.3168 " fill="#000000" />
<path class="atom-4" d="M 51.4426 72.3933 Q 51.5706 72.4413, 52.0986 72.6653 Q 52.6266 72.8893, 53.2026 73.0333 Q 53.7946 73.1613, 54.3706 73.1613 Q 55.4426 73.1613, 56.0666 72.6493 Q 56.6906 72.1213, 56.6906 71.2093 Q 56.6906 70.5853, 56.3706 70.2013 Q 56.0666 69.8173, 55.5866 69.6093 Q 55.1066 69.4013, 54.3066 69.1613 Q 53.2986 68.8573, 52.6906 68.5693 Q 52.0986 68.2813, 51.6666 67.6733 Q 51.2506 67.0653, 51.2506 66.0413 Q 51.2506 64.6173, 52.2106 63.7373 Q 53.1866 62.8573, 55.1066 62.8573 Q 56.4186 62.8573, 57.9066 63.4813 L 57.5386 64.7133 Q 56.1786 64.1533, 55.1546 64.1533 Q 54.0506 64.1533, 53.4426 64.6173 Q 52.8346 65.0653, 52.8506 65.8493 Q 52.8506 66.4573, 53.1546 66.8253 Q 53.4746 67.1933, 53.9226 67.4013 Q 54.3866 67.6093, 55.1546 67.8493 Q 56.1786 68.1693, 56.7866 68.4893 Q 57.3946 68.8093, 57.8266 69.4653 Q 58.2746 70.1053, 58.2746 71.2093 Q 58.2746 72.7773, 57.2186 73.6253 Q 56.1786 74.4573, 54.4346 74.4573 Q 53.4266 74.4573, 52.6586 74.2333 Q 51.9066 74.0253, 51.0106 73.6573 L 51.4426 72.3933 " fill="#000000" />
<path class="atom-9" d="M 112.554 115.545 L 116.266 121.545 Q 116.634 122.137, 117.226 123.209 Q 117.818 124.281, 117.85 124.345 L 117.85 115.545 L 119.354 115.545 L 119.354 126.873 L 117.802 126.873 L 113.818 120.313 Q 113.354 119.545, 112.858 118.665 Q 112.378 117.785, 112.234 117.513 L 112.234 126.873 L 110.762 126.873 L 110.762 115.545 L 112.554 115.545 " fill="#000000" />
<path class="atom-11" d="M 142.857 115.654 L 146.569 121.654 Q 146.937 122.246, 147.529 123.318 Q 148.121 124.39, 148.153 124.454 L 148.153 115.654 L 149.657 115.654 L 149.657 126.982 L 148.105 126.982 L 144.121 120.422 Q 143.657 119.654, 143.161 118.774 Q 142.681 117.894, 142.537 117.622 L 142.537 126.982 L 141.065 126.982 L 141.065 115.654 L 142.857 115.654 " fill="#000000" />
</svg></g></g>
   <g id="text_2">
    
    <g style="fill:#262626;" transform="translate(215.29125 16.318125)scale(0.12 -0.12)">
     <defs>
      <path d="M 53.515625 70.515625  L 53.515625 60.890625  Q 47.90625 63.578125 42.921875 64.890625  Q 37.9375 66.21875 33.296875 66.21875  Q 25.25 66.21875 20.875 63.09375  Q 16.5 59.96875 16.5 54.203125  Q 16.5 49.359375 19.40625 46.890625  Q 22.3125 44.4375 30.421875 42.921875  L 36.375 41.703125  Q 47.40625 39.59375 52.65625 34.296875  Q 57.90625 29 57.90625 20.125  Q 57.90625 9.515625 50.796875 4.046875  Q 43.703125 -1.421875 29.984375 -1.421875  Q 24.8125 -1.421875 18.96875 -0.25  Q 13.140625 0.921875 6.890625 3.21875  L 6.890625 13.375  Q 12.890625 10.015625 18.65625 8.296875  Q 24.421875 6.59375 29.984375 6.59375  Q 38.421875 6.59375 43.015625 9.90625  Q 47.609375 13.234375 47.609375 19.390625  Q 47.609375 24.75 44.3125 27.78125  Q 41.015625 30.8125 33.5 32.328125  L 27.484375 33.5  Q 16.453125 35.6875 11.515625 40.375  Q 6.59375 45.0625 6.59375 53.421875  Q 6.59375 63.09375 13.40625 68.65625  Q 20.21875 74.21875 32.171875 74.21875  Q 37.3125 74.21875 42.625 73.28125  Q 47.953125 72.359375 53.515625 70.515625  z " id="DejaVuSans-83" />
      <path d="M 9.421875 54.6875  L 18.40625 54.6875  L 18.40625 0  L 9.421875 0  z M 9.421875 75.984375  L 18.40625 75.984375  L 18.40625 64.59375  L 9.421875 64.59375  z " id="DejaVuSans-105" />
      <path d="M 52 44.1875  Q 55.375 50.25 60.0625 53.125  Q 64.75 56 71.09375 56  Q 79.640625 56 84.28125 50.015625  Q 88.921875 44.046875 88.921875 33.015625  L 88.921875 0  L 79.890625 0  L 79.890625 32.71875  Q 79.890625 40.578125 77.09375 44.375  Q 74.3125 48.1875 68.609375 48.1875  Q 61.625 48.1875 57.5625 43.546875  Q 53.515625 38.921875 53.515625 30.90625  L 53.515625 0  L 44.484375 0  L 44.484375 32.71875  Q 44.484375 40.625 41.703125 44.40625  Q 38.921875 48.1875 33.109375 48.1875  Q 26.21875 48.1875 22.15625 43.53125  Q 18.109375 38.875 18.109375 30.90625  L 18.109375 0  L 9.078125 0  L 9.078125 54.6875  L 18.109375 54.6875  L 18.109375 46.1875  Q 21.1875 51.21875 25.484375 53.609375  Q 29.78125 56 35.6875 56  Q 41.65625 56 45.828125 52.96875  Q 50 49.953125 52 44.1875  z " id="DejaVuSans-109" />
      <path d="M 9.421875 75.984375  L 18.40625 75.984375  L 18.40625 0  L 9.421875 0  z " id="DejaVuSans-108" />
      <path d="M 41.109375 46.296875  Q 39.59375 47.171875 37.8125 47.578125  Q 36.03125 48 33.890625 48  Q 26.265625 48 22.1875 43.046875  Q 18.109375 38.09375 18.109375 28.8125  L 18.109375 0  L 9.078125 0  L 9.078125 54.6875  L 18.109375 54.6875  L 18.109375 46.1875  Q 20.953125 51.171875 25.484375 53.578125  Q 30.03125 56 36.53125 56  Q 37.453125 56 38.578125 55.875  Q 39.703125 55.765625 41.0625 55.515625  z " id="DejaVuSans-114" />
      <path d="M 18.3125 70.21875  L 18.3125 54.6875  L 36.8125 54.6875  L 36.8125 47.703125  L 18.3125 47.703125  L 18.3125 18.015625  Q 18.3125 11.328125 20.140625 9.421875  Q 21.96875 7.515625 27.59375 7.515625  L 36.8125 7.515625  L 36.8125 0  L 27.59375 0  Q 17.1875 0 13.234375 3.875  Q 9.28125 7.765625 9.28125 18.015625  L 9.28125 47.703125  L 2.6875 47.703125  L 2.6875 54.6875  L 9.28125 54.6875  L 9.28125 70.21875  z " id="DejaVuSans-116" />
      <path d="M 32.171875 -5.078125  Q 28.375 -14.84375 24.75 -17.8125  Q 21.140625 -20.796875 15.09375 -20.796875  L 7.90625 -20.796875  L 7.90625 -13.28125  L 13.1875 -13.28125  Q 16.890625 -13.28125 18.9375 -11.515625  Q 21 -9.765625 23.484375 -3.21875  L 25.09375 0.875  L 2.984375 54.6875  L 12.5 54.6875  L 29.59375 11.921875  L 46.6875 54.6875  L 56.203125 54.6875  z " id="DejaVuSans-121" />
      <path d="M 19.1875 8.296875  L 53.609375 8.296875  L 53.609375 0  L 7.328125 0  L 7.328125 8.296875  Q 12.9375 14.109375 22.625 23.890625  Q 32.328125 33.6875 34.8125 36.53125  Q 39.546875 41.84375 41.421875 45.53125  Q 43.3125 49.21875 43.3125 52.78125  Q 43.3125 58.59375 39.234375 62.25  Q 35.15625 65.921875 28.609375 65.921875  Q 23.96875 65.921875 18.8125 64.3125  Q 13.671875 62.703125 7.8125 59.421875  L 7.8125 69.390625  Q 13.765625 71.78125 18.9375 73  Q 24.125 74.21875 28.421875 74.21875  Q 39.75 74.21875 46.484375 68.546875  Q 53.21875 62.890625 53.21875 53.421875  Q 53.21875 48.921875 51.53125 44.890625  Q 49.859375 40.875 45.40625 35.40625  Q 44.1875 33.984375 37.640625 27.21875  Q 31.109375 20.453125 19.1875 8.296875  z " id="DejaVuSans-50" />
     </defs>
     <use ns4:href="#DejaVuSans-83" />
     <use x="63.476562" ns4:href="#DejaVuSans-105" />
     <use x="91.259766" ns4:href="#DejaVuSans-109" />
     <use x="188.671875" ns4:href="#DejaVuSans-105" />
     <use x="216.455078" ns4:href="#DejaVuSans-108" />
     <use x="244.238281" ns4:href="#DejaVuSans-97" />
     <use x="305.517578" ns4:href="#DejaVuSans-114" />
     <use x="346.630859" ns4:href="#DejaVuSans-105" />
     <use x="374.414062" ns4:href="#DejaVuSans-116" />
     <use x="413.623047" ns4:href="#DejaVuSans-121" />
     <use x="472.802734" ns4:href="#DejaVuSans-32" />
     <use x="504.589844" ns4:href="#DejaVuSans-61" />
     <use x="588.378906" ns4:href="#DejaVuSans-32" />
     <use x="620.166016" ns4:href="#DejaVuSans-48" />
     <use x="683.789062" ns4:href="#DejaVuSans-46" />
     <use x="715.576172" ns4:href="#DejaVuSans-56" />
     <use x="779.199219" ns4:href="#DejaVuSans-50" />
    </g>
    
    <g style="fill:#262626;" transform="translate(223.574062 29.7555)scale(0.12 -0.12)">
     <defs>
      <path d="M 9.8125 72.90625  L 24.515625 72.90625  L 43.109375 23.296875  L 61.8125 72.90625  L 76.515625 72.90625  L 76.515625 0  L 66.890625 0  L 66.890625 64.015625  L 48.09375 14.015625  L 38.1875 14.015625  L 19.390625 64.015625  L 19.390625 0  L 9.8125 0  z " id="DejaVuSans-77" />
      <path d="M 8.5 21.578125  L 8.5 54.6875  L 17.484375 54.6875  L 17.484375 21.921875  Q 17.484375 14.15625 20.5 10.265625  Q 23.53125 6.390625 29.59375 6.390625  Q 36.859375 6.390625 41.078125 11.03125  Q 45.3125 15.671875 45.3125 23.6875  L 45.3125 54.6875  L 54.296875 54.6875  L 54.296875 0  L 45.3125 0  L 45.3125 8.40625  Q 42.046875 3.421875 37.71875 1  Q 33.40625 -1.421875 27.6875 -1.421875  Q 18.265625 -1.421875 13.375 4.4375  Q 8.5 10.296875 8.5 21.578125  z M 31.109375 56  z " id="DejaVuSans-117" />
      <path d="M 30.609375 48.390625  Q 23.390625 48.390625 19.1875 42.75  Q 14.984375 37.109375 14.984375 27.296875  Q 14.984375 17.484375 19.15625 11.84375  Q 23.34375 6.203125 30.609375 6.203125  Q 37.796875 6.203125 41.984375 11.859375  Q 46.1875 17.53125 46.1875 27.296875  Q 46.1875 37.015625 41.984375 42.703125  Q 37.796875 48.390625 30.609375 48.390625  z M 30.609375 56  Q 42.328125 56 49.015625 48.375  Q 55.71875 40.765625 55.71875 27.296875  Q 55.71875 13.875 49.015625 6.21875  Q 42.328125 -1.421875 30.609375 -1.421875  Q 18.84375 -1.421875 12.171875 6.21875  Q 5.515625 13.875 5.515625 27.296875  Q 5.515625 40.765625 12.171875 48.375  Q 18.84375 56 30.609375 56  z " id="DejaVuSans-111" />
      <path d="M 54.890625 33.015625  L 54.890625 0  L 45.90625 0  L 45.90625 32.71875  Q 45.90625 40.484375 42.875 44.328125  Q 39.84375 48.1875 33.796875 48.1875  Q 26.515625 48.1875 22.3125 43.546875  Q 18.109375 38.921875 18.109375 30.90625  L 18.109375 0  L 9.078125 0  L 9.078125 54.6875  L 18.109375 54.6875  L 18.109375 46.1875  Q 21.34375 51.125 25.703125 53.5625  Q 30.078125 56 35.796875 56  Q 45.21875 56 50.046875 50.171875  Q 54.890625 44.34375 54.890625 33.015625  z " id="DejaVuSans-110" />
      <path d="M 12.40625 8.296875  L 28.515625 8.296875  L 28.515625 63.921875  L 10.984375 60.40625  L 10.984375 69.390625  L 28.421875 72.90625  L 38.28125 72.90625  L 38.28125 8.296875  L 54.390625 8.296875  L 54.390625 0  L 12.40625 0  z " id="DejaVuSans-49" />
     </defs>
     <use ns4:href="#DejaVuSans-77" />
     <use x="86.279297" ns4:href="#DejaVuSans-117" />
     <use x="149.658203" ns4:href="#DejaVuSans-116" />
     <use x="188.867188" ns4:href="#DejaVuSans-97" />
     <use x="250.146484" ns4:href="#DejaVuSans-116" />
     <use x="289.355469" ns4:href="#DejaVuSans-105" />
     <use x="317.138672" ns4:href="#DejaVuSans-111" />
     <use x="378.320312" ns4:href="#DejaVuSans-110" />
     <use x="441.699219" ns4:href="#DejaVuSans-115" />
     <use x="493.798828" ns4:href="#DejaVuSans-32" />
     <use x="525.585938" ns4:href="#DejaVuSans-61" />
     <use x="609.375" ns4:href="#DejaVuSans-32" />
     <use x="641.162109" ns4:href="#DejaVuSans-49" />
    </g>
    
    <g style="fill:#262626;" transform="translate(227.331562 43.192875)scale(0.12 -0.12)">
     <defs>
      <path d="M 10.796875 72.90625  L 49.515625 72.90625  L 49.515625 64.59375  L 19.828125 64.59375  L 19.828125 46.734375  Q 21.96875 47.46875 24.109375 47.828125  Q 26.265625 48.1875 28.421875 48.1875  Q 40.625 48.1875 47.75 41.5  Q 54.890625 34.8125 54.890625 23.390625  Q 54.890625 11.625 47.5625 5.09375  Q 40.234375 -1.421875 26.90625 -1.421875  Q 22.3125 -1.421875 17.546875 -0.640625  Q 12.796875 0.140625 7.71875 1.703125  L 7.71875 11.625  Q 12.109375 9.234375 16.796875 8.0625  Q 21.484375 6.890625 26.703125 6.890625  Q 35.15625 6.890625 40.078125 11.328125  Q 45.015625 15.765625 45.015625 23.390625  Q 45.015625 31 40.078125 35.4375  Q 35.15625 39.890625 26.703125 39.890625  Q 22.75 39.890625 18.8125 39.015625  Q 14.890625 38.140625 10.796875 36.28125  z " id="DejaVuSans-53" />
     </defs>
     <use ns4:href="#DejaVuSans-102" />
     <use x="35.205078" ns4:href="#DejaVuSans-40" />
     <use x="74.21875" ns4:href="#DejaVuSans-120" />
     <use x="133.398438" ns4:href="#DejaVuSans-41" />
     <use x="172.412109" ns4:href="#DejaVuSans-32" />
     <use x="204.199219" ns4:href="#DejaVuSans-61" />
     <use x="287.988281" ns4:href="#DejaVuSans-32" />
     <use x="319.775391" ns4:href="#DejaVuSans-45" />
     <use x="355.859375" ns4:href="#DejaVuSans-53" />
     <use x="419.482422" ns4:href="#DejaVuSans-46" />
     <use x="451.269531" ns4:href="#DejaVuSans-56" />
     <use x="514.892578" ns4:href="#DejaVuSans-49" />
     <use x="578.515625" ns4:href="#DejaVuSans-55" />
    </g>
   </g>
  </g>
  <g id="axes_3">
   <g clip-path="url(#p82fdb694c7)">
    <g id="rdkit-img-2-g"><svg baseProfile="full" height="164.0" version="1.1" viewBox="0 0 200 200" width="164.0" x="360.72" y="48.992875" xml:space="preserve">

<rect height="200" style="opacity:1.0;fill:#FFFFFF;stroke:none" width="200" x="0" y="0"> </rect>
<path d="M 54.5769,84.2723 L 54.6399,66.7764" style="fill:none;fill-rule:evenodd;stroke:#1BBC9B;stroke-width:5.6px;stroke-linecap:butt;stroke-linejoin:miter;stroke-opacity:1" />
<ellipse cx="54.5769" cy="84.2723" rx="5.24879" ry="5.24879" style="fill:#1BBC9B;fill-rule:evenodd;stroke:#1BBC9B;stroke-width:1.0px;stroke-linecap:butt;stroke-linejoin:miter;stroke-opacity:1" />
<ellipse cx="54.6399" cy="66.9284" rx="5.24879" ry="8.20244" style="fill:#1BBC9B;fill-rule:evenodd;stroke:#1BBC9B;stroke-width:1.0px;stroke-linecap:butt;stroke-linejoin:miter;stroke-opacity:1" />
<ellipse cx="145.36" cy="125.817" rx="6.26779" ry="16.8212" style="fill:#1BBC9B;fill-rule:evenodd;stroke:#1BBC9B;stroke-width:1.0px;stroke-linecap:butt;stroke-linejoin:miter;stroke-opacity:1" />
<path class="bond-0 atom-0 atom-1" d="M 9.09091,92.8559 L 24.2739,84.1604" style="fill:none;fill-rule:evenodd;stroke:#000000;stroke-linecap:butt;stroke-linejoin:miter;stroke-opacity:1" />
<path class="bond-1 atom-1 atom-2" d="M 24.2739,84.1604 L 33.7565,89.6818" style="fill:none;fill-rule:evenodd;stroke:#000000;stroke-linecap:butt;stroke-linejoin:miter;stroke-opacity:1" />
<path class="bond-2 atom-2 atom-3" d="M 45.0313,89.737 L 54.5769,84.2723" style="fill:none;fill-rule:evenodd;stroke:#000000;stroke-linecap:butt;stroke-linejoin:miter;stroke-opacity:1" />
<path class="bond-3 atom-3 atom-4" d="M 56.1516,84.278 L 56.1916,73.1714" style="fill:none;fill-rule:evenodd;stroke:#000000;stroke-linecap:butt;stroke-linejoin:miter;stroke-opacity:1" />
<path class="bond-3 atom-3 atom-4" d="M 53.0023,84.2667 L 53.0423,73.1601" style="fill:none;fill-rule:evenodd;stroke:#000000;stroke-linecap:butt;stroke-linejoin:miter;stroke-opacity:1" />
<path class="bond-4 atom-3 atom-5" d="M 54.5769,84.2723 L 69.697,93.0728" style="fill:none;fill-rule:evenodd;stroke:#000000;stroke-linecap:butt;stroke-linejoin:miter;stroke-opacity:1" />
<path class="bond-5 atom-5 atom-6" d="M 69.697,93.0728 L 84.88,84.3773" style="fill:none;fill-rule:evenodd;stroke:#000000;stroke-linecap:butt;stroke-linejoin:miter;stroke-opacity:1" />
<path class="bond-5 atom-5 atom-6" d="M 73.5395,94.5013 L 84.1676,88.4145" style="fill:none;fill-rule:evenodd;stroke:#000000;stroke-linecap:butt;stroke-linejoin:miter;stroke-opacity:1" />
<path class="bond-19 atom-19 atom-5" d="M 69.634,110.569 L 69.697,93.0728" style="fill:none;fill-rule:evenodd;stroke:#000000;stroke-linecap:butt;stroke-linejoin:miter;stroke-opacity:1" />
<path class="bond-6 atom-6 atom-7" d="M 84.88,84.3773 L 100,93.1813" style="fill:none;fill-rule:evenodd;stroke:#000000;stroke-linecap:butt;stroke-linejoin:miter;stroke-opacity:1" />
<path class="bond-7 atom-7 atom-8" d="M 100,93.1813 L 99.9405,110.677" style="fill:none;fill-rule:evenodd;stroke:#000000;stroke-linecap:butt;stroke-linejoin:miter;stroke-opacity:1" />
<path class="bond-7 atom-7 atom-8" d="M 96.8418,95.795 L 96.8002,108.042" style="fill:none;fill-rule:evenodd;stroke:#000000;stroke-linecap:butt;stroke-linejoin:miter;stroke-opacity:1" />
<path class="bond-8 atom-8 atom-9" d="M 99.9405,110.677 L 110.324,116.722" style="fill:none;fill-rule:evenodd;stroke:#000000;stroke-linecap:butt;stroke-linejoin:miter;stroke-opacity:1" />
<path class="bond-17 atom-8 atom-18" d="M 99.9405,110.677 L 84.754,119.373" style="fill:none;fill-rule:evenodd;stroke:#000000;stroke-linecap:butt;stroke-linejoin:miter;stroke-opacity:1" />
<path class="bond-9 atom-9 atom-10" d="M 119.79,116.768 L 130.24,110.786" style="fill:none;fill-rule:evenodd;stroke:#000000;stroke-linecap:butt;stroke-linejoin:miter;stroke-opacity:1" />
<path class="bond-9 atom-9 atom-10" d="M 119.793,113.138 L 127.108,108.95" style="fill:none;fill-rule:evenodd;stroke:#000000;stroke-linecap:butt;stroke-linejoin:miter;stroke-opacity:1" />
<path class="bond-10 atom-10 atom-11" d="M 130.24,110.786 L 140.627,116.831" style="fill:none;fill-rule:evenodd;stroke:#000000;stroke-linecap:butt;stroke-linejoin:miter;stroke-opacity:1" />
<path class="bond-11 atom-11 atom-12" d="M 150.094,116.877 L 160.547,110.894" style="fill:none;fill-rule:evenodd;stroke:#000000;stroke-linecap:butt;stroke-linejoin:miter;stroke-opacity:1" />
<path class="bond-12 atom-12 atom-13" d="M 160.547,110.894 L 160.606,93.3982" style="fill:none;fill-rule:evenodd;stroke:#000000;stroke-linecap:butt;stroke-linejoin:miter;stroke-opacity:1" />
<path class="bond-12 atom-12 atom-13" d="M 163.705,108.281 L 163.746,96.0333" style="fill:none;fill-rule:evenodd;stroke:#000000;stroke-linecap:butt;stroke-linejoin:miter;stroke-opacity:1" />
<path class="bond-20 atom-17 atom-12" d="M 175.663,119.698 L 160.547,110.894" style="fill:none;fill-rule:evenodd;stroke:#000000;stroke-linecap:butt;stroke-linejoin:miter;stroke-opacity:1" />
<path class="bond-13 atom-13 atom-14" d="M 160.606,93.3982 L 175.793,84.7027" style="fill:none;fill-rule:evenodd;stroke:#000000;stroke-linecap:butt;stroke-linejoin:miter;stroke-opacity:1" />
<path class="bond-14 atom-14 atom-15" d="M 175.793,84.7027 L 190.909,93.5067" style="fill:none;fill-rule:evenodd;stroke:#000000;stroke-linecap:butt;stroke-linejoin:miter;stroke-opacity:1" />
<path class="bond-14 atom-14 atom-15" d="M 176.475,88.7447 L 187.057,94.9075" style="fill:none;fill-rule:evenodd;stroke:#000000;stroke-linecap:butt;stroke-linejoin:miter;stroke-opacity:1" />
<path class="bond-15 atom-15 atom-16" d="M 190.909,93.5067 L 190.85,111.003" style="fill:none;fill-rule:evenodd;stroke:#000000;stroke-linecap:butt;stroke-linejoin:miter;stroke-opacity:1" />
<path class="bond-16 atom-16 atom-17" d="M 190.85,111.003 L 175.663,119.698" style="fill:none;fill-rule:evenodd;stroke:#000000;stroke-linecap:butt;stroke-linejoin:miter;stroke-opacity:1" />
<path class="bond-16 atom-16 atom-17" d="M 187.007,109.574 L 176.376,115.661" style="fill:none;fill-rule:evenodd;stroke:#000000;stroke-linecap:butt;stroke-linejoin:miter;stroke-opacity:1" />
<path class="bond-18 atom-18 atom-19" d="M 84.754,119.373 L 69.634,110.569" style="fill:none;fill-rule:evenodd;stroke:#000000;stroke-linecap:butt;stroke-linejoin:miter;stroke-opacity:1" />
<path class="bond-18 atom-18 atom-19" d="M 84.0707,115.331 L 73.4867,109.168" style="fill:none;fill-rule:evenodd;stroke:#000000;stroke-linecap:butt;stroke-linejoin:miter;stroke-opacity:1" />
<path class="atom-2" d="M 34.1939 92.9963 Q 34.1939 90.2763, 35.5379 88.7563 Q 36.8819 87.2363, 39.3939 87.2363 Q 41.9059 87.2363, 43.2499 88.7563 Q 44.5939 90.2763, 44.5939 92.9963 Q 44.5939 95.7483, 43.2339 97.3163 Q 41.8739 98.8683, 39.3939 98.8683 Q 36.8979 98.8683, 35.5379 97.3163 Q 34.1939 95.7643, 34.1939 92.9963 M 39.3939 97.5883 Q 41.1219 97.5883, 42.0499 96.4363 Q 42.9939 95.2683, 42.9939 92.9963 Q 42.9939 90.7723, 42.0499 89.6523 Q 41.1219 88.5163, 39.3939 88.5163 Q 37.6659 88.5163, 36.7219 89.6363 Q 35.7939 90.7563, 35.7939 92.9963 Q 35.7939 95.2843, 36.7219 96.4363 Q 37.6659 97.5883, 39.3939 97.5883 " fill="#000000" />
<path class="atom-4" d="M 51.4399 70.6644 Q 51.5679 70.7124, 52.0959 70.9364 Q 52.6239 71.1604, 53.1999 71.3044 Q 53.7919 71.4324, 54.3679 71.4324 Q 55.4399 71.4324, 56.0639 70.9204 Q 56.6879 70.3924, 56.6879 69.4804 Q 56.6879 68.8564, 56.3679 68.4724 Q 56.0639 68.0884, 55.5839 67.8804 Q 55.1039 67.6724, 54.3039 67.4324 Q 53.2959 67.1284, 52.6879 66.8404 Q 52.0959 66.5524, 51.6639 65.9444 Q 51.2479 65.3364, 51.2479 64.3124 Q 51.2479 62.8884, 52.2079 62.0084 Q 53.1839 61.1284, 55.1039 61.1284 Q 56.4159 61.1284, 57.9039 61.7524 L 57.5359 62.9844 Q 56.1759 62.4244, 55.1519 62.4244 Q 54.0479 62.4244, 53.4399 62.8884 Q 52.8319 63.3364, 52.8479 64.1204 Q 52.8479 64.7284, 53.1519 65.0964 Q 53.4719 65.4644, 53.9199 65.6724 Q 54.3839 65.8804, 55.1519 66.1204 Q 56.1759 66.4404, 56.7839 66.7604 Q 57.3919 67.0804, 57.8239 67.7364 Q 58.2719 68.3764, 58.2719 69.4804 Q 58.2719 71.0484, 57.2159 71.8964 Q 56.1759 72.7284, 54.4319 72.7284 Q 53.4239 72.7284, 52.6559 72.5044 Q 51.9039 72.2964, 51.0079 71.9284 L 51.4399 70.6644 " fill="#000000" />
<path class="atom-9" d="M 112.553 113.814 L 116.265 119.814 Q 116.633 120.406, 117.225 121.478 Q 117.817 122.55, 117.849 122.614 L 117.849 113.814 L 119.353 113.814 L 119.353 125.142 L 117.801 125.142 L 113.817 118.582 Q 113.353 117.814, 112.857 116.934 Q 112.377 116.054, 112.233 115.782 L 112.233 125.142 L 110.761 125.142 L 110.761 113.814 L 112.553 113.814 " fill="#000000" />
<path class="atom-11" d="M 142.856 113.922 L 146.568 119.922 Q 146.936 120.514, 147.528 121.586 Q 148.12 122.658, 148.152 122.722 L 148.152 113.922 L 149.656 113.922 L 149.656 125.25 L 148.104 125.25 L 144.12 118.69 Q 143.656 117.922, 143.16 117.042 Q 142.68 116.162, 142.536 115.89 L 142.536 125.25 L 141.064 125.25 L 141.064 113.922 L 142.856 113.922 " fill="#000000" />
<path class="atom-11" d="M 140.928 126.383 L 142.464 126.383 L 142.464 131.199 L 148.256 131.199 L 148.256 126.383 L 149.792 126.383 L 149.792 137.711 L 148.256 137.711 L 148.256 132.479 L 142.464 132.479 L 142.464 137.711 L 140.928 137.711 L 140.928 126.383 " fill="#000000" />
</svg></g></g>
   <g id="text_3">
    
    <g style="fill:#262626;" transform="translate(392.05125 16.318125)scale(0.12 -0.12)">
     <use ns4:href="#DejaVuSans-83" />
     <use x="63.476562" ns4:href="#DejaVuSans-105" />
     <use x="91.259766" ns4:href="#DejaVuSans-109" />
     <use x="188.671875" ns4:href="#DejaVuSans-105" />
     <use x="216.455078" ns4:href="#DejaVuSans-108" />
     <use x="244.238281" ns4:href="#DejaVuSans-97" />
     <use x="305.517578" ns4:href="#DejaVuSans-114" />
     <use x="346.630859" ns4:href="#DejaVuSans-105" />
     <use x="374.414062" ns4:href="#DejaVuSans-116" />
     <use x="413.623047" ns4:href="#DejaVuSans-121" />
     <use x="472.802734" ns4:href="#DejaVuSans-32" />
     <use x="504.589844" ns4:href="#DejaVuSans-61" />
     <use x="588.378906" ns4:href="#DejaVuSans-32" />
     <use x="620.166016" ns4:href="#DejaVuSans-48" />
     <use x="683.789062" ns4:href="#DejaVuSans-46" />
     <use x="715.576172" ns4:href="#DejaVuSans-53" />
     <use x="779.199219" ns4:href="#DejaVuSans-53" />
    </g>
    
    <g style="fill:#262626;" transform="translate(400.334062 29.7555)scale(0.12 -0.12)">
     <defs>
      <path d="M 40.578125 39.3125  Q 47.65625 37.796875 51.625 33  Q 55.609375 28.21875 55.609375 21.1875  Q 55.609375 10.40625 48.1875 4.484375  Q 40.765625 -1.421875 27.09375 -1.421875  Q 22.515625 -1.421875 17.65625 -0.515625  Q 12.796875 0.390625 7.625 2.203125  L 7.625 11.71875  Q 11.71875 9.328125 16.59375 8.109375  Q 21.484375 6.890625 26.8125 6.890625  Q 36.078125 6.890625 40.9375 10.546875  Q 45.796875 14.203125 45.796875 21.1875  Q 45.796875 27.640625 41.28125 31.265625  Q 36.765625 34.90625 28.71875 34.90625  L 20.21875 34.90625  L 20.21875 43.015625  L 29.109375 43.015625  Q 36.375 43.015625 40.234375 45.921875  Q 44.09375 48.828125 44.09375 54.296875  Q 44.09375 59.90625 40.109375 62.90625  Q 36.140625 65.921875 28.71875 65.921875  Q 24.65625 65.921875 20.015625 65.03125  Q 15.375 64.15625 9.8125 62.3125  L 9.8125 71.09375  Q 15.4375 72.65625 20.34375 73.4375  Q 25.25 74.21875 29.59375 74.21875  Q 40.828125 74.21875 47.359375 69.109375  Q 53.90625 64.015625 53.90625 55.328125  Q 53.90625 49.265625 50.4375 45.09375  Q 46.96875 40.921875 40.578125 39.3125  z " id="DejaVuSans-51" />
     </defs>
     <use ns4:href="#DejaVuSans-77" />
     <use x="86.279297" ns4:href="#DejaVuSans-117" />
     <use x="149.658203" ns4:href="#DejaVuSans-116" />
     <use x="188.867188" ns4:href="#DejaVuSans-97" />
     <use x="250.146484" ns4:href="#DejaVuSans-116" />
     <use x="289.355469" ns4:href="#DejaVuSans-105" />
     <use x="317.138672" ns4:href="#DejaVuSans-111" />
     <use x="378.320312" ns4:href="#DejaVuSans-110" />
     <use x="441.699219" ns4:href="#DejaVuSans-115" />
     <use x="493.798828" ns4:href="#DejaVuSans-32" />
     <use x="525.585938" ns4:href="#DejaVuSans-61" />
     <use x="609.375" ns4:href="#DejaVuSans-32" />
     <use x="641.162109" ns4:href="#DejaVuSans-51" />
    </g>
    
    <g style="fill:#262626;" transform="translate(404.091562 43.192875)scale(0.12 -0.12)">
     <defs>
      <path d="M 10.984375 1.515625  L 10.984375 10.5  Q 14.703125 8.734375 18.5 7.8125  Q 22.3125 6.890625 25.984375 6.890625  Q 35.75 6.890625 40.890625 13.453125  Q 46.046875 20.015625 46.78125 33.40625  Q 43.953125 29.203125 39.59375 26.953125  Q 35.25 24.703125 29.984375 24.703125  Q 19.046875 24.703125 12.671875 31.3125  Q 6.296875 37.9375 6.296875 49.421875  Q 6.296875 60.640625 12.9375 67.421875  Q 19.578125 74.21875 30.609375 74.21875  Q 43.265625 74.21875 49.921875 64.515625  Q 56.59375 54.828125 56.59375 36.375  Q 56.59375 19.140625 48.40625 8.859375  Q 40.234375 -1.421875 26.421875 -1.421875  Q 22.703125 -1.421875 18.890625 -0.6875  Q 15.09375 0.046875 10.984375 1.515625  z M 30.609375 32.421875  Q 37.25 32.421875 41.125 36.953125  Q 45.015625 41.5 45.015625 49.421875  Q 45.015625 57.28125 41.125 61.84375  Q 37.25 66.40625 30.609375 66.40625  Q 23.96875 66.40625 20.09375 61.84375  Q 16.21875 57.28125 16.21875 49.421875  Q 16.21875 41.5 20.09375 36.953125  Q 23.96875 32.421875 30.609375 32.421875  z " id="DejaVuSans-57" />
      <path d="M 33.015625 40.375  Q 26.375 40.375 22.484375 35.828125  Q 18.609375 31.296875 18.609375 23.390625  Q 18.609375 15.53125 22.484375 10.953125  Q 26.375 6.390625 33.015625 6.390625  Q 39.65625 6.390625 43.53125 10.953125  Q 47.40625 15.53125 47.40625 23.390625  Q 47.40625 31.296875 43.53125 35.828125  Q 39.65625 40.375 33.015625 40.375  z M 52.59375 71.296875  L 52.59375 62.3125  Q 48.875 64.0625 45.09375 64.984375  Q 41.3125 65.921875 37.59375 65.921875  Q 27.828125 65.921875 22.671875 59.328125  Q 17.53125 52.734375 16.796875 39.40625  Q 19.671875 43.65625 24.015625 45.921875  Q 28.375 48.1875 33.59375 48.1875  Q 44.578125 48.1875 50.953125 41.515625  Q 57.328125 34.859375 57.328125 23.390625  Q 57.328125 12.15625 50.6875 5.359375  Q 44.046875 -1.421875 33.015625 -1.421875  Q 20.359375 -1.421875 13.671875 8.265625  Q 6.984375 17.96875 6.984375 36.375  Q 6.984375 53.65625 15.1875 63.9375  Q 23.390625 74.21875 37.203125 74.21875  Q 40.921875 74.21875 44.703125 73.484375  Q 48.484375 72.75 52.59375 71.296875  z " id="DejaVuSans-54" />
     </defs>
     <use ns4:href="#DejaVuSans-102" />
     <use x="35.205078" ns4:href="#DejaVuSans-40" />
     <use x="74.21875" ns4:href="#DejaVuSans-120" />
     <use x="133.398438" ns4:href="#DejaVuSans-41" />
     <use x="172.412109" ns4:href="#DejaVuSans-32" />
     <use x="204.199219" ns4:href="#DejaVuSans-61" />
     <use x="287.988281" ns4:href="#DejaVuSans-32" />
     <use x="319.775391" ns4:href="#DejaVuSans-45" />
     <use x="355.859375" ns4:href="#DejaVuSans-53" />
     <use x="419.482422" ns4:href="#DejaVuSans-46" />
     <use x="451.269531" ns4:href="#DejaVuSans-57" />
     <use x="514.892578" ns4:href="#DejaVuSans-57" />
     <use x="578.515625" ns4:href="#DejaVuSans-54" />
    </g>
   </g>
  </g>
  <g id="axes_4">
   <g clip-path="url(#pefdb554c5c)">
    <g id="rdkit-img-3-g"><svg baseProfile="full" height="164.0" version="1.1" viewBox="0 0 200 200" width="164.0" x="537.48" y="48.992875" xml:space="preserve">

<rect height="200" style="opacity:1.0;fill:#FFFFFF;stroke:none" width="200" x="0" y="0"> </rect>
<path d="M 145.869,149.963 L 120.957,131.676" style="fill:none;fill-rule:evenodd;stroke:#1BBC9B;stroke-width:9.9px;stroke-linecap:butt;stroke-linejoin:miter;stroke-opacity:1" />
<path d="M 120.957,131.676 L 95.8717,149.716" style="fill:none;fill-rule:evenodd;stroke:#1BBC9B;stroke-width:9.9px;stroke-linecap:butt;stroke-linejoin:miter;stroke-opacity:1" />
<path d="M 120.957,131.676 L 130.653,102.333" style="fill:none;fill-rule:evenodd;stroke:#1BBC9B;stroke-width:9.9px;stroke-linecap:butt;stroke-linejoin:miter;stroke-opacity:1" />
<path d="M 95.8717,149.716 L 64.9713,149.561" style="fill:none;fill-rule:evenodd;stroke:#1BBC9B;stroke-width:9.9px;stroke-linecap:butt;stroke-linejoin:miter;stroke-opacity:1" />
<path d="M 40.3189,80.0352 L 65.4471,54.462" style="fill:none;fill-rule:evenodd;stroke:#1BBC9B;stroke-width:9.9px;stroke-linecap:butt;stroke-linejoin:miter;stroke-opacity:1" />
<path d="M 65.4471,54.462 L 96.3414,54.6165" style="fill:none;fill-rule:evenodd;stroke:#1BBC9B;stroke-width:9.9px;stroke-linecap:butt;stroke-linejoin:miter;stroke-opacity:1" />
<path d="M 96.3414,54.6165 L 121.253,72.8972" style="fill:none;fill-rule:evenodd;stroke:#1BBC9B;stroke-width:9.9px;stroke-linecap:butt;stroke-linejoin:miter;stroke-opacity:1" />
<path d="M 121.253,72.8972 L 142.043,50.0371" style="fill:none;fill-rule:evenodd;stroke:#1BBC9B;stroke-width:9.9px;stroke-linecap:butt;stroke-linejoin:miter;stroke-opacity:1" />
<path d="M 121.253,72.8972 L 130.653,102.333" style="fill:none;fill-rule:evenodd;stroke:#1BBC9B;stroke-width:9.9px;stroke-linecap:butt;stroke-linejoin:miter;stroke-opacity:1" />
<path d="M 142.043,50.0371 L 172.233,56.6127" style="fill:none;fill-rule:evenodd;stroke:#1BBC9B;stroke-width:9.9px;stroke-linecap:butt;stroke-linejoin:miter;stroke-opacity:1" />
<path d="M 172.233,56.6127 L 181.639,86.0485" style="fill:none;fill-rule:evenodd;stroke:#1BBC9B;stroke-width:9.9px;stroke-linecap:butt;stroke-linejoin:miter;stroke-opacity:1" />
<path d="M 181.639,86.0485 L 160.849,108.909" style="fill:none;fill-rule:evenodd;stroke:#1BBC9B;stroke-width:9.9px;stroke-linecap:butt;stroke-linejoin:miter;stroke-opacity:1" />
<path d="M 160.849,108.909 L 130.653,102.333" style="fill:none;fill-rule:evenodd;stroke:#1BBC9B;stroke-width:9.9px;stroke-linecap:butt;stroke-linejoin:miter;stroke-opacity:1" />
<path d="M 62.0604,101.993 L 92.9609,102.148" style="fill:none;fill-rule:evenodd;stroke:#1BBC9B;stroke-width:9.9px;stroke-linecap:butt;stroke-linejoin:miter;stroke-opacity:1" />
<path d="M 92.9609,102.148 L 102.701,85.4675" style="fill:none;fill-rule:evenodd;stroke:#1BBC9B;stroke-width:9.9px;stroke-linecap:butt;stroke-linejoin:miter;stroke-opacity:1" />
<path d="M 102.701,85.4675 L 96.5701,74.7327" style="fill:none;fill-rule:evenodd;stroke:#1BBC9B;stroke-width:9.9px;stroke-linecap:butt;stroke-linejoin:miter;stroke-opacity:1" />
<ellipse cx="145.869" cy="149.963" rx="9.27013" ry="9.27013" style="fill:#1BBC9B;fill-rule:evenodd;stroke:#1BBC9B;stroke-width:1.0px;stroke-linecap:butt;stroke-linejoin:miter;stroke-opacity:1" />
<ellipse cx="120.957" cy="131.828" rx="9.27013" ry="9.27013" style="fill:#1BBC9B;fill-rule:evenodd;stroke:#1BBC9B;stroke-width:1.0px;stroke-linecap:butt;stroke-linejoin:miter;stroke-opacity:1" />
<ellipse cx="95.8717" cy="149.716" rx="9.27013" ry="9.27013" style="fill:#1BBC9B;fill-rule:evenodd;stroke:#1BBC9B;stroke-width:1.0px;stroke-linecap:butt;stroke-linejoin:miter;stroke-opacity:1" />
<ellipse cx="64.9713" cy="149.561" rx="9.27013" ry="9.27013" style="fill:#1BBC9B;fill-rule:evenodd;stroke:#1BBC9B;stroke-width:1.0px;stroke-linecap:butt;stroke-linejoin:miter;stroke-opacity:1" />
<ellipse cx="18.361" cy="101.777" rx="9.27013" ry="9.27013" style="fill:#1BBC9B;fill-rule:evenodd;stroke:#1BBC9B;stroke-width:1.0px;stroke-linecap:butt;stroke-linejoin:miter;stroke-opacity:1" />
<ellipse cx="40.3189" cy="80.0352" rx="9.27013" ry="9.27013" style="fill:#1BBC9B;fill-rule:evenodd;stroke:#1BBC9B;stroke-width:1.0px;stroke-linecap:butt;stroke-linejoin:miter;stroke-opacity:1" />
<ellipse cx="65.4471" cy="54.462" rx="9.27013" ry="9.27013" style="fill:#1BBC9B;fill-rule:evenodd;stroke:#1BBC9B;stroke-width:1.0px;stroke-linecap:butt;stroke-linejoin:miter;stroke-opacity:1" />
<ellipse cx="96.3414" cy="54.6165" rx="9.27013" ry="9.27013" style="fill:#1BBC9B;fill-rule:evenodd;stroke:#1BBC9B;stroke-width:1.0px;stroke-linecap:butt;stroke-linejoin:miter;stroke-opacity:1" />
<ellipse cx="121.253" cy="72.8972" rx="9.27013" ry="9.27013" style="fill:#1BBC9B;fill-rule:evenodd;stroke:#1BBC9B;stroke-width:1.0px;stroke-linecap:butt;stroke-linejoin:miter;stroke-opacity:1" />
<ellipse cx="142.043" cy="50.0371" rx="9.27013" ry="9.27013" style="fill:#1BBC9B;fill-rule:evenodd;stroke:#1BBC9B;stroke-width:1.0px;stroke-linecap:butt;stroke-linejoin:miter;stroke-opacity:1" />
<ellipse cx="172.233" cy="56.6127" rx="9.27013" ry="9.27013" style="fill:#1BBC9B;fill-rule:evenodd;stroke:#1BBC9B;stroke-width:1.0px;stroke-linecap:butt;stroke-linejoin:miter;stroke-opacity:1" />
<ellipse cx="181.639" cy="86.0485" rx="9.27013" ry="9.27013" style="fill:#1BBC9B;fill-rule:evenodd;stroke:#1BBC9B;stroke-width:1.0px;stroke-linecap:butt;stroke-linejoin:miter;stroke-opacity:1" />
<ellipse cx="160.849" cy="108.909" rx="9.27013" ry="9.27013" style="fill:#1BBC9B;fill-rule:evenodd;stroke:#1BBC9B;stroke-width:1.0px;stroke-linecap:butt;stroke-linejoin:miter;stroke-opacity:1" />
<ellipse cx="130.653" cy="102.333" rx="9.27013" ry="9.27013" style="fill:#1BBC9B;fill-rule:evenodd;stroke:#1BBC9B;stroke-width:1.0px;stroke-linecap:butt;stroke-linejoin:miter;stroke-opacity:1" />
<ellipse cx="62.0604" cy="101.993" rx="9.27013" ry="9.27013" style="fill:#1BBC9B;fill-rule:evenodd;stroke:#1BBC9B;stroke-width:1.0px;stroke-linecap:butt;stroke-linejoin:miter;stroke-opacity:1" />
<ellipse cx="92.9609" cy="102.236" rx="9.27013" ry="9.27013" style="fill:#1BBC9B;fill-rule:evenodd;stroke:#1BBC9B;stroke-width:1.0px;stroke-linecap:butt;stroke-linejoin:miter;stroke-opacity:1" />
<ellipse cx="102.701" cy="85.4675" rx="9.27013" ry="9.27013" style="fill:#1BBC9B;fill-rule:evenodd;stroke:#1BBC9B;stroke-width:1.0px;stroke-linecap:butt;stroke-linejoin:miter;stroke-opacity:1" />
<ellipse cx="96.5701" cy="74.8207" rx="9.27013" ry="9.27013" style="fill:#1BBC9B;fill-rule:evenodd;stroke:#1BBC9B;stroke-width:1.0px;stroke-linecap:butt;stroke-linejoin:miter;stroke-opacity:1" />
<path class="bond-0 atom-0 atom-1" d="M 145.869,149.963 L 125.361,134.909" style="fill:none;fill-rule:evenodd;stroke:#000000;stroke-linecap:butt;stroke-linejoin:miter;stroke-opacity:1" />
<path class="bond-1 atom-1 atom-2" d="M 116.552,134.843 L 95.8717,149.716" style="fill:none;fill-rule:evenodd;stroke:#000000;stroke-linecap:butt;stroke-linejoin:miter;stroke-opacity:1" />
<path class="bond-1 atom-1 atom-2" d="M 110.203,132.559 L 95.7264,142.969" style="fill:none;fill-rule:evenodd;stroke:#000000;stroke-linecap:butt;stroke-linejoin:miter;stroke-opacity:1" />
<path class="bond-18 atom-14 atom-1" d="M 130.653,102.333 L 123.078,125.255" style="fill:none;fill-rule:evenodd;stroke:#000000;stroke-linecap:butt;stroke-linejoin:miter;stroke-opacity:1" />
<path class="bond-2 atom-2 atom-3" d="M 95.8717,149.716 L 64.9713,149.561" style="fill:none;fill-rule:evenodd;stroke:#000000;stroke-linecap:butt;stroke-linejoin:miter;stroke-opacity:1" />
<path class="bond-2 atom-2 atom-3" d="M 91.2644,144.131 L 69.6341,144.022" style="fill:none;fill-rule:evenodd;stroke:#000000;stroke-linecap:butt;stroke-linejoin:miter;stroke-opacity:1" />
<path class="bond-3 atom-3 atom-4" d="M 64.9713,149.561 L 40.1026,123.735" style="fill:none;fill-rule:evenodd;stroke:#000000;stroke-linecap:butt;stroke-linejoin:miter;stroke-opacity:1" />
<path class="bond-4 atom-4 atom-5" d="M 40.1026,123.735 L 18.361,101.777" style="fill:none;fill-rule:evenodd;stroke:#000000;stroke-linecap:butt;stroke-linejoin:miter;stroke-opacity:1" />
<path class="bond-4 atom-4 atom-5" d="M 40.7938,116.527 L 25.5747,101.157" style="fill:none;fill-rule:evenodd;stroke:#000000;stroke-linecap:butt;stroke-linejoin:miter;stroke-opacity:1" />
<path class="bond-19 atom-15 atom-4" d="M 62.0604,101.993 L 40.1026,123.735" style="fill:none;fill-rule:evenodd;stroke:#000000;stroke-linecap:butt;stroke-linejoin:miter;stroke-opacity:1" />
<path class="bond-5 atom-5 atom-6" d="M 18.361,101.777 L 40.3189,80.0352" style="fill:none;fill-rule:evenodd;stroke:#000000;stroke-linecap:butt;stroke-linejoin:miter;stroke-opacity:1" />
<path class="bond-6 atom-6 atom-7" d="M 40.3189,80.0352 L 65.4471,54.462" style="fill:none;fill-rule:evenodd;stroke:#000000;stroke-linecap:butt;stroke-linejoin:miter;stroke-opacity:1" />
<path class="bond-6 atom-6 atom-7" d="M 40.1208,72.3009 L 57.7105,54.3997" style="fill:none;fill-rule:evenodd;stroke:#000000;stroke-linecap:butt;stroke-linejoin:miter;stroke-opacity:1" />
<path class="bond-14 atom-6 atom-15" d="M 40.3189,80.0352 L 62.0604,101.993" style="fill:none;fill-rule:evenodd;stroke:#000000;stroke-linecap:butt;stroke-linejoin:miter;stroke-opacity:1" />
<path class="bond-7 atom-7 atom-8" d="M 65.4471,54.462 L 96.3414,54.6165" style="fill:none;fill-rule:evenodd;stroke:#000000;stroke-linecap:butt;stroke-linejoin:miter;stroke-opacity:1" />
<path class="bond-8 atom-8 atom-9" d="M 96.3414,54.6165 L 121.253,72.8972" style="fill:none;fill-rule:evenodd;stroke:#000000;stroke-linecap:butt;stroke-linejoin:miter;stroke-opacity:1" />
<path class="bond-8 atom-8 atom-9" d="M 96.7876,61.8429 L 114.226,74.6394" style="fill:none;fill-rule:evenodd;stroke:#000000;stroke-linecap:butt;stroke-linejoin:miter;stroke-opacity:1" />
<path class="bond-9 atom-9 atom-10" d="M 121.253,72.8972 L 142.043,50.0371" style="fill:none;fill-rule:evenodd;stroke:#000000;stroke-linecap:butt;stroke-linejoin:miter;stroke-opacity:1" />
<path class="bond-20 atom-14 atom-9" d="M 130.653,102.333 L 121.253,72.8972" style="fill:none;fill-rule:evenodd;stroke:#000000;stroke-linecap:butt;stroke-linejoin:miter;stroke-opacity:1" />
<path class="bond-10 atom-10 atom-11" d="M 142.043,50.0371 L 172.233,56.6127" style="fill:none;fill-rule:evenodd;stroke:#000000;stroke-linecap:butt;stroke-linejoin:miter;stroke-opacity:1" />
<path class="bond-10 atom-10 atom-11" d="M 145.388,56.4581 L 166.521,61.061" style="fill:none;fill-rule:evenodd;stroke:#000000;stroke-linecap:butt;stroke-linejoin:miter;stroke-opacity:1" />
<path class="bond-11 atom-11 atom-12" d="M 172.233,56.6127 L 181.639,86.0485" style="fill:none;fill-rule:evenodd;stroke:#000000;stroke-linecap:butt;stroke-linejoin:miter;stroke-opacity:1" />
<path class="bond-12 atom-12 atom-13" d="M 181.639,86.0485 L 160.849,108.909" style="fill:none;fill-rule:evenodd;stroke:#000000;stroke-linecap:butt;stroke-linejoin:miter;stroke-opacity:1" />
<path class="bond-12 atom-12 atom-13" d="M 174.406,85.7352 L 159.853,101.737" style="fill:none;fill-rule:evenodd;stroke:#000000;stroke-linecap:butt;stroke-linejoin:miter;stroke-opacity:1" />
<path class="bond-13 atom-13 atom-14" d="M 160.849,108.909 L 130.653,102.333" style="fill:none;fill-rule:evenodd;stroke:#000000;stroke-linecap:butt;stroke-linejoin:miter;stroke-opacity:1" />
<path class="bond-15 atom-15 atom-16" d="M 62.0604,101.993 L 86.9884,102.118" style="fill:none;fill-rule:evenodd;stroke:#000000;stroke-linecap:butt;stroke-linejoin:miter;stroke-opacity:1" />
<path class="bond-16 atom-16 atom-17" d="M 96.5875,95.9367 L 102.701,85.4675" style="fill:none;fill-rule:evenodd;stroke:#000000;stroke-linecap:butt;stroke-linejoin:miter;stroke-opacity:1" />
<path class="bond-17 atom-17 atom-18" d="M 105.116,84.0883 L 102.533,79.5666" style="fill:none;fill-rule:evenodd;stroke:#000000;stroke-linecap:butt;stroke-linejoin:miter;stroke-opacity:1" />
<path class="bond-17 atom-17 atom-18" d="M 100.286,86.8467 L 97.7034,82.3249" style="fill:none;fill-rule:evenodd;stroke:#000000;stroke-linecap:butt;stroke-linejoin:miter;stroke-opacity:1" />
<path class="atom-1" d="M 117.757 135.564 Q 117.885 135.612, 118.413 135.836 Q 118.941 136.06, 119.517 136.204 Q 120.109 136.332, 120.685 136.332 Q 121.757 136.332, 122.381 135.82 Q 123.005 135.292, 123.005 134.38 Q 123.005 133.756, 122.685 133.372 Q 122.381 132.988, 121.901 132.78 Q 121.421 132.572, 120.621 132.332 Q 119.613 132.028, 119.005 131.74 Q 118.413 131.452, 117.981 130.844 Q 117.565 130.236, 117.565 129.212 Q 117.565 127.788, 118.525 126.908 Q 119.501 126.028, 121.421 126.028 Q 122.733 126.028, 124.221 126.652 L 123.853 127.884 Q 122.493 127.324, 121.469 127.324 Q 120.365 127.324, 119.757 127.788 Q 119.149 128.236, 119.165 129.02 Q 119.165 129.628, 119.469 129.996 Q 119.789 130.364, 120.237 130.572 Q 120.701 130.78, 121.469 131.02 Q 122.493 131.34, 123.101 131.66 Q 123.709 131.98, 124.141 132.636 Q 124.589 133.276, 124.589 134.38 Q 124.589 135.948, 123.533 136.796 Q 122.493 137.628, 120.749 137.628 Q 119.741 137.628, 118.973 137.404 Q 118.221 137.196, 117.325 136.828 L 117.757 135.564 " fill="#000000" />
<path class="atom-16" d="M 87.7609 102.18 Q 87.7609 99.4596, 89.1049 97.9396 Q 90.4489 96.4196, 92.9609 96.4196 Q 95.4729 96.4196, 96.8169 97.9396 Q 98.1609 99.4596, 98.1609 102.18 Q 98.1609 104.932, 96.8009 106.5 Q 95.4409 108.052, 92.9609 108.052 Q 90.4649 108.052, 89.1049 106.5 Q 87.7609 104.948, 87.7609 102.18 M 92.9609 106.772 Q 94.6889 106.772, 95.6169 105.62 Q 96.5609 104.452, 96.5609 102.18 Q 96.5609 99.9556, 95.6169 98.8356 Q 94.6889 97.6996, 92.9609 97.6996 Q 91.2329 97.6996, 90.2889 98.8196 Q 89.3609 99.9396, 89.3609 102.18 Q 89.3609 104.468, 90.2889 105.62 Q 91.2329 106.772, 92.9609 106.772 " fill="#000000" />
<path class="atom-18" d="M 91.3701 74.7647 Q 91.3701 72.0447, 92.7141 70.5247 Q 94.0581 69.0047, 96.5701 69.0047 Q 99.0821 69.0047, 100.426 70.5247 Q 101.77 72.0447, 101.77 74.7647 Q 101.77 77.5167, 100.41 79.0847 Q 99.0501 80.6367, 96.5701 80.6367 Q 94.0741 80.6367, 92.7141 79.0847 Q 91.3701 77.5327, 91.3701 74.7647 M 96.5701 79.3567 Q 98.2981 79.3567, 99.2261 78.2047 Q 100.17 77.0367, 100.17 74.7647 Q 100.17 72.5407, 99.2261 71.4207 Q 98.2981 70.2847, 96.5701 70.2847 Q 94.8421 70.2847, 93.8981 71.4047 Q 92.9701 72.5247, 92.9701 74.7647 Q 92.9701 77.0527, 93.8981 78.2047 Q 94.8421 79.3567, 96.5701 79.3567 " fill="#000000" />
</svg></g></g>
   <g id="text_4">
    
    <g style="fill:#262626;" transform="translate(568.81125 16.318125)scale(0.12 -0.12)">
     <use ns4:href="#DejaVuSans-83" />
     <use x="63.476562" ns4:href="#DejaVuSans-105" />
     <use x="91.259766" ns4:href="#DejaVuSans-109" />
     <use x="188.671875" ns4:href="#DejaVuSans-105" />
     <use x="216.455078" ns4:href="#DejaVuSans-108" />
     <use x="244.238281" ns4:href="#DejaVuSans-97" />
     <use x="305.517578" ns4:href="#DejaVuSans-114" />
     <use x="346.630859" ns4:href="#DejaVuSans-105" />
     <use x="374.414062" ns4:href="#DejaVuSans-116" />
     <use x="413.623047" ns4:href="#DejaVuSans-121" />
     <use x="472.802734" ns4:href="#DejaVuSans-32" />
     <use x="504.589844" ns4:href="#DejaVuSans-61" />
     <use x="588.378906" ns4:href="#DejaVuSans-32" />
     <use x="620.166016" ns4:href="#DejaVuSans-48" />
     <use x="683.789062" ns4:href="#DejaVuSans-46" />
     <use x="715.576172" ns4:href="#DejaVuSans-49" />
     <use x="779.199219" ns4:href="#DejaVuSans-53" />
    </g>
    
    <g style="fill:#262626;" transform="translate(577.094062 29.7555)scale(0.12 -0.12)">
     <use ns4:href="#DejaVuSans-77" />
     <use x="86.279297" ns4:href="#DejaVuSans-117" />
     <use x="149.658203" ns4:href="#DejaVuSans-116" />
     <use x="188.867188" ns4:href="#DejaVuSans-97" />
     <use x="250.146484" ns4:href="#DejaVuSans-116" />
     <use x="289.355469" ns4:href="#DejaVuSans-105" />
     <use x="317.138672" ns4:href="#DejaVuSans-111" />
     <use x="378.320312" ns4:href="#DejaVuSans-110" />
     <use x="441.699219" ns4:href="#DejaVuSans-115" />
     <use x="493.798828" ns4:href="#DejaVuSans-32" />
     <use x="525.585938" ns4:href="#DejaVuSans-61" />
     <use x="609.375" ns4:href="#DejaVuSans-32" />
     <use x="641.162109" ns4:href="#DejaVuSans-53" />
    </g>
    
    <g style="fill:#262626;" transform="translate(580.851562 43.192875)scale(0.12 -0.12)">
     <use ns4:href="#DejaVuSans-102" />
     <use x="35.205078" ns4:href="#DejaVuSans-40" />
     <use x="74.21875" ns4:href="#DejaVuSans-120" />
     <use x="133.398438" ns4:href="#DejaVuSans-41" />
     <use x="172.412109" ns4:href="#DejaVuSans-32" />
     <use x="204.199219" ns4:href="#DejaVuSans-61" />
     <use x="287.988281" ns4:href="#DejaVuSans-32" />
     <use x="319.775391" ns4:href="#DejaVuSans-45" />
     <use x="355.859375" ns4:href="#DejaVuSans-53" />
     <use x="419.482422" ns4:href="#DejaVuSans-46" />
     <use x="451.269531" ns4:href="#DejaVuSans-56" />
     <use x="514.892578" ns4:href="#DejaVuSans-56" />
     <use x="578.515625" ns4:href="#DejaVuSans-57" />
    </g>
   </g>
  </g>
 </g>
 <defs>
  <clipPath id="p8b1640f7bd">
   <rect height="163.8" width="163.8" x="7.2" y="49.192875" />
  </clipPath>
  <clipPath id="pa8a4273bc1">
   <rect height="163.8" width="163.8" x="183.96" y="49.192875" />
  </clipPath>
  <clipPath id="p82fdb694c7">
   <rect height="163.8" width="163.8" x="360.72" y="49.192875" />
  </clipPath>
  <clipPath id="pefdb554c5c">
   <rect height="163.8" width="163.8" x="537.48" y="49.192875" />
  </clipPath>
 </defs>
</svg>