<svg xmlns="http://www.w3.org/2000/svg" xmlns:dc="http://purl.org/dc/elements/1.1/" xmlns:ns2="http://creativecommons.org/ns#" xmlns:ns4="http://www.w3.org/1999/xlink" xmlns:rdf="http://www.w3.org/1999/02/22-rdf-syntax-ns#" height="220.192875pt" version="1.1" viewBox="0 0 708.48 220.192875" width="708.48pt">
 <metadata>
  <rdf:RDF>
   <ns2:Work>
    <dc:type rdf:resource="http://purl.org/dc/dcmitype/StillImage" />
    <dc:date>2021-09-16T16:34:44.717352</dc:date>
    <dc:format>image/svg+xml</dc:format>
    <dc:creator>
     <ns2:Agent>
      <dc:title>Matplotlib v3.3.2, https://matplotlib.org/</dc:title>
     </ns2:Agent>
    </dc:creator>
   </ns2:Work>
  </rdf:RDF>
 </metadata>
 <defs>
  <style type="text/css">*{stroke-linecap:butt;stroke-linejoin:round;}</style>
 </defs>
 <g id="figure_1">
  <g id="patch_1">
   <path d="M 0 220.192875  L 708.48 220.192875  L 708.48 0  L 0 0  z " style="fill:#ffffff;" />
  </g>
  <g id="axes_1">
   <g clip-path="url(#p9d827f2a91)">
    <g id="rdkit-img-0-g"><svg baseProfile="full" height="164.0" version="1.1" viewBox="0 0 200 200" width="164.0" x="7.2" y="48.992875" xml:space="preserve">

<rect height="200" style="opacity:1.0;fill:#FFFFFF;stroke:none" width="200" x="0" y="0"> </rect>
<path class="bond-0 atom-0 atom-1" d="M 9.09091,93.5286 L 24.2736,84.8368" style="fill:none;fill-rule:evenodd;stroke:#000000;stroke-linecap:butt;stroke-linejoin:miter;stroke-opacity:1" />
<path class="bond-1 atom-1 atom-2" d="M 24.2736,84.8368 L 33.756,90.3559" style="fill:none;fill-rule:evenodd;stroke:#000000;stroke-linecap:butt;stroke-linejoin:miter;stroke-opacity:1" />
<path class="bond-2 atom-2 atom-3" d="M 45.0307,90.4098 L 54.5761,84.9453" style="fill:none;fill-rule:evenodd;stroke:#000000;stroke-linecap:butt;stroke-linejoin:miter;stroke-opacity:1" />
<path class="bond-3 atom-3 atom-4" d="M 56.1507,84.9513 L 56.1931,73.797" style="fill:none;fill-rule:evenodd;stroke:#000000;stroke-linecap:butt;stroke-linejoin:miter;stroke-opacity:1" />
<path class="bond-3 atom-3 atom-4" d="M 53.0015,84.9393 L 53.0439,73.7851" style="fill:none;fill-rule:evenodd;stroke:#000000;stroke-linecap:butt;stroke-linejoin:miter;stroke-opacity:1" />
<path class="bond-4 atom-3 atom-5" d="M 54.5761,84.9453 L 69.6958,93.7456" style="fill:none;fill-rule:evenodd;stroke:#000000;stroke-linecap:butt;stroke-linejoin:miter;stroke-opacity:1" />
<path class="bond-5 atom-5 atom-6" d="M 69.6958,93.7456 L 84.882,85.0503" style="fill:none;fill-rule:evenodd;stroke:#000000;stroke-linecap:butt;stroke-linejoin:miter;stroke-opacity:1" />
<path class="bond-5 atom-5 atom-6" d="M 73.5386,95.1742 L 84.1689,89.0875" style="fill:none;fill-rule:evenodd;stroke:#000000;stroke-linecap:butt;stroke-linejoin:miter;stroke-opacity:1" />
<path class="bond-20 atom-20 atom-5" d="M 69.6363,111.241 L 69.6958,93.7456" style="fill:none;fill-rule:evenodd;stroke:#000000;stroke-linecap:butt;stroke-linejoin:miter;stroke-opacity:1" />
<path class="bond-6 atom-6 atom-7" d="M 84.882,85.0503 L 99.9982,93.8541" style="fill:none;fill-rule:evenodd;stroke:#000000;stroke-linecap:butt;stroke-linejoin:miter;stroke-opacity:1" />
<path class="bond-7 atom-7 atom-8" d="M 99.9982,93.8541 L 99.9388,111.35" style="fill:none;fill-rule:evenodd;stroke:#000000;stroke-linecap:butt;stroke-linejoin:miter;stroke-opacity:1" />
<path class="bond-7 atom-7 atom-8" d="M 96.8401,96.4677 L 96.7985,108.715" style="fill:none;fill-rule:evenodd;stroke:#000000;stroke-linecap:butt;stroke-linejoin:miter;stroke-opacity:1" />
<path class="bond-8 atom-8 atom-9" d="M 99.9388,111.35 L 110.325,117.397" style="fill:none;fill-rule:evenodd;stroke:#000000;stroke-linecap:butt;stroke-linejoin:miter;stroke-opacity:1" />
<path class="bond-18 atom-8 atom-19" d="M 99.9388,111.35 L 84.7525,120.045" style="fill:none;fill-rule:evenodd;stroke:#000000;stroke-linecap:butt;stroke-linejoin:miter;stroke-opacity:1" />
<path class="bond-9 atom-9 atom-10" d="M 119.792,117.443 L 130.241,111.458" style="fill:none;fill-rule:evenodd;stroke:#000000;stroke-linecap:butt;stroke-linejoin:miter;stroke-opacity:1" />
<path class="bond-9 atom-9 atom-10" d="M 119.794,113.812 L 127.109,109.623" style="fill:none;fill-rule:evenodd;stroke:#000000;stroke-linecap:butt;stroke-linejoin:miter;stroke-opacity:1" />
<path class="bond-10 atom-10 atom-11" d="M 130.241,111.458 L 140.628,117.506" style="fill:none;fill-rule:evenodd;stroke:#000000;stroke-linecap:butt;stroke-linejoin:miter;stroke-opacity:1" />
<path class="bond-11 atom-11 atom-12" d="M 145.339,126.363 L 145.298,137.758" style="fill:none;fill-rule:evenodd;stroke:#000000;stroke-linecap:butt;stroke-linejoin:miter;stroke-opacity:1" />
<path class="bond-12 atom-11 atom-13" d="M 150.094,117.551 L 160.544,111.567" style="fill:none;fill-rule:evenodd;stroke:#000000;stroke-linecap:butt;stroke-linejoin:miter;stroke-opacity:1" />
<path class="bond-13 atom-13 atom-14" d="M 160.544,111.567 L 160.607,94.071" style="fill:none;fill-rule:evenodd;stroke:#000000;stroke-linecap:butt;stroke-linejoin:miter;stroke-opacity:1" />
<path class="bond-13 atom-13 atom-14" d="M 163.702,108.954 L 163.746,96.7067" style="fill:none;fill-rule:evenodd;stroke:#000000;stroke-linecap:butt;stroke-linejoin:miter;stroke-opacity:1" />
<path class="bond-21 atom-18 atom-13" d="M 175.663,120.37 L 160.544,111.567" style="fill:none;fill-rule:evenodd;stroke:#000000;stroke-linecap:butt;stroke-linejoin:miter;stroke-opacity:1" />
<path class="bond-14 atom-14 atom-15" d="M 160.607,94.071 L 175.789,85.3792" style="fill:none;fill-rule:evenodd;stroke:#000000;stroke-linecap:butt;stroke-linejoin:miter;stroke-opacity:1" />
<path class="bond-15 atom-15 atom-16" d="M 175.789,85.3792 L 190.909,94.183" style="fill:none;fill-rule:evenodd;stroke:#000000;stroke-linecap:butt;stroke-linejoin:miter;stroke-opacity:1" />
<path class="bond-15 atom-15 atom-16" d="M 176.473,89.4212 L 187.056,95.5839" style="fill:none;fill-rule:evenodd;stroke:#000000;stroke-linecap:butt;stroke-linejoin:miter;stroke-opacity:1" />
<path class="bond-16 atom-16 atom-17" d="M 190.909,94.183 L 190.846,111.675" style="fill:none;fill-rule:evenodd;stroke:#000000;stroke-linecap:butt;stroke-linejoin:miter;stroke-opacity:1" />
<path class="bond-17 atom-17 atom-18" d="M 190.846,111.675 L 175.663,120.37" style="fill:none;fill-rule:evenodd;stroke:#000000;stroke-linecap:butt;stroke-linejoin:miter;stroke-opacity:1" />
<path class="bond-17 atom-17 atom-18" d="M 187.004,110.247 L 176.376,116.333" style="fill:none;fill-rule:evenodd;stroke:#000000;stroke-linecap:butt;stroke-linejoin:miter;stroke-opacity:1" />
<path class="bond-19 atom-19 atom-20" d="M 84.7525,120.045 L 69.6363,111.241" style="fill:none;fill-rule:evenodd;stroke:#000000;stroke-linecap:butt;stroke-linejoin:miter;stroke-opacity:1" />
<path class="bond-19 atom-19 atom-20" d="M 84.07,116.003 L 73.4887,109.84" style="fill:none;fill-rule:evenodd;stroke:#000000;stroke-linecap:butt;stroke-linejoin:miter;stroke-opacity:1" />
<path class="atom-2" d="M 34.1934 93.6691 Q 34.1934 90.9491, 35.5374 89.4291 Q 36.8814 87.9091, 39.3934 87.9091 Q 41.9054 87.9091, 43.2494 89.4291 Q 44.5934 90.9491, 44.5934 93.6691 Q 44.5934 96.4211, 43.2334 97.9891 Q 41.8734 99.5411, 39.3934 99.5411 Q 36.8974 99.5411, 35.5374 97.9891 Q 34.1934 96.4371, 34.1934 93.6691 M 39.3934 98.2611 Q 41.1214 98.2611, 42.0494 97.1091 Q 42.9934 95.9411, 42.9934 93.6691 Q 42.9934 91.4451, 42.0494 90.3251 Q 41.1214 89.1891, 39.3934 89.1891 Q 37.6654 89.1891, 36.7214 90.3091 Q 35.7934 91.4291, 35.7934 93.6691 Q 35.7934 95.9571, 36.7214 97.1091 Q 37.6654 98.2611, 39.3934 98.2611 " fill="#000000" />
<path class="atom-4" d="M 49.4426 67.4816 Q 49.4426 64.7616, 50.7866 63.2416 Q 52.1306 61.7216, 54.6426 61.7216 Q 57.1546 61.7216, 58.4986 63.2416 Q 59.8426 64.7616, 59.8426 67.4816 Q 59.8426 70.2336, 58.4826 71.8016 Q 57.1226 73.3536, 54.6426 73.3536 Q 52.1466 73.3536, 50.7866 71.8016 Q 49.4426 70.2496, 49.4426 67.4816 M 54.6426 72.0736 Q 56.3706 72.0736, 57.2986 70.9216 Q 58.2426 69.7536, 58.2426 67.4816 Q 58.2426 65.2576, 57.2986 64.1376 Q 56.3706 63.0016, 54.6426 63.0016 Q 52.9146 63.0016, 51.9706 64.1216 Q 51.0426 65.2416, 51.0426 67.4816 Q 51.0426 69.7696, 51.9706 70.9216 Q 52.9146 72.0736, 54.6426 72.0736 " fill="#000000" />
<path class="atom-9" d="M 112.554 114.49 L 116.266 120.49 Q 116.634 121.082, 117.226 122.154 Q 117.818 123.226, 117.85 123.29 L 117.85 114.49 L 119.354 114.49 L 119.354 125.818 L 117.802 125.818 L 113.818 119.258 Q 113.354 118.49, 112.858 117.61 Q 112.378 116.73, 112.234 116.458 L 112.234 125.818 L 110.762 125.818 L 110.762 114.49 L 112.554 114.49 " fill="#000000" />
<path class="atom-11" d="M 142.857 114.598 L 146.569 120.598 Q 146.937 121.19, 147.529 122.262 Q 148.121 123.334, 148.153 123.398 L 148.153 114.598 L 149.657 114.598 L 149.657 125.926 L 148.105 125.926 L 144.121 119.366 Q 143.657 118.598, 143.161 117.718 Q 142.681 116.838, 142.537 116.566 L 142.537 125.926 L 141.065 125.926 L 141.065 114.598 L 142.857 114.598 " fill="#000000" />
</svg></g></g>
   <g id="text_1">
    
    <g style="fill:#262626;" transform="translate(74.489062 29.7555)scale(0.12 -0.12)">
     <defs>
      <path d="M 19.671875 34.8125  L 19.671875 8.109375  L 35.5 8.109375  Q 43.453125 8.109375 47.28125 11.40625  Q 51.125 14.703125 51.125 21.484375  Q 51.125 28.328125 47.28125 31.5625  Q 43.453125 34.8125 35.5 34.8125  z M 19.671875 64.796875  L 19.671875 42.828125  L 34.28125 42.828125  Q 41.5 42.828125 45.03125 45.53125  Q 48.578125 48.25 48.578125 53.8125  Q 48.578125 59.328125 45.03125 62.0625  Q 41.5 64.796875 34.28125 64.796875  z M 9.8125 72.90625  L 35.015625 72.90625  Q 46.296875 72.90625 52.390625 68.21875  Q 58.5 63.53125 58.5 54.890625  Q 58.5 48.1875 55.375 44.234375  Q 52.25 40.28125 46.1875 39.3125  Q 53.46875 37.75 57.5 32.78125  Q 61.53125 27.828125 61.53125 20.40625  Q 61.53125 10.640625 54.890625 5.3125  Q 48.25 0 35.984375 0  L 9.8125 0  z " id="DejaVuSans-66" />
      <path d="M 34.28125 27.484375  Q 23.390625 27.484375 19.1875 25  Q 14.984375 22.515625 14.984375 16.5  Q 14.984375 11.71875 18.140625 8.90625  Q 21.296875 6.109375 26.703125 6.109375  Q 34.1875 6.109375 38.703125 11.40625  Q 43.21875 16.703125 43.21875 25.484375  L 43.21875 27.484375  z M 52.203125 31.203125  L 52.203125 0  L 43.21875 0  L 43.21875 8.296875  Q 40.140625 3.328125 35.546875 0.953125  Q 30.953125 -1.421875 24.3125 -1.421875  Q 15.921875 -1.421875 10.953125 3.296875  Q 6 8.015625 6 15.921875  Q 6 25.140625 12.171875 29.828125  Q 18.359375 34.515625 30.609375 34.515625  L 43.21875 34.515625  L 43.21875 35.40625  Q 43.21875 41.609375 39.140625 45  Q 35.0625 48.390625 27.6875 48.390625  Q 23 48.390625 18.546875 47.265625  Q 14.109375 46.140625 10.015625 43.890625  L 10.015625 52.203125  Q 14.9375 54.109375 19.578125 55.046875  Q 24.21875 56 28.609375 56  Q 40.484375 56 46.34375 49.84375  Q 52.203125 43.703125 52.203125 31.203125  z " id="DejaVuSans-97" />
      <path d="M 44.28125 53.078125  L 44.28125 44.578125  Q 40.484375 46.53125 36.375 47.5  Q 32.28125 48.484375 27.875 48.484375  Q 21.1875 48.484375 17.84375 46.4375  Q 14.5 44.390625 14.5 40.28125  Q 14.5 37.15625 16.890625 35.375  Q 19.28125 33.59375 26.515625 31.984375  L 29.59375 31.296875  Q 39.15625 29.25 43.1875 25.515625  Q 47.21875 21.78125 47.21875 15.09375  Q 47.21875 7.46875 41.1875 3.015625  Q 35.15625 -1.421875 24.609375 -1.421875  Q 20.21875 -1.421875 15.453125 -0.5625  Q 10.6875 0.296875 5.421875 2  L 5.421875 11.28125  Q 10.40625 8.6875 15.234375 7.390625  Q 20.0625 6.109375 24.8125 6.109375  Q 31.15625 6.109375 34.5625 8.28125  Q 37.984375 10.453125 37.984375 14.40625  Q 37.984375 18.0625 35.515625 20.015625  Q 33.0625 21.96875 24.703125 23.78125  L 21.578125 24.515625  Q 13.234375 26.265625 9.515625 29.90625  Q 5.8125 33.546875 5.8125 39.890625  Q 5.8125 47.609375 11.28125 51.796875  Q 16.75 56 26.8125 56  Q 31.78125 56 36.171875 55.265625  Q 40.578125 54.546875 44.28125 53.078125  z " id="DejaVuSans-115" />
      <path d="M 56.203125 29.59375  L 56.203125 25.203125  L 14.890625 25.203125  Q 15.484375 15.921875 20.484375 11.0625  Q 25.484375 6.203125 34.421875 6.203125  Q 39.59375 6.203125 44.453125 7.46875  Q 49.3125 8.734375 54.109375 11.28125  L 54.109375 2.78125  Q 49.265625 0.734375 44.1875 -0.34375  Q 39.109375 -1.421875 33.890625 -1.421875  Q 20.796875 -1.421875 13.15625 6.1875  Q 5.515625 13.8125 5.515625 26.8125  Q 5.515625 40.234375 12.765625 48.109375  Q 20.015625 56 32.328125 56  Q 43.359375 56 49.78125 48.890625  Q 56.203125 41.796875 56.203125 29.59375  z M 47.21875 32.234375  Q 47.125 39.59375 43.09375 43.984375  Q 39.0625 48.390625 32.421875 48.390625  Q 24.90625 48.390625 20.390625 44.140625  Q 15.875 39.890625 15.1875 32.171875  z " id="DejaVuSans-101" />
     </defs>
     <use ns4:href="#DejaVuSans-66" />
     <use x="68.603516" ns4:href="#DejaVuSans-97" />
     <use x="129.882812" ns4:href="#DejaVuSans-115" />
     <use x="181.982422" ns4:href="#DejaVuSans-101" />
    </g>
    
    <g style="fill:#262626;" transform="translate(50.571562 43.192875)scale(0.12 -0.12)">
     <defs>
      <path d="M 37.109375 75.984375  L 37.109375 68.5  L 28.515625 68.5  Q 23.6875 68.5 21.796875 66.546875  Q 19.921875 64.59375 19.921875 59.515625  L 19.921875 54.6875  L 34.71875 54.6875  L 34.71875 47.703125  L 19.921875 47.703125  L 19.921875 0  L 10.890625 0  L 10.890625 47.703125  L 2.296875 47.703125  L 2.296875 54.6875  L 10.890625 54.6875  L 10.890625 58.5  Q 10.890625 67.625 15.140625 71.796875  Q 19.390625 75.984375 28.609375 75.984375  z " id="DejaVuSans-102" />
      <path d="M 31 75.875  Q 24.46875 64.65625 21.28125 53.65625  Q 18.109375 42.671875 18.109375 31.390625  Q 18.109375 20.125 21.3125 9.0625  Q 24.515625 -2 31 -13.1875  L 23.1875 -13.1875  Q 15.875 -1.703125 12.234375 9.375  Q 8.59375 20.453125 8.59375 31.390625  Q 8.59375 42.28125 12.203125 53.3125  Q 15.828125 64.359375 23.1875 75.875  z " id="DejaVuSans-40" />
      <path d="M 54.890625 54.6875  L 35.109375 28.078125  L 55.90625 0  L 45.3125 0  L 29.390625 21.484375  L 13.484375 0  L 2.875 0  L 24.125 28.609375  L 4.6875 54.6875  L 15.28125 54.6875  L 29.78125 35.203125  L 44.28125 54.6875  z " id="DejaVuSans-120" />
      <path d="M 8.015625 75.875  L 15.828125 75.875  Q 23.140625 64.359375 26.78125 53.3125  Q 30.421875 42.28125 30.421875 31.390625  Q 30.421875 20.453125 26.78125 9.375  Q 23.140625 -1.703125 15.828125 -13.1875  L 8.015625 -13.1875  Q 14.5 -2 17.703125 9.0625  Q 20.90625 20.125 20.90625 31.390625  Q 20.90625 42.671875 17.703125 53.65625  Q 14.5 64.65625 8.015625 75.875  z " id="DejaVuSans-41" />
      <path id="DejaVuSans-32" />
      <path d="M 10.59375 45.40625  L 73.1875 45.40625  L 73.1875 37.203125  L 10.59375 37.203125  z M 10.59375 25.484375  L 73.1875 25.484375  L 73.1875 17.1875  L 10.59375 17.1875  z " id="DejaVuSans-61" />
      <path d="M 4.890625 31.390625  L 31.203125 31.390625  L 31.203125 23.390625  L 4.890625 23.390625  z " id="DejaVuSans-45" />
      <path d="M 37.796875 64.3125  L 12.890625 25.390625  L 37.796875 25.390625  z M 35.203125 72.90625  L 47.609375 72.90625  L 47.609375 25.390625  L 58.015625 25.390625  L 58.015625 17.1875  L 47.609375 17.1875  L 47.609375 0  L 37.796875 0  L 37.796875 17.1875  L 4.890625 17.1875  L 4.890625 26.703125  z " id="DejaVuSans-52" />
      <path d="M 10.6875 12.40625  L 21 12.40625  L 21 0  L 10.6875 0  z " id="DejaVuSans-46" />
      <path d="M 8.203125 72.90625  L 55.078125 72.90625  L 55.078125 68.703125  L 28.609375 0  L 18.3125 0  L 43.21875 64.59375  L 8.203125 64.59375  z " id="DejaVuSans-55" />
      <path d="M 31.78125 66.40625  Q 24.171875 66.40625 20.328125 58.90625  Q 16.5 51.421875 16.5 36.375  Q 16.5 21.390625 20.328125 13.890625  Q 24.171875 6.390625 31.78125 6.390625  Q 39.453125 6.390625 43.28125 13.890625  Q 47.125 21.390625 47.125 36.375  Q 47.125 51.421875 43.28125 58.90625  Q 39.453125 66.40625 31.78125 66.40625  z M 31.78125 74.21875  Q 44.046875 74.21875 50.515625 64.515625  Q 56.984375 54.828125 56.984375 36.375  Q 56.984375 17.96875 50.515625 8.265625  Q 44.046875 -1.421875 31.78125 -1.421875  Q 19.53125 -1.421875 13.0625 8.265625  Q 6.59375 17.96875 6.59375 36.375  Q 6.59375 54.828125 13.0625 64.515625  Q 19.53125 74.21875 31.78125 74.21875  z " id="DejaVuSans-48" />
      <path d="M 31.78125 34.625  Q 24.75 34.625 20.71875 30.859375  Q 16.703125 27.09375 16.703125 20.515625  Q 16.703125 13.921875 20.71875 10.15625  Q 24.75 6.390625 31.78125 6.390625  Q 38.8125 6.390625 42.859375 10.171875  Q 46.921875 13.96875 46.921875 20.515625  Q 46.921875 27.09375 42.890625 30.859375  Q 38.875 34.625 31.78125 34.625  z M 21.921875 38.8125  Q 15.578125 40.375 12.03125 44.71875  Q 8.5 49.078125 8.5 55.328125  Q 8.5 64.0625 14.71875 69.140625  Q 20.953125 74.21875 31.78125 74.21875  Q 42.671875 74.21875 48.875 69.140625  Q 55.078125 64.0625 55.078125 55.328125  Q 55.078125 49.078125 51.53125 44.71875  Q 48 40.375 41.703125 38.8125  Q 48.828125 37.15625 52.796875 32.3125  Q 56.78125 27.484375 56.78125 20.515625  Q 56.78125 9.90625 50.3125 4.234375  Q 43.84375 -1.421875 31.78125 -1.421875  Q 19.734375 -1.421875 13.25 4.234375  Q 6.78125 9.90625 6.78125 20.515625  Q 6.78125 27.484375 10.78125 32.3125  Q 14.796875 37.15625 21.921875 38.8125  z M 18.3125 54.390625  Q 18.3125 48.734375 21.84375 45.5625  Q 25.390625 42.390625 31.78125 42.390625  Q 38.140625 42.390625 41.71875 45.5625  Q 45.3125 48.734375 45.3125 54.390625  Q 45.3125 60.0625 41.71875 63.234375  Q 38.140625 66.40625 31.78125 66.40625  Q 25.390625 66.40625 21.84375 63.234375  Q 18.3125 60.0625 18.3125 54.390625  z " id="DejaVuSans-56" />
     </defs>
     <use ns4:href="#DejaVuSans-102" />
     <use x="35.205078" ns4:href="#DejaVuSans-40" />
     <use x="74.21875" ns4:href="#DejaVuSans-120" />
     <use x="133.398438" ns4:href="#DejaVuSans-41" />
     <use x="172.412109" ns4:href="#DejaVuSans-32" />
     <use x="204.199219" ns4:href="#DejaVuSans-61" />
     <use x="287.988281" ns4:href="#DejaVuSans-32" />
     <use x="319.775391" ns4:href="#DejaVuSans-45" />
     <use x="355.859375" ns4:href="#DejaVuSans-52" />
     <use x="419.482422" ns4:href="#DejaVuSans-46" />
     <use x="451.269531" ns4:href="#DejaVuSans-55" />
     <use x="514.892578" ns4:href="#DejaVuSans-48" />
     <use x="578.515625" ns4:href="#DejaVuSans-56" />
    </g>
   </g>
  </g>
  <g id="axes_2">
   <g clip-path="url(#pb3c490bea6)">
    <g id="rdkit-img-1-g"><svg baseProfile="full" height="164.0" version="1.1" viewBox="0 0 200 200" width="164.0" x="183.96" y="48.992875" xml:space="preserve">

<rect height="200" style="opacity:1.0;fill:#FFFFFF;stroke:none" width="200" x="0" y="0"> </rect>
<path d="M 54.5761,86.0009 L 54.6426,68.5053" style="fill:none;fill-rule:evenodd;stroke:#1BBC9B;stroke-width:5.6px;stroke-linecap:butt;stroke-linejoin:miter;stroke-opacity:1" />
<ellipse cx="54.5761" cy="86.0009" rx="5.24869" ry="5.24869" style="fill:#1BBC9B;fill-rule:evenodd;stroke:#1BBC9B;stroke-width:1.0px;stroke-linecap:butt;stroke-linejoin:miter;stroke-opacity:1" />
<ellipse cx="54.6426" cy="68.6573" rx="5.24869" ry="8.20244" style="fill:#1BBC9B;fill-rule:evenodd;stroke:#1BBC9B;stroke-width:1.0px;stroke-linecap:butt;stroke-linejoin:miter;stroke-opacity:1" />
<path class="bond-0 atom-0 atom-1" d="M 9.09091,94.5843 L 24.2736,85.8925" style="fill:none;fill-rule:evenodd;stroke:#000000;stroke-linecap:butt;stroke-linejoin:miter;stroke-opacity:1" />
<path class="bond-1 atom-1 atom-2" d="M 24.2736,85.8925 L 33.756,91.4116" style="fill:none;fill-rule:evenodd;stroke:#000000;stroke-linecap:butt;stroke-linejoin:miter;stroke-opacity:1" />
<path class="bond-2 atom-2 atom-3" d="M 45.0307,91.4655 L 54.5761,86.0009" style="fill:none;fill-rule:evenodd;stroke:#000000;stroke-linecap:butt;stroke-linejoin:miter;stroke-opacity:1" />
<path class="bond-3 atom-3 atom-4" d="M 56.1507,86.0069 L 56.1929,74.9007" style="fill:none;fill-rule:evenodd;stroke:#000000;stroke-linecap:butt;stroke-linejoin:miter;stroke-opacity:1" />
<path class="bond-3 atom-3 atom-4" d="M 53.0015,85.995 L 53.0437,74.8887" style="fill:none;fill-rule:evenodd;stroke:#000000;stroke-linecap:butt;stroke-linejoin:miter;stroke-opacity:1" />
<path class="bond-4 atom-3 atom-5" d="M 54.5761,86.0009 L 69.6958,94.8012" style="fill:none;fill-rule:evenodd;stroke:#000000;stroke-linecap:butt;stroke-linejoin:miter;stroke-opacity:1" />
<path class="bond-5 atom-5 atom-6" d="M 69.6958,94.8012 L 84.882,86.1059" style="fill:none;fill-rule:evenodd;stroke:#000000;stroke-linecap:butt;stroke-linejoin:miter;stroke-opacity:1" />
<path class="bond-5 atom-5 atom-6" d="M 73.5386,96.2299 L 84.1689,90.1431" style="fill:none;fill-rule:evenodd;stroke:#000000;stroke-linecap:butt;stroke-linejoin:miter;stroke-opacity:1" />
<path class="bond-20 atom-20 atom-5" d="M 69.6363,112.297 L 69.6958,94.8012" style="fill:none;fill-rule:evenodd;stroke:#000000;stroke-linecap:butt;stroke-linejoin:miter;stroke-opacity:1" />
<path class="bond-6 atom-6 atom-7" d="M 84.882,86.1059 L 99.9982,94.9097" style="fill:none;fill-rule:evenodd;stroke:#000000;stroke-linecap:butt;stroke-linejoin:miter;stroke-opacity:1" />
<path class="bond-7 atom-7 atom-8" d="M 99.9982,94.9097 L 99.9388,112.405" style="fill:none;fill-rule:evenodd;stroke:#000000;stroke-linecap:butt;stroke-linejoin:miter;stroke-opacity:1" />
<path class="bond-7 atom-7 atom-8" d="M 96.8401,97.5234 L 96.7985,109.77" style="fill:none;fill-rule:evenodd;stroke:#000000;stroke-linecap:butt;stroke-linejoin:miter;stroke-opacity:1" />
<path class="bond-8 atom-8 atom-9" d="M 99.9388,112.405 L 110.325,118.453" style="fill:none;fill-rule:evenodd;stroke:#000000;stroke-linecap:butt;stroke-linejoin:miter;stroke-opacity:1" />
<path class="bond-18 atom-8 atom-19" d="M 99.9388,112.405 L 84.7525,121.101" style="fill:none;fill-rule:evenodd;stroke:#000000;stroke-linecap:butt;stroke-linejoin:miter;stroke-opacity:1" />
<path class="bond-9 atom-9 atom-10" d="M 119.792,118.498 L 130.241,112.514" style="fill:none;fill-rule:evenodd;stroke:#000000;stroke-linecap:butt;stroke-linejoin:miter;stroke-opacity:1" />
<path class="bond-9 atom-9 atom-10" d="M 119.794,114.868 L 127.109,110.679" style="fill:none;fill-rule:evenodd;stroke:#000000;stroke-linecap:butt;stroke-linejoin:miter;stroke-opacity:1" />
<path class="bond-10 atom-10 atom-11" d="M 130.241,112.514 L 140.628,118.562" style="fill:none;fill-rule:evenodd;stroke:#000000;stroke-linecap:butt;stroke-linejoin:miter;stroke-opacity:1" />
<path class="bond-11 atom-11 atom-12" d="M 145.339,127.419 L 145.298,138.813" style="fill:none;fill-rule:evenodd;stroke:#000000;stroke-linecap:butt;stroke-linejoin:miter;stroke-opacity:1" />
<path class="bond-12 atom-11 atom-13" d="M 150.094,118.607 L 160.544,112.622" style="fill:none;fill-rule:evenodd;stroke:#000000;stroke-linecap:butt;stroke-linejoin:miter;stroke-opacity:1" />
<path class="bond-13 atom-13 atom-14" d="M 160.544,112.622 L 160.607,95.1267" style="fill:none;fill-rule:evenodd;stroke:#000000;stroke-linecap:butt;stroke-linejoin:miter;stroke-opacity:1" />
<path class="bond-13 atom-13 atom-14" d="M 163.702,110.009 L 163.746,97.7624" style="fill:none;fill-rule:evenodd;stroke:#000000;stroke-linecap:butt;stroke-linejoin:miter;stroke-opacity:1" />
<path class="bond-21 atom-18 atom-13" d="M 175.663,121.426 L 160.544,112.622" style="fill:none;fill-rule:evenodd;stroke:#000000;stroke-linecap:butt;stroke-linejoin:miter;stroke-opacity:1" />
<path class="bond-14 atom-14 atom-15" d="M 160.607,95.1267 L 175.789,86.4348" style="fill:none;fill-rule:evenodd;stroke:#000000;stroke-linecap:butt;stroke-linejoin:miter;stroke-opacity:1" />
<path class="bond-15 atom-15 atom-16" d="M 175.789,86.4348 L 190.909,95.2386" style="fill:none;fill-rule:evenodd;stroke:#000000;stroke-linecap:butt;stroke-linejoin:miter;stroke-opacity:1" />
<path class="bond-15 atom-15 atom-16" d="M 176.473,90.4769 L 187.056,96.6396" style="fill:none;fill-rule:evenodd;stroke:#000000;stroke-linecap:butt;stroke-linejoin:miter;stroke-opacity:1" />
<path class="bond-16 atom-16 atom-17" d="M 190.909,95.2386 L 190.846,112.731" style="fill:none;fill-rule:evenodd;stroke:#000000;stroke-linecap:butt;stroke-linejoin:miter;stroke-opacity:1" />
<path class="bond-17 atom-17 atom-18" d="M 190.846,112.731 L 175.663,121.426" style="fill:none;fill-rule:evenodd;stroke:#000000;stroke-linecap:butt;stroke-linejoin:miter;stroke-opacity:1" />
<path class="bond-17 atom-17 atom-18" d="M 187.004,111.302 L 176.376,117.389" style="fill:none;fill-rule:evenodd;stroke:#000000;stroke-linecap:butt;stroke-linejoin:miter;stroke-opacity:1" />
<path class="bond-19 atom-19 atom-20" d="M 84.7525,121.101 L 69.6363,112.297" style="fill:none;fill-rule:evenodd;stroke:#000000;stroke-linecap:butt;stroke-linejoin:miter;stroke-opacity:1" />
<path class="bond-19 atom-19 atom-20" d="M 84.07,117.059 L 73.4887,110.896" style="fill:none;fill-rule:evenodd;stroke:#000000;stroke-linecap:butt;stroke-linejoin:miter;stroke-opacity:1" />
<path class="atom-2" d="M 34.1934 94.7248 Q 34.1934 92.0048, 35.5374 90.4848 Q 36.8814 88.9648, 39.3934 88.9648 Q 41.9054 88.9648, 43.2494 90.4848 Q 44.5934 92.0048, 44.5934 94.7248 Q 44.5934 97.4768, 43.2334 99.0448 Q 41.8734 100.597, 39.3934 100.597 Q 36.8974 100.597, 35.5374 99.0448 Q 34.1934 97.4928, 34.1934 94.7248 M 39.3934 99.3168 Q 41.1214 99.3168, 42.0494 98.1648 Q 42.9934 96.9968, 42.9934 94.7248 Q 42.9934 92.5008, 42.0494 91.3808 Q 41.1214 90.2448, 39.3934 90.2448 Q 37.6654 90.2448, 36.7214 91.3648 Q 35.7934 92.4848, 35.7934 94.7248 Q 35.7934 97.0128, 36.7214 98.1648 Q 37.6654 99.3168, 39.3934 99.3168 " fill="#000000" />
<path class="atom-4" d="M 51.4426 72.3933 Q 51.5706 72.4413, 52.0986 72.6653 Q 52.6266 72.8893, 53.2026 73.0333 Q 53.7946 73.1613, 54.3706 73.1613 Q 55.4426 73.1613, 56.0666 72.6493 Q 56.6906 72.1213, 56.6906 71.2093 Q 56.6906 70.5853, 56.3706 70.2013 Q 56.0666 69.8173, 55.5866 69.6093 Q 55.1066 69.4013, 54.3066 69.1613 Q 53.2986 68.8573, 52.6906 68.5693 Q 52.0986 68.2813, 51.6666 67.6733 Q 51.2506 67.0653, 51.2506 66.0413 Q 51.2506 64.6173, 52.2106 63.7373 Q 53.1866 62.8573, 55.1066 62.8573 Q 56.4186 62.8573, 57.9066 63.4813 L 57.5386 64.7133 Q 56.1786 64.1533, 55.1546 64.1533 Q 54.0506 64.1533, 53.4426 64.6173 Q 52.8346 65.0653, 52.8506 65.8493 Q 52.8506 66.4573, 53.1546 66.8253 Q 53.4746 67.1933, 53.9226 67.4013 Q 54.3866 67.6093, 55.1546 67.8493 Q 56.1786 68.1693, 56.7866 68.4893 Q 57.3946 68.8093, 57.8266 69.4653 Q 58.2746 70.1053, 58.2746 71.2093 Q 58.2746 72.7773, 57.2186 73.6253 Q 56.1786 74.4573, 54.4346 74.4573 Q 53.4266 74.4573, 52.6586 74.2333 Q 51.9066 74.0253, 51.0106 73.6573 L 51.4426 72.3933 " fill="#000000" />
<path class="atom-9" d="M 112.554 115.545 L 116.266 121.545 Q 116.634 122.137, 117.226 123.209 Q 117.818 124.281, 117.85 124.345 L 117.85 115.545 L 119.354 115.545 L 119.354 126.873 L 117.802 126.873 L 113.818 120.313 Q 113.354 119.545, 112.858 118.665 Q 112.378 117.785, 112.234 117.513 L 112.234 126.873 L 110.762 126.873 L 110.762 115.545 L 112.554 115.545 " fill="#000000" />
<path class="atom-11" d="M 142.857 115.654 L 146.569 121.654 Q 146.937 122.246, 147.529 123.318 Q 148.121 124.39, 148.153 124.454 L 148.153 115.654 L 149.657 115.654 L 149.657 126.982 L 148.105 126.982 L 144.121 120.422 Q 143.657 119.654, 143.161 118.774 Q 142.681 117.894, 142.537 117.622 L 142.537 126.982 L 141.065 126.982 L 141.065 115.654 L 142.857 115.654 " fill="#000000" />
</svg></g></g>
   <g id="text_2">
    
    <g style="fill:#262626;" transform="translate(215.29125 16.318125)scale(0.12 -0.12)">
     <defs>
      <path d="M 53.515625 70.515625  L 53.515625 60.890625  Q 47.90625 63.578125 42.921875 64.890625  Q 37.9375 66.21875 33.296875 66.21875  Q 25.25 66.21875 20.875 63.09375  Q 16.5 59.96875 16.5 54.203125  Q 16.5 49.359375 19.40625 46.890625  Q 22.3125 44.4375 30.421875 42.921875  L 36.375 41.703125  Q 47.40625 39.59375 52.65625 34.296875  Q 57.90625 29 57.90625 20.125  Q 57.90625 9.515625 50.796875 4.046875  Q 43.703125 -1.421875 29.984375 -1.421875  Q 24.8125 -1.421875 18.96875 -0.25  Q 13.140625 0.921875 6.890625 3.21875  L 6.890625 13.375  Q 12.890625 10.015625 18.65625 8.296875  Q 24.421875 6.59375 29.984375 6.59375  Q 38.421875 6.59375 43.015625 9.90625  Q 47.609375 13.234375 47.609375 19.390625  Q 47.609375 24.75 44.3125 27.78125  Q 41.015625 30.8125 33.5 32.328125  L 27.484375 33.5  Q 16.453125 35.6875 11.515625 40.375  Q 6.59375 45.0625 6.59375 53.421875  Q 6.59375 63.09375 13.40625 68.65625  Q 20.21875 74.21875 32.171875 74.21875  Q 37.3125 74.21875 42.625 73.28125  Q 47.953125 72.359375 53.515625 70.515625  z " id="DejaVuSans-83" />
      <path d="M 9.421875 54.6875  L 18.40625 54.6875  L 18.40625 0  L 9.421875 0  z M 9.421875 75.984375  L 18.40625 75.984375  L 18.40625 64.59375  L 9.421875 64.59375  z " id="DejaVuSans-105" />
      <path d="M 52 44.1875  Q 55.375 50.25 60.0625 53.125  Q 64.75 56 71.09375 56  Q 79.640625 56 84.28125 50.015625  Q 88.921875 44.046875 88.921875 33.015625  L 88.921875 0  L 79.890625 0  L 79.890625 32.71875  Q 79.890625 40.578125 77.09375 44.375  Q 74.3125 48.1875 68.609375 48.1875  Q 61.625 48.1875 57.5625 43.546875  Q 53.515625 38.921875 53.515625 30.90625  L 53.515625 0  L 44.484375 0  L 44.484375 32.71875  Q 44.484375 40.625 41.703125 44.40625  Q 38.921875 48.1875 33.109375 48.1875  Q 26.21875 48.1875 22.15625 43.53125  Q 18.109375 38.875 18.109375 30.90625  L 18.109375 0  L 9.078125 0  L 9.078125 54.6875  L 18.109375 54.6875  L 18.109375 46.1875  Q 21.1875 51.21875 25.484375 53.609375  Q 29.78125 56 35.6875 56  Q 41.65625 56 45.828125 52.96875  Q 50 49.953125 52 44.1875  z " id="DejaVuSans-109" />
      <path d="M 9.421875 75.984375  L 18.40625 75.984375  L 18.40625 0  L 9.421875 0  z " id="DejaVuSans-108" />
      <path d="M 41.109375 46.296875  Q 39.59375 47.171875 37.8125 47.578125  Q 36.03125 48 33.890625 48  Q 26.265625 48 22.1875 43.046875  Q 18.109375 38.09375 18.109375 28.8125  L 18.109375 0  L 9.078125 0  L 9.078125 54.6875  L 18.109375 54.6875  L 18.109375 46.1875  Q 20.953125 51.171875 25.484375 53.578125  Q 30.03125 56 36.53125 56  Q 37.453125 56 38.578125 55.875  Q 39.703125 55.765625 41.0625 55.515625  z " id="DejaVuSans-114" />
      <path d="M 18.3125 70.21875  L 18.3125 54.6875  L 36.8125 54.6875  L 36.8125 47.703125  L 18.3125 47.703125  L 18.3125 18.015625  Q 18.3125 11.328125 20.140625 9.421875  Q 21.96875 7.515625 27.59375 7.515625  L 36.8125 7.515625  L 36.8125 0  L 27.59375 0  Q 17.1875 0 13.234375 3.875  Q 9.28125 7.765625 9.28125 18.015625  L 9.28125 47.703125  L 2.6875 47.703125  L 2.6875 54.6875  L 9.28125 54.6875  L 9.28125 70.21875  z " id="DejaVuSans-116" />
      <path d="M 32.171875 -5.078125  Q 28.375 -14.84375 24.75 -17.8125  Q 21.140625 -20.796875 15.09375 -20.796875  L 7.90625 -20.796875  L 7.90625 -13.28125  L 13.1875 -13.28125  Q 16.890625 -13.28125 18.9375 -11.515625  Q 21 -9.765625 23.484375 -3.21875  L 25.09375 0.875  L 2.984375 54.6875  L 12.5 54.6875  L 29.59375 11.921875  L 46.6875 54.6875  L 56.203125 54.6875  z " id="DejaVuSans-121" />
      <path d="M 19.1875 8.296875  L 53.609375 8.296875  L 53.609375 0  L 7.328125 0  L 7.328125 8.296875  Q 12.9375 14.109375 22.625 23.890625  Q 32.328125 33.6875 34.8125 36.53125  Q 39.546875 41.84375 41.421875 45.53125  Q 43.3125 49.21875 43.3125 52.78125  Q 43.3125 58.59375 39.234375 62.25  Q 35.15625 65.921875 28.609375 65.921875  Q 23.96875 65.921875 18.8125 64.3125  Q 13.671875 62.703125 7.8125 59.421875  L 7.8125 69.390625  Q 13.765625 71.78125 18.9375 73  Q 24.125 74.21875 28.421875 74.21875  Q 39.75 74.21875 46.484375 68.546875  Q 53.21875 62.890625 53.21875 53.421875  Q 53.21875 48.921875 51.53125 44.890625  Q 49.859375 40.875 45.40625 35.40625  Q 44.1875 33.984375 37.640625 27.21875  Q 31.109375 20.453125 19.1875 8.296875  z " id="DejaVuSans-50" />
     </defs>
     <use ns4:href="#DejaVuSans-83" />
     <use x="63.476562" ns4:href="#DejaVuSans-105" />
     <use x="91.259766" ns4:href="#DejaVuSans-109" />
     <use x="188.671875" ns4:href="#DejaVuSans-105" />
     <use x="216.455078" ns4:href="#DejaVuSans-108" />
     <use x="244.238281" ns4:href="#DejaVuSans-97" />
     <use x="305.517578" ns4:href="#DejaVuSans-114" />
     <use x="346.630859" ns4:href="#DejaVuSans-105" />
     <use x="374.414062" ns4:href="#DejaVuSans-116" />
     <use x="413.623047" ns4:href="#DejaVuSans-121" />
     <use x="472.802734" ns4:href="#DejaVuSans-32" />
     <use x="504.589844" ns4:href="#DejaVuSans-61" />
     <use x="588.378906" ns4:href="#DejaVuSans-32" />
     <use x="620.166016" ns4:href="#DejaVuSans-48" />
     <use x="683.789062" ns4:href="#DejaVuSans-46" />
     <use x="715.576172" ns4:href="#DejaVuSans-56" />
     <use x="779.199219" ns4:href="#DejaVuSans-50" />
    </g>
    
    <g style="fill:#262626;" transform="translate(214.220625 29.7555)scale(0.12 -0.12)">
     <defs>
      <path d="M 34.1875 63.1875  L 20.796875 26.90625  L 47.609375 26.90625  z M 28.609375 72.90625  L 39.796875 72.90625  L 67.578125 0  L 57.328125 0  L 50.6875 18.703125  L 17.828125 18.703125  L 11.1875 0  L 0.78125 0  z " id="DejaVuSans-65" />
      <path d="M 18.109375 8.203125  L 18.109375 -20.796875  L 9.078125 -20.796875  L 9.078125 54.6875  L 18.109375 54.6875  L 18.109375 46.390625  Q 20.953125 51.265625 25.265625 53.625  Q 29.59375 56 35.59375 56  Q 45.5625 56 51.78125 48.09375  Q 58.015625 40.1875 58.015625 27.296875  Q 58.015625 14.40625 51.78125 6.484375  Q 45.5625 -1.421875 35.59375 -1.421875  Q 29.59375 -1.421875 25.265625 0.953125  Q 20.953125 3.328125 18.109375 8.203125  z M 48.6875 27.296875  Q 48.6875 37.203125 44.609375 42.84375  Q 40.53125 48.484375 33.40625 48.484375  Q 26.265625 48.484375 22.1875 42.84375  Q 18.109375 37.203125 18.109375 27.296875  Q 18.109375 17.390625 22.1875 11.75  Q 26.265625 6.109375 33.40625 6.109375  Q 40.53125 6.109375 44.609375 11.75  Q 48.6875 17.390625 48.6875 27.296875  z " id="DejaVuSans-112" />
      <path d="M 54.890625 33.015625  L 54.890625 0  L 45.90625 0  L 45.90625 32.71875  Q 45.90625 40.484375 42.875 44.328125  Q 39.84375 48.1875 33.796875 48.1875  Q 26.515625 48.1875 22.3125 43.546875  Q 18.109375 38.921875 18.109375 30.90625  L 18.109375 0  L 9.078125 0  L 9.078125 75.984375  L 18.109375 75.984375  L 18.109375 46.1875  Q 21.34375 51.125 25.703125 53.5625  Q 30.078125 56 35.796875 56  Q 45.21875 56 50.046875 50.171875  Q 54.890625 44.34375 54.890625 33.015625  z " id="DejaVuSans-104" />
      <path d="M 48.6875 27.296875  Q 48.6875 37.203125 44.609375 42.84375  Q 40.53125 48.484375 33.40625 48.484375  Q 26.265625 48.484375 22.1875 42.84375  Q 18.109375 37.203125 18.109375 27.296875  Q 18.109375 17.390625 22.1875 11.75  Q 26.265625 6.109375 33.40625 6.109375  Q 40.53125 6.109375 44.609375 11.75  Q 48.6875 17.390625 48.6875 27.296875  z M 18.109375 46.390625  Q 20.953125 51.265625 25.265625 53.625  Q 29.59375 56 35.59375 56  Q 45.5625 56 51.78125 48.09375  Q 58.015625 40.1875 58.015625 27.296875  Q 58.015625 14.40625 51.78125 6.484375  Q 45.5625 -1.421875 35.59375 -1.421875  Q 29.59375 -1.421875 25.265625 0.953125  Q 20.953125 3.328125 18.109375 8.203125  L 18.109375 0  L 9.078125 0  L 9.078125 75.984375  L 18.109375 75.984375  z " id="DejaVuSans-98" />
      <path d="M 48.78125 52.59375  L 48.78125 44.1875  Q 44.96875 46.296875 41.140625 47.34375  Q 37.3125 48.390625 33.40625 48.390625  Q 24.65625 48.390625 19.8125 42.84375  Q 14.984375 37.3125 14.984375 27.296875  Q 14.984375 17.28125 19.8125 11.734375  Q 24.65625 6.203125 33.40625 6.203125  Q 37.3125 6.203125 41.140625 7.25  Q 44.96875 8.296875 48.78125 10.40625  L 48.78125 2.09375  Q 45.015625 0.34375 40.984375 -0.53125  Q 36.96875 -1.421875 32.421875 -1.421875  Q 20.0625 -1.421875 12.78125 6.34375  Q 5.515625 14.109375 5.515625 27.296875  Q 5.515625 40.671875 12.859375 48.328125  Q 20.21875 56 33.015625 56  Q 37.15625 56 41.109375 55.140625  Q 45.0625 54.296875 48.78125 52.59375  z " id="DejaVuSans-99" />
     </defs>
     <use ns4:href="#DejaVuSans-65" />
     <use x="68.408203" ns4:href="#DejaVuSans-108" />
     <use x="96.191406" ns4:href="#DejaVuSans-112" />
     <use x="159.667969" ns4:href="#DejaVuSans-104" />
     <use x="223.046875" ns4:href="#DejaVuSans-97" />
     <use x="284.326172" ns4:href="#DejaVuSans-98" />
     <use x="347.802734" ns4:href="#DejaVuSans-101" />
     <use x="409.326172" ns4:href="#DejaVuSans-116" />
     <use x="448.535156" ns4:href="#DejaVuSans-32" />
     <use x="480.322266" ns4:href="#DejaVuSans-61" />
     <use x="564.111328" ns4:href="#DejaVuSans-32" />
     <use x="595.898438" ns4:href="#DejaVuSans-66" />
     <use x="664.501953" ns4:href="#DejaVuSans-97" />
     <use x="725.78125" ns4:href="#DejaVuSans-115" />
     <use x="777.880859" ns4:href="#DejaVuSans-105" />
     <use x="805.664062" ns4:href="#DejaVuSans-99" />
    </g>
    
    <g style="fill:#262626;" transform="translate(227.331562 43.192875)scale(0.12 -0.12)">
     <defs>
      <path d="M 10.796875 72.90625  L 49.515625 72.90625  L 49.515625 64.59375  L 19.828125 64.59375  L 19.828125 46.734375  Q 21.96875 47.46875 24.109375 47.828125  Q 26.265625 48.1875 28.421875 48.1875  Q 40.625 48.1875 47.75 41.5  Q 54.890625 34.8125 54.890625 23.390625  Q 54.890625 11.625 47.5625 5.09375  Q 40.234375 -1.421875 26.90625 -1.421875  Q 22.3125 -1.421875 17.546875 -0.640625  Q 12.796875 0.140625 7.71875 1.703125  L 7.71875 11.625  Q 12.109375 9.234375 16.796875 8.0625  Q 21.484375 6.890625 26.703125 6.890625  Q 35.15625 6.890625 40.078125 11.328125  Q 45.015625 15.765625 45.015625 23.390625  Q 45.015625 31 40.078125 35.4375  Q 35.15625 39.890625 26.703125 39.890625  Q 22.75 39.890625 18.8125 39.015625  Q 14.890625 38.140625 10.796875 36.28125  z " id="DejaVuSans-53" />
      <path d="M 12.40625 8.296875  L 28.515625 8.296875  L 28.515625 63.921875  L 10.984375 60.40625  L 10.984375 69.390625  L 28.421875 72.90625  L 38.28125 72.90625  L 38.28125 8.296875  L 54.390625 8.296875  L 54.390625 0  L 12.40625 0  z " id="DejaVuSans-49" />
     </defs>
     <use ns4:href="#DejaVuSans-102" />
     <use x="35.205078" ns4:href="#DejaVuSans-40" />
     <use x="74.21875" ns4:href="#DejaVuSans-120" />
     <use x="133.398438" ns4:href="#DejaVuSans-41" />
     <use x="172.412109" ns4:href="#DejaVuSans-32" />
     <use x="204.199219" ns4:href="#DejaVuSans-61" />
     <use x="287.988281" ns4:href="#DejaVuSans-32" />
     <use x="319.775391" ns4:href="#DejaVuSans-45" />
     <use x="355.859375" ns4:href="#DejaVuSans-53" />
     <use x="419.482422" ns4:href="#DejaVuSans-46" />
     <use x="451.269531" ns4:href="#DejaVuSans-56" />
     <use x="514.892578" ns4:href="#DejaVuSans-49" />
     <use x="578.515625" ns4:href="#DejaVuSans-55" />
    </g>
   </g>
  </g>
  <g id="axes_3">
   <g clip-path="url(#paa1c9349c8)">
    <g id="rdkit-img-2-g"><svg baseProfile="full" height="164.0" version="1.1" viewBox="0 0 200 200" width="164.0" x="360.72" y="48.992875" xml:space="preserve">

<rect height="200" style="opacity:1.0;fill:#FFFFFF;stroke:none" width="200" x="0" y="0"> </rect>
<path d="M 13.8109,86.5304 L 27.4077,94.4443" style="fill:none;fill-rule:evenodd;stroke:#1BBC9B;stroke-width:5.0px;stroke-linecap:butt;stroke-linejoin:miter;stroke-opacity:1" />
<path d="M 27.4077,94.4443 L 41.0612,86.628" style="fill:none;fill-rule:evenodd;stroke:#1BBC9B;stroke-width:5.0px;stroke-linecap:butt;stroke-linejoin:miter;stroke-opacity:1" />
<ellipse cx="13.8109" cy="86.5304" rx="4.72002" ry="4.72002" style="fill:#1BBC9B;fill-rule:evenodd;stroke:#1BBC9B;stroke-width:1.0px;stroke-linecap:butt;stroke-linejoin:miter;stroke-opacity:1" />
<ellipse cx="28.7632" cy="94.3718" rx="20.0868" ry="8.40676" style="fill:#1BBC9B;fill-rule:evenodd;stroke:#1BBC9B;stroke-width:1.0px;stroke-linecap:butt;stroke-linejoin:miter;stroke-opacity:1" />
<ellipse cx="41.0612" cy="86.628" rx="4.72002" ry="4.72002" style="fill:#1BBC9B;fill-rule:evenodd;stroke:#1BBC9B;stroke-width:1.0px;stroke-linecap:butt;stroke-linejoin:miter;stroke-opacity:1" />
<path class="bond-0 atom-0 atom-1" d="M 13.8109,86.5304 L 16.8908,88.323" style="fill:none;fill-rule:evenodd;stroke:#000000;stroke-linecap:butt;stroke-linejoin:miter;stroke-opacity:1" />
<path class="bond-1 atom-1 atom-2" d="M 37.4782,88.6792 L 41.0612,86.628" style="fill:none;fill-rule:evenodd;stroke:#000000;stroke-linecap:butt;stroke-linejoin:miter;stroke-opacity:1" />
<path class="bond-2 atom-2 atom-3" d="M 41.0612,86.628 L 49.0646,91.2863" style="fill:none;fill-rule:evenodd;stroke:#000000;stroke-linecap:butt;stroke-linejoin:miter;stroke-opacity:1" />
<path class="bond-3 atom-3 atom-4" d="M 60.2513,91.3398 L 68.3114,86.7255" style="fill:none;fill-rule:evenodd;stroke:#000000;stroke-linecap:butt;stroke-linejoin:miter;stroke-opacity:1" />
<path class="bond-4 atom-4 atom-5" d="M 69.7274,86.7306 L 69.7613,77.2945" style="fill:none;fill-rule:evenodd;stroke:#000000;stroke-linecap:butt;stroke-linejoin:miter;stroke-opacity:1" />
<path class="bond-4 atom-4 atom-5" d="M 66.8954,86.7204 L 66.9294,77.2844" style="fill:none;fill-rule:evenodd;stroke:#000000;stroke-linecap:butt;stroke-linejoin:miter;stroke-opacity:1" />
<path class="bond-5 atom-4 atom-6" d="M 68.3114,86.7255 L 81.9082,94.6394" style="fill:none;fill-rule:evenodd;stroke:#000000;stroke-linecap:butt;stroke-linejoin:miter;stroke-opacity:1" />
<path class="bond-6 atom-6 atom-7" d="M 81.9082,94.6394 L 95.5616,86.8199" style="fill:none;fill-rule:evenodd;stroke:#000000;stroke-linecap:butt;stroke-linejoin:miter;stroke-opacity:1" />
<path class="bond-6 atom-6 atom-7" d="M 85.3636,95.924 L 94.921,90.4503" style="fill:none;fill-rule:evenodd;stroke:#000000;stroke-linecap:butt;stroke-linejoin:miter;stroke-opacity:1" />
<path class="bond-21 atom-21 atom-6" d="M 81.8547,110.373 L 81.9082,94.6394" style="fill:none;fill-rule:evenodd;stroke:#000000;stroke-linecap:butt;stroke-linejoin:miter;stroke-opacity:1" />
<path class="bond-7 atom-7 atom-8" d="M 95.5616,86.8199 L 109.158,94.7369" style="fill:none;fill-rule:evenodd;stroke:#000000;stroke-linecap:butt;stroke-linejoin:miter;stroke-opacity:1" />
<path class="bond-8 atom-8 atom-9" d="M 109.158,94.7369 L 109.105,110.47" style="fill:none;fill-rule:evenodd;stroke:#000000;stroke-linecap:butt;stroke-linejoin:miter;stroke-opacity:1" />
<path class="bond-8 atom-8 atom-9" d="M 106.318,97.0873 L 106.281,108.101" style="fill:none;fill-rule:evenodd;stroke:#000000;stroke-linecap:butt;stroke-linejoin:miter;stroke-opacity:1" />
<path class="bond-9 atom-9 atom-10" d="M 109.105,110.47 L 118.009,115.656" style="fill:none;fill-rule:evenodd;stroke:#000000;stroke-linecap:butt;stroke-linejoin:miter;stroke-opacity:1" />
<path class="bond-19 atom-9 atom-20" d="M 109.105,110.47 L 95.4483,118.29" style="fill:none;fill-rule:evenodd;stroke:#000000;stroke-linecap:butt;stroke-linejoin:miter;stroke-opacity:1" />
<path class="bond-10 atom-10 atom-11" d="M 127.388,115.702 L 136.352,110.568" style="fill:none;fill-rule:evenodd;stroke:#000000;stroke-linecap:butt;stroke-linejoin:miter;stroke-opacity:1" />
<path class="bond-10 atom-10 atom-11" d="M 127.325,112.474 L 133.6,108.88" style="fill:none;fill-rule:evenodd;stroke:#000000;stroke-linecap:butt;stroke-linejoin:miter;stroke-opacity:1" />
<path class="bond-11 atom-11 atom-12" d="M 136.352,110.568 L 145.263,115.755" style="fill:none;fill-rule:evenodd;stroke:#000000;stroke-linecap:butt;stroke-linejoin:miter;stroke-opacity:1" />
<path class="bond-12 atom-12 atom-13" d="M 149.929,124.542 L 149.892,134.215" style="fill:none;fill-rule:evenodd;stroke:#000000;stroke-linecap:butt;stroke-linejoin:miter;stroke-opacity:1" />
<path class="bond-13 atom-12 atom-14" d="M 154.641,115.799 L 163.605,110.665" style="fill:none;fill-rule:evenodd;stroke:#000000;stroke-linecap:butt;stroke-linejoin:miter;stroke-opacity:1" />
<path class="bond-14 atom-14 atom-15" d="M 163.605,110.665 L 163.659,94.932" style="fill:none;fill-rule:evenodd;stroke:#000000;stroke-linecap:butt;stroke-linejoin:miter;stroke-opacity:1" />
<path class="bond-14 atom-14 atom-15" d="M 166.445,108.315 L 166.483,97.3017" style="fill:none;fill-rule:evenodd;stroke:#000000;stroke-linecap:butt;stroke-linejoin:miter;stroke-opacity:1" />
<path class="bond-22 atom-19 atom-14" d="M 177.202,118.582 L 163.605,110.665" style="fill:none;fill-rule:evenodd;stroke:#000000;stroke-linecap:butt;stroke-linejoin:miter;stroke-opacity:1" />
<path class="bond-15 atom-15 atom-16" d="M 163.659,94.932 L 177.315,87.1157" style="fill:none;fill-rule:evenodd;stroke:#000000;stroke-linecap:butt;stroke-linejoin:miter;stroke-opacity:1" />
<path class="bond-16 atom-16 atom-17" d="M 177.315,87.1157 L 190.909,95.0327" style="fill:none;fill-rule:evenodd;stroke:#000000;stroke-linecap:butt;stroke-linejoin:miter;stroke-opacity:1" />
<path class="bond-16 atom-16 atom-17" d="M 177.929,90.7505 L 187.445,96.2924" style="fill:none;fill-rule:evenodd;stroke:#000000;stroke-linecap:butt;stroke-linejoin:miter;stroke-opacity:1" />
<path class="bond-17 atom-17 atom-18" d="M 190.909,95.0327 L 190.856,110.763" style="fill:none;fill-rule:evenodd;stroke:#000000;stroke-linecap:butt;stroke-linejoin:miter;stroke-opacity:1" />
<path class="bond-18 atom-18 atom-19" d="M 190.856,110.763 L 177.202,118.582" style="fill:none;fill-rule:evenodd;stroke:#000000;stroke-linecap:butt;stroke-linejoin:miter;stroke-opacity:1" />
<path class="bond-18 atom-18 atom-19" d="M 187.4,109.478 L 177.843,114.952" style="fill:none;fill-rule:evenodd;stroke:#000000;stroke-linecap:butt;stroke-linejoin:miter;stroke-opacity:1" />
<path class="bond-20 atom-20 atom-21" d="M 95.4483,118.29 L 81.8547,110.373" style="fill:none;fill-rule:evenodd;stroke:#000000;stroke-linecap:butt;stroke-linejoin:miter;stroke-opacity:1" />
<path class="bond-20 atom-20 atom-21" d="M 94.8346,114.655 L 85.319,109.113" style="fill:none;fill-rule:evenodd;stroke:#000000;stroke-linecap:butt;stroke-linejoin:miter;stroke-opacity:1" />
<path class="atom-1" d="M 14.5597 94.4923 Q 14.5597 91.6763, 15.8717 90.2043 Q 17.1997 88.7163, 19.7117 88.7163 Q 22.0477 88.7163, 23.2957 90.3643 L 22.2397 91.2283 Q 21.3277 90.0283, 19.7117 90.0283 Q 17.9997 90.0283, 17.0877 91.1803 Q 16.1917 92.3163, 16.1917 94.4923 Q 16.1917 96.7323, 17.1197 97.8843 Q 18.0637 99.0363, 19.8877 99.0363 Q 21.1357 99.0363, 22.5917 98.2843 L 23.0397 99.4843 Q 22.4477 99.8683, 21.5517 100.092 Q 20.6557 100.316, 19.6637 100.316 Q 17.1997 100.316, 15.8717 98.8123 Q 14.5597 97.3083, 14.5597 94.4923 " fill="#000000" />
<path class="atom-1" d="M 31.5197 91.9483 L 31.5197 100.172 L 30.2877 100.172 L 30.1117 99.0363 Q 29.0397 100.316, 27.3277 100.316 Q 25.9357 100.316, 25.2317 99.5803 Q 24.5277 98.8283, 24.5277 97.3883 L 24.5277 91.9483 L 26.0317 91.9483 L 26.0317 97.2763 Q 26.0317 98.2523, 26.3997 98.7003 Q 26.7837 99.1323, 27.6157 99.1323 Q 28.3677 99.1323, 28.9917 98.7963 Q 29.6157 98.4443, 30.0157 97.8363 L 30.0157 91.9483 L 31.5197 91.9483 " fill="#000000" />
<path class="atom-1" d="M 32.0688 89.9269 Q 32.3434 89.2193, 32.9981 88.8286 Q 33.6528 88.4273, 34.561 88.4273 Q 35.6909 88.4273, 36.3245 89.0398 Q 36.9581 89.6523, 36.9581 90.74 Q 36.9581 91.8488, 36.1344 92.8837 Q 35.3213 93.9185, 33.6317 95.1435 L 37.0848 95.1435 L 37.0848 95.9883 L 32.0477 95.9883 L 32.0477 95.2808 Q 33.4416 94.2881, 34.2653 93.5489 Q 35.0996 92.8097, 35.5008 92.1445 Q 35.9021 91.4792, 35.9021 90.7928 Q 35.9021 90.0747, 35.5431 89.6734 Q 35.184 89.2721, 34.561 89.2721 Q 33.9591 89.2721, 33.5578 89.515 Q 33.1565 89.7579, 32.8714 90.2965 L 32.0688 89.9269 " fill="#000000" />
<path class="atom-1" d="M 38.0352 92.3662 L 40.0311 92.3662 L 40.0311 90.2648 L 40.9181 90.2648 L 40.9181 92.3662 L 42.9668 92.3662 L 42.9668 93.1265 L 40.9181 93.1265 L 40.9181 95.2385 L 40.0311 95.2385 L 40.0311 93.1265 L 38.0352 93.1265 L 38.0352 92.3662 " fill="#000000" />
<path class="atom-3" d="M 49.4579 94.5738 Q 49.4579 91.8538, 50.8019 90.3338 Q 52.1459 88.8138, 54.6579 88.8138 Q 57.1699 88.8138, 58.5139 90.3338 Q 59.8579 91.8538, 59.8579 94.5738 Q 59.8579 97.3258, 58.4979 98.8938 Q 57.1379 100.446, 54.6579 100.446 Q 52.1619 100.446, 50.8019 98.8938 Q 49.4579 97.3418, 49.4579 94.5738 M 54.6579 99.1658 Q 56.3859 99.1658, 57.3139 98.0138 Q 58.2579 96.8458, 58.2579 94.5738 Q 58.2579 92.3498, 57.3139 91.2298 Q 56.3859 90.0938, 54.6579 90.0938 Q 52.9299 90.0938, 51.9859 91.2138 Q 51.0579 92.3338, 51.0579 94.5738 Q 51.0579 96.8618, 51.9859 98.0138 Q 52.9299 99.1658, 54.6579 99.1658 " fill="#000000" />
<path class="atom-5" d="M 63.168 71.0241 Q 63.168 68.3041, 64.512 66.7841 Q 65.856 65.2641, 68.368 65.2641 Q 70.88 65.2641, 72.224 66.7841 Q 73.568 68.3041, 73.568 71.0241 Q 73.568 73.7761, 72.208 75.3441 Q 70.848 76.8961, 68.368 76.8961 Q 65.872 76.8961, 64.512 75.3441 Q 63.168 73.7921, 63.168 71.0241 M 68.368 75.6161 Q 70.096 75.6161, 71.024 74.4641 Q 71.968 73.2961, 71.968 71.0241 Q 71.968 68.8001, 71.024 67.6801 Q 70.096 66.5441, 68.368 66.5441 Q 66.64 66.5441, 65.696 67.6641 Q 64.768 68.7841, 64.768 71.0241 Q 64.768 73.3121, 65.696 74.4641 Q 66.64 75.6161, 68.368 75.6161 " fill="#000000" />
<path class="atom-10" d="M 120.195 112.723 L 123.907 118.723 Q 124.275 119.315, 124.867 120.387 Q 125.459 121.459, 125.491 121.523 L 125.491 112.723 L 126.995 112.723 L 126.995 124.051 L 125.443 124.051 L 121.459 117.491 Q 120.995 116.723, 120.499 115.843 Q 120.019 114.963, 119.875 114.691 L 119.875 124.051 L 118.403 124.051 L 118.403 112.723 L 120.195 112.723 " fill="#000000" />
<path class="atom-12" d="M 147.448 112.821 L 151.16 118.821 Q 151.528 119.413, 152.12 120.485 Q 152.712 121.557, 152.744 121.621 L 152.744 112.821 L 154.248 112.821 L 154.248 124.149 L 152.696 124.149 L 148.712 117.589 Q 148.248 116.821, 147.752 115.941 Q 147.272 115.061, 147.128 114.789 L 147.128 124.149 L 145.656 124.149 L 145.656 112.821 L 147.448 112.821 " fill="#000000" />
<path d="M 28.4744,100.873 L 28.4704,100.782 L 28.4586,100.691 L 28.439,100.601 L 28.4118,100.513 L 28.3771,100.428 L 28.3353,100.347 L 28.2866,100.269 L 28.2314,100.196 L 28.17,100.127 L 28.1031,100.065 L 28.031,100.008 L 27.9543,99.9574 L 27.8735,99.9138 L 27.7893,99.8773 L 27.7022,99.8482 L 27.613,99.8267 L 27.5223,99.8129 L 27.4307,99.807 L 27.3389,99.8089 L 27.2477,99.8188 L 27.1576,99.8365 L 27.0694,99.8618 L 26.9837,99.8946 L 26.9011,99.9347 L 26.8223,99.9817 L 26.7478,100.035 L 26.6782,100.095 L 26.614,100.161 L 26.5557,100.232 L 26.5037,100.307 L 26.4584,100.387 L 26.4201,100.471 L 26.3891,100.557 L 26.3657,100.646 L 26.3499,100.736 L 26.342,100.828 L 26.342,100.919 L 26.3499,101.011 L 26.3657,101.101 L 26.3891,101.19 L 26.4201,101.276 L 26.4584,101.36 L 26.5037,101.44 L 26.5557,101.515 L 26.614,101.586 L 26.6782,101.652 L 26.7478,101.711 L 26.8223,101.765 L 26.9011,101.812 L 26.9837,101.852 L 27.0694,101.885 L 27.1576,101.91 L 27.2477,101.928 L 27.3389,101.938 L 27.4307,101.94 L 27.5223,101.934 L 27.613,101.92 L 27.7022,101.899 L 27.7893,101.869 L 27.8735,101.833 L 27.9543,101.789 L 28.031,101.739 L 28.1031,101.682 L 28.17,101.619 L 28.2314,101.551 L 28.2866,101.478 L 28.3353,101.4 L 28.3771,101.318 L 28.4118,101.233 L 28.439,101.146 L 28.4586,101.056 L 28.4704,100.965 L 28.4744,100.873 L 27.4077,100.873 Z" style="fill:#000000;fill-rule:evenodd;fill-opacity:1;stroke:#000000;stroke-width:0.0px;stroke-linecap:butt;stroke-linejoin:miter;stroke-opacity:1;" />
</svg></g></g>
   <g id="text_3">
    
    <g style="fill:#262626;" transform="translate(392.05125 16.318125)scale(0.12 -0.12)">
     <use ns4:href="#DejaVuSans-83" />
     <use x="63.476562" ns4:href="#DejaVuSans-105" />
     <use x="91.259766" ns4:href="#DejaVuSans-109" />
     <use x="188.671875" ns4:href="#DejaVuSans-105" />
     <use x="216.455078" ns4:href="#DejaVuSans-108" />
     <use x="244.238281" ns4:href="#DejaVuSans-97" />
     <use x="305.517578" ns4:href="#DejaVuSans-114" />
     <use x="346.630859" ns4:href="#DejaVuSans-105" />
     <use x="374.414062" ns4:href="#DejaVuSans-116" />
     <use x="413.623047" ns4:href="#DejaVuSans-121" />
     <use x="472.802734" ns4:href="#DejaVuSans-32" />
     <use x="504.589844" ns4:href="#DejaVuSans-61" />
     <use x="588.378906" ns4:href="#DejaVuSans-32" />
     <use x="620.166016" ns4:href="#DejaVuSans-48" />
     <use x="683.789062" ns4:href="#DejaVuSans-46" />
     <use x="715.576172" ns4:href="#DejaVuSans-56" />
     <use x="779.199219" ns4:href="#DejaVuSans-52" />
    </g>
    
    <g style="fill:#262626;" transform="translate(366.961875 29.7555)scale(0.12 -0.12)">
     <defs>
      <path d="M -0.296875 72.90625  L 61.375 72.90625  L 61.375 64.59375  L 35.5 64.59375  L 35.5 0  L 25.59375 0  L 25.59375 64.59375  L -0.296875 64.59375  z " id="DejaVuSans-84" />
      <path d="M 54.890625 33.015625  L 54.890625 0  L 45.90625 0  L 45.90625 32.71875  Q 45.90625 40.484375 42.875 44.328125  Q 39.84375 48.1875 33.796875 48.1875  Q 26.515625 48.1875 22.3125 43.546875  Q 18.109375 38.921875 18.109375 30.90625  L 18.109375 0  L 9.078125 0  L 9.078125 54.6875  L 18.109375 54.6875  L 18.109375 46.1875  Q 21.34375 51.125 25.703125 53.5625  Q 30.078125 56 35.796875 56  Q 45.21875 56 50.046875 50.171875  Q 54.890625 44.34375 54.890625 33.015625  z " id="DejaVuSans-110" />
      <path d="M 45.40625 27.984375  Q 45.40625 37.75 41.375 43.109375  Q 37.359375 48.484375 30.078125 48.484375  Q 22.859375 48.484375 18.828125 43.109375  Q 14.796875 37.75 14.796875 27.984375  Q 14.796875 18.265625 18.828125 12.890625  Q 22.859375 7.515625 30.078125 7.515625  Q 37.359375 7.515625 41.375 12.890625  Q 45.40625 18.265625 45.40625 27.984375  z M 54.390625 6.78125  Q 54.390625 -7.171875 48.1875 -13.984375  Q 42 -20.796875 29.203125 -20.796875  Q 24.46875 -20.796875 20.265625 -20.09375  Q 16.0625 -19.390625 12.109375 -17.921875  L 12.109375 -9.1875  Q 16.0625 -11.328125 19.921875 -12.34375  Q 23.78125 -13.375 27.78125 -13.375  Q 36.625 -13.375 41.015625 -8.765625  Q 45.40625 -4.15625 45.40625 5.171875  L 45.40625 9.625  Q 42.625 4.78125 38.28125 2.390625  Q 33.9375 0 27.875 0  Q 17.828125 0 11.671875 7.65625  Q 5.515625 15.328125 5.515625 27.984375  Q 5.515625 40.671875 11.671875 48.328125  Q 17.828125 56 27.875 56  Q 33.9375 56 38.28125 53.609375  Q 42.625 51.21875 45.40625 46.390625  L 45.40625 54.6875  L 54.390625 54.6875  z " id="DejaVuSans-103" />
      <path d="M 19.671875 64.796875  L 19.671875 8.109375  L 31.59375 8.109375  Q 46.6875 8.109375 53.6875 14.9375  Q 60.6875 21.78125 60.6875 36.53125  Q 60.6875 51.171875 53.6875 57.984375  Q 46.6875 64.796875 31.59375 64.796875  z M 9.8125 72.90625  L 30.078125 72.90625  Q 51.265625 72.90625 61.171875 64.09375  Q 71.09375 55.28125 71.09375 36.53125  Q 71.09375 17.671875 61.125 8.828125  Q 51.171875 0 30.078125 0  L 9.8125 0  z " id="DejaVuSans-68" />
     </defs>
     <use ns4:href="#DejaVuSans-65" />
     <use x="68.408203" ns4:href="#DejaVuSans-108" />
     <use x="96.191406" ns4:href="#DejaVuSans-112" />
     <use x="159.667969" ns4:href="#DejaVuSans-104" />
     <use x="223.046875" ns4:href="#DejaVuSans-97" />
     <use x="284.326172" ns4:href="#DejaVuSans-98" />
     <use x="347.802734" ns4:href="#DejaVuSans-101" />
     <use x="409.326172" ns4:href="#DejaVuSans-116" />
     <use x="448.535156" ns4:href="#DejaVuSans-32" />
     <use x="480.322266" ns4:href="#DejaVuSans-61" />
     <use x="564.111328" ns4:href="#DejaVuSans-32" />
     <use x="595.898438" ns4:href="#DejaVuSans-84" />
     <use x="642.232422" ns4:href="#DejaVuSans-114" />
     <use x="683.345703" ns4:href="#DejaVuSans-97" />
     <use x="744.625" ns4:href="#DejaVuSans-105" />
     <use x="772.408203" ns4:href="#DejaVuSans-110" />
     <use x="835.787109" ns4:href="#DejaVuSans-105" />
     <use x="863.570312" ns4:href="#DejaVuSans-110" />
     <use x="926.949219" ns4:href="#DejaVuSans-103" />
     <use x="990.425781" ns4:href="#DejaVuSans-32" />
     <use x="1022.212891" ns4:href="#DejaVuSans-68" />
     <use x="1099.214844" ns4:href="#DejaVuSans-97" />
     <use x="1160.494141" ns4:href="#DejaVuSans-116" />
     <use x="1199.703125" ns4:href="#DejaVuSans-97" />
    </g>
    
    <g style="fill:#262626;" transform="translate(404.091562 43.192875)scale(0.12 -0.12)">
     <use ns4:href="#DejaVuSans-102" />
     <use x="35.205078" ns4:href="#DejaVuSans-40" />
     <use x="74.21875" ns4:href="#DejaVuSans-120" />
     <use x="133.398438" ns4:href="#DejaVuSans-41" />
     <use x="172.412109" ns4:href="#DejaVuSans-32" />
     <use x="204.199219" ns4:href="#DejaVuSans-61" />
     <use x="287.988281" ns4:href="#DejaVuSans-32" />
     <use x="319.775391" ns4:href="#DejaVuSans-45" />
     <use x="355.859375" ns4:href="#DejaVuSans-53" />
     <use x="419.482422" ns4:href="#DejaVuSans-46" />
     <use x="451.269531" ns4:href="#DejaVuSans-56" />
     <use x="514.892578" ns4:href="#DejaVuSans-55" />
     <use x="578.515625" ns4:href="#DejaVuSans-49" />
    </g>
   </g>
  </g>
  <g id="axes_4">
   <g clip-path="url(#pb7947d74f5)">
    <g id="rdkit-img-3-g"><svg baseProfile="full" height="164.0" version="1.1" viewBox="0 0 200 200" width="164.0" x="537.48" y="48.992875" xml:space="preserve">

<rect height="200" style="opacity:1.0;fill:#FFFFFF;stroke:none" width="200" x="0" y="0"> </rect>
<path d="M 54.5761,86.1258 L 54.6426,68.6301" style="fill:none;fill-rule:evenodd;stroke:#1BBC9B;stroke-width:5.6px;stroke-linecap:butt;stroke-linejoin:miter;stroke-opacity:1" />
<ellipse cx="54.5761" cy="86.1258" rx="5.24869" ry="5.24869" style="fill:#1BBC9B;fill-rule:evenodd;stroke:#1BBC9B;stroke-width:1.0px;stroke-linecap:butt;stroke-linejoin:miter;stroke-opacity:1" />
<ellipse cx="57.5835" cy="68.6684" rx="9.29557" ry="8.36332" style="fill:#1BBC9B;fill-rule:evenodd;stroke:#1BBC9B;stroke-width:1.0px;stroke-linecap:butt;stroke-linejoin:miter;stroke-opacity:1" />
<path class="bond-0 atom-0 atom-1" d="M 9.09091,94.7091 L 24.2736,86.0173" style="fill:none;fill-rule:evenodd;stroke:#000000;stroke-linecap:butt;stroke-linejoin:miter;stroke-opacity:1" />
<path class="bond-1 atom-1 atom-2" d="M 24.2736,86.0173 L 33.756,91.5364" style="fill:none;fill-rule:evenodd;stroke:#000000;stroke-linecap:butt;stroke-linejoin:miter;stroke-opacity:1" />
<path class="bond-2 atom-2 atom-3" d="M 45.0307,91.5903 L 54.5761,86.1258" style="fill:none;fill-rule:evenodd;stroke:#000000;stroke-linecap:butt;stroke-linejoin:miter;stroke-opacity:1" />
<path class="bond-3 atom-3 atom-4" d="M 56.1507,86.1318 L 56.1929,75.0255" style="fill:none;fill-rule:evenodd;stroke:#000000;stroke-linecap:butt;stroke-linejoin:miter;stroke-opacity:1" />
<path class="bond-3 atom-3 atom-4" d="M 53.0015,86.1198 L 53.0437,75.0136" style="fill:none;fill-rule:evenodd;stroke:#000000;stroke-linecap:butt;stroke-linejoin:miter;stroke-opacity:1" />
<path class="bond-4 atom-3 atom-5" d="M 54.5761,86.1258 L 69.6958,94.9261" style="fill:none;fill-rule:evenodd;stroke:#000000;stroke-linecap:butt;stroke-linejoin:miter;stroke-opacity:1" />
<path class="bond-5 atom-5 atom-6" d="M 69.6958,94.9261 L 84.882,86.2308" style="fill:none;fill-rule:evenodd;stroke:#000000;stroke-linecap:butt;stroke-linejoin:miter;stroke-opacity:1" />
<path class="bond-5 atom-5 atom-6" d="M 73.5386,96.3547 L 84.1689,90.268" style="fill:none;fill-rule:evenodd;stroke:#000000;stroke-linecap:butt;stroke-linejoin:miter;stroke-opacity:1" />
<path class="bond-20 atom-20 atom-5" d="M 69.6363,112.422 L 69.6958,94.9261" style="fill:none;fill-rule:evenodd;stroke:#000000;stroke-linecap:butt;stroke-linejoin:miter;stroke-opacity:1" />
<path class="bond-6 atom-6 atom-7" d="M 84.882,86.2308 L 99.9982,95.0346" style="fill:none;fill-rule:evenodd;stroke:#000000;stroke-linecap:butt;stroke-linejoin:miter;stroke-opacity:1" />
<path class="bond-7 atom-7 atom-8" d="M 99.9982,95.0346 L 99.9388,112.53" style="fill:none;fill-rule:evenodd;stroke:#000000;stroke-linecap:butt;stroke-linejoin:miter;stroke-opacity:1" />
<path class="bond-7 atom-7 atom-8" d="M 96.8401,97.6482 L 96.7985,109.895" style="fill:none;fill-rule:evenodd;stroke:#000000;stroke-linecap:butt;stroke-linejoin:miter;stroke-opacity:1" />
<path class="bond-8 atom-8 atom-9" d="M 99.9388,112.53 L 110.325,118.578" style="fill:none;fill-rule:evenodd;stroke:#000000;stroke-linecap:butt;stroke-linejoin:miter;stroke-opacity:1" />
<path class="bond-18 atom-8 atom-19" d="M 99.9388,112.53 L 84.7525,121.226" style="fill:none;fill-rule:evenodd;stroke:#000000;stroke-linecap:butt;stroke-linejoin:miter;stroke-opacity:1" />
<path class="bond-9 atom-9 atom-10" d="M 119.792,118.623 L 130.241,112.639" style="fill:none;fill-rule:evenodd;stroke:#000000;stroke-linecap:butt;stroke-linejoin:miter;stroke-opacity:1" />
<path class="bond-9 atom-9 atom-10" d="M 119.794,114.993 L 127.109,110.804" style="fill:none;fill-rule:evenodd;stroke:#000000;stroke-linecap:butt;stroke-linejoin:miter;stroke-opacity:1" />
<path class="bond-10 atom-10 atom-11" d="M 130.241,112.639 L 140.628,118.686" style="fill:none;fill-rule:evenodd;stroke:#000000;stroke-linecap:butt;stroke-linejoin:miter;stroke-opacity:1" />
<path class="bond-11 atom-11 atom-12" d="M 145.339,127.544 L 145.298,138.938" style="fill:none;fill-rule:evenodd;stroke:#000000;stroke-linecap:butt;stroke-linejoin:miter;stroke-opacity:1" />
<path class="bond-12 atom-11 atom-13" d="M 150.094,118.732 L 160.544,112.747" style="fill:none;fill-rule:evenodd;stroke:#000000;stroke-linecap:butt;stroke-linejoin:miter;stroke-opacity:1" />
<path class="bond-13 atom-13 atom-14" d="M 160.544,112.747 L 160.607,95.2515" style="fill:none;fill-rule:evenodd;stroke:#000000;stroke-linecap:butt;stroke-linejoin:miter;stroke-opacity:1" />
<path class="bond-13 atom-13 atom-14" d="M 163.702,110.134 L 163.746,97.8872" style="fill:none;fill-rule:evenodd;stroke:#000000;stroke-linecap:butt;stroke-linejoin:miter;stroke-opacity:1" />
<path class="bond-21 atom-18 atom-13" d="M 175.663,121.551 L 160.544,112.747" style="fill:none;fill-rule:evenodd;stroke:#000000;stroke-linecap:butt;stroke-linejoin:miter;stroke-opacity:1" />
<path class="bond-14 atom-14 atom-15" d="M 160.607,95.2515 L 175.789,86.5597" style="fill:none;fill-rule:evenodd;stroke:#000000;stroke-linecap:butt;stroke-linejoin:miter;stroke-opacity:1" />
<path class="bond-15 atom-15 atom-16" d="M 175.789,86.5597 L 190.909,95.3635" style="fill:none;fill-rule:evenodd;stroke:#000000;stroke-linecap:butt;stroke-linejoin:miter;stroke-opacity:1" />
<path class="bond-15 atom-15 atom-16" d="M 176.473,90.6017 L 187.056,96.7644" style="fill:none;fill-rule:evenodd;stroke:#000000;stroke-linecap:butt;stroke-linejoin:miter;stroke-opacity:1" />
<path class="bond-16 atom-16 atom-17" d="M 190.909,95.3635 L 190.846,112.856" style="fill:none;fill-rule:evenodd;stroke:#000000;stroke-linecap:butt;stroke-linejoin:miter;stroke-opacity:1" />
<path class="bond-17 atom-17 atom-18" d="M 190.846,112.856 L 175.663,121.551" style="fill:none;fill-rule:evenodd;stroke:#000000;stroke-linecap:butt;stroke-linejoin:miter;stroke-opacity:1" />
<path class="bond-17 atom-17 atom-18" d="M 187.004,111.427 L 176.376,117.514" style="fill:none;fill-rule:evenodd;stroke:#000000;stroke-linecap:butt;stroke-linejoin:miter;stroke-opacity:1" />
<path class="bond-19 atom-19 atom-20" d="M 84.7525,121.226 L 69.6363,112.422" style="fill:none;fill-rule:evenodd;stroke:#000000;stroke-linecap:butt;stroke-linejoin:miter;stroke-opacity:1" />
<path class="bond-19 atom-19 atom-20" d="M 84.07,117.184 L 73.4887,111.021" style="fill:none;fill-rule:evenodd;stroke:#000000;stroke-linecap:butt;stroke-linejoin:miter;stroke-opacity:1" />
<path class="atom-2" d="M 34.1934 94.8496 Q 34.1934 92.1296, 35.5374 90.6096 Q 36.8814 89.0896, 39.3934 89.0896 Q 41.9054 89.0896, 43.2494 90.6096 Q 44.5934 92.1296, 44.5934 94.8496 Q 44.5934 97.6016, 43.2334 99.1696 Q 41.8734 100.722, 39.3934 100.722 Q 36.8974 100.722, 35.5374 99.1696 Q 34.1934 97.6176, 34.1934 94.8496 M 39.3934 99.4416 Q 41.1214 99.4416, 42.0494 98.2896 Q 42.9934 97.1216, 42.9934 94.8496 Q 42.9934 92.6256, 42.0494 91.5056 Q 41.1214 90.3696, 39.3934 90.3696 Q 37.6654 90.3696, 36.7214 91.4896 Q 35.7934 92.6096, 35.7934 94.8496 Q 35.7934 97.1376, 36.7214 98.2896 Q 37.6654 99.4416, 39.3934 99.4416 " fill="#000000" />
<path class="atom-4" d="M 51.4426 72.5181 Q 51.5706 72.5661, 52.0986 72.7901 Q 52.6266 73.0141, 53.2026 73.1581 Q 53.7946 73.2861, 54.3706 73.2861 Q 55.4426 73.2861, 56.0666 72.7741 Q 56.6906 72.2461, 56.6906 71.3341 Q 56.6906 70.7101, 56.3706 70.3261 Q 56.0666 69.9421, 55.5866 69.7341 Q 55.1066 69.5261, 54.3066 69.2861 Q 53.2986 68.9821, 52.6906 68.6941 Q 52.0986 68.4061, 51.6666 67.7981 Q 51.2506 67.1901, 51.2506 66.1661 Q 51.2506 64.7421, 52.2106 63.8621 Q 53.1866 62.9821, 55.1066 62.9821 Q 56.4186 62.9821, 57.9066 63.6061 L 57.5386 64.8381 Q 56.1786 64.2781, 55.1546 64.2781 Q 54.0506 64.2781, 53.4426 64.7421 Q 52.8346 65.1901, 52.8506 65.9741 Q 52.8506 66.5821, 53.1546 66.9501 Q 53.4746 67.3181, 53.9226 67.5261 Q 54.3866 67.7341, 55.1546 67.9741 Q 56.1786 68.2941, 56.7866 68.6141 Q 57.3946 68.9341, 57.8266 69.5901 Q 58.2746 70.2301, 58.2746 71.3341 Q 58.2746 72.9021, 57.2186 73.7501 Q 56.1786 74.5821, 54.4346 74.5821 Q 53.4266 74.5821, 52.6586 74.3581 Q 51.9066 74.1501, 51.0106 73.7821 L 51.4426 72.5181 " fill="#000000" />
<path class="atom-4" d="M 59.225 64.8561 L 61.2208 64.8561 L 61.2208 62.7546 L 62.1078 62.7546 L 62.1078 64.8561 L 64.1565 64.8561 L 64.1565 65.6164 L 62.1078 65.6164 L 62.1078 67.7284 L 61.2208 67.7284 L 61.2208 65.6164 L 59.225 65.6164 L 59.225 64.8561 " fill="#000000" />
<path class="atom-9" d="M 112.554 115.67 L 116.266 121.67 Q 116.634 122.262, 117.226 123.334 Q 117.818 124.406, 117.85 124.47 L 117.85 115.67 L 119.354 115.67 L 119.354 126.998 L 117.802 126.998 L 113.818 120.438 Q 113.354 119.67, 112.858 118.79 Q 112.378 117.91, 112.234 117.638 L 112.234 126.998 L 110.762 126.998 L 110.762 115.67 L 112.554 115.67 " fill="#000000" />
<path class="atom-11" d="M 142.857 115.778 L 146.569 121.778 Q 146.937 122.37, 147.529 123.442 Q 148.121 124.514, 148.153 124.578 L 148.153 115.778 L 149.657 115.778 L 149.657 127.106 L 148.105 127.106 L 144.121 120.546 Q 143.657 119.778, 143.161 118.898 Q 142.681 118.018, 142.537 117.746 L 142.537 127.106 L 141.065 127.106 L 141.065 115.778 L 142.857 115.778 " fill="#000000" />
<path d="M 66.5401,68.6301 L 66.5361,68.5384 L 66.5243,68.4474 L 66.5047,68.3578 L 66.4775,68.2701 L 66.4428,68.1851 L 66.401,68.1034 L 66.3522,68.0257 L 66.297,67.9523 L 66.2357,67.8841 L 66.1687,67.8213 L 66.0966,67.7645 L 66.0199,67.7141 L 65.9392,67.6705 L 65.8549,67.634 L 65.7679,67.6049 L 65.6787,67.5834 L 65.5879,67.5696 L 65.4963,67.5637 L 65.4046,67.5657 L 65.3133,67.5756 L 65.2233,67.5932 L 65.1351,67.6186 L 65.0493,67.6514 L 64.9668,67.6915 L 64.888,67.7385 L 64.8135,67.7921 L 64.7439,67.8519 L 64.6797,67.9175 L 64.6214,67.9884 L 64.5693,68.064 L 64.524,68.1438 L 64.4857,68.2273 L 64.4548,68.3136 L 64.4313,68.4024 L 64.4156,68.4928 L 64.4077,68.5842 L 64.4077,68.676 L 64.4156,68.7675 L 64.4313,68.8579 L 64.4548,68.9466 L 64.4857,69.033 L 64.524,69.1164 L 64.5693,69.1963 L 64.6214,69.2719 L 64.6797,69.3427 L 64.7439,69.4083 L 64.8135,69.4682 L 64.888,69.5218 L 64.9668,69.5688 L 65.0493,69.6089 L 65.1351,69.6417 L 65.2233,69.6671 L 65.3133,69.6847 L 65.4046,69.6946 L 65.4963,69.6966 L 65.5879,69.6906 L 65.6787,69.6769 L 65.7679,69.6553 L 65.8549,69.6262 L 65.9392,69.5897 L 66.0199,69.5462 L 66.0966,69.4958 L 66.1687,69.439 L 66.2357,69.3762 L 66.297,69.3079 L 66.3522,69.2346 L 66.401,69.1568 L 66.4428,69.0751 L 66.4775,68.9902 L 66.5047,68.9025 L 66.5243,68.8129 L 66.5361,68.7218 L 66.5401,68.6301 L 65.4734,68.6301 Z" style="fill:#000000;fill-rule:evenodd;fill-opacity:1;stroke:#000000;stroke-width:0.0px;stroke-linecap:butt;stroke-linejoin:miter;stroke-opacity:1;" />
</svg></g></g>
   <g id="text_4">
    
    <g style="fill:#262626;" transform="translate(568.81125 16.318125)scale(0.12 -0.12)">
     <use ns4:href="#DejaVuSans-83" />
     <use x="63.476562" ns4:href="#DejaVuSans-105" />
     <use x="91.259766" ns4:href="#DejaVuSans-109" />
     <use x="188.671875" ns4:href="#DejaVuSans-105" />
     <use x="216.455078" ns4:href="#DejaVuSans-108" />
     <use x="244.238281" ns4:href="#DejaVuSans-97" />
     <use x="305.517578" ns4:href="#DejaVuSans-114" />
     <use x="346.630859" ns4:href="#DejaVuSans-105" />
     <use x="374.414062" ns4:href="#DejaVuSans-116" />
     <use x="413.623047" ns4:href="#DejaVuSans-121" />
     <use x="472.802734" ns4:href="#DejaVuSans-32" />
     <use x="504.589844" ns4:href="#DejaVuSans-61" />
     <use x="588.378906" ns4:href="#DejaVuSans-32" />
     <use x="620.166016" ns4:href="#DejaVuSans-48" />
     <use x="683.789062" ns4:href="#DejaVuSans-46" />
     <use x="715.576172" ns4:href="#DejaVuSans-56" />
     <use x="779.199219" ns4:href="#DejaVuSans-50" />
    </g>
    
    <g style="fill:#262626;" transform="translate(559.860937 29.7555)scale(0.12 -0.12)">
     <defs>
      <path d="M 9.8125 72.90625  L 55.90625 72.90625  L 55.90625 64.59375  L 19.671875 64.59375  L 19.671875 43.015625  L 54.390625 43.015625  L 54.390625 34.71875  L 19.671875 34.71875  L 19.671875 8.296875  L 56.78125 8.296875  L 56.78125 0  L 9.8125 0  z " id="DejaVuSans-69" />
      <path d="M 9.8125 72.90625  L 19.671875 72.90625  L 19.671875 8.296875  L 55.171875 8.296875  L 55.171875 0  L 9.8125 0  z " id="DejaVuSans-76" />
      <path d="M 9.8125 72.90625  L 51.703125 72.90625  L 51.703125 64.59375  L 19.671875 64.59375  L 19.671875 43.109375  L 48.578125 43.109375  L 48.578125 34.8125  L 19.671875 34.8125  L 19.671875 0  L 9.8125 0  z " id="DejaVuSans-70" />
      <path d="M 9.8125 72.90625  L 19.671875 72.90625  L 19.671875 0  L 9.8125 0  z " id="DejaVuSans-73" />
     </defs>
     <use ns4:href="#DejaVuSans-65" />
     <use x="68.408203" ns4:href="#DejaVuSans-108" />
     <use x="96.191406" ns4:href="#DejaVuSans-112" />
     <use x="159.667969" ns4:href="#DejaVuSans-104" />
     <use x="223.046875" ns4:href="#DejaVuSans-97" />
     <use x="284.326172" ns4:href="#DejaVuSans-98" />
     <use x="347.802734" ns4:href="#DejaVuSans-101" />
     <use x="409.326172" ns4:href="#DejaVuSans-116" />
     <use x="448.535156" ns4:href="#DejaVuSans-32" />
     <use x="480.322266" ns4:href="#DejaVuSans-61" />
     <use x="564.111328" ns4:href="#DejaVuSans-32" />
     <use x="595.898438" ns4:href="#DejaVuSans-83" />
     <use x="659.375" ns4:href="#DejaVuSans-69" />
     <use x="722.558594" ns4:href="#DejaVuSans-76" />
     <use x="778.271484" ns4:href="#DejaVuSans-70" />
     <use x="835.791016" ns4:href="#DejaVuSans-73" />
     <use x="865.283203" ns4:href="#DejaVuSans-69" />
     <use x="928.466797" ns4:href="#DejaVuSans-83" />
    </g>
    
    <g style="fill:#262626;" transform="translate(580.851562 43.192875)scale(0.12 -0.12)">
     <defs>
      <path d="M 33.015625 40.375  Q 26.375 40.375 22.484375 35.828125  Q 18.609375 31.296875 18.609375 23.390625  Q 18.609375 15.53125 22.484375 10.953125  Q 26.375 6.390625 33.015625 6.390625  Q 39.65625 6.390625 43.53125 10.953125  Q 47.40625 15.53125 47.40625 23.390625  Q 47.40625 31.296875 43.53125 35.828125  Q 39.65625 40.375 33.015625 40.375  z M 52.59375 71.296875  L 52.59375 62.3125  Q 48.875 64.0625 45.09375 64.984375  Q 41.3125 65.921875 37.59375 65.921875  Q 27.828125 65.921875 22.671875 59.328125  Q 17.53125 52.734375 16.796875 39.40625  Q 19.671875 43.65625 24.015625 45.921875  Q 28.375 48.1875 33.59375 48.1875  Q 44.578125 48.1875 50.953125 41.515625  Q 57.328125 34.859375 57.328125 23.390625  Q 57.328125 12.15625 50.6875 5.359375  Q 44.046875 -1.421875 33.015625 -1.421875  Q 20.359375 -1.421875 13.671875 8.265625  Q 6.984375 17.96875 6.984375 36.375  Q 6.984375 53.65625 15.1875 63.9375  Q 23.390625 74.21875 37.203125 74.21875  Q 40.921875 74.21875 44.703125 73.484375  Q 48.484375 72.75 52.59375 71.296875  z " id="DejaVuSans-54" />
     </defs>
     <use ns4:href="#DejaVuSans-102" />
     <use x="35.205078" ns4:href="#DejaVuSans-40" />
     <use x="74.21875" ns4:href="#DejaVuSans-120" />
     <use x="133.398438" ns4:href="#DejaVuSans-41" />
     <use x="172.412109" ns4:href="#DejaVuSans-32" />
     <use x="204.199219" ns4:href="#DejaVuSans-61" />
     <use x="287.988281" ns4:href="#DejaVuSans-32" />
     <use x="319.775391" ns4:href="#DejaVuSans-45" />
     <use x="355.859375" ns4:href="#DejaVuSans-54" />
     <use x="419.482422" ns4:href="#DejaVuSans-46" />
     <use x="451.269531" ns4:href="#DejaVuSans-50" />
     <use x="514.892578" ns4:href="#DejaVuSans-48" />
     <use x="578.515625" ns4:href="#DejaVuSans-48" />
    </g>
   </g>
  </g>
 </g>
 <defs>
  <clipPath id="p9d827f2a91">
   <rect height="163.8" width="163.8" x="7.2" y="49.192875" />
  </clipPath>
  <clipPath id="pb3c490bea6">
   <rect height="163.8" width="163.8" x="183.96" y="49.192875" />
  </clipPath>
  <clipPath id="paa1c9349c8">
   <rect height="163.8" width="163.8" x="360.72" y="49.192875" />
  </clipPath>
  <clipPath id="pb7947d74f5">
   <rect height="163.8" width="163.8" x="537.48" y="49.192875" />
  </clipPath>
 </defs>
</svg>